<svg width="40" height="40" viewBox="0 0 40 40" fill="none" xmlns="http://www.w3.org/2000/svg">
<g clip-path="url(#clip0)">
<path fill-rule="evenodd" clip-rule="evenodd" d="M23.7878 26.7343C24.0293 26.9053 24.3406 26.948 24.6181 26.843C24.8956 26.7373 25.0996 26.5003 25.1611 26.213C25.8128 23.15 27.3938 15.3973 27.9871 12.611C28.0321 12.401 27.9571 12.1828 27.7921 12.0425C27.6271 11.9023 27.3983 11.8618 27.1943 11.9375C24.0496 13.1015 14.3648 16.7353 10.4063 18.2C10.1551 18.293 9.99156 18.5345 9.99981 18.7993C10.0088 19.0648 10.1873 19.295 10.4446 19.3723C12.2198 19.9033 14.5501 20.642 14.5501 20.642C14.5501 20.642 15.6391 23.9308 16.2068 25.6033C16.2781 25.8133 16.4423 25.9783 16.6591 26.0353C16.8751 26.0915 17.1061 26.0323 17.2673 25.88C18.1793 25.019 19.5893 23.6878 19.5893 23.6878C19.5893 23.6878 22.2683 25.652 23.7878 26.7343ZM15.5303 20.2265L16.7896 24.38L17.0693 21.7498C17.0693 21.7498 21.9346 17.3615 24.7081 14.8603C24.7891 14.7868 24.8003 14.6638 24.7328 14.5775C24.6661 14.4913 24.5431 14.471 24.4508 14.5295C21.2363 16.5823 15.5303 20.2265 15.5303 20.2265Z" fill="black"/>
</g>
<circle cx="20" cy="20" r="19" stroke="black" stroke-width="2"/>
<defs>
<clipPath id="clip0">
<rect width="18" height="18" fill="white" transform="translate(10 11)"/>
</clipPath>
</defs>
</svg>
