<svg width="40" height="40" viewBox="0 0 40 40" fill="none" xmlns="http://www.w3.org/2000/svg">
<path d="M11.0425 29L12.3077 24.3778C11.527 23.0247 11.1167 21.491 11.1175 19.9183C11.1197 15.0012 15.121 11 20.0372 11C22.423 11.0008 24.6625 11.93 26.347 13.616C28.0307 15.302 28.9577 17.543 28.957 19.9265C28.9547 24.8443 24.9535 28.8455 20.0372 28.8455C18.5447 28.8448 17.074 28.4705 15.7712 27.7595L11.0425 29ZM15.9902 26.1448C17.2472 26.891 18.4472 27.338 20.0342 27.3387C24.1202 27.3387 27.4487 24.0133 27.451 19.925C27.4525 15.8285 24.1397 12.5075 20.0402 12.506C15.9512 12.506 12.625 15.8315 12.6235 19.919C12.6227 21.5878 13.1117 22.8372 13.933 24.1445L13.1837 26.8805L15.9902 26.1448ZM24.5305 22.0468C24.475 21.9537 24.3265 21.8982 24.103 21.7865C23.8802 21.6748 22.7845 21.1355 22.5797 21.0612C22.3757 20.987 22.2272 20.9495 22.078 21.173C21.9295 21.3958 21.502 21.8982 21.3722 22.0468C21.2425 22.1953 21.112 22.214 20.8892 22.1023C20.6665 21.9905 19.948 21.7557 19.0967 20.996C18.4345 20.405 17.9867 19.6753 17.857 19.4517C17.7272 19.229 17.8435 19.1082 17.9545 18.9973C18.055 18.8975 18.1772 18.737 18.289 18.6065C18.4022 18.4775 18.439 18.3845 18.514 18.2353C18.5882 18.0868 18.5515 17.9563 18.4952 17.8445C18.439 17.7335 17.9935 16.6363 17.8082 16.19C17.6267 15.7558 17.443 15.8142 17.3065 15.8075L16.879 15.8C16.7305 15.8 16.489 15.8555 16.285 16.079C16.081 16.3025 15.505 16.841 15.505 17.9383C15.505 19.0355 16.3037 20.0953 16.4147 20.2437C16.5265 20.3923 17.986 22.6438 20.2217 23.609C20.7535 23.8385 21.169 23.9757 21.4922 24.0785C22.0262 24.248 22.5122 24.224 22.8962 24.167C23.3245 24.1032 24.2147 23.6277 24.4007 23.1073C24.5867 22.586 24.5867 22.1398 24.5305 22.0468Z" fill="black"/>
<circle cx="20" cy="20" r="19" stroke="black" stroke-width="2"/>
</svg>
