<svg width="34" height="24" viewBox="0 0 34 24" fill="none" xmlns="http://www.w3.org/2000/svg">
<rect x="0.5" y="0.5" width="33" height="23" rx="3.5" fill="white" stroke="#D9D9D9"/>
<path fill-rule="evenodd" clip-rule="evenodd" d="M6.93566 13.7668C6.7497 13.873 6.55172 13.926 6.34185 13.926H6.17989C6.13782 13.926 6.07773 13.9223 5.90422 13.8907L6.49089 11.3211C6.59882 11.2213 6.71525 11.1565 6.85022 11.1251C6.9852 11.0939 7.07213 11.0855 7.1562 11.0855C7.41399 11.0855 7.61347 11.1626 7.7095 11.3312C7.8054 11.4998 7.85345 11.734 7.85345 12.0337C7.85345 12.2773 7.81437 12.5115 7.73649 12.7363C7.65846 12.9611 7.55203 13.1625 7.41712 13.3405C7.28214 13.5185 7.12154 13.6606 6.93566 13.7668ZM8.25839 10.076C8.04831 9.96987 7.79949 9.91673 7.51152 9.91673C7.37349 9.91673 7.24456 9.93237 7.12467 9.96357C7.00457 9.99491 6.89148 10.0353 6.77159 10.0915L7.32265 7.67792L5.92794 7.90271L4.37134 14.7128C4.54526 14.8004 4.72965 14.869 4.92471 14.9189C5.11956 14.9688 5.30402 15.0063 5.47801 15.0313C5.65193 15.0562 5.80649 15.0702 5.94146 15.0735C6.07644 15.0765 6.17091 15.0781 6.22488 15.0781C6.6447 15.0781 7.03468 14.9953 7.39456 14.8299C7.7545 14.6645 8.06632 14.4397 8.33036 14.1555C8.59427 13.8713 8.80272 13.5372 8.95571 13.1531C9.1087 12.7691 9.18516 12.3616 9.18516 11.9307C9.18516 11.6497 9.15206 11.3874 9.08613 11.1439C9.02007 10.9002 8.91813 10.688 8.78022 10.5068C8.64219 10.3258 8.46827 10.1822 8.25839 10.076ZM11.9472 9.31559L12.1521 8.41818H10.816L10.6111 9.31559H11.9472ZM13.8805 13.8887C13.7083 13.8887 13.573 13.8633 13.4748 13.812C13.3763 13.7608 13.3072 13.6888 13.2673 13.5959C13.2272 13.5032 13.212 13.3928 13.2211 13.2647C13.2304 13.1368 13.2534 12.9992 13.2903 12.8519L13.6961 11.0855H15.2176L15.4942 9.91426H13.9634L14.3139 8.42618L12.8846 8.65663L11.9808 12.6311C11.9071 12.9575 11.864 13.2681 11.8518 13.5623C11.8393 13.8568 11.8824 14.1176 11.9808 14.3448C12.0791 14.572 12.2451 14.7513 12.4788 14.8824C12.7123 15.0135 13.0413 15.0791 13.4655 15.0791C13.7606 15.0791 14.0156 15.0535 14.2309 15.0024C14.2531 14.9971 14.2869 14.9886 14.3088 14.9831L14.587 13.7713C14.4936 13.8045 14.3997 13.8267 14.3092 13.8456C14.1709 13.8744 14.028 13.8887 13.8805 13.8887ZM30.1142 9.91587H28.7782L28.0011 13.3195H28.0025L27.8957 13.7877C27.8211 13.8095 27.7469 13.8291 27.6732 13.8445C27.5349 13.8733 27.392 13.8877 27.2444 13.8877C27.0722 13.8877 26.937 13.8622 26.8387 13.8109C26.7403 13.7597 26.6712 13.6878 26.6312 13.5949C26.5912 13.5022 26.5759 13.3918 26.5851 13.2636C26.5944 13.1357 26.6174 12.9982 26.6543 12.8509L27.06 11.0844L27.3274 9.91318L27.3275 9.91283H25.9626L25.3448 12.6301C25.2711 12.9565 25.228 13.267 25.2158 13.5613C25.2033 13.8557 25.2464 14.1166 25.3448 14.3437C25.4431 14.5709 25.6091 14.7502 25.8428 14.8814C26.0763 15.0124 26.4053 15.0781 26.8294 15.0781C27.1246 15.0781 27.3796 15.0525 27.5949 15.0013C27.6036 14.9992 27.6119 14.997 27.6204 14.9949L27.6198 14.9974C27.56 15.2777 27.4389 15.5051 27.2445 15.6825C27.0499 15.8601 26.7612 15.9489 26.3784 15.9489C26.2149 15.9489 26.0664 15.9388 25.9318 15.9194L25.6689 17.0712C25.8467 17.0952 26.0439 17.1076 26.2617 17.1076C26.6685 17.1076 27.0246 17.0592 27.3298 16.9627C27.635 16.8661 27.8966 16.7198 28.1151 16.5235C28.3334 16.3273 28.5159 16.0811 28.6626 15.7854C28.8091 15.4894 28.9273 15.1392 29.0171 14.7342L29.9416 10.6882L29.9382 10.6868L30.1142 9.91587ZM23.5612 11.0855C22.9382 11.0855 22.8193 11.0855 22.564 11.2233C22.3828 11.3211 22.2328 11.4681 22.1011 11.6397C21.9692 11.8112 21.8659 12.0092 21.7911 12.2337C21.7161 12.4584 21.6787 12.6922 21.6787 12.9355C21.6787 13.2349 21.7266 13.472 21.8226 13.6466C21.9183 13.8213 22.0951 13.9085 22.3528 13.9085C22.4905 13.9085 22.6148 13.8805 22.7257 13.8243C22.8365 13.7682 22.9549 13.6746 23.0807 13.5436C23.0927 13.3878 23.1122 13.2241 23.1392 13.0524C23.1638 12.8959 23.1944 12.7496 23.2224 12.616L23.2224 12.616L23.2224 12.6159L23.2225 12.6158L23.2225 12.6158L23.2225 12.6157L23.2303 12.5784L23.5612 11.0855ZM24.5098 12.8232C24.4257 13.1788 24.4018 13.5359 24.4378 13.8945C24.4738 14.2533 24.6056 14.803 24.7341 15.0781H23.4412C23.3235 14.8709 23.2975 14.7457 23.2795 14.6592L23.2795 14.6591C23.2733 14.6296 23.2681 14.6045 23.2605 14.5822C23.0927 14.7258 22.9069 14.8442 22.7033 14.9378C22.4996 15.0313 22.2719 15.0781 22.0202 15.0781C21.7206 15.0781 21.4644 15.0234 21.2519 14.9144C21.0391 14.8053 20.8653 14.6587 20.7306 14.4747C20.5957 14.2908 20.4983 14.0755 20.4385 13.8291C20.3785 13.5827 20.3486 13.3191 20.3486 13.0384C20.3486 12.608 20.4219 12.2026 20.5688 11.8221C20.7155 11.4417 20.9193 11.1095 21.1799 10.8256C21.4405 10.5418 22.0695 9.91595 23.1017 9.91595L25.1744 9.91588L24.5098 12.8232ZM17.0728 13.9286C16.9219 13.9286 16.7953 13.9161 16.6927 13.8909L17.3397 11.0855C17.3397 11.0855 17.6688 11.0855 17.867 11.0863C18.1505 11.0875 18.3514 11.1876 18.4661 11.376C18.5806 11.5644 18.638 11.7937 18.638 12.0636C18.638 12.34 18.6002 12.5927 18.5249 12.8219C18.4494 13.0512 18.344 13.2473 18.2082 13.4106C18.0725 13.5739 17.9081 13.7011 17.7152 13.7921C17.522 13.8831 17.308 13.9286 17.0728 13.9286ZM19.7599 13.2175C19.9046 12.8376 19.977 12.4185 19.977 11.96C19.977 11.6774 19.9392 11.4123 19.8639 11.164C19.7884 10.9161 19.6723 10.6995 19.5156 10.5141C19.3587 10.329 19.1583 10.183 18.9139 10.0762C18.6697 9.96945 18.3786 9.91603 18.0408 9.91603L17.5758 9.91601L16.2566 9.91603L14.7022 16.7261H16.0413L16.4484 15.0213C16.6534 15.059 16.8585 15.0778 17.0636 15.0778C17.4858 15.0778 17.8764 15.0008 18.2354 14.8471C18.5942 14.6932 18.9018 14.4782 19.1583 14.2018C19.4146 13.9256 19.6152 13.5975 19.7599 13.2175ZM9.29327 15.0791L10.4727 9.9129H11.8088L10.6293 15.0791H9.29327Z" fill="#002855"/>
</svg>
