<svg width="92" height="23" viewBox="0 0 92 23" fill="none" xmlns="http://www.w3.org/2000/svg">
<path d="M16.7186 10.3281H14.8521C14.818 10.0866 14.7484 9.87216 14.6433 9.68466C14.5382 9.49432 14.4032 9.33239 14.2385 9.19886C14.0737 9.06534 13.8833 8.96307 13.6674 8.89205C13.4544 8.82102 13.2228 8.78551 12.9728 8.78551C12.5211 8.78551 12.1277 8.89773 11.7924 9.12216C11.4572 9.34375 11.1973 9.66761 11.0126 10.0938C10.8279 10.517 10.7356 11.0312 10.7356 11.6364C10.7356 12.2585 10.8279 12.7812 11.0126 13.2045C11.2001 13.6278 11.4615 13.9474 11.7967 14.1634C12.1319 14.3793 12.5197 14.4872 12.96 14.4872C13.2072 14.4872 13.4359 14.4545 13.6461 14.3892C13.8592 14.3239 14.0481 14.2287 14.2129 14.1037C14.3777 13.9759 14.514 13.821 14.622 13.6392C14.7328 13.4574 14.8095 13.25 14.8521 13.017L16.7186 13.0256C16.6703 13.4261 16.5495 13.8125 16.3564 14.1847C16.166 14.554 15.9089 14.8849 15.5851 15.1776C15.264 15.4673 14.8805 15.6974 14.4345 15.8679C13.9913 16.0355 13.4899 16.1193 12.9302 16.1193C12.1518 16.1193 11.4558 15.9432 10.8422 15.5909C10.2314 15.2386 9.7484 14.7287 9.39329 14.0611C9.04102 13.3935 8.86488 12.5852 8.86488 11.6364C8.86488 10.6847 9.04386 9.875 9.40181 9.20739C9.75977 8.53977 10.2456 8.03125 10.8592 7.68182C11.4728 7.32955 12.1632 7.15341 12.9302 7.15341C13.4359 7.15341 13.9047 7.22443 14.3365 7.36648C14.7711 7.50852 15.1561 7.71591 15.4913 7.98864C15.8265 8.25852 16.0993 8.58949 16.3095 8.98153C16.5225 9.37358 16.6589 9.82244 16.7186 10.3281ZM20.665 16.1278C20.0031 16.1278 19.4306 15.9872 18.9477 15.706C18.4676 15.4219 18.0968 15.027 17.8355 14.5213C17.5741 14.0128 17.4434 13.4233 17.4434 12.7528C17.4434 12.0767 17.5741 11.4858 17.8355 10.9801C18.0968 10.4716 18.4676 10.0767 18.9477 9.79545C19.4306 9.51136 20.0031 9.36932 20.665 9.36932C21.327 9.36932 21.898 9.51136 22.3781 9.79545C22.861 10.0767 23.2332 10.4716 23.4946 10.9801C23.7559 11.4858 23.8866 12.0767 23.8866 12.7528C23.8866 13.4233 23.7559 14.0128 23.4946 14.5213C23.2332 15.027 22.861 15.4219 22.3781 15.706C21.898 15.9872 21.327 16.1278 20.665 16.1278ZM20.6735 14.7216C20.9747 14.7216 21.2261 14.6364 21.4278 14.4659C21.6295 14.2926 21.7815 14.0568 21.8838 13.7585C21.9889 13.4602 22.0414 13.1207 22.0414 12.7401C22.0414 12.3594 21.9889 12.0199 21.8838 11.7216C21.7815 11.4233 21.6295 11.1875 21.4278 11.0142C21.2261 10.8409 20.9747 10.7543 20.6735 10.7543C20.3696 10.7543 20.1139 10.8409 19.9065 11.0142C19.702 11.1875 19.5471 11.4233 19.442 11.7216C19.3397 12.0199 19.2886 12.3594 19.2886 12.7401C19.2886 13.1207 19.3397 13.4602 19.442 13.7585C19.5471 14.0568 19.702 14.2926 19.9065 14.4659C20.1139 14.6364 20.3696 14.7216 20.6735 14.7216ZM24.767 16V9.45455H26.4971V10.6094H26.5738C26.7102 10.2259 26.9375 9.9233 27.2556 9.7017C27.5738 9.48011 27.9545 9.36932 28.3977 9.36932C28.8466 9.36932 29.2287 9.48153 29.544 9.70597C29.8593 9.92756 30.0696 10.2287 30.1747 10.6094H30.2429C30.3764 10.2344 30.6179 9.93466 30.9673 9.71023C31.3196 9.48295 31.7358 9.36932 32.2159 9.36932C32.8267 9.36932 33.3224 9.56392 33.7031 9.95312C34.0866 10.3395 34.2784 10.8878 34.2784 11.598V16H32.4673V11.956C32.4673 11.5923 32.3707 11.3196 32.1775 11.1378C31.9843 10.956 31.7429 10.8651 31.4531 10.8651C31.1235 10.8651 30.8664 10.9702 30.6818 11.1804C30.4971 11.3878 30.4048 11.6619 30.4048 12.0028V16H28.6449V11.9176C28.6449 11.5966 28.5525 11.3409 28.3679 11.1506C28.186 10.9602 27.946 10.8651 27.6477 10.8651C27.446 10.8651 27.2642 10.9162 27.1022 11.0185C26.9431 11.1179 26.8167 11.2585 26.723 11.4403C26.6292 11.6193 26.5824 11.8295 26.5824 12.071V16H24.767ZM35.4123 16V9.45455H37.2277V16H35.4123ZM36.3285 8.6108C36.0586 8.6108 35.8271 8.52131 35.6339 8.34233C35.4407 8.16051 35.3441 7.94318 35.3441 7.69034C35.3441 7.44034 35.4407 7.22585 35.6339 7.04688C35.8271 6.86506 36.0572 6.77415 36.3243 6.77415C36.597 6.77415 36.8285 6.86506 37.0189 7.04688C37.212 7.22585 37.3086 7.44034 37.3086 7.69034C37.3086 7.94318 37.212 8.16051 37.0189 8.34233C36.8285 8.52131 36.5984 8.6108 36.3285 8.6108ZM40.1972 12.2159V16H38.3819V9.45455H40.112V10.6094H40.1887C40.3336 10.2287 40.5765 9.92756 40.9174 9.70597C41.2583 9.48153 41.6716 9.36932 42.1574 9.36932C42.612 9.36932 43.0083 9.46875 43.3463 9.66761C43.6844 9.86648 43.9472 10.1506 44.1347 10.5199C44.3222 10.8864 44.4159 11.3239 44.4159 11.8324V16H42.6006V12.1562C42.6034 11.7557 42.5012 11.4432 42.2938 11.2188C42.0864 10.9915 41.8009 10.8778 41.4373 10.8778C41.1929 10.8778 40.977 10.9304 40.7895 11.0355C40.6049 11.1406 40.46 11.294 40.3549 11.4957C40.2526 11.6946 40.2 11.9347 40.1972 12.2159ZM48.4956 18.5483C47.9075 18.5483 47.4032 18.4688 46.9828 18.3097C46.5652 18.1506 46.2328 17.9361 45.9856 17.6662C45.7385 17.3963 45.5779 17.0966 45.5041 16.767L47.1831 16.5412C47.2342 16.6605 47.3152 16.7727 47.426 16.8778C47.5368 16.9858 47.6831 17.0739 47.8649 17.142C48.0495 17.2102 48.274 17.2443 48.5382 17.2443C48.9331 17.2443 49.2583 17.1506 49.514 16.9631C49.7725 16.7756 49.9018 16.4673 49.9018 16.0384V14.8409H49.8251C49.7456 15.0227 49.6262 15.1946 49.4672 15.3565C49.3081 15.5185 49.1035 15.6506 48.8535 15.7528C48.6035 15.8551 48.3052 15.9062 47.9586 15.9062C47.4672 15.9062 47.0197 15.7926 46.6163 15.5653C46.2157 15.3352 45.8961 14.9844 45.6575 14.5128C45.4217 14.0384 45.3038 13.4389 45.3038 12.7145C45.3038 11.973 45.4245 11.3537 45.666 10.8565C45.9075 10.3594 46.2285 9.98722 46.6291 9.74006C47.0325 9.4929 47.4743 9.36932 47.9544 9.36932C48.3208 9.36932 48.6277 9.43182 48.8748 9.55682C49.122 9.67898 49.3208 9.83239 49.4714 10.017C49.6248 10.1989 49.7427 10.3778 49.8251 10.554H49.8933V9.45455H51.6958V16.0639C51.6958 16.6094 51.5595 17.0653 51.2868 17.4318C51.014 17.8011 50.6362 18.0795 50.1532 18.267C49.6731 18.4545 49.1206 18.5483 48.4956 18.5483ZM48.5339 14.5426C48.8265 14.5426 49.0737 14.4702 49.2754 14.3253C49.4799 14.1776 49.6362 13.9673 49.7441 13.6946C49.8549 13.419 49.9103 13.0895 49.9103 12.706C49.9103 12.3224 49.8564 11.9901 49.7484 11.7088C49.6404 11.4247 49.4842 11.2045 49.2797 11.0483C49.0751 10.892 48.8265 10.8139 48.5339 10.8139C48.2356 10.8139 47.9842 10.8949 47.7797 11.0568C47.5751 11.2159 47.4203 11.4375 47.3152 11.7216C47.21 12.0057 47.1575 12.3338 47.1575 12.706C47.1575 13.0838 47.21 13.4105 47.3152 13.6861C47.4231 13.9588 47.5779 14.1705 47.7797 14.321C47.9842 14.4687 48.2356 14.5426 48.5339 14.5426ZM60.0863 9.78267C60.0522 9.43892 59.9059 9.17187 59.6473 8.98153C59.3888 8.79119 59.038 8.69602 58.5948 8.69602C58.2936 8.69602 58.0394 8.73864 57.832 8.82386C57.6246 8.90625 57.4655 9.02131 57.3547 9.16903C57.2468 9.31676 57.1928 9.48438 57.1928 9.67188C57.1871 9.82812 57.2198 9.96449 57.2908 10.081C57.3647 10.1974 57.4655 10.2983 57.5934 10.3835C57.7212 10.4659 57.8689 10.5384 58.0365 10.6009C58.2042 10.6605 58.3831 10.7116 58.5735 10.7543L59.3576 10.9418C59.7382 11.027 60.0877 11.1406 60.4059 11.2827C60.724 11.4247 60.9996 11.5994 61.2326 11.8068C61.4655 12.0142 61.6459 12.2585 61.7738 12.5398C61.9044 12.821 61.9712 13.1435 61.974 13.5071C61.9712 14.0412 61.8348 14.5043 61.565 14.8963C61.2979 15.2855 60.9115 15.5881 60.4059 15.804C59.903 16.017 59.2965 16.1236 58.5863 16.1236C57.8817 16.1236 57.2681 16.0156 56.7453 15.7997C56.2255 15.5838 55.8192 15.2642 55.5266 14.8409C55.2368 14.4148 55.0848 13.8878 55.0706 13.2599H56.8561C56.876 13.5526 56.9598 13.7969 57.1076 13.9929C57.2581 14.1861 57.4584 14.3324 57.7084 14.4318C57.9613 14.5284 58.2468 14.5767 58.565 14.5767C58.8775 14.5767 59.1488 14.5312 59.3789 14.4403C59.6118 14.3494 59.7922 14.223 59.9201 14.0611C60.0479 13.8991 60.1118 13.7131 60.1118 13.5028C60.1118 13.3068 60.0536 13.142 59.9371 13.0085C59.8235 12.875 59.6559 12.7614 59.4343 12.6676C59.2155 12.5739 58.9471 12.4886 58.6289 12.4119L57.6786 12.1733C56.9428 11.9943 56.3618 11.7145 55.9357 11.3338C55.5096 10.9531 55.2979 10.4403 55.3007 9.79545C55.2979 9.26705 55.4385 8.8054 55.7226 8.41051C56.0096 8.01562 56.403 7.70739 56.903 7.4858C57.403 7.2642 57.9712 7.15341 58.6076 7.15341C59.2553 7.15341 59.8206 7.2642 60.3036 7.4858C60.7894 7.70739 61.1672 8.01562 61.4371 8.41051C61.707 8.8054 61.8462 9.26278 61.8547 9.78267H60.0863ZM65.8385 16.1278C65.1765 16.1278 64.6041 15.9872 64.1211 15.706C63.641 15.4219 63.2703 15.027 63.0089 14.5213C62.7475 14.0128 62.6169 13.4233 62.6169 12.7528C62.6169 12.0767 62.7475 11.4858 63.0089 10.9801C63.2703 10.4716 63.641 10.0767 64.1211 9.79545C64.6041 9.51136 65.1765 9.36932 65.8385 9.36932C66.5004 9.36932 67.0714 9.51136 67.5515 9.79545C68.0345 10.0767 68.4066 10.4716 68.668 10.9801C68.9294 11.4858 69.06 12.0767 69.06 12.7528C69.06 13.4233 68.9294 14.0128 68.668 14.5213C68.4066 15.027 68.0345 15.4219 67.5515 15.706C67.0714 15.9872 66.5004 16.1278 65.8385 16.1278ZM65.847 14.7216C66.1481 14.7216 66.3995 14.6364 66.6012 14.4659C66.8029 14.2926 66.9549 14.0568 67.0572 13.7585C67.1623 13.4602 67.2149 13.1207 67.2149 12.7401C67.2149 12.3594 67.1623 12.0199 67.0572 11.7216C66.9549 11.4233 66.8029 11.1875 66.6012 11.0142C66.3995 10.8409 66.1481 10.7543 65.847 10.7543C65.543 10.7543 65.2873 10.8409 65.0799 11.0142C64.8754 11.1875 64.7206 11.4233 64.6154 11.7216C64.5132 12.0199 64.462 12.3594 64.462 12.7401C64.462 13.1207 64.5132 13.4602 64.6154 13.7585C64.7206 14.0568 64.8754 14.2926 65.0799 14.4659C65.2873 14.6364 65.543 14.7216 65.847 14.7216ZM72.8978 16.1278C72.2359 16.1278 71.6635 15.9872 71.1805 15.706C70.7004 15.4219 70.3297 15.027 70.0683 14.5213C69.8069 14.0128 69.6762 13.4233 69.6762 12.7528C69.6762 12.0767 69.8069 11.4858 70.0683 10.9801C70.3297 10.4716 70.7004 10.0767 71.1805 9.79545C71.6635 9.51136 72.2359 9.36932 72.8978 9.36932C73.5598 9.36932 74.1308 9.51136 74.6109 9.79545C75.0939 10.0767 75.466 10.4716 75.7274 10.9801C75.9887 11.4858 76.1194 12.0767 76.1194 12.7528C76.1194 13.4233 75.9887 14.0128 75.7274 14.5213C75.466 15.027 75.0939 15.4219 74.6109 15.706C74.1308 15.9872 73.5598 16.1278 72.8978 16.1278ZM72.9064 14.7216C73.2075 14.7216 73.4589 14.6364 73.6606 14.4659C73.8623 14.2926 74.0143 14.0568 74.1166 13.7585C74.2217 13.4602 74.2743 13.1207 74.2743 12.7401C74.2743 12.3594 74.2217 12.0199 74.1166 11.7216C74.0143 11.4233 73.8623 11.1875 73.6606 11.0142C73.4589 10.8409 73.2075 10.7543 72.9064 10.7543C72.6024 10.7543 72.3467 10.8409 72.1393 11.0142C71.9348 11.1875 71.7799 11.4233 71.6748 11.7216C71.5725 12.0199 71.5214 12.3594 71.5214 12.7401C71.5214 13.1207 71.5725 13.4602 71.6748 13.7585C71.7799 14.0568 71.9348 14.2926 72.1393 14.4659C72.3467 14.6364 72.6024 14.7216 72.9064 14.7216ZM78.8152 12.2159V16H76.9998V9.45455H78.7299V10.6094H78.8066C78.9515 10.2287 79.1944 9.92756 79.5353 9.70597C79.8762 9.48153 80.2896 9.36932 80.7754 9.36932C81.2299 9.36932 81.6262 9.46875 81.9643 9.66761C82.3024 9.86648 82.5652 10.1506 82.7527 10.5199C82.9402 10.8864 83.0339 11.3239 83.0339 11.8324V16H81.2186V12.1562C81.2214 11.7557 81.1191 11.4432 80.9118 11.2188C80.7044 10.9915 80.4189 10.8778 80.0552 10.8778C79.8109 10.8778 79.595 10.9304 79.4075 11.0355C79.2228 11.1406 79.0779 11.294 78.9728 11.4957C78.8706 11.6946 78.818 11.9347 78.8152 12.2159Z" fill="url(#paint0_linear)"/>
<rect x="0.5" y="0.5" width="91" height="22" rx="11" stroke="url(#paint1_linear)"/>
<defs>
<linearGradient id="paint0_linear" x1="8" y1="11.5" x2="84" y2="11.5" gradientUnits="userSpaceOnUse">
<stop offset="0.0364583" stop-color="#CE76D9"/>
<stop offset="0.432286" stop-color="#79A7FF"/>
<stop offset="0.942708" stop-color="#30DFC4"/>
</linearGradient>
<linearGradient id="paint1_linear" x1="-4.426e-07" y1="11.5" x2="92" y2="11.5" gradientUnits="userSpaceOnUse">
<stop offset="0.0364583" stop-color="#CE76D9"/>
<stop offset="0.432286" stop-color="#79A7FF"/>
<stop offset="0.942708" stop-color="#30DFC4"/>
</linearGradient>
</defs>
</svg>
