<svg width="252" height="63" viewBox="0 0 252 63" fill="none" xmlns="http://www.w3.org/2000/svg">
<g filter="url(#filter0_d)">
<rect x="1" width="250" height="61" rx="20" fill="white"/>
</g>
<path d="M13.7727 16.6136V15.3636H22.5V16.6136H18.8409V27H17.4318V16.6136H13.7727ZM25.5233 21.75V27H24.1824V15.3636H25.5233V19.6364H25.6369C25.8415 19.1856 26.1483 18.8277 26.5574 18.5625C26.9703 18.2936 27.5195 18.1591 28.2051 18.1591C28.7998 18.1591 29.3206 18.2784 29.7676 18.517C30.2146 18.7519 30.5612 19.1136 30.8074 19.6023C31.0574 20.0871 31.1824 20.7045 31.1824 21.4545V27H29.8415V21.5455C29.8415 20.8523 29.6616 20.3163 29.3017 19.9375C28.9456 19.5549 28.4513 19.3636 27.8188 19.3636C27.3794 19.3636 26.9854 19.4564 26.6369 19.642C26.2922 19.8277 26.0195 20.0985 25.8188 20.4545C25.6218 20.8106 25.5233 21.2424 25.5233 21.75ZM36.9841 27.1818C36.1432 27.1818 35.4178 26.9962 34.808 26.625C34.2019 26.25 33.7341 25.7273 33.4046 25.0568C33.0788 24.3826 32.9159 23.5985 32.9159 22.7045C32.9159 21.8106 33.0788 21.0227 33.4046 20.3409C33.7341 19.6553 34.1924 19.1212 34.7796 18.7386C35.3705 18.3523 36.0599 18.1591 36.8477 18.1591C37.3023 18.1591 37.7511 18.2348 38.1943 18.3864C38.6375 18.5379 39.0409 18.7841 39.4046 19.125C39.7682 19.4621 40.058 19.9091 40.2739 20.4659C40.4898 21.0227 40.5977 21.7083 40.5977 22.5227V23.0909H33.8705V21.9318H39.2341C39.2341 21.4394 39.1356 21 38.9386 20.6136C38.7455 20.2273 38.4689 19.9223 38.1091 19.6989C37.753 19.4754 37.3326 19.3636 36.8477 19.3636C36.3136 19.3636 35.8515 19.4962 35.4614 19.7614C35.075 20.0227 34.7777 20.3636 34.5693 20.7841C34.361 21.2045 34.2568 21.6553 34.2568 22.1364V22.9091C34.2568 23.5682 34.3705 24.1269 34.5977 24.5852C34.8288 25.0398 35.1489 25.3864 35.558 25.625C35.9671 25.8598 36.4424 25.9773 36.9841 25.9773C37.3364 25.9773 37.6546 25.928 37.9386 25.8295C38.2265 25.7273 38.4746 25.5758 38.683 25.375C38.8913 25.1705 39.0523 24.9167 39.1659 24.6136L40.4614 24.9773C40.325 25.4167 40.0958 25.803 39.7739 26.1364C39.4519 26.4659 39.0542 26.7235 38.5807 26.9091C38.1072 27.0909 37.575 27.1818 36.9841 27.1818ZM46.5165 27V18.2727H47.8119V19.6364H47.9256C48.1074 19.1705 48.401 18.8087 48.8063 18.5511C49.2116 18.2898 49.6983 18.1591 50.2665 18.1591C50.8423 18.1591 51.3214 18.2898 51.704 18.5511C52.0904 18.8087 52.3915 19.1705 52.6074 19.6364H52.6983C52.9218 19.1856 53.257 18.8277 53.704 18.5625C54.151 18.2936 54.687 18.1591 55.312 18.1591C56.0923 18.1591 56.7305 18.4034 57.2267 18.892C57.7229 19.3769 57.971 20.1326 57.971 21.1591V27H56.6301V21.1591C56.6301 20.5152 56.454 20.0549 56.1017 19.7784C55.7495 19.5019 55.3347 19.3636 54.8574 19.3636C54.2438 19.3636 53.7684 19.5492 53.4313 19.9205C53.0941 20.2879 52.9256 20.7538 52.9256 21.3182V27H51.562V21.0227C51.562 20.5265 51.401 20.1269 51.079 19.8239C50.757 19.517 50.3423 19.3636 49.8347 19.3636C49.4862 19.3636 49.1604 19.4564 48.8574 19.642C48.5582 19.8277 48.3157 20.0852 48.1301 20.4148C47.9483 20.7405 47.8574 21.1174 47.8574 21.5455V27H46.5165ZM60.1122 27V18.2727H61.4531V27H60.1122ZM60.7941 16.8182C60.5327 16.8182 60.3073 16.7292 60.1179 16.5511C59.9323 16.3731 59.8395 16.1591 59.8395 15.9091C59.8395 15.6591 59.9323 15.4451 60.1179 15.267C60.3073 15.089 60.5327 15 60.7941 15C61.0554 15 61.2789 15.089 61.4645 15.267C61.6539 15.4451 61.7486 15.6591 61.7486 15.9091C61.7486 16.1591 61.6539 16.3731 61.4645 16.5511C61.2789 16.7292 61.0554 16.8182 60.7941 16.8182ZM66.8941 27.1818C66.1668 27.1818 65.5247 26.9981 64.9679 26.6307C64.4111 26.2595 63.9755 25.7367 63.6611 25.0625C63.3467 24.3845 63.1895 23.5833 63.1895 22.6591C63.1895 21.7424 63.3467 20.947 63.6611 20.2727C63.9755 19.5985 64.413 19.0777 64.9736 18.7102C65.5342 18.3428 66.1819 18.1591 66.9168 18.1591C67.485 18.1591 67.9338 18.2538 68.2634 18.4432C68.5967 18.6288 68.8505 18.8409 69.0247 19.0795C69.2028 19.3144 69.341 19.5076 69.4395 19.6591H69.5532V15.3636H70.8941V27H69.5986V25.6591H69.4395C69.341 25.8182 69.2009 26.0189 69.0191 26.2614C68.8372 26.5 68.5778 26.714 68.2407 26.9034C67.9035 27.089 67.4547 27.1818 66.8941 27.1818ZM67.0759 25.9773C67.6138 25.9773 68.0683 25.8371 68.4395 25.5568C68.8107 25.2727 69.0929 24.8807 69.2861 24.3807C69.4793 23.8769 69.5759 23.2955 69.5759 22.6364C69.5759 21.9848 69.4812 21.4148 69.2918 20.9261C69.1024 20.4337 68.8221 20.0511 68.4509 19.7784C68.0797 19.5019 67.6213 19.3636 67.0759 19.3636C66.5077 19.3636 66.0342 19.5095 65.6554 19.8011C65.2804 20.089 64.9982 20.4811 64.8088 20.9773C64.6232 21.4697 64.5304 22.0227 64.5304 22.6364C64.5304 23.2576 64.6251 23.822 64.8145 24.3295C65.0077 24.8333 65.2918 25.2348 65.6668 25.5341C66.0456 25.8295 66.5153 25.9773 67.0759 25.9773ZM78.2256 21.3864V22.6364H73.1347V21.3864H78.2256ZM80.2745 27V18.2727H81.5699V19.6364H81.6836C81.8654 19.1705 82.1589 18.8087 82.5642 18.5511C82.9695 18.2898 83.4563 18.1591 84.0245 18.1591C84.6002 18.1591 85.0794 18.2898 85.462 18.5511C85.8483 18.8087 86.1495 19.1705 86.3654 19.6364H86.4563C86.6798 19.1856 87.015 18.8277 87.462 18.5625C87.9089 18.2936 88.4449 18.1591 89.0699 18.1591C89.8502 18.1591 90.4885 18.4034 90.9847 18.892C91.4809 19.3769 91.729 20.1326 91.729 21.1591V27H90.3881V21.1591C90.3881 20.5152 90.212 20.0549 89.8597 19.7784C89.5074 19.5019 89.0927 19.3636 88.6154 19.3636C88.0017 19.3636 87.5264 19.5492 87.1892 19.9205C86.8521 20.2879 86.6836 20.7538 86.6836 21.3182V27H85.3199V21.0227C85.3199 20.5265 85.1589 20.1269 84.837 19.8239C84.515 19.517 84.1002 19.3636 83.5926 19.3636C83.2442 19.3636 82.9184 19.4564 82.6154 19.642C82.3161 19.8277 82.0737 20.0852 81.8881 20.4148C81.7063 20.7405 81.6154 21.1174 81.6154 21.5455V27H80.2745ZM96.4384 27.2045C95.8854 27.2045 95.3835 27.1004 94.9327 26.892C94.482 26.6799 94.124 26.375 93.8588 25.9773C93.5937 25.5758 93.4611 25.0909 93.4611 24.5227C93.4611 24.0227 93.5596 23.6174 93.7566 23.3068C93.9535 22.9924 94.2168 22.7462 94.5463 22.5682C94.8759 22.3902 95.2395 22.2576 95.6373 22.1705C96.0388 22.0795 96.4422 22.0076 96.8475 21.9545C97.3778 21.8864 97.8077 21.8352 98.1373 21.8011C98.4706 21.7633 98.713 21.7008 98.8645 21.6136C99.0198 21.5265 99.0975 21.375 99.0975 21.1591V21.1136C99.0975 20.553 98.9441 20.1174 98.6373 19.8068C98.3342 19.4962 97.874 19.3409 97.2566 19.3409C96.6164 19.3409 96.1145 19.4811 95.7509 19.7614C95.3873 20.0417 95.1316 20.3409 94.9838 20.6591L93.7111 20.2045C93.9384 19.6742 94.2414 19.2614 94.6202 18.9659C95.0028 18.6667 95.4195 18.4583 95.8702 18.3409C96.3248 18.2197 96.7717 18.1591 97.2111 18.1591C97.4914 18.1591 97.8134 18.1932 98.177 18.2614C98.5445 18.3258 98.8986 18.4602 99.2395 18.6648C99.5842 18.8693 99.8702 19.178 100.097 19.5909C100.325 20.0038 100.438 20.5568 100.438 21.25V27H99.0975V25.8182H99.0293C98.9384 26.0076 98.7869 26.2102 98.5748 26.4261C98.3626 26.642 98.0804 26.8258 97.7282 26.9773C97.3759 27.1288 96.946 27.2045 96.4384 27.2045ZM96.6429 26C97.1732 26 97.6202 25.8958 97.9838 25.6875C98.3513 25.4792 98.6278 25.2102 98.8134 24.8807C99.0028 24.5511 99.0975 24.2045 99.0975 23.8409V22.6136C99.0407 22.6818 98.9157 22.7443 98.7225 22.8011C98.5331 22.8542 98.3134 22.9015 98.0634 22.9432C97.8172 22.9811 97.5766 23.0152 97.3418 23.0455C97.1107 23.072 96.9232 23.0947 96.7793 23.1136C96.4308 23.1591 96.1051 23.233 95.802 23.3352C95.5028 23.4337 95.2604 23.5833 95.0748 23.7841C94.8929 23.9811 94.802 24.25 94.802 24.5909C94.802 25.0568 94.9744 25.4091 95.3191 25.6477C95.6676 25.8826 96.1088 26 96.6429 26ZM102.575 27V18.2727H103.871V19.5909H103.962C104.121 19.1591 104.409 18.8087 104.825 18.5398C105.242 18.2708 105.712 18.1364 106.234 18.1364C106.333 18.1364 106.456 18.1383 106.604 18.142C106.751 18.1458 106.863 18.1515 106.939 18.1591V19.5227C106.894 19.5114 106.789 19.4943 106.626 19.4716C106.467 19.4451 106.299 19.4318 106.121 19.4318C105.697 19.4318 105.318 19.5208 104.984 19.6989C104.655 19.8731 104.394 20.1155 104.2 20.4261C104.011 20.733 103.916 21.0833 103.916 21.4773V27H102.575ZM109.468 23.8182L109.445 22.1591H109.718L113.536 18.2727H115.195L111.127 22.3864H111.013L109.468 23.8182ZM108.218 27V15.3636H109.559V27H108.218ZM113.763 27L110.354 22.6818L111.309 21.75L115.468 27H113.763ZM119.91 27.1818C119.069 27.1818 118.344 26.9962 117.734 26.625C117.128 26.25 116.66 25.7273 116.331 25.0568C116.005 24.3826 115.842 23.5985 115.842 22.7045C115.842 21.8106 116.005 21.0227 116.331 20.3409C116.66 19.6553 117.119 19.1212 117.706 18.7386C118.297 18.3523 118.986 18.1591 119.774 18.1591C120.228 18.1591 120.677 18.2348 121.121 18.3864C121.564 18.5379 121.967 18.7841 122.331 19.125C122.694 19.4621 122.984 19.9091 123.2 20.4659C123.416 21.0227 123.524 21.7083 123.524 22.5227V23.0909H116.797V21.9318H122.16C122.16 21.4394 122.062 21 121.865 20.6136C121.672 20.2273 121.395 19.9223 121.035 19.6989C120.679 19.4754 120.259 19.3636 119.774 19.3636C119.24 19.3636 118.778 19.4962 118.388 19.7614C118.001 20.0227 117.704 20.3636 117.496 20.7841C117.287 21.2045 117.183 21.6553 117.183 22.1364V22.9091C117.183 23.5682 117.297 24.1269 117.524 24.5852C117.755 25.0398 118.075 25.3864 118.484 25.625C118.893 25.8598 119.369 25.9773 119.91 25.9773C120.263 25.9773 120.581 25.928 120.865 25.8295C121.153 25.7273 121.401 25.5758 121.609 25.375C121.817 25.1705 121.978 24.9167 122.092 24.6136L123.388 24.9773C123.251 25.4167 123.022 25.803 122.7 26.1364C122.378 26.4659 121.98 26.7235 121.507 26.9091C121.033 27.0909 120.501 27.1818 119.91 27.1818ZM129.049 18.2727V19.4091H124.526V18.2727H129.049ZM125.844 16.1818H127.185V24.5C127.185 24.8788 127.24 25.1629 127.35 25.3523C127.463 25.5379 127.607 25.6629 127.782 25.7273C127.96 25.7879 128.147 25.8182 128.344 25.8182C128.492 25.8182 128.613 25.8106 128.708 25.7955C128.802 25.7765 128.878 25.7614 128.935 25.75L129.208 26.9545C129.117 26.9886 128.99 27.0227 128.827 27.0568C128.664 27.0947 128.458 27.1136 128.208 27.1136C127.829 27.1136 127.458 27.0322 127.094 26.8693C126.734 26.7064 126.435 26.4583 126.196 26.125C125.962 25.7917 125.844 25.3712 125.844 24.8636V16.1818ZM138.604 27.1818C137.763 27.1818 137.037 26.9962 136.428 26.625C135.822 26.25 135.354 25.7273 135.024 25.0568C134.698 24.3826 134.536 23.5985 134.536 22.7045C134.536 21.8106 134.698 21.0227 135.024 20.3409C135.354 19.6553 135.812 19.1212 136.399 18.7386C136.99 18.3523 137.68 18.1591 138.467 18.1591C138.922 18.1591 139.371 18.2348 139.814 18.3864C140.257 18.5379 140.661 18.7841 141.024 19.125C141.388 19.4621 141.678 19.9091 141.894 20.4659C142.109 21.0227 142.217 21.7083 142.217 22.5227V23.0909H135.49V21.9318H140.854C140.854 21.4394 140.755 21 140.558 20.6136C140.365 20.2273 140.089 19.9223 139.729 19.6989C139.373 19.4754 138.952 19.3636 138.467 19.3636C137.933 19.3636 137.471 19.4962 137.081 19.7614C136.695 20.0227 136.397 20.3636 136.189 20.7841C135.981 21.2045 135.876 21.6553 135.876 22.1364V22.9091C135.876 23.5682 135.99 24.1269 136.217 24.5852C136.448 25.0398 136.769 25.3864 137.178 25.625C137.587 25.8598 138.062 25.9773 138.604 25.9773C138.956 25.9773 139.274 25.928 139.558 25.8295C139.846 25.7273 140.094 25.5758 140.303 25.375C140.511 25.1705 140.672 24.9167 140.786 24.6136L142.081 24.9773C141.945 25.4167 141.716 25.803 141.394 26.1364C141.072 26.4659 140.674 26.7235 140.2 26.9091C139.727 27.0909 139.195 27.1818 138.604 27.1818ZM144.712 18.2727L146.803 21.8409L148.894 18.2727H150.44L147.621 22.6364L150.44 27H148.894L146.803 23.6136L144.712 27H143.167L145.94 22.6364L143.167 18.2727H144.712ZM155.228 27.1818C154.41 27.1818 153.706 26.9886 153.115 26.6023C152.524 26.2159 152.069 25.6837 151.751 25.0057C151.433 24.3277 151.274 23.553 151.274 22.6818C151.274 21.7955 151.437 21.0133 151.763 20.3352C152.092 19.6534 152.55 19.1212 153.138 18.7386C153.728 18.3523 154.418 18.1591 155.206 18.1591C155.819 18.1591 156.372 18.2727 156.865 18.5C157.357 18.7273 157.761 19.0455 158.075 19.4545C158.389 19.8636 158.585 20.3409 158.66 20.8864H157.319C157.217 20.4886 156.99 20.1364 156.638 19.8295C156.289 19.5189 155.819 19.3636 155.228 19.3636C154.706 19.3636 154.247 19.5 153.853 19.7727C153.463 20.0417 153.158 20.4223 152.939 20.9148C152.723 21.4034 152.615 21.9773 152.615 22.6364C152.615 23.3106 152.721 23.8977 152.933 24.3977C153.149 24.8977 153.452 25.286 153.842 25.5625C154.236 25.839 154.698 25.9773 155.228 25.9773C155.577 25.9773 155.893 25.9167 156.177 25.7955C156.461 25.6742 156.702 25.5 156.899 25.2727C157.096 25.0455 157.236 24.7727 157.319 24.4545H158.66C158.585 24.9697 158.397 25.4337 158.098 25.8466C157.802 26.2557 157.41 26.5814 156.922 26.8239C156.437 27.0625 155.872 27.1818 155.228 27.1818ZM161.651 21.75V27H160.31V15.3636H161.651V19.6364H161.765C161.969 19.1856 162.276 18.8277 162.685 18.5625C163.098 18.2936 163.647 18.1591 164.333 18.1591C164.927 18.1591 165.448 18.2784 165.895 18.517C166.342 18.7519 166.689 19.1136 166.935 19.6023C167.185 20.0871 167.31 20.7045 167.31 21.4545V27H165.969V21.5455C165.969 20.8523 165.789 20.3163 165.429 19.9375C165.073 19.5549 164.579 19.3636 163.946 19.3636C163.507 19.3636 163.113 19.4564 162.765 19.642C162.42 19.8277 162.147 20.0985 161.946 20.4545C161.749 20.8106 161.651 21.2424 161.651 21.75ZM172.021 27.2045C171.468 27.2045 170.966 27.1004 170.515 26.892C170.064 26.6799 169.706 26.375 169.441 25.9773C169.176 25.5758 169.044 25.0909 169.044 24.5227C169.044 24.0227 169.142 23.6174 169.339 23.3068C169.536 22.9924 169.799 22.7462 170.129 22.5682C170.458 22.3902 170.822 22.2576 171.22 22.1705C171.621 22.0795 172.025 22.0076 172.43 21.9545C172.96 21.8864 173.39 21.8352 173.72 21.8011C174.053 21.7633 174.295 21.7008 174.447 21.6136C174.602 21.5265 174.68 21.375 174.68 21.1591V21.1136C174.68 20.553 174.527 20.1174 174.22 19.8068C173.917 19.4962 173.456 19.3409 172.839 19.3409C172.199 19.3409 171.697 19.4811 171.333 19.7614C170.97 20.0417 170.714 20.3409 170.566 20.6591L169.294 20.2045C169.521 19.6742 169.824 19.2614 170.203 18.9659C170.585 18.6667 171.002 18.4583 171.453 18.3409C171.907 18.2197 172.354 18.1591 172.794 18.1591C173.074 18.1591 173.396 18.1932 173.759 18.2614C174.127 18.3258 174.481 18.4602 174.822 18.6648C175.167 18.8693 175.453 19.178 175.68 19.5909C175.907 20.0038 176.021 20.5568 176.021 21.25V27H174.68V25.8182H174.612C174.521 26.0076 174.369 26.2102 174.157 26.4261C173.945 26.642 173.663 26.8258 173.311 26.9773C172.958 27.1288 172.528 27.2045 172.021 27.2045ZM172.225 26C172.756 26 173.203 25.8958 173.566 25.6875C173.934 25.4792 174.21 25.2102 174.396 24.8807C174.585 24.5511 174.68 24.2045 174.68 23.8409V22.6136C174.623 22.6818 174.498 22.7443 174.305 22.8011C174.116 22.8542 173.896 22.9015 173.646 22.9432C173.4 22.9811 173.159 23.0152 172.924 23.0455C172.693 23.072 172.506 23.0947 172.362 23.1136C172.013 23.1591 171.687 23.233 171.384 23.3352C171.085 23.4337 170.843 23.5833 170.657 23.7841C170.475 23.9811 170.384 24.25 170.384 24.5909C170.384 25.0568 170.557 25.4091 170.902 25.6477C171.25 25.8826 171.691 26 172.225 26ZM179.499 21.75V27H178.158V18.2727H179.453V19.6364H179.567C179.771 19.1932 180.082 18.8371 180.499 18.5682C180.915 18.2955 181.453 18.1591 182.112 18.1591C182.703 18.1591 183.22 18.2803 183.663 18.5227C184.107 18.7614 184.451 19.125 184.698 19.6136C184.944 20.0985 185.067 20.7121 185.067 21.4545V27H183.726V21.5455C183.726 20.8598 183.548 20.3258 183.192 19.9432C182.836 19.5568 182.347 19.3636 181.726 19.3636C181.298 19.3636 180.915 19.4564 180.578 19.642C180.245 19.8277 179.982 20.0985 179.788 20.4545C179.595 20.8106 179.499 21.2424 179.499 21.75ZM190.729 30.4545C190.082 30.4545 189.525 30.3712 189.059 30.2045C188.593 30.0417 188.205 29.8258 187.894 29.5568C187.587 29.2917 187.343 29.0076 187.161 28.7045L188.229 27.9545C188.351 28.1136 188.504 28.2955 188.69 28.5C188.875 28.7083 189.129 28.8883 189.451 29.0398C189.777 29.1951 190.203 29.2727 190.729 29.2727C191.434 29.2727 192.015 29.1023 192.474 28.7614C192.932 28.4205 193.161 27.8864 193.161 27.1591V25.3864H193.048C192.949 25.5455 192.809 25.7424 192.627 25.9773C192.449 26.2083 192.191 26.4148 191.854 26.5966C191.521 26.7746 191.07 26.8636 190.502 26.8636C189.798 26.8636 189.165 26.697 188.604 26.3636C188.048 26.0303 187.606 25.5455 187.28 24.9091C186.959 24.2727 186.798 23.5 186.798 22.5909C186.798 21.697 186.955 20.9186 187.269 20.2557C187.584 19.589 188.021 19.0739 188.582 18.7102C189.142 18.3428 189.79 18.1591 190.525 18.1591C191.093 18.1591 191.544 18.2538 191.877 18.4432C192.214 18.6288 192.472 18.8409 192.65 19.0795C192.832 19.3144 192.972 19.5076 193.07 19.6591H193.207V18.2727H194.502V27.25C194.502 28 194.332 28.6098 193.991 29.0795C193.654 29.553 193.199 29.8996 192.627 30.1193C192.059 30.3428 191.426 30.4545 190.729 30.4545ZM190.684 25.6591C191.222 25.6591 191.676 25.536 192.048 25.2898C192.419 25.0436 192.701 24.6894 192.894 24.2273C193.087 23.7652 193.184 23.2121 193.184 22.5682C193.184 21.9394 193.089 21.3845 192.9 20.9034C192.71 20.4223 192.43 20.0455 192.059 19.7727C191.688 19.5 191.229 19.3636 190.684 19.3636C190.116 19.3636 189.642 19.5076 189.263 19.7955C188.888 20.0833 188.606 20.4697 188.417 20.9545C188.231 21.4394 188.138 21.9773 188.138 22.5682C188.138 23.1742 188.233 23.7102 188.423 24.1761C188.616 24.6383 188.9 25.0019 189.275 25.267C189.654 25.5284 190.123 25.6591 190.684 25.6591ZM200.305 27.1818C199.464 27.1818 198.739 26.9962 198.129 26.625C197.523 26.25 197.055 25.7273 196.726 25.0568C196.4 24.3826 196.237 23.5985 196.237 22.7045C196.237 21.8106 196.4 21.0227 196.726 20.3409C197.055 19.6553 197.514 19.1212 198.101 18.7386C198.692 18.3523 199.381 18.1591 200.169 18.1591C200.623 18.1591 201.072 18.2348 201.515 18.3864C201.959 18.5379 202.362 18.7841 202.726 19.125C203.089 19.4621 203.379 19.9091 203.595 20.4659C203.811 21.0227 203.919 21.7083 203.919 22.5227V23.0909H197.192V21.9318H202.555C202.555 21.4394 202.457 21 202.26 20.6136C202.067 20.2273 201.79 19.9223 201.43 19.6989C201.074 19.4754 200.654 19.3636 200.169 19.3636C199.635 19.3636 199.173 19.4962 198.782 19.7614C198.396 20.0227 198.099 20.3636 197.89 20.7841C197.682 21.2045 197.578 21.6553 197.578 22.1364V22.9091C197.578 23.5682 197.692 24.1269 197.919 24.5852C198.15 25.0398 198.47 25.3864 198.879 25.625C199.288 25.8598 199.764 25.9773 200.305 25.9773C200.657 25.9773 200.976 25.928 201.26 25.8295C201.548 25.7273 201.796 25.5758 202.004 25.375C202.212 25.1705 202.373 24.9167 202.487 24.6136L203.782 24.9773C203.646 25.4167 203.417 25.803 203.095 26.1364C202.773 26.4659 202.375 26.7235 201.902 26.9091C201.428 27.0909 200.896 27.1818 200.305 27.1818ZM209.838 27V18.2727H211.133V19.5909H211.224C211.383 19.1591 211.671 18.8087 212.088 18.5398C212.504 18.2708 212.974 18.1364 213.497 18.1364C213.595 18.1364 213.718 18.1383 213.866 18.142C214.014 18.1458 214.125 18.1515 214.201 18.1591V19.5227C214.156 19.5114 214.052 19.4943 213.889 19.4716C213.73 19.4451 213.561 19.4318 213.383 19.4318C212.959 19.4318 212.58 19.5208 212.247 19.6989C211.917 19.8731 211.656 20.1155 211.463 20.4261C211.273 20.733 211.179 21.0833 211.179 21.4773V27H209.838ZM218.048 27.2045C217.495 27.2045 216.993 27.1004 216.543 26.892C216.092 26.6799 215.734 26.375 215.469 25.9773C215.204 25.5758 215.071 25.0909 215.071 24.5227C215.071 24.0227 215.17 23.6174 215.367 23.3068C215.564 22.9924 215.827 22.7462 216.156 22.5682C216.486 22.3902 216.85 22.2576 217.247 22.1705C217.649 22.0795 218.052 22.0076 218.458 21.9545C218.988 21.8864 219.418 21.8352 219.747 21.8011C220.081 21.7633 220.323 21.7008 220.475 21.6136C220.63 21.5265 220.708 21.375 220.708 21.1591V21.1136C220.708 20.553 220.554 20.1174 220.247 19.8068C219.944 19.4962 219.484 19.3409 218.867 19.3409C218.226 19.3409 217.725 19.4811 217.361 19.7614C216.997 20.0417 216.742 20.3409 216.594 20.6591L215.321 20.2045C215.548 19.6742 215.851 19.2614 216.23 18.9659C216.613 18.6667 217.029 18.4583 217.48 18.3409C217.935 18.2197 218.382 18.1591 218.821 18.1591C219.101 18.1591 219.423 18.1932 219.787 18.2614C220.154 18.3258 220.509 18.4602 220.85 18.6648C221.194 18.8693 221.48 19.178 221.708 19.5909C221.935 20.0038 222.048 20.5568 222.048 21.25V27H220.708V25.8182H220.639C220.548 26.0076 220.397 26.2102 220.185 26.4261C219.973 26.642 219.69 26.8258 219.338 26.9773C218.986 27.1288 218.556 27.2045 218.048 27.2045ZM218.253 26C218.783 26 219.23 25.8958 219.594 25.6875C219.961 25.4792 220.238 25.2102 220.423 24.8807C220.613 24.5511 220.708 24.2045 220.708 23.8409V22.6136C220.651 22.6818 220.526 22.7443 220.333 22.8011C220.143 22.8542 219.923 22.9015 219.673 22.9432C219.427 22.9811 219.187 23.0152 218.952 23.0455C218.721 23.072 218.533 23.0947 218.389 23.1136C218.041 23.1591 217.715 23.233 217.412 23.3352C217.113 23.4337 216.87 23.5833 216.685 23.7841C216.503 23.9811 216.412 24.25 216.412 24.5909C216.412 25.0568 216.584 25.4091 216.929 25.6477C217.278 25.8826 217.719 26 218.253 26ZM227.981 18.2727V19.4091H223.458V18.2727H227.981ZM224.776 16.1818H226.117V24.5C226.117 24.8788 226.172 25.1629 226.282 25.3523C226.396 25.5379 226.54 25.6629 226.714 25.7273C226.892 25.7879 227.079 25.8182 227.276 25.8182C227.424 25.8182 227.545 25.8106 227.64 25.7955C227.735 25.7765 227.81 25.7614 227.867 25.75L228.14 26.9545C228.049 26.9886 227.922 27.0227 227.759 27.0568C227.596 27.0947 227.39 27.1136 227.14 27.1136C226.761 27.1136 226.39 27.0322 226.026 26.8693C225.666 26.7064 225.367 26.4583 225.129 26.125C224.894 25.7917 224.776 25.3712 224.776 24.8636V16.1818ZM233.253 27.1818C232.412 27.1818 231.686 26.9962 231.077 26.625C230.47 26.25 230.003 25.7273 229.673 25.0568C229.347 24.3826 229.184 23.5985 229.184 22.7045C229.184 21.8106 229.347 21.0227 229.673 20.3409C230.003 19.6553 230.461 19.1212 231.048 18.7386C231.639 18.3523 232.328 18.1591 233.116 18.1591C233.571 18.1591 234.02 18.2348 234.463 18.3864C234.906 18.5379 235.309 18.7841 235.673 19.125C236.037 19.4621 236.327 19.9091 236.542 20.4659C236.758 21.0227 236.866 21.7083 236.866 22.5227V23.0909H230.139V21.9318H235.503C235.503 21.4394 235.404 21 235.207 20.6136C235.014 20.2273 234.738 19.9223 234.378 19.6989C234.022 19.4754 233.601 19.3636 233.116 19.3636C232.582 19.3636 232.12 19.4962 231.73 19.7614C231.344 20.0227 231.046 20.3636 230.838 20.7841C230.63 21.2045 230.525 21.6553 230.525 22.1364V22.9091C230.525 23.5682 230.639 24.1269 230.866 24.5852C231.097 25.0398 231.417 25.3864 231.827 25.625C232.236 25.8598 232.711 25.9773 233.253 25.9773C233.605 25.9773 233.923 25.928 234.207 25.8295C234.495 25.7273 234.743 25.5758 234.952 25.375C235.16 25.1705 235.321 24.9167 235.434 24.6136L236.73 24.9773C236.594 25.4167 236.364 25.803 236.042 26.1364C235.72 26.4659 235.323 26.7235 234.849 26.9091C234.376 27.0909 233.844 27.1818 233.253 27.1818ZM18.1136 37.2727V38.4091H13.4091V37.2727H18.1136ZM14.8182 46V36.0682C14.8182 35.5682 14.9356 35.1515 15.1705 34.8182C15.4053 34.4848 15.7102 34.2348 16.0852 34.0682C16.4602 33.9015 16.8561 33.8182 17.2727 33.8182C17.6023 33.8182 17.8712 33.8447 18.0795 33.8977C18.2879 33.9508 18.4432 34 18.5455 34.0455L18.1591 35.2045C18.0909 35.1818 17.9962 35.1534 17.875 35.1193C17.7576 35.0852 17.6023 35.0682 17.4091 35.0682C16.9659 35.0682 16.6458 35.1799 16.4489 35.4034C16.2557 35.6269 16.1591 35.9545 16.1591 36.3864V46H14.8182ZM22.8685 46.1818C22.0806 46.1818 21.3893 45.9943 20.7946 45.6193C20.2037 45.2443 19.7416 44.7197 19.4082 44.0455C19.0787 43.3712 18.9139 42.5833 18.9139 41.6818C18.9139 40.7727 19.0787 39.9792 19.4082 39.3011C19.7416 38.6231 20.2037 38.0966 20.7946 37.7216C21.3893 37.3466 22.0806 37.1591 22.8685 37.1591C23.6563 37.1591 24.3457 37.3466 24.9367 37.7216C25.5313 38.0966 25.9935 38.6231 26.323 39.3011C26.6563 39.9792 26.823 40.7727 26.823 41.6818C26.823 42.5833 26.6563 43.3712 26.323 44.0455C25.9935 44.7197 25.5313 45.2443 24.9367 45.6193C24.3457 45.9943 23.6563 46.1818 22.8685 46.1818ZM22.8685 44.9773C23.467 44.9773 23.9594 44.8239 24.3457 44.517C24.7321 44.2102 25.0181 43.8068 25.2037 43.3068C25.3893 42.8068 25.4821 42.2652 25.4821 41.6818C25.4821 41.0985 25.3893 40.5549 25.2037 40.0511C25.0181 39.5473 24.7321 39.1402 24.3457 38.8295C23.9594 38.5189 23.467 38.3636 22.8685 38.3636C22.27 38.3636 21.7776 38.5189 21.3912 38.8295C21.0048 39.1402 20.7188 39.5473 20.5332 40.0511C20.3476 40.5549 20.2548 41.0985 20.2548 41.6818C20.2548 42.2652 20.3476 42.8068 20.5332 43.3068C20.7188 43.8068 21.0048 44.2102 21.3912 44.517C21.7776 44.8239 22.27 44.9773 22.8685 44.9773ZM28.5594 46V37.2727H29.8548V38.5909H29.9457C30.1048 38.1591 30.3927 37.8087 30.8094 37.5398C31.2261 37.2708 31.6957 37.1364 32.2185 37.1364C32.317 37.1364 32.4401 37.1383 32.5878 37.142C32.7355 37.1458 32.8473 37.1515 32.923 37.1591V38.5227C32.8776 38.5114 32.7734 38.4943 32.6105 38.4716C32.4514 38.4451 32.2829 38.4318 32.1048 38.4318C31.6806 38.4318 31.3018 38.5208 30.9685 38.6989C30.6389 38.8731 30.3776 39.1155 30.1844 39.4261C29.995 39.733 29.9003 40.0833 29.9003 40.4773V46H28.5594ZM42.187 37.2727V38.4091H37.6642V37.2727H42.187ZM38.9824 35.1818H40.3233V43.5C40.3233 43.8788 40.3782 44.1629 40.4881 44.3523C40.6017 44.5379 40.7457 44.6629 40.9199 44.7273C41.0979 44.7879 41.2854 44.8182 41.4824 44.8182C41.6301 44.8182 41.7513 44.8106 41.846 44.7955C41.9407 44.7765 42.0165 44.7614 42.0733 44.75L42.346 45.9545C42.2551 45.9886 42.1282 46.0227 41.9654 46.0568C41.8025 46.0947 41.596 46.1136 41.346 46.1136C40.9673 46.1136 40.596 46.0322 40.2324 45.8693C39.8726 45.7064 39.5733 45.4583 39.3347 45.125C39.0998 44.7917 38.9824 44.3712 38.9824 43.8636V35.1818ZM45.4219 40.75V46H44.081V34.3636H45.4219V38.6364H45.5355C45.7401 38.1856 46.0469 37.8277 46.456 37.5625C46.8689 37.2936 47.4181 37.1591 48.1037 37.1591C48.6984 37.1591 49.2192 37.2784 49.6662 37.517C50.1132 37.7519 50.4598 38.1136 50.706 38.6023C50.956 39.0871 51.081 39.7045 51.081 40.4545V46H49.7401V40.5455C49.7401 39.8523 49.5602 39.3163 49.2003 38.9375C48.8442 38.5549 48.3499 38.3636 47.7174 38.3636C47.278 38.3636 46.884 38.4564 46.5355 38.642C46.1908 38.8277 45.9181 39.0985 45.7174 39.4545C45.5204 39.8106 45.4219 40.2424 45.4219 40.75ZM56.8827 46.1818C56.0418 46.1818 55.3164 45.9962 54.7066 45.625C54.1005 45.25 53.6327 44.7273 53.3032 44.0568C52.9774 43.3826 52.8145 42.5985 52.8145 41.7045C52.8145 40.8106 52.9774 40.0227 53.3032 39.3409C53.6327 38.6553 54.091 38.1212 54.6782 37.7386C55.2691 37.3523 55.9585 37.1591 56.7463 37.1591C57.2009 37.1591 57.6497 37.2348 58.0929 37.3864C58.5361 37.5379 58.9395 37.7841 59.3032 38.125C59.6668 38.4621 59.9566 38.9091 60.1725 39.4659C60.3884 40.0227 60.4963 40.7083 60.4963 41.5227V42.0909H53.7691V40.9318H59.1327C59.1327 40.4394 59.0342 40 58.8372 39.6136C58.6441 39.2273 58.3675 38.9223 58.0077 38.6989C57.6516 38.4754 57.2312 38.3636 56.7463 38.3636C56.2122 38.3636 55.7501 38.4962 55.36 38.7614C54.9736 39.0227 54.6763 39.3636 54.4679 39.7841C54.2596 40.2045 54.1554 40.6553 54.1554 41.1364V41.9091C54.1554 42.5682 54.2691 43.1269 54.4963 43.5852C54.7274 44.0398 55.0475 44.3864 55.4566 44.625C55.8657 44.8598 56.341 44.9773 56.8827 44.9773C57.235 44.9773 57.5532 44.928 57.8372 44.8295C58.1251 44.7273 58.3732 44.5758 58.5816 44.375C58.7899 44.1705 58.9509 43.9167 59.0645 43.6136L60.36 43.9773C60.2236 44.4167 59.9944 44.803 59.6725 45.1364C59.3505 45.4659 58.9528 45.7235 58.4793 45.9091C58.0058 46.0909 57.4736 46.1818 56.8827 46.1818ZM74.2333 34.3636H75.6424V42.0682C75.6424 42.8636 75.4549 43.5739 75.0799 44.1989C74.7087 44.8201 74.184 45.3106 73.506 45.6705C72.828 46.0265 72.0325 46.2045 71.1196 46.2045C70.2068 46.2045 69.4113 46.0265 68.7333 45.6705C68.0552 45.3106 67.5287 44.8201 67.1537 44.1989C66.7825 43.5739 66.5969 42.8636 66.5969 42.0682V34.3636H68.006V41.9545C68.006 42.5227 68.131 43.0284 68.381 43.4716C68.631 43.911 68.9871 44.2576 69.4492 44.5114C69.9151 44.7614 70.4719 44.8864 71.1196 44.8864C71.7674 44.8864 72.3242 44.7614 72.7901 44.5114C73.256 44.2576 73.6121 43.911 73.8583 43.4716C74.1083 43.0284 74.2333 42.5227 74.2333 41.9545V34.3636ZM84.5094 37.2727C84.4412 36.697 84.1647 36.25 83.6799 35.9318C83.195 35.6136 82.6003 35.4545 81.8958 35.4545C81.3806 35.4545 80.9299 35.5379 80.5435 35.7045C80.1609 35.8712 79.8617 36.1004 79.6458 36.392C79.4337 36.6837 79.3276 37.0152 79.3276 37.3864C79.3276 37.697 79.4015 37.964 79.5492 38.1875C79.7007 38.4072 79.8939 38.5909 80.1287 38.7386C80.3636 38.8826 80.6098 39.0019 80.8674 39.0966C81.1249 39.1875 81.3617 39.2614 81.5776 39.3182L82.7594 39.6364C83.0624 39.7159 83.3996 39.8258 83.7708 39.9659C84.1458 40.1061 84.5037 40.2973 84.8446 40.5398C85.1893 40.7784 85.4734 41.0852 85.6969 41.4602C85.9204 41.8352 86.0321 42.2955 86.0321 42.8409C86.0321 43.4697 85.8674 44.0379 85.5378 44.5455C85.2121 45.053 84.7348 45.4564 84.106 45.7557C83.481 46.0549 82.7215 46.2045 81.8276 46.2045C80.9943 46.2045 80.2727 46.0701 79.6628 45.8011C79.0568 45.5322 78.5795 45.1572 78.231 44.6761C77.8863 44.1951 77.6912 43.6364 77.6458 43H79.1003C79.1382 43.4394 79.2859 43.803 79.5435 44.0909C79.8049 44.375 80.1344 44.5871 80.5321 44.7273C80.9337 44.8636 81.3655 44.9318 81.8276 44.9318C82.3655 44.9318 82.8484 44.8447 83.2765 44.6705C83.7045 44.4924 84.0435 44.2462 84.2935 43.9318C84.5435 43.6136 84.6685 43.2424 84.6685 42.8182C84.6685 42.4318 84.5606 42.1174 84.3446 41.875C84.1287 41.6326 83.8446 41.4356 83.4924 41.2841C83.1401 41.1326 82.7594 41 82.3503 40.8864L80.9185 40.4773C80.0094 40.2159 79.2897 39.8428 78.7594 39.358C78.2291 38.8731 77.964 38.2386 77.964 37.4545C77.964 36.803 78.1401 36.2348 78.4924 35.75C78.8484 35.2614 79.3257 34.8826 79.9242 34.6136C80.5265 34.3409 81.1988 34.2045 81.9412 34.2045C82.6912 34.2045 83.3579 34.339 83.9412 34.608C84.5246 34.8731 84.9867 35.2367 85.3276 35.6989C85.6723 36.161 85.8541 36.6856 85.8731 37.2727H84.5094ZM91.6293 46H88.0384V34.3636H91.7884C92.9172 34.3636 93.8831 34.5966 94.6861 35.0625C95.4892 35.5246 96.1047 36.1894 96.5327 37.0568C96.9608 37.9205 97.1748 38.9545 97.1748 40.1591C97.1748 41.3712 96.9589 42.4148 96.527 43.2898C96.0952 44.161 95.4664 44.8314 94.6407 45.3011C93.8149 45.767 92.8111 46 91.6293 46ZM89.4475 44.75H91.5384C92.5005 44.75 93.2979 44.5644 93.9304 44.1932C94.563 43.822 95.0346 43.2936 95.3452 42.608C95.6558 41.9223 95.8111 41.1061 95.8111 40.1591C95.8111 39.2197 95.6577 38.411 95.3509 37.733C95.0441 37.0511 94.5858 36.5284 93.9759 36.1648C93.3661 35.7973 92.6066 35.6136 91.6975 35.6136H89.4475V44.75ZM107.031 37.2727V38.4091H102.508V37.2727H107.031ZM103.826 35.1818H105.167V43.5C105.167 43.8788 105.222 44.1629 105.332 44.3523C105.446 44.5379 105.59 44.6629 105.764 44.7273C105.942 44.7879 106.13 44.8182 106.326 44.8182C106.474 44.8182 106.595 44.8106 106.69 44.7955C106.785 44.7765 106.861 44.7614 106.917 44.75L107.19 45.9545C107.099 45.9886 106.972 46.0227 106.809 46.0568C106.647 46.0947 106.44 46.1136 106.19 46.1136C105.811 46.1136 105.44 46.0322 105.076 45.8693C104.717 45.7064 104.417 45.4583 104.179 45.125C103.944 44.7917 103.826 44.3712 103.826 43.8636V35.1818ZM112.189 46.1818C111.401 46.1818 110.71 45.9943 110.115 45.6193C109.524 45.2443 109.062 44.7197 108.729 44.0455C108.399 43.3712 108.235 42.5833 108.235 41.6818C108.235 40.7727 108.399 39.9792 108.729 39.3011C109.062 38.6231 109.524 38.0966 110.115 37.7216C110.71 37.3466 111.401 37.1591 112.189 37.1591C112.977 37.1591 113.667 37.3466 114.257 37.7216C114.852 38.0966 115.314 38.6231 115.644 39.3011C115.977 39.9792 116.144 40.7727 116.144 41.6818C116.144 42.5833 115.977 43.3712 115.644 44.0455C115.314 44.7197 114.852 45.2443 114.257 45.6193C113.667 45.9943 112.977 46.1818 112.189 46.1818ZM112.189 44.9773C112.788 44.9773 113.28 44.8239 113.667 44.517C114.053 44.2102 114.339 43.8068 114.524 43.3068C114.71 42.8068 114.803 42.2652 114.803 41.6818C114.803 41.0985 114.71 40.5549 114.524 40.0511C114.339 39.5473 114.053 39.1402 113.667 38.8295C113.28 38.5189 112.788 38.3636 112.189 38.3636C111.591 38.3636 111.098 38.5189 110.712 38.8295C110.326 39.1402 110.04 39.5473 109.854 40.0511C109.668 40.5549 109.576 41.0985 109.576 41.6818C109.576 42.2652 109.668 42.8068 109.854 43.3068C110.04 43.8068 110.326 44.2102 110.712 44.517C111.098 44.8239 111.591 44.9773 112.189 44.9773ZM130.206 38C130.081 37.6174 129.916 37.2746 129.712 36.9716C129.511 36.6648 129.27 36.4034 128.99 36.1875C128.714 35.9716 128.399 35.8068 128.047 35.6932C127.695 35.5795 127.308 35.5227 126.888 35.5227C126.198 35.5227 125.572 35.7008 125.007 36.0568C124.443 36.4129 123.994 36.9375 123.661 37.6307C123.327 38.3239 123.161 39.1742 123.161 40.1818C123.161 41.1894 123.329 42.0398 123.666 42.733C124.003 43.4261 124.46 43.9508 125.036 44.3068C125.611 44.6629 126.259 44.8409 126.979 44.8409C127.645 44.8409 128.233 44.6989 128.74 44.4148C129.251 44.1269 129.649 43.7216 129.933 43.1989C130.221 42.6723 130.365 42.053 130.365 41.3409L130.797 41.4318H127.297V40.1818H131.729V41.4318C131.729 42.3902 131.524 43.2235 131.115 43.9318C130.71 44.6402 130.149 45.1894 129.433 45.5795C128.721 45.9659 127.903 46.1591 126.979 46.1591C125.948 46.1591 125.043 45.9167 124.263 45.4318C123.486 44.947 122.88 44.2576 122.445 43.3636C122.013 42.4697 121.797 41.4091 121.797 40.1818C121.797 39.2614 121.92 38.4337 122.166 37.6989C122.416 36.9602 122.769 36.3314 123.223 35.8125C123.678 35.2936 124.216 34.8958 124.837 34.6193C125.458 34.3428 126.142 34.2045 126.888 34.2045C127.501 34.2045 128.073 34.2973 128.604 34.483C129.138 34.6648 129.613 34.9242 130.03 35.2614C130.45 35.5947 130.801 35.9943 131.081 36.4602C131.361 36.9223 131.555 37.4356 131.661 38H130.206ZM133.832 46V34.3636H137.9C138.71 34.3636 139.379 34.5038 139.905 34.7841C140.432 35.0606 140.824 35.4337 141.082 35.9034C141.339 36.3693 141.468 36.8864 141.468 37.4545C141.468 37.9545 141.379 38.3674 141.201 38.6932C141.027 39.0189 140.796 39.2765 140.508 39.4659C140.224 39.6553 139.915 39.7955 139.582 39.8864V40C139.938 40.0227 140.296 40.1477 140.655 40.375C141.015 40.6023 141.316 40.928 141.559 41.3523C141.801 41.7765 141.923 42.2955 141.923 42.9091C141.923 43.4924 141.79 44.017 141.525 44.483C141.26 44.9489 140.841 45.3182 140.269 45.5909C139.697 45.8636 138.953 46 138.036 46H133.832ZM135.241 44.75H138.036C138.957 44.75 139.61 44.572 139.996 44.2159C140.387 43.8561 140.582 43.4205 140.582 42.9091C140.582 42.5152 140.481 42.1515 140.28 41.8182C140.08 41.4811 139.794 41.2121 139.423 41.0114C139.051 40.8068 138.612 40.7045 138.104 40.7045H135.241V44.75ZM135.241 39.4773H137.854C138.279 39.4773 138.661 39.3939 139.002 39.2273C139.347 39.0606 139.619 38.8258 139.82 38.5227C140.025 38.2197 140.127 37.8636 140.127 37.4545C140.127 36.9432 139.949 36.5095 139.593 36.1534C139.237 35.7936 138.673 35.6136 137.9 35.6136H135.241V39.4773ZM143.927 46V34.3636H147.859C148.772 34.3636 149.518 34.5284 150.098 34.858C150.681 35.1837 151.113 35.625 151.393 36.1818C151.674 36.7386 151.814 37.3598 151.814 38.0455C151.814 38.7311 151.674 39.3542 151.393 39.9148C151.117 40.4754 150.689 40.9223 150.109 41.2557C149.53 41.5852 148.787 41.75 147.882 41.75H145.064V40.5H147.836C148.461 40.5 148.963 40.392 149.342 40.1761C149.721 39.9602 149.996 39.6686 150.166 39.3011C150.34 38.9299 150.427 38.5114 150.427 38.0455C150.427 37.5795 150.34 37.1629 150.166 36.7955C149.996 36.428 149.719 36.1402 149.336 35.9318C148.954 35.7197 148.446 35.6136 147.814 35.6136H145.336V46H143.927ZM157.781 46V37.2727H159.122V46H157.781ZM158.463 35.8182C158.201 35.8182 157.976 35.7292 157.786 35.5511C157.601 35.3731 157.508 35.1591 157.508 34.9091C157.508 34.6591 157.601 34.4451 157.786 34.267C157.976 34.089 158.201 34 158.463 34C158.724 34 158.947 34.089 159.133 34.267C159.322 34.4451 159.417 34.6591 159.417 34.9091C159.417 35.1591 159.322 35.3731 159.133 35.5511C158.947 35.7292 158.724 35.8182 158.463 35.8182ZM167.449 39.2273L166.244 39.5682C166.169 39.3674 166.057 39.1723 165.909 38.983C165.765 38.7898 165.568 38.6307 165.318 38.5057C165.068 38.3807 164.748 38.3182 164.358 38.3182C163.824 38.3182 163.379 38.4413 163.023 38.6875C162.671 38.9299 162.494 39.2386 162.494 39.6136C162.494 39.947 162.616 40.2102 162.858 40.4034C163.1 40.5966 163.479 40.7576 163.994 40.8864L165.29 41.2045C166.07 41.3939 166.652 41.6837 167.034 42.0739C167.417 42.4602 167.608 42.9583 167.608 43.5682C167.608 44.0682 167.464 44.5152 167.176 44.9091C166.892 45.303 166.494 45.6136 165.983 45.8409C165.472 46.0682 164.877 46.1818 164.199 46.1818C163.309 46.1818 162.572 45.9886 161.989 45.6023C161.405 45.2159 161.036 44.6515 160.881 43.9091L162.154 43.5909C162.275 44.0606 162.504 44.4129 162.841 44.6477C163.182 44.8826 163.627 45 164.176 45C164.801 45 165.297 44.8674 165.665 44.6023C166.036 44.3333 166.222 44.0114 166.222 43.6364C166.222 43.3333 166.116 43.0795 165.904 42.875C165.691 42.6667 165.366 42.5114 164.926 42.4091L163.472 42.0682C162.672 41.8788 162.085 41.5852 161.71 41.1875C161.339 40.786 161.154 40.2841 161.154 39.6818C161.154 39.1894 161.292 38.7538 161.568 38.375C161.849 37.9962 162.229 37.6989 162.71 37.483C163.195 37.267 163.744 37.1591 164.358 37.1591C165.222 37.1591 165.9 37.3485 166.392 37.7273C166.888 38.1061 167.241 38.6061 167.449 39.2273ZM177.574 34.3636V46H176.165V35.8409H176.096L173.256 37.7273V36.2955L176.165 34.3636H177.574ZM180.922 46.0909C180.642 46.0909 180.401 45.9905 180.201 45.7898C180 45.589 179.9 45.3485 179.9 45.0682C179.9 44.7879 180 44.5473 180.201 44.3466C180.401 44.1458 180.642 44.0455 180.922 44.0455C181.203 44.0455 181.443 44.1458 181.644 44.3466C181.845 44.5473 181.945 44.7879 181.945 45.0682C181.945 45.2538 181.898 45.4242 181.803 45.5795C181.712 45.7348 181.589 45.8598 181.434 45.9545C181.282 46.0455 181.112 46.0909 180.922 46.0909ZM184.018 46V44.9773L187.859 40.7727C188.31 40.2803 188.681 39.8523 188.973 39.4886C189.264 39.1212 189.48 38.7765 189.62 38.4545C189.764 38.1288 189.836 37.7879 189.836 37.4318C189.836 37.0227 189.738 36.6686 189.541 36.3693C189.348 36.0701 189.082 35.839 188.745 35.6761C188.408 35.5133 188.029 35.4318 187.609 35.4318C187.162 35.4318 186.772 35.5246 186.438 35.7102C186.109 35.892 185.853 36.1477 185.671 36.4773C185.493 36.8068 185.404 37.1932 185.404 37.6364H184.063C184.063 36.9545 184.221 36.3561 184.535 35.8409C184.849 35.3258 185.277 34.9242 185.819 34.6364C186.365 34.3485 186.976 34.2045 187.654 34.2045C188.336 34.2045 188.94 34.3485 189.467 34.6364C189.993 34.9242 190.406 35.3125 190.706 35.8011C191.005 36.2898 191.154 36.8333 191.154 37.4318C191.154 37.8598 191.077 38.2784 190.921 38.6875C190.77 39.0928 190.505 39.5455 190.126 40.0455C189.751 40.5417 189.23 41.1477 188.563 41.8636L185.95 44.6591V44.75H191.359V46H184.018ZM197.1 34.1818C197.577 34.1856 198.054 34.2765 198.531 34.4545C199.009 34.6326 199.444 34.928 199.838 35.3409C200.232 35.7538 200.548 36.3163 200.787 37.0284C201.026 37.7367 201.145 38.6288 201.145 39.7045C201.145 40.7386 201.047 41.6572 200.85 42.4602C200.656 43.2595 200.376 43.9337 200.009 44.483C199.645 45.0322 199.202 45.4489 198.679 45.733C198.16 46.017 197.573 46.1591 196.918 46.1591C196.266 46.1591 195.685 46.0303 195.173 45.7727C194.666 45.5114 194.249 45.1496 193.923 44.6875C193.601 44.2216 193.395 43.6818 193.304 43.0682H194.69C194.815 43.6023 195.064 44.0436 195.435 44.392C195.81 44.7367 196.304 44.9091 196.918 44.9091C197.815 44.9091 198.524 44.517 199.043 43.733C199.565 42.9489 199.827 41.8409 199.827 40.4091H199.736C199.524 40.7273 199.272 41.0019 198.98 41.233C198.689 41.464 198.365 41.642 198.009 41.767C197.653 41.892 197.274 41.9545 196.872 41.9545C196.206 41.9545 195.594 41.7898 195.037 41.4602C194.484 41.1269 194.041 40.6705 193.708 40.0909C193.378 39.5076 193.213 38.8409 193.213 38.0909C193.213 37.3712 193.372 36.714 193.69 36.1193C194.012 35.5246 194.463 35.0511 195.043 34.6989C195.626 34.3466 196.312 34.1742 197.1 34.1818ZM197.1 35.4318C196.622 35.4318 196.192 35.5511 195.81 35.7898C195.431 36.0284 195.13 36.3485 194.906 36.75C194.687 37.1515 194.577 37.5985 194.577 38.0909C194.577 38.5758 194.683 39.017 194.895 39.4148C195.111 39.8087 195.404 40.1231 195.776 40.358C196.151 40.589 196.577 40.7045 197.054 40.7045C197.414 40.7045 197.749 40.6345 198.06 40.4943C198.37 40.3504 198.641 40.1553 198.872 39.9091C199.107 39.6591 199.291 39.3769 199.423 39.0625C199.556 38.7443 199.622 38.4129 199.622 38.0682C199.622 37.6061 199.512 37.1742 199.293 36.7727C199.077 36.3712 198.778 36.0473 198.395 35.8011C198.016 35.5549 197.584 35.4318 197.1 35.4318ZM207.16 34.3636V46H205.751V35.8409H205.683L202.842 37.7273V36.2955L205.751 34.3636H207.16ZM214.059 46.1591C213.582 46.1515 213.105 46.0606 212.628 45.8864C212.15 45.7121 211.715 45.4186 211.321 45.0057C210.927 44.589 210.611 44.0265 210.372 43.3182C210.133 42.6061 210.014 41.7121 210.014 40.6364C210.014 39.6023 210.111 38.6856 210.304 37.8864C210.497 37.0833 210.777 36.4072 211.145 35.858C211.512 35.3087 211.955 34.892 212.474 34.608C212.997 34.3239 213.586 34.1818 214.241 34.1818C214.893 34.1818 215.472 34.3125 215.98 34.5739C216.491 34.8352 216.908 35.1989 217.23 35.6648C217.552 36.1269 217.76 36.6629 217.855 37.2727H216.469C216.34 36.7386 216.09 36.2992 215.719 35.9545C215.347 35.6061 214.855 35.4318 214.241 35.4318C213.34 35.4318 212.63 35.8258 212.111 36.6136C211.595 37.3977 211.336 38.5038 211.332 39.9318H211.423C211.635 39.6098 211.887 39.3352 212.179 39.108C212.474 38.8769 212.8 38.6989 213.156 38.5739C213.512 38.4489 213.889 38.3864 214.287 38.3864C214.953 38.3864 215.563 38.553 216.116 38.8864C216.669 39.2159 217.113 39.6723 217.446 40.2557C217.779 40.8352 217.946 41.5 217.946 42.25C217.946 42.9697 217.785 43.6288 217.463 44.2273C217.141 44.822 216.688 45.2955 216.105 45.6477C215.525 45.9962 214.844 46.1667 214.059 46.1591ZM214.059 44.9091C214.537 44.9091 214.965 44.7898 215.344 44.5511C215.726 44.3125 216.027 43.9924 216.247 43.5909C216.47 43.1894 216.582 42.7424 216.582 42.25C216.582 41.7689 216.474 41.3314 216.258 40.9375C216.046 40.5398 215.753 40.2235 215.378 39.9886C215.006 39.7538 214.582 39.6364 214.105 39.6364C213.745 39.6364 213.41 39.7083 213.099 39.8523C212.789 39.9924 212.516 40.1856 212.281 40.4318C212.05 40.678 211.868 40.9602 211.736 41.2784C211.603 41.5928 211.537 41.9242 211.537 42.2727C211.537 42.7348 211.645 43.1667 211.861 43.5682C212.08 43.9697 212.38 44.2936 212.758 44.5398C213.141 44.786 213.575 44.9091 214.059 44.9091ZM223.506 46.1591C222.839 46.1591 222.239 46.0265 221.705 45.7614C221.171 45.4962 220.743 45.1326 220.421 44.6705C220.099 44.2083 219.923 43.6818 219.892 43.0909H221.256C221.309 43.6174 221.548 44.053 221.972 44.3977C222.4 44.7386 222.911 44.9091 223.506 44.9091C223.983 44.9091 224.408 44.7973 224.779 44.5739C225.154 44.3504 225.447 44.0436 225.66 43.6534C225.875 43.2595 225.983 42.8144 225.983 42.3182C225.983 41.8106 225.872 41.358 225.648 40.9602C225.428 40.5587 225.125 40.2424 224.739 40.0114C224.353 39.7803 223.911 39.6629 223.415 39.6591C223.059 39.6553 222.694 39.7102 222.319 39.8239C221.944 39.9337 221.635 40.0758 221.392 40.25L220.074 40.0909L220.779 34.3636H226.824V35.6136H221.961L221.552 39.0455H221.62C221.858 38.8561 222.158 38.6989 222.517 38.5739C222.877 38.4489 223.252 38.3864 223.642 38.3864C224.355 38.3864 224.989 38.5568 225.546 38.8977C226.106 39.2348 226.546 39.697 226.864 40.2841C227.186 40.8712 227.347 41.5417 227.347 42.2955C227.347 43.0379 227.18 43.7008 226.847 44.2841C226.517 44.8636 226.063 45.322 225.483 45.6591C224.904 45.9924 224.245 46.1591 223.506 46.1591ZM229.856 46.0909C229.576 46.0909 229.335 45.9905 229.135 45.7898C228.934 45.589 228.833 45.3485 228.833 45.0682C228.833 44.7879 228.934 44.5473 229.135 44.3466C229.335 44.1458 229.576 44.0455 229.856 44.0455C230.136 44.0455 230.377 44.1458 230.578 44.3466C230.778 44.5473 230.879 44.7879 230.879 45.0682C230.879 45.2538 230.831 45.4242 230.737 45.5795C230.646 45.7348 230.523 45.8598 230.367 45.9545C230.216 46.0455 230.045 46.0909 229.856 46.0909Z" fill="black"/>
<defs>
<filter id="filter0_d" x="0" y="0" width="252" height="63" filterUnits="userSpaceOnUse" color-interpolation-filters="sRGB">
<feFlood flood-opacity="0" result="BackgroundImageFix"/>
<feColorMatrix in="SourceAlpha" type="matrix" values="0 0 0 0 0 0 0 0 0 0 0 0 0 0 0 0 0 0 127 0"/>
<feOffset dy="1"/>
<feGaussianBlur stdDeviation="0.5"/>
<feColorMatrix type="matrix" values="0 0 0 0 0.14902 0 0 0 0 0.207843 0 0 0 0 0.25098 0 0 0 0.3 0"/>
<feBlend mode="multiply" in2="BackgroundImageFix" result="effect1_dropShadow"/>
<feBlend mode="normal" in="SourceGraphic" in2="effect1_dropShadow" result="shape"/>
</filter>
</defs>
</svg>
