<svg width="264" height="35" viewBox="0 0 264 35" fill="none" xmlns="http://www.w3.org/2000/svg">
<path fill-rule="evenodd" clip-rule="evenodd" d="M251.7 7.5C253.799 7.5 255.5 9.2269 255.5 11.3571V21.6429C255.5 23.7731 253.799 25.5 251.7 25.5H240.3C238.201 25.5 236.5 23.7731 236.5 21.6429V11.3571C236.5 9.2269 238.201 7.5 240.3 7.5H251.7ZM263.366 11.5223C263.454 11.6731 263.5 11.8428 263.5 12.0153V20.9849C263.5 21.5455 263.022 22 262.433 22C262.252 22 262.074 21.956 261.915 21.8723L258.186 19.9005C257.763 19.6767 257.5 19.2521 257.5 18.7912V14.2089C257.5 13.7481 257.763 13.3235 258.186 13.0997L261.915 11.1279C262.43 10.8557 263.08 11.0322 263.366 11.5223Z" fill="#0584FE"/>
<path fill-rule="evenodd" clip-rule="evenodd" d="M199.378 18.4919L199.508 18.6218C201.746 20.7882 203.618 21.8056 205.126 21.674L205.561 21.2687C206.178 20.7064 206.644 20.35 206.958 20.1994C207.612 19.8859 208.071 19.8922 209.309 20.5625C210.939 21.4442 212.064 22.4691 212.639 23.0441C213.173 23.578 213.007 24.4977 212.82 24.9057L212.696 25.1333C212.362 25.7129 211.152 27.6249 208.833 27.9521C207.952 28.0764 206.84 27.9624 205.536 27.5696C202.742 26.6024 199.96 24.8297 197.189 22.2514L196.697 21.7834L196.692 21.788L196.454 21.546L196.212 21.308L196.217 21.3034L195.749 20.8107C193.17 18.0402 191.398 15.2581 190.43 12.4643C190.038 11.1601 189.924 10.0477 190.048 9.16655C190.398 6.68383 192.566 5.47241 192.969 5.24671L193.01 5.22362C193.358 5.02245 194.381 4.78585 194.956 5.36082L195.228 5.64078C195.821 6.26756 196.682 7.29378 197.438 8.69059C198.108 9.92934 198.114 10.388 197.801 11.0416C197.617 11.4253 197.125 12.0361 196.326 12.8739C196.194 14.3816 197.212 16.2543 199.378 18.4919Z" fill="#0584FE"/>
<path d="M3.60206 17.5L11.4062 9.55085C11.9866 8.9597 11.9778 8.00999 11.3867 7.42962C10.7955 6.84925 9.84583 6.85799 9.26546 7.44915L0.429623 16.4491C-0.143208 17.0326 -0.143208 17.9674 0.429623 18.5509L9.26546 27.5509C9.84583 28.142 10.7955 28.1507 11.3867 27.5704C11.9778 26.99 11.9866 26.0403 11.4062 25.4491L3.60206 17.5Z" fill="#007AFF"/>
<path d="M61 17.5004C61 27.1691 53.1648 35 43.5 35C40.3347 35.0018 37.2283 34.1446 34.5118 32.5199C31.7952 30.8952 29.5705 28.5637 28.0747 25.7741C27.7994 25.2603 27.5504 24.7329 27.3285 24.1939C26.4496 22.0719 25.9981 19.7972 26 17.5004C26 7.83461 33.8352 0 43.5 0C51.2496 0 57.8271 5.04028 60.1254 12.0232C60.3112 12.5865 60.4679 13.159 60.5948 13.7384C60.8651 14.9741 61.0009 16.2354 61 17.5004Z" fill="#002855"/>
<path d="M51.4449 14.1304C51.9844 14.4618 52.3305 13.5075 52.4383 13.0078C52.5461 12.5081 52.6044 11.4992 51.9017 11.7021C51.2375 11.8955 50.6271 12.2874 50.7327 13.0307C50.8382 13.7739 50.9888 14.1422 51.4449 14.1304Z" fill="#30DFC4"/>
<path d="M60.127 12.0234C60.1233 12.03 60.1197 12.0374 60.1152 12.044C58.9682 13.9696 57.5701 15.7341 55.9578 17.291C53.9916 19.1649 52.2247 20.1318 51.4217 20.1207C50.9789 20.1207 50.6357 19.3753 51.4032 17.0208C51.6128 16.3787 51.0615 15.8303 50.4711 15.7329C50.0282 15.6591 49.6105 15.8473 49.181 16.4119C47.6414 18.4372 46.0701 20.4447 44.3563 22.0368C44.16 22.2183 43.85 22.5091 43.7474 22.5091C43.619 22.5091 43.5828 22.315 43.5828 22.0773C43.5828 21.5969 43.7444 19.8129 43.7769 19.114C43.8072 18.4807 43.5238 18.0379 43.0573 17.8165C42.4027 17.508 41.7687 17.5648 41.0491 17.9567C39.3663 18.8756 36.4835 22.4538 35.5698 23.5055C35.5026 23.586 35.3808 23.7476 35.2974 23.7151C35.214 23.6826 35.248 23.5107 35.2642 23.4258C35.4022 22.7003 35.5129 22.1881 35.6473 21.4854C35.6628 21.405 35.6915 21.264 35.7078 21.2204C35.7314 21.1748 35.7638 21.1341 35.803 21.1009C36.7005 20.2639 39.2932 17.8748 41.4749 15.1439C43.0101 13.2249 44.3415 11.1347 44.7349 9.30283C44.9076 8.49981 44.7703 6.87974 43.2455 6.67013C41.3428 6.40886 39.0903 8.73673 37.2164 12.0448C35.4768 15.1225 34.5985 18.4741 34.1483 20.0093C34.1042 20.1576 34.0149 20.2884 33.8929 20.3835C33.1755 20.9001 30.2964 23.1217 27.3242 24.1941C27.5477 24.734 27.7985 25.2621 28.0756 25.7766C30.3547 25.0614 32.1917 23.7579 32.8685 23.3129C33.0161 23.214 33.2375 23.0575 33.2906 23.059C33.3438 23.0605 33.2597 23.4575 33.1762 23.9218C33.1231 24.217 32.881 25.488 32.9467 26.4726C32.9777 26.9449 33.1342 27.4165 33.6058 27.5642C34.1291 27.7295 34.6162 27.4416 34.8671 27.1213C35.679 26.0688 39.8121 21.2669 41.1598 20.1768C41.2461 20.1067 41.3074 20.0757 41.3487 20.0919C41.3901 20.1082 41.407 20.1716 41.4026 20.2927C41.3849 20.8093 41.2801 21.4972 41.2698 22.0094C41.2513 23.4664 42.2492 24.4894 43.6935 24.4835C45.3099 24.4768 47.7794 21.2669 48.4377 20.4765C48.713 20.1458 48.8739 20.0144 48.995 20.0144C49.4437 20.0144 49.8452 21.8087 51.6579 21.8087C53.2927 21.8087 55.5349 20.3325 57.4221 18.3767C58.7853 16.961 59.9632 15.293 60.5957 13.7423C60.4691 13.1617 60.3127 12.5879 60.127 12.0234ZM36.8842 17.1426C37.5433 15.2841 39.2327 11.3894 40.8564 9.6261C41.796 8.60683 42.4204 8.29758 42.6964 8.32562C43.1237 8.36548 42.5488 9.60101 42.3532 10.0542C41.1723 12.8087 38.2105 16.3278 37.1868 17.322C36.8252 17.6725 36.7005 17.8187 36.6665 17.8083C36.6355 17.7973 36.7861 17.4275 36.8842 17.1426Z" fill="white"/>
<path d="M74.4738 24V11.3174H76.0031V16.3184H76.0382C76.2961 15.8027 76.6711 15.4043 77.1632 15.123C77.6613 14.8418 78.2531 14.7012 78.9386 14.7012C79.9347 14.7012 80.7199 15.0088 81.2941 15.624C81.8683 16.2393 82.1554 17.0625 82.1554 18.0938V24H80.6261V18.375C80.6261 17.6367 80.4416 17.0654 80.0724 16.6611C79.7091 16.2568 79.173 16.0547 78.464 16.0547C77.7082 16.0547 77.1076 16.292 76.6623 16.7666C76.2228 17.2412 76.0031 17.877 76.0031 18.6738V24H74.4738ZM83.9969 24V14.8594H85.5262V24H83.9969ZM84.7616 13.3213C84.5037 13.3213 84.2811 13.2275 84.0936 13.04C83.9061 12.8525 83.8123 12.6299 83.8123 12.3721C83.8123 12.1084 83.9061 11.8857 84.0936 11.7041C84.2811 11.5166 84.5037 11.4229 84.7616 11.4229C85.0252 11.4229 85.2508 11.5166 85.4383 11.7041C85.6258 11.8857 85.7196 12.1084 85.7196 12.3721C85.7196 12.6299 85.6258 12.8525 85.4383 13.04C85.2508 13.2275 85.0252 13.3213 84.7616 13.3213Z" fill="black"/>
</svg>
