<svg width="207" height="42" viewBox="0 0 207 42" fill="none" xmlns="http://www.w3.org/2000/svg">
<g filter="url(#filter0_d)">
<rect x="1" width="205" height="40" rx="20" fill="#0584FE"/>
</g>
<path d="M23.7727 19H22.3636C22.2803 18.5947 22.1345 18.2386 21.9261 17.9318C21.7216 17.625 21.4716 17.3674 21.1761 17.1591C20.8845 16.947 20.5606 16.7879 20.2045 16.6818C19.8485 16.5758 19.4773 16.5227 19.0909 16.5227C18.3864 16.5227 17.7481 16.7008 17.1761 17.0568C16.608 17.4129 16.1553 17.9375 15.8182 18.6307C15.4848 19.3239 15.3182 20.1742 15.3182 21.1818C15.3182 22.1894 15.4848 23.0398 15.8182 23.733C16.1553 24.4261 16.608 24.9508 17.1761 25.3068C17.7481 25.6629 18.3864 25.8409 19.0909 25.8409C19.4773 25.8409 19.8485 25.7879 20.2045 25.6818C20.5606 25.5758 20.8845 25.4186 21.1761 25.2102C21.4716 24.9981 21.7216 24.7386 21.9261 24.4318C22.1345 24.1212 22.2803 23.7652 22.3636 23.3636H23.7727C23.6667 23.9583 23.4735 24.4905 23.1932 24.9602C22.9129 25.4299 22.5644 25.8295 22.1477 26.1591C21.7311 26.4848 21.2633 26.733 20.7443 26.9034C20.2292 27.0739 19.678 27.1591 19.0909 27.1591C18.0985 27.1591 17.2159 26.9167 16.4432 26.4318C15.6705 25.947 15.0625 25.2576 14.6193 24.3636C14.1761 23.4697 13.9545 22.4091 13.9545 21.1818C13.9545 19.9545 14.1761 18.8939 14.6193 18C15.0625 17.1061 15.6705 16.4167 16.4432 15.9318C17.2159 15.447 18.0985 15.2045 19.0909 15.2045C19.678 15.2045 20.2292 15.2898 20.7443 15.4602C21.2633 15.6307 21.7311 15.8807 22.1477 16.2102C22.5644 16.536 22.9129 16.9337 23.1932 17.4034C23.4735 17.8693 23.6667 18.4015 23.7727 19ZM29.1028 27.1818C28.315 27.1818 27.6237 26.9943 27.029 26.6193C26.4381 26.2443 25.976 25.7197 25.6426 25.0455C25.3131 24.3712 25.1483 23.5833 25.1483 22.6818C25.1483 21.7727 25.3131 20.9792 25.6426 20.3011C25.976 19.6231 26.4381 19.0966 27.029 18.7216C27.6237 18.3466 28.315 18.1591 29.1028 18.1591C29.8907 18.1591 30.5801 18.3466 31.171 18.7216C31.7657 19.0966 32.2278 19.6231 32.5574 20.3011C32.8907 20.9792 33.0574 21.7727 33.0574 22.6818C33.0574 23.5833 32.8907 24.3712 32.5574 25.0455C32.2278 25.7197 31.7657 26.2443 31.171 26.6193C30.5801 26.9943 29.8907 27.1818 29.1028 27.1818ZM29.1028 25.9773C29.7013 25.9773 30.1938 25.8239 30.5801 25.517C30.9665 25.2102 31.2525 24.8068 31.4381 24.3068C31.6237 23.8068 31.7165 23.2652 31.7165 22.6818C31.7165 22.0985 31.6237 21.5549 31.4381 21.0511C31.2525 20.5473 30.9665 20.1402 30.5801 19.8295C30.1938 19.5189 29.7013 19.3636 29.1028 19.3636C28.5044 19.3636 28.0119 19.5189 27.6256 19.8295C27.2392 20.1402 26.9532 20.5473 26.7676 21.0511C26.582 21.5549 26.4892 22.0985 26.4892 22.6818C26.4892 23.2652 26.582 23.8068 26.7676 24.3068C26.9532 24.8068 27.2392 25.2102 27.6256 25.517C28.0119 25.8239 28.5044 25.9773 29.1028 25.9773ZM36.1347 21.75V27H34.7938V18.2727H36.0892V19.6364H36.2029C36.4074 19.1932 36.718 18.8371 37.1347 18.5682C37.5513 18.2955 38.0892 18.1591 38.7483 18.1591C39.3392 18.1591 39.8563 18.2803 40.2994 18.5227C40.7426 18.7614 41.0873 19.125 41.3335 19.6136C41.5797 20.0985 41.7029 20.7121 41.7029 21.4545V27H40.3619V21.5455C40.3619 20.8598 40.1839 20.3258 39.8279 19.9432C39.4718 19.5568 38.9832 19.3636 38.3619 19.3636C37.9339 19.3636 37.5513 19.4564 37.2142 19.642C36.8809 19.8277 36.6176 20.0985 36.4244 20.4545C36.2313 20.8106 36.1347 21.2424 36.1347 21.75ZM50.6665 18.2727L47.4392 27H46.0756L42.8483 18.2727H44.3029L46.7119 25.2273H46.8029L49.2119 18.2727H50.6665ZM55.4725 27.1818C54.6316 27.1818 53.9062 26.9962 53.2963 26.625C52.6903 26.25 52.2225 25.7273 51.8929 25.0568C51.5672 24.3826 51.4043 23.5985 51.4043 22.7045C51.4043 21.8106 51.5672 21.0227 51.8929 20.3409C52.2225 19.6553 52.6808 19.1212 53.2679 18.7386C53.8588 18.3523 54.5482 18.1591 55.3361 18.1591C55.7906 18.1591 56.2395 18.2348 56.6827 18.3864C57.1259 18.5379 57.5293 18.7841 57.8929 19.125C58.2566 19.4621 58.5463 19.9091 58.7622 20.4659C58.9781 21.0227 59.0861 21.7083 59.0861 22.5227V23.0909H52.3588V21.9318H57.7225C57.7225 21.4394 57.624 21 57.427 20.6136C57.2338 20.2273 56.9573 19.9223 56.5975 19.6989C56.2414 19.4754 55.8209 19.3636 55.3361 19.3636C54.802 19.3636 54.3399 19.4962 53.9497 19.7614C53.5634 20.0227 53.266 20.3636 53.0577 20.7841C52.8494 21.2045 52.7452 21.6553 52.7452 22.1364V22.9091C52.7452 23.5682 52.8588 24.1269 53.0861 24.5852C53.3172 25.0398 53.6372 25.3864 54.0463 25.625C54.4554 25.8598 54.9308 25.9773 55.4725 25.9773C55.8247 25.9773 56.1429 25.928 56.427 25.8295C56.7149 25.7273 56.963 25.5758 57.1713 25.375C57.3797 25.1705 57.5406 24.9167 57.6543 24.6136L58.9497 24.9773C58.8134 25.4167 58.5842 25.803 58.2622 26.1364C57.9403 26.4659 57.5425 26.7235 57.0691 26.9091C56.5956 27.0909 56.0634 27.1818 55.4725 27.1818ZM60.8154 27V18.2727H62.1108V19.5909H62.2017C62.3608 19.1591 62.6487 18.8087 63.0654 18.5398C63.482 18.2708 63.9517 18.1364 64.4745 18.1364C64.5729 18.1364 64.696 18.1383 64.8438 18.142C64.9915 18.1458 65.1032 18.1515 65.179 18.1591V19.5227C65.1335 19.5114 65.0294 19.4943 64.8665 19.4716C64.7074 19.4451 64.5389 19.4318 64.3608 19.4318C63.9366 19.4318 63.5578 19.5208 63.2245 19.6989C62.8949 19.8731 62.6335 20.1155 62.4404 20.4261C62.251 20.733 62.1563 21.0833 62.1563 21.4773V27H60.8154ZM70.8003 18.2727V19.4091H66.2776V18.2727H70.8003ZM67.5958 16.1818H68.9367V24.5C68.9367 24.8788 68.9916 25.1629 69.1014 25.3523C69.2151 25.5379 69.359 25.6629 69.5333 25.7273C69.7113 25.7879 69.8988 25.8182 70.0958 25.8182C70.2435 25.8182 70.3647 25.8106 70.4594 25.7955C70.5541 25.7765 70.6299 25.7614 70.6867 25.75L70.9594 26.9545C70.8685 26.9886 70.7416 27.0227 70.5787 27.0568C70.4158 27.0947 70.2094 27.1136 69.9594 27.1136C69.5806 27.1136 69.2094 27.0322 68.8458 26.8693C68.4859 26.7064 68.1867 26.4583 67.948 26.125C67.7132 25.7917 67.5958 25.3712 67.5958 24.8636V16.1818ZM80.7645 15.3636V27H79.3554V16.8409H79.2873L76.4463 18.7273V17.2955L79.3554 15.3636H80.7645ZM87.5961 27.1591C86.74 27.1591 86.0108 26.9261 85.4086 26.4602C84.8063 25.9905 84.3461 25.3106 84.0279 24.4205C83.7097 23.5265 83.5506 22.447 83.5506 21.1818C83.5506 19.9242 83.7097 18.8504 84.0279 17.9602C84.3498 17.0663 84.812 16.3845 85.4142 15.9148C86.0203 15.4413 86.7476 15.2045 87.5961 15.2045C88.4445 15.2045 89.1699 15.4413 89.7722 15.9148C90.3783 16.3845 90.8404 17.0663 91.1586 17.9602C91.4805 18.8504 91.6415 19.9242 91.6415 21.1818C91.6415 22.447 91.4824 23.5265 91.1642 24.4205C90.8461 25.3106 90.3858 25.9905 89.7836 26.4602C89.1813 26.9261 88.4521 27.1591 87.5961 27.1591ZM87.5961 25.9091C88.4445 25.9091 89.1036 25.5 89.5733 24.6818C90.043 23.8636 90.2779 22.697 90.2779 21.1818C90.2779 20.1742 90.1699 19.3163 89.954 18.608C89.7419 17.8996 89.4351 17.3598 89.0336 16.9886C88.6358 16.6174 88.1567 16.4318 87.5961 16.4318C86.7552 16.4318 86.098 16.8466 85.6245 17.6761C85.151 18.5019 84.9142 19.6705 84.9142 21.1818C84.9142 22.1894 85.0203 23.0455 85.2324 23.75C85.4445 24.4545 85.7495 24.9905 86.1472 25.358C86.5487 25.7254 87.0317 25.9091 87.5961 25.9091ZM97.2856 27.1591C96.4295 27.1591 95.7003 26.9261 95.0981 26.4602C94.4958 25.9905 94.0356 25.3106 93.7174 24.4205C93.3992 23.5265 93.2401 22.447 93.2401 21.1818C93.2401 19.9242 93.3992 18.8504 93.7174 17.9602C94.0393 17.0663 94.5015 16.3845 95.1037 15.9148C95.7098 15.4413 96.4371 15.2045 97.2856 15.2045C98.134 15.2045 98.8594 15.4413 99.4617 15.9148C100.068 16.3845 100.53 17.0663 100.848 17.9602C101.17 18.8504 101.331 19.9242 101.331 21.1818C101.331 22.447 101.172 23.5265 100.854 24.4205C100.536 25.3106 100.075 25.9905 99.4731 26.4602C98.8708 26.9261 98.1416 27.1591 97.2856 27.1591ZM97.2856 25.9091C98.134 25.9091 98.7931 25.5 99.2628 24.6818C99.7325 23.8636 99.9674 22.697 99.9674 21.1818C99.9674 20.1742 99.8594 19.3163 99.6435 18.608C99.4314 17.8996 99.1246 17.3598 98.7231 16.9886C98.3253 16.6174 97.8462 16.4318 97.2856 16.4318C96.4447 16.4318 95.7875 16.8466 95.314 17.6761C94.8405 18.5019 94.6037 19.6705 94.6037 21.1818C94.6037 22.1894 94.7098 23.0455 94.9219 23.75C95.134 24.4545 95.439 24.9905 95.8367 25.358C96.2382 25.7254 96.7212 25.9091 97.2856 25.9091ZM115.21 15.3636H116.619V23.0682C116.619 23.8636 116.432 24.5739 116.057 25.1989C115.685 25.8201 115.161 26.3106 114.483 26.6705C113.805 27.0265 113.009 27.2045 112.096 27.2045C111.183 27.2045 110.388 27.0265 109.71 26.6705C109.032 26.3106 108.505 25.8201 108.13 25.1989C107.759 24.5739 107.574 23.8636 107.574 23.0682V15.3636H108.983V22.9545C108.983 23.5227 109.108 24.0284 109.358 24.4716C109.608 24.911 109.964 25.2576 110.426 25.5114C110.892 25.7614 111.449 25.8864 112.096 25.8864C112.744 25.8864 113.301 25.7614 113.767 25.5114C114.233 25.2576 114.589 24.911 114.835 24.4716C115.085 24.0284 115.21 23.5227 115.21 22.9545V15.3636ZM125.486 18.2727C125.418 17.697 125.141 17.25 124.657 16.9318C124.172 16.6136 123.577 16.4545 122.873 16.4545C122.357 16.4545 121.907 16.5379 121.52 16.7045C121.138 16.8712 120.838 17.1004 120.623 17.392C120.41 17.6837 120.304 18.0152 120.304 18.3864C120.304 18.697 120.378 18.964 120.526 19.1875C120.677 19.4072 120.871 19.5909 121.105 19.7386C121.34 19.8826 121.587 20.0019 121.844 20.0966C122.102 20.1875 122.338 20.2614 122.554 20.3182L123.736 20.6364C124.039 20.7159 124.376 20.8258 124.748 20.9659C125.123 21.1061 125.48 21.2973 125.821 21.5398C126.166 21.7784 126.45 22.0852 126.674 22.4602C126.897 22.8352 127.009 23.2955 127.009 23.8409C127.009 24.4697 126.844 25.0379 126.515 25.5455C126.189 26.053 125.712 26.4564 125.083 26.7557C124.458 27.0549 123.698 27.2045 122.804 27.2045C121.971 27.2045 121.249 27.0701 120.64 26.8011C120.033 26.5322 119.556 26.1572 119.208 25.6761C118.863 25.1951 118.668 24.6364 118.623 24H120.077C120.115 24.4394 120.263 24.803 120.52 25.0909C120.782 25.375 121.111 25.5871 121.509 25.7273C121.91 25.8636 122.342 25.9318 122.804 25.9318C123.342 25.9318 123.825 25.8447 124.253 25.6705C124.681 25.4924 125.02 25.2462 125.27 24.9318C125.52 24.6136 125.645 24.2424 125.645 23.8182C125.645 23.4318 125.537 23.1174 125.321 22.875C125.105 22.6326 124.821 22.4356 124.469 22.2841C124.117 22.1326 123.736 22 123.327 21.8864L121.895 21.4773C120.986 21.2159 120.266 20.8428 119.736 20.358C119.206 19.8731 118.941 19.2386 118.941 18.4545C118.941 17.803 119.117 17.2348 119.469 16.75C119.825 16.2614 120.302 15.8826 120.901 15.6136C121.503 15.3409 122.176 15.2045 122.918 15.2045C123.668 15.2045 124.335 15.339 124.918 15.608C125.501 15.8731 125.963 16.2367 126.304 16.6989C126.649 17.161 126.831 17.6856 126.85 18.2727H125.486ZM132.606 27H129.015V15.3636H132.765C133.894 15.3636 134.86 15.5966 135.663 16.0625C136.466 16.5246 137.081 17.1894 137.509 18.0568C137.937 18.9205 138.151 19.9545 138.151 21.1591C138.151 22.3712 137.936 23.4148 137.504 24.2898C137.072 25.161 136.443 25.8314 135.617 26.3011C134.792 26.767 133.788 27 132.606 27ZM130.424 25.75H132.515C133.477 25.75 134.275 25.5644 134.907 25.1932C135.54 24.822 136.011 24.2936 136.322 23.608C136.633 22.9223 136.788 22.1061 136.788 21.1591C136.788 20.2197 136.634 19.411 136.328 18.733C136.021 18.0511 135.562 17.5284 134.953 17.1648C134.343 16.7973 133.583 16.6136 132.674 16.6136H130.424V25.75ZM148.008 18.2727V19.4091H143.485V18.2727H148.008ZM144.803 16.1818H146.144V24.5C146.144 24.8788 146.199 25.1629 146.309 25.3523C146.423 25.5379 146.566 25.6629 146.741 25.7273C146.919 25.7879 147.106 25.8182 147.303 25.8182C147.451 25.8182 147.572 25.8106 147.667 25.7955C147.762 25.7765 147.837 25.7614 147.894 25.75L148.167 26.9545C148.076 26.9886 147.949 27.0227 147.786 27.0568C147.623 27.0947 147.417 27.1136 147.167 27.1136C146.788 27.1136 146.417 27.0322 146.053 26.8693C145.693 26.7064 145.394 26.4583 145.155 26.125C144.921 25.7917 144.803 25.3712 144.803 24.8636V16.1818ZM153.166 27.1818C152.378 27.1818 151.687 26.9943 151.092 26.6193C150.501 26.2443 150.039 25.7197 149.706 25.0455C149.376 24.3712 149.211 23.5833 149.211 22.6818C149.211 21.7727 149.376 20.9792 149.706 20.3011C150.039 19.6231 150.501 19.0966 151.092 18.7216C151.687 18.3466 152.378 18.1591 153.166 18.1591C153.954 18.1591 154.643 18.3466 155.234 18.7216C155.829 19.0966 156.291 19.6231 156.621 20.3011C156.954 20.9792 157.121 21.7727 157.121 22.6818C157.121 23.5833 156.954 24.3712 156.621 25.0455C156.291 25.7197 155.829 26.2443 155.234 26.6193C154.643 26.9943 153.954 27.1818 153.166 27.1818ZM153.166 25.9773C153.764 25.9773 154.257 25.8239 154.643 25.517C155.03 25.2102 155.316 24.8068 155.501 24.3068C155.687 23.8068 155.78 23.2652 155.78 22.6818C155.78 22.0985 155.687 21.5549 155.501 21.0511C155.316 20.5473 155.03 20.1402 154.643 19.8295C154.257 19.5189 153.764 19.3636 153.166 19.3636C152.568 19.3636 152.075 19.5189 151.689 19.8295C151.302 20.1402 151.016 20.5473 150.831 21.0511C150.645 21.5549 150.552 22.0985 150.552 22.6818C150.552 23.2652 150.645 23.8068 150.831 24.3068C151.016 24.8068 151.302 25.2102 151.689 25.517C152.075 25.8239 152.568 25.9773 153.166 25.9773ZM171.183 19C171.058 18.6174 170.893 18.2746 170.688 17.9716C170.488 17.6648 170.247 17.4034 169.967 17.1875C169.69 16.9716 169.376 16.8068 169.024 16.6932C168.671 16.5795 168.285 16.5227 167.865 16.5227C167.175 16.5227 166.548 16.7008 165.984 17.0568C165.42 17.4129 164.971 17.9375 164.637 18.6307C164.304 19.3239 164.137 20.1742 164.137 21.1818C164.137 22.1894 164.306 23.0398 164.643 23.733C164.98 24.4261 165.437 24.9508 166.012 25.3068C166.588 25.6629 167.236 25.8409 167.955 25.8409C168.622 25.8409 169.209 25.6989 169.717 25.4148C170.228 25.1269 170.626 24.7216 170.91 24.1989C171.198 23.6723 171.342 23.053 171.342 22.3409L171.774 22.4318H168.274V21.1818H172.705V22.4318C172.705 23.3902 172.501 24.2235 172.092 24.9318C171.687 25.6402 171.126 26.1894 170.41 26.5795C169.698 26.9659 168.88 27.1591 167.955 27.1591C166.925 27.1591 166.02 26.9167 165.24 26.4318C164.463 25.947 163.857 25.2576 163.421 24.3636C162.99 23.4697 162.774 22.4091 162.774 21.1818C162.774 20.2614 162.897 19.4337 163.143 18.6989C163.393 17.9602 163.745 17.3314 164.2 16.8125C164.654 16.2936 165.192 15.8958 165.813 15.6193C166.435 15.3428 167.118 15.2045 167.865 15.2045C168.478 15.2045 169.05 15.2973 169.58 15.483C170.115 15.6648 170.59 15.9242 171.007 16.2614C171.427 16.5947 171.777 16.9943 172.058 17.4602C172.338 17.9223 172.531 18.4356 172.637 19H171.183ZM174.808 27V15.3636H178.877C179.687 15.3636 180.356 15.5038 180.882 15.7841C181.409 16.0606 181.801 16.4337 182.058 16.9034C182.316 17.3693 182.445 17.8864 182.445 18.4545C182.445 18.9545 182.356 19.3674 182.178 19.6932C182.003 20.0189 181.772 20.2765 181.484 20.4659C181.2 20.6553 180.892 20.7955 180.558 20.8864V21C180.914 21.0227 181.272 21.1477 181.632 21.375C181.992 21.6023 182.293 21.928 182.536 22.3523C182.778 22.7765 182.899 23.2955 182.899 23.9091C182.899 24.4924 182.767 25.017 182.502 25.483C182.236 25.9489 181.818 26.3182 181.246 26.5909C180.674 26.8636 179.93 27 179.013 27H174.808ZM176.217 25.75H179.013C179.933 25.75 180.587 25.572 180.973 25.2159C181.363 24.8561 181.558 24.4205 181.558 23.9091C181.558 23.5152 181.458 23.1515 181.257 22.8182C181.056 22.4811 180.77 22.2121 180.399 22.0114C180.028 21.8068 179.589 21.7045 179.081 21.7045H176.217V25.75ZM176.217 20.4773H178.831C179.255 20.4773 179.638 20.3939 179.979 20.2273C180.323 20.0606 180.596 19.8258 180.797 19.5227C181.002 19.2197 181.104 18.8636 181.104 18.4545C181.104 17.9432 180.926 17.5095 180.57 17.1534C180.214 16.7936 179.649 16.6136 178.877 16.6136H176.217V20.4773ZM184.904 27V15.3636H188.836C189.749 15.3636 190.495 15.5284 191.075 15.858C191.658 16.1837 192.09 16.625 192.37 17.1818C192.65 17.7386 192.79 18.3598 192.79 19.0455C192.79 19.7311 192.65 20.3542 192.37 20.9148C192.093 21.4754 191.665 21.9223 191.086 22.2557C190.506 22.5852 189.764 22.75 188.859 22.75H186.04V21.5H188.813C189.438 21.5 189.94 21.392 190.319 21.1761C190.698 20.9602 190.972 20.6686 191.143 20.3011C191.317 19.9299 191.404 19.5114 191.404 19.0455C191.404 18.5795 191.317 18.1629 191.143 17.7955C190.972 17.428 190.696 17.1402 190.313 16.9318C189.931 16.7197 189.423 16.6136 188.79 16.6136H186.313V27H184.904Z" fill="white"/>
<defs>
<filter id="filter0_d" x="0" y="0" width="207" height="42" filterUnits="userSpaceOnUse" color-interpolation-filters="sRGB">
<feFlood flood-opacity="0" result="BackgroundImageFix"/>
<feColorMatrix in="SourceAlpha" type="matrix" values="0 0 0 0 0 0 0 0 0 0 0 0 0 0 0 0 0 0 127 0"/>
<feOffset dy="1"/>
<feGaussianBlur stdDeviation="0.5"/>
<feColorMatrix type="matrix" values="0 0 0 0 0.14902 0 0 0 0 0.207843 0 0 0 0 0.25098 0 0 0 0.3 0"/>
<feBlend mode="multiply" in2="BackgroundImageFix" result="effect1_dropShadow"/>
<feBlend mode="normal" in="SourceGraphic" in2="effect1_dropShadow" result="shape"/>
</filter>
</defs>
</svg>
