<svg width="252" height="82" viewBox="0 0 252 82" fill="none" xmlns="http://www.w3.org/2000/svg">
<g filter="url(#filter0_d)">
<rect x="1" width="250" height="80" rx="20" fill="white"/>
</g>
<path d="M14.4091 27V15.3636H18.3409C19.2538 15.3636 20 15.5284 20.5795 15.858C21.1629 16.1837 21.5947 16.625 21.875 17.1818C22.1553 17.7386 22.2955 18.3598 22.2955 19.0455C22.2955 19.7311 22.1553 20.3542 21.875 20.9148C21.5985 21.4754 21.1705 21.9223 20.5909 22.2557C20.0114 22.5852 19.2689 22.75 18.3636 22.75H15.5455V21.5H18.3182C18.9432 21.5 19.4451 21.392 19.8239 21.1761C20.2027 20.9602 20.4773 20.6686 20.6477 20.3011C20.822 19.9299 20.9091 19.5114 20.9091 19.0455C20.9091 18.5795 20.822 18.1629 20.6477 17.7955C20.4773 17.428 20.2008 17.1402 19.8182 16.9318C19.4356 16.7197 18.928 16.6136 18.2955 16.6136H15.8182V27H14.4091ZM25.4139 15.3636V27H24.073V15.3636H25.4139ZM31.2185 27.1818C30.3776 27.1818 29.6522 26.9962 29.0423 26.625C28.4363 26.25 27.9685 25.7273 27.6389 25.0568C27.3132 24.3826 27.1503 23.5985 27.1503 22.7045C27.1503 21.8106 27.3132 21.0227 27.6389 20.3409C27.9685 19.6553 28.4268 19.1212 29.0139 18.7386C29.6048 18.3523 30.2942 18.1591 31.0821 18.1591C31.5367 18.1591 31.9855 18.2348 32.4287 18.3864C32.8719 18.5379 33.2753 18.7841 33.6389 19.125C34.0026 19.4621 34.2923 19.9091 34.5082 20.4659C34.7242 21.0227 34.8321 21.7083 34.8321 22.5227V23.0909H28.1048V21.9318H33.4685C33.4685 21.4394 33.37 21 33.173 20.6136C32.9798 20.2273 32.7033 19.9223 32.3435 19.6989C31.9874 19.4754 31.567 19.3636 31.0821 19.3636C30.548 19.3636 30.0859 19.4962 29.6957 19.7614C29.3094 20.0227 29.012 20.3636 28.8037 20.7841C28.5954 21.2045 28.4912 21.6553 28.4912 22.1364V22.9091C28.4912 23.5682 28.6048 24.1269 28.8321 24.5852C29.0632 25.0398 29.3832 25.3864 29.7923 25.625C30.2014 25.8598 30.6768 25.9773 31.2185 25.9773C31.5707 25.9773 31.8889 25.928 32.173 25.8295C32.4609 25.7273 32.709 25.5758 32.9173 25.375C33.1257 25.1705 33.2867 24.9167 33.4003 24.6136L34.6957 24.9773C34.5594 25.4167 34.3302 25.803 34.0082 26.1364C33.6863 26.4659 33.2886 26.7235 32.8151 26.9091C32.3416 27.0909 31.8094 27.1818 31.2185 27.1818ZM39.1296 27.2045C38.5765 27.2045 38.0746 27.1004 37.6239 26.892C37.1731 26.6799 36.8152 26.375 36.55 25.9773C36.2849 25.5758 36.1523 25.0909 36.1523 24.5227C36.1523 24.0227 36.2508 23.6174 36.4477 23.3068C36.6447 22.9924 36.908 22.7462 37.2375 22.5682C37.5671 22.3902 37.9307 22.2576 38.3284 22.1705C38.7299 22.0795 39.1333 22.0076 39.5387 21.9545C40.069 21.8864 40.4989 21.8352 40.8284 21.8011C41.1618 21.7633 41.4042 21.7008 41.5557 21.6136C41.711 21.5265 41.7887 21.375 41.7887 21.1591V21.1136C41.7887 20.553 41.6352 20.1174 41.3284 19.8068C41.0254 19.4962 40.5652 19.3409 39.9477 19.3409C39.3076 19.3409 38.8057 19.4811 38.4421 19.7614C38.0784 20.0417 37.8227 20.3409 37.675 20.6591L36.4023 20.2045C36.6296 19.6742 36.9326 19.2614 37.3114 18.9659C37.694 18.6667 38.1106 18.4583 38.5614 18.3409C39.0159 18.2197 39.4629 18.1591 39.9023 18.1591C40.1826 18.1591 40.5046 18.1932 40.8682 18.2614C41.2356 18.3258 41.5898 18.4602 41.9307 18.6648C42.2754 18.8693 42.5614 19.178 42.7887 19.5909C43.0159 20.0038 43.1296 20.5568 43.1296 21.25V27H41.7887V25.8182H41.7205C41.6296 26.0076 41.478 26.2102 41.2659 26.4261C41.0538 26.642 40.7716 26.8258 40.4193 26.9773C40.0671 27.1288 39.6371 27.2045 39.1296 27.2045ZM39.3341 26C39.8644 26 40.3114 25.8958 40.675 25.6875C41.0424 25.4792 41.319 25.2102 41.5046 24.8807C41.694 24.5511 41.7887 24.2045 41.7887 23.8409V22.6136C41.7318 22.6818 41.6068 22.7443 41.4137 22.8011C41.2243 22.8542 41.0046 22.9015 40.7546 22.9432C40.5083 22.9811 40.2678 23.0152 40.033 23.0455C39.8019 23.072 39.6144 23.0947 39.4705 23.1136C39.122 23.1591 38.7962 23.233 38.4932 23.3352C38.194 23.4337 37.9515 23.5833 37.7659 23.7841C37.5841 23.9811 37.4932 24.25 37.4932 24.5909C37.4932 25.0568 37.6655 25.4091 38.0102 25.6477C38.3587 25.8826 38.8 26 39.3341 26ZM51.4483 20.2273L50.2438 20.5682C50.168 20.3674 50.0563 20.1723 49.9085 19.983C49.7646 19.7898 49.5676 19.6307 49.3176 19.5057C49.0676 19.3807 48.7476 19.3182 48.3574 19.3182C47.8233 19.3182 47.3782 19.4413 47.0222 19.6875C46.6699 19.9299 46.4938 20.2386 46.4938 20.6136C46.4938 20.947 46.615 21.2102 46.8574 21.4034C47.0998 21.5966 47.4786 21.7576 47.9938 21.8864L49.2892 22.2045C50.0695 22.3939 50.651 22.6837 51.0335 23.0739C51.4161 23.4602 51.6074 23.9583 51.6074 24.5682C51.6074 25.0682 51.4635 25.5152 51.1756 25.9091C50.8915 26.303 50.4938 26.6136 49.9824 26.8409C49.471 27.0682 48.8763 27.1818 48.1983 27.1818C47.3082 27.1818 46.5714 26.9886 45.9881 26.6023C45.4048 26.2159 45.0354 25.6515 44.8801 24.9091L46.1529 24.5909C46.2741 25.0606 46.5032 25.4129 46.8404 25.6477C47.1813 25.8826 47.6263 26 48.1756 26C48.8006 26 49.2968 25.8674 49.6642 25.6023C50.0354 25.3333 50.221 25.0114 50.221 24.6364C50.221 24.3333 50.115 24.0795 49.9029 23.875C49.6907 23.6667 49.365 23.5114 48.9256 23.4091L47.471 23.0682C46.6718 22.8788 46.0847 22.5852 45.7097 22.1875C45.3385 21.786 45.1529 21.2841 45.1529 20.6818C45.1529 20.1894 45.2911 19.7538 45.5676 19.375C45.8479 18.9962 46.2286 18.6989 46.7097 18.483C47.1945 18.267 47.7438 18.1591 48.3574 18.1591C49.221 18.1591 49.8991 18.3485 50.3915 18.7273C50.8877 19.1061 51.24 19.6061 51.4483 20.2273ZM56.9745 27.1818C56.1335 27.1818 55.4082 26.9962 54.7983 26.625C54.1923 26.25 53.7245 25.7273 53.3949 25.0568C53.0692 24.3826 52.9063 23.5985 52.9063 22.7045C52.9063 21.8106 53.0692 21.0227 53.3949 20.3409C53.7245 19.6553 54.1828 19.1212 54.7699 18.7386C55.3608 18.3523 56.0502 18.1591 56.8381 18.1591C57.2926 18.1591 57.7415 18.2348 58.1847 18.3864C58.6279 18.5379 59.0313 18.7841 59.3949 19.125C59.7585 19.4621 60.0483 19.9091 60.2642 20.4659C60.4801 21.0227 60.5881 21.7083 60.5881 22.5227V23.0909H53.8608V21.9318H59.2245C59.2245 21.4394 59.126 21 58.929 20.6136C58.7358 20.2273 58.4593 19.9223 58.0995 19.6989C57.7434 19.4754 57.3229 19.3636 56.8381 19.3636C56.304 19.3636 55.8419 19.4962 55.4517 19.7614C55.0654 20.0227 54.768 20.3636 54.5597 20.7841C54.3514 21.2045 54.2472 21.6553 54.2472 22.1364V22.9091C54.2472 23.5682 54.3608 24.1269 54.5881 24.5852C54.8192 25.0398 55.1392 25.3864 55.5483 25.625C55.9574 25.8598 56.4328 25.9773 56.9745 25.9773C57.3267 25.9773 57.6449 25.928 57.929 25.8295C58.2169 25.7273 58.465 25.5758 58.6733 25.375C58.8817 25.1705 59.0426 24.9167 59.1563 24.6136L60.4517 24.9773C60.3154 25.4167 60.0862 25.803 59.7642 26.1364C59.4423 26.4659 59.0445 26.7235 58.571 26.9091C58.0976 27.0909 57.5654 27.1818 56.9745 27.1818ZM70.3023 18.2727V19.4091H65.7796V18.2727H70.3023ZM67.0978 16.1818H68.4387V24.5C68.4387 24.8788 68.4936 25.1629 68.6034 25.3523C68.7171 25.5379 68.861 25.6629 69.0353 25.7273C69.2133 25.7879 69.4008 25.8182 69.5978 25.8182C69.7455 25.8182 69.8667 25.8106 69.9614 25.7955C70.0561 25.7765 70.1319 25.7614 70.1887 25.75L70.4614 26.9545C70.3705 26.9886 70.2436 27.0227 70.0807 27.0568C69.9178 27.0947 69.7114 27.1136 69.4614 27.1136C69.0826 27.1136 68.7114 27.0322 68.3478 26.8693C67.9879 26.7064 67.6887 26.4583 67.45 26.125C67.2152 25.7917 67.0978 25.3712 67.0978 24.8636V16.1818ZM72.8725 30.25C72.6452 30.25 72.4426 30.2311 72.2645 30.1932C72.0865 30.1591 71.9634 30.125 71.8952 30.0909L72.2361 28.9091C72.7248 29.0341 73.1319 29.0303 73.4577 28.8977C73.7835 28.7689 74.0657 28.3788 74.3043 27.7273L74.5543 27.0455L71.327 18.2727H72.7816L75.1907 25.2273H75.2816L77.6907 18.2727L79.1566 18.2955L75.4407 28.2727C75.274 28.7159 75.0676 29.0833 74.8213 29.375C74.5751 29.6705 74.2891 29.8902 73.9634 30.0341C73.6414 30.178 73.2778 30.25 72.8725 30.25ZM80.6202 30.2727V18.2727H81.9157V19.6591H82.0748C82.1732 19.5076 82.3096 19.3144 82.4838 19.0795C82.6619 18.8409 82.9157 18.6288 83.2452 18.4432C83.5785 18.2538 84.0293 18.1591 84.5975 18.1591C85.3323 18.1591 85.9801 18.3428 86.5407 18.7102C87.1013 19.0777 87.5388 19.5985 87.8532 20.2727C88.1676 20.947 88.3248 21.7424 88.3248 22.6591C88.3248 23.5833 88.1676 24.3845 87.8532 25.0625C87.5388 25.7367 87.1032 26.2595 86.5463 26.6307C85.9895 26.9981 85.3475 27.1818 84.6202 27.1818C84.0596 27.1818 83.6107 27.089 83.2736 26.9034C82.9365 26.714 82.677 26.5 82.4952 26.2614C82.3134 26.0189 82.1732 25.8182 82.0748 25.6591H81.9611V30.2727H80.6202ZM81.9384 22.6364C81.9384 23.2955 82.035 23.8769 82.2282 24.3807C82.4213 24.8807 82.7035 25.2727 83.0748 25.5568C83.446 25.8371 83.9005 25.9773 84.4384 25.9773C84.999 25.9773 85.4668 25.8295 85.8418 25.5341C86.2206 25.2348 86.5047 24.8333 86.6941 24.3295C86.8873 23.822 86.9838 23.2576 86.9838 22.6364C86.9838 22.0227 86.8891 21.4697 86.6998 20.9773C86.5141 20.4811 86.232 20.089 85.8532 19.8011C85.4782 19.5095 85.0066 19.3636 84.4384 19.3636C83.8929 19.3636 83.4346 19.5019 83.0634 19.7784C82.6922 20.0511 82.4119 20.4337 82.2225 20.9261C82.0331 21.4148 81.9384 21.9848 81.9384 22.6364ZM93.7188 27.1818C92.8779 27.1818 92.1525 26.9962 91.5427 26.625C90.9366 26.25 90.4688 25.7273 90.1393 25.0568C89.8135 24.3826 89.6506 23.5985 89.6506 22.7045C89.6506 21.8106 89.8135 21.0227 90.1393 20.3409C90.4688 19.6553 90.9271 19.1212 91.5143 18.7386C92.1052 18.3523 92.7946 18.1591 93.5824 18.1591C94.037 18.1591 94.4858 18.2348 94.929 18.3864C95.3722 18.5379 95.7756 18.7841 96.1393 19.125C96.5029 19.4621 96.7927 19.9091 97.0086 20.4659C97.2245 21.0227 97.3324 21.7083 97.3324 22.5227V23.0909H90.6052V21.9318H95.9688C95.9688 21.4394 95.8703 21 95.6733 20.6136C95.4802 20.2273 95.2036 19.9223 94.8438 19.6989C94.4877 19.4754 94.0673 19.3636 93.5824 19.3636C93.0483 19.3636 92.5862 19.4962 92.1961 19.7614C91.8097 20.0227 91.5124 20.3636 91.304 20.7841C91.0957 21.2045 90.9915 21.6553 90.9915 22.1364V22.9091C90.9915 23.5682 91.1052 24.1269 91.3324 24.5852C91.5635 25.0398 91.8836 25.3864 92.2927 25.625C92.7018 25.8598 93.1771 25.9773 93.7188 25.9773C94.0711 25.9773 94.3893 25.928 94.6733 25.8295C94.9612 25.7273 95.2093 25.5758 95.4177 25.375C95.626 25.1705 95.787 24.9167 95.9006 24.6136L97.1961 24.9773C97.0597 25.4167 96.8305 25.803 96.5086 26.1364C96.1866 26.4659 95.7889 26.7235 95.3154 26.9091C94.8419 27.0909 94.3097 27.1818 93.7188 27.1818ZM104.115 30.25C103.888 30.25 103.685 30.2311 103.507 30.1932C103.329 30.1591 103.206 30.125 103.138 30.0909L103.478 28.9091C103.967 29.0341 104.374 29.0303 104.7 28.8977C105.026 28.7689 105.308 28.3788 105.547 27.7273L105.797 27.0455L102.569 18.2727H104.024L106.433 25.2273H106.524L108.933 18.2727L110.399 18.2955L106.683 28.2727C106.516 28.7159 106.31 29.0833 106.064 29.375C105.817 29.6705 105.531 29.8902 105.206 30.0341C104.884 30.178 104.52 30.25 104.115 30.25ZM115.096 27.1818C114.308 27.1818 113.616 26.9943 113.022 26.6193C112.431 26.2443 111.969 25.7197 111.635 25.0455C111.306 24.3712 111.141 23.5833 111.141 22.6818C111.141 21.7727 111.306 20.9792 111.635 20.3011C111.969 19.6231 112.431 19.0966 113.022 18.7216C113.616 18.3466 114.308 18.1591 115.096 18.1591C115.883 18.1591 116.573 18.3466 117.164 18.7216C117.758 19.0966 118.221 19.6231 118.55 20.3011C118.883 20.9792 119.05 21.7727 119.05 22.6818C119.05 23.5833 118.883 24.3712 118.55 25.0455C118.221 25.7197 117.758 26.2443 117.164 26.6193C116.573 26.9943 115.883 27.1818 115.096 27.1818ZM115.096 25.9773C115.694 25.9773 116.186 25.8239 116.573 25.517C116.959 25.2102 117.245 24.8068 117.431 24.3068C117.616 23.8068 117.709 23.2652 117.709 22.6818C117.709 22.0985 117.616 21.5549 117.431 21.0511C117.245 20.5473 116.959 20.1402 116.573 19.8295C116.186 19.5189 115.694 19.3636 115.096 19.3636C114.497 19.3636 114.005 19.5189 113.618 19.8295C113.232 20.1402 112.946 20.5473 112.76 21.0511C112.575 21.5549 112.482 22.0985 112.482 22.6818C112.482 23.2652 112.575 23.8068 112.76 24.3068C112.946 24.8068 113.232 25.2102 113.618 25.517C114.005 25.8239 114.497 25.9773 115.096 25.9773ZM126.286 23.4318V18.2727H127.627V27H126.286V25.5227H126.196C125.991 25.9659 125.673 26.3428 125.241 26.6534C124.809 26.9602 124.264 27.1136 123.605 27.1136C123.059 27.1136 122.574 26.9943 122.15 26.7557C121.726 26.5133 121.392 26.1496 121.15 25.6648C120.908 25.1761 120.786 24.5606 120.786 23.8182V18.2727H122.127V23.7273C122.127 24.3636 122.305 24.8712 122.661 25.25C123.021 25.6288 123.48 25.8182 124.036 25.8182C124.37 25.8182 124.709 25.733 125.053 25.5625C125.402 25.392 125.694 25.1307 125.928 24.7784C126.167 24.4261 126.286 23.9773 126.286 23.4318ZM129.773 27V18.2727H131.068V19.5909H131.159C131.318 19.1591 131.606 18.8087 132.023 18.5398C132.439 18.2708 132.909 18.1364 133.432 18.1364C133.53 18.1364 133.653 18.1383 133.801 18.142C133.949 18.1458 134.061 18.1515 134.136 18.1591V19.5227C134.091 19.5114 133.987 19.4943 133.824 19.4716C133.665 19.4451 133.496 19.4318 133.318 19.4318C132.894 19.4318 132.515 19.5208 132.182 19.6989C131.852 19.8731 131.591 20.1155 131.398 20.4261C131.208 20.733 131.114 21.0833 131.114 21.4773V27H129.773ZM139.605 30.2727V18.2727H140.9V19.6591H141.059C141.158 19.5076 141.294 19.3144 141.469 19.0795C141.647 18.8409 141.9 18.6288 142.23 18.4432C142.563 18.2538 143.014 18.1591 143.582 18.1591C144.317 18.1591 144.965 18.3428 145.525 18.7102C146.086 19.0777 146.523 19.5985 146.838 20.2727C147.152 20.947 147.309 21.7424 147.309 22.6591C147.309 23.5833 147.152 24.3845 146.838 25.0625C146.523 25.7367 146.088 26.2595 145.531 26.6307C144.974 26.9981 144.332 27.1818 143.605 27.1818C143.044 27.1818 142.595 27.089 142.258 26.9034C141.921 26.714 141.662 26.5 141.48 26.2614C141.298 26.0189 141.158 25.8182 141.059 25.6591H140.946V30.2727H139.605ZM140.923 22.6364C140.923 23.2955 141.02 23.8769 141.213 24.3807C141.406 24.8807 141.688 25.2727 142.059 25.5568C142.431 25.8371 142.885 25.9773 143.423 25.9773C143.984 25.9773 144.452 25.8295 144.827 25.5341C145.205 25.2348 145.489 24.8333 145.679 24.3295C145.872 23.822 145.969 23.2576 145.969 22.6364C145.969 22.0227 145.874 21.4697 145.684 20.9773C145.499 20.4811 145.217 20.089 144.838 19.8011C144.463 19.5095 143.991 19.3636 143.423 19.3636C142.878 19.3636 142.419 19.5019 142.048 19.7784C141.677 20.0511 141.397 20.4337 141.207 20.9261C141.018 21.4148 140.923 21.9848 140.923 22.6364ZM151.613 27.2045C151.06 27.2045 150.558 27.1004 150.107 26.892C149.656 26.6799 149.298 26.375 149.033 25.9773C148.768 25.5758 148.635 25.0909 148.635 24.5227C148.635 24.0227 148.734 23.6174 148.931 23.3068C149.128 22.9924 149.391 22.7462 149.721 22.5682C150.05 22.3902 150.414 22.2576 150.811 22.1705C151.213 22.0795 151.616 22.0076 152.022 21.9545C152.552 21.8864 152.982 21.8352 153.311 21.8011C153.645 21.7633 153.887 21.7008 154.039 21.6136C154.194 21.5265 154.272 21.375 154.272 21.1591V21.1136C154.272 20.553 154.118 20.1174 153.811 19.8068C153.508 19.4962 153.048 19.3409 152.431 19.3409C151.791 19.3409 151.289 19.4811 150.925 19.7614C150.561 20.0417 150.306 20.3409 150.158 20.6591L148.885 20.2045C149.113 19.6742 149.416 19.2614 149.794 18.9659C150.177 18.6667 150.594 18.4583 151.044 18.3409C151.499 18.2197 151.946 18.1591 152.385 18.1591C152.666 18.1591 152.988 18.1932 153.351 18.2614C153.719 18.3258 154.073 18.4602 154.414 18.6648C154.758 18.8693 155.044 19.178 155.272 19.5909C155.499 20.0038 155.613 20.5568 155.613 21.25V27H154.272V25.8182H154.203C154.113 26.0076 153.961 26.2102 153.749 26.4261C153.537 26.642 153.255 26.8258 152.902 26.9773C152.55 27.1288 152.12 27.2045 151.613 27.2045ZM151.817 26C152.347 26 152.794 25.8958 153.158 25.6875C153.525 25.4792 153.802 25.2102 153.988 24.8807C154.177 24.5511 154.272 24.2045 154.272 23.8409V22.6136C154.215 22.6818 154.09 22.7443 153.897 22.8011C153.707 22.8542 153.488 22.9015 153.238 22.9432C152.991 22.9811 152.751 23.0152 152.516 23.0455C152.285 23.072 152.097 23.0947 151.953 23.1136C151.605 23.1591 151.279 23.233 150.976 23.3352C150.677 23.4337 150.435 23.5833 150.249 23.7841C150.067 23.9811 149.976 24.25 149.976 24.5909C149.976 25.0568 150.149 25.4091 150.493 25.6477C150.842 25.8826 151.283 26 151.817 26ZM163.931 20.2273L162.727 20.5682C162.651 20.3674 162.539 20.1723 162.392 19.983C162.248 19.7898 162.051 19.6307 161.801 19.5057C161.551 19.3807 161.231 19.3182 160.84 19.3182C160.306 19.3182 159.861 19.4413 159.505 19.6875C159.153 19.9299 158.977 20.2386 158.977 20.6136C158.977 20.947 159.098 21.2102 159.34 21.4034C159.583 21.5966 159.962 21.7576 160.477 21.8864L161.772 22.2045C162.553 22.3939 163.134 22.6837 163.517 23.0739C163.899 23.4602 164.09 23.9583 164.09 24.5682C164.09 25.0682 163.946 25.5152 163.659 25.9091C163.375 26.303 162.977 26.6136 162.465 26.8409C161.954 27.0682 161.359 27.1818 160.681 27.1818C159.791 27.1818 159.054 26.9886 158.471 26.6023C157.888 26.2159 157.518 25.6515 157.363 24.9091L158.636 24.5909C158.757 25.0606 158.986 25.4129 159.323 25.6477C159.664 25.8826 160.109 26 160.659 26C161.284 26 161.78 25.8674 162.147 25.6023C162.518 25.3333 162.704 25.0114 162.704 24.6364C162.704 24.3333 162.598 24.0795 162.386 23.875C162.174 23.6667 161.848 23.5114 161.409 23.4091L159.954 23.0682C159.155 22.8788 158.568 22.5852 158.193 22.1875C157.821 21.786 157.636 21.2841 157.636 20.6818C157.636 20.1894 157.774 19.7538 158.051 19.375C158.331 18.9962 158.712 18.6989 159.193 18.483C159.678 18.267 160.227 18.1591 160.84 18.1591C161.704 18.1591 162.382 18.3485 162.875 18.7273C163.371 19.1061 163.723 19.6061 163.931 20.2273ZM171.98 20.2273L170.776 20.5682C170.7 20.3674 170.588 20.1723 170.44 19.983C170.297 19.7898 170.1 19.6307 169.85 19.5057C169.6 19.3807 169.279 19.3182 168.889 19.3182C168.355 19.3182 167.91 19.4413 167.554 19.6875C167.202 19.9299 167.026 20.2386 167.026 20.6136C167.026 20.947 167.147 21.2102 167.389 21.4034C167.632 21.5966 168.011 21.7576 168.526 21.8864L169.821 22.2045C170.601 22.3939 171.183 22.6837 171.565 23.0739C171.948 23.4602 172.139 23.9583 172.139 24.5682C172.139 25.0682 171.995 25.5152 171.707 25.9091C171.423 26.303 171.026 26.6136 170.514 26.8409C170.003 27.0682 169.408 27.1818 168.73 27.1818C167.84 27.1818 167.103 26.9886 166.52 26.6023C165.937 26.2159 165.567 25.6515 165.412 24.9091L166.685 24.5909C166.806 25.0606 167.035 25.4129 167.372 25.6477C167.713 25.8826 168.158 26 168.707 26C169.332 26 169.829 25.8674 170.196 25.6023C170.567 25.3333 170.753 25.0114 170.753 24.6364C170.753 24.3333 170.647 24.0795 170.435 23.875C170.223 23.6667 169.897 23.5114 169.457 23.4091L168.003 23.0682C167.204 22.8788 166.617 22.5852 166.242 22.1875C165.87 21.786 165.685 21.2841 165.685 20.6818C165.685 20.1894 165.823 19.7538 166.1 19.375C166.38 18.9962 166.761 18.6989 167.242 18.483C167.726 18.267 168.276 18.1591 168.889 18.1591C169.753 18.1591 170.431 18.3485 170.923 18.7273C171.42 19.1061 171.772 19.6061 171.98 20.2273ZM177.393 27.1818C176.575 27.1818 175.87 26.9886 175.279 26.6023C174.688 26.2159 174.234 25.6837 173.915 25.0057C173.597 24.3277 173.438 23.553 173.438 22.6818C173.438 21.7955 173.601 21.0133 173.927 20.3352C174.256 19.6534 174.715 19.1212 175.302 18.7386C175.893 18.3523 176.582 18.1591 177.37 18.1591C177.984 18.1591 178.537 18.2727 179.029 18.5C179.521 18.7273 179.925 19.0455 180.239 19.4545C180.554 19.8636 180.749 20.3409 180.825 20.8864H179.484C179.381 20.4886 179.154 20.1364 178.802 19.8295C178.453 19.5189 177.984 19.3636 177.393 19.3636C176.87 19.3636 176.412 19.5 176.018 19.7727C175.628 20.0417 175.323 20.4223 175.103 20.9148C174.887 21.4034 174.779 21.9773 174.779 22.6364C174.779 23.3106 174.885 23.8977 175.097 24.3977C175.313 24.8977 175.616 25.286 176.006 25.5625C176.4 25.839 176.862 25.9773 177.393 25.9773C177.741 25.9773 178.057 25.9167 178.342 25.7955C178.626 25.6742 178.866 25.5 179.063 25.2727C179.26 25.0455 179.4 24.7727 179.484 24.4545H180.825C180.749 24.9697 180.561 25.4337 180.262 25.8466C179.967 26.2557 179.575 26.5814 179.086 26.8239C178.601 27.0625 178.037 27.1818 177.393 27.1818ZM186.02 27.1818C185.232 27.1818 184.541 26.9943 183.946 26.6193C183.355 26.2443 182.893 25.7197 182.559 25.0455C182.23 24.3712 182.065 23.5833 182.065 22.6818C182.065 21.7727 182.23 20.9792 182.559 20.3011C182.893 19.6231 183.355 19.0966 183.946 18.7216C184.541 18.3466 185.232 18.1591 186.02 18.1591C186.808 18.1591 187.497 18.3466 188.088 18.7216C188.683 19.0966 189.145 19.6231 189.474 20.3011C189.808 20.9792 189.974 21.7727 189.974 22.6818C189.974 23.5833 189.808 24.3712 189.474 25.0455C189.145 25.7197 188.683 26.2443 188.088 26.6193C187.497 26.9943 186.808 27.1818 186.02 27.1818ZM186.02 25.9773C186.618 25.9773 187.111 25.8239 187.497 25.517C187.883 25.2102 188.169 24.8068 188.355 24.3068C188.541 23.8068 188.633 23.2652 188.633 22.6818C188.633 22.0985 188.541 21.5549 188.355 21.0511C188.169 20.5473 187.883 20.1402 187.497 19.8295C187.111 19.5189 186.618 19.3636 186.02 19.3636C185.421 19.3636 184.929 19.5189 184.542 19.8295C184.156 20.1402 183.87 20.5473 183.684 21.0511C183.499 21.5549 183.406 22.0985 183.406 22.6818C183.406 23.2652 183.499 23.8068 183.684 24.3068C183.87 24.8068 184.156 25.2102 184.542 25.517C184.929 25.8239 185.421 25.9773 186.02 25.9773ZM195.006 27.1818C194.279 27.1818 193.637 26.9981 193.08 26.6307C192.523 26.2595 192.088 25.7367 191.773 25.0625C191.459 24.3845 191.302 23.5833 191.302 22.6591C191.302 21.7424 191.459 20.947 191.773 20.2727C192.088 19.5985 192.525 19.0777 193.086 18.7102C193.646 18.3428 194.294 18.1591 195.029 18.1591C195.597 18.1591 196.046 18.2538 196.375 18.4432C196.709 18.6288 196.963 18.8409 197.137 19.0795C197.315 19.3144 197.453 19.5076 197.552 19.6591H197.665V15.3636H199.006V27H197.711V25.6591H197.552C197.453 25.8182 197.313 26.0189 197.131 26.2614C196.949 26.5 196.69 26.714 196.353 26.9034C196.016 27.089 195.567 27.1818 195.006 27.1818ZM195.188 25.9773C195.726 25.9773 196.18 25.8371 196.552 25.5568C196.923 25.2727 197.205 24.8807 197.398 24.3807C197.591 23.8769 197.688 23.2955 197.688 22.6364C197.688 21.9848 197.593 21.4148 197.404 20.9261C197.214 20.4337 196.934 20.0511 196.563 19.7784C196.192 19.5019 195.733 19.3636 195.188 19.3636C194.62 19.3636 194.146 19.5095 193.767 19.8011C193.392 20.089 193.11 20.4811 192.921 20.9773C192.735 21.4697 192.642 22.0227 192.642 22.6364C192.642 23.2576 192.737 23.822 192.927 24.3295C193.12 24.8333 193.404 25.2348 193.779 25.5341C194.158 25.8295 194.627 25.9773 195.188 25.9773ZM204.997 27.1818C204.156 27.1818 203.43 26.9962 202.821 26.625C202.215 26.25 201.747 25.7273 201.417 25.0568C201.091 24.3826 200.929 23.5985 200.929 22.7045C200.929 21.8106 201.091 21.0227 201.417 20.3409C201.747 19.6553 202.205 19.1212 202.792 18.7386C203.383 18.3523 204.072 18.1591 204.86 18.1591C205.315 18.1591 205.764 18.2348 206.207 18.3864C206.65 18.5379 207.054 18.7841 207.417 19.125C207.781 19.4621 208.071 19.9091 208.286 20.4659C208.502 21.0227 208.61 21.7083 208.61 22.5227V23.0909H201.883V21.9318H207.247C207.247 21.4394 207.148 21 206.951 20.6136C206.758 20.2273 206.482 19.9223 206.122 19.6989C205.766 19.4754 205.345 19.3636 204.86 19.3636C204.326 19.3636 203.864 19.4962 203.474 19.7614C203.088 20.0227 202.79 20.3636 202.582 20.7841C202.374 21.2045 202.269 21.6553 202.269 22.1364V22.9091C202.269 23.5682 202.383 24.1269 202.61 24.5852C202.841 25.0398 203.161 25.3864 203.571 25.625C203.98 25.8598 204.455 25.9773 204.997 25.9773C205.349 25.9773 205.667 25.928 205.951 25.8295C206.239 25.7273 206.487 25.5758 206.696 25.375C206.904 25.1705 207.065 24.9167 207.179 24.6136L208.474 24.9773C208.338 25.4167 208.108 25.803 207.786 26.1364C207.465 26.4659 207.067 26.7235 206.593 26.9091C206.12 27.0909 205.588 27.1818 204.997 27.1818ZM214.529 27V18.2727H215.87V27H214.529ZM215.211 16.8182C214.95 16.8182 214.724 16.7292 214.535 16.5511C214.349 16.3731 214.256 16.1591 214.256 15.9091C214.256 15.6591 214.349 15.4451 214.535 15.267C214.724 15.089 214.95 15 215.211 15C215.472 15 215.696 15.089 215.881 15.267C216.071 15.4451 216.165 15.6591 216.165 15.9091C216.165 16.1591 216.071 16.3731 215.881 16.5511C215.696 16.7292 215.472 16.8182 215.211 16.8182ZM221.902 18.2727V19.4091H217.197V18.2727H221.902ZM218.606 27V17.0682C218.606 16.5682 218.724 16.1515 218.959 15.8182C219.193 15.4848 219.498 15.2348 219.873 15.0682C220.248 14.9015 220.644 14.8182 221.061 14.8182C221.39 14.8182 221.659 14.8447 221.868 14.8977C222.076 14.9508 222.231 15 222.334 15.0455L221.947 16.2045C221.879 16.1818 221.784 16.1534 221.663 16.1193C221.546 16.0852 221.39 16.0682 221.197 16.0682C220.754 16.0682 220.434 16.1799 220.237 16.4034C220.044 16.6269 219.947 16.9545 219.947 17.3864V27H218.606ZM15.0909 49.25C14.8636 49.25 14.661 49.2311 14.483 49.1932C14.3049 49.1591 14.1818 49.125 14.1136 49.0909L14.4545 47.9091C14.9432 48.0341 15.3504 48.0303 15.6761 47.8977C16.0019 47.7689 16.2841 47.3788 16.5227 46.7273L16.7727 46.0455L13.5455 37.2727H15L17.4091 44.2273H17.5L19.9091 37.2727L21.375 37.2955L17.6591 47.2727C17.4924 47.7159 17.286 48.0833 17.0398 48.375C16.7936 48.6705 16.5076 48.8902 16.1818 49.0341C15.8598 49.178 15.4962 49.25 15.0909 49.25ZM26.0716 46.1818C25.2837 46.1818 24.5924 45.9943 23.9977 45.6193C23.4068 45.2443 22.9447 44.7197 22.6114 44.0455C22.2818 43.3712 22.1171 42.5833 22.1171 41.6818C22.1171 40.7727 22.2818 39.9792 22.6114 39.3011C22.9447 38.6231 23.4068 38.0966 23.9977 37.7216C24.5924 37.3466 25.2837 37.1591 26.0716 37.1591C26.8595 37.1591 27.5489 37.3466 28.1398 37.7216C28.7345 38.0966 29.1966 38.6231 29.5261 39.3011C29.8595 39.9792 30.0261 40.7727 30.0261 41.6818C30.0261 42.5833 29.8595 43.3712 29.5261 44.0455C29.1966 44.7197 28.7345 45.2443 28.1398 45.6193C27.5489 45.9943 26.8595 46.1818 26.0716 46.1818ZM26.0716 44.9773C26.6701 44.9773 27.1625 44.8239 27.5489 44.517C27.9352 44.2102 28.2212 43.8068 28.4068 43.3068C28.5924 42.8068 28.6852 42.2652 28.6852 41.6818C28.6852 41.0985 28.5924 40.5549 28.4068 40.0511C28.2212 39.5473 27.9352 39.1402 27.5489 38.8295C27.1625 38.5189 26.6701 38.3636 26.0716 38.3636C25.4731 38.3636 24.9807 38.5189 24.5943 38.8295C24.208 39.1402 23.922 39.5473 23.7364 40.0511C23.5508 40.5549 23.458 41.0985 23.458 41.6818C23.458 42.2652 23.5508 42.8068 23.7364 43.3068C23.922 43.8068 24.208 44.2102 24.5943 44.517C24.9807 44.8239 25.4731 44.9773 26.0716 44.9773ZM37.2625 42.4318V37.2727H38.6034V46H37.2625V44.5227H37.1716C36.9671 44.9659 36.6489 45.3428 36.2171 45.6534C35.7852 45.9602 35.2398 46.1136 34.5807 46.1136C34.0352 46.1136 33.5504 45.9943 33.1261 45.7557C32.7019 45.5133 32.3686 45.1496 32.1261 44.6648C31.8837 44.1761 31.7625 43.5606 31.7625 42.8182V37.2727H33.1034V42.7273C33.1034 43.3636 33.2814 43.8712 33.6375 44.25C33.9974 44.6288 34.4557 44.8182 35.0125 44.8182C35.3458 44.8182 35.6849 44.733 36.0296 44.5625C36.378 44.392 36.6697 44.1307 36.9046 43.7784C37.1432 43.4261 37.2625 42.9773 37.2625 42.4318ZM46.9156 46L44.2566 37.2727H45.6656L47.552 43.9545H47.6429L49.5066 37.2727H50.9384L52.7793 43.9318H52.8702L54.7566 37.2727H56.1656L53.5066 46H52.1884L50.2793 39.2955H50.1429L48.2338 46H46.9156ZM57.6279 46V37.2727H58.9688V46H57.6279ZM58.3097 35.8182C58.0483 35.8182 57.8229 35.7292 57.6335 35.5511C57.4479 35.3731 57.3551 35.1591 57.3551 34.9091C57.3551 34.6591 57.4479 34.4451 57.6335 34.267C57.8229 34.089 58.0483 34 58.3097 34C58.571 34 58.7945 34.089 58.9801 34.267C59.1695 34.4451 59.2642 34.6591 59.2642 34.9091C59.2642 35.1591 59.1695 35.3731 58.9801 35.5511C58.7945 35.7292 58.571 35.8182 58.3097 35.8182ZM67.2961 39.2273L66.0915 39.5682C66.0157 39.3674 65.904 39.1723 65.7563 38.983C65.6123 38.7898 65.4154 38.6307 65.1654 38.5057C64.9154 38.3807 64.5953 38.3182 64.2051 38.3182C63.6711 38.3182 63.226 38.4413 62.8699 38.6875C62.5176 38.9299 62.3415 39.2386 62.3415 39.6136C62.3415 39.947 62.4627 40.2102 62.7051 40.4034C62.9476 40.5966 63.3264 40.7576 63.8415 40.8864L65.137 41.2045C65.9173 41.3939 66.4987 41.6837 66.8813 42.0739C67.2639 42.4602 67.4551 42.9583 67.4551 43.5682C67.4551 44.0682 67.3112 44.5152 67.0233 44.9091C66.7392 45.303 66.3415 45.6136 65.8301 45.8409C65.3188 46.0682 64.7241 46.1818 64.0461 46.1818C63.1559 46.1818 62.4192 45.9886 61.8358 45.6023C61.2525 45.2159 60.8832 44.6515 60.7279 43.9091L62.0006 43.5909C62.1218 44.0606 62.351 44.4129 62.6881 44.6477C63.029 44.8826 63.4741 45 64.0233 45C64.6483 45 65.1445 44.8674 65.512 44.6023C65.8832 44.3333 66.0688 44.0114 66.0688 43.6364C66.0688 43.3333 65.9627 43.0795 65.7506 42.875C65.5385 42.6667 65.2127 42.5114 64.7733 42.4091L63.3188 42.0682C62.5195 41.8788 61.9324 41.5852 61.5574 41.1875C61.1862 40.786 61.0006 40.2841 61.0006 39.6818C61.0006 39.1894 61.1389 38.7538 61.4154 38.375C61.6957 37.9962 62.0764 37.6989 62.5574 37.483C63.0423 37.267 63.5915 37.1591 64.2051 37.1591C65.0688 37.1591 65.7468 37.3485 66.2392 37.7273C66.7354 38.1061 67.0877 38.6061 67.2961 39.2273ZM70.504 40.75V46H69.1631V34.3636H70.504V38.6364H70.6176C70.8222 38.1856 71.129 37.8277 71.5381 37.5625C71.951 37.2936 72.5002 37.1591 73.1858 37.1591C73.7805 37.1591 74.3014 37.2784 74.7483 37.517C75.1953 37.7519 75.5419 38.1136 75.7881 38.6023C76.0381 39.0871 76.1631 39.7045 76.1631 40.4545V46H74.8222V40.5455C74.8222 39.8523 74.6423 39.3163 74.2824 38.9375C73.9264 38.5549 73.432 38.3636 72.7995 38.3636C72.3601 38.3636 71.9661 38.4564 71.6176 38.642C71.273 38.8277 71.0002 39.0985 70.7995 39.4545C70.6025 39.8106 70.504 40.2424 70.504 40.75ZM86.2907 37.2727V38.4091H81.7679V37.2727H86.2907ZM83.0861 35.1818H84.427V43.5C84.427 43.8788 84.482 44.1629 84.5918 44.3523C84.7054 44.5379 84.8494 44.6629 85.0236 44.7273C85.2016 44.7879 85.3891 44.8182 85.5861 44.8182C85.7338 44.8182 85.8551 44.8106 85.9498 44.7955C86.0445 44.7765 86.1202 44.7614 86.177 44.75L86.4498 45.9545C86.3588 45.9886 86.232 46.0227 86.0691 46.0568C85.9062 46.0947 85.6998 46.1136 85.4498 46.1136C85.071 46.1136 84.6998 46.0322 84.3361 45.8693C83.9763 45.7064 83.677 45.4583 83.4384 45.125C83.2035 44.7917 83.0861 44.3712 83.0861 43.8636V35.1818ZM91.4489 46.1818C90.661 46.1818 89.9697 45.9943 89.375 45.6193C88.7841 45.2443 88.322 44.7197 87.9887 44.0455C87.6591 43.3712 87.4944 42.5833 87.4944 41.6818C87.4944 40.7727 87.6591 39.9792 87.9887 39.3011C88.322 38.6231 88.7841 38.0966 89.375 37.7216C89.9697 37.3466 90.661 37.1591 91.4489 37.1591C92.2368 37.1591 92.9262 37.3466 93.5171 37.7216C94.1118 38.0966 94.5739 38.6231 94.9035 39.3011C95.2368 39.9792 95.4035 40.7727 95.4035 41.6818C95.4035 42.5833 95.2368 43.3712 94.9035 44.0455C94.5739 44.7197 94.1118 45.2443 93.5171 45.6193C92.9262 45.9943 92.2368 46.1818 91.4489 46.1818ZM91.4489 44.9773C92.0474 44.9773 92.5398 44.8239 92.9262 44.517C93.3125 44.2102 93.5985 43.8068 93.7841 43.3068C93.9697 42.8068 94.0625 42.2652 94.0625 41.6818C94.0625 41.0985 93.9697 40.5549 93.7841 40.0511C93.5985 39.5473 93.3125 39.1402 92.9262 38.8295C92.5398 38.5189 92.0474 38.3636 91.4489 38.3636C90.8504 38.3636 90.358 38.5189 89.9716 38.8295C89.5853 39.1402 89.2993 39.5473 89.1137 40.0511C88.9281 40.5549 88.8353 41.0985 88.8353 41.6818C88.8353 42.2652 88.9281 42.8068 89.1137 43.3068C89.2993 43.8068 89.5853 44.2102 89.9716 44.517C90.358 44.8239 90.8504 44.9773 91.4489 44.9773ZM104.875 46.1818C104.057 46.1818 103.352 45.9886 102.761 45.6023C102.17 45.2159 101.716 44.6837 101.397 44.0057C101.079 43.3277 100.92 42.553 100.92 41.6818C100.92 40.7955 101.083 40.0133 101.409 39.3352C101.738 38.6534 102.197 38.1212 102.784 37.7386C103.375 37.3523 104.064 37.1591 104.852 37.1591C105.466 37.1591 106.019 37.2727 106.511 37.5C107.004 37.7273 107.407 38.0455 107.721 38.4545C108.036 38.8636 108.231 39.3409 108.307 39.8864H106.966C106.863 39.4886 106.636 39.1364 106.284 38.8295C105.935 38.5189 105.466 38.3636 104.875 38.3636C104.352 38.3636 103.894 38.5 103.5 38.7727C103.11 39.0417 102.805 39.4223 102.585 39.9148C102.369 40.4034 102.261 40.9773 102.261 41.6364C102.261 42.3106 102.367 42.8977 102.579 43.3977C102.795 43.8977 103.098 44.286 103.488 44.5625C103.882 44.839 104.344 44.9773 104.875 44.9773C105.223 44.9773 105.54 44.9167 105.824 44.7955C106.108 44.6742 106.348 44.5 106.545 44.2727C106.742 44.0455 106.882 43.7727 106.966 43.4545H108.307C108.231 43.9697 108.043 44.4337 107.744 44.8466C107.449 45.2557 107.057 45.5814 106.568 45.8239C106.083 46.0625 105.519 46.1818 104.875 46.1818ZM113.502 46.1818C112.714 46.1818 112.023 45.9943 111.428 45.6193C110.837 45.2443 110.375 44.7197 110.042 44.0455C109.712 43.3712 109.547 42.5833 109.547 41.6818C109.547 40.7727 109.712 39.9792 110.042 39.3011C110.375 38.6231 110.837 38.0966 111.428 37.7216C112.023 37.3466 112.714 37.1591 113.502 37.1591C114.29 37.1591 114.979 37.3466 115.57 37.7216C116.165 38.0966 116.627 38.6231 116.956 39.3011C117.29 39.9792 117.456 40.7727 117.456 41.6818C117.456 42.5833 117.29 43.3712 116.956 44.0455C116.627 44.7197 116.165 45.2443 115.57 45.6193C114.979 45.9943 114.29 46.1818 113.502 46.1818ZM113.502 44.9773C114.1 44.9773 114.593 44.8239 114.979 44.517C115.365 44.2102 115.651 43.8068 115.837 43.3068C116.023 42.8068 116.115 42.2652 116.115 41.6818C116.115 41.0985 116.023 40.5549 115.837 40.0511C115.651 39.5473 115.365 39.1402 114.979 38.8295C114.593 38.5189 114.1 38.3636 113.502 38.3636C112.903 38.3636 112.411 38.5189 112.024 38.8295C111.638 39.1402 111.352 39.5473 111.167 40.0511C110.981 40.5549 110.888 41.0985 110.888 41.6818C110.888 42.2652 110.981 42.8068 111.167 43.3068C111.352 43.8068 111.638 44.2102 112.024 44.517C112.411 44.8239 112.903 44.9773 113.502 44.9773ZM120.534 40.75V46H119.193V37.2727H120.488V38.6364H120.602C120.806 38.1932 121.117 37.8371 121.534 37.5682C121.95 37.2955 122.488 37.1591 123.147 37.1591C123.738 37.1591 124.255 37.2803 124.698 37.5227C125.142 37.7614 125.486 38.125 125.732 38.6136C125.979 39.0985 126.102 39.7121 126.102 40.4545V46H124.761V40.5455C124.761 39.8598 124.583 39.3258 124.227 38.9432C123.871 38.5568 123.382 38.3636 122.761 38.3636C122.333 38.3636 121.95 38.4564 121.613 38.642C121.28 38.8277 121.017 39.0985 120.823 39.4545C120.63 39.8106 120.534 40.2424 120.534 40.75ZM135.065 37.2727L131.838 46H130.475L127.247 37.2727H128.702L131.111 44.2273H131.202L133.611 37.2727H135.065ZM139.871 46.1818C139.03 46.1818 138.305 45.9962 137.695 45.625C137.089 45.25 136.621 44.7273 136.292 44.0568C135.966 43.3826 135.803 42.5985 135.803 41.7045C135.803 40.8106 135.966 40.0227 136.292 39.3409C136.621 38.6553 137.08 38.1212 137.667 37.7386C138.258 37.3523 138.947 37.1591 139.735 37.1591C140.19 37.1591 140.638 37.2348 141.082 37.3864C141.525 37.5379 141.928 37.7841 142.292 38.125C142.655 38.4621 142.945 38.9091 143.161 39.4659C143.377 40.0227 143.485 40.7083 143.485 41.5227V42.0909H136.758V40.9318H142.121C142.121 40.4394 142.023 40 141.826 39.6136C141.633 39.2273 141.356 38.9223 140.996 38.6989C140.64 38.4754 140.22 38.3636 139.735 38.3636C139.201 38.3636 138.739 38.4962 138.349 38.7614C137.962 39.0227 137.665 39.3636 137.457 39.7841C137.248 40.2045 137.144 40.6553 137.144 41.1364V41.9091C137.144 42.5682 137.258 43.1269 137.485 43.5852C137.716 44.0398 138.036 44.3864 138.445 44.625C138.854 44.8598 139.33 44.9773 139.871 44.9773C140.224 44.9773 140.542 44.928 140.826 44.8295C141.114 44.7273 141.362 44.5758 141.57 44.375C141.779 44.1705 141.94 43.9167 142.053 43.6136L143.349 43.9773C143.212 44.4167 142.983 44.803 142.661 45.1364C142.339 45.4659 141.941 45.7235 141.468 45.9091C140.994 46.0909 140.462 46.1818 139.871 46.1818ZM145.214 46V37.2727H146.51V38.5909H146.601C146.76 38.1591 147.048 37.8087 147.464 37.5398C147.881 37.2708 148.351 37.1364 148.873 37.1364C148.972 37.1364 149.095 37.1383 149.243 37.142C149.39 37.1458 149.502 37.1515 149.578 37.1591V38.5227C149.532 38.5114 149.428 38.4943 149.265 38.4716C149.106 38.4451 148.938 38.4318 148.76 38.4318C148.335 38.4318 147.957 38.5208 147.623 38.6989C147.294 38.8731 147.032 39.1155 146.839 39.4261C146.65 39.733 146.555 40.0833 146.555 40.4773V46H145.214ZM155.199 37.2727V38.4091H150.676V37.2727H155.199ZM151.995 35.1818H153.336V43.5C153.336 43.8788 153.391 44.1629 153.5 44.3523C153.614 44.5379 153.758 44.6629 153.932 44.7273C154.11 44.7879 154.298 44.8182 154.495 44.8182C154.642 44.8182 154.764 44.8106 154.858 44.7955C154.953 44.7765 155.029 44.7614 155.086 44.75L155.358 45.9545C155.267 45.9886 155.141 46.0227 154.978 46.0568C154.815 46.0947 154.608 46.1136 154.358 46.1136C153.98 46.1136 153.608 46.0322 153.245 45.8693C152.885 45.7064 152.586 45.4583 152.347 45.125C152.112 44.7917 151.995 44.3712 151.995 43.8636V35.1818ZM165.163 34.3636V46H163.754V35.8409H163.686L160.845 37.7273V36.2955L163.754 34.3636H165.163ZM171.995 46.1591C171.139 46.1591 170.41 45.9261 169.807 45.4602C169.205 44.9905 168.745 44.3106 168.427 43.4205C168.109 42.5265 167.95 41.447 167.95 40.1818C167.95 38.9242 168.109 37.8504 168.427 36.9602C168.749 36.0663 169.211 35.3845 169.813 34.9148C170.419 34.4413 171.146 34.2045 171.995 34.2045C172.843 34.2045 173.569 34.4413 174.171 34.9148C174.777 35.3845 175.239 36.0663 175.557 36.9602C175.879 37.8504 176.04 38.9242 176.04 40.1818C176.04 41.447 175.881 42.5265 175.563 43.4205C175.245 44.3106 174.785 44.9905 174.182 45.4602C173.58 45.9261 172.851 46.1591 171.995 46.1591ZM171.995 44.9091C172.843 44.9091 173.503 44.5 173.972 43.6818C174.442 42.8636 174.677 41.697 174.677 40.1818C174.677 39.1742 174.569 38.3163 174.353 37.608C174.141 36.8996 173.834 36.3598 173.432 35.9886C173.035 35.6174 172.556 35.4318 171.995 35.4318C171.154 35.4318 170.497 35.8466 170.023 36.6761C169.55 37.5019 169.313 38.6705 169.313 40.1818C169.313 41.1894 169.419 42.0455 169.631 42.75C169.843 43.4545 170.148 43.9905 170.546 44.358C170.948 44.7254 171.431 44.9091 171.995 44.9091ZM181.684 46.1591C180.828 46.1591 180.099 45.9261 179.497 45.4602C178.895 44.9905 178.434 44.3106 178.116 43.4205C177.798 42.5265 177.639 41.447 177.639 40.1818C177.639 38.9242 177.798 37.8504 178.116 36.9602C178.438 36.0663 178.9 35.3845 179.503 34.9148C180.109 34.4413 180.836 34.2045 181.684 34.2045C182.533 34.2045 183.258 34.4413 183.861 34.9148C184.467 35.3845 184.929 36.0663 185.247 36.9602C185.569 37.8504 185.73 38.9242 185.73 40.1818C185.73 41.447 185.571 42.5265 185.253 43.4205C184.934 44.3106 184.474 44.9905 183.872 45.4602C183.27 45.9261 182.541 46.1591 181.684 46.1591ZM181.684 44.9091C182.533 44.9091 183.192 44.5 183.662 43.6818C184.131 42.8636 184.366 41.697 184.366 40.1818C184.366 39.1742 184.258 38.3163 184.042 37.608C183.83 36.8996 183.523 36.3598 183.122 35.9886C182.724 35.6174 182.245 35.4318 181.684 35.4318C180.844 35.4318 180.186 35.8466 179.713 36.6761C179.239 37.5019 179.003 38.6705 179.003 40.1818C179.003 41.1894 179.109 42.0455 179.321 42.75C179.533 43.4545 179.838 43.9905 180.236 44.358C180.637 44.7254 181.12 44.9091 181.684 44.9091ZM199.609 34.3636H201.018V42.0682C201.018 42.8636 200.831 43.5739 200.456 44.1989C200.084 44.8201 199.56 45.3106 198.882 45.6705C198.204 46.0265 197.408 46.2045 196.495 46.2045C195.582 46.2045 194.787 46.0265 194.109 45.6705C193.431 45.3106 192.904 44.8201 192.529 44.1989C192.158 43.5739 191.973 42.8636 191.973 42.0682V34.3636H193.382V41.9545C193.382 42.5227 193.507 43.0284 193.757 43.4716C194.007 43.911 194.363 44.2576 194.825 44.5114C195.291 44.7614 195.848 44.8864 196.495 44.8864C197.143 44.8864 197.7 44.7614 198.166 44.5114C198.632 44.2576 198.988 43.911 199.234 43.4716C199.484 43.0284 199.609 42.5227 199.609 41.9545V34.3636ZM209.885 37.2727C209.817 36.697 209.54 36.25 209.056 35.9318C208.571 35.6136 207.976 35.4545 207.271 35.4545C206.756 35.4545 206.306 35.5379 205.919 35.7045C205.537 35.8712 205.237 36.1004 205.021 36.392C204.809 36.6837 204.703 37.0152 204.703 37.3864C204.703 37.697 204.777 37.964 204.925 38.1875C205.076 38.4072 205.27 38.5909 205.504 38.7386C205.739 38.8826 205.985 39.0019 206.243 39.0966C206.501 39.1875 206.737 39.2614 206.953 39.3182L208.135 39.6364C208.438 39.7159 208.775 39.8258 209.146 39.9659C209.521 40.1061 209.879 40.2973 210.22 40.5398C210.565 40.7784 210.849 41.0852 211.073 41.4602C211.296 41.8352 211.408 42.2955 211.408 42.8409C211.408 43.4697 211.243 44.0379 210.913 44.5455C210.588 45.053 210.11 45.4564 209.482 45.7557C208.857 46.0549 208.097 46.2045 207.203 46.2045C206.37 46.2045 205.648 46.0701 205.038 45.8011C204.432 45.5322 203.955 45.1572 203.607 44.6761C203.262 44.1951 203.067 43.6364 203.021 43H204.476C204.514 43.4394 204.662 43.803 204.919 44.0909C205.181 44.375 205.51 44.5871 205.908 44.7273C206.309 44.8636 206.741 44.9318 207.203 44.9318C207.741 44.9318 208.224 44.8447 208.652 44.6705C209.08 44.4924 209.419 44.2462 209.669 43.9318C209.919 43.6136 210.044 43.2424 210.044 42.8182C210.044 42.4318 209.936 42.1174 209.72 41.875C209.504 41.6326 209.22 41.4356 208.868 41.2841C208.516 41.1326 208.135 41 207.726 40.8864L206.294 40.4773C205.385 40.2159 204.665 39.8428 204.135 39.358C203.605 38.8731 203.34 38.2386 203.34 37.4545C203.34 36.803 203.516 36.2348 203.868 35.75C204.224 35.2614 204.701 34.8826 205.3 34.6136C205.902 34.3409 206.574 34.2045 207.317 34.2045C208.067 34.2045 208.734 34.339 209.317 34.608C209.9 34.8731 210.362 35.2367 210.703 35.6989C211.048 36.161 211.23 36.6856 211.249 37.2727H209.885ZM217.005 46H213.414V34.3636H217.164C218.293 34.3636 219.259 34.5966 220.062 35.0625C220.865 35.5246 221.48 36.1894 221.908 37.0568C222.336 37.9205 222.55 38.9545 222.55 40.1591C222.55 41.3712 222.335 42.4148 221.903 43.2898C221.471 44.161 220.842 44.8314 220.016 45.3011C219.191 45.767 218.187 46 217.005 46ZM214.823 44.75H216.914C217.876 44.75 218.674 44.5644 219.306 44.1932C219.939 43.822 220.41 43.2936 220.721 42.608C221.031 41.9223 221.187 41.1061 221.187 40.1591C221.187 39.2197 221.033 38.411 220.727 37.733C220.42 37.0511 219.961 36.5284 219.352 36.1648C218.742 35.7973 217.982 35.6136 217.073 35.6136H214.823V44.75ZM14.2273 65V56.2727H15.5682V65H14.2273ZM14.9091 54.8182C14.6477 54.8182 14.4223 54.7292 14.233 54.5511C14.0473 54.3731 13.9545 54.1591 13.9545 53.9091C13.9545 53.6591 14.0473 53.4451 14.233 53.267C14.4223 53.089 14.6477 53 14.9091 53C15.1705 53 15.3939 53.089 15.5795 53.267C15.7689 53.4451 15.8636 53.6591 15.8636 53.9091C15.8636 54.1591 15.7689 54.3731 15.5795 54.5511C15.3939 54.7292 15.1705 54.8182 14.9091 54.8182ZM19.0546 59.75V65H17.7136V56.2727H19.0091V57.6364H19.1227C19.3273 57.1932 19.6379 56.8371 20.0546 56.5682C20.4712 56.2955 21.0091 56.1591 21.6682 56.1591C22.2591 56.1591 22.7761 56.2803 23.2193 56.5227C23.6625 56.7614 24.0072 57.125 24.2534 57.6136C24.4996 58.0985 24.6227 58.7121 24.6227 59.4545V65H23.2818V59.5455C23.2818 58.8598 23.1038 58.3258 22.7477 57.9432C22.3917 57.5568 21.903 57.3636 21.2818 57.3636C20.8538 57.3636 20.4712 57.4564 20.1341 57.642C19.8008 57.8277 19.5375 58.0985 19.3443 58.4545C19.1511 58.8106 19.0546 59.2424 19.0546 59.75ZM30.558 56.2727V57.4091H26.0352V56.2727H30.558ZM27.3534 54.1818H28.6943V62.5C28.6943 62.8788 28.7493 63.1629 28.8591 63.3523C28.9727 63.5379 29.1167 63.6629 29.2909 63.7273C29.4689 63.7879 29.6564 63.8182 29.8534 63.8182C30.0011 63.8182 30.1224 63.8106 30.2171 63.7955C30.3118 63.7765 30.3875 63.7614 30.4443 63.75L30.7171 64.9545C30.6261 64.9886 30.4993 65.0227 30.3364 65.0568C30.1735 65.0947 29.9671 65.1136 29.7171 65.1136C29.3383 65.1136 28.9671 65.0322 28.6034 64.8693C28.2436 64.7064 27.9443 64.4583 27.7057 64.125C27.4708 63.7917 27.3534 63.3712 27.3534 62.8636V54.1818ZM35.7162 65.1818C34.9283 65.1818 34.237 64.9943 33.6423 64.6193C33.0514 64.2443 32.5893 63.7197 32.256 63.0455C31.9264 62.3712 31.7617 61.5833 31.7617 60.6818C31.7617 59.7727 31.9264 58.9792 32.256 58.3011C32.5893 57.6231 33.0514 57.0966 33.6423 56.7216C34.237 56.3466 34.9283 56.1591 35.7162 56.1591C36.5041 56.1591 37.1935 56.3466 37.7844 56.7216C38.3791 57.0966 38.8412 57.6231 39.1708 58.3011C39.5041 58.9792 39.6708 59.7727 39.6708 60.6818C39.6708 61.5833 39.5041 62.3712 39.1708 63.0455C38.8412 63.7197 38.3791 64.2443 37.7844 64.6193C37.1935 64.9943 36.5041 65.1818 35.7162 65.1818ZM35.7162 63.9773C36.3147 63.9773 36.8071 63.8239 37.1935 63.517C37.5798 63.2102 37.8658 62.8068 38.0514 62.3068C38.237 61.8068 38.3298 61.2652 38.3298 60.6818C38.3298 60.0985 38.237 59.5549 38.0514 59.0511C37.8658 58.5473 37.5798 58.1402 37.1935 57.8295C36.8071 57.5189 36.3147 57.3636 35.7162 57.3636C35.1177 57.3636 34.6253 57.5189 34.2389 57.8295C33.8526 58.1402 33.5666 58.5473 33.381 59.0511C33.1954 59.5549 33.1026 60.0985 33.1026 60.6818C33.1026 61.2652 33.1954 61.8068 33.381 62.3068C33.5666 62.8068 33.8526 63.2102 34.2389 63.517C34.6253 63.8239 35.1177 63.9773 35.7162 63.9773ZM45.9375 65L51.1421 54.7045V54.6136H45.1421V53.3636H52.5966V54.6818L47.4148 65H45.9375ZM55.0801 65L60.2847 54.7045V54.6136H54.2847V53.3636H61.7392V54.6818L56.5574 65H55.0801ZM62.5466 65.0909C62.2663 65.0909 62.0258 64.9905 61.825 64.7898C61.6243 64.589 61.5239 64.3485 61.5239 64.0682C61.5239 63.7879 61.6243 63.5473 61.825 63.3466C62.0258 63.1458 62.2663 63.0455 62.5466 63.0455C62.8269 63.0455 63.0675 63.1458 63.2682 63.3466C63.469 63.5473 63.5694 63.7879 63.5694 64.0682C63.5694 64.2538 63.522 64.4242 63.4273 64.5795C63.3364 64.7348 63.2133 64.8598 63.058 64.9545C62.9065 65.0455 62.736 65.0909 62.5466 65.0909ZM65.3696 62.6136V61.4545L70.4833 53.3636H71.3242V55.1591H70.756L66.8924 61.2727V61.3636H73.7787V62.6136H65.3696ZM70.8469 65V62.2614V61.7216V53.3636H72.1878V65H70.8469ZM75.5975 65V63.9773L79.4384 59.7727C79.8892 59.2803 80.2604 58.8523 80.552 58.4886C80.8437 58.1212 81.0596 57.7765 81.1998 57.4545C81.3437 57.1288 81.4157 56.7879 81.4157 56.4318C81.4157 56.0227 81.3172 55.6686 81.1202 55.3693C80.927 55.0701 80.6619 54.839 80.3248 54.6761C79.9876 54.5133 79.6088 54.4318 79.1884 54.4318C78.7414 54.4318 78.3513 54.5246 78.0179 54.7102C77.6884 54.892 77.4327 55.1477 77.2509 55.4773C77.0729 55.8068 76.9838 56.1932 76.9838 56.6364H75.6429C75.6429 55.9545 75.8001 55.3561 76.1145 54.8409C76.4289 54.3258 76.857 53.9242 77.3986 53.6364C77.9441 53.3485 78.5558 53.2045 79.2338 53.2045C79.9157 53.2045 80.5198 53.3485 81.0464 53.6364C81.5729 53.9242 81.9857 54.3125 82.285 54.8011C82.5842 55.2898 82.7338 55.8333 82.7338 56.4318C82.7338 56.8598 82.6562 57.2784 82.5009 57.6875C82.3494 58.0928 82.0842 58.5455 81.7054 59.0455C81.3304 59.5417 80.8096 60.1477 80.1429 60.8636L77.5293 63.6591V63.75H82.9384V65H75.5975ZM88.7699 65.1591C87.9139 65.1591 87.1847 64.9261 86.5824 64.4602C85.9802 63.9905 85.5199 63.3106 85.2018 62.4205C84.8836 61.5265 84.7245 60.447 84.7245 59.1818C84.7245 57.9242 84.8836 56.8504 85.2018 55.9602C85.5237 55.0663 85.9858 54.3845 86.5881 53.9148C87.1942 53.4413 87.9215 53.2045 88.7699 53.2045C89.6184 53.2045 90.3438 53.4413 90.9461 53.9148C91.5521 54.3845 92.0143 55.0663 92.3324 55.9602C92.6544 56.8504 92.8154 57.9242 92.8154 59.1818C92.8154 60.447 92.6563 61.5265 92.3381 62.4205C92.0199 63.3106 91.5597 63.9905 90.9574 64.4602C90.3552 64.9261 89.626 65.1591 88.7699 65.1591ZM88.7699 63.9091C89.6184 63.9091 90.2775 63.5 90.7472 62.6818C91.2169 61.8636 91.4518 60.697 91.4518 59.1818C91.4518 58.1742 91.3438 57.3163 91.1279 56.608C90.9158 55.8996 90.609 55.3598 90.2074 54.9886C89.8097 54.6174 89.3305 54.4318 88.7699 54.4318C87.929 54.4318 87.2718 54.8466 86.7983 55.6761C86.3249 56.5019 86.0881 57.6705 86.0881 59.1818C86.0881 60.1894 86.1942 61.0455 86.4063 61.75C86.6184 62.4545 86.9233 62.9905 87.3211 63.358C87.7226 63.7254 88.2055 63.9091 88.7699 63.9091ZM98.5958 65.1591C97.8458 65.1591 97.1772 65.0303 96.5901 64.7727C96.0068 64.5152 95.5428 64.1572 95.1981 63.6989C94.8572 63.2367 94.6715 62.7008 94.6412 62.0909H96.0731C96.1034 62.4659 96.2322 62.7898 96.4594 63.0625C96.6867 63.3314 96.984 63.5398 97.3515 63.6875C97.7189 63.8352 98.1261 63.9091 98.5731 63.9091C99.0731 63.9091 99.5162 63.822 99.9026 63.6477C100.289 63.4735 100.592 63.2311 100.812 62.9205C101.031 62.6098 101.141 62.25 101.141 61.8409C101.141 61.4129 101.035 61.036 100.823 60.7102C100.611 60.3807 100.3 60.1231 99.8912 59.9375C99.4822 59.7519 98.9822 59.6591 98.3912 59.6591H97.4594V58.4091H98.3912C98.8534 58.4091 99.2587 58.3258 99.6072 58.1591C99.9594 57.9924 100.234 57.7576 100.431 57.4545C100.632 57.1515 100.732 56.7955 100.732 56.3864C100.732 55.9924 100.645 55.6496 100.471 55.358C100.297 55.0663 100.05 54.839 99.7322 54.6761C99.4178 54.5133 99.0465 54.4318 98.6185 54.4318C98.217 54.4318 97.8382 54.5057 97.4822 54.6534C97.1299 54.7973 96.842 55.0076 96.6185 55.2841C96.395 55.5568 96.2738 55.8864 96.2549 56.2727H94.8912C94.914 55.6629 95.0977 55.1288 95.4424 54.6705C95.7871 54.2083 96.2378 53.8485 96.7947 53.5909C97.3553 53.3333 97.9708 53.2045 98.6412 53.2045C99.3609 53.2045 99.9784 53.3504 100.494 53.642C101.009 53.9299 101.405 54.3106 101.681 54.7841C101.958 55.2576 102.096 55.7689 102.096 56.3182C102.096 56.9735 101.923 57.5322 101.579 57.9943C101.238 58.4564 100.774 58.7765 100.187 58.9545V59.0455C100.922 59.1667 101.495 59.4792 101.908 59.983C102.321 60.483 102.528 61.1023 102.528 61.8409C102.528 62.4735 102.355 63.0417 102.011 63.5455C101.67 64.0455 101.204 64.4394 100.613 64.7273C100.022 65.0152 99.3496 65.1591 98.5958 65.1591ZM108.177 65.1591C107.511 65.1591 106.91 65.0265 106.376 64.7614C105.842 64.4962 105.414 64.1326 105.092 63.6705C104.77 63.2083 104.594 62.6818 104.564 62.0909H105.927C105.98 62.6174 106.219 63.053 106.643 63.3977C107.071 63.7386 107.583 63.9091 108.177 63.9091C108.655 63.9091 109.079 63.7973 109.45 63.5739C109.825 63.3504 110.119 63.0436 110.331 62.6534C110.547 62.2595 110.655 61.8144 110.655 61.3182C110.655 60.8106 110.543 60.358 110.319 59.9602C110.1 59.5587 109.797 59.2424 109.41 59.0114C109.024 58.7803 108.583 58.6629 108.086 58.6591C107.73 58.6553 107.365 58.7102 106.99 58.8239C106.615 58.9337 106.306 59.0758 106.064 59.25L104.746 59.0909L105.45 53.3636H111.496V54.6136H106.632L106.223 58.0455H106.291C106.53 57.8561 106.829 57.6989 107.189 57.5739C107.549 57.4489 107.924 57.3864 108.314 57.3864C109.026 57.3864 109.66 57.5568 110.217 57.8977C110.778 58.2348 111.217 58.697 111.535 59.2841C111.857 59.8712 112.018 60.5417 112.018 61.2955C112.018 62.0379 111.852 62.7008 111.518 63.2841C111.189 63.8636 110.734 64.322 110.155 64.6591C109.575 64.9924 108.916 65.1591 108.177 65.1591ZM126.313 57C126.188 56.6174 126.024 56.2746 125.819 55.9716C125.618 55.6648 125.378 55.4034 125.098 55.1875C124.821 54.9716 124.507 54.8068 124.154 54.6932C123.802 54.5795 123.416 54.5227 122.995 54.5227C122.306 54.5227 121.679 54.7008 121.115 55.0568C120.55 55.4129 120.101 55.9375 119.768 56.6307C119.435 57.3239 119.268 58.1742 119.268 59.1818C119.268 60.1894 119.437 61.0398 119.774 61.733C120.111 62.4261 120.567 62.9508 121.143 63.3068C121.719 63.6629 122.366 63.8409 123.086 63.8409C123.753 63.8409 124.34 63.6989 124.848 63.4148C125.359 63.1269 125.757 62.7216 126.041 62.1989C126.329 61.6723 126.473 61.053 126.473 60.3409L126.904 60.4318H123.404V59.1818H127.836V60.4318C127.836 61.3902 127.632 62.2235 127.223 62.9318C126.817 63.6402 126.257 64.1894 125.541 64.5795C124.829 64.9659 124.01 65.1591 123.086 65.1591C122.056 65.1591 121.151 64.9167 120.37 64.4318C119.594 63.947 118.988 63.2576 118.552 62.3636C118.12 61.4697 117.904 60.4091 117.904 59.1818C117.904 58.2614 118.027 57.4337 118.274 56.6989C118.524 55.9602 118.876 55.3314 119.33 54.8125C119.785 54.2936 120.323 53.8958 120.944 53.6193C121.565 53.3428 122.249 53.2045 122.995 53.2045C123.609 53.2045 124.181 53.2973 124.711 53.483C125.245 53.6648 125.721 53.9242 126.137 54.2614C126.558 54.5947 126.908 54.9943 127.188 55.4602C127.469 55.9223 127.662 56.4356 127.768 57H126.313ZM129.939 65V53.3636H134.007C134.818 53.3636 135.486 53.5038 136.013 53.7841C136.539 54.0606 136.931 54.4337 137.189 54.9034C137.447 55.3693 137.575 55.8864 137.575 56.4545C137.575 56.9545 137.486 57.3674 137.308 57.6932C137.134 58.0189 136.903 58.2765 136.615 58.4659C136.331 58.6553 136.022 58.7955 135.689 58.8864V59C136.045 59.0227 136.403 59.1477 136.763 59.375C137.123 59.6023 137.424 59.928 137.666 60.3523C137.909 60.7765 138.03 61.2955 138.03 61.9091C138.03 62.4924 137.897 63.017 137.632 63.483C137.367 63.9489 136.948 64.3182 136.376 64.5909C135.805 64.8636 135.06 65 134.144 65H129.939ZM131.348 63.75H134.144C135.064 63.75 135.717 63.572 136.104 63.2159C136.494 62.8561 136.689 62.4205 136.689 61.9091C136.689 61.5152 136.589 61.1515 136.388 60.8182C136.187 60.4811 135.901 60.2121 135.53 60.0114C135.159 59.8068 134.719 59.7045 134.212 59.7045H131.348V63.75ZM131.348 58.4773H133.962C134.386 58.4773 134.769 58.3939 135.109 58.2273C135.454 58.0606 135.727 57.8258 135.928 57.5227C136.132 57.2197 136.234 56.8636 136.234 56.4545C136.234 55.9432 136.056 55.5095 135.7 55.1534C135.344 54.7936 134.78 54.6136 134.007 54.6136H131.348V58.4773ZM140.035 65V53.3636H143.967C144.879 53.3636 145.626 53.5284 146.205 53.858C146.789 54.1837 147.22 54.625 147.501 55.1818C147.781 55.7386 147.921 56.3598 147.921 57.0455C147.921 57.7311 147.781 58.3542 147.501 58.9148C147.224 59.4754 146.796 59.9223 146.217 60.2557C145.637 60.5852 144.895 60.75 143.989 60.75H141.171V59.5H143.944C144.569 59.5 145.071 59.392 145.45 59.1761C145.828 58.9602 146.103 58.6686 146.273 58.3011C146.448 57.9299 146.535 57.5114 146.535 57.0455C146.535 56.5795 146.448 56.1629 146.273 55.7955C146.103 55.428 145.826 55.1402 145.444 54.9318C145.061 54.7197 144.554 54.6136 143.921 54.6136H141.444V65H140.035ZM150.129 65.0909C149.849 65.0909 149.608 64.9905 149.407 64.7898C149.207 64.589 149.106 64.3485 149.106 64.0682C149.106 63.7879 149.207 63.5473 149.407 63.3466C149.608 63.1458 149.849 63.0455 150.129 63.0455C150.409 63.0455 150.65 63.1458 150.851 63.3466C151.051 63.5473 151.152 63.7879 151.152 64.0682C151.152 64.2538 151.104 64.4242 151.01 64.5795C150.919 64.7348 150.796 64.8598 150.64 64.9545C150.489 65.0455 150.318 65.0909 150.129 65.0909Z" fill="black"/>
<defs>
<filter id="filter0_d" x="0" y="0" width="252" height="82" filterUnits="userSpaceOnUse" color-interpolation-filters="sRGB">
<feFlood flood-opacity="0" result="BackgroundImageFix"/>
<feColorMatrix in="SourceAlpha" type="matrix" values="0 0 0 0 0 0 0 0 0 0 0 0 0 0 0 0 0 0 127 0"/>
<feOffset dy="1"/>
<feGaussianBlur stdDeviation="0.5"/>
<feColorMatrix type="matrix" values="0 0 0 0 0.14902 0 0 0 0 0.207843 0 0 0 0 0.25098 0 0 0 0.3 0"/>
<feBlend mode="multiply" in2="BackgroundImageFix" result="effect1_dropShadow"/>
<feBlend mode="normal" in="SourceGraphic" in2="effect1_dropShadow" result="shape"/>
</filter>
</defs>
</svg>
