<svg width="252" height="43" viewBox="0 0 252 43" fill="none" xmlns="http://www.w3.org/2000/svg">
<g filter="url(#filter0_d)">
<rect x="1" width="250" height="41" rx="20" fill="white"/>
</g>
<path d="M18 27H14.4091V15.3636H18.1591C19.2879 15.3636 20.2538 15.5966 21.0568 16.0625C21.8598 16.5246 22.4754 17.1894 22.9034 18.0568C23.3314 18.9205 23.5455 19.9545 23.5455 21.1591C23.5455 22.3712 23.3295 23.4148 22.8977 24.2898C22.4659 25.161 21.8371 25.8314 21.0114 26.3011C20.1856 26.767 19.1818 27 18 27ZM15.8182 25.75H17.9091C18.8712 25.75 19.6686 25.5644 20.3011 25.1932C20.9337 24.822 21.4053 24.2936 21.7159 23.608C22.0265 22.9223 22.1818 22.1061 22.1818 21.1591C22.1818 20.2197 22.0284 19.411 21.7216 18.733C21.4148 18.0511 20.9564 17.5284 20.3466 17.1648C19.7367 16.7973 18.9773 16.6136 18.0682 16.6136H15.8182V25.75ZM28.9622 27.1818C28.1743 27.1818 27.4831 26.9943 26.8884 26.6193C26.2974 26.2443 25.8353 25.7197 25.502 25.0455C25.1724 24.3712 25.0077 23.5833 25.0077 22.6818C25.0077 21.7727 25.1724 20.9792 25.502 20.3011C25.8353 19.6231 26.2974 19.0966 26.8884 18.7216C27.4831 18.3466 28.1743 18.1591 28.9622 18.1591C29.7501 18.1591 30.4395 18.3466 31.0304 18.7216C31.6251 19.0966 32.0872 19.6231 32.4168 20.3011C32.7501 20.9792 32.9168 21.7727 32.9168 22.6818C32.9168 23.5833 32.7501 24.3712 32.4168 25.0455C32.0872 25.7197 31.6251 26.2443 31.0304 26.6193C30.4395 26.9943 29.7501 27.1818 28.9622 27.1818ZM28.9622 25.9773C29.5607 25.9773 30.0531 25.8239 30.4395 25.517C30.8259 25.2102 31.1118 24.8068 31.2974 24.3068C31.4831 23.8068 31.5759 23.2652 31.5759 22.6818C31.5759 22.0985 31.4831 21.5549 31.2974 21.0511C31.1118 20.5473 30.8259 20.1402 30.4395 19.8295C30.0531 19.5189 29.5607 19.3636 28.9622 19.3636C28.3637 19.3636 27.8713 19.5189 27.4849 19.8295C27.0986 20.1402 26.8126 20.5473 26.627 21.0511C26.4414 21.5549 26.3486 22.0985 26.3486 22.6818C26.3486 23.2652 26.4414 23.8068 26.627 24.3068C26.8126 24.8068 27.0986 25.2102 27.4849 25.517C27.8713 25.8239 28.3637 25.9773 28.9622 25.9773ZM35.994 21.75V27H34.6531V18.2727H35.9486V19.6364H36.0622C36.2668 19.1932 36.5774 18.8371 36.994 18.5682C37.4107 18.2955 37.9486 18.1591 38.6077 18.1591C39.1986 18.1591 39.7156 18.2803 40.1588 18.5227C40.602 18.7614 40.9467 19.125 41.1929 19.6136C41.4391 20.0985 41.5622 20.7121 41.5622 21.4545V27H40.2213V21.5455C40.2213 20.8598 40.0433 20.3258 39.6872 19.9432C39.3312 19.5568 38.8425 19.3636 38.2213 19.3636C37.7933 19.3636 37.4107 19.4564 37.0736 19.642C36.7403 19.8277 36.477 20.0985 36.2838 20.4545C36.0906 20.8106 35.994 21.2424 35.994 21.75ZM47.3611 27.1818C46.5202 27.1818 45.7948 26.9962 45.185 26.625C44.5789 26.25 44.1111 25.7273 43.7815 25.0568C43.4558 24.3826 43.2929 23.5985 43.2929 22.7045C43.2929 21.8106 43.4558 21.0227 43.7815 20.3409C44.1111 19.6553 44.5694 19.1212 45.1565 18.7386C45.7475 18.3523 46.4369 18.1591 47.2247 18.1591C47.6793 18.1591 48.1281 18.2348 48.5713 18.3864C49.0145 18.5379 49.4179 18.7841 49.7815 19.125C50.1452 19.4621 50.435 19.9091 50.6509 20.4659C50.8668 21.0227 50.9747 21.7083 50.9747 22.5227V23.0909H44.2475V21.9318H49.6111C49.6111 21.4394 49.5126 21 49.3156 20.6136C49.1225 20.2273 48.8459 19.9223 48.4861 19.6989C48.13 19.4754 47.7096 19.3636 47.2247 19.3636C46.6906 19.3636 46.2285 19.4962 45.8384 19.7614C45.452 20.0227 45.1547 20.3636 44.9463 20.7841C44.738 21.2045 44.6338 21.6553 44.6338 22.1364V22.9091C44.6338 23.5682 44.7475 24.1269 44.9747 24.5852C45.2058 25.0398 45.5259 25.3864 45.935 25.625C46.344 25.8598 46.8194 25.9773 47.3611 25.9773C47.7134 25.9773 48.0315 25.928 48.3156 25.8295C48.6035 25.7273 48.8516 25.5758 49.06 25.375C49.2683 25.1705 49.4293 24.9167 49.5429 24.6136L50.8384 24.9773C50.702 25.4167 50.4728 25.803 50.1509 26.1364C49.8289 26.4659 49.4312 26.7235 48.9577 26.9091C48.4842 27.0909 47.952 27.1818 47.3611 27.1818ZM53.6813 27.0909C53.401 27.0909 53.1604 26.9905 52.9597 26.7898C52.7589 26.589 52.6585 26.3485 52.6585 26.0682C52.6585 25.7879 52.7589 25.5473 52.9597 25.3466C53.1604 25.1458 53.401 25.0455 53.6813 25.0455C53.9616 25.0455 54.2021 25.1458 54.4029 25.3466C54.6036 25.5473 54.704 25.7879 54.704 26.0682C54.704 26.2538 54.6566 26.4242 54.5619 26.5795C54.471 26.7348 54.3479 26.8598 54.1926 26.9545C54.0411 27.0455 53.8707 27.0909 53.6813 27.0909ZM60.5347 16.6136V15.3636H69.262V16.6136H65.6029V27H64.1938V16.6136H60.5347ZM70.0381 27V18.2727H71.3336V19.5909H71.4245C71.5836 19.1591 71.8714 18.8087 72.2881 18.5398C72.7048 18.2708 73.1745 18.1364 73.6972 18.1364C73.7957 18.1364 73.9188 18.1383 74.0665 18.142C74.2142 18.1458 74.326 18.1515 74.4017 18.1591V19.5227C74.3563 19.5114 74.2521 19.4943 74.0892 19.4716C73.9301 19.4451 73.7616 19.4318 73.5836 19.4318C73.1593 19.4318 72.7805 19.5208 72.4472 19.6989C72.1176 19.8731 71.8563 20.1155 71.6631 20.4261C71.4737 20.733 71.379 21.0833 71.379 21.4773V27H70.0381ZM78.2489 27.2045C77.6959 27.2045 77.194 27.1004 76.7432 26.892C76.2925 26.6799 75.9345 26.375 75.6694 25.9773C75.4042 25.5758 75.2716 25.0909 75.2716 24.5227C75.2716 24.0227 75.3701 23.6174 75.5671 23.3068C75.7641 22.9924 76.0273 22.7462 76.3569 22.5682C76.6864 22.3902 77.05 22.2576 77.4478 22.1705C77.8493 22.0795 78.2527 22.0076 78.658 21.9545C79.1883 21.8864 79.6182 21.8352 79.9478 21.8011C80.2811 21.7633 80.5235 21.7008 80.675 21.6136C80.8303 21.5265 80.908 21.375 80.908 21.1591V21.1136C80.908 20.553 80.7546 20.1174 80.4478 19.8068C80.1447 19.4962 79.6845 19.3409 79.0671 19.3409C78.4269 19.3409 77.925 19.4811 77.5614 19.7614C77.1978 20.0417 76.9421 20.3409 76.7944 20.6591L75.5216 20.2045C75.7489 19.6742 76.0519 19.2614 76.4307 18.9659C76.8133 18.6667 77.23 18.4583 77.6807 18.3409C78.1353 18.2197 78.5822 18.1591 79.0216 18.1591C79.3019 18.1591 79.6239 18.1932 79.9875 18.2614C80.355 18.3258 80.7091 18.4602 81.05 18.6648C81.3947 18.8693 81.6807 19.178 81.908 19.5909C82.1353 20.0038 82.2489 20.5568 82.2489 21.25V27H80.908V25.8182H80.8398C80.7489 26.0076 80.5974 26.2102 80.3853 26.4261C80.1731 26.642 79.8909 26.8258 79.5387 26.9773C79.1864 27.1288 78.7565 27.2045 78.2489 27.2045ZM78.4534 26C78.9837 26 79.4307 25.8958 79.7944 25.6875C80.1618 25.4792 80.4383 25.2102 80.6239 24.8807C80.8133 24.5511 80.908 24.2045 80.908 23.8409V22.6136C80.8512 22.6818 80.7262 22.7443 80.533 22.8011C80.3436 22.8542 80.1239 22.9015 79.8739 22.9432C79.6277 22.9811 79.3872 23.0152 79.1523 23.0455C78.9212 23.072 78.7337 23.0947 78.5898 23.1136C78.2413 23.1591 77.9156 23.233 77.6125 23.3352C77.3133 23.4337 77.0709 23.5833 76.8853 23.7841C76.7034 23.9811 76.6125 24.25 76.6125 24.5909C76.6125 25.0568 76.7849 25.4091 77.1296 25.6477C77.4781 25.8826 77.9194 26 78.4534 26ZM85.7267 21.75V27H84.3858V18.2727H85.6813V19.6364H85.7949C85.9995 19.1932 86.3101 18.8371 86.7267 18.5682C87.1434 18.2955 87.6813 18.1591 88.3404 18.1591C88.9313 18.1591 89.4483 18.2803 89.8915 18.5227C90.3347 18.7614 90.6794 19.125 90.9256 19.6136C91.1718 20.0985 91.2949 20.7121 91.2949 21.4545V27H89.954V21.5455C89.954 20.8598 89.776 20.3258 89.4199 19.9432C89.0639 19.5568 88.5752 19.3636 87.954 19.3636C87.526 19.3636 87.1434 19.4564 86.8063 19.642C86.473 19.8277 86.2097 20.0985 86.0165 20.4545C85.8233 20.8106 85.7267 21.2424 85.7267 21.75ZM99.6165 20.2273L98.412 20.5682C98.3362 20.3674 98.2245 20.1723 98.0768 19.983C97.9328 19.7898 97.7358 19.6307 97.4858 19.5057C97.2358 19.3807 96.9158 19.3182 96.5256 19.3182C95.9915 19.3182 95.5465 19.4413 95.1904 19.6875C94.8381 19.9299 94.662 20.2386 94.662 20.6136C94.662 20.947 94.7832 21.2102 95.0256 21.4034C95.268 21.5966 95.6468 21.7576 96.162 21.8864L97.4574 22.2045C98.2377 22.3939 98.8192 22.6837 99.2018 23.0739C99.5843 23.4602 99.7756 23.9583 99.7756 24.5682C99.7756 25.0682 99.6317 25.5152 99.3438 25.9091C99.0597 26.303 98.662 26.6136 98.1506 26.8409C97.6393 27.0682 97.0446 27.1818 96.3665 27.1818C95.4764 27.1818 94.7396 26.9886 94.1563 26.6023C93.573 26.2159 93.2036 25.6515 93.0483 24.9091L94.3211 24.5909C94.4423 25.0606 94.6715 25.4129 95.0086 25.6477C95.3495 25.8826 95.7946 26 96.3438 26C96.9688 26 97.465 25.8674 97.8324 25.6023C98.2036 25.3333 98.3893 25.0114 98.3893 24.6364C98.3893 24.3333 98.2832 24.0795 98.0711 23.875C97.859 23.6667 97.5332 23.5114 97.0938 23.4091L95.6393 23.0682C94.84 22.8788 94.2529 22.5852 93.8779 22.1875C93.5067 21.786 93.3211 21.2841 93.3211 20.6818C93.3211 20.1894 93.4593 19.7538 93.7358 19.375C94.0161 18.9962 94.3968 18.6989 94.8779 18.483C95.3627 18.267 95.912 18.1591 96.5256 18.1591C97.3893 18.1591 98.0673 18.3485 98.5597 18.7273C99.0559 19.1061 99.4082 19.6061 99.6165 20.2273ZM104.052 27.2045C103.499 27.2045 102.997 27.1004 102.546 26.892C102.095 26.6799 101.737 26.375 101.472 25.9773C101.207 25.5758 101.074 25.0909 101.074 24.5227C101.074 24.0227 101.173 23.6174 101.37 23.3068C101.567 22.9924 101.83 22.7462 102.16 22.5682C102.489 22.3902 102.853 22.2576 103.251 22.1705C103.652 22.0795 104.056 22.0076 104.461 21.9545C104.991 21.8864 105.421 21.8352 105.751 21.8011C106.084 21.7633 106.326 21.7008 106.478 21.6136C106.633 21.5265 106.711 21.375 106.711 21.1591V21.1136C106.711 20.553 106.557 20.1174 106.251 19.8068C105.948 19.4962 105.487 19.3409 104.87 19.3409C104.23 19.3409 103.728 19.4811 103.364 19.7614C103.001 20.0417 102.745 20.3409 102.597 20.6591L101.324 20.2045C101.552 19.6742 101.855 19.2614 102.234 18.9659C102.616 18.6667 103.033 18.4583 103.484 18.3409C103.938 18.2197 104.385 18.1591 104.824 18.1591C105.105 18.1591 105.427 18.1932 105.79 18.2614C106.158 18.3258 106.512 18.4602 106.853 18.6648C107.198 18.8693 107.484 19.178 107.711 19.5909C107.938 20.0038 108.052 20.5568 108.052 21.25V27H106.711V25.8182H106.643C106.552 26.0076 106.4 26.2102 106.188 26.4261C105.976 26.642 105.694 26.8258 105.342 26.9773C104.989 27.1288 104.559 27.2045 104.052 27.2045ZM104.256 26C104.787 26 105.234 25.8958 105.597 25.6875C105.965 25.4792 106.241 25.2102 106.427 24.8807C106.616 24.5511 106.711 24.2045 106.711 23.8409V22.6136C106.654 22.6818 106.529 22.7443 106.336 22.8011C106.146 22.8542 105.927 22.9015 105.677 22.9432C105.431 22.9811 105.19 23.0152 104.955 23.0455C104.724 23.072 104.537 23.0947 104.393 23.1136C104.044 23.1591 103.718 23.233 103.415 23.3352C103.116 23.4337 102.874 23.5833 102.688 23.7841C102.506 23.9811 102.415 24.25 102.415 24.5909C102.415 25.0568 102.588 25.4091 102.932 25.6477C103.281 25.8826 103.722 26 104.256 26ZM113.734 27.1818C112.916 27.1818 112.211 26.9886 111.621 26.6023C111.03 26.2159 110.575 25.6837 110.257 25.0057C109.939 24.3277 109.78 23.553 109.78 22.6818C109.78 21.7955 109.942 21.0133 110.268 20.3352C110.598 19.6534 111.056 19.1212 111.643 18.7386C112.234 18.3523 112.924 18.1591 113.711 18.1591C114.325 18.1591 114.878 18.2727 115.371 18.5C115.863 18.7273 116.266 19.0455 116.581 19.4545C116.895 19.8636 117.09 20.3409 117.166 20.8864H115.825C115.723 20.4886 115.496 20.1364 115.143 19.8295C114.795 19.5189 114.325 19.3636 113.734 19.3636C113.211 19.3636 112.753 19.5 112.359 19.7727C111.969 20.0417 111.664 20.4223 111.444 20.9148C111.228 21.4034 111.121 21.9773 111.121 22.6364C111.121 23.3106 111.227 23.8977 111.439 24.3977C111.655 24.8977 111.958 25.286 112.348 25.5625C112.742 25.839 113.204 25.9773 113.734 25.9773C114.083 25.9773 114.399 25.9167 114.683 25.7955C114.967 25.6742 115.208 25.5 115.405 25.2727C115.602 25.0455 115.742 24.7727 115.825 24.4545H117.166C117.09 24.9697 116.903 25.4337 116.603 25.8466C116.308 26.2557 115.916 26.5814 115.427 26.8239C114.942 27.0625 114.378 27.1818 113.734 27.1818ZM122.611 18.2727V19.4091H118.088V18.2727H122.611ZM119.407 16.1818H120.748V24.5C120.748 24.8788 120.802 25.1629 120.912 25.3523C121.026 25.5379 121.17 25.6629 121.344 25.7273C121.522 25.7879 121.71 25.8182 121.907 25.8182C122.054 25.8182 122.176 25.8106 122.27 25.7955C122.365 25.7765 122.441 25.7614 122.498 25.75L122.77 26.9545C122.679 26.9886 122.552 27.0227 122.39 27.0568C122.227 27.0947 122.02 27.1136 121.77 27.1136C121.391 27.1136 121.02 27.0322 120.657 26.8693C120.297 26.7064 119.998 26.4583 119.759 26.125C119.524 25.7917 119.407 25.3712 119.407 24.8636V16.1818ZM124.318 27V18.2727H125.659V27H124.318ZM124.999 16.8182C124.738 16.8182 124.513 16.7292 124.323 16.5511C124.138 16.3731 124.045 16.1591 124.045 15.9091C124.045 15.6591 124.138 15.4451 124.323 15.267C124.513 15.089 124.738 15 124.999 15C125.261 15 125.484 15.089 125.67 15.267C125.859 15.4451 125.954 15.6591 125.954 15.9091C125.954 16.1591 125.859 16.3731 125.67 16.5511C125.484 16.7292 125.261 16.8182 124.999 16.8182ZM131.35 27.1818C130.562 27.1818 129.87 26.9943 129.276 26.6193C128.685 26.2443 128.223 25.7197 127.889 25.0455C127.56 24.3712 127.395 23.5833 127.395 22.6818C127.395 21.7727 127.56 20.9792 127.889 20.3011C128.223 19.6231 128.685 19.0966 129.276 18.7216C129.87 18.3466 130.562 18.1591 131.35 18.1591C132.137 18.1591 132.827 18.3466 133.418 18.7216C134.012 19.0966 134.475 19.6231 134.804 20.3011C135.137 20.9792 135.304 21.7727 135.304 22.6818C135.304 23.5833 135.137 24.3712 134.804 25.0455C134.475 25.7197 134.012 26.2443 133.418 26.6193C132.827 26.9943 132.137 27.1818 131.35 27.1818ZM131.35 25.9773C131.948 25.9773 132.44 25.8239 132.827 25.517C133.213 25.2102 133.499 24.8068 133.685 24.3068C133.87 23.8068 133.963 23.2652 133.963 22.6818C133.963 22.0985 133.87 21.5549 133.685 21.0511C133.499 20.5473 133.213 20.1402 132.827 19.8295C132.44 19.5189 131.948 19.3636 131.35 19.3636C130.751 19.3636 130.259 19.5189 129.872 19.8295C129.486 20.1402 129.2 20.5473 129.014 21.0511C128.829 21.5549 128.736 22.0985 128.736 22.6818C128.736 23.2652 128.829 23.8068 129.014 24.3068C129.2 24.8068 129.486 25.2102 129.872 25.517C130.259 25.8239 130.751 25.9773 131.35 25.9773ZM138.381 21.75V27H137.04V18.2727H138.336V19.6364H138.45C138.654 19.1932 138.965 18.8371 139.381 18.5682C139.798 18.2955 140.336 18.1591 140.995 18.1591C141.586 18.1591 142.103 18.2803 142.546 18.5227C142.989 18.7614 143.334 19.125 143.58 19.6136C143.826 20.0985 143.95 20.7121 143.95 21.4545V27H142.609V21.5455C142.609 20.8598 142.431 20.3258 142.075 19.9432C141.718 19.5568 141.23 19.3636 140.609 19.3636C140.181 19.3636 139.798 19.4564 139.461 19.642C139.128 19.8277 138.864 20.0985 138.671 20.4545C138.478 20.8106 138.381 21.2424 138.381 21.75ZM153.824 27.1818C153.006 27.1818 152.301 26.9886 151.711 26.6023C151.12 26.2159 150.665 25.6837 150.347 25.0057C150.029 24.3277 149.87 23.553 149.87 22.6818C149.87 21.7955 150.033 21.0133 150.358 20.3352C150.688 19.6534 151.146 19.1212 151.733 18.7386C152.324 18.3523 153.014 18.1591 153.801 18.1591C154.415 18.1591 154.968 18.2727 155.461 18.5C155.953 18.7273 156.356 19.0455 156.671 19.4545C156.985 19.8636 157.18 20.3409 157.256 20.8864H155.915C155.813 20.4886 155.586 20.1364 155.233 19.8295C154.885 19.5189 154.415 19.3636 153.824 19.3636C153.301 19.3636 152.843 19.5 152.449 19.7727C152.059 20.0417 151.754 20.4223 151.534 20.9148C151.319 21.4034 151.211 21.9773 151.211 22.6364C151.211 23.3106 151.317 23.8977 151.529 24.3977C151.745 24.8977 152.048 25.286 152.438 25.5625C152.832 25.839 153.294 25.9773 153.824 25.9773C154.173 25.9773 154.489 25.9167 154.773 25.7955C155.057 25.6742 155.298 25.5 155.495 25.2727C155.692 25.0455 155.832 24.7727 155.915 24.4545H157.256C157.18 24.9697 156.993 25.4337 156.694 25.8466C156.398 26.2557 156.006 26.5814 155.517 26.8239C155.033 27.0625 154.468 27.1818 153.824 27.1818ZM162.451 27.1818C161.663 27.1818 160.972 26.9943 160.377 26.6193C159.786 26.2443 159.324 25.7197 158.991 25.0455C158.661 24.3712 158.497 23.5833 158.497 22.6818C158.497 21.7727 158.661 20.9792 158.991 20.3011C159.324 19.6231 159.786 19.0966 160.377 18.7216C160.972 18.3466 161.663 18.1591 162.451 18.1591C163.239 18.1591 163.928 18.3466 164.519 18.7216C165.114 19.0966 165.576 19.6231 165.906 20.3011C166.239 20.9792 166.406 21.7727 166.406 22.6818C166.406 23.5833 166.239 24.3712 165.906 25.0455C165.576 25.7197 165.114 26.2443 164.519 26.6193C163.928 26.9943 163.239 27.1818 162.451 27.1818ZM162.451 25.9773C163.05 25.9773 163.542 25.8239 163.928 25.517C164.315 25.2102 164.601 24.8068 164.786 24.3068C164.972 23.8068 165.065 23.2652 165.065 22.6818C165.065 22.0985 164.972 21.5549 164.786 21.0511C164.601 20.5473 164.315 20.1402 163.928 19.8295C163.542 19.5189 163.05 19.3636 162.451 19.3636C161.853 19.3636 161.36 19.5189 160.974 19.8295C160.588 20.1402 160.302 20.5473 160.116 21.0511C159.93 21.5549 159.838 22.0985 159.838 22.6818C159.838 23.2652 159.93 23.8068 160.116 24.3068C160.302 24.8068 160.588 25.2102 160.974 25.517C161.36 25.8239 161.853 25.9773 162.451 25.9773ZM168.142 27V18.2727H169.438V19.6364H169.551C169.733 19.1705 170.027 18.8087 170.432 18.5511C170.837 18.2898 171.324 18.1591 171.892 18.1591C172.468 18.1591 172.947 18.2898 173.33 18.5511C173.716 18.8087 174.017 19.1705 174.233 19.6364H174.324C174.547 19.1856 174.883 18.8277 175.33 18.5625C175.777 18.2936 176.313 18.1591 176.938 18.1591C177.718 18.1591 178.356 18.4034 178.852 18.892C179.349 19.3769 179.597 20.1326 179.597 21.1591V27H178.256V21.1591C178.256 20.5152 178.08 20.0549 177.727 19.7784C177.375 19.5019 176.96 19.3636 176.483 19.3636C175.869 19.3636 175.394 19.5492 175.057 19.9205C174.72 20.2879 174.551 20.7538 174.551 21.3182V27H173.188V21.0227C173.188 20.5265 173.027 20.1269 172.705 19.8239C172.383 19.517 171.968 19.3636 171.46 19.3636C171.112 19.3636 170.786 19.4564 170.483 19.642C170.184 19.8277 169.941 20.0852 169.756 20.4148C169.574 20.7405 169.483 21.1174 169.483 21.5455V27H168.142ZM181.738 30.2727V18.2727H183.033V19.6591H183.192C183.291 19.5076 183.427 19.3144 183.602 19.0795C183.78 18.8409 184.033 18.6288 184.363 18.4432C184.696 18.2538 185.147 18.1591 185.715 18.1591C186.45 18.1591 187.098 18.3428 187.658 18.7102C188.219 19.0777 188.656 19.5985 188.971 20.2727C189.285 20.947 189.442 21.7424 189.442 22.6591C189.442 23.5833 189.285 24.3845 188.971 25.0625C188.656 25.7367 188.221 26.2595 187.664 26.6307C187.107 26.9981 186.465 27.1818 185.738 27.1818C185.177 27.1818 184.728 27.089 184.391 26.9034C184.054 26.714 183.795 26.5 183.613 26.2614C183.431 26.0189 183.291 25.8182 183.192 25.6591H183.079V30.2727H181.738ZM183.056 22.6364C183.056 23.2955 183.153 23.8769 183.346 24.3807C183.539 24.8807 183.821 25.2727 184.192 25.5568C184.564 25.8371 185.018 25.9773 185.556 25.9773C186.117 25.9773 186.584 25.8295 186.959 25.5341C187.338 25.2348 187.622 24.8333 187.812 24.3295C188.005 23.822 188.102 23.2576 188.102 22.6364C188.102 22.0227 188.007 21.4697 187.817 20.9773C187.632 20.4811 187.35 20.089 186.971 19.8011C186.596 19.5095 186.124 19.3636 185.556 19.3636C185.011 19.3636 184.552 19.5019 184.181 19.7784C183.81 20.0511 183.53 20.4337 183.34 20.9261C183.151 21.4148 183.056 21.9848 183.056 22.6364ZM192.518 15.3636V27H191.177V15.3636H192.518ZM198.323 27.1818C197.482 27.1818 196.757 26.9962 196.147 26.625C195.541 26.25 195.073 25.7273 194.743 25.0568C194.418 24.3826 194.255 23.5985 194.255 22.7045C194.255 21.8106 194.418 21.0227 194.743 20.3409C195.073 19.6553 195.531 19.1212 196.118 18.7386C196.709 18.3523 197.399 18.1591 198.186 18.1591C198.641 18.1591 199.09 18.2348 199.533 18.3864C199.976 18.5379 200.38 18.7841 200.743 19.125C201.107 19.4621 201.397 19.9091 201.613 20.4659C201.829 21.0227 201.936 21.7083 201.936 22.5227V23.0909H195.209V21.9318H200.573C200.573 21.4394 200.474 21 200.277 20.6136C200.084 20.2273 199.808 19.9223 199.448 19.6989C199.092 19.4754 198.671 19.3636 198.186 19.3636C197.652 19.3636 197.19 19.4962 196.8 19.7614C196.414 20.0227 196.116 20.3636 195.908 20.7841C195.7 21.2045 195.596 21.6553 195.596 22.1364V22.9091C195.596 23.5682 195.709 24.1269 195.936 24.5852C196.168 25.0398 196.488 25.3864 196.897 25.625C197.306 25.8598 197.781 25.9773 198.323 25.9773C198.675 25.9773 198.993 25.928 199.277 25.8295C199.565 25.7273 199.813 25.5758 200.022 25.375C200.23 25.1705 200.391 24.9167 200.505 24.6136L201.8 24.9773C201.664 25.4167 201.435 25.803 201.113 26.1364C200.791 26.4659 200.393 26.7235 199.919 26.9091C199.446 27.0909 198.914 27.1818 198.323 27.1818ZM207.461 18.2727V19.4091H202.938V18.2727H207.461ZM204.257 16.1818H205.598V24.5C205.598 24.8788 205.652 25.1629 205.762 25.3523C205.876 25.5379 206.02 25.6629 206.194 25.7273C206.372 25.7879 206.56 25.8182 206.757 25.8182C206.904 25.8182 207.026 25.8106 207.12 25.7955C207.215 25.7765 207.291 25.7614 207.348 25.75L207.62 26.9545C207.529 26.9886 207.402 27.0227 207.24 27.0568C207.077 27.0947 206.87 27.1136 206.62 27.1136C206.241 27.1136 205.87 27.0322 205.507 26.8693C205.147 26.7064 204.848 26.4583 204.609 26.125C204.374 25.7917 204.257 25.3712 204.257 24.8636V16.1818ZM212.733 27.1818C211.892 27.1818 211.167 26.9962 210.557 26.625C209.951 26.25 209.483 25.7273 209.154 25.0568C208.828 24.3826 208.665 23.5985 208.665 22.7045C208.665 21.8106 208.828 21.0227 209.154 20.3409C209.483 19.6553 209.941 19.1212 210.529 18.7386C211.119 18.3523 211.809 18.1591 212.597 18.1591C213.051 18.1591 213.5 18.2348 213.943 18.3864C214.386 18.5379 214.79 18.7841 215.154 19.125C215.517 19.4621 215.807 19.9091 216.023 20.4659C216.239 21.0227 216.347 21.7083 216.347 22.5227V23.0909H209.619V21.9318H214.983C214.983 21.4394 214.885 21 214.688 20.6136C214.494 20.2273 214.218 19.9223 213.858 19.6989C213.502 19.4754 213.082 19.3636 212.597 19.3636C212.063 19.3636 211.6 19.4962 211.21 19.7614C210.824 20.0227 210.527 20.3636 210.318 20.7841C210.11 21.2045 210.006 21.6553 210.006 22.1364V22.9091C210.006 23.5682 210.119 24.1269 210.347 24.5852C210.578 25.0398 210.898 25.3864 211.307 25.625C211.716 25.8598 212.191 25.9773 212.733 25.9773C213.085 25.9773 213.404 25.928 213.688 25.8295C213.975 25.7273 214.224 25.5758 214.432 25.375C214.64 25.1705 214.801 24.9167 214.915 24.6136L216.21 24.9773C216.074 25.4167 215.845 25.803 215.523 26.1364C215.201 26.4659 214.803 26.7235 214.33 26.9091C213.856 27.0909 213.324 27.1818 212.733 27.1818ZM221.371 27.1818C220.644 27.1818 220.002 26.9981 219.445 26.6307C218.888 26.2595 218.453 25.7367 218.138 25.0625C217.824 24.3845 217.667 23.5833 217.667 22.6591C217.667 21.7424 217.824 20.947 218.138 20.2727C218.453 19.5985 218.89 19.0777 219.451 18.7102C220.012 18.3428 220.659 18.1591 221.394 18.1591C221.962 18.1591 222.411 18.2538 222.741 18.4432C223.074 18.6288 223.328 18.8409 223.502 19.0795C223.68 19.3144 223.818 19.5076 223.917 19.6591H224.031V15.3636H225.371V27H224.076V25.6591H223.917C223.818 25.8182 223.678 26.0189 223.496 26.2614C223.315 26.5 223.055 26.714 222.718 26.9034C222.381 27.089 221.932 27.1818 221.371 27.1818ZM221.553 25.9773C222.091 25.9773 222.546 25.8371 222.917 25.5568C223.288 25.2727 223.57 24.8807 223.763 24.3807C223.957 23.8769 224.053 23.2955 224.053 22.6364C224.053 21.9848 223.959 21.4148 223.769 20.9261C223.58 20.4337 223.299 20.0511 222.928 19.7784C222.557 19.5019 222.099 19.3636 221.553 19.3636C220.985 19.3636 220.512 19.5095 220.133 19.8011C219.758 20.089 219.476 20.4811 219.286 20.9773C219.101 21.4697 219.008 22.0227 219.008 22.6364C219.008 23.2576 219.102 23.822 219.292 24.3295C219.485 24.8333 219.769 25.2348 220.144 25.5341C220.523 25.8295 220.993 25.9773 221.553 25.9773ZM228.68 27.0909C228.4 27.0909 228.159 26.9905 227.959 26.7898C227.758 26.589 227.658 26.3485 227.658 26.0682C227.658 25.7879 227.758 25.5473 227.959 25.3466C228.159 25.1458 228.4 25.0455 228.68 25.0455C228.961 25.0455 229.201 25.1458 229.402 25.3466C229.603 25.5473 229.703 25.7879 229.703 26.0682C229.703 26.2538 229.656 26.4242 229.561 26.5795C229.47 26.7348 229.347 26.8598 229.192 26.9545C229.04 27.0455 228.87 27.0909 228.68 27.0909Z" fill="black"/>
<defs>
<filter id="filter0_d" x="0" y="0" width="252" height="43" filterUnits="userSpaceOnUse" color-interpolation-filters="sRGB">
<feFlood flood-opacity="0" result="BackgroundImageFix"/>
<feColorMatrix in="SourceAlpha" type="matrix" values="0 0 0 0 0 0 0 0 0 0 0 0 0 0 0 0 0 0 127 0"/>
<feOffset dy="1"/>
<feGaussianBlur stdDeviation="0.5"/>
<feColorMatrix type="matrix" values="0 0 0 0 0.14902 0 0 0 0 0.207843 0 0 0 0 0.25098 0 0 0 0.3 0"/>
<feBlend mode="multiply" in2="BackgroundImageFix" result="effect1_dropShadow"/>
<feBlend mode="normal" in="SourceGraphic" in2="effect1_dropShadow" result="shape"/>
</filter>
</defs>
</svg>
