<svg width="104" height="42" viewBox="0 0 104 42" fill="none" xmlns="http://www.w3.org/2000/svg">
<g filter="url(#filter0_d)">
<rect x="1" width="102" height="40" rx="20" fill="#0584FE"/>
</g>
<path d="M16.4545 21.9091L16.5455 19.4091L14.4318 20.75L13.8864 19.7955L16.1136 18.6364L13.8864 17.4773L14.4318 16.5227L16.5455 17.8636L16.4545 15.3636H17.5455L17.4545 17.8636L19.5682 16.5227L20.1136 17.4773L17.8864 18.6364L20.1136 19.7955L19.5682 20.75L17.4545 19.4091L17.5455 21.9091H16.4545ZM24.144 21.9091L24.2349 19.4091L22.1213 20.75L21.5759 19.7955L23.8031 18.6364L21.5759 17.4773L22.1213 16.5227L24.2349 17.8636L24.144 15.3636H25.2349L25.144 17.8636L27.2577 16.5227L27.8031 17.4773L25.5759 18.6364L27.8031 19.7955L27.2577 20.75L25.144 19.4091L25.2349 21.9091H24.144ZM31.8335 21.9091L31.9244 19.4091L29.8108 20.75L29.2654 19.7955L31.4926 18.6364L29.2654 17.4773L29.8108 16.5227L31.9244 17.8636L31.8335 15.3636H32.9244L32.8335 17.8636L34.9472 16.5227L35.4926 17.4773L33.2654 18.6364L35.4926 19.7955L34.9472 20.75L32.8335 19.4091L32.9244 21.9091H31.8335ZM39.523 21.9091L39.6139 19.4091L37.5003 20.75L36.9548 19.7955L39.1821 18.6364L36.9548 17.4773L37.5003 16.5227L39.6139 17.8636L39.523 15.3636H40.6139L40.523 17.8636L42.6367 16.5227L43.1821 17.4773L40.9548 18.6364L43.1821 19.7955L42.6367 20.75L40.523 19.4091L40.6139 21.9091H39.523ZM47.2125 21.9091L47.3034 19.4091L45.1898 20.75L44.6443 19.7955L46.8716 18.6364L44.6443 17.4773L45.1898 16.5227L47.3034 17.8636L47.2125 15.3636H48.3034L48.2125 17.8636L50.3262 16.5227L50.8716 17.4773L48.6443 18.6364L50.8716 19.7955L50.3262 20.75L48.2125 19.4091L48.3034 21.9091H47.2125ZM54.902 21.9091L54.9929 19.4091L52.8793 20.75L52.3338 19.7955L54.5611 18.6364L52.3338 17.4773L52.8793 16.5227L54.9929 17.8636L54.902 15.3636H55.9929L55.902 17.8636L58.0156 16.5227L58.5611 17.4773L56.3338 18.6364L58.5611 19.7955L58.0156 20.75L55.902 19.4091L55.9929 21.9091H54.902ZM62.5915 21.9091L62.6824 19.4091L60.5688 20.75L60.0233 19.7955L62.2506 18.6364L60.0233 17.4773L60.5688 16.5227L62.6824 17.8636L62.5915 15.3636H63.6824L63.5915 17.8636L65.7051 16.5227L66.2506 17.4773L64.0233 18.6364L66.2506 19.7955L65.7051 20.75L63.5915 19.4091L63.6824 21.9091H62.5915ZM70.281 21.9091L70.3719 19.4091L68.2583 20.75L67.7128 19.7955L69.9401 18.6364L67.7128 17.4773L68.2583 16.5227L70.3719 17.8636L70.281 15.3636H71.3719L71.281 17.8636L73.3946 16.5227L73.9401 17.4773L71.7128 18.6364L73.9401 19.7955L73.3946 20.75L71.281 19.4091L71.3719 21.9091H70.281ZM77.9705 21.9091L78.0614 19.4091L75.9478 20.75L75.4023 19.7955L77.6296 18.6364L75.4023 17.4773L75.9478 16.5227L78.0614 17.8636L77.9705 15.3636H79.0614L78.9705 17.8636L81.0841 16.5227L81.6296 17.4773L79.4023 18.6364L81.6296 19.7955L81.0841 20.75L78.9705 19.4091L79.0614 21.9091H77.9705ZM85.66 21.9091L85.7509 19.4091L83.6373 20.75L83.0918 19.7955L85.3191 18.6364L83.0918 17.4773L83.6373 16.5227L85.7509 17.8636L85.66 15.3636H86.7509L86.66 17.8636L88.7736 16.5227L89.3191 17.4773L87.0918 18.6364L89.3191 19.7955L88.7736 20.75L86.66 19.4091L86.7509 21.9091H85.66Z" fill="white"/>
<defs>
<filter id="filter0_d" x="0" y="0" width="104" height="42" filterUnits="userSpaceOnUse" color-interpolation-filters="sRGB">
<feFlood flood-opacity="0" result="BackgroundImageFix"/>
<feColorMatrix in="SourceAlpha" type="matrix" values="0 0 0 0 0 0 0 0 0 0 0 0 0 0 0 0 0 0 127 0"/>
<feOffset dy="1"/>
<feGaussianBlur stdDeviation="0.5"/>
<feColorMatrix type="matrix" values="0 0 0 0 0.14902 0 0 0 0 0.207843 0 0 0 0 0.25098 0 0 0 0.3 0"/>
<feBlend mode="multiply" in2="BackgroundImageFix" result="effect1_dropShadow"/>
<feBlend mode="normal" in="SourceGraphic" in2="effect1_dropShadow" result="shape"/>
</filter>
</defs>
</svg>
