<svg width="263" height="104" viewBox="0 0 263 104" fill="none" xmlns="http://www.w3.org/2000/svg">
<path d="M17.7589 16.9352C16.6904 21.221 12.3496 23.8292 8.06336 22.7605C3.77889 21.692 1.17066 17.351 2.23959 13.0656C3.30758 8.77935 7.64835 6.17093 11.9333 7.23939C16.2192 8.30785 18.8273 12.6494 17.7587 16.9353L17.7588 16.9352H17.7589Z" fill="#F7931A"/>
<path d="M13.5379 13.8485C13.6972 12.7839 12.8866 12.2116 11.7783 11.8298L12.1378 10.3877L11.26 10.169L10.91 11.5731C10.6792 11.5156 10.4422 11.4613 10.2066 11.4076L10.5592 9.99413L9.68185 9.77539L9.3221 11.2171C9.13112 11.1736 8.94354 11.1306 8.76155 11.0853L8.76257 11.0808L7.55197 10.7785L7.31845 11.7161C7.31845 11.7161 7.96975 11.8654 7.95603 11.8746C8.31151 11.9633 8.3758 12.1986 8.36512 12.3851L7.95556 14.0281C7.98004 14.0343 8.01179 14.0433 8.04682 14.0574C8.01754 14.0501 7.98637 14.0421 7.95403 14.0344L7.37996 16.3359C7.33651 16.4439 7.22624 16.606 6.9777 16.5444C6.9865 16.5572 6.33965 16.3852 6.33965 16.3852L5.90381 17.3901L7.04621 17.6749C7.25874 17.7282 7.467 17.7839 7.6721 17.8364L7.30883 19.295L8.18568 19.5138L8.54543 18.0706C8.78498 18.1356 9.01745 18.1956 9.24503 18.2522L8.88649 19.6885L9.7644 19.9073L10.1276 18.4514C11.6246 18.7347 12.7502 18.6204 13.2239 17.2664C13.6057 16.1763 13.2049 15.5475 12.4174 15.1375C12.991 15.0052 13.4231 14.628 13.5383 13.8486L13.538 13.8484L13.5379 13.8485ZM11.5322 16.661C11.2609 17.7512 9.42549 17.1619 8.83041 17.0141L9.31248 15.0816C9.90751 15.2302 11.8158 15.5242 11.5323 16.661H11.5322ZM11.8037 13.8327C11.5562 14.8243 10.0286 14.3205 9.53302 14.197L9.97008 12.4443C10.4656 12.5679 12.0615 12.7984 11.8038 13.8327H11.8037Z" fill="white"/>
<path d="M29.321 21.5H33.2628C35.8409 21.5 36.9062 20.2429 36.9062 18.6023C36.9062 16.8764 35.7131 15.9389 34.7116 15.875V15.7685C35.6491 15.5128 36.4801 14.8949 36.4801 13.4886C36.4801 11.8906 35.4148 10.5909 33.1349 10.5909H29.321V21.5ZM30.642 20.3281V16.5355H33.3267C34.7543 16.5355 35.6491 17.4943 35.6491 18.6023C35.6491 19.5611 34.9886 20.3281 33.2628 20.3281H30.642ZM30.642 15.3849V11.7628H33.1349C34.5838 11.7628 35.223 12.5298 35.223 13.4886C35.223 14.6392 34.2855 15.3849 33.0923 15.3849H30.642ZM38.3303 11.7628H41.7607V21.5H43.0817V11.7628H46.5121V10.5909H38.3303V11.7628ZM56.7252 14C56.3204 11.7628 54.5306 10.4418 52.336 10.4418C49.5448 10.4418 47.5207 12.5938 47.5207 16.0455C47.5207 19.4972 49.5448 21.6491 52.336 21.6491C54.5306 21.6491 56.3204 20.3281 56.7252 18.0909H55.4042C55.0846 19.6037 53.7849 20.4134 52.336 20.4134C50.3545 20.4134 48.7991 18.8793 48.7991 16.0455C48.7991 13.2116 50.3545 11.6776 52.336 11.6776C53.7849 11.6776 55.0846 12.4872 55.4042 14H56.7252Z" fill="#98A5AF"/>
<path d="M10.0273 43.8789V43.887C10.0354 43.9274 10.0354 43.9759 10.0354 44.0244V49.8552C10.0273 49.8876 10.0031 49.8957 9.9788 49.9118C9.80897 49.9927 9.64723 50.0655 9.4774 50.1383C9.24287 50.2434 9.00026 50.3566 8.76574 50.4618L7.91659 50.8499C7.68207 50.9551 7.44754 51.0602 7.22111 51.1653C6.94615 51.2947 6.6631 51.416 6.38814 51.5454C6.15361 51.6506 5.91909 51.7638 5.67648 51.8689C5.48239 51.9579 5.2883 52.0387 5.10229 52.1277C5.08612 52.1358 5.06995 52.1439 5.05377 52.1439C5.04568 52.1439 5.04568 52.1439 5.0376 52.1358L5.25595 51.7719C5.67648 51.0764 6.08892 50.389 6.50944 49.6935C6.95423 48.9495 7.40711 48.2055 7.8519 47.4614C8.26434 46.774 8.68487 46.0866 9.09731 45.3992C9.39653 44.8978 9.70384 44.3964 10.0031 43.895C10.0111 43.8789 10.0192 43.8708 10.0192 43.8546H10.0273C10.0192 43.8627 10.0273 43.8708 10.0273 43.8789Z" fill="#8A92B2"/>
<path d="M14.9924 52.1358L15.0005 52.1439L13.8117 52.8475L10.0754 55.0553C10.0593 55.0634 10.0431 55.0714 10.035 55.0795C10.0107 55.0795 10.0107 55.0553 10.0107 55.0472V54.9744V49.9766C10.0107 49.9523 10.0107 49.92 10.0188 49.8957C10.0269 49.8634 10.0512 49.8715 10.0754 49.8795C10.1806 49.9281 10.2938 49.9766 10.3989 50.0251C10.7143 50.1707 11.0297 50.3162 11.3451 50.4537C11.6201 50.575 11.8869 50.7044 12.1619 50.8257C12.4369 50.947 12.7118 51.0764 12.9868 51.1977C13.2213 51.3029 13.4639 51.4161 13.6984 51.5212C13.933 51.6264 14.1756 51.7396 14.4101 51.8447C14.5961 51.9256 14.7821 52.0145 14.9681 52.0954C14.9681 52.1197 14.9762 52.1278 14.9924 52.1358Z" fill="#454A75"/>
<path d="M10.0263 60.1016C10.0263 60.1097 10.0183 60.1178 10.0183 60.1259H10.0102C10.0102 60.1097 9.99399 60.1016 9.98591 60.0855C9.48451 59.3819 8.98311 58.6702 8.48171 57.9667C7.97223 57.2469 7.45465 56.5191 6.94517 55.7993C6.45186 55.1038 5.95046 54.4003 5.45715 53.7048C5.32776 53.5188 5.19836 53.3408 5.06897 53.1548C5.06088 53.1387 5.0528 53.1306 5.03662 53.1063C5.06088 53.1063 5.07706 53.1225 5.08514 53.1306C5.78872 53.543 6.48421 53.9555 7.18778 54.3679C7.99649 54.845 8.79711 55.3222 9.60582 55.7993L10.0183 56.0419C10.0344 56.0581 10.0344 56.0743 10.0344 56.0905V59.9884C10.0344 60.0289 10.0344 60.0693 10.0263 60.1016Z" fill="#8A92B2"/>
<path d="M5.02881 52.1521V52.144C5.28759 52.0308 5.53829 51.9095 5.79708 51.7963C6.12865 51.6427 6.46022 51.4971 6.79179 51.3434C7.04249 51.2302 7.30128 51.1089 7.55197 50.9957C7.92398 50.8259 8.2879 50.6641 8.6599 50.4943C8.9106 50.3811 9.1613 50.2678 9.42009 50.1465C9.598 50.0657 9.78401 49.9848 9.96192 49.9039C9.9781 49.8958 10.0024 49.8878 10.0104 49.8716C10.0185 49.8716 10.0185 49.8797 10.0104 49.8878V55.023C10.0104 55.0473 10.0024 55.0716 10.0185 55.0877C10.0024 55.112 9.98618 55.0877 9.9781 55.0797C9.90531 55.0392 9.83253 54.9988 9.75974 54.9503C8.19894 54.0283 6.63005 53.0983 5.06924 52.1764C5.06116 52.1683 5.04498 52.1602 5.02881 52.1521Z" fill="#62688F"/>
<path d="M14.9759 53.1063H14.984C14.984 53.1225 14.9678 53.1387 14.9598 53.1548C13.4717 55.2494 11.9837 57.352 10.4957 59.4466C10.342 59.6649 10.1803 59.8833 10.0266 60.1016C10.0186 60.0936 10.0186 60.0855 10.0186 60.0774V60.0289V56.1066V56.0338C10.3582 55.8317 10.6898 55.6376 11.0294 55.4354C12.3395 54.659 13.6496 53.8908 14.9517 53.1144C14.9598 53.1225 14.9678 53.1144 14.9759 53.1063Z" fill="#62688F"/>
<path d="M10.0191 49.8876V49.8714V49.8229V43.9517C10.0191 43.9274 10.011 43.9112 10.0272 43.887C11.6689 46.6123 13.3105 49.3296 14.9441 52.0549C14.9603 52.0792 14.9846 52.1115 14.9927 52.1439C14.8794 52.1034 14.7743 52.0468 14.6692 51.9983C14.5398 51.9417 14.4023 51.877 14.2729 51.8204C14.192 51.7799 14.1031 51.7476 14.0222 51.7072C13.8847 51.6425 13.7472 51.5859 13.6098 51.5212C13.5289 51.4888 13.448 51.4484 13.3672 51.4079L12.8334 51.1653C12.7444 51.1249 12.6555 51.0845 12.5584 51.044L12.1703 50.8742C12.0894 50.8418 12.0085 50.8014 11.9277 50.761L11.3939 50.5184C11.3049 50.4779 11.216 50.4375 11.1189 50.3971L10.7308 50.2272C10.6418 50.1868 10.5609 50.1464 10.472 50.1059C10.3183 50.0331 10.1647 49.9604 10.0029 49.8957C10.0272 49.8876 10.0191 49.8876 10.0191 49.8876Z" fill="#62688F"/>
<path d="M29.321 58.5H35.9901V57.3281H30.642V53.6207H35.5639V52.4489H30.642V48.7628H35.9048V47.5909H29.321V58.5ZM37.5393 48.7628H40.9697V58.5H42.2907V48.7628H45.7211V47.5909H37.5393V48.7628ZM47.6099 58.5H48.9309V53.6207H54.7477V58.5H56.0687V47.5909H54.7477V52.4489H48.9309V47.5909H47.6099V58.5Z" fill="#98A5AF"/>
<mask id="mask0" mask-type="alpha" maskUnits="userSpaceOnUse" x="2" y="81" width="16" height="17">
<path d="M2 81.0001H18V97.0001H2V81.0001Z" fill="white"/>
</mask>
<g mask="url(#mask0)">
<path fill-rule="evenodd" clip-rule="evenodd" d="M10 81.0001C14.4184 81.0001 18 84.5818 18 89.0001C18 93.4181 14.4184 97.0001 10 97.0001C5.58164 97.0001 2 93.4181 2 89.0001C2 84.5818 5.58164 81.0001 10 81.0001Z" fill="#2775CA"/>
</g>
<path fill-rule="evenodd" clip-rule="evenodd" d="M8.50045 94.5622C8.50045 94.7504 8.35309 94.8573 8.17109 94.8005C5.75227 94.0288 3.99854 91.7607 3.99854 89.0846C3.99854 86.4085 5.75227 84.1403 8.17109 83.3686C8.35309 83.3122 8.50045 83.4187 8.50045 83.6069V84.0715C8.50045 84.1967 8.40336 84.3442 8.284 84.385C6.37027 85.0877 4.99935 86.9262 4.99935 89.0814C4.99935 91.2366 6.37027 93.0754 8.284 93.7777C8.40336 93.8217 8.50045 93.9659 8.50045 94.0917V94.5622Z" fill="white"/>
<path fill-rule="evenodd" clip-rule="evenodd" d="M10.4987 92.8335C10.4987 92.9717 10.3858 93.0846 10.2478 93.0846H9.7489C9.6109 93.0846 9.49799 92.9717 9.49799 92.8335V92.043C8.40617 91.8957 7.87299 91.2838 7.72863 90.4525C7.70345 90.3111 7.81635 90.1826 7.96072 90.1826H8.53172C8.6509 90.1826 8.75136 90.2674 8.77645 90.3864C8.88317 90.8821 9.16863 91.2618 10.0438 91.2618C10.6901 91.2618 11.1483 90.901 11.1483 90.3616C11.1483 89.8218 10.8784 89.618 9.9309 89.461C8.53172 89.2728 7.86981 88.8491 7.86981 87.7511C7.86981 86.9041 8.5099 86.2454 9.50118 86.1041V85.3292C9.50118 85.1911 9.61418 85.0781 9.75208 85.0781H10.251C10.389 85.0781 10.5019 85.1911 10.5019 85.3292V86.1261C11.3082 86.2707 11.8195 86.7284 11.9859 87.4876C12.0172 87.6321 11.9043 87.7668 11.7569 87.7668H11.2297C11.1168 87.7668 11.0227 87.6914 10.9883 87.5817C10.8471 87.0988 10.5019 86.8918 9.90263 86.8918C9.24072 86.8918 8.89872 87.2117 8.89872 87.6602C8.89872 88.1339 9.09336 88.3722 10.1099 88.5199C11.4838 88.7081 12.193 89.1002 12.193 90.2707C12.193 91.1584 11.5341 91.8769 10.5019 92.043V92.8335H10.4987Z" fill="white"/>
<path fill-rule="evenodd" clip-rule="evenodd" d="M11.8294 94.8006C11.6475 94.8574 11.5 94.7505 11.5 94.5623V94.0981C11.5 93.9601 11.5847 93.8315 11.7165 93.7842C13.6302 93.0815 15.0011 91.243 15.0011 89.0879C15.0011 86.9327 13.6302 85.0942 11.7165 84.3915C11.5973 84.3475 11.5 84.2033 11.5 84.0776V83.6134C11.5 83.4252 11.6475 83.3155 11.8294 83.3748C14.2482 84.1469 16.0019 86.4149 16.0019 89.091C15.9989 91.7608 14.2482 94.0258 11.8294 94.8006Z" fill="white"/>
<path d="M36.4801 84.5909H37.8011V91.8139C37.8011 92.5597 37.6254 93.2255 37.2738 93.8114C36.9258 94.3938 36.4339 94.8537 35.7983 95.1911C35.1626 95.5249 34.4169 95.6918 33.5611 95.6918C32.7053 95.6918 31.9595 95.5249 31.3239 95.1911C30.6882 94.8537 30.1946 94.3938 29.843 93.8114C29.495 93.2255 29.321 92.5597 29.321 91.8139V84.5909H30.642V91.7074C30.642 92.2401 30.7592 92.7141 30.9936 93.1296C31.228 93.5415 31.5618 93.8665 31.995 94.1044C32.4318 94.3388 32.9538 94.456 33.5611 94.456C34.1683 94.456 34.6903 94.3388 35.1271 94.1044C35.5639 93.8665 35.8977 93.5415 36.1286 93.1296C36.3629 92.7141 36.4801 92.2401 36.4801 91.7074V84.5909ZM46.2551 87.3182C46.1912 86.7784 45.9319 86.3594 45.4774 86.0611C45.0229 85.7628 44.4653 85.6136 43.8048 85.6136C43.3219 85.6136 42.8993 85.6918 42.5371 85.848C42.1784 86.0043 41.8979 86.2191 41.6954 86.4925C41.4966 86.766 41.3971 87.0767 41.3971 87.4247C41.3971 87.7159 41.4664 87.9663 41.6049 88.1758C41.7469 88.3817 41.928 88.554 42.1482 88.6925C42.3684 88.8274 42.5992 88.9393 42.8407 89.0281C43.0822 89.1133 43.3041 89.1825 43.5065 89.2358L44.6145 89.5341C44.8986 89.6087 45.2146 89.7116 45.5626 89.843C45.9142 89.9744 46.2498 90.1538 46.5694 90.381C46.8925 90.6048 47.1589 90.8924 47.3684 91.244C47.5779 91.5955 47.6827 92.027 47.6827 92.5384C47.6827 93.1278 47.5282 93.6605 47.2192 94.1364C46.9138 94.6122 46.4664 94.9904 45.8769 95.271C45.291 95.5515 44.579 95.6918 43.7409 95.6918C42.9596 95.6918 42.2832 95.5657 41.7114 95.3136C41.1432 95.0614 40.6958 94.7099 40.3691 94.2589C40.0459 93.8079 39.8631 93.2841 39.8204 92.6875H41.1841C41.2196 93.0994 41.3581 93.4403 41.5996 93.7102C41.8446 93.9766 42.1535 94.1754 42.5264 94.3068C42.9028 94.4347 43.3077 94.4986 43.7409 94.4986C44.2452 94.4986 44.6979 94.4169 45.0992 94.2536C45.5005 94.0866 45.8183 93.8558 46.0527 93.5611C46.2871 93.2628 46.4042 92.9148 46.4042 92.517C46.4042 92.1548 46.303 91.8601 46.1006 91.6328C45.8982 91.4055 45.6319 91.2209 45.3016 91.0788C44.9714 90.9368 44.6145 90.8125 44.2309 90.706L42.8886 90.3224C42.0363 90.0774 41.3616 89.7276 40.8645 89.2731C40.3673 88.8185 40.1187 88.2237 40.1187 87.4886C40.1187 86.8778 40.2839 86.3452 40.6141 85.8906C40.9479 85.4325 41.3954 85.0774 41.9564 84.8253C42.5211 84.5696 43.1514 84.4418 43.8474 84.4418C44.5506 84.4418 45.1756 84.5678 45.7224 84.82C46.2693 85.0685 46.7025 85.4094 47.0221 85.8427C47.3453 86.2759 47.5158 86.7678 47.5335 87.3182H46.2551ZM53.0711 95.5H49.7046V84.5909H53.2202C54.2785 84.5909 55.184 84.8093 55.9369 85.2461C56.6897 85.6793 57.2668 86.3026 57.668 87.1158C58.0693 87.9254 58.27 88.8949 58.27 90.0241C58.27 91.1605 58.0675 92.1388 57.6627 92.9592C57.2579 93.7759 56.6684 94.4045 55.8942 94.8448C55.1201 95.2816 54.179 95.5 53.0711 95.5ZM51.0256 94.3281H52.9859C53.8879 94.3281 54.6354 94.1541 55.2284 93.8061C55.8214 93.4581 56.2636 92.9627 56.5548 92.32C56.846 91.6772 56.9915 90.9119 56.9915 90.0241C56.9915 89.1435 56.8477 88.3853 56.5601 87.7496C56.2724 87.1104 55.8428 86.6204 55.271 86.2795C54.6993 85.935 53.9873 85.7628 53.135 85.7628H51.0256V94.3281ZM69.1143 88H67.7933C67.7151 87.62 67.5784 87.2862 67.3831 86.9986C67.1913 86.7109 66.957 86.4695 66.68 86.2741C66.4065 86.0753 66.1029 85.9261 65.7691 85.8267C65.4353 85.7273 65.0873 85.6776 64.7251 85.6776C64.0646 85.6776 63.4662 85.8445 62.93 86.1783C62.3973 86.5121 61.9729 87.0039 61.6569 87.6538C61.3444 88.3036 61.1881 89.1009 61.1881 90.0455C61.1881 90.9901 61.3444 91.7873 61.6569 92.4371C61.9729 93.087 62.3973 93.5788 62.93 93.9126C63.4662 94.2464 64.0646 94.4134 64.7251 94.4134C65.0873 94.4134 65.4353 94.3636 65.7691 94.2642C66.1029 94.1648 66.4065 94.0174 66.68 93.8221C66.957 93.6232 67.1913 93.38 67.3831 93.0923C67.5784 92.8011 67.7151 92.4673 67.7933 92.0909H69.1143C69.0148 92.6484 68.8337 93.1474 68.571 93.5877C68.3082 94.0281 67.9815 94.4027 67.5908 94.7116C67.2002 95.017 66.7616 95.2496 66.2751 95.4094C65.7922 95.5692 65.2755 95.6491 64.7251 95.6491C63.7947 95.6491 62.9673 95.4219 62.2428 94.9673C61.5184 94.5128 60.9484 93.8665 60.533 93.0284C60.1175 92.1903 59.9097 91.196 59.9097 90.0455C59.9097 88.8949 60.1175 87.9006 60.533 87.0625C60.9484 86.2244 61.5184 85.5781 62.2428 85.1236C62.9673 84.669 63.7947 84.4418 64.7251 84.4418C65.2755 84.4418 65.7922 84.5217 66.2751 84.6815C66.7616 84.8413 67.2002 85.0756 67.5908 85.3846C67.9815 85.69 68.3082 86.0629 68.571 86.5032C68.8337 86.94 69.0148 87.4389 69.1143 88Z" fill="#98A5AF"/>
<path d="M120 15C120 19.4184 116.418 23 112 23C107.582 23 104 19.4184 104 15C104 10.5817 107.582 7 112 7C116.418 7 120 10.5817 120 15Z" fill="#1BA27A"/>
<path d="M115.754 11.0342H108.179V12.863H111.052V15.551H112.881V12.863H115.754V11.0342Z" fill="white"/>
<path d="M111.984 15.8373C109.608 15.8373 107.681 15.4612 107.681 14.9971C107.681 14.5331 109.607 14.1568 111.984 14.1568C114.361 14.1568 116.288 14.5331 116.288 14.9971C116.288 15.4612 114.361 15.8373 111.984 15.8373ZM116.817 15.1372C116.817 14.5388 114.653 14.0537 111.984 14.0537C109.316 14.0537 107.152 14.5388 107.152 15.1372C107.152 15.6641 108.83 16.1032 111.053 16.2004V20.0592H112.881V16.202C115.122 16.1077 116.817 15.6668 116.817 15.1372Z" fill="white"/>
<path d="M138.48 10.5909V17.7074C138.48 19.3054 137.383 20.456 135.561 20.456C133.739 20.456 132.642 19.3054 132.642 17.7074V10.5909H131.321V17.8139C131.321 20.0511 132.994 21.6918 135.561 21.6918C138.129 21.6918 139.801 20.0511 139.801 17.8139V10.5909H138.48ZM148.255 13.3182H149.534C149.475 11.6722 147.957 10.4418 145.847 10.4418C143.759 10.4418 142.119 11.6562 142.119 13.4886C142.119 14.9588 143.184 15.8324 144.889 16.3224L146.231 16.706C147.382 17.0256 148.404 17.4304 148.404 18.517C148.404 19.7102 147.254 20.4986 145.741 20.4986C144.441 20.4986 143.291 19.9233 143.184 18.6875H141.82C141.948 20.4773 143.397 21.6918 145.741 21.6918C148.255 21.6918 149.683 20.3068 149.683 18.5384C149.683 16.4929 147.744 15.8324 146.614 15.5341L145.507 15.2358C144.697 15.0227 143.397 14.5966 143.397 13.4247C143.397 12.3807 144.356 11.6136 145.805 11.6136C147.126 11.6136 148.127 12.2422 148.255 13.3182ZM155.071 21.5C158.395 21.5 160.27 19.4332 160.27 16.0241C160.27 12.6364 158.395 10.5909 155.22 10.5909H151.705V21.5H155.071ZM153.026 20.3281V11.7628H155.135C157.692 11.7628 158.992 13.3821 158.992 16.0241C158.992 18.6875 157.692 20.3281 154.986 20.3281H153.026ZM161.285 11.7628H164.716V21.5H166.037V11.7628H169.467V10.5909H161.285V11.7628Z" fill="#98A5AF"/>
<path d="M112 60C116.418 60 120 56.4183 120 52C120 47.5817 116.418 44 112 44C107.582 44 104 47.5817 104 52C104 56.4183 107.582 60 112 60Z" fill="white"/>
<path d="M112 44C110.418 44 108.871 44.4692 107.555 45.3482C106.24 46.2273 105.214 47.4767 104.609 48.9385C104.003 50.4003 103.845 52.0089 104.154 53.5607C104.462 55.1125 105.224 56.538 106.343 57.6568C107.462 58.7756 108.887 59.5376 110.439 59.8462C111.991 60.1549 113.6 59.9965 115.061 59.391C116.523 58.7855 117.773 57.7601 118.652 56.4445C119.531 55.1289 120 53.5822 120 52C120.003 50.9525 119.8 49.9146 119.402 48.9456C119.004 47.9767 118.419 47.0956 117.68 46.3528C116.942 45.6099 116.064 45.0198 115.097 44.6161C114.131 44.2124 113.094 44.003 112.046 44H112ZM112.136 52.2712L111.303 55.0799H115.758C115.787 55.0788 115.817 55.0836 115.844 55.094C115.872 55.1043 115.897 55.12 115.919 55.1402C115.941 55.1603 115.958 55.1845 115.97 55.2114C115.982 55.2383 115.989 55.2673 115.99 55.2968V55.3704L115.603 56.707C115.586 56.7702 115.548 56.8257 115.495 56.8644C115.442 56.9032 115.378 56.9228 115.312 56.9201H108.494L109.637 53.0266L108.358 53.414L108.649 52.523L109.927 52.1356L111.535 46.6731C111.553 46.6103 111.591 46.5551 111.644 46.5165C111.696 46.4779 111.76 46.458 111.826 46.46H113.55C113.579 46.459 113.609 46.4638 113.636 46.4741C113.664 46.4845 113.689 46.5002 113.711 46.5203C113.732 46.5405 113.75 46.5647 113.762 46.5916C113.774 46.6185 113.781 46.6475 113.782 46.677V46.7506L112.426 51.3608L113.705 50.9733L113.433 51.9031L112.136 52.2712Z" fill="#345D9D"/>
<path d="M131.321 58.5H137.713V57.3281H132.642V47.5909H131.321V58.5ZM137.562 48.7628H140.992V58.5H142.313V48.7628H145.744V47.5909H137.562V48.7628ZM155.957 51C155.552 48.7628 153.762 47.4418 151.567 47.4418C148.776 47.4418 146.752 49.5938 146.752 53.0455C146.752 56.4972 148.776 58.6491 151.567 58.6491C153.762 58.6491 155.552 57.3281 155.957 55.0909H154.636C154.316 56.6037 153.016 57.4134 151.567 57.4134C149.586 57.4134 148.031 55.8793 148.031 53.0455C148.031 50.2116 149.586 48.6776 151.567 48.6776C153.016 48.6776 154.316 49.4872 154.636 51H155.957Z" fill="#98A5AF"/>
<path d="M112 81L110.519 81.844L106.481 84.156L105 85V93L106.481 93.844L110.556 96.156L112.037 97L113.519 96.156L117.519 93.844L119 93V85L117.519 84.156L113.481 81.844L112 81ZM107.963 91.3119V86.6881L112 84.3761L116.037 86.6881V91.3119L112 93.6239L107.963 91.3119Z" fill="#2A5ADA"/>
<path d="M131.321 95.5H137.713V94.3281H132.642V84.5909H131.321V95.5ZM140.93 84.5909H139.609V95.5H140.93V84.5909ZM152.079 84.5909H150.779V93.1776H150.673L144.707 84.5909H143.428V95.5H144.749V86.9347H144.856L150.8 95.5H152.079V84.5909ZM154.572 95.5H155.893V91.9631L157.257 90.429L161.049 95.5H162.647L158.067 89.5128L162.647 84.5909H160.922L156.021 90.0028H155.893V84.5909H154.572V95.5Z" fill="#98A5AF"/>
<path d="M205 10H221V19.9944L205 19.9945V10Z" fill="white"/>
<path d="M205 10.0001H209.57C208.774 10.5629 208.13 11.3096 207.68 12.1809C207.231 13.052 206.998 14.0152 206.998 14.9946C206.998 15.974 207.231 16.9427 207.68 17.8139C208.13 18.6852 208.774 19.4319 209.57 19.9945H205V10V10.0001ZM212.997 10.0001C211.692 10.0001 210.442 10.525 209.516 11.4611C208.595 12.3972 208.075 13.6689 208.075 14.9946C208.075 16.3203 208.595 17.592 209.516 18.5282C210.436 19.4643 211.692 19.9892 212.997 19.9892C214.302 19.9892 215.553 19.4643 216.479 18.5282C217.399 17.592 217.919 16.3205 217.919 14.9946C217.919 13.6689 217.399 12.3972 216.479 11.4611C215.558 10.525 214.302 10.0001 212.997 10.0001ZM221 10.0001H216.43C217.226 10.5629 217.87 11.3096 218.32 12.1809C218.769 13.052 219.002 14.0152 219.002 15.0001C219.002 15.9795 218.769 16.9481 218.32 17.8194C217.87 18.6905 217.226 19.4372 216.43 20H221V10.0001Z" fill="#F7931A"/>
<path d="M215.174 13.5314C214.952 12.8983 214.345 12.8225 213.636 12.9362L213.414 12.0378L212.873 12.1731L213.089 13.0498C212.948 13.0877 212.802 13.1255 212.661 13.1634L212.445 12.2814L211.903 12.4167L212.125 13.3149C212.012 13.3473 211.893 13.3799 211.784 13.4069V13.4016L211.037 13.591L211.183 14.1755C211.183 14.1755 211.579 14.0672 211.573 14.0781C211.79 14.024 211.893 14.1322 211.941 14.2404L212.196 15.2686C212.218 15.2632 212.234 15.2577 212.255 15.2577L212.196 15.274L212.548 16.7134C212.553 16.7837 212.542 16.9082 212.391 16.9461C212.402 16.9514 211.995 17.0435 211.995 17.0435L212.05 17.7252L212.753 17.5466C212.883 17.5142 213.013 17.4818 213.138 17.4546L213.36 18.3637L213.901 18.2284L213.679 17.3247C213.831 17.2922 213.972 17.2543 214.112 17.2219L214.334 18.1201L214.876 17.9848L214.654 17.0758C215.547 16.7944 216.127 16.3994 215.991 15.5119C215.883 14.7976 215.482 14.5704 214.935 14.5758C215.211 14.3322 215.336 13.9968 215.174 13.5314H215.174ZM214.898 15.6688C215.065 16.3506 213.896 16.5616 213.533 16.6536L213.235 15.4469C213.604 15.3604 214.724 14.9653 214.898 15.6688ZM214.232 14.0345C214.383 14.6514 213.409 14.8245 213.105 14.9003L212.835 13.8073C213.138 13.7262 214.069 13.3852 214.232 14.0345H214.232Z" fill="white"/>
<path d="M232.321 21.5H236.263C238.841 21.5 239.906 20.2429 239.906 18.6023C239.906 16.8764 238.713 15.9389 237.712 15.875V15.7685C238.649 15.5128 239.48 14.8949 239.48 13.4886C239.48 11.8906 238.415 10.5909 236.135 10.5909H232.321V21.5ZM233.642 20.3281V16.5355H236.327C237.754 16.5355 238.649 17.4943 238.649 18.6023C238.649 19.5611 237.989 20.3281 236.263 20.3281H233.642ZM233.642 15.3849V11.7628H236.135C237.584 11.7628 238.223 12.5298 238.223 13.4886C238.223 14.6392 237.286 15.3849 236.092 15.3849H233.642ZM250.705 14C250.3 11.7628 248.511 10.4418 246.316 10.4418C243.525 10.4418 241.501 12.5938 241.501 16.0455C241.501 19.4972 243.525 21.6491 246.316 21.6491C248.511 21.6491 250.3 20.3281 250.705 18.0909H249.384C249.065 19.6037 247.765 20.4134 246.316 20.4134C244.335 20.4134 242.779 18.8793 242.779 16.0455C242.779 13.2116 244.335 11.6776 246.316 11.6776C247.765 11.6776 249.065 12.4872 249.384 14H250.705ZM252.69 21.5H254.011V16.6207H259.828V21.5H261.149V10.5909H259.828V15.4489H254.011V10.5909H252.69V21.5Z" fill="#98A5AF"/>
<path d="M212.804 45.0426C213.152 44.8655 213.578 45.2764 213.393 45.6157C213.285 45.8923 212.877 45.9659 212.669 45.7551C212.448 45.5526 212.52 45.1527 212.804 45.0426ZM209.053 45.4363C209.265 45.3514 209.533 45.5404 209.511 45.7653C209.534 46.0094 209.227 46.1892 209.011 46.0732C208.725 45.9653 208.758 45.5129 209.053 45.4364V45.4363ZM216.735 46.08C216.404 46.0411 216.352 45.5341 216.67 45.4317C216.918 45.3143 217.144 45.5345 217.18 45.7627C217.129 45.9576 216.961 46.1361 216.735 46.0797V46.08ZM209.906 46.991C210.26 46.7728 210.766 47.0977 210.711 47.4984C210.693 47.903 210.141 48.1374 209.83 47.8638C209.529 47.649 209.575 47.1561 209.906 46.9911V46.991ZM215.313 47.2226C215.471 46.8264 216.111 46.814 216.291 47.2005C216.469 47.5009 216.25 47.873 215.933 47.9751C215.514 48.0514 215.115 47.6097 215.313 47.223L215.313 47.2226ZM212.352 47.9525C212.349 47.6116 212.667 47.3575 213 47.3344C213.221 47.3774 213.461 47.469 213.556 47.6859C213.732 47.9851 213.576 48.3969 213.257 48.5342C213.111 48.6138 212.939 48.5841 212.78 48.5747C212.537 48.4587 212.333 48.2311 212.352 47.9525L212.352 47.9525ZM206.774 48.4492C207.098 48.2554 207.534 48.609 207.412 48.9513C207.344 49.2474 206.935 49.3678 206.702 49.1788C206.452 49.0017 206.492 48.5759 206.774 48.4492ZM218.752 48.4486C219.027 48.241 219.479 48.4791 219.447 48.8163C219.465 49.1242 219.074 49.3562 218.801 49.1978C218.501 49.0664 218.47 48.6167 218.752 48.4483V48.4486ZM213.921 49.0611C214.374 48.9026 214.912 49.0923 215.17 49.4856C215.51 49.9665 215.329 50.6987 214.801 50.9746C214.253 51.301 213.453 51.0245 213.251 50.4288C213.022 49.8955 213.356 49.2282 213.921 49.0611ZM211.263 49.1139C211.765 48.8832 212.441 49.0765 212.683 49.5769C212.969 50.0637 212.748 50.7416 212.238 50.993C211.727 51.2755 211.006 51.0615 210.759 50.5386C210.482 50.0332 210.728 49.3466 211.263 49.1139ZM208.602 50C208.64 49.6849 208.945 49.48 209.253 49.4587C209.585 49.4977 209.85 49.7486 209.886 50.0759C209.864 50.3995 209.607 50.7159 209.255 50.7139C208.868 50.7464 208.528 50.3711 208.602 50.0002V50ZM216.462 49.5275C216.86 49.302 217.412 49.6303 217.394 50.0754C217.422 50.5469 216.81 50.8795 216.414 50.6027C216.003 50.3723 216.035 49.7237 216.462 49.5275V49.5275ZM210.181 51.1893C210.647 51.0646 211.179 51.2782 211.407 51.6947C211.656 52.1139 211.555 52.6963 211.166 53.0038C210.669 53.4548 209.75 53.2737 209.485 52.6582C209.181 52.094 209.551 51.3378 210.181 51.1893V51.1893ZM215.222 51.187C215.674 51.061 216.206 51.2306 216.449 51.632C216.77 52.091 216.617 52.7755 216.138 53.0714C215.637 53.4149 214.861 53.2345 214.585 52.6974C214.25 52.1417 214.587 51.3564 215.222 51.187ZM207.189 51.7106C207.591 51.5625 208.037 51.9945 207.874 52.3825C207.774 52.736 207.263 52.8669 206.999 52.606C206.69 52.3613 206.804 51.8167 207.189 51.7106H207.189ZM218.082 52.2737C218.07 51.9496 218.314 51.6622 218.655 51.6441C218.93 51.6866 219.198 51.9028 219.176 52.1946C219.201 52.5801 218.724 52.842 218.387 52.6609C218.229 52.5827 218.148 52.4248 218.082 52.2735V52.2737ZM205.214 51.9006C205.455 51.7979 205.754 52.0019 205.699 52.2634C205.686 52.5595 205.237 52.6734 205.073 52.426C204.927 52.2545 205.014 51.9895 205.214 51.9006ZM220.457 51.8944C220.627 51.7763 220.901 51.8612 220.968 52.0549C221.082 52.2665 220.873 52.5564 220.628 52.5206C220.285 52.5511 220.174 52.0416 220.457 51.8944ZM211.495 53.3157C212.131 53.1546 212.815 53.671 212.819 54.3093C212.86 54.954 212.187 55.5257 211.536 55.3768C211.032 55.2979 210.637 54.8256 210.654 54.3302C210.652 53.8564 211.019 53.4159 211.495 53.3157H211.495ZM214.014 53.3144C214.66 53.1386 215.364 53.6645 215.354 54.3173C215.388 54.9501 214.735 55.5026 214.098 55.377C213.498 55.3015 213.055 54.6594 213.223 54.0923C213.307 53.7144 213.631 53.4071 214.014 53.3144ZM209.157 53.7071C209.603 53.6329 210.022 54.1185 209.841 54.5316C209.709 54.9719 209.051 55.0914 208.76 54.7317C208.419 54.3863 208.674 53.7548 209.157 53.7071ZM216.545 53.7271C216.943 53.5646 217.432 53.9002 217.402 54.3214C217.418 54.7851 216.814 55.1048 216.424 54.8342C215.983 54.591 216.063 53.8762 216.545 53.7271ZM218.61 55.7446C218.454 55.4614 218.737 55.086 219.06 55.1384C219.221 55.1358 219.333 55.2591 219.436 55.3628C219.457 55.5307 219.493 55.7306 219.35 55.8603C219.156 56.0997 218.716 56.0314 218.61 55.7449V55.7446ZM206.773 55.2173C207.075 55.0217 207.509 55.3135 207.441 55.6571C207.405 55.961 207.012 56.1347 206.753 55.9626C206.475 55.806 206.485 55.3603 206.773 55.2176V55.2173ZM212.734 55.8538C213.129 55.684 213.633 56.019 213.595 56.4428C213.625 56.9111 213.002 57.2354 212.616 56.954C212.187 56.7125 212.259 56.0021 212.735 55.8536L212.734 55.8538ZM209.973 56.4809C210.309 56.3085 210.761 56.6063 210.73 56.9734C210.74 57.2745 210.439 57.5312 210.133 57.4867C209.881 57.4814 209.716 57.2607 209.635 57.0509C209.639 56.8222 209.736 56.5675 209.973 56.4812V56.4809ZM215.566 56.4865C215.912 56.2782 216.404 56.5774 216.371 56.9696C216.38 57.3795 215.824 57.6422 215.502 57.3729C215.19 57.1618 215.228 56.6544 215.566 56.4865ZM216.539 58.8286C216.385 58.6017 216.566 58.3284 216.816 58.2768C217.017 58.3166 217.229 58.4638 217.187 58.6907C217.158 58.9977 216.697 59.092 216.539 58.8286ZM208.818 58.6316C208.879 58.4518 209.028 58.2731 209.245 58.3199C209.562 58.3418 209.656 58.8067 209.378 58.9501C209.129 59.1138 208.84 58.8896 208.818 58.6316ZM212.543 58.8379C212.603 58.5719 212.957 58.4426 213.19 58.5838C213.343 58.6482 213.389 58.816 213.428 58.9585C213.407 59.0328 213.388 59.1071 213.37 59.1814C213.274 59.2915 213.152 59.4016 212.993 59.3976C212.698 59.4313 212.432 59.1065 212.543 58.8379Z" fill="#3CC8C8"/>
<path d="M232.768 58.5L233.866 55.4105H238.276L239.374 58.5H240.759L236.753 47.5909H235.389L231.384 58.5H232.768ZM234.281 54.2386L236.028 49.3168H236.114L237.861 54.2386H234.281ZM245.674 58.5C248.998 58.5 250.873 56.4332 250.873 53.0241C250.873 49.6364 248.998 47.5909 245.823 47.5909H242.308V58.5H245.674ZM243.629 57.3281V48.7628H245.738C248.295 48.7628 249.595 50.3821 249.595 53.0241C249.595 55.6875 248.295 57.3281 245.589 57.3281H243.629ZM252.874 58.5L253.971 55.4105H258.382L259.479 58.5H260.864L256.858 47.5909H255.494L251.489 58.5H252.874ZM254.387 54.2386L256.134 49.3168H256.219L257.966 54.2386H254.387Z" fill="#98A5AF"/>
<path fill-rule="evenodd" clip-rule="evenodd" d="M213.179 81C216.611 81.0292 219.211 83.2329 219.714 86.1619C220.283 89.4735 217.947 92.6307 214.509 93.2011C214.045 93.2781 213.571 93.3083 213.1 93.3342C212.145 93.3865 211.179 94.0086 210.955 95.2287C210.891 95.5787 210.805 95.9251 210.727 96.2729C210.614 96.778 210.169 97.078 209.677 96.9823C209.168 96.8833 208.874 96.4451 208.984 95.9307C209.125 95.2731 209.276 94.6176 209.422 93.9611C209.934 91.6668 210.446 89.3728 210.956 87.078C211.073 86.5497 211.397 86.2612 211.884 86.2703C212.424 86.2804 212.838 86.7594 212.727 87.268C212.46 88.4863 212.182 89.7023 211.909 90.9194C211.856 91.1548 211.808 91.391 211.754 91.6263C211.733 91.721 211.75 91.7686 211.867 91.7559C212.591 91.6773 213.318 91.6121 214.04 91.5239C215.965 91.2889 217.577 89.8149 217.925 87.984C218.39 85.539 216.748 83.2511 214.204 82.798C211.665 82.3457 209.166 84.0942 208.827 86.5573C208.733 87.2351 208.797 87.8965 209.019 88.5448C209.191 89.0467 208.954 89.5446 208.472 89.6919C207.969 89.8458 207.481 89.5855 207.313 89.073C206.162 85.5715 208.283 81.9883 212.009 81.1591C212.461 81.0586 212.931 81.0326 213.179 81Z" fill="black"/>
<path fill-rule="evenodd" clip-rule="evenodd" d="M212.568 95.969C212.57 95.3947 213.026 94.9575 213.624 94.9574C214.228 94.9573 214.696 95.4086 214.687 95.9829C214.679 96.5555 214.218 96.9959 213.626 96.9962C213.021 96.9965 212.566 96.555 212.568 95.969Z" fill="#E6027A"/>
<path d="M235.688 95.5C239.011 95.5 240.886 93.4332 240.886 90.0241C240.886 86.6364 239.011 84.5909 235.837 84.5909H232.321V95.5H235.688ZM233.642 94.3281V85.7628H235.751C238.308 85.7628 239.608 87.3821 239.608 90.0241C239.608 92.6875 238.308 94.3281 235.602 94.3281H233.642ZM252.157 90.0455C252.157 86.5938 250.133 84.4418 247.341 84.4418C244.55 84.4418 242.526 86.5938 242.526 90.0455C242.526 93.4972 244.55 95.6491 247.341 95.6491C250.133 95.6491 252.157 93.4972 252.157 90.0455ZM250.878 90.0455C250.878 92.8793 249.323 94.4134 247.341 94.4134C245.36 94.4134 243.805 92.8793 243.805 90.0455C243.805 87.2116 245.36 85.6776 247.341 85.6776C249.323 85.6776 250.878 87.2116 250.878 90.0455ZM253.177 85.7628H256.608V95.5H257.929V85.7628H261.359V84.5909H253.177V85.7628Z" fill="#98A5AF"/>
</svg>
