<svg width="264" height="35" viewBox="0 0 264 35" fill="none" xmlns="http://www.w3.org/2000/svg">
<path d="M25.3501 24.2822C27.8984 24.2822 29.791 22.8628 30.1895 20.6714V20.6548H28.6787L28.6621 20.6714C28.2886 22.0493 27.0186 22.9043 25.3501 22.9043C23.0425 22.9043 21.5981 21.02 21.5981 18.0234V18.0068C21.5981 15.0103 23.0425 13.1177 25.3418 13.1177C26.9937 13.1177 28.272 14.0889 28.6704 15.6245L28.6787 15.6411H30.1812L30.1895 15.6245C29.8325 13.3252 27.8652 11.7397 25.3418 11.7397C22.0879 11.7397 20.0625 14.147 20.0625 18.0068V18.0234C20.0625 21.875 22.0962 24.2822 25.3501 24.2822ZM32.1967 24H33.641V18.7041C33.641 17.1353 34.5458 16.1724 35.9735 16.1724C37.4013 16.1724 38.0653 16.9443 38.0653 18.5547V24H39.5097V18.2061C39.5097 16.0811 38.3891 14.894 36.3803 14.894C35.0604 14.894 34.2221 15.4502 33.7738 16.3965H33.641V11.499H32.1967V24ZM44.1814 24.1577C45.3851 24.1577 46.323 23.6348 46.8875 22.6802H47.0203V24H48.4646V17.874C48.4646 16.0146 47.2444 14.894 45.0613 14.894C43.1521 14.894 41.7908 15.8403 41.5584 17.2432L41.5501 17.293H42.9944L43.0027 17.2681C43.2352 16.5708 43.9407 16.1724 45.0115 16.1724C46.3479 16.1724 47.0203 16.77 47.0203 17.874V18.6875L44.4554 18.8452C42.3719 18.9697 41.1932 19.8911 41.1932 21.4849V21.5015C41.1932 23.1284 42.4798 24.1577 44.1814 24.1577ZM42.6707 21.4683V21.4517C42.6707 20.5635 43.2684 20.082 44.6297 19.999L47.0203 19.8496V20.6631C47.0203 21.9414 45.9495 22.9043 44.4803 22.9043C43.4427 22.9043 42.6707 22.373 42.6707 21.4683ZM53.8835 24.0664C54.1657 24.0664 54.4396 24.0332 54.7219 23.9834V22.7549C54.4562 22.7798 54.3151 22.7881 54.0578 22.7881C53.1281 22.7881 52.7629 22.3647 52.7629 21.3105V16.2471H54.7219V15.0518H52.7629V12.7358H51.2687V15.0518H49.8576V16.2471H51.2687V21.6758C51.2687 23.3857 52.0407 24.0664 53.8835 24.0664ZM59.3854 24.1577C61.419 24.1577 62.9713 23.0537 62.9713 21.46V21.4434C62.9713 20.165 62.1578 19.4346 60.4728 19.0278L59.0948 18.6958C58.0406 18.4385 57.5924 18.0566 57.5924 17.4507V17.4341C57.5924 16.6455 58.3727 16.0977 59.4352 16.0977C60.5143 16.0977 61.2115 16.5874 61.4024 17.293H62.8219C62.6227 15.832 61.3194 14.894 59.4435 14.894C57.5426 14.894 56.1148 16.0146 56.1148 17.5005V17.5088C56.1148 18.7954 56.8702 19.5259 58.547 19.9243L59.9332 20.2563C61.0372 20.522 61.4938 20.9453 61.4938 21.5513V21.5679C61.4938 22.3813 60.6388 22.9541 59.4352 22.9541C58.2896 22.9541 57.5758 22.4644 57.3351 21.7173H55.8575C56.0235 23.1948 57.3932 24.1577 59.3854 24.1577Z" fill="#037EE5"/>
<path d="M3.60206 17.5L11.4062 9.55085C11.9866 8.9597 11.9778 8.00999 11.3867 7.42962C10.7955 6.84925 9.84583 6.85799 9.26546 7.44915L0.429623 16.4491C-0.143208 17.0326 -0.143208 17.9674 0.429623 18.5509L9.26546 27.5509C9.84583 28.142 10.7955 28.1507 11.3867 27.5704C11.9778 26.99 11.9866 26.0403 11.4062 25.4491L3.60206 17.5Z" fill="#007AFF"/>
<path d="M264 17.5004C264 27.1691 256.165 35 246.5 35C243.335 35.0018 240.228 34.1446 237.512 32.5199C234.795 30.8952 232.571 28.5637 231.075 25.7741C230.799 25.2603 230.55 24.7329 230.329 24.1939C229.45 22.0719 228.998 19.7972 229 17.5004C229 7.83461 236.835 0 246.5 0C254.25 0 260.827 5.04028 263.125 12.0232C263.311 12.5865 263.468 13.159 263.595 13.7384C263.865 14.9741 264.001 16.2354 264 17.5004Z" fill="#002855"/>
<path d="M254.445 14.1306C254.984 14.462 255.331 13.5077 255.438 13.008C255.546 12.5084 255.604 11.4994 254.902 11.7024C254.237 11.8958 253.627 12.2877 253.733 13.0309C253.838 13.7741 253.989 14.1424 254.445 14.1306Z" fill="#30DFC4"/>
<path d="M263.127 12.0231C263.123 12.0298 263.12 12.0371 263.115 12.0438C261.968 13.9694 260.57 15.7338 258.958 17.2907C256.992 19.1647 255.225 20.1315 254.422 20.1205C253.979 20.1205 253.636 19.375 254.403 17.0206C254.613 16.3785 254.062 15.8301 253.471 15.7327C253.028 15.6588 252.611 15.8471 252.181 16.4117C250.641 18.4369 249.07 20.4445 247.356 22.0365C247.16 22.2181 246.85 22.5089 246.747 22.5089C246.619 22.5089 246.583 22.3148 246.583 22.0771C246.583 21.5966 246.744 19.8127 246.777 19.1137C246.807 18.4805 246.524 18.0376 246.057 17.8162C245.403 17.5077 244.769 17.5645 244.049 17.9565C242.366 18.8754 239.483 22.4535 238.57 23.5053C238.503 23.5857 238.381 23.7474 238.297 23.7149C238.214 23.6824 238.248 23.5104 238.264 23.4256C238.402 22.7 238.513 22.1878 238.647 21.4852C238.663 21.4047 238.692 21.2637 238.708 21.2202C238.731 21.1745 238.764 21.1339 238.803 21.1006C239.7 20.2637 242.293 17.8745 244.475 15.1437C246.01 13.2247 247.342 11.1345 247.735 9.30258C247.908 8.49956 247.77 6.8795 246.246 6.66989C244.343 6.40861 242.09 8.73648 240.216 12.0445C238.477 15.1223 237.598 18.4738 237.148 20.009C237.104 20.1573 237.015 20.2881 236.893 20.3832C236.176 20.8999 233.296 23.1215 230.324 24.1939C230.548 24.7337 230.798 25.2619 231.076 25.7763C233.355 25.0611 235.192 23.7577 235.868 23.3126C236.016 23.2137 236.238 23.0573 236.291 23.0587C236.344 23.0602 236.26 23.4573 236.176 23.9215C236.123 24.2168 235.881 25.4877 235.947 26.4723C235.978 26.9447 236.134 27.4163 236.606 27.5639C237.129 27.7292 237.616 27.4414 237.867 27.1211C238.679 26.0686 242.812 21.2667 244.16 20.1766C244.246 20.1065 244.307 20.0755 244.349 20.0917C244.39 20.1079 244.407 20.1714 244.403 20.2924C244.385 20.8091 244.28 21.497 244.27 22.0092C244.251 23.4661 245.249 24.4891 246.694 24.4832C248.31 24.4766 250.779 21.2667 251.438 20.4762C251.713 20.1456 251.874 20.0142 251.995 20.0142C252.444 20.0142 252.845 21.8084 254.658 21.8084C256.293 21.8084 258.535 20.3323 260.422 18.3764C261.785 16.9608 262.963 15.2928 263.596 13.7421C263.469 13.1614 263.313 12.5877 263.127 12.0231ZM239.884 17.1424C240.543 15.2839 242.233 11.3891 243.856 9.62586C244.796 8.60658 245.42 8.29733 245.696 8.32538C246.124 8.36524 245.549 9.60076 245.353 10.0539C244.172 12.8084 241.211 16.3275 240.187 17.3217C239.825 17.6723 239.7 17.8184 239.667 17.8081C239.636 17.797 239.786 17.4273 239.884 17.1424Z" fill="white"/>
<path d="M127.831 18.3239C127.838 17.0582 128.611 16.3168 129.723 16.3168C130.829 16.3168 131.481 17.0263 131.475 18.2344V24H134.198V17.7486C134.204 15.4474 132.849 14.054 130.804 14.054C129.314 14.054 128.317 14.7571 127.87 15.9141H127.755V10.9091H125.108V24H127.831V18.3239ZM136.161 24H138.884V14.1818H136.161V24ZM137.529 12.9162C138.34 12.9162 139.005 12.2962 139.005 11.5355C139.005 10.7812 138.34 10.1612 137.529 10.1612C136.723 10.1612 136.058 10.7812 136.058 11.5355C136.058 12.2962 136.723 12.9162 137.529 12.9162Z" fill="black"/>
</svg>
