<svg width="89" height="42" viewBox="0 0 89 42" fill="none" xmlns="http://www.w3.org/2000/svg">
<g filter="url(#filter0_d)">
<rect x="1" width="87" height="40" rx="20" fill="#2F80ED"/>
</g>
<path d="M35.7727 19H34.3636C34.2803 18.5947 34.1345 18.2386 33.9261 17.9318C33.7216 17.625 33.4716 17.3674 33.1761 17.1591C32.8845 16.947 32.5606 16.7879 32.2045 16.6818C31.8485 16.5758 31.4773 16.5227 31.0909 16.5227C30.3864 16.5227 29.7481 16.7008 29.1761 17.0568C28.608 17.4129 28.1553 17.9375 27.8182 18.6307C27.4848 19.3239 27.3182 20.1742 27.3182 21.1818C27.3182 22.1894 27.4848 23.0398 27.8182 23.733C28.1553 24.4261 28.608 24.9508 29.1761 25.3068C29.7481 25.6629 30.3864 25.8409 31.0909 25.8409C31.4773 25.8409 31.8485 25.7879 32.2045 25.6818C32.5606 25.5758 32.8845 25.4186 33.1761 25.2102C33.4716 24.9981 33.7216 24.7386 33.9261 24.4318C34.1345 24.1212 34.2803 23.7652 34.3636 23.3636H35.7727C35.6667 23.9583 35.4735 24.4905 35.1932 24.9602C34.9129 25.4299 34.5644 25.8295 34.1477 26.1591C33.7311 26.4848 33.2633 26.733 32.7443 26.9034C32.2292 27.0739 31.678 27.1591 31.0909 27.1591C30.0985 27.1591 29.2159 26.9167 28.4432 26.4318C27.6705 25.947 27.0625 25.2576 26.6193 24.3636C26.1761 23.4697 25.9545 22.4091 25.9545 21.1818C25.9545 19.9545 26.1761 18.8939 26.6193 18C27.0625 17.1061 27.6705 16.4167 28.4432 15.9318C29.2159 15.447 30.0985 15.2045 31.0909 15.2045C31.678 15.2045 32.2292 15.2898 32.7443 15.4602C33.2633 15.6307 33.7311 15.8807 34.1477 16.2102C34.5644 16.536 34.9129 16.9337 35.1932 17.4034C35.4735 17.8693 35.6667 18.4015 35.7727 19ZM41.1028 27.1818C40.315 27.1818 39.6237 26.9943 39.029 26.6193C38.4381 26.2443 37.976 25.7197 37.6426 25.0455C37.3131 24.3712 37.1483 23.5833 37.1483 22.6818C37.1483 21.7727 37.3131 20.9792 37.6426 20.3011C37.976 19.6231 38.4381 19.0966 39.029 18.7216C39.6237 18.3466 40.315 18.1591 41.1028 18.1591C41.8907 18.1591 42.5801 18.3466 43.171 18.7216C43.7657 19.0966 44.2278 19.6231 44.5574 20.3011C44.8907 20.9792 45.0574 21.7727 45.0574 22.6818C45.0574 23.5833 44.8907 24.3712 44.5574 25.0455C44.2278 25.7197 43.7657 26.2443 43.171 26.6193C42.5801 26.9943 41.8907 27.1818 41.1028 27.1818ZM41.1028 25.9773C41.7013 25.9773 42.1938 25.8239 42.5801 25.517C42.9665 25.2102 43.2525 24.8068 43.4381 24.3068C43.6237 23.8068 43.7165 23.2652 43.7165 22.6818C43.7165 22.0985 43.6237 21.5549 43.4381 21.0511C43.2525 20.5473 42.9665 20.1402 42.5801 19.8295C42.1938 19.5189 41.7013 19.3636 41.1028 19.3636C40.5044 19.3636 40.0119 19.5189 39.6256 19.8295C39.2392 20.1402 38.9532 20.5473 38.7676 21.0511C38.582 21.5549 38.4892 22.0985 38.4892 22.6818C38.4892 23.2652 38.582 23.8068 38.7676 24.3068C38.9532 24.8068 39.2392 25.2102 39.6256 25.517C40.0119 25.8239 40.5044 25.9773 41.1028 25.9773ZM50.3392 27.1818C49.5513 27.1818 48.86 26.9943 48.2654 26.6193C47.6744 26.2443 47.2123 25.7197 46.879 25.0455C46.5494 24.3712 46.3847 23.5833 46.3847 22.6818C46.3847 21.7727 46.5494 20.9792 46.879 20.3011C47.2123 19.6231 47.6744 19.0966 48.2654 18.7216C48.86 18.3466 49.5513 18.1591 50.3392 18.1591C51.1271 18.1591 51.8165 18.3466 52.4074 18.7216C53.0021 19.0966 53.4642 19.6231 53.7938 20.3011C54.1271 20.9792 54.2938 21.7727 54.2938 22.6818C54.2938 23.5833 54.1271 24.3712 53.7938 25.0455C53.4642 25.7197 53.0021 26.2443 52.4074 26.6193C51.8165 26.9943 51.1271 27.1818 50.3392 27.1818ZM50.3392 25.9773C50.9377 25.9773 51.4301 25.8239 51.8165 25.517C52.2029 25.2102 52.4888 24.8068 52.6744 24.3068C52.86 23.8068 52.9529 23.2652 52.9529 22.6818C52.9529 22.0985 52.86 21.5549 52.6744 21.0511C52.4888 20.5473 52.2029 20.1402 51.8165 19.8295C51.4301 19.5189 50.9377 19.3636 50.3392 19.3636C49.7407 19.3636 49.2483 19.5189 48.8619 19.8295C48.4756 20.1402 48.1896 20.5473 48.004 21.0511C47.8184 21.5549 47.7256 22.0985 47.7256 22.6818C47.7256 23.2652 47.8184 23.8068 48.004 24.3068C48.1896 24.8068 48.4756 25.2102 48.8619 25.517C49.2483 25.8239 49.7407 25.9773 50.3392 25.9773ZM57.371 15.3636V27H56.0301V15.3636H57.371ZM61.2892 15.3636L61.1756 23.7273H59.8574L59.7438 15.3636H61.2892ZM60.5165 27.0909C60.2362 27.0909 59.9957 26.9905 59.7949 26.7898C59.5941 26.589 59.4938 26.3485 59.4938 26.0682C59.4938 25.7879 59.5941 25.5473 59.7949 25.3466C59.9957 25.1458 60.2362 25.0455 60.5165 25.0455C60.7968 25.0455 61.0373 25.1458 61.2381 25.3466C61.4388 25.5473 61.5392 25.7879 61.5392 26.0682C61.5392 26.2538 61.4919 26.4242 61.3972 26.5795C61.3063 26.7348 61.1832 26.8598 61.0279 26.9545C60.8763 27.0455 60.7059 27.0909 60.5165 27.0909Z" fill="#FCFDFD"/>
<defs>
<filter id="filter0_d" x="0" y="0" width="89" height="42" filterUnits="userSpaceOnUse" color-interpolation-filters="sRGB">
<feFlood flood-opacity="0" result="BackgroundImageFix"/>
<feColorMatrix in="SourceAlpha" type="matrix" values="0 0 0 0 0 0 0 0 0 0 0 0 0 0 0 0 0 0 127 0"/>
<feOffset dy="1"/>
<feGaussianBlur stdDeviation="0.5"/>
<feColorMatrix type="matrix" values="0 0 0 0 0.14902 0 0 0 0 0.207843 0 0 0 0 0.25098 0 0 0 0.3 0"/>
<feBlend mode="multiply" in2="BackgroundImageFix" result="effect1_dropShadow"/>
<feBlend mode="normal" in="SourceGraphic" in2="effect1_dropShadow" result="shape"/>
</filter>
</defs>
</svg>
