<svg width="265" height="82" viewBox="0 0 265 82" fill="none" xmlns="http://www.w3.org/2000/svg">
<g filter="url(#filter0_d)">
<rect x="1" width="263" height="80" rx="20" fill="#E9EEF1"/>
</g>
<path d="M15.4091 27V15.3636H19.3409C20.25 15.3636 20.9962 15.5189 21.5795 15.8295C22.1629 16.1364 22.5947 16.5587 22.875 17.0966C23.1553 17.6345 23.2955 18.2462 23.2955 18.9318C23.2955 19.6174 23.1553 20.2254 22.875 20.7557C22.5947 21.286 22.1648 21.7027 21.5852 22.0057C21.0057 22.3049 20.2652 22.4545 19.3636 22.4545H16.1818V21.1818H19.3182C19.9394 21.1818 20.4394 21.0909 20.8182 20.9091C21.2008 20.7273 21.4773 20.4697 21.6477 20.1364C21.822 19.7992 21.9091 19.3977 21.9091 18.9318C21.9091 18.4659 21.822 18.0587 21.6477 17.7102C21.4735 17.3617 21.1951 17.0928 20.8125 16.9034C20.4299 16.7102 19.9242 16.6136 19.2955 16.6136H16.8182V27H15.4091ZM20.8864 21.7727L23.75 27H22.1136L19.2955 21.7727H20.8864ZM28.7165 27.1818C27.8756 27.1818 27.1502 26.9962 26.5403 26.625C25.9343 26.25 25.4665 25.7273 25.1369 25.0568C24.8112 24.3826 24.6483 23.5985 24.6483 22.7045C24.6483 21.8106 24.8112 21.0227 25.1369 20.3409C25.4665 19.6553 25.9248 19.1212 26.5119 18.7386C27.1028 18.3523 27.7922 18.1591 28.5801 18.1591C29.0347 18.1591 29.4835 18.2348 29.9267 18.3864C30.3699 18.5379 30.7733 18.7841 31.1369 19.125C31.5006 19.4621 31.7903 19.9091 32.0063 20.4659C32.2222 21.0227 32.3301 21.7083 32.3301 22.5227V23.0909H25.6028V21.9318H30.9665C30.9665 21.4394 30.868 21 30.671 20.6136C30.4778 20.2273 30.2013 19.9223 29.8415 19.6989C29.4854 19.4754 29.065 19.3636 28.5801 19.3636C28.046 19.3636 27.5839 19.4962 27.1938 19.7614C26.8074 20.0227 26.51 20.3636 26.3017 20.7841C26.0934 21.2045 25.9892 21.6553 25.9892 22.1364V22.9091C25.9892 23.5682 26.1028 24.1269 26.3301 24.5852C26.5612 25.0398 26.8813 25.3864 27.2903 25.625C27.6994 25.8598 28.1748 25.9773 28.7165 25.9773C29.0688 25.9773 29.3869 25.928 29.671 25.8295C29.9589 25.7273 30.207 25.5758 30.4153 25.375C30.6237 25.1705 30.7847 24.9167 30.8983 24.6136L32.1938 24.9773C32.0574 25.4167 31.8282 25.803 31.5063 26.1364C31.1843 26.4659 30.7866 26.7235 30.3131 26.9091C29.8396 27.0909 29.3074 27.1818 28.7165 27.1818ZM37.9457 18.2727V19.4091H33.2412V18.2727H37.9457ZM34.6503 27V17.0682C34.6503 16.5682 34.7677 16.1515 35.0026 15.8182C35.2374 15.4848 35.5423 15.2348 35.9173 15.0682C36.2923 14.9015 36.6882 14.8182 37.1048 14.8182C37.4344 14.8182 37.7033 14.8447 37.9117 14.8977C38.12 14.9508 38.2753 15 38.3776 15.0455L37.9912 16.2045C37.923 16.1818 37.8283 16.1534 37.7071 16.1193C37.5897 16.0852 37.4344 16.0682 37.2412 16.0682C36.798 16.0682 36.4779 16.1799 36.281 16.4034C36.0878 16.6269 35.9912 16.9545 35.9912 17.3864V27H34.6503ZM42.8142 27.1818C41.9733 27.1818 41.2479 26.9962 40.6381 26.625C40.032 26.25 39.5642 25.7273 39.2347 25.0568C38.9089 24.3826 38.746 23.5985 38.746 22.7045C38.746 21.8106 38.9089 21.0227 39.2347 20.3409C39.5642 19.6553 40.0226 19.1212 40.6097 18.7386C41.2006 18.3523 41.89 18.1591 42.6779 18.1591C43.1324 18.1591 43.5813 18.2348 44.0244 18.3864C44.4676 18.5379 44.871 18.7841 45.2347 19.125C45.5983 19.4621 45.8881 19.9091 46.104 20.4659C46.3199 21.0227 46.4279 21.7083 46.4279 22.5227V23.0909H39.7006V21.9318H45.0642C45.0642 21.4394 44.9657 21 44.7688 20.6136C44.5756 20.2273 44.2991 19.9223 43.9392 19.6989C43.5832 19.4754 43.1627 19.3636 42.6779 19.3636C42.1438 19.3636 41.6816 19.4962 41.2915 19.7614C40.9051 20.0227 40.6078 20.3636 40.3994 20.7841C40.1911 21.2045 40.0869 21.6553 40.0869 22.1364V22.9091C40.0869 23.5682 40.2006 24.1269 40.4279 24.5852C40.6589 25.0398 40.979 25.3864 41.3881 25.625C41.7972 25.8598 42.2726 25.9773 42.8142 25.9773C43.1665 25.9773 43.4847 25.928 43.7688 25.8295C44.0566 25.7273 44.3047 25.5758 44.5131 25.375C44.7214 25.1705 44.8824 24.9167 44.996 24.6136L46.2915 24.9773C46.1551 25.4167 45.926 25.803 45.604 26.1364C45.282 26.4659 44.8843 26.7235 44.4108 26.9091C43.9373 27.0909 43.4051 27.1818 42.8142 27.1818ZM48.1571 27V18.2727H49.4526V19.5909H49.5435C49.7026 19.1591 49.9905 18.8087 50.4071 18.5398C50.8238 18.2708 51.2935 18.1364 51.8162 18.1364C51.9147 18.1364 52.0378 18.1383 52.1855 18.142C52.3333 18.1458 52.445 18.1515 52.5208 18.1591V19.5227C52.4753 19.5114 52.3711 19.4943 52.2083 19.4716C52.0492 19.4451 51.8806 19.4318 51.7026 19.4318C51.2783 19.4318 50.8995 19.5208 50.5662 19.6989C50.2367 19.8731 49.9753 20.1155 49.7821 20.4261C49.5927 20.733 49.498 21.0833 49.498 21.4773V27H48.1571ZM58.8529 30.25C58.6256 30.25 58.4229 30.2311 58.2449 30.1932C58.0669 30.1591 57.9438 30.125 57.8756 30.0909L58.2165 28.9091C58.7051 29.0341 59.1123 29.0303 59.4381 28.8977C59.7639 28.7689 60.0461 28.3788 60.2847 27.7273L60.5347 27.0455L57.3074 18.2727H58.762L61.1711 25.2273H61.262L63.6711 18.2727L65.137 18.2955L61.4211 28.2727C61.2544 28.7159 61.0479 29.0833 60.8017 29.375C60.5555 29.6705 60.2695 29.8902 59.9438 30.0341C59.6218 30.178 59.2582 30.25 58.8529 30.25ZM69.8336 27.1818C69.0457 27.1818 68.3544 26.9943 67.7597 26.6193C67.1688 26.2443 66.7067 25.7197 66.3733 25.0455C66.0438 24.3712 65.879 23.5833 65.879 22.6818C65.879 21.7727 66.0438 20.9792 66.3733 20.3011C66.7067 19.6231 67.1688 19.0966 67.7597 18.7216C68.3544 18.3466 69.0457 18.1591 69.8336 18.1591C70.6214 18.1591 71.3108 18.3466 71.9017 18.7216C72.4964 19.0966 72.9586 19.6231 73.2881 20.3011C73.6214 20.9792 73.7881 21.7727 73.7881 22.6818C73.7881 23.5833 73.6214 24.3712 73.2881 25.0455C72.9586 25.7197 72.4964 26.2443 71.9017 26.6193C71.3108 26.9943 70.6214 27.1818 69.8336 27.1818ZM69.8336 25.9773C70.432 25.9773 70.9245 25.8239 71.3108 25.517C71.6972 25.2102 71.9832 24.8068 72.1688 24.3068C72.3544 23.8068 72.4472 23.2652 72.4472 22.6818C72.4472 22.0985 72.3544 21.5549 72.1688 21.0511C71.9832 20.5473 71.6972 20.1402 71.3108 19.8295C70.9245 19.5189 70.432 19.3636 69.8336 19.3636C69.2351 19.3636 68.7426 19.5189 68.3563 19.8295C67.9699 20.1402 67.6839 20.5473 67.4983 21.0511C67.3127 21.5549 67.2199 22.0985 67.2199 22.6818C67.2199 23.2652 67.3127 23.8068 67.4983 24.3068C67.6839 24.8068 67.9699 25.2102 68.3563 25.517C68.7426 25.8239 69.2351 25.9773 69.8336 25.9773ZM81.0245 23.4318V18.2727H82.3654V27H81.0245V25.5227H80.9336C80.729 25.9659 80.4108 26.3428 79.979 26.6534C79.5472 26.9602 79.0017 27.1136 78.3426 27.1136C77.7972 27.1136 77.3123 26.9943 76.8881 26.7557C76.4639 26.5133 76.1305 26.1496 75.8881 25.6648C75.6457 25.1761 75.5245 24.5606 75.5245 23.8182V18.2727H76.8654V23.7273C76.8654 24.3636 77.0434 24.8712 77.3995 25.25C77.7593 25.6288 78.2177 25.8182 78.7745 25.8182C79.1078 25.8182 79.4468 25.733 79.7915 25.5625C80.14 25.392 80.4317 25.1307 80.6665 24.7784C80.9052 24.4261 81.0245 23.9773 81.0245 23.4318ZM84.5108 27V18.2727H85.8063V19.5909H85.8972C86.0563 19.1591 86.3442 18.8087 86.7608 18.5398C87.1775 18.2708 87.6472 18.1364 88.1699 18.1364C88.2684 18.1364 88.3915 18.1383 88.5392 18.142C88.687 18.1458 88.7987 18.1515 88.8745 18.1591V19.5227C88.829 19.5114 88.7248 19.4943 88.562 19.4716C88.4029 19.4451 88.2343 19.4318 88.0563 19.4318C87.632 19.4318 87.2533 19.5208 86.9199 19.6989C86.5904 19.8731 86.329 20.1155 86.1358 20.4261C85.9464 20.733 85.8517 21.0833 85.8517 21.4773V27H84.5108ZM98.2293 18.2727V19.4091H93.5248V18.2727H98.2293ZM94.9339 27V17.0682C94.9339 16.5682 95.0513 16.1515 95.2861 15.8182C95.521 15.4848 95.8259 15.2348 96.2009 15.0682C96.5759 14.9015 96.9717 14.8182 97.3884 14.8182C97.7179 14.8182 97.9869 14.8447 98.1952 14.8977C98.4036 14.9508 98.5589 15 98.6611 15.0455L98.2748 16.2045C98.2066 16.1818 98.1119 16.1534 97.9907 16.1193C97.8733 16.0852 97.7179 16.0682 97.5248 16.0682C97.0816 16.0682 96.7615 16.1799 96.5645 16.4034C96.3714 16.6269 96.2748 16.9545 96.2748 17.3864V27H94.9339ZM99.7981 27V18.2727H101.094V19.5909H101.184C101.344 19.1591 101.631 18.8087 102.048 18.5398C102.465 18.2708 102.934 18.1364 103.457 18.1364C103.556 18.1364 103.679 18.1383 103.826 18.142C103.974 18.1458 104.086 18.1515 104.162 18.1591V19.5227C104.116 19.5114 104.012 19.4943 103.849 19.4716C103.69 19.4451 103.522 19.4318 103.344 19.4318C102.919 19.4318 102.54 19.5208 102.207 19.6989C101.878 19.8731 101.616 20.1155 101.423 20.4261C101.234 20.733 101.139 21.0833 101.139 21.4773V27H99.7981ZM105.441 27V18.2727H106.782V27H105.441ZM106.123 16.8182C105.861 16.8182 105.636 16.7292 105.446 16.5511C105.261 16.3731 105.168 16.1591 105.168 15.9091C105.168 15.6591 105.261 15.4451 105.446 15.267C105.636 15.089 105.861 15 106.123 15C106.384 15 106.607 15.089 106.793 15.267C106.982 15.4451 107.077 15.6591 107.077 15.9091C107.077 16.1591 106.982 16.3731 106.793 16.5511C106.607 16.7292 106.384 16.8182 106.123 16.8182ZM112.586 27.1818C111.745 27.1818 111.02 26.9962 110.41 26.625C109.804 26.25 109.336 25.7273 109.007 25.0568C108.681 24.3826 108.518 23.5985 108.518 22.7045C108.518 21.8106 108.681 21.0227 109.007 20.3409C109.336 19.6553 109.794 19.1212 110.382 18.7386C110.973 18.3523 111.662 18.1591 112.45 18.1591C112.904 18.1591 113.353 18.2348 113.796 18.3864C114.24 18.5379 114.643 18.7841 115.007 19.125C115.37 19.4621 115.66 19.9091 115.876 20.4659C116.092 21.0227 116.2 21.7083 116.2 22.5227V23.0909H109.473V21.9318H114.836C114.836 21.4394 114.738 21 114.541 20.6136C114.348 20.2273 114.071 19.9223 113.711 19.6989C113.355 19.4754 112.935 19.3636 112.45 19.3636C111.916 19.3636 111.454 19.4962 111.063 19.7614C110.677 20.0227 110.38 20.3636 110.171 20.7841C109.963 21.2045 109.859 21.6553 109.859 22.1364V22.9091C109.859 23.5682 109.973 24.1269 110.2 24.5852C110.431 25.0398 110.751 25.3864 111.16 25.625C111.569 25.8598 112.044 25.9773 112.586 25.9773C112.938 25.9773 113.257 25.928 113.541 25.8295C113.829 25.7273 114.077 25.5758 114.285 25.375C114.493 25.1705 114.654 24.9167 114.768 24.6136L116.063 24.9773C115.927 25.4167 115.698 25.803 115.376 26.1364C115.054 26.4659 114.656 26.7235 114.183 26.9091C113.709 27.0909 113.177 27.1818 112.586 27.1818ZM119.27 21.75V27H117.929V18.2727H119.225V19.6364H119.338C119.543 19.1932 119.853 18.8371 120.27 18.5682C120.687 18.2955 121.225 18.1591 121.884 18.1591C122.475 18.1591 122.992 18.2803 123.435 18.5227C123.878 18.7614 124.223 19.125 124.469 19.6136C124.715 20.0985 124.838 20.7121 124.838 21.4545V27H123.497V21.5455C123.497 20.8598 123.319 20.3258 122.963 19.9432C122.607 19.5568 122.118 19.3636 121.497 19.3636C121.069 19.3636 120.687 19.4564 120.35 19.642C120.016 19.8277 119.753 20.0985 119.56 20.4545C119.367 20.8106 119.27 21.2424 119.27 21.75ZM130.273 27.1818C129.546 27.1818 128.904 26.9981 128.347 26.6307C127.79 26.2595 127.355 25.7367 127.04 25.0625C126.726 24.3845 126.569 23.5833 126.569 22.6591C126.569 21.7424 126.726 20.947 127.04 20.2727C127.355 19.5985 127.792 19.0777 128.353 18.7102C128.914 18.3428 129.561 18.1591 130.296 18.1591C130.864 18.1591 131.313 18.2538 131.643 18.4432C131.976 18.6288 132.23 18.8409 132.404 19.0795C132.582 19.3144 132.72 19.5076 132.819 19.6591H132.932V15.3636H134.273V27H132.978V25.6591H132.819C132.72 25.8182 132.58 26.0189 132.398 26.2614C132.217 26.5 131.957 26.714 131.62 26.9034C131.283 27.089 130.834 27.1818 130.273 27.1818ZM130.455 25.9773C130.993 25.9773 131.448 25.8371 131.819 25.5568C132.19 25.2727 132.472 24.8807 132.665 24.3807C132.859 23.8769 132.955 23.2955 132.955 22.6364C132.955 21.9848 132.86 21.4148 132.671 20.9261C132.482 20.4337 132.201 20.0511 131.83 19.7784C131.459 19.5019 131.001 19.3636 130.455 19.3636C129.887 19.3636 129.414 19.5095 129.035 19.8011C128.66 20.089 128.378 20.4811 128.188 20.9773C128.003 21.4697 127.91 22.0227 127.91 22.6364C127.91 23.2576 128.004 23.822 128.194 24.3295C128.387 24.8333 128.671 25.2348 129.046 25.5341C129.425 25.8295 129.895 25.9773 130.455 25.9773ZM142.787 20.2273L141.582 20.5682C141.506 20.3674 141.395 20.1723 141.247 19.983C141.103 19.7898 140.906 19.6307 140.656 19.5057C140.406 19.3807 140.086 19.3182 139.696 19.3182C139.162 19.3182 138.717 19.4413 138.361 19.6875C138.008 19.9299 137.832 20.2386 137.832 20.6136C137.832 20.947 137.953 21.2102 138.196 21.4034C138.438 21.5966 138.817 21.7576 139.332 21.8864L140.628 22.2045C141.408 22.3939 141.989 22.6837 142.372 23.0739C142.755 23.4602 142.946 23.9583 142.946 24.5682C142.946 25.0682 142.802 25.5152 142.514 25.9091C142.23 26.303 141.832 26.6136 141.321 26.8409C140.809 27.0682 140.215 27.1818 139.537 27.1818C138.647 27.1818 137.91 26.9886 137.327 26.6023C136.743 26.2159 136.374 25.6515 136.219 24.9091L137.491 24.5909C137.612 25.0606 137.842 25.4129 138.179 25.6477C138.52 25.8826 138.965 26 139.514 26C140.139 26 140.635 25.8674 141.003 25.6023C141.374 25.3333 141.559 25.0114 141.559 24.6364C141.559 24.3333 141.453 24.0795 141.241 23.875C141.029 23.6667 140.703 23.5114 140.264 23.4091L138.809 23.0682C138.01 22.8788 137.423 22.5852 137.048 22.1875C136.677 21.786 136.491 21.2841 136.491 20.6818C136.491 20.1894 136.63 19.7538 136.906 19.375C137.186 18.9962 137.567 18.6989 138.048 18.483C138.533 18.267 139.082 18.1591 139.696 18.1591C140.559 18.1591 141.237 18.3485 141.73 18.7273C142.226 19.1061 142.578 19.6061 142.787 20.2273ZM146.654 25.4091L146.563 26.0227C146.498 26.4545 146.4 26.9167 146.267 27.4091C146.139 27.9015 146.004 28.3655 145.864 28.8011C145.724 29.2367 145.608 29.5833 145.517 29.8409H144.495C144.544 29.5985 144.608 29.2784 144.688 28.8807C144.767 28.483 144.847 28.0379 144.926 27.5455C145.01 27.0568 145.078 26.5568 145.131 26.0455L145.199 25.4091H146.654ZM155.585 27.2045C155.032 27.2045 154.53 27.1004 154.08 26.892C153.629 26.6799 153.271 26.375 153.006 25.9773C152.741 25.5758 152.608 25.0909 152.608 24.5227C152.608 24.0227 152.707 23.6174 152.904 23.3068C153.1 22.9924 153.364 22.7462 153.693 22.5682C154.023 22.3902 154.386 22.2576 154.784 22.1705C155.186 22.0795 155.589 22.0076 155.994 21.9545C156.525 21.8864 156.955 21.8352 157.284 21.8011C157.618 21.7633 157.86 21.7008 158.011 21.6136C158.167 21.5265 158.244 21.375 158.244 21.1591V21.1136C158.244 20.553 158.091 20.1174 157.784 19.8068C157.481 19.4962 157.021 19.3409 156.404 19.3409C155.763 19.3409 155.261 19.4811 154.898 19.7614C154.534 20.0417 154.279 20.3409 154.131 20.6591L152.858 20.2045C153.085 19.6742 153.388 19.2614 153.767 18.9659C154.15 18.6667 154.566 18.4583 155.017 18.3409C155.472 18.2197 155.919 18.1591 156.358 18.1591C156.638 18.1591 156.96 18.1932 157.324 18.2614C157.691 18.3258 158.046 18.4602 158.386 18.6648C158.731 18.8693 159.017 19.178 159.244 19.5909C159.472 20.0038 159.585 20.5568 159.585 21.25V27H158.244V25.8182H158.176C158.085 26.0076 157.934 26.2102 157.722 26.4261C157.51 26.642 157.227 26.8258 156.875 26.9773C156.523 27.1288 156.093 27.2045 155.585 27.2045ZM155.79 26C156.32 26 156.767 25.8958 157.131 25.6875C157.498 25.4792 157.775 25.2102 157.96 24.8807C158.15 24.5511 158.244 24.2045 158.244 23.8409V22.6136C158.188 22.6818 158.063 22.7443 157.869 22.8011C157.68 22.8542 157.46 22.9015 157.21 22.9432C156.964 22.9811 156.724 23.0152 156.489 23.0455C156.258 23.072 156.07 23.0947 155.926 23.1136C155.578 23.1591 155.252 23.233 154.949 23.3352C154.65 23.4337 154.407 23.5833 154.222 23.7841C154.04 23.9811 153.949 24.25 153.949 24.5909C153.949 25.0568 154.121 25.4091 154.466 25.6477C154.814 25.8826 155.256 26 155.79 26ZM163.063 21.75V27H161.722V18.2727H163.018V19.6364H163.131C163.336 19.1932 163.646 18.8371 164.063 18.5682C164.48 18.2955 165.018 18.1591 165.677 18.1591C166.268 18.1591 166.785 18.2803 167.228 18.5227C167.671 18.7614 168.016 19.125 168.262 19.6136C168.508 20.0985 168.631 20.7121 168.631 21.4545V27H167.29V21.5455C167.29 20.8598 167.112 20.3258 166.756 19.9432C166.4 19.5568 165.912 19.3636 165.29 19.3636C164.862 19.3636 164.48 19.4564 164.143 19.642C163.809 19.8277 163.546 20.0985 163.353 20.4545C163.16 20.8106 163.063 21.2424 163.063 21.75ZM174.067 27.1818C173.339 27.1818 172.697 26.9981 172.14 26.6307C171.584 26.2595 171.148 25.7367 170.834 25.0625C170.519 24.3845 170.362 23.5833 170.362 22.6591C170.362 21.7424 170.519 20.947 170.834 20.2727C171.148 19.5985 171.586 19.0777 172.146 18.7102C172.707 18.3428 173.354 18.1591 174.089 18.1591C174.657 18.1591 175.106 18.2538 175.436 18.4432C175.769 18.6288 176.023 18.8409 176.197 19.0795C176.375 19.3144 176.514 19.5076 176.612 19.6591H176.726V15.3636H178.067V27H176.771V25.6591H176.612C176.514 25.8182 176.373 26.0189 176.192 26.2614C176.01 26.5 175.75 26.714 175.413 26.9034C175.076 27.089 174.627 27.1818 174.067 27.1818ZM174.248 25.9773C174.786 25.9773 175.241 25.8371 175.612 25.5568C175.983 25.2727 176.265 24.8807 176.459 24.3807C176.652 23.8769 176.748 23.2955 176.748 22.6364C176.748 21.9848 176.654 21.4148 176.464 20.9261C176.275 20.4337 175.995 20.0511 175.623 19.7784C175.252 19.5019 174.794 19.3636 174.248 19.3636C173.68 19.3636 173.207 19.5095 172.828 19.8011C172.453 20.089 172.171 20.4811 171.981 20.9773C171.796 21.4697 171.703 22.0227 171.703 22.6364C171.703 23.2576 171.798 23.822 171.987 24.3295C172.18 24.8333 172.464 25.2348 172.839 25.5341C173.218 25.8295 173.688 25.9773 174.248 25.9773ZM185.451 30.25C185.224 30.25 185.021 30.2311 184.843 30.1932C184.665 30.1591 184.542 30.125 184.474 30.0909L184.815 28.9091C185.304 29.0341 185.711 29.0303 186.036 28.8977C186.362 28.7689 186.644 28.3788 186.883 27.7273L187.133 27.0455L183.906 18.2727H185.36L187.769 25.2273H187.86L190.269 18.2727L191.735 18.2955L188.019 28.2727C187.853 28.7159 187.646 29.0833 187.4 29.375C187.154 29.6705 186.868 29.8902 186.542 30.0341C186.22 30.178 185.857 30.25 185.451 30.25ZM196.432 27.1818C195.644 27.1818 194.953 26.9943 194.358 26.6193C193.767 26.2443 193.305 25.7197 192.972 25.0455C192.642 24.3712 192.477 23.5833 192.477 22.6818C192.477 21.7727 192.642 20.9792 192.972 20.3011C193.305 19.6231 193.767 19.0966 194.358 18.7216C194.953 18.3466 195.644 18.1591 196.432 18.1591C197.22 18.1591 197.909 18.3466 198.5 18.7216C199.095 19.0966 199.557 19.6231 199.886 20.3011C200.22 20.9792 200.386 21.7727 200.386 22.6818C200.386 23.5833 200.22 24.3712 199.886 25.0455C199.557 25.7197 199.095 26.2443 198.5 26.6193C197.909 26.9943 197.22 27.1818 196.432 27.1818ZM196.432 25.9773C197.03 25.9773 197.523 25.8239 197.909 25.517C198.296 25.2102 198.582 24.8068 198.767 24.3068C198.953 23.8068 199.046 23.2652 199.046 22.6818C199.046 22.0985 198.953 21.5549 198.767 21.0511C198.582 20.5473 198.296 20.1402 197.909 19.8295C197.523 19.5189 197.03 19.3636 196.432 19.3636C195.833 19.3636 195.341 19.5189 194.955 19.8295C194.568 20.1402 194.282 20.5473 194.097 21.0511C193.911 21.5549 193.818 22.0985 193.818 22.6818C193.818 23.2652 193.911 23.8068 194.097 24.3068C194.282 24.8068 194.568 25.2102 194.955 25.517C195.341 25.8239 195.833 25.9773 196.432 25.9773ZM207.623 23.4318V18.2727H208.964V27H207.623V25.5227H207.532C207.327 25.9659 207.009 26.3428 206.577 26.6534C206.146 26.9602 205.6 27.1136 204.941 27.1136C204.396 27.1136 203.911 26.9943 203.486 26.7557C203.062 26.5133 202.729 26.1496 202.486 25.6648C202.244 25.1761 202.123 24.5606 202.123 23.8182V18.2727H203.464V23.7273C203.464 24.3636 203.642 24.8712 203.998 25.25C204.358 25.6288 204.816 25.8182 205.373 25.8182C205.706 25.8182 206.045 25.733 206.39 25.5625C206.738 25.392 207.03 25.1307 207.265 24.7784C207.504 24.4261 207.623 23.9773 207.623 23.4318ZM218.958 27.1818C218.117 27.1818 217.392 26.9962 216.782 26.625C216.176 26.25 215.708 25.7273 215.378 25.0568C215.053 24.3826 214.89 23.5985 214.89 22.7045C214.89 21.8106 215.053 21.0227 215.378 20.3409C215.708 19.6553 216.166 19.1212 216.753 18.7386C217.344 18.3523 218.034 18.1591 218.821 18.1591C219.276 18.1591 219.725 18.2348 220.168 18.3864C220.611 18.5379 221.015 18.7841 221.378 19.125C221.742 19.4621 222.032 19.9091 222.248 20.4659C222.463 21.0227 222.571 21.7083 222.571 22.5227V23.0909H215.844V21.9318H221.208C221.208 21.4394 221.109 21 220.912 20.6136C220.719 20.2273 220.443 19.9223 220.083 19.6989C219.727 19.4754 219.306 19.3636 218.821 19.3636C218.287 19.3636 217.825 19.4962 217.435 19.7614C217.049 20.0227 216.751 20.3636 216.543 20.7841C216.335 21.2045 216.231 21.6553 216.231 22.1364V22.9091C216.231 23.5682 216.344 24.1269 216.571 24.5852C216.803 25.0398 217.123 25.3864 217.532 25.625C217.941 25.8598 218.416 25.9773 218.958 25.9773C219.31 25.9773 219.628 25.928 219.912 25.8295C220.2 25.7273 220.448 25.5758 220.657 25.375C220.865 25.1705 221.026 24.9167 221.14 24.6136L222.435 24.9773C222.299 25.4167 222.07 25.803 221.748 26.1364C221.426 26.4659 221.028 26.7235 220.554 26.9091C220.081 27.0909 219.549 27.1818 218.958 27.1818ZM226.869 27.2045C226.316 27.2045 225.814 27.1004 225.363 26.892C224.912 26.6799 224.554 26.375 224.289 25.9773C224.024 25.5758 223.892 25.0909 223.892 24.5227C223.892 24.0227 223.99 23.6174 224.187 23.3068C224.384 22.9924 224.647 22.7462 224.977 22.5682C225.306 22.3902 225.67 22.2576 226.068 22.1705C226.469 22.0795 226.873 22.0076 227.278 21.9545C227.808 21.8864 228.238 21.8352 228.568 21.8011C228.901 21.7633 229.144 21.7008 229.295 21.6136C229.45 21.5265 229.528 21.375 229.528 21.1591V21.1136C229.528 20.553 229.375 20.1174 229.068 19.8068C228.765 19.4962 228.304 19.3409 227.687 19.3409C227.047 19.3409 226.545 19.4811 226.181 19.7614C225.818 20.0417 225.562 20.3409 225.414 20.6591L224.142 20.2045C224.369 19.6742 224.672 19.2614 225.051 18.9659C225.433 18.6667 225.85 18.4583 226.301 18.3409C226.755 18.2197 227.202 18.1591 227.642 18.1591C227.922 18.1591 228.244 18.1932 228.608 18.2614C228.975 18.3258 229.329 18.4602 229.67 18.6648C230.015 18.8693 230.301 19.178 230.528 19.5909C230.755 20.0038 230.869 20.5568 230.869 21.25V27H229.528V25.8182H229.46C229.369 26.0076 229.217 26.2102 229.005 26.4261C228.793 26.642 228.511 26.8258 228.159 26.9773C227.806 27.1288 227.376 27.2045 226.869 27.2045ZM227.073 26C227.604 26 228.051 25.8958 228.414 25.6875C228.782 25.4792 229.058 25.2102 229.244 24.8807C229.433 24.5511 229.528 24.2045 229.528 23.8409V22.6136C229.471 22.6818 229.346 22.7443 229.153 22.8011C228.964 22.8542 228.744 22.9015 228.494 22.9432C228.248 22.9811 228.007 23.0152 227.772 23.0455C227.541 23.072 227.354 23.0947 227.21 23.1136C226.861 23.1591 226.536 23.233 226.233 23.3352C225.933 23.4337 225.691 23.5833 225.505 23.7841C225.323 23.9811 225.233 24.25 225.233 24.5909C225.233 25.0568 225.405 25.4091 225.75 25.6477C226.098 25.8826 226.539 26 227.073 26ZM233.006 27V18.2727H234.301V19.5909H234.392C234.551 19.1591 234.839 18.8087 235.256 18.5398C235.672 18.2708 236.142 18.1364 236.665 18.1364C236.763 18.1364 236.887 18.1383 237.034 18.142C237.182 18.1458 237.294 18.1515 237.369 18.1591V19.5227C237.324 19.5114 237.22 19.4943 237.057 19.4716C236.898 19.4451 236.729 19.4318 236.551 19.4318C236.127 19.4318 235.748 19.5208 235.415 19.6989C235.085 19.8731 234.824 20.1155 234.631 20.4261C234.441 20.733 234.347 21.0833 234.347 21.4773V27H233.006ZM239.989 21.75V27H238.648V18.2727H239.944V19.6364H240.058C240.262 19.1932 240.573 18.8371 240.989 18.5682C241.406 18.2955 241.944 18.1591 242.603 18.1591C243.194 18.1591 243.711 18.2803 244.154 18.5227C244.597 18.7614 244.942 19.125 245.188 19.6136C245.434 20.0985 245.558 20.7121 245.558 21.4545V27H244.217V21.5455C244.217 20.8598 244.039 20.3258 243.683 19.9432C243.326 19.5568 242.838 19.3636 242.217 19.3636C241.789 19.3636 241.406 19.4564 241.069 19.642C240.736 19.8277 240.472 20.0985 240.279 20.4545C240.086 20.8106 239.989 21.2424 239.989 21.75ZM17.7955 46.2045C17.2424 46.2045 16.7405 46.1004 16.2898 45.892C15.839 45.6799 15.4811 45.375 15.2159 44.9773C14.9508 44.5758 14.8182 44.0909 14.8182 43.5227C14.8182 43.0227 14.9167 42.6174 15.1136 42.3068C15.3106 41.9924 15.5739 41.7462 15.9034 41.5682C16.233 41.3902 16.5966 41.2576 16.9943 41.1705C17.3958 41.0795 17.7992 41.0076 18.2045 40.9545C18.7348 40.8864 19.1648 40.8352 19.4943 40.8011C19.8277 40.7633 20.0701 40.7008 20.2216 40.6136C20.3769 40.5265 20.4545 40.375 20.4545 40.1591V40.1136C20.4545 39.553 20.3011 39.1174 19.9943 38.8068C19.6913 38.4962 19.2311 38.3409 18.6136 38.3409C17.9735 38.3409 17.4716 38.4811 17.108 38.7614C16.7443 39.0417 16.4886 39.3409 16.3409 39.6591L15.0682 39.2045C15.2955 38.6742 15.5985 38.2614 15.9773 37.9659C16.3598 37.6667 16.7765 37.4583 17.2273 37.3409C17.6818 37.2197 18.1288 37.1591 18.5682 37.1591C18.8485 37.1591 19.1705 37.1932 19.5341 37.2614C19.9015 37.3258 20.2557 37.4602 20.5966 37.6648C20.9413 37.8693 21.2273 38.178 21.4545 38.5909C21.6818 39.0038 21.7955 39.5568 21.7955 40.25V46H20.4545V44.8182H20.3864C20.2955 45.0076 20.1439 45.2102 19.9318 45.4261C19.7197 45.642 19.4375 45.8258 19.0852 45.9773C18.733 46.1288 18.303 46.2045 17.7955 46.2045ZM18 45C18.5303 45 18.9773 44.8958 19.3409 44.6875C19.7083 44.4792 19.9848 44.2102 20.1705 43.8807C20.3598 43.5511 20.4545 43.2045 20.4545 42.8409V41.6136C20.3977 41.6818 20.2727 41.7443 20.0795 41.8011C19.8902 41.8542 19.6705 41.9015 19.4205 41.9432C19.1742 41.9811 18.9337 42.0152 18.6989 42.0455C18.4678 42.072 18.2803 42.0947 18.1364 42.1136C17.7879 42.1591 17.4621 42.233 17.1591 42.3352C16.8598 42.4337 16.6174 42.5833 16.4318 42.7841C16.25 42.9811 16.1591 43.25 16.1591 43.5909C16.1591 44.0568 16.3314 44.4091 16.6761 44.6477C17.0246 44.8826 17.4659 45 18 45ZM29.4628 34.3636V46H28.1219V34.3636H29.4628ZM35.1537 46.1818C34.3658 46.1818 33.6745 45.9943 33.0798 45.6193C32.4889 45.2443 32.0268 44.7197 31.6935 44.0455C31.3639 43.3712 31.1992 42.5833 31.1992 41.6818C31.1992 40.7727 31.3639 39.9792 31.6935 39.3011C32.0268 38.6231 32.4889 38.0966 33.0798 37.7216C33.6745 37.3466 34.3658 37.1591 35.1537 37.1591C35.9416 37.1591 36.631 37.3466 37.2219 37.7216C37.8166 38.0966 38.2787 38.6231 38.6083 39.3011C38.9416 39.9792 39.1083 40.7727 39.1083 41.6818C39.1083 42.5833 38.9416 43.3712 38.6083 44.0455C38.2787 44.7197 37.8166 45.2443 37.2219 45.6193C36.631 45.9943 35.9416 46.1818 35.1537 46.1818ZM35.1537 44.9773C35.7522 44.9773 36.2446 44.8239 36.631 44.517C37.0173 44.2102 37.3033 43.8068 37.4889 43.3068C37.6745 42.8068 37.7673 42.2652 37.7673 41.6818C37.7673 41.0985 37.6745 40.5549 37.4889 40.0511C37.3033 39.5473 37.0173 39.1402 36.631 38.8295C36.2446 38.5189 35.7522 38.3636 35.1537 38.3636C34.5552 38.3636 34.0628 38.5189 33.6764 38.8295C33.2901 39.1402 33.0041 39.5473 32.8185 40.0511C32.6329 40.5549 32.5401 41.0985 32.5401 41.6818C32.5401 42.2652 32.6329 42.8068 32.8185 43.3068C33.0041 43.8068 33.2901 44.2102 33.6764 44.517C34.0628 44.8239 34.5552 44.9773 35.1537 44.9773ZM44.6401 37.2727V38.4091H40.1173V37.2727H44.6401ZM41.4355 35.1818H42.7764V43.5C42.7764 43.8788 42.8314 44.1629 42.9412 44.3523C43.0548 44.5379 43.1988 44.6629 43.373 44.7273C43.5511 44.7879 43.7386 44.8182 43.9355 44.8182C44.0833 44.8182 44.2045 44.8106 44.2992 44.7955C44.3939 44.7765 44.4696 44.7614 44.5264 44.75L44.7992 45.9545C44.7083 45.9886 44.5814 46.0227 44.4185 46.0568C44.2556 46.0947 44.0492 46.1136 43.7992 46.1136C43.4204 46.1136 43.0492 46.0322 42.6855 45.8693C42.3257 45.7064 42.0264 45.4583 41.7878 45.125C41.553 44.7917 41.4355 44.3712 41.4355 43.8636V35.1818ZM50.5361 46V37.2727H51.8316V38.6364H51.9452C52.127 38.1705 52.4206 37.8087 52.8259 37.5511C53.2312 37.2898 53.7179 37.1591 54.2861 37.1591C54.8619 37.1591 55.341 37.2898 55.7236 37.5511C56.11 37.8087 56.4111 38.1705 56.627 38.6364H56.7179C56.9414 38.1856 57.2766 37.8277 57.7236 37.5625C58.1706 37.2936 58.7066 37.1591 59.3316 37.1591C60.1119 37.1591 60.7501 37.4034 61.2463 37.892C61.7425 38.3769 61.9907 39.1326 61.9907 40.1591V46H60.6497V40.1591C60.6497 39.5152 60.4736 39.0549 60.1213 38.7784C59.7691 38.5019 59.3543 38.3636 58.877 38.3636C58.2634 38.3636 57.788 38.5492 57.4509 38.9205C57.1138 39.2879 56.9452 39.7538 56.9452 40.3182V46H55.5816V40.0227C55.5816 39.5265 55.4206 39.1269 55.0986 38.8239C54.7766 38.517 54.3619 38.3636 53.8543 38.3636C53.5058 38.3636 53.18 38.4564 52.877 38.642C52.5778 38.8277 52.3353 39.0852 52.1497 39.4148C51.9679 39.7405 51.877 40.1174 51.877 40.5455V46H50.5361ZM67.6773 46.1818C66.8894 46.1818 66.1981 45.9943 65.6034 45.6193C65.0125 45.2443 64.5504 44.7197 64.2171 44.0455C63.8875 43.3712 63.7228 42.5833 63.7228 41.6818C63.7228 40.7727 63.8875 39.9792 64.2171 39.3011C64.5504 38.6231 65.0125 38.0966 65.6034 37.7216C66.1981 37.3466 66.8894 37.1591 67.6773 37.1591C68.4652 37.1591 69.1546 37.3466 69.7455 37.7216C70.3402 38.0966 70.8023 38.6231 71.1319 39.3011C71.4652 39.9792 71.6319 40.7727 71.6319 41.6818C71.6319 42.5833 71.4652 43.3712 71.1319 44.0455C70.8023 44.7197 70.3402 45.2443 69.7455 45.6193C69.1546 45.9943 68.4652 46.1818 67.6773 46.1818ZM67.6773 44.9773C68.2758 44.9773 68.7682 44.8239 69.1546 44.517C69.5409 44.2102 69.8269 43.8068 70.0125 43.3068C70.1981 42.8068 70.2909 42.2652 70.2909 41.6818C70.2909 41.0985 70.1981 40.5549 70.0125 40.0511C69.8269 39.5473 69.5409 39.1402 69.1546 38.8295C68.7682 38.5189 68.2758 38.3636 67.6773 38.3636C67.0788 38.3636 66.5864 38.5189 66.2 38.8295C65.8137 39.1402 65.5277 39.5473 65.3421 40.0511C65.1565 40.5549 65.0637 41.0985 65.0637 41.6818C65.0637 42.2652 65.1565 42.8068 65.3421 43.3068C65.5277 43.8068 65.8137 44.2102 66.2 44.517C66.5864 44.8239 67.0788 44.9773 67.6773 44.9773ZM73.3682 46V37.2727H74.6637V38.5909H74.7546C74.9137 38.1591 75.2016 37.8087 75.6182 37.5398C76.0349 37.2708 76.5046 37.1364 77.0273 37.1364C77.1258 37.1364 77.2489 37.1383 77.3966 37.142C77.5444 37.1458 77.6561 37.1515 77.7319 37.1591V38.5227C77.6864 38.5114 77.5822 38.4943 77.4194 38.4716C77.2603 38.4451 77.0917 38.4318 76.9137 38.4318C76.4894 38.4318 76.1106 38.5208 75.7773 38.6989C75.4478 38.8731 75.1864 39.1155 74.9932 39.4261C74.8038 39.733 74.7091 40.0833 74.7091 40.4773V46H73.3682ZM82.4043 46.1818C81.5634 46.1818 80.838 45.9962 80.2282 45.625C79.6221 45.25 79.1543 44.7273 78.8248 44.0568C78.499 43.3826 78.3361 42.5985 78.3361 41.7045C78.3361 40.8106 78.499 40.0227 78.8248 39.3409C79.1543 38.6553 79.6126 38.1212 80.1998 37.7386C80.7907 37.3523 81.4801 37.1591 82.2679 37.1591C82.7225 37.1591 83.1713 37.2348 83.6145 37.3864C84.0577 37.5379 84.4611 37.7841 84.8248 38.125C85.1884 38.4621 85.4782 38.9091 85.6941 39.4659C85.91 40.0227 86.0179 40.7083 86.0179 41.5227V42.0909H79.2907V40.9318H84.6543C84.6543 40.4394 84.5558 40 84.3589 39.6136C84.1657 39.2273 83.8892 38.9223 83.5293 38.6989C83.1732 38.4754 82.7528 38.3636 82.2679 38.3636C81.7338 38.3636 81.2717 38.4962 80.8816 38.7614C80.4952 39.0227 80.1979 39.3636 79.9895 39.7841C79.7812 40.2045 79.677 40.6553 79.677 41.1364V41.9091C79.677 42.5682 79.7907 43.1269 80.0179 43.5852C80.249 44.0398 80.5691 44.3864 80.9782 44.625C81.3873 44.8598 81.8626 44.9773 82.4043 44.9773C82.7566 44.9773 83.0748 44.928 83.3589 44.8295C83.6467 44.7273 83.8948 44.5758 84.1032 44.375C84.3115 44.1705 84.4725 43.9167 84.5861 43.6136L85.8816 43.9773C85.7452 44.4167 85.516 44.803 85.1941 45.1364C84.8721 45.4659 84.4744 45.7235 84.0009 45.9091C83.5274 46.0909 82.9952 46.1818 82.4043 46.1818ZM88.7245 46.0909C88.4442 46.0909 88.2036 45.9905 88.0029 45.7898C87.8021 45.589 87.7018 45.3485 87.7018 45.0682C87.7018 44.7879 87.8021 44.5473 88.0029 44.3466C88.2036 44.1458 88.4442 44.0455 88.7245 44.0455C89.0048 44.0455 89.2453 44.1458 89.4461 44.3466C89.6468 44.5473 89.7472 44.7879 89.7472 45.0682C89.7472 45.2538 89.6999 45.4242 89.6052 45.5795C89.5143 45.7348 89.3911 45.8598 89.2358 45.9545C89.0843 46.0455 88.9139 46.0909 88.7245 46.0909ZM95.2143 34.3636H96.8279L100.055 39.7955H100.192L103.419 34.3636H105.032L100.828 41.2045V46H99.4188V41.2045L95.2143 34.3636ZM108.674 46.1818C107.886 46.1818 107.194 45.9943 106.6 45.6193C106.009 45.2443 105.547 44.7197 105.213 44.0455C104.884 43.3712 104.719 42.5833 104.719 41.6818C104.719 40.7727 104.884 39.9792 105.213 39.3011C105.547 38.6231 106.009 38.0966 106.6 37.7216C107.194 37.3466 107.886 37.1591 108.674 37.1591C109.462 37.1591 110.151 37.3466 110.742 37.7216C111.337 38.0966 111.799 38.6231 112.128 39.3011C112.462 39.9792 112.628 40.7727 112.628 41.6818C112.628 42.5833 112.462 43.3712 112.128 44.0455C111.799 44.7197 111.337 45.2443 110.742 45.6193C110.151 45.9943 109.462 46.1818 108.674 46.1818ZM108.674 44.9773C109.272 44.9773 109.765 44.8239 110.151 44.517C110.537 44.2102 110.823 43.8068 111.009 43.3068C111.194 42.8068 111.287 42.2652 111.287 41.6818C111.287 41.0985 111.194 40.5549 111.009 40.0511C110.823 39.5473 110.537 39.1402 110.151 38.8295C109.765 38.5189 109.272 38.3636 108.674 38.3636C108.075 38.3636 107.583 38.5189 107.196 38.8295C106.81 39.1402 106.524 39.5473 106.338 40.0511C106.153 40.5549 106.06 41.0985 106.06 41.6818C106.06 42.2652 106.153 42.8068 106.338 43.3068C106.524 43.8068 106.81 44.2102 107.196 44.517C107.583 44.8239 108.075 44.9773 108.674 44.9773ZM119.865 42.4318V37.2727H121.205V46H119.865V44.5227H119.774C119.569 44.9659 119.251 45.3428 118.819 45.6534C118.387 45.9602 117.842 46.1136 117.183 46.1136C116.637 46.1136 116.152 45.9943 115.728 45.7557C115.304 45.5133 114.971 45.1496 114.728 44.6648C114.486 44.1761 114.365 43.5606 114.365 42.8182V37.2727H115.705V42.7273C115.705 43.3636 115.883 43.8712 116.24 44.25C116.599 44.6288 117.058 44.8182 117.615 44.8182C117.948 44.8182 118.287 44.733 118.632 44.5625C118.98 44.392 119.272 44.1307 119.507 43.7784C119.745 43.4261 119.865 42.9773 119.865 42.4318ZM131.063 49.4545C130.415 49.4545 129.859 49.3712 129.393 49.2045C128.927 49.0417 128.539 48.8258 128.228 48.5568C127.921 48.2917 127.677 48.0076 127.495 47.7045L128.563 46.9545C128.684 47.1136 128.838 47.2955 129.023 47.5C129.209 47.7083 129.463 47.8883 129.785 48.0398C130.11 48.1951 130.537 48.2727 131.063 48.2727C131.768 48.2727 132.349 48.1023 132.807 47.7614C133.266 47.4205 133.495 46.8864 133.495 46.1591V44.3864H133.381C133.283 44.5455 133.143 44.7424 132.961 44.9773C132.783 45.2083 132.525 45.4148 132.188 45.5966C131.855 45.7746 131.404 45.8636 130.836 45.8636C130.131 45.8636 129.499 45.697 128.938 45.3636C128.381 45.0303 127.94 44.5455 127.614 43.9091C127.292 43.2727 127.131 42.5 127.131 41.5909C127.131 40.697 127.289 39.9186 127.603 39.2557C127.917 38.589 128.355 38.0739 128.915 37.7102C129.476 37.3428 130.124 37.1591 130.859 37.1591C131.427 37.1591 131.878 37.2538 132.211 37.4432C132.548 37.6288 132.806 37.8409 132.984 38.0795C133.165 38.3144 133.306 38.5076 133.404 38.6591H133.54V37.2727H134.836V46.25C134.836 47 134.665 47.6098 134.325 48.0795C133.987 48.553 133.533 48.8996 132.961 49.1193C132.393 49.3428 131.76 49.4545 131.063 49.4545ZM131.018 44.6591C131.556 44.6591 132.01 44.536 132.381 44.2898C132.753 44.0436 133.035 43.6894 133.228 43.2273C133.421 42.7652 133.518 42.2121 133.518 41.5682C133.518 40.9394 133.423 40.3845 133.234 39.9034C133.044 39.4223 132.764 39.0455 132.393 38.7727C132.021 38.5 131.563 38.3636 131.018 38.3636C130.45 38.3636 129.976 38.5076 129.597 38.7955C129.222 39.0833 128.94 39.4697 128.751 39.9545C128.565 40.4394 128.472 40.9773 128.472 41.5682C128.472 42.1742 128.567 42.7102 128.756 43.1761C128.95 43.6383 129.234 44.0019 129.609 44.267C129.987 44.5284 130.457 44.6591 131.018 44.6591ZM140.639 46.1818C139.798 46.1818 139.073 45.9962 138.463 45.625C137.857 45.25 137.389 44.7273 137.059 44.0568C136.734 43.3826 136.571 42.5985 136.571 41.7045C136.571 40.8106 136.734 40.0227 137.059 39.3409C137.389 38.6553 137.847 38.1212 138.434 37.7386C139.025 37.3523 139.715 37.1591 140.503 37.1591C140.957 37.1591 141.406 37.2348 141.849 37.3864C142.292 37.5379 142.696 37.7841 143.059 38.125C143.423 38.4621 143.713 38.9091 143.929 39.4659C144.145 40.0227 144.253 40.7083 144.253 41.5227V42.0909H137.525V40.9318H142.889C142.889 40.4394 142.791 40 142.594 39.6136C142.4 39.2273 142.124 38.9223 141.764 38.6989C141.408 38.4754 140.987 38.3636 140.503 38.3636C139.969 38.3636 139.506 38.4962 139.116 38.7614C138.73 39.0227 138.433 39.3636 138.224 39.7841C138.016 40.2045 137.912 40.6553 137.912 41.1364V41.9091C137.912 42.5682 138.025 43.1269 138.253 43.5852C138.484 44.0398 138.804 44.3864 139.213 44.625C139.622 44.8598 140.097 44.9773 140.639 44.9773C140.991 44.9773 141.309 44.928 141.594 44.8295C141.881 44.7273 142.13 44.5758 142.338 44.375C142.546 44.1705 142.707 43.9167 142.821 43.6136L144.116 43.9773C143.98 44.4167 143.751 44.803 143.429 45.1364C143.107 45.4659 142.709 45.7235 142.236 45.9091C141.762 46.0909 141.23 46.1818 140.639 46.1818ZM149.777 37.2727V38.4091H145.255V37.2727H149.777ZM146.573 35.1818H147.914V43.5C147.914 43.8788 147.969 44.1629 148.078 44.3523C148.192 44.5379 148.336 44.6629 148.51 44.7273C148.688 44.7879 148.876 44.8182 149.073 44.8182C149.221 44.8182 149.342 44.8106 149.436 44.7955C149.531 44.7765 149.607 44.7614 149.664 44.75L149.936 45.9545C149.846 45.9886 149.719 46.0227 149.556 46.0568C149.393 46.0947 149.186 46.1136 148.936 46.1136C148.558 46.1136 148.186 46.0322 147.823 45.8693C147.463 45.7064 147.164 45.4583 146.925 45.125C146.69 44.7917 146.573 44.3712 146.573 43.8636V35.1818ZM159.287 46.1591C158.62 46.1591 158.02 46.0265 157.486 45.7614C156.952 45.4962 156.524 45.1326 156.202 44.6705C155.88 44.2083 155.704 43.6818 155.673 43.0909H157.037C157.09 43.6174 157.329 44.053 157.753 44.3977C158.181 44.7386 158.692 44.9091 159.287 44.9091C159.764 44.9091 160.189 44.7973 160.56 44.5739C160.935 44.3504 161.228 44.0436 161.44 43.6534C161.656 43.2595 161.764 42.8144 161.764 42.3182C161.764 41.8106 161.653 41.358 161.429 40.9602C161.209 40.5587 160.906 40.2424 160.52 40.0114C160.134 39.7803 159.692 39.6629 159.196 39.6591C158.84 39.6553 158.475 39.7102 158.1 39.8239C157.725 39.9337 157.416 40.0758 157.173 40.25L155.855 40.0909L156.56 34.3636H162.605V35.6136H157.742L157.332 39.0455H157.401C157.639 38.8561 157.939 38.6989 158.298 38.5739C158.658 38.4489 159.033 38.3864 159.423 38.3864C160.136 38.3864 160.77 38.5568 161.327 38.8977C161.887 39.2348 162.327 39.697 162.645 40.2841C162.967 40.8712 163.128 41.5417 163.128 42.2955C163.128 43.0379 162.961 43.7008 162.628 44.2841C162.298 44.8636 161.844 45.322 161.264 45.6591C160.685 45.9924 160.026 46.1591 159.287 46.1591ZM168.87 46.1591C168.014 46.1591 167.285 45.9261 166.682 45.4602C166.08 44.9905 165.62 44.3106 165.302 43.4205C164.984 42.5265 164.825 41.447 164.825 40.1818C164.825 38.9242 164.984 37.8504 165.302 36.9602C165.624 36.0663 166.086 35.3845 166.688 34.9148C167.294 34.4413 168.021 34.2045 168.87 34.2045C169.718 34.2045 170.444 34.4413 171.046 34.9148C171.652 35.3845 172.114 36.0663 172.432 36.9602C172.754 37.8504 172.915 38.9242 172.915 40.1818C172.915 41.447 172.756 42.5265 172.438 43.4205C172.12 44.3106 171.66 44.9905 171.057 45.4602C170.455 45.9261 169.726 46.1591 168.87 46.1591ZM168.87 44.9091C169.718 44.9091 170.378 44.5 170.847 43.6818C171.317 42.8636 171.552 41.697 171.552 40.1818C171.552 39.1742 171.444 38.3163 171.228 37.608C171.016 36.8996 170.709 36.3598 170.307 35.9886C169.91 35.6174 169.431 35.4318 168.87 35.4318C168.029 35.4318 167.372 35.8466 166.898 36.6761C166.425 37.5019 166.188 38.6705 166.188 40.1818C166.188 41.1894 166.294 42.0455 166.506 42.75C166.718 43.4545 167.023 43.9905 167.421 44.358C167.823 44.7254 168.306 44.9091 168.87 44.9091ZM180.696 43.8182V43.2045C180.696 42.7803 180.783 42.392 180.957 42.0398C181.135 41.6837 181.393 41.3996 181.73 41.1875C182.071 40.9716 182.484 40.8636 182.969 40.8636C183.461 40.8636 183.874 40.9716 184.207 41.1875C184.541 41.3996 184.792 41.6837 184.963 42.0398C185.133 42.392 185.219 42.7803 185.219 43.2045V43.8182C185.219 44.2424 185.131 44.6326 184.957 44.9886C184.787 45.3409 184.533 45.625 184.196 45.8409C183.863 46.053 183.453 46.1591 182.969 46.1591C182.476 46.1591 182.061 46.053 181.724 45.8409C181.387 45.625 181.131 45.3409 180.957 44.9886C180.783 44.6326 180.696 44.2424 180.696 43.8182ZM181.855 43.2045V43.8182C181.855 44.1705 181.938 44.4867 182.105 44.767C182.272 45.0436 182.559 45.1818 182.969 45.1818C183.366 45.1818 183.647 45.0436 183.809 44.767C183.976 44.4867 184.059 44.1705 184.059 43.8182V43.2045C184.059 42.8523 183.98 42.5379 183.821 42.2614C183.662 41.9811 183.378 41.8409 182.969 41.8409C182.571 41.8409 182.285 41.9811 182.111 42.2614C181.94 42.5379 181.855 42.8523 181.855 43.2045ZM174.9 37.1591V36.5455C174.9 36.1212 174.988 35.733 175.162 35.3807C175.34 35.0246 175.597 34.7405 175.934 34.5284C176.275 34.3125 176.688 34.2045 177.173 34.2045C177.666 34.2045 178.078 34.3125 178.412 34.5284C178.745 34.7405 178.997 35.0246 179.167 35.3807C179.338 35.733 179.423 36.1212 179.423 36.5455V37.1591C179.423 37.5833 179.336 37.9735 179.162 38.3295C178.991 38.6818 178.738 38.9659 178.4 39.1818C178.067 39.3939 177.658 39.5 177.173 39.5C176.681 39.5 176.266 39.3939 175.929 39.1818C175.592 38.9659 175.336 38.6818 175.162 38.3295C174.988 37.9735 174.9 37.5833 174.9 37.1591ZM176.059 36.5455V37.1591C176.059 37.5114 176.143 37.8277 176.309 38.108C176.476 38.3845 176.764 38.5227 177.173 38.5227C177.571 38.5227 177.851 38.3845 178.014 38.108C178.181 37.8277 178.264 37.5114 178.264 37.1591V36.5455C178.264 36.1932 178.184 35.8788 178.025 35.6023C177.866 35.322 177.582 35.1818 177.173 35.1818C176.775 35.1818 176.489 35.322 176.315 35.6023C176.145 35.8788 176.059 36.1932 176.059 36.5455ZM175.332 46L183.332 34.3636H184.628L176.628 46H175.332ZM195.211 46.1818C194.423 46.1818 193.732 45.9943 193.137 45.6193C192.546 45.2443 192.084 44.7197 191.751 44.0455C191.421 43.3712 191.257 42.5833 191.257 41.6818C191.257 40.7727 191.421 39.9792 191.751 39.3011C192.084 38.6231 192.546 38.0966 193.137 37.7216C193.732 37.3466 194.423 37.1591 195.211 37.1591C195.999 37.1591 196.688 37.3466 197.279 37.7216C197.874 38.0966 198.336 38.6231 198.666 39.3011C198.999 39.9792 199.166 40.7727 199.166 41.6818C199.166 42.5833 198.999 43.3712 198.666 44.0455C198.336 44.7197 197.874 45.2443 197.279 45.6193C196.688 45.9943 195.999 46.1818 195.211 46.1818ZM195.211 44.9773C195.81 44.9773 196.302 44.8239 196.688 44.517C197.075 44.2102 197.361 43.8068 197.546 43.3068C197.732 42.8068 197.825 42.2652 197.825 41.6818C197.825 41.0985 197.732 40.5549 197.546 40.0511C197.361 39.5473 197.075 39.1402 196.688 38.8295C196.302 38.5189 195.81 38.3636 195.211 38.3636C194.613 38.3636 194.12 38.5189 193.734 38.8295C193.348 39.1402 193.062 39.5473 192.876 40.0511C192.69 40.5549 192.598 41.0985 192.598 41.6818C192.598 42.2652 192.69 42.8068 192.876 43.3068C193.062 43.8068 193.348 44.2102 193.734 44.517C194.12 44.8239 194.613 44.9773 195.211 44.9773ZM204.788 37.2727V38.4091H200.084V37.2727H204.788ZM201.493 46V36.0682C201.493 35.5682 201.61 35.1515 201.845 34.8182C202.08 34.4848 202.385 34.2348 202.76 34.0682C203.135 33.9015 203.531 33.8182 203.948 33.8182C204.277 33.8182 204.546 33.8447 204.754 33.8977C204.963 33.9508 205.118 34 205.22 34.0455L204.834 35.2045C204.766 35.1818 204.671 35.1534 204.55 35.1193C204.432 35.0852 204.277 35.0682 204.084 35.0682C203.641 35.0682 203.321 35.1799 203.124 35.4034C202.931 35.6269 202.834 35.9545 202.834 36.3864V46H201.493ZM213.115 46.2045C212.562 46.2045 212.06 46.1004 211.609 45.892C211.158 45.6799 210.801 45.375 210.535 44.9773C210.27 44.5758 210.138 44.0909 210.138 43.5227C210.138 43.0227 210.236 42.6174 210.433 42.3068C210.63 41.9924 210.893 41.7462 211.223 41.5682C211.552 41.3902 211.916 41.2576 212.314 41.1705C212.715 41.0795 213.119 41.0076 213.524 40.9545C214.054 40.8864 214.484 40.8352 214.814 40.8011C215.147 40.7633 215.39 40.7008 215.541 40.6136C215.696 40.5265 215.774 40.375 215.774 40.1591V40.1136C215.774 39.553 215.621 39.1174 215.314 38.8068C215.011 38.4962 214.551 38.3409 213.933 38.3409C213.293 38.3409 212.791 38.4811 212.427 38.7614C212.064 39.0417 211.808 39.3409 211.66 39.6591L210.388 39.2045C210.615 38.6742 210.918 38.2614 211.297 37.9659C211.679 37.6667 212.096 37.4583 212.547 37.3409C213.001 37.2197 213.448 37.1591 213.888 37.1591C214.168 37.1591 214.49 37.1932 214.854 37.2614C215.221 37.3258 215.575 37.4602 215.916 37.6648C216.261 37.8693 216.547 38.178 216.774 38.5909C217.001 39.0038 217.115 39.5568 217.115 40.25V46H215.774V44.8182H215.706C215.615 45.0076 215.463 45.2102 215.251 45.4261C215.039 45.642 214.757 45.8258 214.405 45.9773C214.052 46.1288 213.622 46.2045 213.115 46.2045ZM213.319 45C213.85 45 214.297 44.8958 214.66 44.6875C215.028 44.4792 215.304 44.2102 215.49 43.8807C215.679 43.5511 215.774 43.2045 215.774 42.8409V41.6136C215.717 41.6818 215.592 41.7443 215.399 41.8011C215.21 41.8542 214.99 41.9015 214.74 41.9432C214.494 41.9811 214.253 42.0152 214.018 42.0455C213.787 42.072 213.6 42.0947 213.456 42.1136C213.107 42.1591 212.782 42.233 212.479 42.3352C212.179 42.4337 211.937 42.5833 211.751 42.7841C211.569 42.9811 211.479 43.25 211.479 43.5909C211.479 44.0568 211.651 44.4091 211.996 44.6477C212.344 44.8826 212.785 45 213.319 45ZM220.593 34.3636V46H219.252V34.3636H220.593ZM224.079 34.3636V46H222.738V34.3636H224.079ZM19.0227 56.2727V57.4091H14.5V56.2727H19.0227ZM15.8182 54.1818H17.1591V62.5C17.1591 62.8788 17.214 63.1629 17.3239 63.3523C17.4375 63.5379 17.5814 63.6629 17.7557 63.7273C17.9337 63.7879 18.1212 63.8182 18.3182 63.8182C18.4659 63.8182 18.5871 63.8106 18.6818 63.7955C18.7765 63.7765 18.8523 63.7614 18.9091 63.75L19.1818 64.9545C19.0909 64.9886 18.964 65.0227 18.8011 65.0568C18.6383 65.0947 18.4318 65.1136 18.1818 65.1136C17.803 65.1136 17.4318 65.0322 17.0682 64.8693C16.7083 64.7064 16.4091 64.4583 16.1705 64.125C15.9356 63.7917 15.8182 63.3712 15.8182 62.8636V54.1818ZM22.2577 59.75V65H20.9168V53.3636H22.2577V57.6364H22.3713C22.5759 57.1856 22.8827 56.8277 23.2918 56.5625C23.7046 56.2936 24.2539 56.1591 24.9395 56.1591C25.5342 56.1591 26.055 56.2784 26.502 56.517C26.949 56.7519 27.2956 57.1136 27.5418 57.6023C27.7918 58.0871 27.9168 58.7045 27.9168 59.4545V65H26.5759V59.5455C26.5759 58.8523 26.3959 58.3163 26.0361 57.9375C25.68 57.5549 25.1857 57.3636 24.5531 57.3636C24.1137 57.3636 23.7198 57.4564 23.3713 57.642C23.0266 57.8277 22.7539 58.0985 22.5531 58.4545C22.3562 58.8106 22.2577 59.2424 22.2577 59.75ZM33.7185 65.1818C32.8776 65.1818 32.1522 64.9962 31.5423 64.625C30.9363 64.25 30.4685 63.7273 30.1389 63.0568C29.8132 62.3826 29.6503 61.5985 29.6503 60.7045C29.6503 59.8106 29.8132 59.0227 30.1389 58.3409C30.4685 57.6553 30.9268 57.1212 31.5139 56.7386C32.1048 56.3523 32.7942 56.1591 33.5821 56.1591C34.0367 56.1591 34.4855 56.2348 34.9287 56.3864C35.3719 56.5379 35.7753 56.7841 36.1389 57.125C36.5026 57.4621 36.7923 57.9091 37.0082 58.4659C37.2242 59.0227 37.3321 59.7083 37.3321 60.5227V61.0909H30.6048V59.9318H35.9685C35.9685 59.4394 35.87 59 35.673 58.6136C35.4798 58.2273 35.2033 57.9223 34.8435 57.6989C34.4874 57.4754 34.067 57.3636 33.5821 57.3636C33.048 57.3636 32.5859 57.4962 32.1957 57.7614C31.8094 58.0227 31.512 58.3636 31.3037 58.7841C31.0954 59.2045 30.9912 59.6553 30.9912 60.1364V60.9091C30.9912 61.5682 31.1048 62.1269 31.3321 62.5852C31.5632 63.0398 31.8832 63.3864 32.2923 63.625C32.7014 63.8598 33.1768 63.9773 33.7185 63.9773C34.0707 63.9773 34.3889 63.928 34.673 63.8295C34.9609 63.7273 35.209 63.5758 35.4173 63.375C35.6257 63.1705 35.7867 62.9167 35.9003 62.6136L37.1957 62.9773C37.0594 63.4167 36.8302 63.803 36.5082 64.1364C36.1863 64.4659 35.7886 64.7235 35.3151 64.9091C34.8416 65.0909 34.3094 65.1818 33.7185 65.1818ZM39.0614 65V56.2727H40.4023V65H39.0614ZM39.7432 54.8182C39.4818 54.8182 39.2565 54.7292 39.0671 54.5511C38.8815 54.3731 38.7887 54.1591 38.7887 53.9091C38.7887 53.6591 38.8815 53.4451 39.0671 53.267C39.2565 53.089 39.4818 53 39.7432 53C40.0046 53 40.228 53.089 40.4137 53.267C40.603 53.4451 40.6977 53.6591 40.6977 53.9091C40.6977 54.1591 40.603 54.3731 40.4137 54.5511C40.228 54.7292 40.0046 54.8182 39.7432 54.8182ZM42.5477 65V56.2727H43.8432V57.5909H43.9341C44.0932 57.1591 44.3811 56.8087 44.7977 56.5398C45.2144 56.2708 45.6841 56.1364 46.2068 56.1364C46.3053 56.1364 46.4284 56.1383 46.5762 56.142C46.7239 56.1458 46.8356 56.1515 46.9114 56.1591V57.5227C46.8659 57.5114 46.7618 57.4943 46.5989 57.4716C46.4398 57.4451 46.2712 57.4318 46.0932 57.4318C45.669 57.4318 45.2902 57.5208 44.9568 57.6989C44.6273 57.8731 44.3659 58.1155 44.1727 58.4261C43.9834 58.733 43.8887 59.0833 43.8887 59.4773V65H42.5477ZM52.3799 65V56.2727H53.6753V57.5909H53.7662C53.9253 57.1591 54.2132 56.8087 54.6299 56.5398C55.0465 56.2708 55.5162 56.1364 56.0389 56.1364C56.1374 56.1364 56.2605 56.1383 56.4083 56.142C56.556 56.1458 56.6677 56.1515 56.7435 56.1591V57.5227C56.698 57.5114 56.5939 57.4943 56.431 57.4716C56.2719 57.4451 56.1033 57.4318 55.9253 57.4318C55.5011 57.4318 55.1223 57.5208 54.7889 57.6989C54.4594 57.8731 54.198 58.1155 54.0049 58.4261C53.8155 58.733 53.7208 59.0833 53.7208 59.4773V65H52.3799ZM61.4159 65.1818C60.575 65.1818 59.8497 64.9962 59.2398 64.625C58.6337 64.25 58.1659 63.7273 57.8364 63.0568C57.5106 62.3826 57.3478 61.5985 57.3478 60.7045C57.3478 59.8106 57.5106 59.0227 57.8364 58.3409C58.1659 57.6553 58.6243 57.1212 59.2114 56.7386C59.8023 56.3523 60.4917 56.1591 61.2796 56.1591C61.7341 56.1591 62.183 56.2348 62.6262 56.3864C63.0694 56.5379 63.4728 56.7841 63.8364 57.125C64.2 57.4621 64.4898 57.9091 64.7057 58.4659C64.9216 59.0227 65.0296 59.7083 65.0296 60.5227V61.0909H58.3023V59.9318H63.6659C63.6659 59.4394 63.5675 59 63.3705 58.6136C63.1773 58.2273 62.9008 57.9223 62.5409 57.6989C62.1849 57.4754 61.7644 57.3636 61.2796 57.3636C60.7455 57.3636 60.2834 57.4962 59.8932 57.7614C59.5069 58.0227 59.2095 58.3636 59.0012 58.7841C58.7928 59.2045 58.6887 59.6553 58.6887 60.1364V60.9091C58.6887 61.5682 58.8023 62.1269 59.0296 62.5852C59.2606 63.0398 59.5807 63.3864 59.9898 63.625C60.3989 63.8598 60.8743 63.9773 61.4159 63.9773C61.7682 63.9773 62.0864 63.928 62.3705 63.8295C62.6584 63.7273 62.9065 63.5758 63.1148 63.375C63.3231 63.1705 63.4841 62.9167 63.5978 62.6136L64.8932 62.9773C64.7569 63.4167 64.5277 63.803 64.2057 64.1364C63.8837 64.4659 63.486 64.7235 63.0125 64.9091C62.539 65.0909 62.0069 65.1818 61.4159 65.1818ZM68.7361 65L66.077 56.2727H67.4861L69.3725 62.9545H69.4634L71.327 56.2727H72.7588L74.5998 62.9318H74.6907L76.577 56.2727H77.9861L75.327 65H74.0088L72.0998 58.2955H71.9634L70.0543 65H68.7361ZM82.0165 65.2045C81.4635 65.2045 80.9616 65.1004 80.5108 64.892C80.0601 64.6799 79.7021 64.375 79.437 63.9773C79.1718 63.5758 79.0392 63.0909 79.0392 62.5227C79.0392 62.0227 79.1377 61.6174 79.3347 61.3068C79.5317 60.9924 79.7949 60.7462 80.1245 60.5682C80.454 60.3902 80.8177 60.2576 81.2154 60.1705C81.6169 60.0795 82.0203 60.0076 82.4256 59.9545C82.9559 59.8864 83.3858 59.8352 83.7154 59.8011C84.0487 59.7633 84.2911 59.7008 84.4427 59.6136C84.598 59.5265 84.6756 59.375 84.6756 59.1591V59.1136C84.6756 58.553 84.5222 58.1174 84.2154 57.8068C83.9123 57.4962 83.4521 57.3409 82.8347 57.3409C82.1945 57.3409 81.6927 57.4811 81.329 57.7614C80.9654 58.0417 80.7097 58.3409 80.562 58.6591L79.2892 58.2045C79.5165 57.6742 79.8195 57.2614 80.1983 56.9659C80.5809 56.6667 80.9976 56.4583 81.4483 56.3409C81.9029 56.2197 82.3498 56.1591 82.7892 56.1591C83.0695 56.1591 83.3915 56.1932 83.7552 56.2614C84.1226 56.3258 84.4767 56.4602 84.8177 56.6648C85.1623 56.8693 85.4483 57.178 85.6756 57.5909C85.9029 58.0038 86.0165 58.5568 86.0165 59.25V65H84.6756V63.8182H84.6074C84.5165 64.0076 84.365 64.2102 84.1529 64.4261C83.9408 64.642 83.6586 64.8258 83.3063 64.9773C82.954 65.1288 82.5241 65.2045 82.0165 65.2045ZM82.2211 64C82.7514 64 83.1983 63.8958 83.562 63.6875C83.9294 63.4792 84.2059 63.2102 84.3915 62.8807C84.5809 62.5511 84.6756 62.2045 84.6756 61.8409V60.6136C84.6188 60.6818 84.4938 60.7443 84.3006 60.8011C84.1112 60.8542 83.8915 60.9015 83.6415 60.9432C83.3953 60.9811 83.1548 61.0152 82.9199 61.0455C82.6889 61.072 82.5014 61.0947 82.3574 61.1136C82.0089 61.1591 81.6832 61.233 81.3802 61.3352C81.0809 61.4337 80.8385 61.5833 80.6529 61.7841C80.4711 61.9811 80.3802 62.25 80.3802 62.5909C80.3802 63.0568 80.5525 63.4091 80.8972 63.6477C81.2457 63.8826 81.687 64 82.2211 64ZM88.1535 65V56.2727H89.4489V57.5909H89.5398C89.6989 57.1591 89.9868 56.8087 90.4035 56.5398C90.8201 56.2708 91.2898 56.1364 91.8125 56.1364C91.911 56.1364 92.0341 56.1383 92.1819 56.142C92.3296 56.1458 92.4413 56.1515 92.5171 56.1591V57.5227C92.4716 57.5114 92.3675 57.4943 92.2046 57.4716C92.0455 57.4451 91.8769 57.4318 91.6989 57.4318C91.2747 57.4318 90.8959 57.5208 90.5625 57.6989C90.233 57.8731 89.9716 58.1155 89.7785 58.4261C89.5891 58.733 89.4944 59.0833 89.4944 59.4773V65H88.1535ZM96.8259 65.1818C96.0986 65.1818 95.4566 64.9981 94.8998 64.6307C94.3429 64.2595 93.9073 63.7367 93.5929 63.0625C93.2786 62.3845 93.1214 61.5833 93.1214 60.6591C93.1214 59.7424 93.2786 58.947 93.5929 58.2727C93.9073 57.5985 94.3448 57.0777 94.9054 56.7102C95.4661 56.3428 96.1138 56.1591 96.8486 56.1591C97.4168 56.1591 97.8657 56.2538 98.1952 56.4432C98.5286 56.6288 98.7823 56.8409 98.9566 57.0795C99.1346 57.3144 99.2729 57.5076 99.3714 57.6591H99.485V53.3636H100.826V65H99.5304V63.6591H99.3714C99.2729 63.8182 99.1327 64.0189 98.9509 64.2614C98.7691 64.5 98.5096 64.714 98.1725 64.9034C97.8354 65.089 97.3865 65.1818 96.8259 65.1818ZM97.0077 63.9773C97.5456 63.9773 98.0001 63.8371 98.3714 63.5568C98.7426 63.2727 99.0248 62.8807 99.2179 62.3807C99.4111 61.8769 99.5077 61.2955 99.5077 60.6364C99.5077 59.9848 99.413 59.4148 99.2236 58.9261C99.0342 58.4337 98.7539 58.0511 98.3827 57.7784C98.0115 57.5019 97.5532 57.3636 97.0077 57.3636C96.4395 57.3636 95.9661 57.5095 95.5873 57.8011C95.2123 58.089 94.9301 58.4811 94.7407 58.9773C94.5551 59.4697 94.4623 60.0227 94.4623 60.6364C94.4623 61.2576 94.557 61.822 94.7464 62.3295C94.9395 62.8333 95.2236 63.2348 95.5986 63.5341C95.9774 63.8295 96.4471 63.9773 97.0077 63.9773ZM109.339 58.2273L108.135 58.5682C108.059 58.3674 107.947 58.1723 107.799 57.983C107.656 57.7898 107.459 57.6307 107.209 57.5057C106.959 57.3807 106.639 57.3182 106.248 57.3182C105.714 57.3182 105.269 57.4413 104.913 57.6875C104.561 57.9299 104.385 58.2386 104.385 58.6136C104.385 58.947 104.506 59.2102 104.748 59.4034C104.991 59.5966 105.37 59.7576 105.885 59.8864L107.18 60.2045C107.96 60.3939 108.542 60.6837 108.924 61.0739C109.307 61.4602 109.498 61.9583 109.498 62.5682C109.498 63.0682 109.354 63.5152 109.067 63.9091C108.782 64.303 108.385 64.6136 107.873 64.8409C107.362 65.0682 106.767 65.1818 106.089 65.1818C105.199 65.1818 104.462 64.9886 103.879 64.6023C103.296 64.2159 102.926 63.6515 102.771 62.9091L104.044 62.5909C104.165 63.0606 104.394 63.4129 104.731 63.6477C105.072 63.8826 105.517 64 106.067 64C106.692 64 107.188 63.8674 107.555 63.6023C107.926 63.3333 108.112 63.0114 108.112 62.6364C108.112 62.3333 108.006 62.0795 107.794 61.875C107.582 61.6667 107.256 61.5114 106.817 61.4091L105.362 61.0682C104.563 60.8788 103.976 60.5852 103.601 60.1875C103.229 59.786 103.044 59.2841 103.044 58.6818C103.044 58.1894 103.182 57.7538 103.459 57.375C103.739 56.9962 104.12 56.6989 104.601 56.483C105.085 56.267 105.635 56.1591 106.248 56.1591C107.112 56.1591 107.79 56.3485 108.282 56.7273C108.779 57.1061 109.131 57.6061 109.339 58.2273ZM112.184 65.0909C111.903 65.0909 111.663 64.9905 111.462 64.7898C111.261 64.589 111.161 64.3485 111.161 64.0682C111.161 63.7879 111.261 63.5473 111.462 63.3466C111.663 63.1458 111.903 63.0455 112.184 63.0455C112.464 63.0455 112.704 63.1458 112.905 63.3466C113.106 63.5473 113.206 63.7879 113.206 64.0682C113.206 64.2538 113.159 64.4242 113.064 64.5795C112.973 64.7348 112.85 64.8598 112.695 64.9545C112.543 65.0455 112.373 65.0909 112.184 65.0909Z" fill="black"/>
<defs>
<filter id="filter0_d" x="0" y="0" width="265" height="82" filterUnits="userSpaceOnUse" color-interpolation-filters="sRGB">
<feFlood flood-opacity="0" result="BackgroundImageFix"/>
<feColorMatrix in="SourceAlpha" type="matrix" values="0 0 0 0 0 0 0 0 0 0 0 0 0 0 0 0 0 0 127 0"/>
<feOffset dy="1"/>
<feGaussianBlur stdDeviation="0.5"/>
<feColorMatrix type="matrix" values="0 0 0 0 0.14902 0 0 0 0 0.207843 0 0 0 0 0.25098 0 0 0 0.3 0"/>
<feBlend mode="multiply" in2="BackgroundImageFix" result="effect1_dropShadow"/>
<feBlend mode="normal" in="SourceGraphic" in2="effect1_dropShadow" result="shape"/>
</filter>
</defs>
</svg>
