<svg width="265" height="100" viewBox="0 0 265 100" fill="none" xmlns="http://www.w3.org/2000/svg">
<g filter="url(#filter0_d)">
<rect x="1" width="263" height="98" rx="20" fill="#E9EEF1"/>
</g>
<path d="M17.5227 28L14.3409 16.3636H15.7727L18.2045 25.8409H18.3182L20.7955 16.3636H22.3864L24.8636 25.8409H24.9773L27.4091 16.3636H28.8409L25.6591 28H24.2045L21.6364 18.7273H21.5455L18.9773 28H17.5227ZM32.9509 28.1818C32.1099 28.1818 31.3846 27.9962 30.7747 27.625C30.1687 27.25 29.7009 26.7273 29.3713 26.0568C29.0456 25.3826 28.8827 24.5985 28.8827 23.7045C28.8827 22.8106 29.0456 22.0227 29.3713 21.3409C29.7009 20.6553 30.1592 20.1212 30.7463 19.7386C31.3372 19.3523 32.0266 19.1591 32.8145 19.1591C33.269 19.1591 33.7179 19.2348 34.1611 19.3864C34.6043 19.5379 35.0077 19.7841 35.3713 20.125C35.7349 20.4621 36.0247 20.9091 36.2406 21.4659C36.4565 22.0227 36.5645 22.7083 36.5645 23.5227V24.0909H29.8372V22.9318H35.2009C35.2009 22.4394 35.1024 22 34.9054 21.6136C34.7122 21.2273 34.4357 20.9223 34.0759 20.6989C33.7198 20.4754 33.2993 20.3636 32.8145 20.3636C32.2804 20.3636 31.8183 20.4962 31.4281 20.7614C31.0418 21.0227 30.7444 21.3636 30.5361 21.7841C30.3278 22.2045 30.2236 22.6553 30.2236 23.1364V23.9091C30.2236 24.5682 30.3372 25.1269 30.5645 25.5852C30.7956 26.0398 31.1156 26.3864 31.5247 26.625C31.9338 26.8598 32.4092 26.9773 32.9509 26.9773C33.3031 26.9773 33.6213 26.928 33.9054 26.8295C34.1933 26.7273 34.4414 26.5758 34.6497 26.375C34.8581 26.1705 35.019 25.9167 35.1327 25.6136L36.4281 25.9773C36.2918 26.4167 36.0626 26.803 35.7406 27.1364C35.4187 27.4659 35.0209 27.7235 34.5474 27.9091C34.074 28.0909 33.5418 28.1818 32.9509 28.1818ZM43.8242 16.3636V28H42.4833V16.3636H43.8242ZM49.5151 28.1818C48.7272 28.1818 48.0359 27.9943 47.4412 27.6193C46.8503 27.2443 46.3882 26.7197 46.0548 26.0455C45.7253 25.3712 45.5605 24.5833 45.5605 23.6818C45.5605 22.7727 45.7253 21.9792 46.0548 21.3011C46.3882 20.6231 46.8503 20.0966 47.4412 19.7216C48.0359 19.3466 48.7272 19.1591 49.5151 19.1591C50.303 19.1591 50.9923 19.3466 51.5833 19.7216C52.178 20.0966 52.6401 20.6231 52.9696 21.3011C53.303 21.9792 53.4696 22.7727 53.4696 23.6818C53.4696 24.5833 53.303 25.3712 52.9696 26.0455C52.6401 26.7197 52.178 27.2443 51.5833 27.6193C50.9923 27.9943 50.303 28.1818 49.5151 28.1818ZM49.5151 26.9773C50.1136 26.9773 50.606 26.8239 50.9923 26.517C51.3787 26.2102 51.6647 25.8068 51.8503 25.3068C52.0359 24.8068 52.1287 24.2652 52.1287 23.6818C52.1287 23.0985 52.0359 22.5549 51.8503 22.0511C51.6647 21.5473 51.3787 21.1402 50.9923 20.8295C50.606 20.5189 50.1136 20.3636 49.5151 20.3636C48.9166 20.3636 48.4242 20.5189 48.0378 20.8295C47.6514 21.1402 47.3655 21.5473 47.1798 22.0511C46.9942 22.5549 46.9014 23.0985 46.9014 23.6818C46.9014 24.2652 46.9942 24.8068 47.1798 25.3068C47.3655 25.8068 47.6514 26.2102 48.0378 26.517C48.4242 26.8239 48.9166 26.9773 49.5151 26.9773ZM62.0299 19.2727L58.8026 28H57.4389L54.2117 19.2727H55.6662L58.0753 26.2273H58.1662L60.5753 19.2727H62.0299ZM66.8358 28.1818C65.9949 28.1818 65.2695 27.9962 64.6597 27.625C64.0536 27.25 63.5858 26.7273 63.2563 26.0568C62.9305 25.3826 62.7676 24.5985 62.7676 23.7045C62.7676 22.8106 62.9305 22.0227 63.2563 21.3409C63.5858 20.6553 64.0442 20.1212 64.6313 19.7386C65.2222 19.3523 65.9116 19.1591 66.6995 19.1591C67.154 19.1591 67.6029 19.2348 68.0461 19.3864C68.4892 19.5379 68.8926 19.7841 69.2563 20.125C69.6199 20.4621 69.9097 20.9091 70.1256 21.4659C70.3415 22.0227 70.4495 22.7083 70.4495 23.5227V24.0909H63.7222V22.9318H69.0858C69.0858 22.4394 68.9873 22 68.7904 21.6136C68.5972 21.2273 68.3207 20.9223 67.9608 20.6989C67.6048 20.4754 67.1843 20.3636 66.6995 20.3636C66.1654 20.3636 65.7032 20.4962 65.3131 20.7614C64.9267 21.0227 64.6294 21.3636 64.4211 21.7841C64.2127 22.2045 64.1086 22.6553 64.1086 23.1364V23.9091C64.1086 24.5682 64.2222 25.1269 64.4495 25.5852C64.6805 26.0398 65.0006 26.3864 65.4097 26.625C65.8188 26.8598 66.2942 26.9773 66.8358 26.9773C67.1881 26.9773 67.5063 26.928 67.7904 26.8295C68.0782 26.7273 68.3264 26.5758 68.5347 26.375C68.743 26.1705 68.904 25.9167 69.0176 25.6136L70.3131 25.9773C70.1767 26.4167 69.9476 26.803 69.6256 27.1364C69.3036 27.4659 68.9059 27.7235 68.4324 27.9091C67.9589 28.0909 67.4267 28.1818 66.8358 28.1818ZM79.8909 31.4545C79.2432 31.4545 78.6864 31.3712 78.2205 31.2045C77.7546 31.0417 77.3663 30.8258 77.0557 30.5568C76.7489 30.2917 76.5046 30.0076 76.3228 29.7045L77.3909 28.9545C77.5122 29.1136 77.6656 29.2955 77.8512 29.5C78.0368 29.7083 78.2906 29.8883 78.6125 30.0398C78.9383 30.1951 79.3644 30.2727 79.8909 30.2727C80.5955 30.2727 81.1769 30.1023 81.6353 29.7614C82.0936 29.4205 82.3228 28.8864 82.3228 28.1591V26.3864H82.2091C82.1106 26.5455 81.9705 26.7424 81.7887 26.9773C81.6106 27.2083 81.3531 27.4148 81.0159 27.5966C80.6826 27.7746 80.2319 27.8636 79.6637 27.8636C78.9591 27.8636 78.3266 27.697 77.7659 27.3636C77.2091 27.0303 76.7678 26.5455 76.4421 25.9091C76.1201 25.2727 75.9591 24.5 75.9591 23.5909C75.9591 22.697 76.1163 21.9186 76.4307 21.2557C76.7451 20.589 77.1826 20.0739 77.7432 19.7102C78.3038 19.3428 78.9516 19.1591 79.6864 19.1591C80.2546 19.1591 80.7053 19.2538 81.0387 19.4432C81.3758 19.6288 81.6334 19.8409 81.8114 20.0795C81.9932 20.3144 82.1334 20.5076 82.2319 20.6591H82.3682V19.2727H83.6637V28.25C83.6637 29 83.4932 29.6098 83.1523 30.0795C82.8152 30.553 82.3606 30.8996 81.7887 31.1193C81.2205 31.3428 80.5879 31.4545 79.8909 31.4545ZM79.8455 26.6591C80.3834 26.6591 80.8379 26.536 81.2091 26.2898C81.5803 26.0436 81.8625 25.6894 82.0557 25.2273C82.2489 24.7652 82.3455 24.2121 82.3455 23.5682C82.3455 22.9394 82.2508 22.3845 82.0614 21.9034C81.872 21.4223 81.5917 21.0455 81.2205 20.7727C80.8493 20.5 80.3909 20.3636 79.8455 20.3636C79.2773 20.3636 78.8038 20.5076 78.425 20.7955C78.05 21.0833 77.7678 21.4697 77.5784 21.9545C77.3928 22.4394 77.3 22.9773 77.3 23.5682C77.3 24.1742 77.3947 24.7102 77.5841 25.1761C77.7773 25.6383 78.0614 26.0019 78.4364 26.267C78.8152 26.5284 79.2849 26.6591 79.8455 26.6591ZM85.8077 28V19.2727H87.1486V28H85.8077ZM86.4895 17.8182C86.2282 17.8182 86.0028 17.7292 85.8134 17.5511C85.6278 17.3731 85.535 17.1591 85.535 16.9091C85.535 16.6591 85.6278 16.4451 85.8134 16.267C86.0028 16.089 86.2282 16 86.4895 16C86.7509 16 86.9744 16.089 87.16 16.267C87.3494 16.4451 87.4441 16.6591 87.4441 16.9091C87.4441 17.1591 87.3494 17.3731 87.16 17.5511C86.9744 17.7292 86.7509 17.8182 86.4895 17.8182ZM96.4304 19.2727L93.2032 28H91.8395L88.6123 19.2727H90.0668L92.4759 26.2273H92.5668L94.9759 19.2727H96.4304ZM97.8898 28V19.2727H99.2307V28H97.8898ZM98.5716 17.8182C98.3103 17.8182 98.0849 17.7292 97.8955 17.5511C97.7099 17.3731 97.6171 17.1591 97.6171 16.9091C97.6171 16.6591 97.7099 16.4451 97.8955 16.267C98.0849 16.089 98.3103 16 98.5716 16C98.833 16 99.0565 16.089 99.2421 16.267C99.4315 16.4451 99.5262 16.6591 99.5262 16.9091C99.5262 17.1591 99.4315 17.3731 99.2421 17.5511C99.0565 17.7292 98.833 17.8182 98.5716 17.8182ZM102.717 22.75V28H101.376V19.2727H102.672V20.6364H102.785C102.99 20.1932 103.3 19.8371 103.717 19.5682C104.134 19.2955 104.672 19.1591 105.331 19.1591C105.922 19.1591 106.439 19.2803 106.882 19.5227C107.325 19.7614 107.67 20.125 107.916 20.6136C108.162 21.0985 108.285 21.7121 108.285 22.4545V28H106.944V22.5455C106.944 21.8598 106.766 21.3258 106.41 20.9432C106.054 20.5568 105.566 20.3636 104.944 20.3636C104.516 20.3636 104.134 20.4564 103.797 20.642C103.463 20.8277 103.2 21.0985 103.007 21.4545C102.814 21.8106 102.717 22.2424 102.717 22.75ZM113.948 31.4545C113.3 31.4545 112.743 31.3712 112.277 31.2045C111.811 31.0417 111.423 30.8258 111.113 30.5568C110.806 30.2917 110.561 30.0076 110.38 29.7045L111.448 28.9545C111.569 29.1136 111.722 29.2955 111.908 29.5C112.094 29.7083 112.347 29.8883 112.669 30.0398C112.995 30.1951 113.421 30.2727 113.948 30.2727C114.652 30.2727 115.234 30.1023 115.692 29.7614C116.15 29.4205 116.38 28.8864 116.38 28.1591V26.3864H116.266C116.167 26.5455 116.027 26.7424 115.846 26.9773C115.667 27.2083 115.41 27.4148 115.073 27.5966C114.739 27.7746 114.289 27.8636 113.721 27.8636C113.016 27.8636 112.383 27.697 111.823 27.3636C111.266 27.0303 110.825 26.5455 110.499 25.9091C110.177 25.2727 110.016 24.5 110.016 23.5909C110.016 22.697 110.173 21.9186 110.488 21.2557C110.802 20.589 111.239 20.0739 111.8 19.7102C112.361 19.3428 113.008 19.1591 113.743 19.1591C114.311 19.1591 114.762 19.2538 115.096 19.4432C115.433 19.6288 115.69 19.8409 115.868 20.0795C116.05 20.3144 116.19 20.5076 116.289 20.6591H116.425V19.2727H117.721V28.25C117.721 29 117.55 29.6098 117.209 30.0795C116.872 30.553 116.417 30.8996 115.846 31.1193C115.277 31.3428 114.645 31.4545 113.948 31.4545ZM113.902 26.6591C114.44 26.6591 114.895 26.536 115.266 26.2898C115.637 26.0436 115.919 25.6894 116.113 25.2273C116.306 24.7652 116.402 24.2121 116.402 23.5682C116.402 22.9394 116.308 22.3845 116.118 21.9034C115.929 21.4223 115.649 21.0455 115.277 20.7727C114.906 20.5 114.448 20.3636 113.902 20.3636C113.334 20.3636 112.861 20.5076 112.482 20.7955C112.107 21.0833 111.825 21.4697 111.635 21.9545C111.45 22.4394 111.357 22.9773 111.357 23.5682C111.357 24.1742 111.452 24.7102 111.641 25.1761C111.834 25.6383 112.118 26.0019 112.493 26.267C112.872 26.5284 113.342 26.6591 113.902 26.6591ZM124.054 28V19.2727H125.35V20.5909H125.44C125.6 20.1591 125.887 19.8087 126.304 19.5398C126.721 19.2708 127.19 19.1364 127.713 19.1364C127.812 19.1364 127.935 19.1383 128.082 19.142C128.23 19.1458 128.342 19.1515 128.418 19.1591V20.5227C128.372 20.5114 128.268 20.4943 128.105 20.4716C127.946 20.4451 127.778 20.4318 127.6 20.4318C127.175 20.4318 126.796 20.5208 126.463 20.6989C126.134 20.8731 125.872 21.1155 125.679 21.4261C125.49 21.733 125.395 22.0833 125.395 22.4773V28H124.054ZM133.09 28.1818C132.249 28.1818 131.524 27.9962 130.914 27.625C130.308 27.25 129.84 26.7273 129.511 26.0568C129.185 25.3826 129.022 24.5985 129.022 23.7045C129.022 22.8106 129.185 22.0227 129.511 21.3409C129.84 20.6553 130.298 20.1212 130.886 19.7386C131.476 19.3523 132.166 19.1591 132.954 19.1591C133.408 19.1591 133.857 19.2348 134.3 19.3864C134.744 19.5379 135.147 19.7841 135.511 20.125C135.874 20.4621 136.164 20.9091 136.38 21.4659C136.596 22.0227 136.704 22.7083 136.704 23.5227V24.0909H129.976V22.9318H135.34C135.34 22.4394 135.242 22 135.045 21.6136C134.851 21.2273 134.575 20.9223 134.215 20.6989C133.859 20.4754 133.439 20.3636 132.954 20.3636C132.42 20.3636 131.958 20.4962 131.567 20.7614C131.181 21.0227 130.884 21.3636 130.675 21.7841C130.467 22.2045 130.363 22.6553 130.363 23.1364V23.9091C130.363 24.5682 130.476 25.1269 130.704 25.5852C130.935 26.0398 131.255 26.3864 131.664 26.625C132.073 26.8598 132.548 26.9773 133.09 26.9773C133.442 26.9773 133.761 26.928 134.045 26.8295C134.333 26.7273 134.581 26.5758 134.789 26.375C134.997 26.1705 135.158 25.9167 135.272 25.6136L136.567 25.9773C136.431 26.4167 136.202 26.803 135.88 27.1364C135.558 27.4659 135.16 27.7235 134.687 27.9091C134.213 28.0909 133.681 28.1818 133.09 28.1818ZM140.41 28L137.751 19.2727H139.16L141.047 25.9545H141.138L143.001 19.2727H144.433L146.274 25.9318H146.365L148.251 19.2727H149.66L147.001 28H145.683L143.774 21.2955H143.638L141.728 28H140.41ZM153.691 28.2045C153.138 28.2045 152.636 28.1004 152.185 27.892C151.734 27.6799 151.376 27.375 151.111 26.9773C150.846 26.5758 150.713 26.0909 150.713 25.5227C150.713 25.0227 150.812 24.6174 151.009 24.3068C151.206 23.9924 151.469 23.7462 151.799 23.5682C152.128 23.3902 152.492 23.2576 152.89 23.1705C153.291 23.0795 153.694 23.0076 154.1 22.9545C154.63 22.8864 155.06 22.8352 155.39 22.8011C155.723 22.7633 155.965 22.7008 156.117 22.6136C156.272 22.5265 156.35 22.375 156.35 22.1591V22.1136C156.35 21.553 156.196 21.1174 155.89 20.8068C155.587 20.4962 155.126 20.3409 154.509 20.3409C153.869 20.3409 153.367 20.4811 153.003 20.7614C152.64 21.0417 152.384 21.3409 152.236 21.6591L150.963 21.2045C151.191 20.6742 151.494 20.2614 151.873 19.9659C152.255 19.6667 152.672 19.4583 153.123 19.3409C153.577 19.2197 154.024 19.1591 154.463 19.1591C154.744 19.1591 155.066 19.1932 155.429 19.2614C155.797 19.3258 156.151 19.4602 156.492 19.6648C156.837 19.8693 157.123 20.178 157.35 20.5909C157.577 21.0038 157.691 21.5568 157.691 22.25V28H156.35V26.8182H156.282C156.191 27.0076 156.039 27.2102 155.827 27.4261C155.615 27.642 155.333 27.8258 154.98 27.9773C154.628 28.1288 154.198 28.2045 153.691 28.2045ZM153.895 27C154.426 27 154.873 26.8958 155.236 26.6875C155.604 26.4792 155.88 26.2102 156.066 25.8807C156.255 25.5511 156.35 25.2045 156.35 24.8409V23.6136C156.293 23.6818 156.168 23.7443 155.975 23.8011C155.785 23.8542 155.566 23.9015 155.316 23.9432C155.069 23.9811 154.829 24.0152 154.594 24.0455C154.363 24.072 154.176 24.0947 154.032 24.1136C153.683 24.1591 153.357 24.233 153.054 24.3352C152.755 24.4337 152.513 24.5833 152.327 24.7841C152.145 24.9811 152.054 25.25 152.054 25.5909C152.054 26.0568 152.227 26.4091 152.571 26.6477C152.92 26.8826 153.361 27 153.895 27ZM159.828 28V19.2727H161.123V20.5909H161.214C161.373 20.1591 161.661 19.8087 162.078 19.5398C162.494 19.2708 162.964 19.1364 163.487 19.1364C163.585 19.1364 163.708 19.1383 163.856 19.142C164.004 19.1458 164.116 19.1515 164.191 19.1591V20.5227C164.146 20.5114 164.042 20.4943 163.879 20.4716C163.72 20.4451 163.551 20.4318 163.373 20.4318C162.949 20.4318 162.57 20.5208 162.237 20.6989C161.907 20.8731 161.646 21.1155 161.453 21.4261C161.263 21.733 161.169 22.0833 161.169 22.4773V28H159.828ZM168.5 28.1818C167.773 28.1818 167.131 27.9981 166.574 27.6307C166.017 27.2595 165.582 26.7367 165.267 26.0625C164.953 25.3845 164.796 24.5833 164.796 23.6591C164.796 22.7424 164.953 21.947 165.267 21.2727C165.582 20.5985 166.019 20.0777 166.58 19.7102C167.14 19.3428 167.788 19.1591 168.523 19.1591C169.091 19.1591 169.54 19.2538 169.869 19.4432C170.203 19.6288 170.457 19.8409 170.631 20.0795C170.809 20.3144 170.947 20.5076 171.046 20.6591H171.159V16.3636H172.5V28H171.205V26.6591H171.046C170.947 26.8182 170.807 27.0189 170.625 27.2614C170.443 27.5 170.184 27.714 169.847 27.9034C169.51 28.089 169.061 28.1818 168.5 28.1818ZM168.682 26.9773C169.22 26.9773 169.674 26.8371 170.046 26.5568C170.417 26.2727 170.699 25.8807 170.892 25.3807C171.085 24.8769 171.182 24.2955 171.182 23.6364C171.182 22.9848 171.087 22.4148 170.898 21.9261C170.708 21.4337 170.428 21.0511 170.057 20.7784C169.686 20.5019 169.227 20.3636 168.682 20.3636C168.114 20.3636 167.64 20.5095 167.261 20.8011C166.886 21.089 166.604 21.4811 166.415 21.9773C166.229 22.4697 166.136 23.0227 166.136 23.6364C166.136 24.2576 166.231 24.822 166.421 25.3295C166.614 25.8333 166.898 26.2348 167.273 26.5341C167.652 26.8295 168.121 26.9773 168.682 26.9773ZM181.013 21.2273L179.809 21.5682C179.733 21.3674 179.621 21.1723 179.474 20.983C179.33 20.7898 179.133 20.6307 178.883 20.5057C178.633 20.3807 178.313 20.3182 177.923 20.3182C177.388 20.3182 176.943 20.4413 176.587 20.6875C176.235 20.9299 176.059 21.2386 176.059 21.6136C176.059 21.947 176.18 22.2102 176.423 22.4034C176.665 22.5966 177.044 22.7576 177.559 22.8864L178.854 23.2045C179.635 23.3939 180.216 23.6837 180.599 24.0739C180.981 24.4602 181.173 24.9583 181.173 25.5682C181.173 26.0682 181.029 26.5152 180.741 26.9091C180.457 27.303 180.059 27.6136 179.548 27.8409C179.036 28.0682 178.441 28.1818 177.763 28.1818C176.873 28.1818 176.137 27.9886 175.553 27.6023C174.97 27.2159 174.601 26.6515 174.445 25.9091L175.718 25.5909C175.839 26.0606 176.068 26.4129 176.405 26.6477C176.746 26.8826 177.191 27 177.741 27C178.366 27 178.862 26.8674 179.229 26.6023C179.601 26.3333 179.786 26.0114 179.786 25.6364C179.786 25.3333 179.68 25.0795 179.468 24.875C179.256 24.6667 178.93 24.5114 178.491 24.4091L177.036 24.0682C176.237 23.8788 175.65 23.5852 175.275 23.1875C174.904 22.786 174.718 22.2841 174.718 21.6818C174.718 21.1894 174.856 20.7538 175.133 20.375C175.413 19.9962 175.794 19.6989 176.275 19.483C176.76 19.267 177.309 19.1591 177.923 19.1591C178.786 19.1591 179.464 19.3485 179.957 19.7273C180.453 20.1061 180.805 20.6061 181.013 21.2273ZM183.858 28.0909C183.577 28.0909 183.337 27.9905 183.136 27.7898C182.935 27.589 182.835 27.3485 182.835 27.0682C182.835 26.7879 182.935 26.5473 183.136 26.3466C183.337 26.1458 183.577 26.0455 183.858 26.0455C184.138 26.0455 184.379 26.1458 184.579 26.3466C184.78 26.5473 184.881 26.7879 184.881 27.0682C184.881 27.2538 184.833 27.4242 184.738 27.5795C184.648 27.7348 184.524 27.8598 184.369 27.9545C184.218 28.0455 184.047 28.0909 183.858 28.0909ZM190.711 17.6136V16.3636H199.438V17.6136H195.779V28H194.37V17.6136H190.711ZM203.401 28.1818C202.613 28.1818 201.922 27.9943 201.327 27.6193C200.736 27.2443 200.274 26.7197 199.94 26.0455C199.611 25.3712 199.446 24.5833 199.446 23.6818C199.446 22.7727 199.611 21.9792 199.94 21.3011C200.274 20.6231 200.736 20.0966 201.327 19.7216C201.922 19.3466 202.613 19.1591 203.401 19.1591C204.189 19.1591 204.878 19.3466 205.469 19.7216C206.064 20.0966 206.526 20.6231 206.855 21.3011C207.189 21.9792 207.355 22.7727 207.355 23.6818C207.355 24.5833 207.189 25.3712 206.855 26.0455C206.526 26.7197 206.064 27.2443 205.469 27.6193C204.878 27.9943 204.189 28.1818 203.401 28.1818ZM203.401 26.9773C203.999 26.9773 204.492 26.8239 204.878 26.517C205.264 26.2102 205.55 25.8068 205.736 25.3068C205.922 24.8068 206.014 24.2652 206.014 23.6818C206.014 23.0985 205.922 22.5549 205.736 22.0511C205.55 21.5473 205.264 21.1402 204.878 20.8295C204.492 20.5189 203.999 20.3636 203.401 20.3636C202.802 20.3636 202.31 20.5189 201.923 20.8295C201.537 21.1402 201.251 21.5473 201.065 22.0511C200.88 22.5549 200.787 23.0985 200.787 23.6818C200.787 24.2652 200.88 24.8068 201.065 25.3068C201.251 25.8068 201.537 26.2102 201.923 26.517C202.31 26.8239 202.802 26.9773 203.401 26.9773ZM214.531 24.8182L214.508 23.1591H214.781L218.599 19.2727H220.258L216.19 23.3864H216.077L214.531 24.8182ZM213.281 28V16.3636H214.622V28H213.281ZM218.827 28L215.417 23.6818L216.372 22.75L220.531 28H218.827ZM221.674 28V19.2727H223.015V28H221.674ZM222.356 17.8182C222.094 17.8182 221.869 17.7292 221.679 17.5511C221.494 17.3731 221.401 17.1591 221.401 16.9091C221.401 16.6591 221.494 16.4451 221.679 16.267C221.869 16.089 222.094 16 222.356 16C222.617 16 222.84 16.089 223.026 16.267C223.215 16.4451 223.31 16.6591 223.31 16.9091C223.31 17.1591 223.215 17.3731 223.026 17.5511C222.84 17.7292 222.617 17.8182 222.356 17.8182ZM228.706 28.1818C227.887 28.1818 227.183 27.9886 226.592 27.6023C226.001 27.2159 225.546 26.6837 225.228 26.0057C224.91 25.3277 224.751 24.553 224.751 23.6818C224.751 22.7955 224.914 22.0133 225.24 21.3352C225.569 20.6534 226.027 20.1212 226.615 19.7386C227.206 19.3523 227.895 19.1591 228.683 19.1591C229.296 19.1591 229.849 19.2727 230.342 19.5C230.834 19.7273 231.238 20.0455 231.552 20.4545C231.867 20.8636 232.062 21.3409 232.137 21.8864H230.796C230.694 21.4886 230.467 21.1364 230.115 20.8295C229.766 20.5189 229.296 20.3636 228.706 20.3636C228.183 20.3636 227.724 20.5 227.331 20.7727C226.94 21.0417 226.635 21.4223 226.416 21.9148C226.2 22.4034 226.092 22.9773 226.092 23.6364C226.092 24.3106 226.198 24.8977 226.41 25.3977C226.626 25.8977 226.929 26.286 227.319 26.5625C227.713 26.839 228.175 26.9773 228.706 26.9773C229.054 26.9773 229.37 26.9167 229.654 26.7955C229.938 26.6742 230.179 26.5 230.376 26.2727C230.573 26.0455 230.713 25.7727 230.796 25.4545H232.137C232.062 25.9697 231.874 26.4337 231.575 26.8466C231.279 27.2557 230.887 27.5814 230.399 27.8239C229.914 28.0625 229.349 28.1818 228.706 28.1818ZM235.037 24.8182L235.014 23.1591H235.287L239.105 19.2727H240.764L236.696 23.3864H236.583L235.037 24.8182ZM233.787 28V16.3636H235.128V28H233.787ZM239.333 28L235.923 23.6818L236.878 22.75L241.037 28H239.333ZM19.0227 38.2727V39.4091H14.5V38.2727H19.0227ZM15.8182 36.1818H17.1591V44.5C17.1591 44.8788 17.214 45.1629 17.3239 45.3523C17.4375 45.5379 17.5814 45.6629 17.7557 45.7273C17.9337 45.7879 18.1212 45.8182 18.3182 45.8182C18.4659 45.8182 18.5871 45.8106 18.6818 45.7955C18.7765 45.7765 18.8523 45.7614 18.9091 45.75L19.1818 46.9545C19.0909 46.9886 18.964 47.0227 18.8011 47.0568C18.6383 47.0947 18.4318 47.1136 18.1818 47.1136C17.803 47.1136 17.4318 47.0322 17.0682 46.8693C16.7083 46.7064 16.4091 46.4583 16.1705 46.125C15.9356 45.7917 15.8182 45.3712 15.8182 44.8636V36.1818ZM22.2577 41.75V47H20.9168V35.3636H22.2577V39.6364H22.3713C22.5759 39.1856 22.8827 38.8277 23.2918 38.5625C23.7046 38.2936 24.2539 38.1591 24.9395 38.1591C25.5342 38.1591 26.055 38.2784 26.502 38.517C26.949 38.7519 27.2956 39.1136 27.5418 39.6023C27.7918 40.0871 27.9168 40.7045 27.9168 41.4545V47H26.5759V41.5455C26.5759 40.8523 26.3959 40.3163 26.0361 39.9375C25.68 39.5549 25.1857 39.3636 24.5531 39.3636C24.1137 39.3636 23.7198 39.4564 23.3713 39.642C23.0266 39.8277 22.7539 40.0985 22.5531 40.4545C22.3562 40.8106 22.2577 41.2424 22.2577 41.75ZM30.0594 47V38.2727H31.4003V47H30.0594ZM30.7412 36.8182C30.4798 36.8182 30.2545 36.7292 30.0651 36.5511C29.8795 36.3731 29.7867 36.1591 29.7867 35.9091C29.7867 35.6591 29.8795 35.4451 30.0651 35.267C30.2545 35.089 30.4798 35 30.7412 35C31.0026 35 31.2261 35.089 31.4117 35.267C31.6011 35.4451 31.6957 35.6591 31.6957 35.9091C31.6957 36.1591 31.6011 36.3731 31.4117 36.5511C31.2261 36.7292 31.0026 36.8182 30.7412 36.8182ZM34.8867 41.75V47H33.5458V38.2727H34.8412V39.6364H34.9548C35.1594 39.1932 35.47 38.8371 35.8867 38.5682C36.3033 38.2955 36.8412 38.1591 37.5003 38.1591C38.0912 38.1591 38.6083 38.2803 39.0514 38.5227C39.4946 38.7614 39.8393 39.125 40.0855 39.6136C40.3317 40.0985 40.4548 40.7121 40.4548 41.4545V47H39.1139V41.5455C39.1139 40.8598 38.9359 40.3258 38.5798 39.9432C38.2238 39.5568 37.7351 39.3636 37.1139 39.3636C36.6859 39.3636 36.3033 39.4564 35.9662 39.642C35.6329 39.8277 35.3696 40.0985 35.1764 40.4545C34.9833 40.8106 34.8867 41.2424 34.8867 41.75ZM46.1173 50.4545C45.4696 50.4545 44.9128 50.3712 44.4469 50.2045C43.981 50.0417 43.5927 49.8258 43.2821 49.5568C42.9753 49.2917 42.731 49.0076 42.5492 48.7045L43.6173 47.9545C43.7386 48.1136 43.892 48.2955 44.0776 48.5C44.2632 48.7083 44.517 48.8883 44.8389 49.0398C45.1647 49.1951 45.5908 49.2727 46.1173 49.2727C46.8219 49.2727 47.4033 49.1023 47.8617 48.7614C48.32 48.4205 48.5492 47.8864 48.5492 47.1591V45.3864H48.4355C48.337 45.5455 48.1969 45.7424 48.0151 45.9773C47.837 46.2083 47.5795 46.4148 47.2423 46.5966C46.909 46.7746 46.4583 46.8636 45.8901 46.8636C45.1855 46.8636 44.553 46.697 43.9923 46.3636C43.4355 46.0303 42.9942 45.5455 42.6685 44.9091C42.3465 44.2727 42.1855 43.5 42.1855 42.5909C42.1855 41.697 42.3427 40.9186 42.6571 40.2557C42.9715 39.589 43.409 39.0739 43.9696 38.7102C44.5302 38.3428 45.178 38.1591 45.9128 38.1591C46.481 38.1591 46.9317 38.2538 47.2651 38.4432C47.6022 38.6288 47.8598 38.8409 48.0378 39.0795C48.2196 39.3144 48.3598 39.5076 48.4583 39.6591H48.5946V38.2727H49.8901V47.25C49.8901 48 49.7196 48.6098 49.3787 49.0795C49.0416 49.553 48.587 49.8996 48.0151 50.1193C47.4469 50.3428 46.8143 50.4545 46.1173 50.4545ZM46.0719 45.6591C46.6098 45.6591 47.0643 45.536 47.4355 45.2898C47.8067 45.0436 48.0889 44.6894 48.2821 44.2273C48.4753 43.7652 48.5719 43.2121 48.5719 42.5682C48.5719 41.9394 48.4772 41.3845 48.2878 40.9034C48.0984 40.4223 47.8181 40.0455 47.4469 39.7727C47.0757 39.5 46.6173 39.3636 46.0719 39.3636C45.5037 39.3636 45.0302 39.5076 44.6514 39.7955C44.2764 40.0833 43.9942 40.4697 43.8048 40.9545C43.6192 41.4394 43.5264 41.9773 43.5264 42.5682C43.5264 43.1742 43.6211 43.7102 43.8105 44.1761C44.0037 44.6383 44.2878 45.0019 44.6628 45.267C45.0416 45.5284 45.5113 45.6591 46.0719 45.6591ZM58.2159 40.2273L57.0114 40.5682C56.9356 40.3674 56.8239 40.1723 56.6762 39.983C56.5322 39.7898 56.3353 39.6307 56.0853 39.5057C55.8353 39.3807 55.5152 39.3182 55.125 39.3182C54.5909 39.3182 54.1459 39.4413 53.7898 39.6875C53.4375 39.9299 53.2614 40.2386 53.2614 40.6136C53.2614 40.947 53.3826 41.2102 53.625 41.4034C53.8674 41.5966 54.2462 41.7576 54.7614 41.8864L56.0568 42.2045C56.8371 42.3939 57.4186 42.6837 57.8012 43.0739C58.1837 43.4602 58.375 43.9583 58.375 44.5682C58.375 45.0682 58.2311 45.5152 57.9432 45.9091C57.6591 46.303 57.2614 46.6136 56.75 46.8409C56.2387 47.0682 55.644 47.1818 54.9659 47.1818C54.0758 47.1818 53.339 46.9886 52.7557 46.6023C52.1724 46.2159 51.8031 45.6515 51.6478 44.9091L52.9205 44.5909C53.0417 45.0606 53.2709 45.4129 53.608 45.6477C53.9489 45.8826 54.394 46 54.9432 46C55.5682 46 56.0644 45.8674 56.4318 45.6023C56.8031 45.3333 56.9887 45.0114 56.9887 44.6364C56.9887 44.3333 56.8826 44.0795 56.6705 43.875C56.4584 43.6667 56.1326 43.5114 55.6932 43.4091L54.2387 43.0682C53.4394 42.8788 52.8523 42.5852 52.4773 42.1875C52.1061 41.786 51.9205 41.2841 51.9205 40.6818C51.9205 40.1894 52.0587 39.7538 52.3353 39.375C52.6156 38.9962 52.9962 38.6989 53.4773 38.483C53.9621 38.267 54.5114 38.1591 55.125 38.1591C55.9887 38.1591 56.6667 38.3485 57.1591 38.7273C57.6553 39.1061 58.0076 39.6061 58.2159 40.2273ZM67.8179 47.1818C67.0301 47.1818 66.3388 46.9943 65.7441 46.6193C65.1532 46.2443 64.691 45.7197 64.3577 45.0455C64.0282 44.3712 63.8634 43.5833 63.8634 42.6818C63.8634 41.7727 64.0282 40.9792 64.3577 40.3011C64.691 39.6231 65.1532 39.0966 65.7441 38.7216C66.3388 38.3466 67.0301 38.1591 67.8179 38.1591C68.6058 38.1591 69.2952 38.3466 69.8861 38.7216C70.4808 39.0966 70.9429 39.6231 71.2725 40.3011C71.6058 40.9792 71.7725 41.7727 71.7725 42.6818C71.7725 43.5833 71.6058 44.3712 71.2725 45.0455C70.9429 45.7197 70.4808 46.2443 69.8861 46.6193C69.2952 46.9943 68.6058 47.1818 67.8179 47.1818ZM67.8179 45.9773C68.4164 45.9773 68.9088 45.8239 69.2952 45.517C69.6816 45.2102 69.9676 44.8068 70.1532 44.3068C70.3388 43.8068 70.4316 43.2652 70.4316 42.6818C70.4316 42.0985 70.3388 41.5549 70.1532 41.0511C69.9676 40.5473 69.6816 40.1402 69.2952 39.8295C68.9088 39.5189 68.4164 39.3636 67.8179 39.3636C67.2194 39.3636 66.727 39.5189 66.3407 39.8295C65.9543 40.1402 65.6683 40.5473 65.4827 41.0511C65.2971 41.5549 65.2043 42.0985 65.2043 42.6818C65.2043 43.2652 65.2971 43.8068 65.4827 44.3068C65.6683 44.8068 65.9543 45.2102 66.3407 45.517C66.727 45.8239 67.2194 45.9773 67.8179 45.9773ZM77.3952 38.2727V39.4091H72.6907V38.2727H77.3952ZM74.0998 47V37.0682C74.0998 36.5682 74.2172 36.1515 74.452 35.8182C74.6869 35.4848 74.9918 35.2348 75.3668 35.0682C75.7418 34.9015 76.1376 34.8182 76.5543 34.8182C76.8838 34.8182 77.1528 34.8447 77.3611 34.8977C77.5694 34.9508 77.7248 35 77.827 35.0455L77.4407 36.2045C77.3725 36.1818 77.2778 36.1534 77.1566 36.1193C77.0391 36.0852 76.8838 36.0682 76.6907 36.0682C76.2475 36.0682 75.9274 36.1799 75.7304 36.4034C75.5373 36.6269 75.4407 36.9545 75.4407 37.3864V47H74.0998ZM82.8503 38.2727V39.4091H78.1458V38.2727H82.8503ZM79.5549 47V37.0682C79.5549 36.5682 79.6723 36.1515 79.9071 35.8182C80.142 35.4848 80.4469 35.2348 80.8219 35.0682C81.1969 34.9015 81.5928 34.8182 82.0094 34.8182C82.339 34.8182 82.6079 34.8447 82.8162 34.8977C83.0246 34.9508 83.1799 35 83.2821 35.0455L82.8958 36.2045C82.8276 36.1818 82.7329 36.1534 82.6117 36.1193C82.4943 36.0852 82.339 36.0682 82.1458 36.0682C81.7026 36.0682 81.3825 36.1799 81.1856 36.4034C80.9924 36.6269 80.8958 36.9545 80.8958 37.3864V47H79.5549ZM85.5128 45.4091L85.4219 46.0227C85.3575 46.4545 85.259 46.9167 85.1265 47.4091C84.9977 47.9015 84.8632 48.3655 84.7231 48.8011C84.5829 49.2367 84.4674 49.5833 84.3765 49.8409H83.3537C83.403 49.5985 83.4674 49.2784 83.5469 48.8807C83.6265 48.483 83.706 48.0379 83.7856 47.5455C83.8689 47.0568 83.9371 46.5568 83.9901 46.0455L84.0583 45.4091H85.5128ZM95.4216 47.1818C94.6035 47.1818 93.8989 46.9886 93.308 46.6023C92.7171 46.2159 92.2626 45.6837 91.9444 45.0057C91.6262 44.3277 91.4671 43.553 91.4671 42.6818C91.4671 41.7955 91.63 41.0133 91.9557 40.3352C92.2853 39.6534 92.7436 39.1212 93.3307 38.7386C93.9216 38.3523 94.611 38.1591 95.3989 38.1591C96.0126 38.1591 96.5656 38.2727 97.058 38.5C97.5504 38.7273 97.9538 39.0455 98.2682 39.4545C98.5826 39.8636 98.7777 40.3409 98.8535 40.8864H97.5126C97.4103 40.4886 97.183 40.1364 96.8307 39.8295C96.4823 39.5189 96.0126 39.3636 95.4216 39.3636C94.8989 39.3636 94.4406 39.5 94.0466 39.7727C93.6565 40.0417 93.3516 40.4223 93.1319 40.9148C92.916 41.4034 92.808 41.9773 92.808 42.6364C92.808 43.3106 92.9141 43.8977 93.1262 44.3977C93.3421 44.8977 93.6451 45.286 94.0353 45.5625C94.4292 45.839 94.8913 45.9773 95.4216 45.9773C95.7701 45.9773 96.0864 45.9167 96.3705 45.7955C96.6546 45.6742 96.8951 45.5 97.0921 45.2727C97.2891 45.0455 97.4292 44.7727 97.5126 44.4545H98.8535C98.7777 44.9697 98.5902 45.4337 98.291 45.8466C97.9955 46.2557 97.6035 46.5814 97.1148 46.8239C96.63 47.0625 96.0656 47.1818 95.4216 47.1818ZM101.844 41.75V47H100.503V35.3636H101.844V39.6364H101.958C102.162 39.1856 102.469 38.8277 102.878 38.5625C103.291 38.2936 103.84 38.1591 104.526 38.1591C105.121 38.1591 105.641 38.2784 106.088 38.517C106.535 38.7519 106.882 39.1136 107.128 39.6023C107.378 40.0871 107.503 40.7045 107.503 41.4545V47H106.162V41.5455C106.162 40.8523 105.982 40.3163 105.623 39.9375C105.266 39.5549 104.772 39.3636 104.14 39.3636C103.7 39.3636 103.306 39.4564 102.958 39.642C102.613 39.8277 102.34 40.0985 102.14 40.4545C101.943 40.8106 101.844 41.2424 101.844 41.75ZM112.214 47.2045C111.661 47.2045 111.159 47.1004 110.708 46.892C110.258 46.6799 109.9 46.375 109.634 45.9773C109.369 45.5758 109.237 45.0909 109.237 44.5227C109.237 44.0227 109.335 43.6174 109.532 43.3068C109.729 42.9924 109.992 42.7462 110.322 42.5682C110.651 42.3902 111.015 42.2576 111.413 42.1705C111.814 42.0795 112.218 42.0076 112.623 41.9545C113.153 41.8864 113.583 41.8352 113.913 41.8011C114.246 41.7633 114.489 41.7008 114.64 41.6136C114.795 41.5265 114.873 41.375 114.873 41.1591V41.1136C114.873 40.553 114.72 40.1174 114.413 39.8068C114.11 39.4962 113.65 39.3409 113.032 39.3409C112.392 39.3409 111.89 39.4811 111.526 39.7614C111.163 40.0417 110.907 40.3409 110.759 40.6591L109.487 40.2045C109.714 39.6742 110.017 39.2614 110.396 38.9659C110.778 38.6667 111.195 38.4583 111.646 38.3409C112.1 38.2197 112.547 38.1591 112.987 38.1591C113.267 38.1591 113.589 38.1932 113.953 38.2614C114.32 38.3258 114.674 38.4602 115.015 38.6648C115.36 38.8693 115.646 39.178 115.873 39.5909C116.1 40.0038 116.214 40.5568 116.214 41.25V47H114.873V45.8182H114.805C114.714 46.0076 114.562 46.2102 114.35 46.4261C114.138 46.642 113.856 46.8258 113.504 46.9773C113.151 47.1288 112.722 47.2045 112.214 47.2045ZM112.419 46C112.949 46 113.396 45.8958 113.759 45.6875C114.127 45.4792 114.403 45.2102 114.589 44.8807C114.778 44.5511 114.873 44.2045 114.873 43.8409V42.6136C114.816 42.6818 114.691 42.7443 114.498 42.8011C114.309 42.8542 114.089 42.9015 113.839 42.9432C113.593 42.9811 113.352 43.0152 113.117 43.0455C112.886 43.072 112.699 43.0947 112.555 43.1136C112.206 43.1591 111.881 43.233 111.578 43.3352C111.278 43.4337 111.036 43.5833 110.85 43.7841C110.669 43.9811 110.578 44.25 110.578 44.5909C110.578 45.0568 110.75 45.4091 111.095 45.6477C111.443 45.8826 111.884 46 112.419 46ZM122.146 38.2727V39.4091H117.624V38.2727H122.146ZM118.942 36.1818H120.283V44.5C120.283 44.8788 120.338 45.1629 120.448 45.3523C120.561 45.5379 120.705 45.6629 120.879 45.7273C121.057 45.7879 121.245 45.8182 121.442 45.8182C121.59 45.8182 121.711 45.8106 121.805 45.7955C121.9 45.7765 121.976 45.7614 122.033 45.75L122.305 46.9545C122.215 46.9886 122.088 47.0227 121.925 47.0568C121.762 47.0947 121.555 47.1136 121.305 47.1136C120.927 47.1136 120.555 47.0322 120.192 46.8693C119.832 46.7064 119.533 46.4583 119.294 46.125C119.059 45.7917 118.942 45.3712 118.942 44.8636V36.1818ZM130.02 47L127.361 38.2727H128.77L130.656 44.9545H130.747L132.611 38.2727H134.042L135.883 44.9318H135.974L137.861 38.2727H139.27L136.611 47H135.292L133.383 40.2955H133.247L131.338 47H130.02ZM140.732 47V38.2727H142.073V47H140.732ZM141.414 36.8182C141.152 36.8182 140.927 36.7292 140.738 36.5511C140.552 36.3731 140.459 36.1591 140.459 35.9091C140.459 35.6591 140.552 35.4451 140.738 35.267C140.927 35.089 141.152 35 141.414 35C141.675 35 141.899 35.089 142.084 35.267C142.274 35.4451 142.368 35.6591 142.368 35.9091C142.368 36.1591 142.274 36.3731 142.084 36.5511C141.899 36.7292 141.675 36.8182 141.414 36.8182ZM148.014 38.2727V39.4091H143.491V38.2727H148.014ZM144.809 36.1818H146.15V44.5C146.15 44.8788 146.205 45.1629 146.315 45.3523C146.428 45.5379 146.572 45.6629 146.747 45.7273C146.925 45.7879 147.112 45.8182 147.309 45.8182C147.457 45.8182 147.578 45.8106 147.673 45.7955C147.768 45.7765 147.843 45.7614 147.9 45.75L148.173 46.9545C148.082 46.9886 147.955 47.0227 147.792 47.0568C147.629 47.0947 147.423 47.1136 147.173 47.1136C146.794 47.1136 146.423 47.0322 146.059 46.8693C145.699 46.7064 145.4 46.4583 145.161 46.125C144.927 45.7917 144.809 45.3712 144.809 44.8636V36.1818ZM151.249 41.75V47H149.908V35.3636H151.249V39.6364H151.362C151.567 39.1856 151.874 38.8277 152.283 38.5625C152.696 38.2936 153.245 38.1591 153.93 38.1591C154.525 38.1591 155.046 38.2784 155.493 38.517C155.94 38.7519 156.287 39.1136 156.533 39.6023C156.783 40.0871 156.908 40.7045 156.908 41.4545V47H155.567V41.5455C155.567 40.8523 155.387 40.3163 155.027 39.9375C154.671 39.5549 154.177 39.3636 153.544 39.3636C153.105 39.3636 152.711 39.4564 152.362 39.642C152.018 39.8277 151.745 40.0985 151.544 40.4545C151.347 40.8106 151.249 41.2424 151.249 41.75ZM168.74 43.4318V38.2727H170.081V47H168.74V45.5227H168.649C168.444 45.9659 168.126 46.3428 167.694 46.6534C167.263 46.9602 166.717 47.1136 166.058 47.1136C165.513 47.1136 165.028 46.9943 164.604 46.7557C164.179 46.5133 163.846 46.1496 163.604 45.6648C163.361 45.1761 163.24 44.5606 163.24 43.8182V38.2727H164.581V43.7273C164.581 44.3636 164.759 44.8712 165.115 45.25C165.475 45.6288 165.933 45.8182 166.49 45.8182C166.823 45.8182 167.162 45.733 167.507 45.5625C167.855 45.392 168.147 45.1307 168.382 44.7784C168.621 44.4261 168.74 43.9773 168.74 43.4318ZM178.408 40.2273L177.204 40.5682C177.128 40.3674 177.016 40.1723 176.868 39.983C176.724 39.7898 176.527 39.6307 176.277 39.5057C176.027 39.3807 175.707 39.3182 175.317 39.3182C174.783 39.3182 174.338 39.4413 173.982 39.6875C173.63 39.9299 173.454 40.2386 173.454 40.6136C173.454 40.947 173.575 41.2102 173.817 41.4034C174.06 41.5966 174.438 41.7576 174.954 41.8864L176.249 42.2045C177.029 42.3939 177.611 42.6837 177.993 43.0739C178.376 43.4602 178.567 43.9583 178.567 44.5682C178.567 45.0682 178.423 45.5152 178.135 45.9091C177.851 46.303 177.454 46.6136 176.942 46.8409C176.431 47.0682 175.836 47.1818 175.158 47.1818C174.268 47.1818 173.531 46.9886 172.948 46.6023C172.365 46.2159 171.995 45.6515 171.84 44.9091L173.113 44.5909C173.234 45.0606 173.463 45.4129 173.8 45.6477C174.141 45.8826 174.586 46 175.135 46C175.76 46 176.257 45.8674 176.624 45.6023C176.995 45.3333 177.181 45.0114 177.181 44.6364C177.181 44.3333 177.075 44.0795 176.863 43.875C176.65 43.6667 176.325 43.5114 175.885 43.4091L174.431 43.0682C173.632 42.8788 173.044 42.5852 172.669 42.1875C172.298 41.786 172.113 41.2841 172.113 40.6818C172.113 40.1894 172.251 39.7538 172.527 39.375C172.808 38.9962 173.188 38.6989 173.669 38.483C174.154 38.267 174.704 38.1591 175.317 38.1591C176.181 38.1591 176.859 38.3485 177.351 38.7273C177.847 39.1061 178.2 39.6061 178.408 40.2273ZM188.124 47.1818C187.283 47.1818 186.557 46.9962 185.948 46.625C185.342 46.25 184.874 45.7273 184.544 45.0568C184.218 44.3826 184.056 43.5985 184.056 42.7045C184.056 41.8106 184.218 41.0227 184.544 40.3409C184.874 39.6553 185.332 39.1212 185.919 38.7386C186.51 38.3523 187.199 38.1591 187.987 38.1591C188.442 38.1591 188.891 38.2348 189.334 38.3864C189.777 38.5379 190.181 38.7841 190.544 39.125C190.908 39.4621 191.198 39.9091 191.413 40.4659C191.629 41.0227 191.737 41.7083 191.737 42.5227V43.0909H185.01V41.9318H190.374C190.374 41.4394 190.275 41 190.078 40.6136C189.885 40.2273 189.609 39.9223 189.249 39.6989C188.893 39.4754 188.472 39.3636 187.987 39.3636C187.453 39.3636 186.991 39.4962 186.601 39.7614C186.215 40.0227 185.917 40.3636 185.709 40.7841C185.501 41.2045 185.396 41.6553 185.396 42.1364V42.9091C185.396 43.5682 185.51 44.1269 185.737 44.5852C185.968 45.0398 186.288 45.3864 186.698 45.625C187.107 45.8598 187.582 45.9773 188.124 45.9773C188.476 45.9773 188.794 45.928 189.078 45.8295C189.366 45.7273 189.614 45.5758 189.823 45.375C190.031 45.1705 190.192 44.9167 190.306 44.6136L191.601 44.9773C191.465 45.4167 191.235 45.803 190.913 46.1364C190.592 46.4659 190.194 46.7235 189.72 46.9091C189.247 47.0909 188.715 47.1818 188.124 47.1818ZM200.337 38.2727L197.11 47H195.746L192.519 38.2727H193.974L196.383 45.2273H196.474L198.883 38.2727H200.337ZM205.143 47.1818C204.302 47.1818 203.577 46.9962 202.967 46.625C202.361 46.25 201.893 45.7273 201.564 45.0568C201.238 44.3826 201.075 43.5985 201.075 42.7045C201.075 41.8106 201.238 41.0227 201.564 40.3409C201.893 39.6553 202.352 39.1212 202.939 38.7386C203.53 38.3523 204.219 38.1591 205.007 38.1591C205.461 38.1591 205.91 38.2348 206.354 38.3864C206.797 38.5379 207.2 38.7841 207.564 39.125C207.927 39.4621 208.217 39.9091 208.433 40.4659C208.649 41.0227 208.757 41.7083 208.757 42.5227V43.0909H202.03V41.9318H207.393C207.393 41.4394 207.295 41 207.098 40.6136C206.905 40.2273 206.628 39.9223 206.268 39.6989C205.912 39.4754 205.492 39.3636 205.007 39.3636C204.473 39.3636 204.011 39.4962 203.621 39.7614C203.234 40.0227 202.937 40.3636 202.729 40.7841C202.52 41.2045 202.416 41.6553 202.416 42.1364V42.9091C202.416 43.5682 202.53 44.1269 202.757 44.5852C202.988 45.0398 203.308 45.3864 203.717 45.625C204.126 45.8598 204.602 45.9773 205.143 45.9773C205.496 45.9773 205.814 45.928 206.098 45.8295C206.386 45.7273 206.634 45.5758 206.842 45.375C207.051 45.1705 207.211 44.9167 207.325 44.6136L208.621 44.9773C208.484 45.4167 208.255 45.803 207.933 46.1364C207.611 46.4659 207.213 46.7235 206.74 46.9091C206.266 47.0909 205.734 47.1818 205.143 47.1818ZM210.486 47V38.2727H211.782V39.5909H211.873C212.032 39.1591 212.32 38.8087 212.736 38.5398C213.153 38.2708 213.623 38.1364 214.145 38.1364C214.244 38.1364 214.367 38.1383 214.515 38.142C214.662 38.1458 214.774 38.1515 214.85 38.1591V39.5227C214.804 39.5114 214.7 39.4943 214.537 39.4716C214.378 39.4451 214.21 39.4318 214.032 39.4318C213.607 39.4318 213.229 39.5208 212.895 39.6989C212.566 39.8731 212.304 40.1155 212.111 40.4261C211.922 40.733 211.827 41.0833 211.827 41.4773V47H210.486ZM217.258 50.25C217.031 50.25 216.828 50.2311 216.65 50.1932C216.472 50.1591 216.349 50.125 216.281 50.0909L216.622 48.9091C217.11 49.0341 217.518 49.0303 217.843 48.8977C218.169 48.7689 218.451 48.3788 218.69 47.7273L218.94 47.0455L215.713 38.2727H217.167L219.576 45.2273H219.667L222.076 38.2727L223.542 38.2955L219.826 48.2727C219.66 48.7159 219.453 49.0833 219.207 49.375C218.961 49.6705 218.675 49.8902 218.349 50.0341C218.027 50.178 217.663 50.25 217.258 50.25ZM227.989 47.1818C227.262 47.1818 226.619 46.9981 226.063 46.6307C225.506 46.2595 225.07 45.7367 224.756 45.0625C224.441 44.3845 224.284 43.5833 224.284 42.6591C224.284 41.7424 224.441 40.947 224.756 40.2727C225.07 39.5985 225.508 39.0777 226.068 38.7102C226.629 38.3428 227.277 38.1591 228.012 38.1591C228.58 38.1591 229.029 38.2538 229.358 38.4432C229.691 38.6288 229.945 38.8409 230.119 39.0795C230.297 39.3144 230.436 39.5076 230.534 39.6591H230.648V35.3636H231.989V47H230.693V45.6591H230.534C230.436 45.8182 230.296 46.0189 230.114 46.2614C229.932 46.5 229.672 46.714 229.335 46.9034C228.998 47.089 228.549 47.1818 227.989 47.1818ZM228.171 45.9773C228.708 45.9773 229.163 45.8371 229.534 45.5568C229.905 45.2727 230.188 44.8807 230.381 44.3807C230.574 43.8769 230.671 43.2955 230.671 42.6364C230.671 41.9848 230.576 41.4148 230.387 40.9261C230.197 40.4337 229.917 40.0511 229.546 39.7784C229.174 39.5019 228.716 39.3636 228.171 39.3636C227.602 39.3636 227.129 39.5095 226.75 39.8011C226.375 40.089 226.093 40.4811 225.904 40.9773C225.718 41.4697 225.625 42.0227 225.625 42.6364C225.625 43.2576 225.72 43.822 225.909 44.3295C226.102 44.8333 226.387 45.2348 226.762 45.5341C227.14 45.8295 227.61 45.9773 228.171 45.9773ZM236.889 47.2045C236.335 47.2045 235.834 47.1004 235.383 46.892C234.932 46.6799 234.574 46.375 234.309 45.9773C234.044 45.5758 233.911 45.0909 233.911 44.5227C233.911 44.0227 234.01 43.6174 234.207 43.3068C234.404 42.9924 234.667 42.7462 234.996 42.5682C235.326 42.3902 235.69 42.2576 236.087 42.1705C236.489 42.0795 236.892 42.0076 237.298 41.9545C237.828 41.8864 238.258 41.8352 238.587 41.8011C238.921 41.7633 239.163 41.7008 239.315 41.6136C239.47 41.5265 239.548 41.375 239.548 41.1591V41.1136C239.548 40.553 239.394 40.1174 239.087 39.8068C238.784 39.4962 238.324 39.3409 237.707 39.3409C237.067 39.3409 236.565 39.4811 236.201 39.7614C235.837 40.0417 235.582 40.3409 235.434 40.6591L234.161 40.2045C234.389 39.6742 234.692 39.2614 235.07 38.9659C235.453 38.6667 235.87 38.4583 236.32 38.3409C236.775 38.2197 237.222 38.1591 237.661 38.1591C237.942 38.1591 238.264 38.1932 238.627 38.2614C238.995 38.3258 239.349 38.4602 239.69 38.6648C240.034 38.8693 240.32 39.178 240.548 39.5909C240.775 40.0038 240.889 40.5568 240.889 41.25V47H239.548V45.8182H239.479C239.389 46.0076 239.237 46.2102 239.025 46.4261C238.813 46.642 238.531 46.8258 238.178 46.9773C237.826 47.1288 237.396 47.2045 236.889 47.2045ZM237.093 46C237.623 46 238.07 45.8958 238.434 45.6875C238.801 45.4792 239.078 45.2102 239.264 44.8807C239.453 44.5511 239.548 44.2045 239.548 43.8409V42.6136C239.491 42.6818 239.366 42.7443 239.173 42.8011C238.983 42.8542 238.764 42.9015 238.514 42.9432C238.267 42.9811 238.027 43.0152 237.792 43.0455C237.561 43.072 237.373 43.0947 237.229 43.1136C236.881 43.1591 236.555 43.233 236.252 43.3352C235.953 43.4337 235.71 43.5833 235.525 43.7841C235.343 43.9811 235.252 44.25 235.252 44.5909C235.252 45.0568 235.424 45.4091 235.769 45.6477C236.118 45.8826 236.559 46 237.093 46ZM243.577 50.25C243.349 50.25 243.147 50.2311 242.969 50.1932C242.791 50.1591 242.667 50.125 242.599 50.0909L242.94 48.9091C243.429 49.0341 243.836 49.0303 244.162 48.8977C244.488 48.7689 244.77 48.3788 245.008 47.7273L245.258 47.0455L242.031 38.2727H243.486L245.895 45.2273H245.986L248.395 38.2727L249.861 38.2955L246.145 48.2727C245.978 48.7159 245.772 49.0833 245.525 49.375C245.279 49.6705 244.993 49.8902 244.667 50.0341C244.346 50.178 243.982 50.25 243.577 50.25ZM17.7955 66.2045C17.2424 66.2045 16.7405 66.1004 16.2898 65.892C15.839 65.6799 15.4811 65.375 15.2159 64.9773C14.9508 64.5758 14.8182 64.0909 14.8182 63.5227C14.8182 63.0227 14.9167 62.6174 15.1136 62.3068C15.3106 61.9924 15.5739 61.7462 15.9034 61.5682C16.233 61.3902 16.5966 61.2576 16.9943 61.1705C17.3958 61.0795 17.7992 61.0076 18.2045 60.9545C18.7348 60.8864 19.1648 60.8352 19.4943 60.8011C19.8277 60.7633 20.0701 60.7008 20.2216 60.6136C20.3769 60.5265 20.4545 60.375 20.4545 60.1591V60.1136C20.4545 59.553 20.3011 59.1174 19.9943 58.8068C19.6913 58.4962 19.2311 58.3409 18.6136 58.3409C17.9735 58.3409 17.4716 58.4811 17.108 58.7614C16.7443 59.0417 16.4886 59.3409 16.3409 59.6591L15.0682 59.2045C15.2955 58.6742 15.5985 58.2614 15.9773 57.9659C16.3598 57.6667 16.7765 57.4583 17.2273 57.3409C17.6818 57.2197 18.1288 57.1591 18.5682 57.1591C18.8485 57.1591 19.1705 57.1932 19.5341 57.2614C19.9015 57.3258 20.2557 57.4602 20.5966 57.6648C20.9413 57.8693 21.2273 58.178 21.4545 58.5909C21.6818 59.0038 21.7955 59.5568 21.7955 60.25V66H20.4545V64.8182H20.3864C20.2955 65.0076 20.1439 65.2102 19.9318 65.4261C19.7197 65.642 19.4375 65.8258 19.0852 65.9773C18.733 66.1288 18.303 66.2045 17.7955 66.2045ZM18 65C18.5303 65 18.9773 64.8958 19.3409 64.6875C19.7083 64.4792 19.9848 64.2102 20.1705 63.8807C20.3598 63.5511 20.4545 63.2045 20.4545 62.8409V61.6136C20.3977 61.6818 20.2727 61.7443 20.0795 61.8011C19.8902 61.8542 19.6705 61.9015 19.4205 61.9432C19.1742 61.9811 18.9337 62.0152 18.6989 62.0455C18.4678 62.072 18.2803 62.0947 18.1364 62.1136C17.7879 62.1591 17.4621 62.233 17.1591 62.3352C16.8598 62.4337 16.6174 62.5833 16.4318 62.7841C16.25 62.9811 16.1591 63.25 16.1591 63.5909C16.1591 64.0568 16.3314 64.4091 16.6761 64.6477C17.0246 64.8826 17.4659 65 18 65ZM25.2733 60.75V66H23.9324V57.2727H25.2278V58.6364H25.3415C25.546 58.1932 25.8566 57.8371 26.2733 57.5682C26.69 57.2955 27.2278 57.1591 27.8869 57.1591C28.4778 57.1591 28.9949 57.2803 29.4381 57.5227C29.8813 57.7614 30.226 58.125 30.4722 58.6136C30.7184 59.0985 30.8415 59.7121 30.8415 60.4545V66H29.5006V60.5455C29.5006 59.8598 29.3225 59.3258 28.9665 58.9432C28.6104 58.5568 28.1218 58.3636 27.5006 58.3636C27.0725 58.3636 26.69 58.4564 26.3528 58.642C26.0195 58.8277 25.7563 59.0985 25.5631 59.4545C25.3699 59.8106 25.2733 60.2424 25.2733 60.75ZM36.2767 66.1818C35.5494 66.1818 34.9074 65.9981 34.3506 65.6307C33.7938 65.2595 33.3582 64.7367 33.0438 64.0625C32.7294 63.3845 32.5722 62.5833 32.5722 61.6591C32.5722 60.7424 32.7294 59.947 33.0438 59.2727C33.3582 58.5985 33.7957 58.0777 34.3563 57.7102C34.9169 57.3428 35.5646 57.1591 36.2994 57.1591C36.8676 57.1591 37.3165 57.2538 37.646 57.4432C37.9794 57.6288 38.2332 57.8409 38.4074 58.0795C38.5854 58.3144 38.7237 58.5076 38.8222 58.6591H38.9358V54.3636H40.2767V66H38.9813V64.6591H38.8222C38.7237 64.8182 38.5835 65.0189 38.4017 65.2614C38.2199 65.5 37.9604 65.714 37.6233 65.9034C37.2862 66.089 36.8373 66.1818 36.2767 66.1818ZM36.4585 64.9773C36.9964 64.9773 37.451 64.8371 37.8222 64.5568C38.1934 64.2727 38.4756 63.8807 38.6688 63.3807C38.8619 62.8769 38.9585 62.2955 38.9585 61.6364C38.9585 60.9848 38.8638 60.4148 38.6744 59.9261C38.485 59.4337 38.2047 59.0511 37.8335 58.7784C37.4623 58.5019 37.004 58.3636 36.4585 58.3636C35.8904 58.3636 35.4169 58.5095 35.0381 58.8011C34.6631 59.089 34.3809 59.4811 34.1915 59.9773C34.0059 60.4697 33.9131 61.0227 33.9131 61.6364C33.9131 62.2576 34.0078 62.822 34.1972 63.3295C34.3904 63.8333 34.6744 64.2348 35.0494 64.5341C35.4282 64.8295 35.8979 64.9773 36.4585 64.9773ZM50.4568 66.1818C49.6159 66.1818 48.8905 65.9962 48.2807 65.625C47.6746 65.25 47.2068 64.7273 46.8773 64.0568C46.5515 63.3826 46.3887 62.5985 46.3887 61.7045C46.3887 60.8106 46.5515 60.0227 46.8773 59.3409C47.2068 58.6553 47.6652 58.1212 48.2523 57.7386C48.8432 57.3523 49.5326 57.1591 50.3205 57.1591C50.775 57.1591 51.2239 57.2348 51.6671 57.3864C52.1102 57.5379 52.5137 57.7841 52.8773 58.125C53.2409 58.4621 53.5307 58.9091 53.7466 59.4659C53.9625 60.0227 54.0705 60.7083 54.0705 61.5227V62.0909H47.3432V60.9318H52.7068C52.7068 60.4394 52.6084 60 52.4114 59.6136C52.2182 59.2273 51.9417 58.9223 51.5818 58.6989C51.2258 58.4754 50.8053 58.3636 50.3205 58.3636C49.7864 58.3636 49.3243 58.4962 48.9341 58.7614C48.5477 59.0227 48.2504 59.3636 48.0421 59.7841C47.8337 60.2045 47.7296 60.6553 47.7296 61.1364V61.9091C47.7296 62.5682 47.8432 63.1269 48.0705 63.5852C48.3015 64.0398 48.6216 64.3864 49.0307 64.625C49.4398 64.8598 49.9152 64.9773 50.4568 64.9773C50.8091 64.9773 51.1273 64.928 51.4114 64.8295C51.6993 64.7273 51.9474 64.5758 52.1557 64.375C52.364 64.1705 52.525 63.9167 52.6387 63.6136L53.9341 63.9773C53.7977 64.4167 53.5686 64.803 53.2466 65.1364C52.9246 65.4659 52.5269 65.7235 52.0534 65.9091C51.5799 66.0909 51.0477 66.1818 50.4568 66.1818ZM58.3679 66.2045C57.8149 66.2045 57.313 66.1004 56.8622 65.892C56.4115 65.6799 56.0535 65.375 55.7884 64.9773C55.5232 64.5758 55.3906 64.0909 55.3906 63.5227C55.3906 63.0227 55.4891 62.6174 55.6861 62.3068C55.8831 61.9924 56.1463 61.7462 56.4759 61.5682C56.8054 61.3902 57.1691 61.2576 57.5668 61.1705C57.9683 61.0795 58.3717 61.0076 58.777 60.9545C59.3073 60.8864 59.7372 60.8352 60.0668 60.8011C60.4001 60.7633 60.6425 60.7008 60.7941 60.6136C60.9494 60.5265 61.027 60.375 61.027 60.1591V60.1136C61.027 59.553 60.8736 59.1174 60.5668 58.8068C60.2638 58.4962 59.8035 58.3409 59.1861 58.3409C58.546 58.3409 58.0441 58.4811 57.6804 58.7614C57.3168 59.0417 57.0611 59.3409 56.9134 59.6591L55.6406 59.2045C55.8679 58.6742 56.171 58.2614 56.5497 57.9659C56.9323 57.6667 57.349 57.4583 57.7997 57.3409C58.2543 57.2197 58.7013 57.1591 59.1406 57.1591C59.421 57.1591 59.7429 57.1932 60.1066 57.2614C60.474 57.3258 60.8281 57.4602 61.1691 57.6648C61.5138 57.8693 61.7997 58.178 62.027 58.5909C62.2543 59.0038 62.3679 59.5568 62.3679 60.25V66H61.027V64.8182H60.9588C60.8679 65.0076 60.7164 65.2102 60.5043 65.4261C60.2922 65.642 60.01 65.8258 59.6577 65.9773C59.3054 66.1288 58.8755 66.2045 58.3679 66.2045ZM58.5725 65C59.1028 65 59.5497 64.8958 59.9134 64.6875C60.2808 64.4792 60.5573 64.2102 60.7429 63.8807C60.9323 63.5511 61.027 63.2045 61.027 62.8409V61.6136C60.9702 61.6818 60.8452 61.7443 60.652 61.8011C60.4626 61.8542 60.2429 61.9015 59.9929 61.9432C59.7467 61.9811 59.5062 62.0152 59.2713 62.0455C59.0403 62.072 58.8528 62.0947 58.7088 62.1136C58.3603 62.1591 58.0346 62.233 57.7316 62.3352C57.4323 62.4337 57.1899 62.5833 57.0043 62.7841C56.8225 62.9811 56.7316 63.25 56.7316 63.5909C56.7316 64.0568 56.9039 64.4091 57.2486 64.6477C57.5971 64.8826 58.0384 65 58.5725 65ZM64.5049 66V57.2727H65.8003V58.5909H65.8912C66.0503 58.1591 66.3382 57.8087 66.7549 57.5398C67.1715 57.2708 67.6412 57.1364 68.1639 57.1364C68.2624 57.1364 68.3855 57.1383 68.5333 57.142C68.681 57.1458 68.7927 57.1515 68.8685 57.1591V58.5227C68.823 58.5114 68.7189 58.4943 68.556 58.4716C68.3969 58.4451 68.2283 58.4318 68.0503 58.4318C67.6261 58.4318 67.2473 58.5208 66.9139 58.6989C66.5844 58.8731 66.323 59.1155 66.1299 59.4261C65.9405 59.733 65.8458 60.0833 65.8458 60.4773V66H64.5049ZM71.4884 60.75V66H70.1475V57.2727H71.4429V58.6364H71.5566C71.7611 58.1932 72.0717 57.8371 72.4884 57.5682C72.9051 57.2955 73.4429 57.1591 74.102 57.1591C74.6929 57.1591 75.21 57.2803 75.6532 57.5227C76.0963 57.7614 76.441 58.125 76.6872 58.6136C76.9335 59.0985 77.0566 59.7121 77.0566 60.4545V66H75.7157V60.5455C75.7157 59.8598 75.5376 59.3258 75.1816 58.9432C74.8255 58.5568 74.3369 58.3636 73.7157 58.3636C73.2876 58.3636 72.9051 58.4564 72.5679 58.642C72.2346 58.8277 71.9713 59.0985 71.7782 59.4545C71.585 59.8106 71.4884 60.2424 71.4884 60.75ZM87.454 54.3636V66H86.0449V55.8409H85.9767L83.1358 57.7273V56.2955L86.0449 54.3636H87.454ZM94.2856 66.1591C93.4295 66.1591 92.7003 65.9261 92.0981 65.4602C91.4958 64.9905 91.0356 64.3106 90.7174 63.4205C90.3992 62.5265 90.2401 61.447 90.2401 60.1818C90.2401 58.9242 90.3992 57.8504 90.7174 56.9602C91.0393 56.0663 91.5015 55.3845 92.1037 54.9148C92.7098 54.4413 93.4371 54.2045 94.2856 54.2045C95.134 54.2045 95.8594 54.4413 96.4617 54.9148C97.0678 55.3845 97.5299 56.0663 97.8481 56.9602C98.17 57.8504 98.331 58.9242 98.331 60.1818C98.331 61.447 98.1719 62.5265 97.8537 63.4205C97.5356 64.3106 97.0753 64.9905 96.4731 65.4602C95.8708 65.9261 95.1416 66.1591 94.2856 66.1591ZM94.2856 64.9091C95.134 64.9091 95.7931 64.5 96.2628 63.6818C96.7325 62.8636 96.9674 61.697 96.9674 60.1818C96.9674 59.1742 96.8594 58.3163 96.6435 57.608C96.4314 56.8996 96.1246 56.3598 95.7231 55.9886C95.3253 55.6174 94.8462 55.4318 94.2856 55.4318C93.4447 55.4318 92.7875 55.8466 92.314 56.6761C91.8405 57.5019 91.6037 58.6705 91.6037 60.1818C91.6037 61.1894 91.7098 62.0455 91.9219 62.75C92.134 63.4545 92.439 63.9905 92.8367 64.358C93.2382 64.7254 93.7212 64.9091 94.2856 64.9091ZM103.975 66.1591C103.119 66.1591 102.39 65.9261 101.788 65.4602C101.185 64.9905 100.725 64.3106 100.407 63.4205C100.089 62.5265 99.9296 61.447 99.9296 60.1818C99.9296 58.9242 100.089 57.8504 100.407 56.9602C100.729 56.0663 101.191 55.3845 101.793 54.9148C102.399 54.4413 103.127 54.2045 103.975 54.2045C104.824 54.2045 105.549 54.4413 106.151 54.9148C106.757 55.3845 107.219 56.0663 107.538 56.9602C107.86 57.8504 108.021 58.9242 108.021 60.1818C108.021 61.447 107.861 62.5265 107.543 63.4205C107.225 64.3106 106.765 64.9905 106.163 65.4602C105.56 65.9261 104.831 66.1591 103.975 66.1591ZM103.975 64.9091C104.824 64.9091 105.483 64.5 105.952 63.6818C106.422 62.8636 106.657 61.697 106.657 60.1818C106.657 59.1742 106.549 58.3163 106.333 57.608C106.121 56.8996 105.814 56.3598 105.413 55.9886C105.015 55.6174 104.536 55.4318 103.975 55.4318C103.134 55.4318 102.477 55.8466 102.003 56.6761C101.53 57.5019 101.293 58.6705 101.293 60.1818C101.293 61.1894 101.399 62.0455 101.611 62.75C101.824 63.4545 102.128 63.9905 102.526 64.358C102.928 64.7254 103.411 64.9091 103.975 64.9091ZM116.24 60.9545V66H113.82V54.3636H116.172V58.8125H116.274C116.471 58.2973 116.79 57.8939 117.229 57.6023C117.668 57.3068 118.22 57.1591 118.882 57.1591C119.489 57.1591 120.017 57.2917 120.468 57.5568C120.922 57.8182 121.274 58.1951 121.524 58.6875C121.778 59.1761 121.903 59.7614 121.899 60.4432V66H119.479V60.875C119.483 60.3371 119.346 59.9186 119.07 59.6193C118.797 59.3201 118.415 59.1705 117.922 59.1705C117.593 59.1705 117.301 59.2405 117.047 59.3807C116.797 59.5208 116.6 59.7254 116.456 59.9943C116.316 60.2595 116.244 60.5795 116.24 60.9545ZM123.494 66V57.2727H125.914V66H123.494ZM124.715 56.1477C124.356 56.1477 124.047 56.0284 123.789 55.7898C123.532 55.5473 123.403 55.2576 123.403 54.9205C123.403 54.5871 123.532 54.3011 123.789 54.0625C124.047 53.8201 124.354 53.6989 124.71 53.6989C125.073 53.6989 125.382 53.8201 125.636 54.0625C125.893 54.3011 126.022 54.5871 126.022 54.9205C126.022 55.2576 125.893 55.5473 125.636 55.7898C125.382 56.0284 125.075 56.1477 124.715 56.1477ZM135.766 66H132.175V54.3636H135.925C137.054 54.3636 138.02 54.5966 138.823 55.0625C139.626 55.5246 140.242 56.1894 140.67 57.0568C141.098 57.9205 141.312 58.9545 141.312 60.1591C141.312 61.3712 141.096 62.4148 140.664 63.2898C140.232 64.161 139.603 64.8314 138.778 65.3011C137.952 65.767 136.948 66 135.766 66ZM133.584 64.75H135.675C136.637 64.75 137.435 64.5644 138.067 64.1932C138.7 63.822 139.172 63.2936 139.482 62.608C139.793 61.9223 139.948 61.1061 139.948 60.1591C139.948 59.2197 139.795 58.411 139.488 57.733C139.181 57.0511 138.723 56.5284 138.113 56.1648C137.503 55.7973 136.744 55.6136 135.834 55.6136H133.584V64.75ZM146.728 66.1818C145.941 66.1818 145.249 65.9943 144.655 65.6193C144.064 65.2443 143.602 64.7197 143.268 64.0455C142.939 63.3712 142.774 62.5833 142.774 61.6818C142.774 60.7727 142.939 59.9792 143.268 59.3011C143.602 58.6231 144.064 58.0966 144.655 57.7216C145.249 57.3466 145.941 57.1591 146.728 57.1591C147.516 57.1591 148.206 57.3466 148.797 57.7216C149.391 58.0966 149.853 58.6231 150.183 59.3011C150.516 59.9792 150.683 60.7727 150.683 61.6818C150.683 62.5833 150.516 63.3712 150.183 64.0455C149.853 64.7197 149.391 65.2443 148.797 65.6193C148.206 65.9943 147.516 66.1818 146.728 66.1818ZM146.728 64.9773C147.327 64.9773 147.819 64.8239 148.206 64.517C148.592 64.2102 148.878 63.8068 149.064 63.3068C149.249 62.8068 149.342 62.2652 149.342 61.6818C149.342 61.0985 149.249 60.5549 149.064 60.0511C148.878 59.5473 148.592 59.1402 148.206 58.8295C147.819 58.5189 147.327 58.3636 146.728 58.3636C146.13 58.3636 145.638 58.5189 145.251 58.8295C144.865 59.1402 144.579 59.5473 144.393 60.0511C144.208 60.5549 144.115 61.0985 144.115 61.6818C144.115 62.2652 144.208 62.8068 144.393 63.3068C144.579 63.8068 144.865 64.2102 145.251 64.517C145.638 64.8239 146.13 64.9773 146.728 64.9773ZM153.76 54.3636V66H152.419V54.3636H153.76ZM157.247 54.3636V66H155.906V54.3636H157.247ZM161.96 66.2045C161.407 66.2045 160.905 66.1004 160.455 65.892C160.004 65.6799 159.646 65.375 159.381 64.9773C159.116 64.5758 158.983 64.0909 158.983 63.5227C158.983 63.0227 159.082 62.6174 159.279 62.3068C159.475 61.9924 159.739 61.7462 160.068 61.5682C160.398 61.3902 160.761 61.2576 161.159 61.1705C161.561 61.0795 161.964 61.0076 162.369 60.9545C162.9 60.8864 163.33 60.8352 163.659 60.8011C163.993 60.7633 164.235 60.7008 164.386 60.6136C164.542 60.5265 164.619 60.375 164.619 60.1591V60.1136C164.619 59.553 164.466 59.1174 164.159 58.8068C163.856 58.4962 163.396 58.3409 162.779 58.3409C162.138 58.3409 161.636 58.4811 161.273 58.7614C160.909 59.0417 160.654 59.3409 160.506 59.6591L159.233 59.2045C159.46 58.6742 159.763 58.2614 160.142 57.9659C160.525 57.6667 160.941 57.4583 161.392 57.3409C161.847 57.2197 162.294 57.1591 162.733 57.1591C163.013 57.1591 163.335 57.1932 163.699 57.2614C164.066 57.3258 164.421 57.4602 164.761 57.6648C165.106 57.8693 165.392 58.178 165.619 58.5909C165.847 59.0038 165.96 59.5568 165.96 60.25V66H164.619V64.8182H164.551C164.46 65.0076 164.309 65.2102 164.097 65.4261C163.885 65.642 163.602 65.8258 163.25 65.9773C162.898 66.1288 162.468 66.2045 161.96 66.2045ZM162.165 65C162.695 65 163.142 64.8958 163.506 64.6875C163.873 64.4792 164.15 64.2102 164.335 63.8807C164.525 63.5511 164.619 63.2045 164.619 62.8409V61.6136C164.563 61.6818 164.438 61.7443 164.244 61.8011C164.055 61.8542 163.835 61.9015 163.585 61.9432C163.339 61.9811 163.099 62.0152 162.864 62.0455C162.633 62.072 162.445 62.0947 162.301 62.1136C161.953 62.1591 161.627 62.233 161.324 62.3352C161.025 62.4337 160.782 62.5833 160.597 62.7841C160.415 62.9811 160.324 63.25 160.324 63.5909C160.324 64.0568 160.496 64.4091 160.841 64.6477C161.189 64.8826 161.631 65 162.165 65ZM168.097 66V57.2727H169.393V58.5909H169.484C169.643 58.1591 169.931 57.8087 170.347 57.5398C170.764 57.2708 171.234 57.1364 171.756 57.1364C171.855 57.1364 171.978 57.1383 172.126 57.142C172.273 57.1458 172.385 57.1515 172.461 57.1591V58.5227C172.415 58.5114 172.311 58.4943 172.148 58.4716C171.989 58.4451 171.821 58.4318 171.643 58.4318C171.218 58.4318 170.84 58.5208 170.506 58.6989C170.177 58.8731 169.915 59.1155 169.722 59.4261C169.533 59.733 169.438 60.0833 169.438 60.4773V66H168.097ZM179.922 59.2273L178.717 59.5682C178.641 59.3674 178.53 59.1723 178.382 58.983C178.238 58.7898 178.041 58.6307 177.791 58.5057C177.541 58.3807 177.221 58.3182 176.831 58.3182C176.297 58.3182 175.852 58.4413 175.496 58.6875C175.143 58.9299 174.967 59.2386 174.967 59.6136C174.967 59.947 175.088 60.2102 175.331 60.4034C175.573 60.5966 175.952 60.7576 176.467 60.8864L177.763 61.2045C178.543 61.3939 179.124 61.6837 179.507 62.0739C179.889 62.4602 180.081 62.9583 180.081 63.5682C180.081 64.0682 179.937 64.5152 179.649 64.9091C179.365 65.303 178.967 65.6136 178.456 65.8409C177.944 66.0682 177.35 66.1818 176.672 66.1818C175.782 66.1818 175.045 65.9886 174.461 65.6023C173.878 65.2159 173.509 64.6515 173.354 63.9091L174.626 63.5909C174.747 64.0606 174.977 64.4129 175.314 64.6477C175.655 64.8826 176.1 65 176.649 65C177.274 65 177.77 64.8674 178.138 64.6023C178.509 64.3333 178.694 64.0114 178.694 63.6364C178.694 63.3333 178.588 63.0795 178.376 62.875C178.164 62.6667 177.838 62.5114 177.399 62.4091L175.944 62.0682C175.145 61.8788 174.558 61.5852 174.183 61.1875C173.812 60.786 173.626 60.2841 173.626 59.6818C173.626 59.1894 173.764 58.7538 174.041 58.375C174.321 57.9962 174.702 57.6989 175.183 57.483C175.668 57.267 176.217 57.1591 176.831 57.1591C177.694 57.1591 178.372 57.3485 178.865 57.7273C179.361 58.1061 179.713 58.6061 179.922 59.2273ZM188.546 66.2045C187.993 66.2045 187.491 66.1004 187.041 65.892C186.59 65.6799 186.232 65.375 185.967 64.9773C185.702 64.5758 185.569 64.0909 185.569 63.5227C185.569 63.0227 185.668 62.6174 185.865 62.3068C186.062 61.9924 186.325 61.7462 186.654 61.5682C186.984 61.3902 187.348 61.2576 187.745 61.1705C188.147 61.0795 188.55 61.0076 188.956 60.9545C189.486 60.8864 189.916 60.8352 190.245 60.8011C190.579 60.7633 190.821 60.7008 190.973 60.6136C191.128 60.5265 191.206 60.375 191.206 60.1591V60.1136C191.206 59.553 191.052 59.1174 190.745 58.8068C190.442 58.4962 189.982 58.3409 189.365 58.3409C188.724 58.3409 188.223 58.4811 187.859 58.7614C187.495 59.0417 187.24 59.3409 187.092 59.6591L185.819 59.2045C186.046 58.6742 186.349 58.2614 186.728 57.9659C187.111 57.6667 187.527 57.4583 187.978 57.3409C188.433 57.2197 188.88 57.1591 189.319 57.1591C189.599 57.1591 189.921 57.1932 190.285 57.2614C190.652 57.3258 191.007 57.4602 191.348 57.6648C191.692 57.8693 191.978 58.178 192.206 58.5909C192.433 59.0038 192.546 59.5568 192.546 60.25V66H191.206V64.8182H191.137C191.046 65.0076 190.895 65.2102 190.683 65.4261C190.471 65.642 190.188 65.8258 189.836 65.9773C189.484 66.1288 189.054 66.2045 188.546 66.2045ZM188.751 65C189.281 65 189.728 64.8958 190.092 64.6875C190.459 64.4792 190.736 64.2102 190.921 63.8807C191.111 63.5511 191.206 63.2045 191.206 62.8409V61.6136C191.149 61.6818 191.024 61.7443 190.831 61.8011C190.641 61.8542 190.421 61.9015 190.171 61.9432C189.925 61.9811 189.685 62.0152 189.45 62.0455C189.219 62.072 189.031 62.0947 188.887 62.1136C188.539 62.1591 188.213 62.233 187.91 62.3352C187.611 62.4337 187.368 62.5833 187.183 62.7841C187.001 62.9811 186.91 63.25 186.91 63.5909C186.91 64.0568 187.082 64.4091 187.427 64.6477C187.776 64.8826 188.217 65 188.751 65ZM202.168 66.1818C201.441 66.1818 200.799 65.9981 200.242 65.6307C199.685 65.2595 199.25 64.7367 198.935 64.0625C198.621 63.3845 198.464 62.5833 198.464 61.6591C198.464 60.7424 198.621 59.947 198.935 59.2727C199.25 58.5985 199.687 58.0777 200.248 57.7102C200.808 57.3428 201.456 57.1591 202.191 57.1591C202.759 57.1591 203.208 57.2538 203.538 57.4432C203.871 57.6288 204.125 57.8409 204.299 58.0795C204.477 58.3144 204.615 58.5076 204.714 58.6591H204.827V54.3636H206.168V66H204.873V64.6591H204.714C204.615 64.8182 204.475 65.0189 204.293 65.2614C204.111 65.5 203.852 65.714 203.515 65.9034C203.178 66.089 202.729 66.1818 202.168 66.1818ZM202.35 64.9773C202.888 64.9773 203.343 64.8371 203.714 64.5568C204.085 64.2727 204.367 63.8807 204.56 63.3807C204.754 62.8769 204.85 62.2955 204.85 61.6364C204.85 60.9848 204.755 60.4148 204.566 59.9261C204.377 59.4337 204.096 59.0511 203.725 58.7784C203.354 58.5019 202.896 58.3636 202.35 58.3636C201.782 58.3636 201.308 58.5095 200.93 58.8011C200.555 59.089 200.272 59.4811 200.083 59.9773C199.897 60.4697 199.805 61.0227 199.805 61.6364C199.805 62.2576 199.899 62.822 200.089 63.3295C200.282 63.8333 200.566 64.2348 200.941 64.5341C201.32 64.8295 201.79 64.9773 202.35 64.9773ZM211.068 66.2045C210.515 66.2045 210.013 66.1004 209.562 65.892C209.112 65.6799 208.754 65.375 208.488 64.9773C208.223 64.5758 208.091 64.0909 208.091 63.5227C208.091 63.0227 208.189 62.6174 208.386 62.3068C208.583 61.9924 208.846 61.7462 209.176 61.5682C209.506 61.3902 209.869 61.2576 210.267 61.1705C210.668 61.0795 211.072 61.0076 211.477 60.9545C212.007 60.8864 212.437 60.8352 212.767 60.8011C213.1 60.7633 213.343 60.7008 213.494 60.6136C213.649 60.5265 213.727 60.375 213.727 60.1591V60.1136C213.727 59.553 213.574 59.1174 213.267 58.8068C212.964 58.4962 212.504 58.3409 211.886 58.3409C211.246 58.3409 210.744 58.4811 210.381 58.7614C210.017 59.0417 209.761 59.3409 209.613 59.6591L208.341 59.2045C208.568 58.6742 208.871 58.2614 209.25 57.9659C209.632 57.6667 210.049 57.4583 210.5 57.3409C210.954 57.2197 211.401 57.1591 211.841 57.1591C212.121 57.1591 212.443 57.1932 212.807 57.2614C213.174 57.3258 213.528 57.4602 213.869 57.6648C214.214 57.8693 214.5 58.178 214.727 58.5909C214.954 59.0038 215.068 59.5568 215.068 60.25V66H213.727V64.8182H213.659C213.568 65.0076 213.417 65.2102 213.204 65.4261C212.992 65.642 212.71 65.8258 212.358 65.9773C212.006 66.1288 211.576 66.2045 211.068 66.2045ZM211.273 65C211.803 65 212.25 64.8958 212.613 64.6875C212.981 64.4792 213.257 64.2102 213.443 63.8807C213.632 63.5511 213.727 63.2045 213.727 62.8409V61.6136C213.67 61.6818 213.545 61.7443 213.352 61.8011C213.163 61.8542 212.943 61.9015 212.693 61.9432C212.447 61.9811 212.206 62.0152 211.971 62.0455C211.74 62.072 211.553 62.0947 211.409 62.1136C211.06 62.1591 210.735 62.233 210.432 62.3352C210.132 62.4337 209.89 62.5833 209.704 62.7841C209.523 62.9811 209.432 63.25 209.432 63.5909C209.432 64.0568 209.604 64.4091 209.949 64.6477C210.297 64.8826 210.738 65 211.273 65ZM217.756 69.25C217.529 69.25 217.326 69.2311 217.148 69.1932C216.97 69.1591 216.847 69.125 216.779 69.0909L217.12 67.9091C217.608 68.0341 218.016 68.0303 218.341 67.8977C218.667 67.7689 218.949 67.3788 219.188 66.7273L219.438 66.0455L216.211 57.2727H217.665L220.074 64.2273H220.165L222.574 57.2727L224.04 57.2955L220.324 67.2727C220.158 67.7159 219.951 68.0833 219.705 68.375C219.459 68.6705 219.173 68.8902 218.847 69.0341C218.525 69.178 218.161 69.25 217.756 69.25ZM20.7273 81.4318V76.2727H22.0682V85H20.7273V83.5227H20.6364C20.4318 83.9659 20.1136 84.3428 19.6818 84.6534C19.25 84.9602 18.7045 85.1136 18.0455 85.1136C17.5 85.1136 17.0152 84.9943 16.5909 84.7557C16.1667 84.5133 15.8333 84.1496 15.5909 83.6648C15.3485 83.1761 15.2273 82.5606 15.2273 81.8182V76.2727H16.5682V81.7273C16.5682 82.3636 16.7462 82.8712 17.1023 83.25C17.4621 83.6288 17.9205 83.8182 18.4773 83.8182C18.8106 83.8182 19.1496 83.733 19.4943 83.5625C19.8428 83.392 20.1345 83.1307 20.3693 82.7784C20.608 82.4261 20.7273 81.9773 20.7273 81.4318ZM25.5546 79.75V85H24.2136V76.2727H25.5091V77.6364H25.6227C25.8273 77.1932 26.1379 76.8371 26.5546 76.5682C26.9712 76.2955 27.5091 76.1591 28.1682 76.1591C28.7591 76.1591 29.2761 76.2803 29.7193 76.5227C30.1625 76.7614 30.5072 77.125 30.7534 77.6136C30.9996 78.0985 31.1227 78.7121 31.1227 79.4545V85H29.7818V79.5455C29.7818 78.8598 29.6038 78.3258 29.2477 77.9432C28.8917 77.5568 28.403 77.3636 27.7818 77.3636C27.3538 77.3636 26.9712 77.4564 26.6341 77.642C26.3008 77.8277 26.0375 78.0985 25.8443 78.4545C25.6511 78.8106 25.5546 79.2424 25.5546 79.75ZM37.058 76.2727V77.4091H32.5352V76.2727H37.058ZM33.8534 74.1818H35.1943V82.5C35.1943 82.8788 35.2493 83.1629 35.3591 83.3523C35.4727 83.5379 35.6167 83.6629 35.7909 83.7273C35.9689 83.7879 36.1564 83.8182 36.3534 83.8182C36.5011 83.8182 36.6224 83.8106 36.7171 83.7955C36.8118 83.7765 36.8875 83.7614 36.9443 83.75L37.2171 84.9545C37.1261 84.9886 36.9993 85.0227 36.8364 85.0568C36.6735 85.0947 36.4671 85.1136 36.2171 85.1136C35.8383 85.1136 35.4671 85.0322 35.1034 84.8693C34.7436 84.7064 34.4443 84.4583 34.2057 84.125C33.9708 83.7917 33.8534 83.3712 33.8534 82.8636V74.1818ZM38.7645 85V76.2727H40.1054V85H38.7645ZM39.4463 74.8182C39.185 74.8182 38.9596 74.7292 38.7702 74.5511C38.5846 74.3731 38.4918 74.1591 38.4918 73.9091C38.4918 73.6591 38.5846 73.4451 38.7702 73.267C38.9596 73.089 39.185 73 39.4463 73C39.7077 73 39.9312 73.089 40.1168 73.267C40.3062 73.4451 40.4009 73.6591 40.4009 73.9091C40.4009 74.1591 40.3062 74.3731 40.1168 74.5511C39.9312 74.7292 39.7077 74.8182 39.4463 74.8182ZM43.5918 73.3636V85H42.2509V73.3636H43.5918ZM53.7222 76.2727V77.4091H49.1995V76.2727H53.7222ZM50.5176 74.1818H51.8586V82.5C51.8586 82.8788 51.9135 83.1629 52.0233 83.3523C52.137 83.5379 52.2809 83.6629 52.4551 83.7273C52.6332 83.7879 52.8207 83.8182 53.0176 83.8182C53.1654 83.8182 53.2866 83.8106 53.3813 83.7955C53.476 83.7765 53.5517 83.7614 53.6086 83.75L53.8813 84.9545C53.7904 84.9886 53.6635 85.0227 53.5006 85.0568C53.3377 85.0947 53.1313 85.1136 52.8813 85.1136C52.5025 85.1136 52.1313 85.0322 51.7676 84.8693C51.4078 84.7064 51.1086 84.4583 50.8699 84.125C50.6351 83.7917 50.5176 83.3712 50.5176 82.8636V74.1818ZM56.9571 79.75V85H55.6162V73.3636H56.9571V77.6364H57.0708C57.2753 77.1856 57.5821 76.8277 57.9912 76.5625C58.4041 76.2936 58.9533 76.1591 59.639 76.1591C60.2337 76.1591 60.7545 76.2784 61.2015 76.517C61.6484 76.7519 61.995 77.1136 62.2412 77.6023C62.4912 78.0871 62.6162 78.7045 62.6162 79.4545V85H61.2753V79.5455C61.2753 78.8523 61.0954 78.3163 60.7355 77.9375C60.3795 77.5549 59.8852 77.3636 59.2526 77.3636C58.8132 77.3636 58.4193 77.4564 58.0708 77.642C57.7261 77.8277 57.4533 78.0985 57.2526 78.4545C57.0556 78.8106 56.9571 79.2424 56.9571 79.75ZM68.4179 85.1818C67.577 85.1818 66.8516 84.9962 66.2418 84.625C65.6357 84.25 65.1679 83.7273 64.8384 83.0568C64.5126 82.3826 64.3498 81.5985 64.3498 80.7045C64.3498 79.8106 64.5126 79.0227 64.8384 78.3409C65.1679 77.6553 65.6263 77.1212 66.2134 76.7386C66.8043 76.3523 67.4937 76.1591 68.2816 76.1591C68.7361 76.1591 69.185 76.2348 69.6282 76.3864C70.0713 76.5379 70.4748 76.7841 70.8384 77.125C71.202 77.4621 71.4918 77.9091 71.7077 78.4659C71.9236 79.0227 72.0316 79.7083 72.0316 80.5227V81.0909H65.3043V79.9318H70.6679C70.6679 79.4394 70.5694 79 70.3725 78.6136C70.1793 78.2273 69.9028 77.9223 69.5429 77.6989C69.1869 77.4754 68.7664 77.3636 68.2816 77.3636C67.7475 77.3636 67.2854 77.4962 66.8952 77.7614C66.5088 78.0227 66.2115 78.3636 66.0032 78.7841C65.7948 79.2045 65.6907 79.6553 65.6907 80.1364V80.9091C65.6907 81.5682 65.8043 82.1269 66.0316 82.5852C66.2626 83.0398 66.5827 83.3864 66.9918 83.625C67.4009 83.8598 67.8763 83.9773 68.4179 83.9773C68.7702 83.9773 69.0884 83.928 69.3725 83.8295C69.6604 83.7273 69.9085 83.5758 70.1168 83.375C70.3251 83.1705 70.4861 82.9167 70.5998 82.6136L71.8952 82.9773C71.7588 83.4167 71.5297 83.803 71.2077 84.1364C70.8857 84.4659 70.488 84.7235 70.0145 84.9091C69.541 85.0909 69.0088 85.1818 68.4179 85.1818ZM81.6094 85.1818C80.7685 85.1818 80.0431 84.9962 79.4333 84.625C78.8272 84.25 78.3594 83.7273 78.0299 83.0568C77.7041 82.3826 77.5412 81.5985 77.5412 80.7045C77.5412 79.8106 77.7041 79.0227 78.0299 78.3409C78.3594 77.6553 78.8178 77.1212 79.4049 76.7386C79.9958 76.3523 80.6852 76.1591 81.4731 76.1591C81.9276 76.1591 82.3765 76.2348 82.8196 76.3864C83.2628 76.5379 83.6662 76.7841 84.0299 77.125C84.3935 77.4621 84.6833 77.9091 84.8992 78.4659C85.1151 79.0227 85.2231 79.7083 85.2231 80.5227V81.0909H78.4958V79.9318H83.8594C83.8594 79.4394 83.7609 79 83.564 78.6136C83.3708 78.2273 83.0943 77.9223 82.7344 77.6989C82.3784 77.4754 81.9579 77.3636 81.4731 77.3636C80.939 77.3636 80.4768 77.4962 80.0867 77.7614C79.7003 78.0227 79.403 78.3636 79.1946 78.7841C78.9863 79.2045 78.8821 79.6553 78.8821 80.1364V80.9091C78.8821 81.5682 78.9958 82.1269 79.2231 82.5852C79.4541 83.0398 79.7742 83.3864 80.1833 83.625C80.5924 83.8598 81.0678 83.9773 81.6094 83.9773C81.9617 83.9773 82.2799 83.928 82.564 83.8295C82.8518 83.7273 83.1 83.5758 83.3083 83.375C83.5166 83.1705 83.6776 82.9167 83.7912 82.6136L85.0867 82.9773C84.9503 83.4167 84.7212 83.803 84.3992 84.1364C84.0772 84.4659 83.6795 84.7235 83.206 84.9091C82.7325 85.0909 82.2003 85.1818 81.6094 85.1818ZM88.2932 79.75V85H86.9523V76.2727H88.2478V77.6364H88.3614C88.566 77.1932 88.8766 76.8371 89.2932 76.5682C89.7099 76.2955 90.2478 76.1591 90.9069 76.1591C91.4978 76.1591 92.0148 76.2803 92.458 76.5227C92.9012 76.7614 93.2459 77.125 93.4921 77.6136C93.7383 78.0985 93.8614 78.7121 93.8614 79.4545V85H92.5205V79.5455C92.5205 78.8598 92.3425 78.3258 91.9864 77.9432C91.6304 77.5568 91.1417 77.3636 90.5205 77.3636C90.0925 77.3636 89.7099 77.4564 89.3728 77.642C89.0394 77.8277 88.7762 78.0985 88.583 78.4545C88.3898 78.8106 88.2932 79.2424 88.2932 79.75ZM99.2966 85.1818C98.5694 85.1818 97.9273 84.9981 97.3705 84.6307C96.8137 84.2595 96.3781 83.7367 96.0637 83.0625C95.7493 82.3845 95.5921 81.5833 95.5921 80.6591C95.5921 79.7424 95.7493 78.947 96.0637 78.2727C96.3781 77.5985 96.8156 77.0777 97.3762 76.7102C97.9368 76.3428 98.5845 76.1591 99.3194 76.1591C99.8876 76.1591 100.336 76.2538 100.666 76.4432C100.999 76.6288 101.253 76.8409 101.427 77.0795C101.605 77.3144 101.744 77.5076 101.842 77.6591H101.956V73.3636H103.297V85H102.001V83.6591H101.842C101.744 83.8182 101.603 84.0189 101.422 84.2614C101.24 84.5 100.98 84.714 100.643 84.9034C100.306 85.089 99.8573 85.1818 99.2966 85.1818ZM99.4785 83.9773C100.016 83.9773 100.471 83.8371 100.842 83.5568C101.213 83.2727 101.496 82.8807 101.689 82.3807C101.882 81.8769 101.978 81.2955 101.978 80.6364C101.978 79.9848 101.884 79.4148 101.694 78.9261C101.505 78.4337 101.225 78.0511 100.853 77.7784C100.482 77.5019 100.024 77.3636 99.4785 77.3636C98.9103 77.3636 98.4368 77.5095 98.058 77.8011C97.683 78.089 97.4008 78.4811 97.2114 78.9773C97.0258 79.4697 96.933 80.0227 96.933 80.6364C96.933 81.2576 97.0277 81.822 97.2171 82.3295C97.4103 82.8333 97.6944 83.2348 98.0694 83.5341C98.4482 83.8295 98.9179 83.9773 99.4785 83.9773ZM113.363 85.1818C112.575 85.1818 111.884 84.9943 111.289 84.6193C110.698 84.2443 110.236 83.7197 109.903 83.0455C109.573 82.3712 109.409 81.5833 109.409 80.6818C109.409 79.7727 109.573 78.9792 109.903 78.3011C110.236 77.6231 110.698 77.0966 111.289 76.7216C111.884 76.3466 112.575 76.1591 113.363 76.1591C114.151 76.1591 114.84 76.3466 115.431 76.7216C116.026 77.0966 116.488 77.6231 116.818 78.3011C117.151 78.9792 117.318 79.7727 117.318 80.6818C117.318 81.5833 117.151 82.3712 116.818 83.0455C116.488 83.7197 116.026 84.2443 115.431 84.6193C114.84 84.9943 114.151 85.1818 113.363 85.1818ZM113.363 83.9773C113.962 83.9773 114.454 83.8239 114.84 83.517C115.227 83.2102 115.513 82.8068 115.698 82.3068C115.884 81.8068 115.977 81.2652 115.977 80.6818C115.977 80.0985 115.884 79.5549 115.698 79.0511C115.513 78.5473 115.227 78.1402 114.84 77.8295C114.454 77.5189 113.962 77.3636 113.363 77.3636C112.765 77.3636 112.272 77.5189 111.886 77.8295C111.499 78.1402 111.214 78.5473 111.028 79.0511C110.842 79.5549 110.749 80.0985 110.749 80.6818C110.749 81.2652 110.842 81.8068 111.028 82.3068C111.214 82.8068 111.499 83.2102 111.886 83.517C112.272 83.8239 112.765 83.9773 113.363 83.9773ZM122.94 76.2727V77.4091H118.236V76.2727H122.94ZM119.645 85V75.0682C119.645 74.5682 119.762 74.1515 119.997 73.8182C120.232 73.4848 120.537 73.2348 120.912 73.0682C121.287 72.9015 121.683 72.8182 122.1 72.8182C122.429 72.8182 122.698 72.8447 122.906 72.8977C123.115 72.9508 123.27 73 123.372 73.0455L122.986 74.2045C122.918 74.1818 122.823 74.1534 122.702 74.1193C122.584 74.0852 122.429 74.0682 122.236 74.0682C121.793 74.0682 121.473 74.1799 121.276 74.4034C121.082 74.6269 120.986 74.9545 120.986 75.3864V85H119.645ZM132.494 76.2727V77.4091H127.971V76.2727H132.494ZM129.29 74.1818H130.63V82.5C130.63 82.8788 130.685 83.1629 130.795 83.3523C130.909 83.5379 131.053 83.6629 131.227 83.7273C131.405 83.7879 131.593 83.8182 131.79 83.8182C131.937 83.8182 132.059 83.8106 132.153 83.7955C132.248 83.7765 132.324 83.7614 132.38 83.75L132.653 84.9545C132.562 84.9886 132.435 85.0227 132.273 85.0568C132.11 85.0947 131.903 85.1136 131.653 85.1136C131.274 85.1136 130.903 85.0322 130.54 84.8693C130.18 84.7064 129.88 84.4583 129.642 84.125C129.407 83.7917 129.29 83.3712 129.29 82.8636V74.1818ZM135.729 79.75V85H134.388V73.3636H135.729V77.6364H135.843C136.047 77.1856 136.354 76.8277 136.763 76.5625C137.176 76.2936 137.725 76.1591 138.411 76.1591C139.006 76.1591 139.526 76.2784 139.973 76.517C140.42 76.7519 140.767 77.1136 141.013 77.6023C141.263 78.0871 141.388 78.7045 141.388 79.4545V85H140.047V79.5455C140.047 78.8523 139.867 78.3163 139.507 77.9375C139.151 77.5549 138.657 77.3636 138.025 77.3636C137.585 77.3636 137.191 77.4564 136.843 77.642C136.498 77.8277 136.225 78.0985 136.025 78.4545C135.828 78.8106 135.729 79.2424 135.729 79.75ZM147.19 85.1818C146.349 85.1818 145.624 84.9962 145.014 84.625C144.408 84.25 143.94 83.7273 143.61 83.0568C143.285 82.3826 143.122 81.5985 143.122 80.7045C143.122 79.8106 143.285 79.0227 143.61 78.3409C143.94 77.6553 144.398 77.1212 144.985 76.7386C145.576 76.3523 146.266 76.1591 147.053 76.1591C147.508 76.1591 147.957 76.2348 148.4 76.3864C148.843 76.5379 149.247 76.7841 149.61 77.125C149.974 77.4621 150.264 77.9091 150.48 78.4659C150.696 79.0227 150.803 79.7083 150.803 80.5227V81.0909H144.076V79.9318H149.44C149.44 79.4394 149.341 79 149.144 78.6136C148.951 78.2273 148.675 77.9223 148.315 77.6989C147.959 77.4754 147.538 77.3636 147.053 77.3636C146.519 77.3636 146.057 77.4962 145.667 77.7614C145.281 78.0227 144.983 78.3636 144.775 78.7841C144.567 79.2045 144.463 79.6553 144.463 80.1364V80.9091C144.463 81.5682 144.576 82.1269 144.803 82.5852C145.035 83.0398 145.355 83.3864 145.764 83.625C146.173 83.8598 146.648 83.9773 147.19 83.9773C147.542 83.9773 147.86 83.928 148.144 83.8295C148.432 83.7273 148.68 83.5758 148.889 83.375C149.097 83.1705 149.258 82.9167 149.372 82.6136L150.667 82.9773C150.531 83.4167 150.302 83.803 149.98 84.1364C149.658 84.4659 149.26 84.7235 148.786 84.9091C148.313 85.0909 147.781 85.1818 147.19 85.1818ZM157.586 88.25C157.359 88.25 157.156 88.2311 156.978 88.1932C156.8 88.1591 156.677 88.125 156.609 88.0909L156.95 86.9091C157.438 87.0341 157.845 87.0303 158.171 86.8977C158.497 86.7689 158.779 86.3788 159.018 85.7273L159.268 85.0455L156.04 76.2727H157.495L159.904 83.2273H159.995L162.404 76.2727L163.87 76.2955L160.154 86.2727C159.987 86.7159 159.781 87.0833 159.535 87.375C159.289 87.6705 159.003 87.8902 158.677 88.0341C158.355 88.178 157.991 88.25 157.586 88.25ZM168.68 85.1818C167.839 85.1818 167.114 84.9962 166.504 84.625C165.898 84.25 165.43 83.7273 165.101 83.0568C164.775 82.3826 164.612 81.5985 164.612 80.7045C164.612 79.8106 164.775 79.0227 165.101 78.3409C165.43 77.6553 165.889 77.1212 166.476 76.7386C167.067 76.3523 167.756 76.1591 168.544 76.1591C168.998 76.1591 169.447 76.2348 169.89 76.3864C170.334 76.5379 170.737 76.7841 171.101 77.125C171.464 77.4621 171.754 77.9091 171.97 78.4659C172.186 79.0227 172.294 79.7083 172.294 80.5227V81.0909H165.567V79.9318H170.93C170.93 79.4394 170.832 79 170.635 78.6136C170.442 78.2273 170.165 77.9223 169.805 77.6989C169.449 77.4754 169.029 77.3636 168.544 77.3636C168.01 77.3636 167.548 77.4962 167.157 77.7614C166.771 78.0227 166.474 78.3636 166.265 78.7841C166.057 79.2045 165.953 79.6553 165.953 80.1364V80.9091C165.953 81.5682 166.067 82.1269 166.294 82.5852C166.525 83.0398 166.845 83.3864 167.254 83.625C167.663 83.8598 168.139 83.9773 168.68 83.9773C169.032 83.9773 169.351 83.928 169.635 83.8295C169.923 83.7273 170.171 83.5758 170.379 83.375C170.587 83.1705 170.748 82.9167 170.862 82.6136L172.157 82.9773C172.021 83.4167 171.792 83.803 171.47 84.1364C171.148 84.4659 170.75 84.7235 170.277 84.9091C169.803 85.0909 169.271 85.1818 168.68 85.1818ZM176.591 85.2045C176.038 85.2045 175.536 85.1004 175.086 84.892C174.635 84.6799 174.277 84.375 174.012 83.9773C173.747 83.5758 173.614 83.0909 173.614 82.5227C173.614 82.0227 173.713 81.6174 173.909 81.3068C174.106 80.9924 174.37 80.7462 174.699 80.5682C175.029 80.3902 175.392 80.2576 175.79 80.1705C176.192 80.0795 176.595 80.0076 177 79.9545C177.531 79.8864 177.961 79.8352 178.29 79.8011C178.624 79.7633 178.866 79.7008 179.017 79.6136C179.173 79.5265 179.25 79.375 179.25 79.1591V79.1136C179.25 78.553 179.097 78.1174 178.79 77.8068C178.487 77.4962 178.027 77.3409 177.409 77.3409C176.769 77.3409 176.267 77.4811 175.904 77.7614C175.54 78.0417 175.284 78.3409 175.137 78.6591L173.864 78.2045C174.091 77.6742 174.394 77.2614 174.773 76.9659C175.156 76.6667 175.572 76.4583 176.023 76.3409C176.478 76.2197 176.925 76.1591 177.364 76.1591C177.644 76.1591 177.966 76.1932 178.33 76.2614C178.697 76.3258 179.052 76.4602 179.392 76.6648C179.737 76.8693 180.023 77.178 180.25 77.5909C180.478 78.0038 180.591 78.5568 180.591 79.25V85H179.25V83.8182H179.182C179.091 84.0076 178.94 84.2102 178.728 84.4261C178.516 84.642 178.233 84.8258 177.881 84.9773C177.529 85.1288 177.099 85.2045 176.591 85.2045ZM176.796 84C177.326 84 177.773 83.8958 178.137 83.6875C178.504 83.4792 178.781 83.2102 178.966 82.8807C179.156 82.5511 179.25 82.2045 179.25 81.8409V80.6136C179.194 80.6818 179.069 80.7443 178.875 80.8011C178.686 80.8542 178.466 80.9015 178.216 80.9432C177.97 80.9811 177.73 81.0152 177.495 81.0455C177.264 81.072 177.076 81.0947 176.932 81.1136C176.584 81.1591 176.258 81.233 175.955 81.3352C175.656 81.4337 175.413 81.5833 175.228 81.7841C175.046 81.9811 174.955 82.25 174.955 82.5909C174.955 83.0568 175.127 83.4091 175.472 83.6477C175.82 83.8826 176.262 84 176.796 84ZM182.728 85V76.2727H184.024V77.5909H184.115C184.274 77.1591 184.562 76.8087 184.978 76.5398C185.395 76.2708 185.865 76.1364 186.387 76.1364C186.486 76.1364 186.609 76.1383 186.757 76.142C186.904 76.1458 187.016 76.1515 187.092 76.1591V77.5227C187.046 77.5114 186.942 77.4943 186.779 77.4716C186.62 77.4451 186.452 77.4318 186.274 77.4318C185.849 77.4318 185.471 77.5208 185.137 77.6989C184.808 77.8731 184.546 78.1155 184.353 78.4261C184.164 78.733 184.069 79.0833 184.069 79.4773V85H182.728ZM188.348 85.0909C188.068 85.0909 187.827 84.9905 187.627 84.7898C187.426 84.589 187.325 84.3485 187.325 84.0682C187.325 83.7879 187.426 83.5473 187.627 83.3466C187.827 83.1458 188.068 83.0455 188.348 83.0455C188.628 83.0455 188.869 83.1458 189.07 83.3466C189.27 83.5473 189.371 83.7879 189.371 84.0682C189.371 84.2538 189.324 84.4242 189.229 84.5795C189.138 84.7348 189.015 84.8598 188.859 84.9545C188.708 85.0455 188.538 85.0909 188.348 85.0909Z" fill="black"/>
<defs>
<filter id="filter0_d" x="0" y="0" width="265" height="100" filterUnits="userSpaceOnUse" color-interpolation-filters="sRGB">
<feFlood flood-opacity="0" result="BackgroundImageFix"/>
<feColorMatrix in="SourceAlpha" type="matrix" values="0 0 0 0 0 0 0 0 0 0 0 0 0 0 0 0 0 0 127 0"/>
<feOffset dy="1"/>
<feGaussianBlur stdDeviation="0.5"/>
<feColorMatrix type="matrix" values="0 0 0 0 0.14902 0 0 0 0 0.207843 0 0 0 0 0.25098 0 0 0 0.3 0"/>
<feBlend mode="multiply" in2="BackgroundImageFix" result="effect1_dropShadow"/>
<feBlend mode="normal" in="SourceGraphic" in2="effect1_dropShadow" result="shape"/>
</filter>
</defs>
</svg>
