<svg width="48" height="49" viewBox="0 0 48 49" fill="none" xmlns="http://www.w3.org/2000/svg">
<path fill-rule="evenodd" clip-rule="evenodd" d="M24.0004 3.3219C11.8325 3.3219 2.40039 12.2349 2.40039 24.2739C2.40039 30.5711 4.98116 36.0125 9.184 39.771C9.53681 40.0868 9.74979 40.5292 9.76426 41.0027L9.8819 44.8449C9.91948 46.0705 11.1854 46.8679 12.3069 46.3729L16.5942 44.4803C16.9576 44.32 17.3649 44.2902 17.7478 44.3956C19.718 44.9373 21.8148 45.2259 24.0004 45.2259C36.1683 45.2259 45.6004 36.3129 45.6004 24.2739C45.6004 12.2349 36.1683 3.3219 24.0004 3.3219Z" fill="url(#paint0_radial)"/>
<path fill-rule="evenodd" clip-rule="evenodd" d="M11.0291 30.4012L17.3741 20.3348C18.3833 18.7333 20.5446 18.3346 22.059 19.4703L27.1055 23.2552C27.5685 23.6025 28.2056 23.6007 28.6667 23.2508L35.4822 18.0782C36.3919 17.3879 37.5793 18.4765 36.9706 19.4426L30.6256 29.5092C29.6162 31.1105 27.4549 31.5093 25.9406 30.3735L20.894 26.5885C20.431 26.2413 19.7939 26.2431 19.3329 26.5931L12.5173 31.7656C11.6076 32.4559 10.4202 31.3673 11.0291 30.4012Z" fill="white"/>
<defs>
<radialGradient id="paint0_radial" cx="0" cy="0" r="1" gradientUnits="userSpaceOnUse" gradientTransform="translate(10.7153 46.2908) scale(47.0705)">
<stop stop-color="#0099FF"/>
<stop offset="0.609754" stop-color="#A033FF"/>
<stop offset="0.934823" stop-color="#FF5280"/>
<stop offset="1" stop-color="#FF7061"/>
</radialGradient>
</defs>
</svg>
