<svg width="110" height="50" viewBox="0 0 110 50" fill="none" xmlns="http://www.w3.org/2000/svg">
<path d="M80.5103 16.9262C81.8619 17.6767 82.7322 15.5251 83.0099 14.3909C83.2876 13.2568 83.4172 10.9884 81.6583 11.4387C79.9919 11.8724 78.4551 12.7564 78.7329 14.441C79.0106 16.1256 79.3809 16.9429 80.5103 16.9262Z" fill="#30DFC4"/>
<path d="M40.6817 38.1085C42.9775 35.74 50.1983 27.6506 54.4198 25.5657C56.2342 24.6817 57.808 24.5483 59.4558 25.2488C60.6223 25.7492 61.3444 26.7499 61.2703 28.1844C61.1962 29.7689 60.7889 33.7886 60.7889 34.8727C60.7889 35.4064 60.8815 35.8568 61.1962 35.8568C61.4554 35.8568 62.2331 35.2063 62.7145 34.7893C67.0099 31.1866 70.9536 26.6499 74.8232 22.0798C75.8971 20.8122 76.9339 20.3785 78.0634 20.5453C79.5445 20.7621 80.9332 22.0131 80.3962 23.4475C78.4707 28.7681 79.3224 30.4527 80.4333 30.4527C82.4514 30.4694 86.8765 28.3011 91.82 24.0646C95.8562 20.5453 99.3741 16.559 102.244 12.2057C102.688 11.5385 103.114 10.7713 103.855 10.8046C104.466 10.838 104.78 11.3551 104.521 12.7227C103.744 17.026 100.022 22.2632 95.4859 26.5164C90.7461 30.9364 85.1176 34.2723 81.0257 34.2723C76.4711 34.2723 75.4713 30.2192 74.3419 30.2192C74.0456 30.2192 73.6383 30.5194 72.9532 31.27C71.3054 33.0547 65.1029 40.3101 61.0481 40.3268C57.4192 40.3435 54.9197 38.0251 54.9752 34.7393C54.9937 33.5884 55.2714 32.0206 55.3085 30.853C55.327 30.5862 55.2714 30.436 55.1789 30.4027C55.0863 30.3693 54.9197 30.436 54.6975 30.5862C51.3092 33.0547 40.9594 43.8962 38.9042 46.2813C38.2747 47.0152 37.0527 47.6656 35.7382 47.282C34.5532 46.9484 34.1644 45.881 34.0903 44.8135C33.9237 42.5952 34.5347 39.7264 34.6643 39.0425C34.868 37.9917 35.0901 37.091 34.9605 37.091C34.8309 37.091 34.2755 37.4413 33.9052 37.6581C31.4797 39.0925 23.111 44.4966 14.0571 44.3131C10.132 44.2965 7.31771 43.4125 5.48472 41.9947C4.96631 41.5944 4.87373 41.1941 5.04037 40.9106C5.207 40.627 5.61433 40.4769 6.11423 40.6103C7.65097 40.994 11.0392 41.7946 17.1306 40.4436C25.4994 38.5922 34.4606 32.3541 36.4788 31.0365C36.7935 30.8197 37.0157 30.5194 37.1268 30.1859C38.2562 26.7166 40.4595 19.1442 44.829 12.189C49.5318 4.71673 55.1789 -0.553891 59.9557 0.0465601C63.7883 0.513577 64.1216 4.183 63.6958 6.00103C62.7145 10.1375 59.3633 14.8577 55.5121 19.1943C50.0317 25.3656 43.533 30.7696 41.2741 32.6544C41.1816 32.7378 41.089 32.8212 41.0334 32.9212C40.9964 33.0213 40.9224 33.3382 40.8853 33.5217C40.5521 35.1062 40.2743 36.2738 39.9225 37.9083C39.8855 38.0918 39.7929 38.4921 39.9966 38.5588C40.2003 38.6255 40.515 38.2919 40.6817 38.1085ZM43.4404 25.2321C43.533 25.2488 43.8292 24.9319 44.7364 24.1313C47.31 21.8796 54.7345 13.9403 57.6969 7.70231C58.1783 6.68488 59.6225 3.88277 58.5486 3.79938C57.8635 3.74934 56.2898 4.43319 53.9384 6.73492C49.8651 10.7212 45.6252 19.5279 43.9773 23.7143C43.7366 24.3648 43.3663 25.1988 43.4404 25.2321Z" fill="white"/>
</svg>
