<svg width="76" height="41" viewBox="0 0 76 41" fill="none" xmlns="http://www.w3.org/2000/svg">
<path d="M57.4333 14.7849C58.4609 15.4184 59.1225 13.6025 59.3337 12.6453C59.5449 11.6881 59.6434 9.77368 58.3061 10.1537C57.0392 10.5197 55.8708 11.2658 56.082 12.6875C56.2931 14.1092 56.5747 14.799 57.4333 14.7849Z" fill="#30DFC4"/>
<path d="M27.1547 32.6619C28.9002 30.6631 34.39 23.8359 37.5994 22.0764C38.9789 21.3303 40.1754 21.2177 41.4282 21.8089C42.3151 22.2312 42.864 23.0758 42.8077 24.2864C42.7514 25.6237 42.4417 29.0161 42.4417 29.9311C42.4417 30.3815 42.5121 30.7616 42.7514 30.7616C42.9485 30.7616 43.5397 30.2126 43.9057 29.8607C47.1714 26.8202 50.1697 22.9914 53.1117 19.1344C53.9282 18.0646 54.7164 17.6986 55.5751 17.8393C56.7012 18.0223 57.757 19.0781 57.3487 20.2887C55.8848 24.7791 56.5323 26.2008 57.3769 26.2008C58.9112 26.2149 62.2755 24.3849 66.0339 20.8095C69.1026 17.8393 71.7772 14.4751 73.959 10.8011C74.2968 10.238 74.6206 9.5905 75.1837 9.61865C75.6482 9.6468 75.8875 10.0832 75.6904 11.2375C75.0992 14.8692 72.2698 19.2892 68.8211 22.8787C65.2175 26.609 60.9383 29.4243 57.8273 29.4243C54.3645 29.4243 53.6044 26.0037 52.7457 26.0037C52.5205 26.0037 52.2108 26.2571 51.69 26.8905C50.4372 28.3967 45.7216 34.52 42.6388 34.5341C39.8798 34.5482 37.9795 32.5915 38.0217 29.8185C38.0358 28.8472 38.2469 27.524 38.2751 26.5386C38.2892 26.3134 38.2469 26.1867 38.1766 26.1586C38.1062 26.1304 37.9795 26.1867 37.8106 26.3134C35.2346 28.3967 27.3658 37.5465 25.8033 39.5594C25.3247 40.1788 24.3957 40.7278 23.3962 40.404C22.4953 40.1225 22.1997 39.2216 22.1434 38.3207C22.0167 36.4485 22.4813 34.0273 22.5798 33.4502C22.7346 32.5634 22.9036 31.8033 22.805 31.8033C22.7065 31.8033 22.2842 32.0989 22.0027 32.2819C20.1587 33.4924 13.7961 38.0532 6.91267 37.8984C3.92845 37.8843 1.78883 37.1383 0.395254 35.9417C0.00111181 35.6039 -0.0692707 35.2661 0.0574178 35.0268C0.184106 34.7875 0.493789 34.6608 0.873854 34.7734C2.0422 35.0972 4.6182 35.7728 9.24937 34.6326C15.6119 33.0701 22.425 27.8055 23.9593 26.6935C24.1986 26.5105 24.3675 26.2571 24.452 25.9756C25.3106 23.0477 26.9858 16.6569 30.3078 10.787C33.8832 4.48072 38.1766 0.0325399 41.8083 0.539295C44.7221 0.933437 44.9755 4.03027 44.6518 5.56461C43.9057 9.05559 41.3578 13.0392 38.4299 16.6991C34.2633 21.9075 29.3225 26.4683 27.6051 28.0589C27.5347 28.1293 27.4644 28.1997 27.4221 28.2841C27.394 28.3686 27.3377 28.636 27.3095 28.7909C27.0561 30.1281 26.845 31.1135 26.5775 32.493C26.5494 32.6478 26.479 32.9857 26.6338 33.042C26.7887 33.0983 27.028 32.8168 27.1547 32.6619ZM29.2521 21.7948C29.3224 21.8089 29.5477 21.5415 30.2374 20.8658C32.1941 18.9655 37.8387 12.265 40.091 7.00042C40.457 6.14175 41.5549 3.7769 40.7385 3.70651C40.2177 3.66428 39.0212 4.24142 37.2334 6.18398C34.1366 9.54827 30.9131 16.9807 29.6603 20.5139C29.4773 21.0629 29.1958 21.7667 29.2521 21.7948Z" fill="#002855"/>
</svg>
