<svg width="679" height="362" viewBox="0 0 679 362" fill="none" xmlns="http://www.w3.org/2000/svg">
<rect width="679" height="362" fill="#FFFCF2"/>
<mask id="mask0" mask-type="alpha" maskUnits="userSpaceOnUse" x="26" y="0" width="116" height="316">
<rect x="26" width="116" height="316" fill="white"/>
</mask>
<g mask="url(#mask0)">
<path d="M26 295C167 269 467 191.662 655 10" stroke="url(#paint0_linear)" stroke-width="3" stroke-linecap="round"/>
</g>
<path d="M8.22514 54.8182H6.72869L4.18821 56.4787V57.9503L6.62429 56.3594H6.68395V65H8.22514V54.8182Z" fill="#9E9E9E"/>
<path d="M5.48704 357.169C7.8386 357.169 9.21573 355.25 9.21573 351.914C9.21573 348.603 7.81871 346.679 5.48704 346.679C3.15039 346.679 1.75835 348.598 1.75337 351.914C1.75337 355.245 3.1305 357.164 5.48704 357.169ZM5.48704 355.842C4.10991 355.842 3.27965 354.46 3.27965 351.914C3.28462 349.379 4.11488 347.982 5.48704 347.982C6.85423 347.982 7.68945 349.379 7.68945 351.914C7.68945 354.46 6.8592 355.842 5.48704 355.842Z" fill="#9E9E9E"/>
<line x1="110.5" y1="326" x2="110.5" y2="334" stroke="#9E9E9E"/>
<line x1="18" y1="59.5" x2="26" y2="59.5" stroke="#9E9E9E"/>
<path d="M106.885 346.818H105.389L102.848 348.479V349.95L105.284 348.359H105.344V357H106.885V346.818ZM109.779 357H111.315V353.833L112.518 352.451L115.809 357H117.659L113.537 351.402L117.644 346.818H115.71L111.439 351.68H111.315V346.818H109.779V357Z" fill="#9E9E9E"/>
<line x1="194.5" y1="326" x2="194.5" y2="334" stroke="#9E9E9E"/>
<path d="M185.867 346.818H184.37L181.83 348.479V349.95L184.266 348.359H184.326V357H185.867V346.818ZM192.166 357.169C194.517 357.169 195.894 355.25 195.894 351.914C195.894 348.603 194.497 346.679 192.166 346.679C189.829 346.679 188.437 348.598 188.432 351.914C188.432 355.245 189.809 357.164 192.166 357.169ZM192.166 355.842C190.789 355.842 189.958 354.46 189.958 351.914C189.963 349.379 190.794 347.982 192.166 347.982C193.533 347.982 194.368 349.379 194.368 351.914C194.368 354.46 193.538 355.842 192.166 355.842ZM197.797 357H199.334V353.833L200.537 352.451L203.828 357H205.677L201.556 351.402L205.662 346.818H203.728L199.458 351.68H199.334V346.818H197.797V357Z" fill="#9E9E9E"/>
<line x1="278.5" y1="326" x2="278.5" y2="334" stroke="#9E9E9E"/>
<path d="M265.848 346.818H264.352L261.811 348.479V349.95L264.247 348.359H264.307V357H265.848V346.818ZM272.147 357.169C274.499 357.169 275.876 355.25 275.876 351.914C275.876 348.603 274.479 346.679 272.147 346.679C269.811 346.679 268.419 348.598 268.414 351.914C268.414 355.245 269.791 357.164 272.147 357.169ZM272.147 355.842C270.77 355.842 269.94 354.46 269.94 351.914C269.945 349.379 270.775 347.982 272.147 347.982C273.514 347.982 274.35 349.379 274.35 351.914C274.35 354.46 273.519 355.842 272.147 355.842ZM281.184 357.169C283.536 357.169 284.913 355.25 284.913 351.914C284.913 348.603 283.516 346.679 281.184 346.679C278.848 346.679 277.456 348.598 277.451 351.914C277.451 355.245 278.828 357.164 281.184 357.169ZM281.184 355.842C279.807 355.842 278.977 354.46 278.977 351.914C278.982 349.379 279.812 347.982 281.184 347.982C282.551 347.982 283.387 349.379 283.387 351.914C283.387 354.46 282.556 355.842 281.184 355.842ZM286.816 357H288.352V353.833L289.555 352.451L292.846 357H294.696L290.574 351.402L294.681 346.818H292.747L288.476 351.68H288.352V346.818H286.816V357Z" fill="#9E9E9E"/>
<line x1="362.5" y1="326" x2="362.5" y2="334" stroke="#9E9E9E"/>
<path d="M357.252 346.818H355.755L353.215 348.479V349.95L355.651 348.359H355.71V357H357.252V346.818ZM360.145 346.818V357H361.607V349.627H361.701L364.704 356.985H365.917L368.92 349.632H369.014V357H370.476V346.818H368.612L365.37 354.733H365.251L362.009 346.818H360.145Z" fill="#9E9E9E"/>
<line x1="446.5" y1="326" x2="446.5" y2="334" stroke="#9E9E9E"/>
<path d="M436.233 346.818H434.737L432.196 348.479V349.95L434.632 348.359H434.692V357H436.233V346.818ZM442.532 357.169C444.884 357.169 446.261 355.25 446.261 351.914C446.261 348.603 444.864 346.679 442.532 346.679C440.195 346.679 438.803 348.598 438.798 351.914C438.798 355.245 440.175 357.164 442.532 357.169ZM442.532 355.842C441.155 355.842 440.325 354.46 440.325 351.914C440.33 349.379 441.16 347.982 442.532 347.982C443.899 347.982 444.734 349.379 444.734 351.914C444.734 354.46 443.904 355.842 442.532 355.842ZM448.164 346.818V357H449.625V349.627H449.72L452.722 356.985H453.936L456.938 349.632H457.033V357H458.494V346.818H456.63L453.389 354.733H453.269L450.028 346.818H448.164Z" fill="#9E9E9E"/>
<line x1="530.5" y1="326" x2="530.5" y2="334" stroke="#9E9E9E"/>
<path d="M516.214 346.818H514.718L512.177 348.479V349.95L514.614 348.359H514.673V357H516.214V346.818ZM522.513 357.169C524.865 357.169 526.242 355.25 526.242 351.914C526.242 348.603 524.845 346.679 522.513 346.679C520.177 346.679 518.785 348.598 518.78 351.914C518.78 355.245 520.157 357.164 522.513 357.169ZM522.513 355.842C521.136 355.842 520.306 354.46 520.306 351.914C520.311 349.379 521.141 347.982 522.513 347.982C523.881 347.982 524.716 349.379 524.716 351.914C524.716 354.46 523.886 355.842 522.513 355.842ZM531.551 357.169C533.902 357.169 535.279 355.25 535.279 351.914C535.279 348.603 533.882 346.679 531.551 346.679C529.214 346.679 527.822 348.598 527.817 351.914C527.817 355.245 529.194 357.164 531.551 357.169ZM531.551 355.842C530.173 355.842 529.343 354.46 529.343 351.914C529.348 349.379 530.178 347.982 531.551 347.982C532.918 347.982 533.753 349.379 533.753 351.914C533.753 354.46 532.923 355.842 531.551 355.842ZM537.182 346.818V357H538.644V349.627H538.738L541.741 356.985H542.954L545.957 349.632H546.051V357H547.513V346.818H545.649L542.407 354.733H542.288L539.046 346.818H537.182Z" fill="#9E9E9E"/>
<line x1="614.5" y1="326" x2="614.5" y2="334" stroke="#9E9E9E"/>
<path d="M610.954 346.818H609.457L606.917 348.479V349.95L609.353 348.359H609.412V357H610.954V346.818ZM613.847 357H617.75C620.116 357 621.185 355.822 621.185 354.261C621.185 352.685 620.081 351.795 619.072 351.74V351.641C620.007 351.402 620.787 350.766 620.787 349.493C620.787 347.987 619.743 346.818 617.576 346.818H613.847V357ZM615.383 355.683V352.421H617.655C618.888 352.421 619.659 353.217 619.659 354.186C619.659 355.041 619.077 355.683 617.601 355.683H615.383ZM615.383 351.223V348.126H617.481C618.699 348.126 619.281 348.767 619.281 349.612C619.281 350.597 618.476 351.223 617.442 351.223H615.383Z" fill="#9E9E9E"/>
<path d="M26 326L25.5 326L25.5 326.5L26 326.5L26 326ZM679 326L674 323.113L674 328.887L679 326ZM26 0L23.1132 5L28.8868 5L26 0ZM26 326.5L674.5 326.5L674.5 325.5L26 325.5L26 326.5ZM26.5 326L26.5 4.5L25.5 4.5L25.5 326L26.5 326Z" fill="#9E9E9E"/>
<g filter="url(#filter0_d)">
<circle cx="138" cy="270" r="11" fill="white"/>
</g>
<circle cx="138" cy="270" r="4" fill="#3CDECA"/>
<path d="M131.817 252.224C134.378 252.224 135.924 250.275 135.929 246.919C135.934 243.588 134.368 241.679 131.817 241.679C129.262 241.679 127.711 243.583 127.706 246.919C127.696 250.265 129.252 252.219 131.817 252.224ZM131.817 250.439C130.649 250.439 129.893 249.266 129.898 246.919C129.903 244.607 130.654 243.444 131.817 243.444C132.976 243.444 133.732 244.607 133.732 246.919C133.737 249.266 132.981 250.439 131.817 250.439ZM138.298 252.129C138.934 252.129 139.486 251.597 139.491 250.936C139.486 250.285 138.934 249.753 138.298 249.753C137.642 249.753 137.1 250.285 137.105 250.936C137.1 251.597 137.642 252.129 138.298 252.129ZM144.778 252.224C147.339 252.224 148.885 250.275 148.89 246.919C148.895 243.588 147.329 241.679 144.778 241.679C142.223 241.679 140.672 243.583 140.667 246.919C140.657 250.265 142.213 252.219 144.778 252.224ZM144.778 250.439C143.61 250.439 142.854 249.266 142.859 246.919C142.864 244.607 143.615 243.444 144.778 243.444C145.937 243.444 146.692 244.607 146.692 246.919C146.697 249.266 145.942 250.439 144.778 250.439ZM154.188 252.139C156.475 252.139 158.111 250.881 158.106 249.141C158.111 247.874 157.306 246.969 155.809 246.78V246.7C156.948 246.496 157.733 245.691 157.728 244.548C157.733 242.942 156.326 241.679 154.218 241.679C152.13 241.679 150.559 242.902 150.529 244.662H152.593C152.617 243.886 153.328 243.384 154.208 243.384C155.078 243.384 155.66 243.911 155.655 244.677C155.66 245.477 154.979 246.019 153.999 246.019H153.05V247.6H153.999C155.153 247.6 155.874 248.177 155.869 248.997C155.874 249.808 155.178 250.364 154.193 250.364C153.244 250.364 152.533 249.867 152.493 249.121H150.325C150.36 250.901 151.951 252.139 154.188 252.139ZM163.372 252.139C165.639 252.139 167.18 250.663 167.175 248.604C167.18 246.656 165.818 245.254 163.984 245.254C163.089 245.254 162.318 245.626 161.96 246.129H161.901L162.164 243.578H166.614V241.818H160.389L159.907 247.188L161.821 247.531C162.134 247.108 162.741 246.844 163.342 246.844C164.366 246.849 165.102 247.59 165.102 248.659C165.102 249.718 164.381 250.449 163.372 250.449C162.517 250.449 161.826 249.912 161.776 249.121H159.688C159.728 250.881 161.264 252.139 163.372 252.139ZM178.266 241.818V248.246C178.266 249.41 177.45 250.25 176.198 250.25C174.95 250.25 174.129 249.41 174.129 248.246V241.818H171.977V248.43C171.977 250.658 173.657 252.144 176.198 252.144C178.728 252.144 180.419 250.658 180.419 248.43V241.818H178.266ZM187.713 244.746H189.776C189.746 242.932 188.255 241.679 185.988 241.679C183.756 241.679 182.12 242.912 182.13 244.761C182.125 246.263 183.184 247.123 184.904 247.536L186.013 247.814C187.121 248.082 187.738 248.401 187.743 249.087C187.738 249.832 187.032 250.339 185.938 250.339C184.82 250.339 184.014 249.822 183.945 248.803H181.862C181.916 251.006 183.492 252.144 185.963 252.144C188.449 252.144 189.911 250.956 189.915 249.092C189.911 247.396 188.633 246.496 186.863 246.099L185.948 245.88C185.063 245.676 184.322 245.348 184.337 244.617C184.337 243.961 184.919 243.479 185.973 243.479C187.002 243.479 187.634 243.946 187.713 244.746ZM194.973 252C198.075 252 199.954 250.081 199.954 246.899C199.954 243.727 198.075 241.818 195.003 241.818H191.363V252H194.973ZM193.516 250.156V243.663H194.888C196.797 243.663 197.807 244.637 197.807 246.899C197.807 249.171 196.797 250.156 194.883 250.156H193.516Z" fill="#3CDECA"/>
<defs>
<filter id="filter0_d" x="99" y="231" width="82" height="82" filterUnits="userSpaceOnUse" color-interpolation-filters="sRGB">
<feFlood flood-opacity="0" result="BackgroundImageFix"/>
<feColorMatrix in="SourceAlpha" type="matrix" values="0 0 0 0 0 0 0 0 0 0 0 0 0 0 0 0 0 0 127 0"/>
<feOffset dx="2" dy="2"/>
<feGaussianBlur stdDeviation="15"/>
<feColorMatrix type="matrix" values="0 0 0 0 0.7875 0 0 0 0 0.76857 0 0 0 0 0.705469 0 0 0 0.5 0"/>
<feBlend mode="normal" in2="BackgroundImageFix" result="effect1_dropShadow"/>
<feBlend mode="normal" in="SourceGraphic" in2="effect1_dropShadow" result="shape"/>
</filter>
<linearGradient id="paint0_linear" x1="40" y1="216.41" x2="608.654" y2="216.41" gradientUnits="userSpaceOnUse">
<stop stop-color="#30DFC4"/>
<stop offset="1" stop-color="#00E8FF"/>
</linearGradient>
</defs>
</svg>
