<svg width="679" height="362" viewBox="0 0 679 362" fill="none" xmlns="http://www.w3.org/2000/svg">
<rect width="679" height="362" fill="#FFFCF2"/>
<mask id="mask0" mask-type="alpha" maskUnits="userSpaceOnUse" x="26" y="0" width="360" height="316">
<rect x="26" width="360" height="316" fill="white"/>
</mask>
<g mask="url(#mask0)">
<path d="M26 295C167 269 467 191.662 655 10" stroke="url(#paint0_linear)" stroke-width="3" stroke-linecap="round"/>
</g>
<path d="M8.22514 54.8182H6.72869L4.18821 56.4787V57.9503L6.62429 56.3594H6.68395V65H8.22514V54.8182Z" fill="#9E9E9E"/>
<path d="M5.48704 357.169C7.8386 357.169 9.21573 355.25 9.21573 351.914C9.21573 348.603 7.81871 346.679 5.48704 346.679C3.15039 346.679 1.75835 348.598 1.75337 351.914C1.75337 355.245 3.1305 357.164 5.48704 357.169ZM5.48704 355.842C4.10991 355.842 3.27965 354.46 3.27965 351.914C3.28462 349.379 4.11488 347.982 5.48704 347.982C6.85423 347.982 7.68945 349.379 7.68945 351.914C7.68945 354.46 6.8592 355.842 5.48704 355.842Z" fill="#9E9E9E"/>
<line x1="110.5" y1="326" x2="110.5" y2="334" stroke="#9E9E9E"/>
<line x1="18" y1="59.5" x2="26" y2="59.5" stroke="#9E9E9E"/>
<path d="M106.885 346.818H105.389L102.848 348.479V349.95L105.284 348.359H105.344V357H106.885V346.818ZM109.779 357H111.315V353.833L112.518 352.451L115.809 357H117.659L113.537 351.402L117.644 346.818H115.71L111.439 351.68H111.315V346.818H109.779V357Z" fill="#9E9E9E"/>
<line x1="194.5" y1="326" x2="194.5" y2="334" stroke="#9E9E9E"/>
<path d="M185.867 346.818H184.37L181.83 348.479V349.95L184.266 348.359H184.326V357H185.867V346.818ZM192.166 357.169C194.517 357.169 195.894 355.25 195.894 351.914C195.894 348.603 194.497 346.679 192.166 346.679C189.829 346.679 188.437 348.598 188.432 351.914C188.432 355.245 189.809 357.164 192.166 357.169ZM192.166 355.842C190.789 355.842 189.958 354.46 189.958 351.914C189.963 349.379 190.794 347.982 192.166 347.982C193.533 347.982 194.368 349.379 194.368 351.914C194.368 354.46 193.538 355.842 192.166 355.842ZM197.797 357H199.334V353.833L200.537 352.451L203.828 357H205.677L201.556 351.402L205.662 346.818H203.728L199.458 351.68H199.334V346.818H197.797V357Z" fill="#9E9E9E"/>
<line x1="278.5" y1="326" x2="278.5" y2="334" stroke="#9E9E9E"/>
<path d="M265.848 346.818H264.352L261.811 348.479V349.95L264.247 348.359H264.307V357H265.848V346.818ZM272.147 357.169C274.499 357.169 275.876 355.25 275.876 351.914C275.876 348.603 274.479 346.679 272.147 346.679C269.811 346.679 268.419 348.598 268.414 351.914C268.414 355.245 269.791 357.164 272.147 357.169ZM272.147 355.842C270.77 355.842 269.94 354.46 269.94 351.914C269.945 349.379 270.775 347.982 272.147 347.982C273.514 347.982 274.35 349.379 274.35 351.914C274.35 354.46 273.519 355.842 272.147 355.842ZM281.184 357.169C283.536 357.169 284.913 355.25 284.913 351.914C284.913 348.603 283.516 346.679 281.184 346.679C278.848 346.679 277.456 348.598 277.451 351.914C277.451 355.245 278.828 357.164 281.184 357.169ZM281.184 355.842C279.807 355.842 278.977 354.46 278.977 351.914C278.982 349.379 279.812 347.982 281.184 347.982C282.551 347.982 283.387 349.379 283.387 351.914C283.387 354.46 282.556 355.842 281.184 355.842ZM286.816 357H288.352V353.833L289.555 352.451L292.846 357H294.696L290.574 351.402L294.681 346.818H292.747L288.476 351.68H288.352V346.818H286.816V357Z" fill="#9E9E9E"/>
<line x1="362.5" y1="326" x2="362.5" y2="334" stroke="#9E9E9E"/>
<path d="M357.252 346.818H355.755L353.215 348.479V349.95L355.651 348.359H355.71V357H357.252V346.818ZM360.145 346.818V357H361.607V349.627H361.701L364.704 356.985H365.917L368.92 349.632H369.014V357H370.476V346.818H368.612L365.37 354.733H365.251L362.009 346.818H360.145Z" fill="#9E9E9E"/>
<line x1="446.5" y1="326" x2="446.5" y2="334" stroke="#9E9E9E"/>
<path d="M436.233 346.818H434.737L432.196 348.479V349.95L434.632 348.359H434.692V357H436.233V346.818ZM442.532 357.169C444.884 357.169 446.261 355.25 446.261 351.914C446.261 348.603 444.864 346.679 442.532 346.679C440.195 346.679 438.803 348.598 438.798 351.914C438.798 355.245 440.175 357.164 442.532 357.169ZM442.532 355.842C441.155 355.842 440.325 354.46 440.325 351.914C440.33 349.379 441.16 347.982 442.532 347.982C443.899 347.982 444.734 349.379 444.734 351.914C444.734 354.46 443.904 355.842 442.532 355.842ZM448.164 346.818V357H449.625V349.627H449.72L452.722 356.985H453.936L456.938 349.632H457.033V357H458.494V346.818H456.63L453.389 354.733H453.269L450.028 346.818H448.164Z" fill="#9E9E9E"/>
<line x1="530.5" y1="326" x2="530.5" y2="334" stroke="#9E9E9E"/>
<path d="M516.214 346.818H514.718L512.177 348.479V349.95L514.614 348.359H514.673V357H516.214V346.818ZM522.513 357.169C524.865 357.169 526.242 355.25 526.242 351.914C526.242 348.603 524.845 346.679 522.513 346.679C520.177 346.679 518.785 348.598 518.78 351.914C518.78 355.245 520.157 357.164 522.513 357.169ZM522.513 355.842C521.136 355.842 520.306 354.46 520.306 351.914C520.311 349.379 521.141 347.982 522.513 347.982C523.881 347.982 524.716 349.379 524.716 351.914C524.716 354.46 523.886 355.842 522.513 355.842ZM531.551 357.169C533.902 357.169 535.279 355.25 535.279 351.914C535.279 348.603 533.882 346.679 531.551 346.679C529.214 346.679 527.822 348.598 527.817 351.914C527.817 355.245 529.194 357.164 531.551 357.169ZM531.551 355.842C530.173 355.842 529.343 354.46 529.343 351.914C529.348 349.379 530.178 347.982 531.551 347.982C532.918 347.982 533.753 349.379 533.753 351.914C533.753 354.46 532.923 355.842 531.551 355.842ZM537.182 346.818V357H538.644V349.627H538.738L541.741 356.985H542.954L545.957 349.632H546.051V357H547.513V346.818H545.649L542.407 354.733H542.288L539.046 346.818H537.182Z" fill="#9E9E9E"/>
<line x1="614.5" y1="326" x2="614.5" y2="334" stroke="#9E9E9E"/>
<path d="M610.954 346.818H609.457L606.917 348.479V349.95L609.353 348.359H609.412V357H610.954V346.818ZM613.847 357H617.75C620.116 357 621.185 355.822 621.185 354.261C621.185 352.685 620.081 351.795 619.072 351.74V351.641C620.007 351.402 620.787 350.766 620.787 349.493C620.787 347.987 619.743 346.818 617.576 346.818H613.847V357ZM615.383 355.683V352.421H617.655C618.888 352.421 619.659 353.217 619.659 354.186C619.659 355.041 619.077 355.683 617.601 355.683H615.383ZM615.383 351.223V348.126H617.481C618.699 348.126 619.281 348.767 619.281 349.612C619.281 350.597 618.476 351.223 617.442 351.223H615.383Z" fill="#9E9E9E"/>
<path d="M26 326L25.5 326L25.5 326.5L26 326.5L26 326ZM679 326L674 323.113L674 328.887L679 326ZM26 0L23.1132 5L28.8868 5L26 0ZM26 326.5L674.5 326.5L674.5 325.5L26 325.5L26 326.5ZM26.5 326L26.5 4.5L25.5 4.5L25.5 326L26.5 326Z" fill="#9E9E9E"/>
<g filter="url(#filter0_d)">
<circle cx="390" cy="183" r="11" fill="white"/>
</g>
<circle cx="390" cy="183" r="4" fill="#21E2E4"/>
<path d="M383.817 165.224C386.378 165.224 387.924 163.275 387.929 159.919C387.934 156.588 386.368 154.679 383.817 154.679C381.262 154.679 379.711 156.583 379.706 159.919C379.696 163.265 381.252 165.219 383.817 165.224ZM383.817 163.439C382.649 163.439 381.893 162.266 381.898 159.919C381.903 157.607 382.654 156.444 383.817 156.444C384.976 156.444 385.732 157.607 385.732 159.919C385.737 162.266 384.981 163.439 383.817 163.439ZM390.298 165.129C390.934 165.129 391.486 164.597 391.491 163.936C391.486 163.285 390.934 162.753 390.298 162.753C389.642 162.753 389.1 163.285 389.105 163.936C389.1 164.597 389.642 165.129 390.298 165.129ZM396.659 165.139C398.946 165.139 400.582 163.881 400.577 162.141C400.582 160.874 399.776 159.969 398.28 159.78V159.7C399.418 159.496 400.204 158.691 400.199 157.548C400.204 155.942 398.797 154.679 396.689 154.679C394.601 154.679 393.03 155.902 393 157.662H395.063C395.088 156.886 395.799 156.384 396.679 156.384C397.549 156.384 398.131 156.911 398.126 157.677C398.131 158.477 397.45 159.019 396.47 159.019H395.521V160.6H396.47C397.624 160.6 398.344 161.177 398.339 161.997C398.344 162.808 397.648 163.364 396.664 163.364C395.714 163.364 395.004 162.867 394.964 162.121H392.796C392.831 163.901 394.422 165.139 396.659 165.139ZM405.808 154.679C403.531 154.669 401.995 156.161 402.005 158.209C402.01 160.108 403.327 161.485 405.132 161.485C406.251 161.485 407.245 160.943 407.697 160.048H407.767C407.762 162.067 407.061 163.295 405.733 163.295C404.953 163.295 404.391 162.867 404.227 162.126H402.104C402.303 163.842 403.695 165.139 405.733 165.139C408.254 165.139 409.88 163.101 409.875 159.646C409.87 155.957 407.901 154.689 405.808 154.679ZM405.823 156.369C406.812 156.369 407.543 157.175 407.553 158.144C407.558 159.119 406.787 159.924 405.803 159.924C404.809 159.924 404.098 159.148 404.093 158.149C404.083 157.155 404.824 156.369 405.823 156.369ZM415.085 165.139C417.352 165.139 418.893 163.663 418.888 161.604C418.893 159.656 417.531 158.254 415.697 158.254C414.802 158.254 414.031 158.626 413.673 159.129H413.613L413.877 156.578H418.327V154.818H412.102L411.62 160.188L413.534 160.531C413.847 160.108 414.454 159.844 415.055 159.844C416.079 159.849 416.815 160.59 416.815 161.659C416.815 162.718 416.094 163.449 415.085 163.449C414.23 163.449 413.539 162.912 413.489 162.121H411.401C411.441 163.881 412.977 165.139 415.085 165.139ZM429.979 154.818V161.246C429.979 162.41 429.163 163.25 427.911 163.25C426.663 163.25 425.842 162.41 425.842 161.246V154.818H423.69V161.43C423.69 163.658 425.37 165.144 427.911 165.144C430.441 165.144 432.131 163.658 432.131 161.43V154.818H429.979ZM439.426 157.746H441.489C441.459 155.932 439.968 154.679 437.701 154.679C435.469 154.679 433.833 155.912 433.843 157.761C433.838 159.263 434.897 160.123 436.617 160.536L437.726 160.814C438.834 161.082 439.451 161.401 439.456 162.087C439.451 162.832 438.745 163.339 437.651 163.339C436.532 163.339 435.727 162.822 435.657 161.803H433.574C433.629 164.006 435.205 165.144 437.676 165.144C440.162 165.144 441.623 163.956 441.628 162.092C441.623 160.396 440.346 159.496 438.576 159.099L437.661 158.88C436.776 158.676 436.035 158.348 436.05 157.617C436.05 156.961 436.632 156.479 437.686 156.479C438.715 156.479 439.346 156.946 439.426 157.746ZM446.686 165C449.788 165 451.667 163.081 451.667 159.899C451.667 156.727 449.788 154.818 446.716 154.818H443.076V165H446.686ZM445.229 163.156V156.663H446.601C448.51 156.663 449.52 157.637 449.52 159.899C449.52 162.171 448.51 163.156 446.596 163.156H445.229Z" fill="#21E2E4"/>
<defs>
<filter id="filter0_d" x="351" y="144" width="82" height="82" filterUnits="userSpaceOnUse" color-interpolation-filters="sRGB">
<feFlood flood-opacity="0" result="BackgroundImageFix"/>
<feColorMatrix in="SourceAlpha" type="matrix" values="0 0 0 0 0 0 0 0 0 0 0 0 0 0 0 0 0 0 127 0"/>
<feOffset dx="2" dy="2"/>
<feGaussianBlur stdDeviation="15"/>
<feColorMatrix type="matrix" values="0 0 0 0 0.7875 0 0 0 0 0.76857 0 0 0 0 0.705469 0 0 0 0.5 0"/>
<feBlend mode="normal" in2="BackgroundImageFix" result="effect1_dropShadow"/>
<feBlend mode="normal" in="SourceGraphic" in2="effect1_dropShadow" result="shape"/>
</filter>
<linearGradient id="paint0_linear" x1="40" y1="216.41" x2="608.654" y2="216.41" gradientUnits="userSpaceOnUse">
<stop stop-color="#30DFC4"/>
<stop offset="1" stop-color="#00E8FF"/>
</linearGradient>
</defs>
</svg>
