<svg width="679" height="362" viewBox="0 0 679 362" fill="none" xmlns="http://www.w3.org/2000/svg">
<rect width="679" height="362" fill="#FFFCF2"/>
<mask id="mask0" mask-type="alpha" maskUnits="userSpaceOnUse" x="26" y="0" width="276" height="316">
<rect x="26" width="276" height="316" fill="white"/>
</mask>
<g mask="url(#mask0)">
<path d="M26 295C167 269 467 191.662 655 10" stroke="url(#paint0_linear)" stroke-width="3" stroke-linecap="round"/>
</g>
<path d="M8.22514 54.8182H6.72869L4.18821 56.4787V57.9503L6.62429 56.3594H6.68395V65H8.22514V54.8182Z" fill="#9E9E9E"/>
<path d="M5.48704 357.169C7.8386 357.169 9.21573 355.25 9.21573 351.914C9.21573 348.603 7.81871 346.679 5.48704 346.679C3.15039 346.679 1.75835 348.598 1.75337 351.914C1.75337 355.245 3.1305 357.164 5.48704 357.169ZM5.48704 355.842C4.10991 355.842 3.27965 354.46 3.27965 351.914C3.28462 349.379 4.11488 347.982 5.48704 347.982C6.85423 347.982 7.68945 349.379 7.68945 351.914C7.68945 354.46 6.8592 355.842 5.48704 355.842Z" fill="#9E9E9E"/>
<line x1="110.5" y1="326" x2="110.5" y2="334" stroke="#9E9E9E"/>
<line x1="18" y1="59.5" x2="26" y2="59.5" stroke="#9E9E9E"/>
<path d="M106.885 346.818H105.389L102.848 348.479V349.95L105.284 348.359H105.344V357H106.885V346.818ZM109.779 357H111.315V353.833L112.518 352.451L115.809 357H117.659L113.537 351.402L117.644 346.818H115.71L111.439 351.68H111.315V346.818H109.779V357Z" fill="#9E9E9E"/>
<line x1="194.5" y1="326" x2="194.5" y2="334" stroke="#9E9E9E"/>
<path d="M185.867 346.818H184.37L181.83 348.479V349.95L184.266 348.359H184.326V357H185.867V346.818ZM192.166 357.169C194.517 357.169 195.894 355.25 195.894 351.914C195.894 348.603 194.497 346.679 192.166 346.679C189.829 346.679 188.437 348.598 188.432 351.914C188.432 355.245 189.809 357.164 192.166 357.169ZM192.166 355.842C190.789 355.842 189.958 354.46 189.958 351.914C189.963 349.379 190.794 347.982 192.166 347.982C193.533 347.982 194.368 349.379 194.368 351.914C194.368 354.46 193.538 355.842 192.166 355.842ZM197.797 357H199.334V353.833L200.537 352.451L203.828 357H205.677L201.556 351.402L205.662 346.818H203.728L199.458 351.68H199.334V346.818H197.797V357Z" fill="#9E9E9E"/>
<line x1="278.5" y1="326" x2="278.5" y2="334" stroke="#9E9E9E"/>
<path d="M265.848 346.818H264.352L261.811 348.479V349.95L264.247 348.359H264.307V357H265.848V346.818ZM272.147 357.169C274.499 357.169 275.876 355.25 275.876 351.914C275.876 348.603 274.479 346.679 272.147 346.679C269.811 346.679 268.419 348.598 268.414 351.914C268.414 355.245 269.791 357.164 272.147 357.169ZM272.147 355.842C270.77 355.842 269.94 354.46 269.94 351.914C269.945 349.379 270.775 347.982 272.147 347.982C273.514 347.982 274.35 349.379 274.35 351.914C274.35 354.46 273.519 355.842 272.147 355.842ZM281.184 357.169C283.536 357.169 284.913 355.25 284.913 351.914C284.913 348.603 283.516 346.679 281.184 346.679C278.848 346.679 277.456 348.598 277.451 351.914C277.451 355.245 278.828 357.164 281.184 357.169ZM281.184 355.842C279.807 355.842 278.977 354.46 278.977 351.914C278.982 349.379 279.812 347.982 281.184 347.982C282.551 347.982 283.387 349.379 283.387 351.914C283.387 354.46 282.556 355.842 281.184 355.842ZM286.816 357H288.352V353.833L289.555 352.451L292.846 357H294.696L290.574 351.402L294.681 346.818H292.747L288.476 351.68H288.352V346.818H286.816V357Z" fill="#9E9E9E"/>
<line x1="362.5" y1="326" x2="362.5" y2="334" stroke="#9E9E9E"/>
<path d="M357.252 346.818H355.755L353.215 348.479V349.95L355.651 348.359H355.71V357H357.252V346.818ZM360.145 346.818V357H361.607V349.627H361.701L364.704 356.985H365.917L368.92 349.632H369.014V357H370.476V346.818H368.612L365.37 354.733H365.251L362.009 346.818H360.145Z" fill="#9E9E9E"/>
<line x1="446.5" y1="326" x2="446.5" y2="334" stroke="#9E9E9E"/>
<path d="M436.233 346.818H434.737L432.196 348.479V349.95L434.632 348.359H434.692V357H436.233V346.818ZM442.532 357.169C444.884 357.169 446.261 355.25 446.261 351.914C446.261 348.603 444.864 346.679 442.532 346.679C440.195 346.679 438.803 348.598 438.798 351.914C438.798 355.245 440.175 357.164 442.532 357.169ZM442.532 355.842C441.155 355.842 440.325 354.46 440.325 351.914C440.33 349.379 441.16 347.982 442.532 347.982C443.899 347.982 444.734 349.379 444.734 351.914C444.734 354.46 443.904 355.842 442.532 355.842ZM448.164 346.818V357H449.625V349.627H449.72L452.722 356.985H453.936L456.938 349.632H457.033V357H458.494V346.818H456.63L453.389 354.733H453.269L450.028 346.818H448.164Z" fill="#9E9E9E"/>
<line x1="530.5" y1="326" x2="530.5" y2="334" stroke="#9E9E9E"/>
<path d="M516.214 346.818H514.718L512.177 348.479V349.95L514.614 348.359H514.673V357H516.214V346.818ZM522.513 357.169C524.865 357.169 526.242 355.25 526.242 351.914C526.242 348.603 524.845 346.679 522.513 346.679C520.177 346.679 518.785 348.598 518.78 351.914C518.78 355.245 520.157 357.164 522.513 357.169ZM522.513 355.842C521.136 355.842 520.306 354.46 520.306 351.914C520.311 349.379 521.141 347.982 522.513 347.982C523.881 347.982 524.716 349.379 524.716 351.914C524.716 354.46 523.886 355.842 522.513 355.842ZM531.551 357.169C533.902 357.169 535.279 355.25 535.279 351.914C535.279 348.603 533.882 346.679 531.551 346.679C529.214 346.679 527.822 348.598 527.817 351.914C527.817 355.245 529.194 357.164 531.551 357.169ZM531.551 355.842C530.173 355.842 529.343 354.46 529.343 351.914C529.348 349.379 530.178 347.982 531.551 347.982C532.918 347.982 533.753 349.379 533.753 351.914C533.753 354.46 532.923 355.842 531.551 355.842ZM537.182 346.818V357H538.644V349.627H538.738L541.741 356.985H542.954L545.957 349.632H546.051V357H547.513V346.818H545.649L542.407 354.733H542.288L539.046 346.818H537.182Z" fill="#9E9E9E"/>
<line x1="614.5" y1="326" x2="614.5" y2="334" stroke="#9E9E9E"/>
<path d="M610.954 346.818H609.457L606.917 348.479V349.95L609.353 348.359H609.412V357H610.954V346.818ZM613.847 357H617.75C620.116 357 621.185 355.822 621.185 354.261C621.185 352.685 620.081 351.795 619.072 351.74V351.641C620.007 351.402 620.787 350.766 620.787 349.493C620.787 347.987 619.743 346.818 617.576 346.818H613.847V357ZM615.383 355.683V352.421H617.655C618.888 352.421 619.659 353.217 619.659 354.186C619.659 355.041 619.077 355.683 617.601 355.683H615.383ZM615.383 351.223V348.126H617.481C618.699 348.126 619.281 348.767 619.281 349.612C619.281 350.597 618.476 351.223 617.442 351.223H615.383Z" fill="#9E9E9E"/>
<path d="M26 326L25.5 326L25.5 326.5L26 326.5L26 326ZM679 326L674 323.113L674 328.887L679 326ZM26 0L23.1132 5L28.8868 5L26 0ZM26 326.5L674.5 326.5L674.5 325.5L26 325.5L26 326.5ZM26.5 326L26.5 4.5L25.5 4.5L25.5 326L26.5 326Z" fill="#9E9E9E"/>
<g filter="url(#filter0_d)">
<circle cx="306" cy="218" r="11" fill="white"/>
</g>
<circle cx="306" cy="218" r="4" fill="#36E2DD"/>
<path d="M299.817 200.224C302.378 200.224 303.924 198.275 303.929 194.919C303.934 191.588 302.368 189.679 299.817 189.679C297.262 189.679 295.711 191.583 295.706 194.919C295.696 198.265 297.252 200.219 299.817 200.224ZM299.817 198.439C298.649 198.439 297.893 197.266 297.898 194.919C297.903 192.607 298.654 191.444 299.817 191.444C300.976 191.444 301.732 192.607 301.732 194.919C301.737 197.266 300.981 198.439 299.817 198.439ZM306.298 200.129C306.934 200.129 307.486 199.597 307.491 198.936C307.486 198.285 306.934 197.753 306.298 197.753C305.642 197.753 305.1 198.285 305.105 198.936C305.1 199.597 305.642 200.129 306.298 200.129ZM309.21 200H316.469V198.24H312.193V198.17L313.68 196.714C315.773 194.805 316.334 193.85 316.334 192.692C316.334 190.927 314.893 189.679 312.71 189.679C310.572 189.679 309.106 190.957 309.111 192.955H311.154C311.149 191.981 311.765 191.384 312.695 191.384C313.59 191.384 314.256 191.941 314.256 192.836C314.256 193.646 313.759 194.203 312.834 195.093L309.21 198.449V200ZM321.792 200.139C324.079 200.139 325.714 198.881 325.71 197.141C325.714 195.874 324.909 194.969 323.413 194.78V194.7C324.551 194.496 325.337 193.691 325.332 192.548C325.337 190.942 323.93 189.679 321.822 189.679C319.734 189.679 318.163 190.902 318.133 192.662H320.196C320.221 191.886 320.932 191.384 321.812 191.384C322.682 191.384 323.263 191.911 323.259 192.677C323.263 193.477 322.582 194.019 321.603 194.019H320.653V195.6H321.603C322.756 195.6 323.477 196.177 323.472 196.997C323.477 197.808 322.781 198.364 321.797 198.364C320.847 198.364 320.136 197.867 320.097 197.121H317.929C317.964 198.901 319.555 200.139 321.792 200.139ZM331.249 200.224C333.809 200.224 335.356 198.275 335.361 194.919C335.366 191.588 333.8 189.679 331.249 189.679C328.694 189.679 327.143 191.583 327.138 194.919C327.128 198.265 328.684 200.219 331.249 200.224ZM331.249 198.439C330.081 198.439 329.325 197.266 329.33 194.919C329.335 192.607 330.086 191.444 331.249 191.444C332.407 191.444 333.163 192.607 333.163 194.919C333.168 197.266 332.412 198.439 331.249 198.439ZM346.485 189.818V196.246C346.485 197.41 345.669 198.25 344.416 198.25C343.169 198.25 342.348 197.41 342.348 196.246V189.818H340.195V196.43C340.195 198.658 341.876 200.144 344.416 200.144C346.947 200.144 348.637 198.658 348.637 196.43V189.818H346.485ZM355.932 192.746H357.995C357.965 190.932 356.474 189.679 354.207 189.679C351.974 189.679 350.339 190.912 350.349 192.761C350.344 194.263 351.403 195.123 353.123 195.536L354.232 195.814C355.34 196.082 355.957 196.401 355.962 197.087C355.957 197.832 355.251 198.339 354.157 198.339C353.038 198.339 352.233 197.822 352.163 196.803H350.08C350.135 199.006 351.711 200.144 354.182 200.144C356.668 200.144 358.129 198.956 358.134 197.092C358.129 195.396 356.852 194.496 355.082 194.099L354.167 193.88C353.282 193.676 352.541 193.348 352.556 192.617C352.556 191.961 353.138 191.479 354.192 191.479C355.221 191.479 355.852 191.946 355.932 192.746ZM363.192 200C366.294 200 368.173 198.081 368.173 194.899C368.173 191.727 366.294 189.818 363.221 189.818H359.582V200H363.192ZM361.735 198.156V191.663H363.107C365.016 191.663 366.025 192.637 366.025 194.899C366.025 197.171 365.016 198.156 363.102 198.156H361.735Z" fill="#36E2DD"/>
<defs>
<filter id="filter0_d" x="267" y="179" width="82" height="82" filterUnits="userSpaceOnUse" color-interpolation-filters="sRGB">
<feFlood flood-opacity="0" result="BackgroundImageFix"/>
<feColorMatrix in="SourceAlpha" type="matrix" values="0 0 0 0 0 0 0 0 0 0 0 0 0 0 0 0 0 0 127 0"/>
<feOffset dx="2" dy="2"/>
<feGaussianBlur stdDeviation="15"/>
<feColorMatrix type="matrix" values="0 0 0 0 0.7875 0 0 0 0 0.76857 0 0 0 0 0.705469 0 0 0 0.5 0"/>
<feBlend mode="normal" in2="BackgroundImageFix" result="effect1_dropShadow"/>
<feBlend mode="normal" in="SourceGraphic" in2="effect1_dropShadow" result="shape"/>
</filter>
<linearGradient id="paint0_linear" x1="40" y1="216.41" x2="608.654" y2="216.41" gradientUnits="userSpaceOnUse">
<stop stop-color="#30DFC4"/>
<stop offset="1" stop-color="#00E8FF"/>
</linearGradient>
</defs>
</svg>
