<svg width="679" height="362" viewBox="0 0 679 362" fill="none" xmlns="http://www.w3.org/2000/svg">
<rect width="679" height="362" fill="#FFFCF2"/>
<mask id="mask0" mask-type="alpha" maskUnits="userSpaceOnUse" x="26" y="0" width="192" height="316">
<rect x="26" width="192" height="316" fill="white"/>
</mask>
<g mask="url(#mask0)">
<path d="M26 295C167 269 467 191.662 655 10" stroke="url(#paint0_linear)" stroke-width="3" stroke-linecap="round"/>
</g>
<path d="M8.22514 54.8182H6.72869L4.18821 56.4787V57.9503L6.62429 56.3594H6.68395V65H8.22514V54.8182Z" fill="#9E9E9E"/>
<path d="M5.48704 357.169C7.8386 357.169 9.21573 355.25 9.21573 351.914C9.21573 348.603 7.81871 346.679 5.48704 346.679C3.15039 346.679 1.75835 348.598 1.75337 351.914C1.75337 355.245 3.1305 357.164 5.48704 357.169ZM5.48704 355.842C4.10991 355.842 3.27965 354.46 3.27965 351.914C3.28462 349.379 4.11488 347.982 5.48704 347.982C6.85423 347.982 7.68945 349.379 7.68945 351.914C7.68945 354.46 6.8592 355.842 5.48704 355.842Z" fill="#9E9E9E"/>
<line x1="110.5" y1="326" x2="110.5" y2="334" stroke="#9E9E9E"/>
<line x1="18" y1="59.5" x2="26" y2="59.5" stroke="#9E9E9E"/>
<path d="M106.885 346.818H105.389L102.848 348.479V349.95L105.284 348.359H105.344V357H106.885V346.818ZM109.779 357H111.315V353.833L112.518 352.451L115.809 357H117.659L113.537 351.402L117.644 346.818H115.71L111.439 351.68H111.315V346.818H109.779V357Z" fill="#9E9E9E"/>
<line x1="194.5" y1="326" x2="194.5" y2="334" stroke="#9E9E9E"/>
<path d="M185.867 346.818H184.37L181.83 348.479V349.95L184.266 348.359H184.326V357H185.867V346.818ZM192.166 357.169C194.517 357.169 195.894 355.25 195.894 351.914C195.894 348.603 194.497 346.679 192.166 346.679C189.829 346.679 188.437 348.598 188.432 351.914C188.432 355.245 189.809 357.164 192.166 357.169ZM192.166 355.842C190.789 355.842 189.958 354.46 189.958 351.914C189.963 349.379 190.794 347.982 192.166 347.982C193.533 347.982 194.368 349.379 194.368 351.914C194.368 354.46 193.538 355.842 192.166 355.842ZM197.797 357H199.334V353.833L200.537 352.451L203.828 357H205.677L201.556 351.402L205.662 346.818H203.728L199.458 351.68H199.334V346.818H197.797V357Z" fill="#9E9E9E"/>
<line x1="278.5" y1="326" x2="278.5" y2="334" stroke="#9E9E9E"/>
<path d="M265.848 346.818H264.352L261.811 348.479V349.95L264.247 348.359H264.307V357H265.848V346.818ZM272.147 357.169C274.499 357.169 275.876 355.25 275.876 351.914C275.876 348.603 274.479 346.679 272.147 346.679C269.811 346.679 268.419 348.598 268.414 351.914C268.414 355.245 269.791 357.164 272.147 357.169ZM272.147 355.842C270.77 355.842 269.94 354.46 269.94 351.914C269.945 349.379 270.775 347.982 272.147 347.982C273.514 347.982 274.35 349.379 274.35 351.914C274.35 354.46 273.519 355.842 272.147 355.842ZM281.184 357.169C283.536 357.169 284.913 355.25 284.913 351.914C284.913 348.603 283.516 346.679 281.184 346.679C278.848 346.679 277.456 348.598 277.451 351.914C277.451 355.245 278.828 357.164 281.184 357.169ZM281.184 355.842C279.807 355.842 278.977 354.46 278.977 351.914C278.982 349.379 279.812 347.982 281.184 347.982C282.551 347.982 283.387 349.379 283.387 351.914C283.387 354.46 282.556 355.842 281.184 355.842ZM286.816 357H288.352V353.833L289.555 352.451L292.846 357H294.696L290.574 351.402L294.681 346.818H292.747L288.476 351.68H288.352V346.818H286.816V357Z" fill="#9E9E9E"/>
<line x1="362.5" y1="326" x2="362.5" y2="334" stroke="#9E9E9E"/>
<path d="M357.252 346.818H355.755L353.215 348.479V349.95L355.651 348.359H355.71V357H357.252V346.818ZM360.145 346.818V357H361.607V349.627H361.701L364.704 356.985H365.917L368.92 349.632H369.014V357H370.476V346.818H368.612L365.37 354.733H365.251L362.009 346.818H360.145Z" fill="#9E9E9E"/>
<line x1="446.5" y1="326" x2="446.5" y2="334" stroke="#9E9E9E"/>
<path d="M436.233 346.818H434.737L432.196 348.479V349.95L434.632 348.359H434.692V357H436.233V346.818ZM442.532 357.169C444.884 357.169 446.261 355.25 446.261 351.914C446.261 348.603 444.864 346.679 442.532 346.679C440.195 346.679 438.803 348.598 438.798 351.914C438.798 355.245 440.175 357.164 442.532 357.169ZM442.532 355.842C441.155 355.842 440.325 354.46 440.325 351.914C440.33 349.379 441.16 347.982 442.532 347.982C443.899 347.982 444.734 349.379 444.734 351.914C444.734 354.46 443.904 355.842 442.532 355.842ZM448.164 346.818V357H449.625V349.627H449.72L452.722 356.985H453.936L456.938 349.632H457.033V357H458.494V346.818H456.63L453.389 354.733H453.269L450.028 346.818H448.164Z" fill="#9E9E9E"/>
<line x1="530.5" y1="326" x2="530.5" y2="334" stroke="#9E9E9E"/>
<path d="M516.214 346.818H514.718L512.177 348.479V349.95L514.614 348.359H514.673V357H516.214V346.818ZM522.513 357.169C524.865 357.169 526.242 355.25 526.242 351.914C526.242 348.603 524.845 346.679 522.513 346.679C520.177 346.679 518.785 348.598 518.78 351.914C518.78 355.245 520.157 357.164 522.513 357.169ZM522.513 355.842C521.136 355.842 520.306 354.46 520.306 351.914C520.311 349.379 521.141 347.982 522.513 347.982C523.881 347.982 524.716 349.379 524.716 351.914C524.716 354.46 523.886 355.842 522.513 355.842ZM531.551 357.169C533.902 357.169 535.279 355.25 535.279 351.914C535.279 348.603 533.882 346.679 531.551 346.679C529.214 346.679 527.822 348.598 527.817 351.914C527.817 355.245 529.194 357.164 531.551 357.169ZM531.551 355.842C530.173 355.842 529.343 354.46 529.343 351.914C529.348 349.379 530.178 347.982 531.551 347.982C532.918 347.982 533.753 349.379 533.753 351.914C533.753 354.46 532.923 355.842 531.551 355.842ZM537.182 346.818V357H538.644V349.627H538.738L541.741 356.985H542.954L545.957 349.632H546.051V357H547.513V346.818H545.649L542.407 354.733H542.288L539.046 346.818H537.182Z" fill="#9E9E9E"/>
<path d="M26 326L25.5 326L25.5 326.5L26 326.5L26 326ZM679 326L674 323.113L674 328.887L679 326ZM26 0L23.1132 5L28.8868 5L26 0ZM26 326.5L674.5 326.5L674.5 325.5L26 325.5L26 326.5ZM26.5 326L26.5 4.5L25.5 4.5L25.5 326L26.5 326Z" fill="#9E9E9E"/>
<g filter="url(#filter0_d)">
<circle cx="222" cy="246" r="11" fill="white"/>
</g>
<circle cx="222" cy="246" r="4" fill="#36DED2"/>
<path d="M215.817 228.224C218.378 228.224 219.924 226.275 219.929 222.919C219.934 219.588 218.368 217.679 215.817 217.679C213.262 217.679 211.711 219.583 211.706 222.919C211.696 226.265 213.252 228.219 215.817 228.224ZM215.817 226.439C214.649 226.439 213.893 225.266 213.898 222.919C213.903 220.607 214.654 219.444 215.817 219.444C216.976 219.444 217.732 220.607 217.732 222.919C217.737 225.266 216.981 226.439 215.817 226.439ZM222.298 228.129C222.934 228.129 223.486 227.597 223.491 226.936C223.486 226.285 222.934 225.753 222.298 225.753C221.642 225.753 221.1 226.285 221.105 226.936C221.1 227.597 221.642 228.129 222.298 228.129ZM228.368 217.818H226.345L223.824 219.414V221.323L226.156 219.862H226.216V228H228.368V217.818ZM235.218 217.818H233.194L230.674 219.414V221.323L233.006 219.862H233.065V228H235.218V217.818ZM241.63 228.224C244.19 228.224 245.737 226.275 245.741 222.919C245.746 219.588 244.18 217.679 241.63 217.679C239.075 217.679 237.523 219.583 237.518 222.919C237.509 226.265 239.065 228.219 241.63 228.224ZM241.63 226.439C240.462 226.439 239.706 225.266 239.711 222.919C239.716 220.607 240.467 219.444 241.63 219.444C242.788 219.444 243.544 220.607 243.544 222.919C243.549 225.266 242.793 226.439 241.63 226.439ZM256.865 217.818V224.246C256.865 225.41 256.05 226.25 254.797 226.25C253.549 226.25 252.729 225.41 252.729 224.246V217.818H250.576V224.43C250.576 226.658 252.257 228.144 254.797 228.144C257.328 228.144 259.018 226.658 259.018 224.43V217.818H256.865ZM266.313 220.746H268.376C268.346 218.932 266.855 217.679 264.588 217.679C262.355 217.679 260.72 218.912 260.73 220.761C260.725 222.263 261.784 223.123 263.504 223.536L264.612 223.814C265.721 224.082 266.338 224.401 266.343 225.087C266.338 225.832 265.632 226.339 264.538 226.339C263.419 226.339 262.614 225.822 262.544 224.803H260.461C260.516 227.006 262.092 228.144 264.563 228.144C267.048 228.144 268.51 226.956 268.515 225.092C268.51 223.396 267.232 222.496 265.463 222.099L264.548 221.88C263.663 221.676 262.922 221.348 262.937 220.617C262.937 219.961 263.519 219.479 264.573 219.479C265.602 219.479 266.233 219.946 266.313 220.746ZM273.572 228C276.675 228 278.554 226.081 278.554 222.899C278.554 219.727 276.675 217.818 273.602 217.818H269.963V228H273.572ZM272.116 226.156V219.663H273.488C275.397 219.663 276.406 220.637 276.406 222.899C276.406 225.171 275.397 226.156 273.483 226.156H272.116Z" fill="#36DED2"/>
<defs>
<filter id="filter0_d" x="183" y="207" width="82" height="82" filterUnits="userSpaceOnUse" color-interpolation-filters="sRGB">
<feFlood flood-opacity="0" result="BackgroundImageFix"/>
<feColorMatrix in="SourceAlpha" type="matrix" values="0 0 0 0 0 0 0 0 0 0 0 0 0 0 0 0 0 0 127 0"/>
<feOffset dx="2" dy="2"/>
<feGaussianBlur stdDeviation="15"/>
<feColorMatrix type="matrix" values="0 0 0 0 0.7875 0 0 0 0 0.76857 0 0 0 0 0.705469 0 0 0 0.5 0"/>
<feBlend mode="normal" in2="BackgroundImageFix" result="effect1_dropShadow"/>
<feBlend mode="normal" in="SourceGraphic" in2="effect1_dropShadow" result="shape"/>
</filter>
<linearGradient id="paint0_linear" x1="40" y1="216.41" x2="608.654" y2="216.41" gradientUnits="userSpaceOnUse">
<stop stop-color="#30DFC4"/>
<stop offset="1" stop-color="#00E8FF"/>
</linearGradient>
</defs>
</svg>
