<svg width="679" height="362" viewBox="0 0 679 362" fill="none" xmlns="http://www.w3.org/2000/svg">
<rect width="679" height="362" fill="#FFFCF2"/>
<mask id="mask0" mask-type="alpha" maskUnits="userSpaceOnUse" x="26" y="0" width="220" height="316">
<rect x="26" width="220" height="316" fill="white"/>
</mask>
<g mask="url(#mask0)">
<path d="M26 295C167 269 467 191.662 655 10" stroke="url(#paint0_linear)" stroke-width="3" stroke-linecap="round"/>
</g>
<path d="M8.22514 54.8182H6.72869L4.18821 56.4787V57.9503L6.62429 56.3594H6.68395V65H8.22514V54.8182Z" fill="#9E9E9E"/>
<path d="M5.48704 357.169C7.8386 357.169 9.21573 355.25 9.21573 351.914C9.21573 348.603 7.81871 346.679 5.48704 346.679C3.15039 346.679 1.75835 348.598 1.75337 351.914C1.75337 355.245 3.1305 357.164 5.48704 357.169ZM5.48704 355.842C4.10991 355.842 3.27965 354.46 3.27965 351.914C3.28462 349.379 4.11488 347.982 5.48704 347.982C6.85423 347.982 7.68945 349.379 7.68945 351.914C7.68945 354.46 6.8592 355.842 5.48704 355.842Z" fill="#9E9E9E"/>
<line x1="110.5" y1="326" x2="110.5" y2="334" stroke="#9E9E9E"/>
<line x1="18" y1="59.5" x2="26" y2="59.5" stroke="#9E9E9E"/>
<path d="M106.885 346.818H105.389L102.848 348.479V349.95L105.284 348.359H105.344V357H106.885V346.818ZM109.779 357H111.315V353.833L112.518 352.451L115.809 357H117.659L113.537 351.402L117.644 346.818H115.71L111.439 351.68H111.315V346.818H109.779V357Z" fill="#9E9E9E"/>
<line x1="194.5" y1="326" x2="194.5" y2="334" stroke="#9E9E9E"/>
<path d="M185.867 346.818H184.37L181.83 348.479V349.95L184.266 348.359H184.326V357H185.867V346.818ZM192.166 357.169C194.517 357.169 195.894 355.25 195.894 351.914C195.894 348.603 194.497 346.679 192.166 346.679C189.829 346.679 188.437 348.598 188.432 351.914C188.432 355.245 189.809 357.164 192.166 357.169ZM192.166 355.842C190.789 355.842 189.958 354.46 189.958 351.914C189.963 349.379 190.794 347.982 192.166 347.982C193.533 347.982 194.368 349.379 194.368 351.914C194.368 354.46 193.538 355.842 192.166 355.842ZM197.797 357H199.334V353.833L200.537 352.451L203.828 357H205.677L201.556 351.402L205.662 346.818H203.728L199.458 351.68H199.334V346.818H197.797V357Z" fill="#9E9E9E"/>
<line x1="278.5" y1="326" x2="278.5" y2="334" stroke="#9E9E9E"/>
<path d="M265.848 346.818H264.352L261.811 348.479V349.95L264.247 348.359H264.307V357H265.848V346.818ZM272.147 357.169C274.499 357.169 275.876 355.25 275.876 351.914C275.876 348.603 274.479 346.679 272.147 346.679C269.811 346.679 268.419 348.598 268.414 351.914C268.414 355.245 269.791 357.164 272.147 357.169ZM272.147 355.842C270.77 355.842 269.94 354.46 269.94 351.914C269.945 349.379 270.775 347.982 272.147 347.982C273.514 347.982 274.35 349.379 274.35 351.914C274.35 354.46 273.519 355.842 272.147 355.842ZM281.184 357.169C283.536 357.169 284.913 355.25 284.913 351.914C284.913 348.603 283.516 346.679 281.184 346.679C278.848 346.679 277.456 348.598 277.451 351.914C277.451 355.245 278.828 357.164 281.184 357.169ZM281.184 355.842C279.807 355.842 278.977 354.46 278.977 351.914C278.982 349.379 279.812 347.982 281.184 347.982C282.551 347.982 283.387 349.379 283.387 351.914C283.387 354.46 282.556 355.842 281.184 355.842ZM286.816 357H288.352V353.833L289.555 352.451L292.846 357H294.696L290.574 351.402L294.681 346.818H292.747L288.476 351.68H288.352V346.818H286.816V357Z" fill="#9E9E9E"/>
<line x1="362.5" y1="326" x2="362.5" y2="334" stroke="#9E9E9E"/>
<path d="M357.252 346.818H355.755L353.215 348.479V349.95L355.651 348.359H355.71V357H357.252V346.818ZM360.145 346.818V357H361.607V349.627H361.701L364.704 356.985H365.917L368.92 349.632H369.014V357H370.476V346.818H368.612L365.37 354.733H365.251L362.009 346.818H360.145Z" fill="#9E9E9E"/>
<line x1="446.5" y1="326" x2="446.5" y2="334" stroke="#9E9E9E"/>
<path d="M436.233 346.818H434.737L432.196 348.479V349.95L434.632 348.359H434.692V357H436.233V346.818ZM442.532 357.169C444.884 357.169 446.261 355.25 446.261 351.914C446.261 348.603 444.864 346.679 442.532 346.679C440.195 346.679 438.803 348.598 438.798 351.914C438.798 355.245 440.175 357.164 442.532 357.169ZM442.532 355.842C441.155 355.842 440.325 354.46 440.325 351.914C440.33 349.379 441.16 347.982 442.532 347.982C443.899 347.982 444.734 349.379 444.734 351.914C444.734 354.46 443.904 355.842 442.532 355.842ZM448.164 346.818V357H449.625V349.627H449.72L452.722 356.985H453.936L456.938 349.632H457.033V357H458.494V346.818H456.63L453.389 354.733H453.269L450.028 346.818H448.164Z" fill="#9E9E9E"/>
<line x1="530.5" y1="326" x2="530.5" y2="334" stroke="#9E9E9E"/>
<path d="M516.214 346.818H514.718L512.177 348.479V349.95L514.614 348.359H514.673V357H516.214V346.818ZM522.513 357.169C524.865 357.169 526.242 355.25 526.242 351.914C526.242 348.603 524.845 346.679 522.513 346.679C520.177 346.679 518.785 348.598 518.78 351.914C518.78 355.245 520.157 357.164 522.513 357.169ZM522.513 355.842C521.136 355.842 520.306 354.46 520.306 351.914C520.311 349.379 521.141 347.982 522.513 347.982C523.881 347.982 524.716 349.379 524.716 351.914C524.716 354.46 523.886 355.842 522.513 355.842ZM531.551 357.169C533.902 357.169 535.279 355.25 535.279 351.914C535.279 348.603 533.882 346.679 531.551 346.679C529.214 346.679 527.822 348.598 527.817 351.914C527.817 355.245 529.194 357.164 531.551 357.169ZM531.551 355.842C530.173 355.842 529.343 354.46 529.343 351.914C529.348 349.379 530.178 347.982 531.551 347.982C532.918 347.982 533.753 349.379 533.753 351.914C533.753 354.46 532.923 355.842 531.551 355.842ZM537.182 346.818V357H538.644V349.627H538.738L541.741 356.985H542.954L545.957 349.632H546.051V357H547.513V346.818H545.649L542.407 354.733H542.288L539.046 346.818H537.182Z" fill="#9E9E9E"/>
<path d="M26 326L25.5 326L25.5 326.5L26 326.5L26 326ZM679 326L674 323.113L674 328.887L679 326ZM26 0L23.1132 5L28.8868 5L26 0ZM26 326.5L674.5 326.5L674.5 325.5L26 325.5L26 326.5ZM26.5 326L26.5 4.5L25.5 4.5L25.5 326L26.5 326Z" fill="#9E9E9E"/>
<g filter="url(#filter0_d)">
<circle cx="250" cy="237" r="11" fill="white"/>
</g>
<circle cx="250" cy="237" r="4" fill="#36E2DD"/>
<path d="M243.817 219.224C246.378 219.224 247.924 217.275 247.929 213.919C247.934 210.588 246.368 208.679 243.817 208.679C241.262 208.679 239.711 210.583 239.706 213.919C239.696 217.265 241.252 219.219 243.817 219.224ZM243.817 217.439C242.649 217.439 241.893 216.266 241.898 213.919C241.903 211.607 242.654 210.444 243.817 210.444C244.976 210.444 245.732 211.607 245.732 213.919C245.737 216.266 244.981 217.439 243.817 217.439ZM250.298 219.129C250.934 219.129 251.486 218.597 251.491 217.936C251.486 217.285 250.934 216.753 250.298 216.753C249.642 216.753 249.1 217.285 249.105 217.936C249.1 218.597 249.642 219.129 250.298 219.129ZM256.368 208.818H254.345L251.824 210.414V212.323L254.156 210.862H254.216V219H256.368V208.818ZM258.634 217.21H263.521V219H265.579V217.21H266.842V215.485H265.579V208.818H262.885L258.634 215.515V217.21ZM263.561 215.485H260.802V215.406L263.481 211.165H263.561V215.485ZM271.995 219.139C274.262 219.139 275.803 217.663 275.798 215.604C275.803 213.656 274.441 212.254 272.607 212.254C271.712 212.254 270.941 212.626 270.583 213.129H270.524L270.787 210.578H275.237V208.818H269.012L268.53 214.188L270.444 214.531C270.757 214.108 271.364 213.844 271.965 213.844C272.99 213.849 273.725 214.59 273.725 215.659C273.725 216.718 273.004 217.449 271.995 217.449C271.14 217.449 270.449 216.912 270.399 216.121H268.311C268.351 217.881 269.887 219.139 271.995 219.139ZM286.889 208.818V215.246C286.889 216.41 286.074 217.25 284.821 217.25C283.573 217.25 282.752 216.41 282.752 215.246V208.818H280.6V215.43C280.6 217.658 282.28 219.144 284.821 219.144C287.351 219.144 289.042 217.658 289.042 215.43V208.818H286.889ZM296.336 211.746H298.399C298.369 209.932 296.878 208.679 294.611 208.679C292.379 208.679 290.743 209.912 290.753 211.761C290.748 213.263 291.807 214.123 293.527 214.536L294.636 214.814C295.744 215.082 296.361 215.401 296.366 216.087C296.361 216.832 295.655 217.339 294.561 217.339C293.443 217.339 292.637 216.822 292.568 215.803H290.485C290.539 218.006 292.115 219.144 294.586 219.144C297.072 219.144 298.534 217.956 298.539 216.092C298.534 214.396 297.256 213.496 295.486 213.099L294.571 212.88C293.686 212.676 292.945 212.348 292.96 211.617C292.96 210.961 293.542 210.479 294.596 210.479C295.625 210.479 296.257 210.946 296.336 211.746ZM303.596 219C306.698 219 308.577 217.081 308.577 213.899C308.577 210.727 306.698 208.818 303.626 208.818H299.987V219H303.596ZM302.139 217.156V210.663H303.511C305.42 210.663 306.43 211.637 306.43 213.899C306.43 216.171 305.42 217.156 303.506 217.156H302.139Z" fill="#36E2DD"/>
<path d="M536.798 300.818H535.276V308.295H535.182L530.001 300.818H528.58V311H530.116V303.533H530.21L535.386 311H536.798V300.818ZM543.757 307.833C543.762 309.131 542.797 309.747 541.962 309.747C541.042 309.747 540.406 309.081 540.406 308.042V303.364H538.919V308.221C538.919 310.115 539.958 311.099 541.425 311.099C542.573 311.099 543.354 310.493 543.707 309.678H543.786V311H545.248V303.364H543.757V307.833ZM547.245 311H548.732V306.292C548.732 305.263 549.453 304.547 550.298 304.547C551.123 304.547 551.695 305.094 551.695 305.924V311H553.176V306.133C553.176 305.213 553.738 304.547 554.708 304.547C555.493 304.547 556.14 304.984 556.14 306.018V311H557.626V305.879C557.626 304.134 556.652 303.264 555.27 303.264C554.171 303.264 553.346 303.791 552.978 304.607H552.898C552.565 303.771 551.864 303.264 550.845 303.264C549.836 303.264 549.085 303.766 548.767 304.607H548.672V303.364H547.245V311ZM559.738 311H561.189V309.812H561.314C561.582 310.299 562.129 311.149 563.521 311.149C565.371 311.149 566.713 309.668 566.713 307.197C566.713 304.721 565.351 303.264 563.506 303.264C562.089 303.264 561.577 304.129 561.314 304.602H561.224V300.818H559.738V311ZM561.194 307.182C561.194 305.586 561.89 304.527 563.188 304.527C564.535 304.527 565.211 305.665 565.211 307.182C565.211 308.713 564.515 309.881 563.188 309.881C561.91 309.881 561.194 308.788 561.194 307.182ZM571.673 311.154C573.339 311.154 574.517 310.334 574.855 309.091L573.448 308.837C573.18 309.558 572.533 309.926 571.688 309.926C570.415 309.926 569.56 309.101 569.521 307.629H574.95V307.102C574.95 304.343 573.299 303.264 571.569 303.264C569.441 303.264 568.039 304.885 568.039 307.232C568.039 309.603 569.421 311.154 571.673 311.154ZM569.526 306.516C569.585 305.432 570.371 304.492 571.579 304.492C572.732 304.492 573.488 305.347 573.493 306.516H569.526ZM576.599 311H578.085V306.337C578.085 305.337 578.856 304.616 579.91 304.616C580.218 304.616 580.566 304.671 580.686 304.706V303.284C580.536 303.264 580.243 303.249 580.054 303.249C579.159 303.249 578.394 303.756 578.115 304.577H578.036V303.364H576.599V311ZM588.894 311.154C591.046 311.154 592.453 309.578 592.453 307.217C592.453 304.84 591.046 303.264 588.894 303.264C586.741 303.264 585.334 304.84 585.334 307.217C585.334 309.578 586.741 311.154 588.894 311.154ZM588.899 309.906C587.492 309.906 586.835 308.678 586.835 307.212C586.835 305.75 587.492 304.507 588.899 304.507C590.296 304.507 590.952 305.75 590.952 307.212C590.952 308.678 590.296 309.906 588.899 309.906ZM597.747 303.364H596.101V302.678C596.101 302.001 596.38 301.634 597.105 301.634C597.414 301.634 597.632 301.703 597.772 301.748L598.12 300.545C597.911 300.465 597.478 300.341 596.877 300.341C595.669 300.341 594.61 301.047 594.61 302.479V303.364H593.431V304.557H594.61V311H596.101V304.557H597.747V303.364ZM603.105 300.818V311H604.567V303.627H604.661L607.664 310.985H608.877L611.88 303.632H611.974V311H613.436V300.818H611.572L608.33 308.733H608.211L604.969 300.818H603.105ZM618.841 311.154C620.507 311.154 621.685 310.334 622.023 309.091L620.616 308.837C620.348 309.558 619.701 309.926 618.856 309.926C617.583 309.926 616.728 309.101 616.689 307.629H622.118V307.102C622.118 304.343 620.467 303.264 618.737 303.264C616.609 303.264 615.207 304.885 615.207 307.232C615.207 309.603 616.589 311.154 618.841 311.154ZM616.694 306.516C616.753 305.432 617.539 304.492 618.747 304.492C619.9 304.492 620.656 305.347 620.661 306.516H616.694ZM623.767 311H625.253V306.292C625.253 305.263 625.974 304.547 626.819 304.547C627.645 304.547 628.216 305.094 628.216 305.924V311H629.698V306.133C629.698 305.213 630.26 304.547 631.229 304.547C632.015 304.547 632.661 304.984 632.661 306.018V311H634.148V305.879C634.148 304.134 633.173 303.264 631.791 303.264C630.692 303.264 629.867 303.791 629.499 304.607H629.42C629.086 303.771 628.385 303.264 627.366 303.264C626.357 303.264 625.606 303.766 625.288 304.607H625.194V303.364H623.767V311ZM636.259 311H637.711V309.812H637.835C638.104 310.299 638.651 311.149 640.043 311.149C641.892 311.149 643.234 309.668 643.234 307.197C643.234 304.721 641.872 303.264 640.028 303.264C638.611 303.264 638.099 304.129 637.835 304.602H637.746V300.818H636.259V311ZM637.716 307.182C637.716 305.586 638.412 304.527 639.71 304.527C641.057 304.527 641.733 305.665 641.733 307.182C641.733 308.713 641.037 309.881 639.71 309.881C638.432 309.881 637.716 308.788 637.716 307.182ZM648.195 311.154C649.86 311.154 651.039 310.334 651.377 309.091L649.97 308.837C649.701 309.558 649.055 309.926 648.21 309.926C646.937 309.926 646.082 309.101 646.042 307.629H651.471V307.102C651.471 304.343 649.82 303.264 648.09 303.264C645.963 303.264 644.561 304.885 644.561 307.232C644.561 309.603 645.943 311.154 648.195 311.154ZM646.047 306.516C646.107 305.432 646.892 304.492 648.1 304.492C649.254 304.492 650.009 305.347 650.014 306.516H646.047ZM653.12 311H654.607V306.337C654.607 305.337 655.377 304.616 656.431 304.616C656.74 304.616 657.088 304.671 657.207 304.706V303.284C657.058 303.264 656.765 303.249 656.576 303.249C655.681 303.249 654.915 303.756 654.637 304.577H654.557V303.364H653.12V311ZM664.216 305.228C663.907 304.04 662.978 303.264 661.327 303.264C659.602 303.264 658.379 304.174 658.379 305.526C658.379 306.61 659.035 307.331 660.467 307.649L661.76 307.933C662.496 308.097 662.839 308.425 662.839 308.902C662.839 309.494 662.207 309.956 661.233 309.956C660.343 309.956 659.771 309.573 659.592 308.822L658.155 309.041C658.404 310.393 659.528 311.154 661.243 311.154C663.087 311.154 664.365 310.175 664.365 308.793C664.365 307.714 663.679 307.048 662.277 306.724L661.064 306.446C660.224 306.247 659.861 305.964 659.866 305.447C659.861 304.86 660.497 304.442 661.342 304.442C662.267 304.442 662.694 304.955 662.868 305.467L664.216 305.228Z" fill="#9E9E9E"/>
<path d="M41.1186 25H42.6548V21.4205H44.7429C47.1044 21.4205 48.2727 19.9936 48.2727 18.1143C48.2727 16.2401 47.1143 14.8182 44.7479 14.8182H41.1186V25ZM42.6548 20.1179V16.1357H44.5838C46.1051 16.1357 46.7266 16.9609 46.7266 18.1143C46.7266 19.2678 46.1051 20.1179 44.6037 20.1179H42.6548ZM49.9544 25H51.4409V20.3366C51.4409 19.3374 52.2115 18.6165 53.2654 18.6165C53.5737 18.6165 53.9217 18.6712 54.041 18.706V17.2841C53.8919 17.2642 53.5985 17.2493 53.4096 17.2493C52.5147 17.2493 51.7491 17.7564 51.4707 18.5767H51.3912V17.3636H49.9544V25ZM55.3274 25H56.8139V17.3636H55.3274V25ZM56.0781 16.1854C56.5902 16.1854 57.0178 15.7876 57.0178 15.3004C57.0178 14.8132 56.5902 14.4105 56.0781 14.4105C55.5611 14.4105 55.1385 14.8132 55.1385 15.3004C55.1385 15.7876 55.5611 16.1854 56.0781 16.1854ZM62.0304 25.1541C63.835 25.1541 65.0034 24.0703 65.1674 22.5838H63.7207C63.5318 23.4091 62.8904 23.8963 62.0403 23.8963C60.7825 23.8963 59.9721 22.8473 59.9721 21.1818C59.9721 19.5462 60.7974 18.517 62.0403 18.517C62.9849 18.517 63.5616 19.1136 63.7207 19.8295H65.1674C65.0083 18.2884 63.7505 17.2642 62.0154 17.2642C59.8627 17.2642 58.4707 18.8849 58.4707 21.2166C58.4707 23.5185 59.813 25.1541 62.0304 25.1541ZM70.0483 25.1541C71.7138 25.1541 72.892 24.3338 73.2301 23.0909L71.8232 22.8374C71.5547 23.5582 70.9084 23.9261 70.0632 23.9261C68.7905 23.9261 67.9354 23.1009 67.8956 21.6293H73.3246V21.1023C73.3246 18.343 71.674 17.2642 69.9439 17.2642C67.8161 17.2642 66.4141 18.8849 66.4141 21.2315C66.4141 23.603 67.7962 25.1541 70.0483 25.1541ZM67.9006 20.5156C67.9602 19.4318 68.7457 18.4922 69.9538 18.4922C71.1072 18.4922 71.8629 19.3473 71.8679 20.5156H67.9006ZM81.8956 25.1541C84.0483 25.1541 85.4553 23.5781 85.4553 21.2166C85.4553 18.8402 84.0483 17.2642 81.8956 17.2642C79.7429 17.2642 78.3359 18.8402 78.3359 21.2166C78.3359 23.5781 79.7429 25.1541 81.8956 25.1541ZM81.9006 23.9062C80.4936 23.9062 79.8374 22.6783 79.8374 21.2116C79.8374 19.75 80.4936 18.5071 81.9006 18.5071C83.2976 18.5071 83.9538 19.75 83.9538 21.2116C83.9538 22.6783 83.2976 23.9062 81.9006 23.9062ZM90.7488 17.3636H89.1032V16.6776C89.1032 16.0014 89.3816 15.6335 90.1074 15.6335C90.4157 15.6335 90.6344 15.7031 90.7736 15.7479L91.1216 14.5447C90.9128 14.4652 90.4803 14.3409 89.8787 14.3409C88.6706 14.3409 87.6117 15.0469 87.6117 16.4787V17.3636H86.4334V18.5568H87.6117V25H89.1032V18.5568H90.7488V17.3636ZM97.9513 20.5852C97.9563 19.6009 98.5579 19.0241 99.4229 19.0241C100.283 19.0241 100.79 19.576 100.785 20.5156V25H102.903V20.1378C102.908 18.348 101.854 17.2642 100.263 17.2642C99.1048 17.2642 98.3292 17.8111 97.9812 18.7109H97.8917V14.8182H95.8335V25H97.9513V20.5852ZM104.57 25H106.688V17.3636H104.57V25ZM105.634 16.3793C106.265 16.3793 106.782 15.897 106.782 15.3054C106.782 14.7188 106.265 14.2365 105.634 14.2365C105.007 14.2365 104.49 14.7188 104.49 15.3054C104.49 15.897 105.007 16.3793 105.634 16.3793ZM115.659 25C118.761 25 120.556 23.076 120.556 19.8942C120.556 16.7273 118.761 14.8182 115.763 14.8182H112.363V25H115.659ZM113.899 23.6577V16.1605H115.669C117.896 16.1605 119.045 17.4929 119.045 19.8942C119.045 22.3054 117.896 23.6577 115.574 23.6577H113.899ZM125.564 25.1541C127.716 25.1541 129.123 23.5781 129.123 21.2166C129.123 18.8402 127.716 17.2642 125.564 17.2642C123.411 17.2642 122.004 18.8402 122.004 21.2166C122.004 23.5781 123.411 25.1541 125.564 25.1541ZM125.569 23.9062C124.162 23.9062 123.505 22.6783 123.505 21.2116C123.505 19.75 124.162 18.5071 125.569 18.5071C126.966 18.5071 127.622 19.75 127.622 21.2116C127.622 22.6783 126.966 23.9062 125.569 23.9062ZM132.269 14.8182H130.782V25H132.269V14.8182ZM135.755 14.8182H134.269V25H135.755V14.8182ZM139.977 25.169C141.24 25.169 141.951 24.5277 142.235 23.956H142.294V25H143.746V19.929C143.746 17.7067 141.996 17.2642 140.783 17.2642C139.401 17.2642 138.128 17.821 137.631 19.2131L139.028 19.5312C139.247 18.9893 139.803 18.4673 140.803 18.4673C141.762 18.4673 142.254 18.9695 142.254 19.8345V19.8693C142.254 20.4112 141.698 20.4013 140.325 20.5604C138.879 20.7294 137.397 21.1072 137.397 22.8423C137.397 24.3438 138.526 25.169 139.977 25.169ZM140.301 23.9759C139.46 23.9759 138.854 23.598 138.854 22.8622C138.854 22.0668 139.56 21.7834 140.42 21.669C140.902 21.6044 142.046 21.4751 142.259 21.2614V22.2457C142.259 23.1506 141.539 23.9759 140.301 23.9759ZM145.726 25H147.212V20.3366C147.212 19.3374 147.983 18.6165 149.037 18.6165C149.345 18.6165 149.693 18.6712 149.812 18.706V17.2841C149.663 17.2642 149.37 17.2493 149.181 17.2493C148.286 17.2493 147.521 17.7564 147.242 18.5767H147.163V17.3636H145.726V25ZM156.821 19.228C156.513 18.0398 155.583 17.2642 153.933 17.2642C152.208 17.2642 150.985 18.174 150.985 19.5263C150.985 20.6101 151.641 21.331 153.073 21.6491L154.365 21.9325C155.101 22.0966 155.444 22.4247 155.444 22.902C155.444 23.4936 154.813 23.956 153.838 23.956C152.948 23.956 152.377 23.5732 152.198 22.8224L150.761 23.0412C151.009 24.3935 152.133 25.1541 153.848 25.1541C155.693 25.1541 156.97 24.1747 156.97 22.7926C156.97 21.7138 156.284 21.0476 154.882 20.7244L153.669 20.446C152.829 20.2472 152.466 19.9638 152.471 19.4467C152.466 18.8601 153.102 18.4425 153.948 18.4425C154.872 18.4425 155.3 18.9545 155.474 19.4666L156.821 19.228Z" fill="#9E9E9E"/>
<defs>
<filter id="filter0_d" x="211" y="198" width="82" height="82" filterUnits="userSpaceOnUse" color-interpolation-filters="sRGB">
<feFlood flood-opacity="0" result="BackgroundImageFix"/>
<feColorMatrix in="SourceAlpha" type="matrix" values="0 0 0 0 0 0 0 0 0 0 0 0 0 0 0 0 0 0 127 0"/>
<feOffset dx="2" dy="2"/>
<feGaussianBlur stdDeviation="15"/>
<feColorMatrix type="matrix" values="0 0 0 0 0.7875 0 0 0 0 0.76857 0 0 0 0 0.705469 0 0 0 0.5 0"/>
<feBlend mode="normal" in2="BackgroundImageFix" result="effect1_dropShadow"/>
<feBlend mode="normal" in="SourceGraphic" in2="effect1_dropShadow" result="shape"/>
</filter>
<linearGradient id="paint0_linear" x1="40" y1="216.41" x2="608.654" y2="216.41" gradientUnits="userSpaceOnUse">
<stop stop-color="#30DFC4"/>
<stop offset="1" stop-color="#00E8FF"/>
</linearGradient>
</defs>
</svg>
