<svg width="230" height="122" viewBox="0 0 230 122" fill="none" xmlns="http://www.w3.org/2000/svg">
<path d="M174.036 43.7113C177.144 45.6274 179.145 40.1344 179.784 37.2389C180.423 34.3433 180.721 28.5523 176.676 29.702C172.843 30.8091 169.309 33.0659 169.948 37.3666C170.586 41.6673 171.438 43.7538 174.036 43.7113Z" fill="#30DFC4"/>
<path d="M82.4427 97.7898C87.7228 91.7432 104.33 71.0912 114.038 65.7685C118.211 63.5117 121.83 63.1711 125.62 64.9595C128.303 66.2369 129.964 68.7918 129.793 72.4538C129.623 76.4991 128.686 86.7612 128.686 89.529C128.686 90.8916 128.899 92.0413 129.623 92.0413C130.219 92.0413 132.007 90.3806 133.115 89.3161C142.993 80.1185 152.063 68.5363 160.963 56.869C163.432 53.6328 165.817 52.5257 168.415 52.9515C171.821 53.5051 175.015 56.6987 173.78 60.3607C169.351 73.9442 171.31 78.2449 173.865 78.2449C178.506 78.2875 188.683 72.7519 200.052 61.9362C209.335 52.9515 217.426 42.7745 224.026 31.6608C225.048 29.9575 226.027 27.9988 227.73 28.0839C229.136 28.1691 229.859 29.4891 229.263 32.9808C227.475 43.9668 218.916 57.3374 208.484 68.1957C197.583 79.4798 184.638 87.9961 175.228 87.9961C164.753 87.9961 162.453 77.6488 159.856 77.6488C159.174 77.6488 158.238 78.4152 156.662 80.3314C152.872 84.8876 138.608 103.411 129.282 103.453C120.936 103.496 115.188 97.5769 115.316 89.1883C115.358 86.2502 115.997 82.2476 116.082 79.2669C116.125 78.5856 115.997 78.2023 115.784 78.1172C115.571 78.032 115.188 78.2023 114.677 78.5856C106.884 84.8876 83.0814 112.566 78.3549 118.655C76.9071 120.528 74.0967 122.189 71.0734 121.21C68.3482 120.358 67.454 117.633 67.2837 114.908C66.9005 109.244 68.3056 101.92 68.6037 100.174C69.0721 97.4917 69.5831 95.1923 69.285 95.1923C68.987 95.1923 67.7095 96.0865 66.8579 96.6401C61.2797 100.302 42.0329 114.099 21.2106 113.63C12.1834 113.588 5.711 111.331 1.49545 107.711C0.303168 106.689 0.0902609 105.667 0.473493 104.943C0.856726 104.22 1.79352 103.836 2.94321 104.177C6.47747 105.156 14.2699 107.2 28.2791 103.751C47.5259 99.0247 68.1353 83.0992 72.7767 79.7353C73.5006 79.1817 74.0116 78.4152 74.267 77.5636C76.8645 68.7067 81.9317 49.3747 91.9809 31.6182C102.797 12.5417 115.784 -0.914067 126.77 0.618867C135.584 1.81115 136.351 11.1791 135.371 15.8205C133.115 26.3807 125.407 38.4312 116.55 49.5024C103.946 65.2576 89.0002 79.054 83.8053 83.8657C83.5924 84.0786 83.3795 84.2915 83.2517 84.547C83.1666 84.8025 82.9962 85.6115 82.9111 86.0799C82.1446 90.1251 81.5059 93.1058 80.6968 97.2788C80.6117 97.7472 80.3988 98.7692 80.8672 98.9395C81.3356 99.1098 82.0594 98.2582 82.4427 97.7898ZM88.7873 64.9169C89.0002 64.9595 89.6815 64.1504 91.768 62.1065C97.6868 56.358 114.762 36.0892 121.575 20.1638C122.682 17.5663 126.003 10.4126 123.534 10.1997C121.958 10.072 118.339 11.8178 112.931 17.694C103.563 27.871 93.8119 50.354 90.0222 61.042C89.4686 62.7027 88.617 64.8317 88.7873 64.9169Z" fill="#FAFBFC"/>
</svg>
