<svg width="263" height="42" viewBox="0 0 263 42" fill="none" xmlns="http://www.w3.org/2000/svg">
<g filter="url(#filter0_d)">
<rect x="1" width="261" height="40" rx="20" fill="white"/>
</g>
<path d="M13.4091 14.3636H15.0227L18.25 19.7955H18.3864L21.6136 14.3636H23.2273L19.0227 21.2045V26H17.6136V21.2045L13.4091 14.3636ZM26.879 26.1818C26.0911 26.1818 25.3998 25.9943 24.8051 25.6193C24.2142 25.2443 23.7521 24.7197 23.4187 24.0455C23.0892 23.3712 22.9244 22.5833 22.9244 21.6818C22.9244 20.7727 23.0892 19.9792 23.4187 19.3011C23.7521 18.6231 24.2142 18.0966 24.8051 17.7216C25.3998 17.3466 26.0911 17.1591 26.879 17.1591C27.6669 17.1591 28.3562 17.3466 28.9472 17.7216C29.5419 18.0966 30.004 18.6231 30.3335 19.3011C30.6669 19.9792 30.8335 20.7727 30.8335 21.6818C30.8335 22.5833 30.6669 23.3712 30.3335 24.0455C30.004 24.7197 29.5419 25.2443 28.9472 25.6193C28.3562 25.9943 27.6669 26.1818 26.879 26.1818ZM26.879 24.9773C27.4775 24.9773 27.9699 24.8239 28.3562 24.517C28.7426 24.2102 29.0286 23.8068 29.2142 23.3068C29.3998 22.8068 29.4926 22.2652 29.4926 21.6818C29.4926 21.0985 29.3998 20.5549 29.2142 20.0511C29.0286 19.5473 28.7426 19.1402 28.3562 18.8295C27.9699 18.5189 27.4775 18.3636 26.879 18.3636C26.2805 18.3636 25.7881 18.5189 25.4017 18.8295C25.0153 19.1402 24.7294 19.5473 24.5437 20.0511C24.3581 20.5549 24.2653 21.0985 24.2653 21.6818C24.2653 22.2652 24.3581 22.8068 24.5437 23.3068C24.7294 23.8068 25.0153 24.2102 25.4017 24.517C25.7881 24.8239 26.2805 24.9773 26.879 24.9773ZM38.0804 22.4318V17.2727H39.4213V26H38.0804V24.5227H37.9895C37.7849 24.9659 37.4668 25.3428 37.0349 25.6534C36.6031 25.9602 36.0577 26.1136 35.3986 26.1136C34.8531 26.1136 34.3683 25.9943 33.944 25.7557C33.5198 25.5133 33.1865 25.1496 32.944 24.6648C32.7016 24.1761 32.5804 23.5606 32.5804 22.8182V17.2727H33.9213V22.7273C33.9213 23.3636 34.0993 23.8712 34.4554 24.25C34.8152 24.6288 35.2736 24.8182 35.8304 24.8182C36.1637 24.8182 36.5027 24.733 36.8474 24.5625C37.1959 24.392 37.4876 24.1307 37.7224 23.7784C37.9611 23.4261 38.0804 22.9773 38.0804 22.4318ZM47.1182 20.75V26H45.7773V14.3636H47.1182V18.6364H47.2318C47.4364 18.1856 47.7432 17.8277 48.1523 17.5625C48.5652 17.2936 49.1144 17.1591 49.8 17.1591C50.3947 17.1591 50.9155 17.2784 51.3625 17.517C51.8095 17.7519 52.1561 18.1136 52.4023 18.6023C52.6523 19.0871 52.7773 19.7045 52.7773 20.4545V26H51.4364V20.5455C51.4364 19.8523 51.2564 19.3163 50.8966 18.9375C50.5405 18.5549 50.0462 18.3636 49.4136 18.3636C48.9742 18.3636 48.5803 18.4564 48.2318 18.642C47.8871 18.8277 47.6144 19.0985 47.4136 19.4545C47.2167 19.8106 47.1182 20.2424 47.1182 20.75ZM57.4986 26.2045C56.9455 26.2045 56.4437 26.1004 55.9929 25.892C55.5421 25.6799 55.1842 25.375 54.919 24.9773C54.6539 24.5758 54.5213 24.0909 54.5213 23.5227C54.5213 23.0227 54.6198 22.6174 54.8168 22.3068C55.0137 21.9924 55.277 21.7462 55.6065 21.5682C55.9361 21.3902 56.2997 21.2576 56.6974 21.1705C57.099 21.0795 57.5024 21.0076 57.9077 20.9545C58.438 20.8864 58.8679 20.8352 59.1974 20.8011C59.5308 20.7633 59.7732 20.7008 59.9247 20.6136C60.08 20.5265 60.1577 20.375 60.1577 20.1591V20.1136C60.1577 19.553 60.0043 19.1174 59.6974 18.8068C59.3944 18.4962 58.9342 18.3409 58.3168 18.3409C57.6766 18.3409 57.1747 18.4811 56.8111 18.7614C56.4474 19.0417 56.1918 19.3409 56.044 19.6591L54.7713 19.2045C54.9986 18.6742 55.3016 18.2614 55.6804 17.9659C56.063 17.6667 56.4796 17.4583 56.9304 17.3409C57.3849 17.2197 57.8319 17.1591 58.2713 17.1591C58.5516 17.1591 58.8736 17.1932 59.2372 17.2614C59.6046 17.3258 59.9588 17.4602 60.2997 17.6648C60.6444 17.8693 60.9304 18.178 61.1577 18.5909C61.3849 19.0038 61.4986 19.5568 61.4986 20.25V26H60.1577V24.8182H60.0895C59.9986 25.0076 59.8471 25.2102 59.6349 25.4261C59.4228 25.642 59.1406 25.8258 58.7884 25.9773C58.4361 26.1288 58.0062 26.2045 57.4986 26.2045ZM57.7031 25C58.2334 25 58.6804 24.8958 59.044 24.6875C59.4115 24.4792 59.688 24.2102 59.8736 23.8807C60.063 23.5511 60.1577 23.2045 60.1577 22.8409V21.6136C60.1009 21.6818 59.9759 21.7443 59.7827 21.8011C59.5933 21.8542 59.3736 21.9015 59.1236 21.9432C58.8774 21.9811 58.6368 22.0152 58.402 22.0455C58.1709 22.072 57.9834 22.0947 57.8395 22.1136C57.491 22.1591 57.1652 22.233 56.8622 22.3352C56.563 22.4337 56.3205 22.5833 56.1349 22.7841C55.9531 22.9811 55.8622 23.25 55.8622 23.5909C55.8622 24.0568 56.0346 24.4091 56.3793 24.6477C56.7277 24.8826 57.169 25 57.7031 25ZM70.4699 17.2727L67.2426 26H65.879L62.6517 17.2727H64.1063L66.5153 24.2273H66.6063L69.0153 17.2727H70.4699ZM75.2864 26.1818C74.4455 26.1818 73.7201 25.9962 73.1102 25.625C72.5042 25.25 72.0364 24.7273 71.7068 24.0568C71.3811 23.3826 71.2182 22.5985 71.2182 21.7045C71.2182 20.8106 71.3811 20.0227 71.7068 19.3409C72.0364 18.6553 72.4947 18.1212 73.0818 17.7386C73.6727 17.3523 74.3621 17.1591 75.15 17.1591C75.6045 17.1591 76.0534 17.2348 76.4966 17.3864C76.9398 17.5379 77.3432 17.7841 77.7068 18.125C78.0705 18.4621 78.3602 18.9091 78.5761 19.4659C78.792 20.0227 78.9 20.7083 78.9 21.5227V22.0909H72.1727V20.9318H77.5364C77.5364 20.4394 77.4379 20 77.2409 19.6136C77.0477 19.2273 76.7712 18.9223 76.4114 18.6989C76.0553 18.4754 75.6349 18.3636 75.15 18.3636C74.6159 18.3636 74.1538 18.4962 73.7636 18.7614C73.3773 19.0227 73.0799 19.3636 72.8716 19.7841C72.6633 20.2045 72.5591 20.6553 72.5591 21.1364V21.9091C72.5591 22.5682 72.6727 23.1269 72.9 23.5852C73.1311 24.0398 73.4511 24.3864 73.8602 24.625C74.2693 24.8598 74.7447 24.9773 75.2864 24.9773C75.6386 24.9773 75.9568 24.928 76.2409 24.8295C76.5288 24.7273 76.7769 24.5758 76.9852 24.375C77.1936 24.1705 77.3545 23.9167 77.4682 23.6136L78.7636 23.9773C78.6273 24.4167 78.3981 24.803 78.0761 25.1364C77.7542 25.4659 77.3564 25.7235 76.883 25.9091C76.4095 26.0909 75.8773 26.1818 75.2864 26.1818ZM91.0216 19.2273L89.817 19.5682C89.7413 19.3674 89.6295 19.1723 89.4818 18.983C89.3379 18.7898 89.1409 18.6307 88.8909 18.5057C88.6409 18.3807 88.3208 18.3182 87.9307 18.3182C87.3966 18.3182 86.9515 18.4413 86.5955 18.6875C86.2432 18.9299 86.067 19.2386 86.067 19.6136C86.067 19.947 86.1883 20.2102 86.4307 20.4034C86.6731 20.5966 87.0519 20.7576 87.567 20.8864L88.8625 21.2045C89.6428 21.3939 90.2242 21.6837 90.6068 22.0739C90.9894 22.4602 91.1807 22.9583 91.1807 23.5682C91.1807 24.0682 91.0367 24.5152 90.7489 24.9091C90.4648 25.303 90.067 25.6136 89.5557 25.8409C89.0443 26.0682 88.4496 26.1818 87.7716 26.1818C86.8814 26.1818 86.1447 25.9886 85.5614 25.6023C84.978 25.2159 84.6087 24.6515 84.4534 23.9091L85.7261 23.5909C85.8474 24.0606 86.0765 24.4129 86.4136 24.6477C86.7545 24.8826 87.1996 25 87.7489 25C88.3739 25 88.8701 24.8674 89.2375 24.6023C89.6087 24.3333 89.7943 24.0114 89.7943 23.6364C89.7943 23.3333 89.6883 23.0795 89.4761 22.875C89.264 22.6667 88.9383 22.5114 88.4989 22.4091L87.0443 22.0682C86.2451 21.8788 85.658 21.5852 85.283 21.1875C84.9117 20.786 84.7261 20.2841 84.7261 19.6818C84.7261 19.1894 84.8644 18.7538 85.1409 18.375C85.4212 17.9962 85.8019 17.6989 86.283 17.483C86.7678 17.267 87.317 17.1591 87.9307 17.1591C88.7943 17.1591 89.4724 17.3485 89.9648 17.7273C90.461 18.1061 90.8133 18.6061 91.0216 19.2273ZM96.5582 26.1818C95.7173 26.1818 94.992 25.9962 94.3821 25.625C93.776 25.25 93.3082 24.7273 92.9787 24.0568C92.6529 23.3826 92.4901 22.5985 92.4901 21.7045C92.4901 20.8106 92.6529 20.0227 92.9787 19.3409C93.3082 18.6553 93.7666 18.1212 94.3537 17.7386C94.9446 17.3523 95.634 17.1591 96.4219 17.1591C96.8764 17.1591 97.3253 17.2348 97.7685 17.3864C98.2116 17.5379 98.6151 17.7841 98.9787 18.125C99.3423 18.4621 99.6321 18.9091 99.848 19.4659C100.064 20.0227 100.172 20.7083 100.172 21.5227V22.0909H93.4446V20.9318H98.8082C98.8082 20.4394 98.7098 20 98.5128 19.6136C98.3196 19.2273 98.0431 18.9223 97.6832 18.6989C97.3272 18.4754 96.9067 18.3636 96.4219 18.3636C95.8878 18.3636 95.4257 18.4962 95.0355 18.7614C94.6491 19.0227 94.3518 19.3636 94.1435 19.7841C93.9351 20.2045 93.831 20.6553 93.831 21.1364V21.9091C93.831 22.5682 93.9446 23.1269 94.1719 23.5852C94.4029 24.0398 94.723 24.3864 95.1321 24.625C95.5412 24.8598 96.0166 24.9773 96.5582 24.9773C96.9105 24.9773 97.2287 24.928 97.5128 24.8295C97.8007 24.7273 98.0488 24.5758 98.2571 24.375C98.4654 24.1705 98.6264 23.9167 98.7401 23.6136L100.036 23.9773C99.8991 24.4167 99.67 24.803 99.348 25.1364C99.026 25.4659 98.6283 25.7235 98.1548 25.9091C97.6813 26.0909 97.1491 26.1818 96.5582 26.1818ZM103.253 20.75V26H101.912V17.2727H103.207V18.6364H103.321C103.525 18.1932 103.836 17.8371 104.253 17.5682C104.669 17.2955 105.207 17.1591 105.866 17.1591C106.457 17.1591 106.974 17.2803 107.417 17.5227C107.861 17.7614 108.205 18.125 108.451 18.6136C108.698 19.0985 108.821 19.7121 108.821 20.4545V26H107.48V20.5455C107.48 19.8598 107.302 19.3258 106.946 18.9432C106.59 18.5568 106.101 18.3636 105.48 18.3636C105.052 18.3636 104.669 18.4564 104.332 18.642C103.999 18.8277 103.736 19.0985 103.542 19.4545C103.349 19.8106 103.253 20.2424 103.253 20.75ZM114.766 17.2727V18.4091H110.244V17.2727H114.766ZM111.562 15.1818H112.903V23.5C112.903 23.8788 112.958 24.1629 113.068 24.3523C113.181 24.5379 113.325 24.6629 113.499 24.7273C113.677 24.7879 113.865 24.8182 114.062 24.8182C114.21 24.8182 114.331 24.8106 114.426 24.7955C114.52 24.7765 114.596 24.7614 114.653 24.75L114.926 25.9545C114.835 25.9886 114.708 26.0227 114.545 26.0568C114.382 26.0947 114.176 26.1136 113.926 26.1136C113.547 26.1136 113.176 26.0322 112.812 25.8693C112.452 25.7064 112.153 25.4583 111.914 25.125C111.679 24.7917 111.562 24.3712 111.562 23.8636V15.1818ZM124.752 14.3636V26H123.343V15.8409H123.274L120.434 17.7273V16.2955L123.343 14.3636H124.752ZM132.203 26V14.3636H139.226V15.6136H133.612V19.5455H138.862V20.7955H133.612V24.75H139.316V26H132.203ZM140.829 15.6136V14.3636H149.556V15.6136H145.897V26H144.488V15.6136H140.829ZM151.431 26V14.3636H152.84V19.5455H159.045V14.3636H160.454V26H159.045V20.7955H152.84V26H151.431ZM170.788 17.2727V18.4091H166.266V17.2727H170.788ZM167.584 15.1818H168.925V23.5C168.925 23.8788 168.98 24.1629 169.089 24.3523C169.203 24.5379 169.347 24.6629 169.521 24.7273C169.699 24.7879 169.887 24.8182 170.084 24.8182C170.232 24.8182 170.353 24.8106 170.447 24.7955C170.542 24.7765 170.618 24.7614 170.675 24.75L170.947 25.9545C170.857 25.9886 170.73 26.0227 170.567 26.0568C170.404 26.0947 170.197 26.1136 169.947 26.1136C169.569 26.1136 169.197 26.0322 168.834 25.8693C168.474 25.7064 168.175 25.4583 167.936 25.125C167.701 24.7917 167.584 24.3712 167.584 23.8636V15.1818ZM175.957 26.1818C175.169 26.1818 174.478 25.9943 173.883 25.6193C173.292 25.2443 172.83 24.7197 172.497 24.0455C172.167 23.3712 172.003 22.5833 172.003 21.6818C172.003 20.7727 172.167 19.9792 172.497 19.3011C172.83 18.6231 173.292 18.0966 173.883 17.7216C174.478 17.3466 175.169 17.1591 175.957 17.1591C176.745 17.1591 177.434 17.3466 178.025 17.7216C178.62 18.0966 179.082 18.6231 179.412 19.3011C179.745 19.9792 179.912 20.7727 179.912 21.6818C179.912 22.5833 179.745 23.3712 179.412 24.0455C179.082 24.7197 178.62 25.2443 178.025 25.6193C177.434 25.9943 176.745 26.1818 175.957 26.1818ZM175.957 24.9773C176.556 24.9773 177.048 24.8239 177.434 24.517C177.821 24.2102 178.107 23.8068 178.292 23.3068C178.478 22.8068 178.571 22.2652 178.571 21.6818C178.571 21.0985 178.478 20.5549 178.292 20.0511C178.107 19.5473 177.821 19.1402 177.434 18.8295C177.048 18.5189 176.556 18.3636 175.957 18.3636C175.359 18.3636 174.866 18.5189 174.48 18.8295C174.093 19.1402 173.807 19.5473 173.622 20.0511C173.436 20.5549 173.343 21.0985 173.343 21.6818C173.343 22.2652 173.436 22.8068 173.622 23.3068C173.807 23.8068 174.093 24.2102 174.48 24.517C174.866 24.8239 175.359 24.9773 175.957 24.9773ZM186.04 26V14.3636H187.449V20.1364H187.586L192.813 14.3636H194.654L189.768 19.6136L194.654 26H192.949L188.904 20.5909L187.449 22.2273V26H186.04ZM199.014 26.1818C198.174 26.1818 197.448 25.9962 196.838 25.625C196.232 25.25 195.764 24.7273 195.435 24.0568C195.109 23.3826 194.946 22.5985 194.946 21.7045C194.946 20.8106 195.109 20.0227 195.435 19.3409C195.764 18.6553 196.223 18.1212 196.81 17.7386C197.401 17.3523 198.09 17.1591 198.878 17.1591C199.333 17.1591 199.782 17.2348 200.225 17.3864C200.668 17.5379 201.071 17.7841 201.435 18.125C201.799 18.4621 202.088 18.9091 202.304 19.4659C202.52 20.0227 202.628 20.7083 202.628 21.5227V22.0909H195.901V20.9318H201.264C201.264 20.4394 201.166 20 200.969 19.6136C200.776 19.2273 200.499 18.9223 200.139 18.6989C199.783 18.4754 199.363 18.3636 198.878 18.3636C198.344 18.3636 197.882 18.4962 197.492 18.7614C197.105 19.0227 196.808 19.3636 196.6 19.7841C196.391 20.2045 196.287 20.6553 196.287 21.1364V21.9091C196.287 22.5682 196.401 23.1269 196.628 23.5852C196.859 24.0398 197.179 24.3864 197.588 24.625C197.997 24.8598 198.473 24.9773 199.014 24.9773C199.367 24.9773 199.685 24.928 199.969 24.8295C200.257 24.7273 200.505 24.5758 200.713 24.375C200.922 24.1705 201.083 23.9167 201.196 23.6136L202.492 23.9773C202.355 24.4167 202.126 24.803 201.804 25.1364C201.482 25.4659 201.085 25.7235 200.611 25.9091C200.138 26.0909 199.605 26.1818 199.014 26.1818ZM205.709 20.75V26H204.368V17.2727H205.663V18.6364H205.777C205.982 18.1932 206.292 17.8371 206.709 17.5682C207.125 17.2955 207.663 17.1591 208.322 17.1591C208.913 17.1591 209.43 17.2803 209.874 17.5227C210.317 17.7614 210.661 18.125 210.908 18.6136C211.154 19.0985 211.277 19.7121 211.277 20.4545V26H209.936V20.5455C209.936 19.8598 209.758 19.3258 209.402 18.9432C209.046 18.5568 208.557 18.3636 207.936 18.3636C207.508 18.3636 207.125 18.4564 206.788 18.642C206.455 18.8277 206.192 19.0985 205.999 19.4545C205.805 19.8106 205.709 20.2424 205.709 20.75ZM214.768 20.75V26H213.427V17.2727H214.723V18.6364H214.836C215.041 18.1932 215.352 17.8371 215.768 17.5682C216.185 17.2955 216.723 17.1591 217.382 17.1591C217.973 17.1591 218.49 17.2803 218.933 17.5227C219.376 17.7614 219.721 18.125 219.967 18.6136C220.213 19.0985 220.336 19.7121 220.336 20.4545V26H218.995V20.5455C218.995 19.8598 218.817 19.3258 218.461 18.9432C218.105 18.5568 217.617 18.3636 216.995 18.3636C216.567 18.3636 216.185 18.4564 215.848 18.642C215.514 18.8277 215.251 19.0985 215.058 19.4545C214.865 19.8106 214.768 20.2424 214.768 20.75ZM223.038 29.25C222.811 29.25 222.608 29.2311 222.43 29.1932C222.252 29.1591 222.129 29.125 222.061 29.0909L222.401 27.9091C222.89 28.0341 223.297 28.0303 223.623 27.8977C223.949 27.7689 224.231 27.3788 224.47 26.7273L224.72 26.0455L221.492 17.2727H222.947L225.356 24.2273H225.447L227.856 17.2727L229.322 17.2955L225.606 27.2727C225.439 27.7159 225.233 28.0833 224.987 28.375C224.74 28.6705 224.454 28.8902 224.129 29.0341C223.807 29.178 223.443 29.25 223.038 29.25ZM243.132 18C243.007 17.6174 242.843 17.2746 242.638 16.9716C242.437 16.6648 242.197 16.4034 241.916 16.1875C241.64 15.9716 241.326 15.8068 240.973 15.6932C240.621 15.5795 240.235 15.5227 239.814 15.5227C239.125 15.5227 238.498 15.7008 237.934 16.0568C237.369 16.4129 236.92 16.9375 236.587 17.6307C236.254 18.3239 236.087 19.1742 236.087 20.1818C236.087 21.1894 236.255 22.0398 236.593 22.733C236.93 23.4261 237.386 23.9508 237.962 24.3068C238.538 24.6629 239.185 24.8409 239.905 24.8409C240.572 24.8409 241.159 24.6989 241.666 24.4148C242.178 24.1269 242.576 23.7216 242.86 23.1989C243.148 22.6723 243.291 22.053 243.291 21.3409L243.723 21.4318H240.223V20.1818H244.655V21.4318C244.655 22.3902 244.451 23.2235 244.041 23.9318C243.636 24.6402 243.076 25.1894 242.36 25.5795C241.648 25.9659 240.829 26.1591 239.905 26.1591C238.875 26.1591 237.97 25.9167 237.189 25.4318C236.413 24.947 235.807 24.2576 235.371 23.3636C234.939 22.4697 234.723 21.4091 234.723 20.1818C234.723 19.2614 234.846 18.4337 235.093 17.6989C235.343 16.9602 235.695 16.3314 236.149 15.8125C236.604 15.2936 237.142 14.8958 237.763 14.6193C238.384 14.3428 239.068 14.2045 239.814 14.2045C240.428 14.2045 241 14.2973 241.53 14.483C242.064 14.6648 242.54 14.9242 242.956 15.2614C243.377 15.5947 243.727 15.9943 244.007 16.4602C244.288 16.9223 244.481 17.4356 244.587 18H243.132ZM247.564 26.0909C247.284 26.0909 247.043 25.9905 246.842 25.7898C246.642 25.589 246.541 25.3485 246.541 25.0682C246.541 24.7879 246.642 24.5473 246.842 24.3466C247.043 24.1458 247.284 24.0455 247.564 24.0455C247.844 24.0455 248.085 24.1458 248.286 24.3466C248.486 24.5473 248.587 24.7879 248.587 25.0682C248.587 25.2538 248.539 25.4242 248.445 25.5795C248.354 25.7348 248.231 25.8598 248.075 25.9545C247.924 26.0455 247.753 26.0909 247.564 26.0909Z" fill="black"/>
<defs>
<filter id="filter0_d" x="0" y="0" width="263" height="42" filterUnits="userSpaceOnUse" color-interpolation-filters="sRGB">
<feFlood flood-opacity="0" result="BackgroundImageFix"/>
<feColorMatrix in="SourceAlpha" type="matrix" values="0 0 0 0 0 0 0 0 0 0 0 0 0 0 0 0 0 0 127 0"/>
<feOffset dy="1"/>
<feGaussianBlur stdDeviation="0.5"/>
<feColorMatrix type="matrix" values="0 0 0 0 0.14902 0 0 0 0 0.207843 0 0 0 0 0.25098 0 0 0 0.3 0"/>
<feBlend mode="multiply" in2="BackgroundImageFix" result="effect1_dropShadow"/>
<feBlend mode="normal" in="SourceGraphic" in2="effect1_dropShadow" result="shape"/>
</filter>
</defs>
</svg>
