<svg width="48" height="49" viewBox="0 0 48 49" fill="none" xmlns="http://www.w3.org/2000/svg">
<circle cx="24.0004" cy="24.5" r="21.6" fill="#00B900"/>
<path d="M40.2 23.8928C40.2 16.6628 32.9699 10.7976 24.08 10.7976C15.19 10.7976 7.95996 16.6628 7.95996 23.8928C7.95996 30.3482 13.6776 35.7707 21.424 36.8036C21.9405 36.9142 22.6782 37.1355 22.8258 37.6151C22.9733 38.0209 22.9364 38.6479 22.8627 39.0906C22.8627 39.0906 22.6782 40.2341 22.6413 40.4555C22.5676 40.8612 22.3093 42.0416 24.0431 41.3408C25.7768 40.603 33.3388 35.8814 36.6956 31.9712C39.0933 29.3891 40.2 26.7701 40.2 23.8928Z" fill="white"/>
<path d="M20.7973 20.4253H19.6538C19.4693 20.4253 19.3218 20.5728 19.3218 20.7204V27.7291C19.3218 27.9135 19.4693 28.0242 19.6538 28.0242H20.7973C20.9817 28.0242 21.1293 27.8766 21.1293 27.7291V20.7204C21.1293 20.5728 20.9817 20.4253 20.7973 20.4253Z" fill="#00B900"/>
<path d="M28.5807 20.4253H27.4741C27.2897 20.4253 27.1421 20.5728 27.1421 20.7204V24.8887L23.9329 20.536C23.9329 20.536 23.9329 20.4991 23.896 20.4991C23.896 20.4991 23.896 20.4991 23.8591 20.4622C23.8591 20.4622 23.8591 20.4622 23.8222 20.4622H22.6787C22.4942 20.4622 22.3467 20.6097 22.3467 20.7573V27.766C22.3467 27.9504 22.4942 28.0611 22.6787 28.0611H23.8222C24.0066 28.0611 24.1542 27.9135 24.1542 27.766V23.5977L27.3634 27.9504C27.4003 27.9873 27.4003 28.0242 27.4372 28.0242C27.4372 28.0242 27.4372 28.0242 27.4741 28.0242C27.4741 28.0242 27.4741 28.0242 27.511 28.0242C27.5479 28.0242 27.5479 28.0242 27.5848 28.0242H28.5807C28.7652 28.0242 28.9127 27.8766 28.9127 27.7291V20.7204C28.9127 20.5728 28.7652 20.4253 28.5807 20.4253Z" fill="#00B900"/>
<path d="M18.0674 26.2905H15.0057V20.7204C15.0057 20.536 14.8582 20.3884 14.6738 20.3884H13.5302C13.3458 20.3884 13.1982 20.536 13.1982 20.7204V27.7291C13.1982 27.8029 13.2351 27.8767 13.272 27.9504C13.3458 27.9873 13.4196 28.0242 13.4933 28.0242H17.9937C18.1781 28.0242 18.2888 27.8767 18.2888 27.6922V26.5487C18.3994 26.438 18.2519 26.2905 18.0674 26.2905Z" fill="#00B900"/>
<path d="M34.815 22.1591C34.9994 22.1591 35.1101 22.0115 35.1101 21.8271V20.6836C35.1101 20.4991 34.9625 20.3516 34.815 20.3516H30.3146C30.2409 20.3516 30.1671 20.3885 30.0933 20.4253C30.0564 20.4991 30.0195 20.5729 30.0195 20.6467V27.6554C30.0195 27.7291 30.0564 27.8029 30.0933 27.8767C30.1671 27.9136 30.2409 27.9505 30.3146 27.9505H34.815C34.9994 27.9505 35.1101 27.8029 35.1101 27.6185V26.4749C35.1101 26.2905 34.9625 26.143 34.815 26.143H31.7533V25.1101H34.815C34.9994 25.1101 35.1101 24.9625 35.1101 24.7781V23.6346C35.1101 23.4501 34.9625 23.3026 34.815 23.3026H31.7533V22.1591H34.815Z" fill="#00B900"/>
</svg>
