<svg width="75" height="75" viewBox="0 0 75 75" fill="none" xmlns="http://www.w3.org/2000/svg">
<circle cx="37.5" cy="37.5" r="33.75" fill="#00B900"/>
<path d="M62.8125 36.5511C62.8125 25.2542 51.5156 16.0898 37.625 16.0898C23.7344 16.0898 12.4375 25.2542 12.4375 36.5511C12.4375 46.6376 21.3713 55.1103 33.4751 56.7241C34.282 56.897 35.4348 57.2429 35.6653 57.9922C35.8959 58.6262 35.8382 59.606 35.723 60.2976C35.723 60.2976 35.4348 62.0844 35.3771 62.4302C35.2619 63.0642 34.8584 64.9086 37.5674 63.8135C40.2763 62.6608 52.092 55.2832 57.337 49.1736C61.0834 45.139 62.8125 41.0468 62.8125 36.5511Z" fill="white"/>
<path d="M32.4969 31.1333H30.7101C30.422 31.1333 30.1914 31.3638 30.1914 31.5944V42.5455C30.1914 42.8337 30.422 43.0066 30.7101 43.0066H32.4969C32.7851 43.0066 33.0156 42.776 33.0156 42.5455V31.5944C33.0156 31.3638 32.7851 31.1333 32.4969 31.1333Z" fill="#00B900"/>
<path d="M44.6587 31.1333H42.9296C42.6414 31.1333 42.4108 31.3638 42.4108 31.5944V38.1074L37.3964 31.3062C37.3964 31.3062 37.3964 31.2486 37.3387 31.2486C37.3387 31.2486 37.3387 31.2486 37.2811 31.1909C37.2811 31.1909 37.2811 31.1909 37.2235 31.1909H35.4367C35.1485 31.1909 34.918 31.4215 34.918 31.652V42.6031C34.918 42.8913 35.1485 43.0642 35.4367 43.0642H37.2235C37.5116 43.0642 37.7422 42.8337 37.7422 42.6031V36.0901L42.7566 42.8913C42.8143 42.9489 42.8143 43.0066 42.8719 43.0066C42.8719 43.0066 42.8719 43.0066 42.9296 43.0066C42.9296 43.0066 42.9296 43.0066 42.9872 43.0066C43.0448 43.0066 43.0448 43.0066 43.1025 43.0066H44.6587C44.9469 43.0066 45.1774 42.776 45.1774 42.5455V31.5944C45.1774 31.3638 44.9469 31.1333 44.6587 31.1333Z" fill="#00B900"/>
<path d="M28.2331 40.2976H23.4492V31.5944C23.4492 31.3062 23.2187 31.0757 22.9305 31.0757H21.1437C20.8555 31.0757 20.625 31.3062 20.625 31.5944V42.5455C20.625 42.6608 20.6826 42.776 20.7403 42.8913C20.8555 42.949 20.9708 43.0066 21.0861 43.0066H28.1178C28.406 43.0066 28.5789 42.7761 28.5789 42.4879V40.7011C28.7519 40.5282 28.5213 40.2976 28.2331 40.2976Z" fill="#00B900"/>
<path d="M54.3991 33.8423C54.6873 33.8423 54.8602 33.6117 54.8602 33.3236V31.5368C54.8602 31.2486 54.6296 31.0181 54.3991 31.0181H47.3673C47.2521 31.0181 47.1368 31.0757 47.0215 31.1333C46.9639 31.2486 46.9062 31.3639 46.9062 31.4792V42.4303C46.9062 42.5455 46.9639 42.6608 47.0215 42.7761C47.1368 42.8337 47.2521 42.8913 47.3673 42.8913H54.3991C54.6873 42.8913 54.8602 42.6608 54.8602 42.3726V40.5859C54.8602 40.2977 54.6296 40.0671 54.3991 40.0671H49.6152V38.4533H54.3991C54.6873 38.4533 54.8602 38.2227 54.8602 37.9345V36.1478C54.8602 35.8596 54.6296 35.629 54.3991 35.629H49.6152V33.8423H54.3991Z" fill="#00B900"/>
</svg>
