<svg width="77" height="40" viewBox="0 0 77 40" fill="none" xmlns="http://www.w3.org/2000/svg">
<path d="M57.8625 14.2847C58.8901 14.9182 59.5517 13.1023 59.7629 12.1451C59.9741 11.1879 60.0726 9.27347 58.7353 9.65354C57.4684 10.0195 56.3 10.7656 56.5112 12.1873C56.7223 13.609 57.0039 14.2988 57.8625 14.2847Z" fill="#30DFC4"/>
<path d="M27.5844 32.1619C29.3298 30.1631 34.8197 23.3359 38.0291 21.5764C39.4086 20.8303 40.6051 20.7177 41.8579 21.3089C42.7447 21.7312 43.2937 22.5758 43.2374 23.7864C43.1811 25.1237 42.8714 28.5161 42.8714 29.4311C42.8714 29.8815 42.9418 30.2616 43.1811 30.2616C43.3782 30.2616 43.9694 29.7126 44.3354 29.3607C47.6011 26.3202 50.5994 22.4914 53.5414 18.6344C54.3578 17.5646 55.1461 17.1986 56.0048 17.3393C57.1309 17.5223 58.1867 18.5781 57.7784 19.7887C56.3145 24.2791 56.962 25.7008 57.8066 25.7008C59.3409 25.7149 62.7052 23.8849 66.4636 20.3095C69.5323 17.3393 72.2068 13.9751 74.3887 10.3011C74.7265 9.73802 75.0503 9.0905 75.6133 9.11865C76.0779 9.1468 76.3172 9.58318 76.1201 10.7375C75.5289 14.3692 72.6995 18.7892 69.2508 22.3787C65.6472 26.109 61.3679 28.9243 58.257 28.9243C54.7942 28.9243 54.0341 25.5037 53.1754 25.5037C52.9502 25.5037 52.6405 25.7571 52.1197 26.3905C50.8669 27.8967 46.1512 34.02 43.0685 34.0341C40.3095 34.0482 38.4092 32.0915 38.4514 29.3185C38.4655 28.3472 38.6766 27.024 38.7048 26.0386C38.7189 25.8134 38.6766 25.6867 38.6063 25.6586C38.5359 25.6304 38.4092 25.6867 38.2403 25.8134C35.6643 27.8967 27.7955 37.0465 26.233 39.0594C25.7544 39.6788 24.8254 40.2278 23.8259 39.904C22.925 39.6225 22.6294 38.7216 22.5731 37.8207C22.4464 35.9485 22.911 33.5273 23.0095 32.9502C23.1643 32.0634 23.3333 31.3033 23.2347 31.3033C23.1362 31.3033 22.7139 31.5989 22.4324 31.7819C20.5883 32.9924 14.2258 37.5532 7.34236 37.3984C4.35814 37.3843 2.21851 36.6383 0.824941 35.4417C0.430799 35.1039 0.360417 34.7661 0.487105 34.5268C0.613794 34.2875 0.923477 34.1608 1.30354 34.2734C2.47189 34.5972 5.04789 35.2728 9.67906 34.1326C16.0416 32.5701 22.8547 27.3055 24.389 26.1935C24.6283 26.0105 24.7972 25.7571 24.8817 25.4756C25.7403 22.5477 27.4154 16.1569 30.7375 10.287C34.3129 3.98072 38.6063 -0.46746 42.238 0.0392948C45.1518 0.433437 45.4052 3.53027 45.0814 5.06461C44.3354 8.55559 41.7875 12.5392 38.8596 16.1991C34.693 21.4075 29.7521 25.9683 28.0348 27.5589C27.9644 27.6293 27.894 27.6997 27.8518 27.7841C27.8237 27.8686 27.7674 28.136 27.7392 28.2909C27.4858 29.6281 27.2747 30.6135 27.0072 31.993C26.9791 32.1478 26.9087 32.4857 27.0635 32.542C27.2184 32.5983 27.4577 32.3168 27.5844 32.1619ZM29.6818 21.2948C29.7521 21.3089 29.9774 21.0415 30.6671 20.3658C32.6237 18.4655 38.2684 11.765 40.5207 6.50042C40.8866 5.64175 41.9846 3.2769 41.1682 3.20651C40.6473 3.16428 39.4508 3.74142 37.6631 5.68398C34.5663 9.04827 31.3428 16.4807 30.09 20.0139C29.907 20.5629 29.6254 21.2667 29.6818 21.2948Z" fill="#002855"/>
</svg>
