<svg width="25" height="24" viewBox="0 0 25 24" fill="none" xmlns="http://www.w3.org/2000/svg">
<g clip-path="url(#clip0)">
<path d="M1.94298 1.68104C1.54266 1.68104 1.21924 2.00355 1.21924 2.40385V21.5964C1.21924 21.9958 1.54269 22.3192 1.94205 22.3192H23.0572C23.4566 22.3192 23.7801 21.9958 23.7801 21.5964C23.7801 21.2055 23.4566 20.882 23.0572 20.882H2.65629V2.40298C2.65629 2.0036 2.33284 1.68018 1.9419 1.68018L1.94298 1.68104ZM16.3391 6.23816C15.9051 6.23816 15.5657 6.64597 15.5826 6.99471C15.5995 7.37722 15.9651 7.70065 16.3391 7.67533H18.3717L11.9855 13.6792L9.69801 11.7657C9.55363 11.596 9.32394 11.4938 9.09426 11.5107C8.93301 11.5192 8.77926 11.5876 8.66113 11.6982L3.85561 16.0182C3.56687 16.2648 3.52374 16.7663 3.78718 17.056C4.04218 17.3448 4.54373 17.3626 4.81656 17.0898L9.16176 13.1859L11.4746 15.1078C11.7211 15.405 12.2311 15.4313 12.5124 15.1669L19.4601 8.63623V10.7962C19.4517 11.1787 19.8005 11.5275 20.1829 11.5275C20.557 11.5275 20.9058 11.1787 20.8973 10.7962V6.96103C20.8973 6.57852 20.557 6.23822 20.1829 6.23822L16.3391 6.23816Z" fill="#30DFC4"/>
</g>
<defs>
<clipPath id="clip0">
<rect width="24" height="24" fill="white" transform="translate(0.5)"/>
</clipPath>
</defs>
</svg>
