<svg width="48" height="48" viewBox="0 0 48 48" fill="none" xmlns="http://www.w3.org/2000/svg">
<path d="M24 48C37.2548 48 48 37.2548 48 24C48 10.7452 37.2548 0 24 0C10.7452 0 0 10.7452 0 24C0 37.2548 10.7452 48 24 48Z" fill="#9DACFF"/>
<path d="M35.8371 15.1221C35.8371 15.1221 32.4413 12.4661 28.4388 12.1628L28.0763 12.8878C31.694 13.7756 33.3587 15.0407 35.0972 16.6017C32.1009 15.0703 29.149 13.6424 23.9998 13.6424C18.8506 13.6424 15.8987 15.0703 12.9024 16.6017C14.641 15.0407 16.6164 13.6276 19.9234 12.8878L19.5609 12.1628C15.3587 12.5549 12.1626 15.1221 12.1626 15.1221C12.1626 15.1221 8.37468 20.619 7.72363 31.3983C11.5411 35.8003 17.3414 35.8372 17.3414 35.8372L18.5547 34.2244C16.498 33.5068 14.1749 32.2269 12.1626 29.9186C14.5596 31.7312 18.17 33.6178 23.9998 33.6178C29.8297 33.6178 33.44 31.7312 35.8371 29.9186C33.8247 32.2269 31.5091 33.5068 29.445 34.2244L30.6583 35.8372C30.6583 35.8372 36.4585 35.8003 40.276 31.3983C39.625 20.619 35.8371 15.1221 35.8371 15.1221ZM19.191 28.439C17.7631 28.439 16.6016 27.1147 16.6016 25.4797C16.6016 23.8446 17.7631 22.5203 19.191 22.5203C20.6188 22.5203 21.7804 23.8446 21.7804 25.4797C21.7804 27.1147 20.6262 28.439 19.191 28.439ZM28.8087 28.439C27.3808 28.439 26.2193 27.1147 26.2193 25.4797C26.2193 23.8446 27.3808 22.5203 28.8087 22.5203C30.2366 22.5203 31.3981 23.8446 31.3981 25.4797C31.3981 27.1147 30.244 28.439 28.8087 28.439Z" fill="white" fill-opacity="0.3"/>
<path d="M12.0273 22.1713C11.9953 21.849 11.8582 21.5986 11.6158 21.4202C11.3734 21.2417 11.0445 21.1525 10.629 21.1525C10.3467 21.1525 10.1083 21.1925 9.91391 21.2724C9.71948 21.3496 9.57033 21.4575 9.46646 21.596C9.36526 21.7345 9.31465 21.8916 9.31465 22.0674C9.30933 22.2139 9.33995 22.3417 9.40654 22.4509C9.47579 22.5601 9.57033 22.6547 9.69019 22.7346C9.81004 22.8118 9.94853 22.8797 10.1057 22.9383C10.2628 22.9942 10.4306 23.0422 10.609 23.0821L11.3441 23.2579C11.701 23.3378 12.0286 23.4443 12.3269 23.5775C12.6252 23.7107 12.8835 23.8745 13.1019 24.0689C13.3203 24.2633 13.4895 24.4924 13.6093 24.756C13.7318 25.0197 13.7944 25.322 13.7971 25.6629C13.7944 26.1636 13.6666 26.5977 13.4136 26.9653C13.1632 27.3302 12.801 27.6138 12.3269 27.8162C11.8555 28.016 11.2869 28.1159 10.621 28.1159C9.96052 28.1159 9.38523 28.0146 8.89517 27.8122C8.40778 27.6098 8.02692 27.3102 7.7526 26.9134C7.48093 26.5138 7.33845 26.0198 7.32513 25.4312H8.99905C9.01769 25.7055 9.09626 25.9346 9.23475 26.1183C9.37591 26.2994 9.56368 26.4366 9.79805 26.5298C10.0351 26.6204 10.3028 26.6657 10.6011 26.6657C10.894 26.6657 11.1484 26.623 11.3641 26.5378C11.5825 26.4526 11.7516 26.3341 11.8715 26.1823C11.9913 26.0305 12.0512 25.856 12.0512 25.6589C12.0512 25.4751 11.9966 25.3207 11.8875 25.1955C11.7809 25.0703 11.6238 24.9638 11.416 24.8759C11.211 24.788 10.9593 24.7081 10.661 24.6362L9.77009 24.4125C9.08028 24.2447 8.53562 23.9823 8.13612 23.6254C7.73662 23.2686 7.5382 22.7878 7.54086 22.1832C7.5382 21.6879 7.67003 21.2551 7.93637 20.8849C8.20537 20.5146 8.57424 20.2257 9.04299 20.0179C9.51174 19.8102 10.0444 19.7063 10.641 19.7063C11.2482 19.7063 11.7783 19.8102 12.231 20.0179C12.6865 20.2257 13.0407 20.5146 13.2937 20.8849C13.5467 21.2551 13.6772 21.6839 13.6852 22.1713H12.0273ZM22.4793 23.9091C22.4793 24.8013 22.3101 25.5604 21.9719 26.1863C21.6363 26.8121 21.1782 27.2902 20.5976 27.6205C20.0197 27.9481 19.3698 28.1119 18.648 28.1119C17.9209 28.1119 17.2684 27.9467 16.6905 27.6165C16.1125 27.2862 15.6558 26.8081 15.3202 26.1823C14.9846 25.5564 14.8168 24.7987 14.8168 23.9091C14.8168 23.0169 14.9846 22.2578 15.3202 21.6319C15.6558 21.006 16.1125 20.5293 16.6905 20.2017C17.2684 19.8714 17.9209 19.7063 18.648 19.7063C19.3698 19.7063 20.0197 19.8714 20.5976 20.2017C21.1782 20.5293 21.6363 21.006 21.9719 21.6319C22.3101 22.2578 22.4793 23.0169 22.4793 23.9091ZM20.7255 23.9091C20.7255 23.3311 20.6389 22.8437 20.4658 22.4469C20.2953 22.0501 20.0543 21.7491 19.7427 21.544C19.4311 21.339 19.0662 21.2364 18.648 21.2364C18.2299 21.2364 17.865 21.339 17.5534 21.544C17.2418 21.7491 16.9994 22.0501 16.8263 22.4469C16.6559 22.8437 16.5706 23.3311 16.5706 23.9091C16.5706 24.487 16.6559 24.9744 16.8263 25.3713C16.9994 25.7681 17.2418 26.0691 17.5534 26.2741C17.865 26.4792 18.2299 26.5818 18.648 26.5818C19.0662 26.5818 19.4311 26.4792 19.7427 26.2741C20.0543 26.0691 20.2953 25.7681 20.4658 25.3713C20.6389 24.9744 20.7255 24.487 20.7255 23.9091ZM31.2793 23.9091C31.2793 24.8013 31.1102 25.5604 30.772 26.1863C30.4364 26.8121 29.9783 27.2902 29.3977 27.6205C28.8197 27.9481 28.1699 28.1119 27.4481 28.1119C26.721 28.1119 26.0685 27.9467 25.4905 27.6165C24.9126 27.2862 24.4558 26.8081 24.1202 26.1823C23.7846 25.5564 23.6169 24.7987 23.6169 23.9091C23.6169 23.0169 23.7846 22.2578 24.1202 21.6319C24.4558 21.006 24.9126 20.5293 25.4905 20.2017C26.0685 19.8714 26.721 19.7063 27.4481 19.7063C28.1699 19.7063 28.8197 19.8714 29.3977 20.2017C29.9783 20.5293 30.4364 21.006 30.772 21.6319C31.1102 22.2578 31.2793 23.0169 31.2793 23.9091ZM29.5255 23.9091C29.5255 23.3311 29.4389 22.8437 29.2658 22.4469C29.0954 22.0501 28.8543 21.7491 28.5427 21.544C28.2311 21.339 27.8662 21.2364 27.4481 21.2364C27.0299 21.2364 26.6651 21.339 26.3534 21.544C26.0418 21.7491 25.7995 22.0501 25.6264 22.4469C25.4559 22.8437 25.3707 23.3311 25.3707 23.9091C25.3707 24.487 25.4559 24.9744 25.6264 25.3713C25.7995 25.7681 26.0418 26.0691 26.3534 26.2741C26.6651 26.4792 27.0299 26.5818 27.4481 26.5818C27.8662 26.5818 28.2311 26.4792 28.5427 26.2741C28.8543 26.0691 29.0954 25.7681 29.2658 25.3713C29.4389 24.9744 29.5255 24.487 29.5255 23.9091ZM39.4042 19.8182V28H37.9101L34.3505 22.8504H34.2906V28H32.5607V19.8182H34.0788L37.6104 24.9638H37.6824V19.8182H39.4042Z" fill="#3547A9"/>
</svg>
