<svg width="48" height="48" viewBox="0 0 48 48" fill="none" xmlns="http://www.w3.org/2000/svg">
<circle cx="23.9999" cy="24" r="21.6" fill="#00B900"/>
<path d="M40.2 23.3928C40.2 16.1628 32.9699 10.2976 24.08 10.2976C15.19 10.2976 7.95996 16.1628 7.95996 23.3928C7.95996 29.8482 13.6776 35.2707 21.424 36.3036C21.9405 36.4142 22.6782 36.6355 22.8258 37.1151C22.9733 37.5209 22.9364 38.1479 22.8627 38.5906C22.8627 38.5906 22.6782 39.7341 22.6413 39.9555C22.5676 40.3612 22.3093 41.5416 24.0431 40.8408C25.7768 40.103 33.3388 35.3814 36.6956 31.4712C39.0933 28.8891 40.2 26.2701 40.2 23.3928Z" fill="white" fill-opacity="0.4"/>
<path d="M20.7978 19.9254H19.6543C19.4698 19.9254 19.3223 20.073 19.3223 20.2205V27.2292C19.3223 27.4136 19.4698 27.5243 19.6543 27.5243H20.7978C20.9822 27.5243 21.1298 27.3767 21.1298 27.2292V20.2205C21.1298 20.073 20.9822 19.9254 20.7978 19.9254Z" fill="#00B900"/>
<path d="M28.5812 19.9254H27.4746C27.2901 19.9254 27.1426 20.073 27.1426 20.2205V24.3888L23.9333 20.0361C23.9333 20.0361 23.9333 19.9992 23.8965 19.9992C23.8965 19.9992 23.8965 19.9992 23.8596 19.9623C23.8596 19.9623 23.8596 19.9623 23.8227 19.9623H22.6792C22.4947 19.9623 22.3472 20.1098 22.3472 20.2574V27.2661C22.3472 27.4505 22.4947 27.5612 22.6792 27.5612H23.8227C24.0071 27.5612 24.1547 27.4136 24.1547 27.2661V23.0978L27.3639 27.4505C27.4008 27.4874 27.4008 27.5243 27.4377 27.5243C27.4377 27.5243 27.4377 27.5243 27.4746 27.5243C27.4746 27.5243 27.4746 27.5243 27.5115 27.5243C27.5484 27.5243 27.5484 27.5243 27.5852 27.5243H28.5812C28.7657 27.5243 28.9132 27.3767 28.9132 27.2292V20.2205C28.9132 20.073 28.7657 19.9254 28.5812 19.9254Z" fill="#00B900"/>
<path d="M18.0679 25.7906H15.0062V20.2205C15.0062 20.0361 14.8587 19.8885 14.6742 19.8885H13.5307C13.3463 19.8885 13.1987 20.0361 13.1987 20.2205V27.2292C13.1987 27.303 13.2356 27.3768 13.2725 27.4505C13.3463 27.4874 13.4201 27.5243 13.4938 27.5243H17.9942C18.1786 27.5243 18.2893 27.3768 18.2893 27.1923V26.0488C18.3999 25.9381 18.2524 25.7906 18.0679 25.7906Z" fill="#00B900"/>
<path d="M34.8154 21.6592C34.9999 21.6592 35.1105 21.5116 35.1105 21.3272V20.1836C35.1105 19.9992 34.963 19.8517 34.8154 19.8517H30.3151C30.2413 19.8517 30.1676 19.8885 30.0938 19.9254C30.0569 19.9992 30.02 20.073 30.02 20.1468V27.1555C30.02 27.2292 30.0569 27.303 30.0938 27.3768C30.1676 27.4137 30.2413 27.4506 30.3151 27.4506H34.8154C34.9999 27.4506 35.1105 27.303 35.1105 27.1186V25.975C35.1105 25.7906 34.963 25.643 34.8154 25.643H31.7537V24.6102H34.8154C34.9999 24.6102 35.1105 24.4626 35.1105 24.2782V23.1347C35.1105 22.9502 34.963 22.8027 34.8154 22.8027H31.7537V21.6592H34.8154Z" fill="#00B900"/>
<path d="M12.0273 21.4214C11.9953 21.0992 11.8582 20.8488 11.6158 20.6704C11.3734 20.4919 11.0445 20.4027 10.629 20.4027C10.3467 20.4027 10.1083 20.4427 9.91391 20.5226C9.71948 20.5998 9.57033 20.7077 9.46646 20.8462C9.36526 20.9846 9.31465 21.1418 9.31465 21.3176C9.30933 21.4641 9.33995 21.5919 9.40654 21.7011C9.47579 21.8103 9.57033 21.9048 9.69019 21.9847C9.81004 22.062 9.94853 22.1299 10.1057 22.1885C10.2628 22.2444 10.4306 22.2924 10.609 22.3323L11.3441 22.5081C11.701 22.588 12.0286 22.6945 12.3269 22.8277C12.6252 22.9609 12.8835 23.1247 13.1019 23.3191C13.3203 23.5135 13.4895 23.7425 13.6093 24.0062C13.7318 24.2699 13.7944 24.5722 13.7971 24.9131C13.7944 25.4138 13.6666 25.8479 13.4136 26.2155C13.1632 26.5803 12.801 26.864 12.3269 27.0664C11.8555 27.2662 11.2869 27.366 10.621 27.366C9.96052 27.366 9.38523 27.2648 8.89517 27.0624C8.40778 26.86 8.02692 26.5604 7.7526 26.1635C7.48093 25.764 7.33845 25.27 7.32513 24.6814H8.99905C9.01769 24.9557 9.09626 25.1848 9.23475 25.3685C9.37591 25.5496 9.56368 25.6868 9.79805 25.78C10.0351 25.8706 10.3028 25.9158 10.6011 25.9158C10.894 25.9158 11.1484 25.8732 11.3641 25.788C11.5825 25.7028 11.7516 25.5843 11.8715 25.4324C11.9913 25.2806 12.0512 25.1062 12.0512 24.9091C12.0512 24.7253 11.9966 24.5709 11.8875 24.4457C11.7809 24.3205 11.6238 24.214 11.416 24.1261C11.211 24.0382 10.9593 23.9583 10.661 23.8864L9.77009 23.6626C9.08028 23.4949 8.53562 23.2325 8.13612 22.8756C7.73662 22.5187 7.5382 22.038 7.54086 21.4334C7.5382 20.938 7.67003 20.5052 7.93637 20.135C8.20537 19.7648 8.57424 19.4759 9.04299 19.2681C9.51174 19.0604 10.0444 18.9565 10.641 18.9565C11.2482 18.9565 11.7783 19.0604 12.231 19.2681C12.6865 19.4759 13.0407 19.7648 13.2937 20.135C13.5467 20.5052 13.6772 20.934 13.6852 21.4214H12.0273ZM22.4793 23.1593C22.4793 24.0515 22.3101 24.8106 21.9719 25.4364C21.6363 26.0623 21.1782 26.5404 20.5976 26.8707C20.0197 27.1982 19.3698 27.362 18.648 27.362C17.9209 27.362 17.2684 27.1969 16.6905 26.8667C16.1125 26.5364 15.6558 26.0583 15.3202 25.4324C14.9846 24.8066 14.8168 24.0488 14.8168 23.1593C14.8168 22.2671 14.9846 21.508 15.3202 20.8821C15.6558 20.2562 16.1125 19.7795 16.6905 19.4519C17.2684 19.1216 17.9209 18.9565 18.648 18.9565C19.3698 18.9565 20.0197 19.1216 20.5976 19.4519C21.1782 19.7795 21.6363 20.2562 21.9719 20.8821C22.3101 21.508 22.4793 22.2671 22.4793 23.1593ZM20.7255 23.1593C20.7255 22.5813 20.6389 22.0939 20.4658 21.6971C20.2953 21.3003 20.0543 20.9993 19.7427 20.7942C19.4311 20.5891 19.0662 20.4866 18.648 20.4866C18.2299 20.4866 17.865 20.5891 17.5534 20.7942C17.2418 20.9993 16.9994 21.3003 16.8263 21.6971C16.6559 22.0939 16.5706 22.5813 16.5706 23.1593C16.5706 23.7372 16.6559 24.2246 16.8263 24.6215C16.9994 25.0183 17.2418 25.3193 17.5534 25.5243C17.865 25.7294 18.2299 25.8319 18.648 25.8319C19.0662 25.8319 19.4311 25.7294 19.7427 25.5243C20.0543 25.3193 20.2953 25.0183 20.4658 24.6215C20.6389 24.2246 20.7255 23.7372 20.7255 23.1593ZM31.2793 23.1593C31.2793 24.0515 31.1102 24.8106 30.772 25.4364C30.4364 26.0623 29.9783 26.5404 29.3977 26.8707C28.8197 27.1982 28.1699 27.362 27.4481 27.362C26.721 27.362 26.0685 27.1969 25.4905 26.8667C24.9126 26.5364 24.4558 26.0583 24.1202 25.4324C23.7846 24.8066 23.6169 24.0488 23.6169 23.1593C23.6169 22.2671 23.7846 21.508 24.1202 20.8821C24.4558 20.2562 24.9126 19.7795 25.4905 19.4519C26.0685 19.1216 26.721 18.9565 27.4481 18.9565C28.1699 18.9565 28.8197 19.1216 29.3977 19.4519C29.9783 19.7795 30.4364 20.2562 30.772 20.8821C31.1102 21.508 31.2793 22.2671 31.2793 23.1593ZM29.5255 23.1593C29.5255 22.5813 29.4389 22.0939 29.2658 21.6971C29.0954 21.3003 28.8543 20.9993 28.5427 20.7942C28.2311 20.5891 27.8662 20.4866 27.4481 20.4866C27.0299 20.4866 26.6651 20.5891 26.3534 20.7942C26.0418 20.9993 25.7995 21.3003 25.6264 21.6971C25.4559 22.0939 25.3707 22.5813 25.3707 23.1593C25.3707 23.7372 25.4559 24.2246 25.6264 24.6215C25.7995 25.0183 26.0418 25.3193 26.3534 25.5243C26.6651 25.7294 27.0299 25.8319 27.4481 25.8319C27.8662 25.8319 28.2311 25.7294 28.5427 25.5243C28.8543 25.3193 29.0954 25.0183 29.2658 24.6215C29.4389 24.2246 29.5255 23.7372 29.5255 23.1593ZM39.4042 19.0684V27.2502H37.9101L34.3505 22.1006H34.2906V27.2502H32.5607V19.0684H34.0788L37.6104 24.214H37.6824V19.0684H39.4042Z" fill="white"/>
</svg>
