<svg width="75" height="75" viewBox="0 0 75 75" fill="none" xmlns="http://www.w3.org/2000/svg">
<path fill-rule="evenodd" clip-rule="evenodd" d="M37.5 4.40918C18.4876 4.40918 3.75 18.3358 3.75 37.1467C3.75 46.986 7.78245 55.4883 14.3494 61.361C14.9007 61.8544 15.2334 62.5456 15.2561 63.2854L15.4399 69.2888C15.4986 71.2038 17.4766 72.4499 19.2289 71.6763L25.9278 68.7191C26.4957 68.4687 27.132 68.4221 27.7304 68.5868C30.8087 69.4333 34.085 69.8842 37.5 69.8842C56.5124 69.8842 71.25 55.9576 71.25 37.1467C71.25 18.3358 56.5124 4.40918 37.5 4.40918Z" fill="url(#paint0_radial)"/>
<path fill-rule="evenodd" clip-rule="evenodd" d="M17.2332 46.7206L27.1473 30.9918C28.7243 28.4896 32.1013 27.8665 34.4675 29.6411L42.3527 35.555C43.0761 36.0977 44.0715 36.0948 44.792 35.548L55.4412 27.4659C56.8627 26.3873 58.718 28.0883 57.7668 29.5978L47.8528 45.3268C46.2756 47.8288 42.8986 48.452 40.5325 46.6773L32.6472 40.7633C31.9238 40.2207 30.9283 40.2236 30.2079 40.7704L19.5586 48.8525C18.1372 49.9311 16.2818 48.2301 17.2332 46.7206Z" fill="white"/>
<defs>
<radialGradient id="paint0_radial" cx="0" cy="0" r="1" gradientUnits="userSpaceOnUse" gradientTransform="translate(16.742 71.5481) scale(73.5477 73.5476)">
<stop stop-color="#0099FF"/>
<stop offset="0.609754" stop-color="#A033FF"/>
<stop offset="0.934823" stop-color="#FF5280"/>
<stop offset="1" stop-color="#FF7061"/>
</radialGradient>
</defs>
</svg>
