<svg width="48" height="48" viewBox="0 0 48 48" fill="none" xmlns="http://www.w3.org/2000/svg">
<path fill-rule="evenodd" clip-rule="evenodd" d="M23.9999 2.82187C11.832 2.82187 2.3999 11.7349 2.3999 23.7739C2.3999 30.071 4.98067 35.5125 9.18351 39.271C9.53633 39.5868 9.7493 40.0292 9.76377 40.5026L9.88141 44.3448C9.91899 45.5704 11.1849 46.3679 12.3064 45.8728L16.5937 43.9802C16.9571 43.82 17.3644 43.7902 17.7473 43.8956C19.7175 44.4373 21.8143 44.7259 23.9999 44.7259C36.1678 44.7259 45.5999 35.8128 45.5999 23.7739C45.5999 11.7349 36.1678 2.82187 23.9999 2.82187Z" fill="url(#paint0_radial)"/>
<path fill-rule="evenodd" clip-rule="evenodd" d="M11.0291 29.9012L17.3741 19.8347C18.3833 18.2333 20.5446 17.8346 22.059 18.9703L27.1055 22.7552C27.5685 23.1025 28.2056 23.1007 28.6667 22.7507L35.4822 17.5782C36.3919 16.8879 37.5793 17.9765 36.9706 18.9426L30.6256 29.0091C29.6162 30.6105 27.4549 31.0093 25.9406 29.8735L20.894 26.0885C20.431 25.7413 19.7939 25.7431 19.3329 26.093L12.5173 31.2656C11.6076 31.9559 10.4202 30.8672 11.0291 29.9012Z" fill="white" fill-opacity="0.4"/>
<path d="M12.0273 21.4213C11.9953 21.0991 11.8582 20.8487 11.6158 20.6703C11.3734 20.4918 11.0445 20.4026 10.629 20.4026C10.3467 20.4026 10.1083 20.4426 9.91391 20.5225C9.71948 20.5997 9.57033 20.7076 9.46646 20.8461C9.36526 20.9846 9.31465 21.1417 9.31465 21.3175C9.30933 21.464 9.33995 21.5918 9.40654 21.701C9.47579 21.8102 9.57033 21.9047 9.69019 21.9846C9.81004 22.0619 9.94853 22.1298 10.1057 22.1884C10.2628 22.2443 10.4306 22.2923 10.609 22.3322L11.3441 22.508C11.701 22.5879 12.0286 22.6944 12.3269 22.8276C12.6252 22.9608 12.8835 23.1246 13.1019 23.319C13.3203 23.5134 13.4895 23.7425 13.6093 24.0061C13.7318 24.2698 13.7944 24.5721 13.7971 24.913C13.7944 25.4137 13.6666 25.8478 13.4136 26.2154C13.1632 26.5803 12.801 26.8639 12.3269 27.0663C11.8555 27.2661 11.2869 27.3659 10.621 27.3659C9.96052 27.3659 9.38523 27.2647 8.89517 27.0623C8.40778 26.8599 8.02692 26.5603 7.7526 26.1634C7.48093 25.7639 7.33845 25.2699 7.32513 24.6813H8.99905C9.01769 24.9556 9.09626 25.1847 9.23475 25.3684C9.37591 25.5495 9.56368 25.6867 9.79805 25.7799C10.0351 25.8705 10.3028 25.9158 10.6011 25.9158C10.894 25.9158 11.1484 25.8731 11.3641 25.7879C11.5825 25.7027 11.7516 25.5842 11.8715 25.4324C11.9913 25.2805 12.0512 25.1061 12.0512 24.909C12.0512 24.7252 11.9966 24.5708 11.8875 24.4456C11.7809 24.3204 11.6238 24.2139 11.416 24.126C11.211 24.0381 10.9593 23.9582 10.661 23.8863L9.77009 23.6626C9.08028 23.4948 8.53562 23.2324 8.13612 22.8755C7.73662 22.5186 7.5382 22.0379 7.54086 21.4333C7.5382 20.9379 7.67003 20.5052 7.93637 20.1349C8.20537 19.7647 8.57424 19.4758 9.04299 19.268C9.51174 19.0603 10.0444 18.9564 10.641 18.9564C11.2482 18.9564 11.7783 19.0603 12.231 19.268C12.6865 19.4758 13.0407 19.7647 13.2937 20.1349C13.5467 20.5052 13.6772 20.934 13.6852 21.4213H12.0273ZM22.4793 23.1592C22.4793 24.0514 22.3101 24.8105 21.9719 25.4363C21.6363 26.0622 21.1782 26.5403 20.5976 26.8706C20.0197 27.1982 19.3698 27.362 18.648 27.362C17.9209 27.362 17.2684 27.1968 16.6905 26.8666C16.1125 26.5363 15.6558 26.0582 15.3202 25.4324C14.9846 24.8065 14.8168 24.0487 14.8168 23.1592C14.8168 22.267 14.9846 21.5079 15.3202 20.882C15.6558 20.2561 16.1125 19.7794 16.6905 19.4518C17.2684 19.1215 17.9209 18.9564 18.648 18.9564C19.3698 18.9564 20.0197 19.1215 20.5976 19.4518C21.1782 19.7794 21.6363 20.2561 21.9719 20.882C22.3101 21.5079 22.4793 22.267 22.4793 23.1592ZM20.7255 23.1592C20.7255 22.5812 20.6389 22.0938 20.4658 21.697C20.2953 21.3002 20.0543 20.9992 19.7427 20.7941C19.4311 20.589 19.0662 20.4865 18.648 20.4865C18.2299 20.4865 17.865 20.589 17.5534 20.7941C17.2418 20.9992 16.9994 21.3002 16.8263 21.697C16.6559 22.0938 16.5706 22.5812 16.5706 23.1592C16.5706 23.7371 16.6559 24.2245 16.8263 24.6214C16.9994 25.0182 17.2418 25.3192 17.5534 25.5242C17.865 25.7293 18.2299 25.8319 18.648 25.8319C19.0662 25.8319 19.4311 25.7293 19.7427 25.5242C20.0543 25.3192 20.2953 25.0182 20.4658 24.6214C20.6389 24.2245 20.7255 23.7371 20.7255 23.1592ZM31.2793 23.1592C31.2793 24.0514 31.1102 24.8105 30.772 25.4363C30.4364 26.0622 29.9783 26.5403 29.3977 26.8706C28.8197 27.1982 28.1699 27.362 27.4481 27.362C26.721 27.362 26.0685 27.1968 25.4905 26.8666C24.9126 26.5363 24.4558 26.0582 24.1202 25.4324C23.7846 24.8065 23.6169 24.0487 23.6169 23.1592C23.6169 22.267 23.7846 21.5079 24.1202 20.882C24.4558 20.2561 24.9126 19.7794 25.4905 19.4518C26.0685 19.1215 26.721 18.9564 27.4481 18.9564C28.1699 18.9564 28.8197 19.1215 29.3977 19.4518C29.9783 19.7794 30.4364 20.2561 30.772 20.882C31.1102 21.5079 31.2793 22.267 31.2793 23.1592ZM29.5255 23.1592C29.5255 22.5812 29.4389 22.0938 29.2658 21.697C29.0954 21.3002 28.8543 20.9992 28.5427 20.7941C28.2311 20.589 27.8662 20.4865 27.4481 20.4865C27.0299 20.4865 26.6651 20.589 26.3534 20.7941C26.0418 20.9992 25.7995 21.3002 25.6264 21.697C25.4559 22.0938 25.3707 22.5812 25.3707 23.1592C25.3707 23.7371 25.4559 24.2245 25.6264 24.6214C25.7995 25.0182 26.0418 25.3192 26.3534 25.5242C26.6651 25.7293 27.0299 25.8319 27.4481 25.8319C27.8662 25.8319 28.2311 25.7293 28.5427 25.5242C28.8543 25.3192 29.0954 25.0182 29.2658 24.6214C29.4389 24.2245 29.5255 23.7371 29.5255 23.1592ZM39.4042 19.0683V27.2501H37.9101L34.3505 22.1005H34.2906V27.2501H32.5607V19.0683H34.0788L37.6104 24.2139H37.6824V19.0683H39.4042Z" fill="white"/>
<defs>
<radialGradient id="paint0_radial" cx="0" cy="0" r="1" gradientUnits="userSpaceOnUse" gradientTransform="translate(10.7148 45.7908) scale(47.0705)">
<stop stop-color="#0099FF"/>
<stop offset="0.609754" stop-color="#A033FF"/>
<stop offset="0.934823" stop-color="#FF5280"/>
<stop offset="1" stop-color="#FF7061"/>
</radialGradient>
</defs>
</svg>
