<svg width="48" height="48" viewBox="0 0 48 48" fill="none" xmlns="http://www.w3.org/2000/svg">
<circle cx="23.9999" cy="24" r="21.6" fill="#25D366"/>
<path fill-rule="evenodd" clip-rule="evenodd" d="M30.3477 26.3005C30.0273 26.1401 28.4523 25.3653 28.1586 25.2585C27.8649 25.1516 27.6514 25.0982 27.4378 25.4188C27.2242 25.7394 26.6103 26.4608 26.4234 26.6745C26.2365 26.8882 26.0497 26.915 25.7293 26.7547C25.4089 26.5944 24.3767 26.2562 23.1531 25.1651C22.2007 24.3159 21.5577 23.2671 21.3708 22.9464C21.184 22.6258 21.3509 22.4525 21.5114 22.2928C21.6554 22.1494 21.8317 21.9188 21.9919 21.7318C22.152 21.5448 22.2054 21.4112 22.3122 21.1975C22.419 20.9837 22.3656 20.7967 22.2855 20.6364C22.2054 20.4761 21.5648 18.8997 21.2978 18.2585C21.0378 17.634 20.7736 17.7185 20.577 17.7087C20.3903 17.6994 20.1766 17.6974 19.963 17.6974C19.7494 17.6974 19.4024 17.7776 19.1087 18.0982C18.815 18.4188 17.9874 19.1937 17.9874 20.7699C17.9874 22.3463 19.1354 23.8692 19.2956 24.0829C19.4558 24.2967 21.5546 27.5316 24.7683 28.9188C25.5326 29.2487 26.1294 29.4458 26.5946 29.5934C27.3621 29.8371 28.0604 29.8028 28.6124 29.7203C29.2279 29.6284 30.5079 28.9455 30.7748 28.1974C31.0417 27.4493 31.0417 26.8081 30.9617 26.6745C30.8816 26.5409 30.668 26.4608 30.3477 26.3005ZM24.5023 34.2791H24.498C22.5858 34.2784 20.7102 33.7649 19.0741 32.7942L18.6849 32.5633L14.6516 33.621L15.7282 29.6898L15.4748 29.2868C14.4081 27.5906 13.8447 25.6302 13.8455 23.6173C13.8478 17.7435 18.6284 12.9647 24.5066 12.9647C27.3529 12.9658 30.0286 14.0754 32.0406 16.089C34.0526 18.1027 35.16 20.7793 35.1589 23.6259C35.1565 29.5001 30.376 34.2791 24.5023 34.2791ZM33.5719 14.5589C31.1513 12.1362 27.932 10.8013 24.5022 10.8C17.4353 10.8 11.6836 16.5494 11.6808 23.6165C11.6798 25.8755 12.2702 28.0806 13.3922 30.0243L11.5732 36.6661L18.3701 34.8838C20.2428 35.9049 22.3512 36.443 24.4971 36.4439H24.5023H24.5024C31.5687 36.4439 37.3208 30.6937 37.3237 23.6267C37.325 20.2019 35.9927 16.9816 33.5719 14.5589Z" fill="white" fill-opacity="0.4"/>
<path d="M12.0273 21.4213C11.9953 21.0991 11.8582 20.8487 11.6158 20.6703C11.3734 20.4918 11.0445 20.4026 10.629 20.4026C10.3467 20.4026 10.1083 20.4426 9.91391 20.5225C9.71948 20.5997 9.57033 20.7076 9.46646 20.8461C9.36526 20.9846 9.31465 21.1417 9.31465 21.3175C9.30933 21.464 9.33995 21.5918 9.40654 21.701C9.47579 21.8102 9.57033 21.9047 9.69019 21.9846C9.81004 22.0619 9.94853 22.1298 10.1057 22.1884C10.2628 22.2443 10.4306 22.2923 10.609 22.3322L11.3441 22.508C11.701 22.5879 12.0286 22.6944 12.3269 22.8276C12.6252 22.9608 12.8835 23.1246 13.1019 23.319C13.3203 23.5134 13.4895 23.7425 13.6093 24.0061C13.7318 24.2698 13.7944 24.5721 13.7971 24.913C13.7944 25.4137 13.6666 25.8478 13.4136 26.2154C13.1632 26.5803 12.801 26.8639 12.3269 27.0663C11.8555 27.2661 11.2869 27.3659 10.621 27.3659C9.96052 27.3659 9.38523 27.2647 8.89517 27.0623C8.40778 26.8599 8.02692 26.5603 7.7526 26.1634C7.48093 25.7639 7.33845 25.2699 7.32513 24.6813H8.99905C9.01769 24.9556 9.09626 25.1847 9.23475 25.3684C9.37591 25.5495 9.56368 25.6867 9.79805 25.7799C10.0351 25.8705 10.3028 25.9158 10.6011 25.9158C10.894 25.9158 11.1484 25.8731 11.3641 25.7879C11.5825 25.7027 11.7516 25.5842 11.8715 25.4324C11.9913 25.2805 12.0512 25.1061 12.0512 24.909C12.0512 24.7252 11.9966 24.5708 11.8875 24.4456C11.7809 24.3204 11.6238 24.2139 11.416 24.126C11.211 24.0381 10.9593 23.9582 10.661 23.8863L9.77009 23.6626C9.08028 23.4948 8.53562 23.2324 8.13612 22.8755C7.73662 22.5186 7.5382 22.0379 7.54086 21.4333C7.5382 20.9379 7.67003 20.5052 7.93637 20.1349C8.20537 19.7647 8.57424 19.4758 9.04299 19.268C9.51174 19.0603 10.0444 18.9564 10.641 18.9564C11.2482 18.9564 11.7783 19.0603 12.231 19.268C12.6865 19.4758 13.0407 19.7647 13.2937 20.1349C13.5467 20.5052 13.6772 20.934 13.6852 21.4213H12.0273ZM22.4793 23.1592C22.4793 24.0514 22.3101 24.8105 21.9719 25.4363C21.6363 26.0622 21.1782 26.5403 20.5976 26.8706C20.0197 27.1982 19.3698 27.362 18.648 27.362C17.9209 27.362 17.2684 27.1968 16.6905 26.8666C16.1125 26.5363 15.6558 26.0582 15.3202 25.4324C14.9846 24.8065 14.8168 24.0487 14.8168 23.1592C14.8168 22.267 14.9846 21.5079 15.3202 20.882C15.6558 20.2561 16.1125 19.7794 16.6905 19.4518C17.2684 19.1215 17.9209 18.9564 18.648 18.9564C19.3698 18.9564 20.0197 19.1215 20.5976 19.4518C21.1782 19.7794 21.6363 20.2561 21.9719 20.882C22.3101 21.5079 22.4793 22.267 22.4793 23.1592ZM20.7255 23.1592C20.7255 22.5812 20.6389 22.0938 20.4658 21.697C20.2953 21.3002 20.0543 20.9992 19.7427 20.7941C19.4311 20.589 19.0662 20.4865 18.648 20.4865C18.2299 20.4865 17.865 20.589 17.5534 20.7941C17.2418 20.9992 16.9994 21.3002 16.8263 21.697C16.6559 22.0938 16.5706 22.5812 16.5706 23.1592C16.5706 23.7371 16.6559 24.2245 16.8263 24.6214C16.9994 25.0182 17.2418 25.3192 17.5534 25.5242C17.865 25.7293 18.2299 25.8319 18.648 25.8319C19.0662 25.8319 19.4311 25.7293 19.7427 25.5242C20.0543 25.3192 20.2953 25.0182 20.4658 24.6214C20.6389 24.2245 20.7255 23.7371 20.7255 23.1592ZM31.2793 23.1592C31.2793 24.0514 31.1102 24.8105 30.772 25.4363C30.4364 26.0622 29.9783 26.5403 29.3977 26.8706C28.8197 27.1982 28.1699 27.362 27.4481 27.362C26.721 27.362 26.0685 27.1968 25.4905 26.8666C24.9126 26.5363 24.4558 26.0582 24.1202 25.4324C23.7846 24.8065 23.6169 24.0487 23.6169 23.1592C23.6169 22.267 23.7846 21.5079 24.1202 20.882C24.4558 20.2561 24.9126 19.7794 25.4905 19.4518C26.0685 19.1215 26.721 18.9564 27.4481 18.9564C28.1699 18.9564 28.8197 19.1215 29.3977 19.4518C29.9783 19.7794 30.4364 20.2561 30.772 20.882C31.1102 21.5079 31.2793 22.267 31.2793 23.1592ZM29.5255 23.1592C29.5255 22.5812 29.4389 22.0938 29.2658 21.697C29.0954 21.3002 28.8543 20.9992 28.5427 20.7941C28.2311 20.589 27.8662 20.4865 27.4481 20.4865C27.0299 20.4865 26.6651 20.589 26.3534 20.7941C26.0418 20.9992 25.7995 21.3002 25.6264 21.697C25.4559 22.0938 25.3707 22.5812 25.3707 23.1592C25.3707 23.7371 25.4559 24.2245 25.6264 24.6214C25.7995 25.0182 26.0418 25.3192 26.3534 25.5242C26.6651 25.7293 27.0299 25.8319 27.4481 25.8319C27.8662 25.8319 28.2311 25.7293 28.5427 25.5242C28.8543 25.3192 29.0954 25.0182 29.2658 24.6214C29.4389 24.2245 29.5255 23.7371 29.5255 23.1592ZM39.4042 19.0683V27.2501H37.9101L34.3505 22.1005H34.2906V27.2501H32.5607V19.0683H34.0788L37.6104 24.2139H37.6824V19.0683H39.4042Z" fill="white"/>
</svg>
