<svg width="48" height="48" viewBox="0 0 48 48" fill="none" xmlns="http://www.w3.org/2000/svg">
<path d="M0 24C0 10.75 10.75 0 24 0C37.25 0 48 10.75 48 24C48 37.25 37.25 48 24 48C10.75 48 0 37.25 0 24Z" fill="#F9F09F"/>
<path d="M24 11C15.16 11 8 16.65 8 23.62C8 28.12 10.99 32.08 15.5 34.31C15.25 35.16 13.93 39.75 13.87 40.11C13.87 40.11 13.84 40.38 14.01 40.48C14.19 40.58 14.39 40.5 14.39 40.5C14.89 40.43 20.23 36.68 21.15 36.03C22.07 36.16 23.02 36.23 23.99 36.23C32.83 36.23 39.99 30.58 39.99 23.61C40 16.65 32.84 11 24 11Z" fill="#381F1F" fill-opacity="0.1"/>
<path d="M15.1499 28.02C14.6399 28.02 14.2299 27.62 14.2299 27.14V21.66H12.7899C12.2899 21.66 11.8799 21.25 11.8799 20.76C11.8799 20.27 12.2899 19.86 12.7899 19.86H17.5199C18.0199 19.86 18.4299 20.27 18.4299 20.76C18.4299 21.25 18.0199 21.66 17.5199 21.66H16.0799V27.14C16.0799 27.62 15.6599 28.02 15.1499 28.02ZM23.2499 28.01C22.8699 28.01 22.5699 27.85 22.4799 27.6L22.0199 26.4H19.2099L18.7499 27.6C18.6599 27.85 18.3699 28.01 17.9799 28.01C17.7799 28.01 17.5799 27.97 17.3899 27.88C17.1399 27.76 16.8899 27.44 17.1699 26.57L19.3799 20.76C19.5399 20.32 20.0099 19.86 20.6099 19.85C21.2099 19.86 21.6899 20.32 21.8399 20.76L24.0499 26.57C24.3299 27.44 24.0899 27.77 23.8299 27.88C23.6499 27.96 23.4499 28.01 23.2499 28.01ZM21.5399 24.77L20.6199 22.15L19.6999 24.77H21.5399ZM25.5399 27.88C25.0499 27.88 24.6599 27.5 24.6599 27.03V20.76C24.6599 20.25 25.0799 19.84 25.5999 19.84C26.1199 19.84 26.5399 20.25 26.5399 20.76V26.18H28.4999C28.9899 26.18 29.3799 26.56 29.3799 27.03C29.3799 27.5 28.9799 27.88 28.4999 27.88H25.5399ZM30.6699 28.01C30.1599 28.01 29.7499 27.6 29.7499 27.09V20.78C29.7499 20.27 30.1599 19.86 30.6699 19.86C31.1799 19.86 31.5899 20.27 31.5899 20.78V22.76L34.1699 20.18C34.2999 20.05 34.4799 19.97 34.6799 19.97C34.9099 19.97 35.1399 20.07 35.3199 20.24C35.4799 20.4 35.5799 20.61 35.5899 20.83C35.5999 21.05 35.5299 21.25 35.3899 21.39L33.2899 23.49L35.5599 26.5C35.6299 26.6 35.6899 26.71 35.7199 26.82C35.7499 26.94 35.7599 27.06 35.7399 27.18C35.7199 27.3 35.6799 27.42 35.6199 27.52C35.5599 27.62 35.4799 27.72 35.3799 27.79C35.2199 27.91 35.0299 27.98 34.8199 27.98C34.6799 27.98 34.5399 27.95 34.4099 27.88C34.2799 27.82 34.1699 27.72 34.0799 27.61L31.9199 24.74L31.5999 25.06V27.07C31.5999 27.31 31.4999 27.55 31.3299 27.72C31.1499 27.91 30.9099 28.01 30.6699 28.01Z" fill="#FFF48E"/>
<path d="M12.0273 21.4213C11.9953 21.099 11.8582 20.8486 11.6158 20.6702C11.3734 20.4917 11.0445 20.4025 10.629 20.4025C10.3467 20.4025 10.1083 20.4425 9.91391 20.5224C9.71948 20.5996 9.57033 20.7075 9.46646 20.846C9.36526 20.9845 9.31465 21.1416 9.31465 21.3174C9.30933 21.4639 9.33995 21.5917 9.40654 21.7009C9.47579 21.8101 9.57033 21.9047 9.69019 21.9846C9.81004 22.0618 9.94853 22.1297 10.1057 22.1883C10.2628 22.2442 10.4306 22.2922 10.609 22.3321L11.3441 22.5079C11.701 22.5878 12.0286 22.6943 12.3269 22.8275C12.6252 22.9607 12.8835 23.1245 13.1019 23.3189C13.3203 23.5133 13.4895 23.7424 13.6093 24.006C13.7318 24.2697 13.7944 24.572 13.7971 24.9129C13.7944 25.4136 13.6666 25.8477 13.4136 26.2153C13.1632 26.5802 12.801 26.8638 12.3269 27.0662C11.8555 27.266 11.2869 27.3659 10.621 27.3659C9.96052 27.3659 9.38523 27.2646 8.89517 27.0622C8.40778 26.8598 8.02692 26.5602 7.7526 26.1634C7.48093 25.7638 7.33845 25.2698 7.32513 24.6812H8.99905C9.01769 24.9555 9.09626 25.1846 9.23475 25.3683C9.37591 25.5494 9.56368 25.6866 9.79805 25.7798C10.0351 25.8704 10.3028 25.9157 10.6011 25.9157C10.894 25.9157 11.1484 25.873 11.3641 25.7878C11.5825 25.7026 11.7516 25.5841 11.8715 25.4323C11.9913 25.2805 12.0512 25.106 12.0512 24.9089C12.0512 24.7251 11.9966 24.5707 11.8875 24.4455C11.7809 24.3203 11.6238 24.2138 11.416 24.1259C11.211 24.038 10.9593 23.9581 10.661 23.8862L9.77009 23.6625C9.08028 23.4947 8.53562 23.2323 8.13612 22.8754C7.73662 22.5186 7.5382 22.0378 7.54086 21.4332C7.5382 20.9379 7.67003 20.5051 7.93637 20.1349C8.20537 19.7646 8.57424 19.4757 9.04299 19.2679C9.51174 19.0602 10.0444 18.9563 10.641 18.9563C11.2482 18.9563 11.7783 19.0602 12.231 19.2679C12.6865 19.4757 13.0407 19.7646 13.2937 20.1349C13.5467 20.5051 13.6772 20.9339 13.6852 21.4213H12.0273ZM22.4793 23.1591C22.4793 24.0513 22.3101 24.8104 21.9719 25.4363C21.6363 26.0621 21.1782 26.5402 20.5976 26.8705C20.0197 27.1981 19.3698 27.3619 18.648 27.3619C17.9209 27.3619 17.2684 27.1967 16.6905 26.8665C16.1125 26.5362 15.6558 26.0581 15.3202 25.4323C14.9846 24.8064 14.8168 24.0487 14.8168 23.1591C14.8168 22.2669 14.9846 21.5078 15.3202 20.8819C15.6558 20.256 16.1125 19.7793 16.6905 19.4517C17.2684 19.1214 17.9209 18.9563 18.648 18.9563C19.3698 18.9563 20.0197 19.1214 20.5976 19.4517C21.1782 19.7793 21.6363 20.256 21.9719 20.8819C22.3101 21.5078 22.4793 22.2669 22.4793 23.1591ZM20.7255 23.1591C20.7255 22.5811 20.6389 22.0937 20.4658 21.6969C20.2953 21.3001 20.0543 20.9991 19.7427 20.794C19.4311 20.589 19.0662 20.4864 18.648 20.4864C18.2299 20.4864 17.865 20.589 17.5534 20.794C17.2418 20.9991 16.9994 21.3001 16.8263 21.6969C16.6559 22.0937 16.5706 22.5811 16.5706 23.1591C16.5706 23.737 16.6559 24.2244 16.8263 24.6213C16.9994 25.0181 17.2418 25.3191 17.5534 25.5241C17.865 25.7292 18.2299 25.8318 18.648 25.8318C19.0662 25.8318 19.4311 25.7292 19.7427 25.5241C20.0543 25.3191 20.2953 25.0181 20.4658 24.6213C20.6389 24.2244 20.7255 23.737 20.7255 23.1591ZM31.2793 23.1591C31.2793 24.0513 31.1102 24.8104 30.772 25.4363C30.4364 26.0621 29.9783 26.5402 29.3977 26.8705C28.8197 27.1981 28.1699 27.3619 27.4481 27.3619C26.721 27.3619 26.0685 27.1967 25.4905 26.8665C24.9126 26.5362 24.4558 26.0581 24.1202 25.4323C23.7846 24.8064 23.6169 24.0487 23.6169 23.1591C23.6169 22.2669 23.7846 21.5078 24.1202 20.8819C24.4558 20.256 24.9126 19.7793 25.4905 19.4517C26.0685 19.1214 26.721 18.9563 27.4481 18.9563C28.1699 18.9563 28.8197 19.1214 29.3977 19.4517C29.9783 19.7793 30.4364 20.256 30.772 20.8819C31.1102 21.5078 31.2793 22.2669 31.2793 23.1591ZM29.5255 23.1591C29.5255 22.5811 29.4389 22.0937 29.2658 21.6969C29.0954 21.3001 28.8543 20.9991 28.5427 20.794C28.2311 20.589 27.8662 20.4864 27.4481 20.4864C27.0299 20.4864 26.6651 20.589 26.3534 20.794C26.0418 20.9991 25.7995 21.3001 25.6264 21.6969C25.4559 22.0937 25.3707 22.5811 25.3707 23.1591C25.3707 23.737 25.4559 24.2244 25.6264 24.6213C25.7995 25.0181 26.0418 25.3191 26.3534 25.5241C26.6651 25.7292 27.0299 25.8318 27.4481 25.8318C27.8662 25.8318 28.2311 25.7292 28.5427 25.5241C28.8543 25.3191 29.0954 25.0181 29.2658 24.6213C29.4389 24.2244 29.5255 23.737 29.5255 23.1591ZM39.4042 19.0682V27.25H37.9101L34.3505 22.1004H34.2906V27.25H32.5607V19.0682H34.0788L37.6104 24.2138H37.6824V19.0682H39.4042Z" fill="#9B7207"/>
</svg>
