<svg width="48" height="48" viewBox="0 0 48 48" fill="none" xmlns="http://www.w3.org/2000/svg">
<g clip-path="url(#clip0)">
<circle cx="24" cy="24.0004" r="24" fill="#7360F2" fill-opacity="0.35"/>
<path d="M35.6169 12.8224C34.8289 12.099 31.6531 9.80126 24.5752 9.77289C24.5752 9.77289 16.2298 9.27174 12.1616 12.9878C9.89721 15.243 9.10445 18.5431 9.019 22.6327C8.93355 26.7223 8.82437 34.3909 16.2488 36.4711H16.2536L16.2488 39.6435C16.2488 39.6435 16.2013 40.9295 17.0511 41.1895C18.0764 41.5063 18.6793 40.5323 19.662 39.478C20.1984 38.9012 20.9437 38.0502 21.5038 37.4025C26.5785 37.828 30.4853 36.8541 30.9268 36.7122C31.9522 36.3813 37.7531 35.639 38.693 27.9751C39.6709 20.0749 38.2231 15.0775 35.6169 12.8224ZM36.4761 27.4125C35.6786 33.8141 30.9743 34.2159 30.1056 34.4949C29.7353 34.6131 26.3079 35.4641 21.9975 35.1804C21.9975 35.1804 18.7838 39.0431 17.7821 40.0454C17.6255 40.2014 17.4403 40.2676 17.3169 40.2345C17.146 40.1919 17.0985 39.9886 17.0985 39.6908C17.1033 39.2653 17.127 34.4192 17.127 34.4192C17.127 34.4192 17.1223 34.4192 17.127 34.4192C10.8466 32.6794 11.2169 26.1549 11.2881 22.7367C11.3593 19.3184 12.0049 16.5195 13.918 14.6379C17.3596 11.5317 24.447 11.9997 24.447 11.9997C30.4331 12.0233 33.3003 13.8152 33.9649 14.4204C36.1723 16.3021 37.2974 20.8077 36.4761 27.4125ZM27.4899 22.8549C27.2763 22.8549 27.1007 22.6894 27.0912 22.4766C27.0247 21.1245 26.3838 20.4579 25.0784 20.3917C24.86 20.3822 24.6891 20.1931 24.6986 19.9709C24.7081 19.7534 24.898 19.5832 25.1211 19.5927C26.8443 19.6825 27.8032 20.6659 27.8934 22.4341C27.9029 22.6516 27.732 22.8407 27.5136 22.8501C27.4994 22.8549 27.4947 22.8549 27.4899 22.8549ZM29.5407 23.5404C29.5359 23.5404 29.5359 23.5404 29.5312 23.5404C29.308 23.5357 29.1371 23.3513 29.1419 23.1338C29.1704 21.7722 28.7811 20.6706 27.9456 19.7629C27.1149 18.8598 25.9708 18.3634 24.4613 18.2547C24.2429 18.2405 24.0768 18.0466 24.091 17.8292C24.1052 17.6117 24.2999 17.4462 24.5182 17.4604C26.2224 17.5833 27.5754 18.179 28.539 19.2239C29.5027 20.2735 29.9774 21.5973 29.9442 23.1527C29.9347 23.3655 29.759 23.5404 29.5407 23.5404ZM31.6436 24.3583C31.4252 24.3583 31.2449 24.1834 31.2449 23.9612C31.2259 21.5547 30.5043 19.6447 29.0897 18.2736C27.675 16.9025 25.8901 16.1981 23.7824 16.1839C23.5593 16.1839 23.3837 16.0042 23.3837 15.782C23.3837 15.5645 23.5641 15.3849 23.7824 15.3849C23.7824 15.3849 23.7824 15.3849 23.7872 15.3849C26.1085 15.399 28.0833 16.1791 29.6498 17.7015C31.2211 19.2239 32.0234 21.3278 32.0471 23.9565C32.0471 24.1787 31.8667 24.3583 31.6436 24.3583ZM25.1781 27.7955C25.1781 27.7955 25.743 27.8428 26.0421 27.4693L26.6307 26.7317C26.9155 26.3629 27.6038 26.1313 28.2779 26.5048C28.7811 26.7932 29.2701 27.1005 29.7448 27.4362C30.191 27.7624 31.1072 28.5236 31.1072 28.5236C31.5439 28.8924 31.6436 29.4266 31.3445 29.9939C31.3445 29.9987 31.3445 30.0034 31.3445 30.0034C31.017 30.566 30.604 31.0766 30.115 31.5116C30.1103 31.5163 30.1103 31.5163 30.1056 31.521C29.6831 31.8756 29.2653 32.0742 28.8571 32.1215C28.7954 32.1309 28.7336 32.1357 28.6767 32.1309C28.4963 32.1309 28.3159 32.1073 28.145 32.0506L28.1308 32.0317C27.4994 31.8567 26.4503 31.4123 24.6986 30.4525C23.6875 29.9041 22.7238 29.2706 21.8171 28.5567C21.3614 28.2021 20.9294 27.8191 20.5212 27.4125L20.4785 27.37L20.4357 27.3274L20.393 27.2849C20.3788 27.2707 20.3645 27.2565 20.3503 27.2423C19.942 26.8357 19.5575 26.4008 19.2015 25.9516C18.4847 25.0486 17.8486 24.0888 17.2979 23.0818C16.3343 21.3372 15.888 20.2924 15.7124 19.6636L15.6934 19.6494C15.6364 19.4792 15.6127 19.2995 15.6127 19.1199C15.608 19.0584 15.6127 18.9969 15.6222 18.9402C15.6744 18.5336 15.8738 18.1176 16.2251 17.6968C16.2298 17.6921 16.2298 17.6921 16.2346 17.6873C16.6713 17.2004 17.1792 16.789 17.7489 16.4628C17.7536 16.4628 17.7584 16.4581 17.7584 16.4581C18.328 16.165 18.8692 16.2642 19.2347 16.6945C19.2395 16.6992 19.999 17.607 20.3266 18.0514C20.6636 18.5242 20.9769 19.0111 21.2617 19.5123C21.6368 20.1836 21.4041 20.8692 21.0339 21.1528L20.2933 21.7391C19.9183 22.0417 19.9658 22.5996 19.9658 22.5996C19.9658 22.5996 21.0671 26.7506 25.1781 27.7955Z" fill="white" fill-opacity="0.25"/>
<path d="M12.0273 21.4215C11.9953 21.0993 11.8582 20.8489 11.6158 20.6705C11.3734 20.492 11.0445 20.4028 10.629 20.4028C10.3467 20.4028 10.1083 20.4427 9.91391 20.5226C9.71948 20.5999 9.57033 20.7077 9.46646 20.8462C9.36526 20.9847 9.31465 21.1419 9.31465 21.3177C9.30933 21.4641 9.33995 21.592 9.40654 21.7012C9.47579 21.8104 9.57033 21.9049 9.69019 21.9848C9.81004 22.0621 9.94853 22.13 10.1057 22.1886C10.2628 22.2445 10.4306 22.2924 10.609 22.3324L11.3441 22.5082C11.701 22.5881 12.0286 22.6946 12.3269 22.8278C12.6252 22.9609 12.8835 23.1247 13.1019 23.3192C13.3203 23.5136 13.4895 23.7426 13.6093 24.0063C13.7318 24.27 13.7944 24.5723 13.7971 24.9132C13.7944 25.4139 13.6666 25.848 13.4136 26.2156C13.1632 26.5804 12.801 26.8641 12.3269 27.0665C11.8555 27.2663 11.2869 27.3661 10.621 27.3661C9.96052 27.3661 9.38523 27.2649 8.89517 27.0625C8.40778 26.8601 8.02692 26.5605 7.7526 26.1636C7.48093 25.7641 7.33845 25.2701 7.32513 24.6815H8.99905C9.01769 24.9558 9.09626 25.1848 9.23475 25.3686C9.37591 25.5497 9.56368 25.6869 9.79805 25.7801C10.0351 25.8707 10.3028 25.9159 10.6011 25.9159C10.894 25.9159 11.1484 25.8733 11.3641 25.7881C11.5825 25.7029 11.7516 25.5843 11.8715 25.4325C11.9913 25.2807 12.0512 25.1063 12.0512 24.9092C12.0512 24.7254 11.9966 24.5709 11.8875 24.4458C11.7809 24.3206 11.6238 24.2141 11.416 24.1262C11.211 24.0383 10.9593 23.9584 10.661 23.8865L9.77009 23.6627C9.08028 23.4949 8.53562 23.2326 8.13612 22.8757C7.73662 22.5188 7.5382 22.0381 7.54086 21.4335C7.5382 20.9381 7.67003 20.5053 7.93637 20.1351C8.20537 19.7649 8.57424 19.4759 9.04299 19.2682C9.51174 19.0605 10.0444 18.9566 10.641 18.9566C11.2482 18.9566 11.7783 19.0605 12.231 19.2682C12.6865 19.4759 13.0407 19.7649 13.2937 20.1351C13.5467 20.5053 13.6772 20.9341 13.6852 21.4215H12.0273ZM22.4793 23.1594C22.4793 24.0516 22.3101 24.8106 21.9719 25.4365C21.6363 26.0624 21.1782 26.5405 20.5976 26.8707C20.0197 27.1983 19.3698 27.3621 18.648 27.3621C17.9209 27.3621 17.2684 27.197 16.6905 26.8668C16.1125 26.5365 15.6558 26.0584 15.3202 25.4325C14.9846 24.8066 14.8168 24.0489 14.8168 23.1594C14.8168 22.2671 14.9846 21.5081 15.3202 20.8822C15.6558 20.2563 16.1125 19.7796 16.6905 19.452C17.2684 19.1217 17.9209 18.9566 18.648 18.9566C19.3698 18.9566 20.0197 19.1217 20.5976 19.452C21.1782 19.7796 21.6363 20.2563 21.9719 20.8822C22.3101 21.5081 22.4793 22.2671 22.4793 23.1594ZM20.7255 23.1594C20.7255 22.5814 20.6389 22.094 20.4658 21.6972C20.2953 21.3003 20.0543 20.9994 19.7427 20.7943C19.4311 20.5892 19.0662 20.4867 18.648 20.4867C18.2299 20.4867 17.865 20.5892 17.5534 20.7943C17.2418 20.9994 16.9994 21.3003 16.8263 21.6972C16.6559 22.094 16.5706 22.5814 16.5706 23.1594C16.5706 23.7373 16.6559 24.2247 16.8263 24.6215C16.9994 25.0184 17.2418 25.3193 17.5534 25.5244C17.865 25.7295 18.2299 25.832 18.648 25.832C19.0662 25.832 19.4311 25.7295 19.7427 25.5244C20.0543 25.3193 20.2953 25.0184 20.4658 24.6215C20.6389 24.2247 20.7255 23.7373 20.7255 23.1594ZM31.2793 23.1594C31.2793 24.0516 31.1102 24.8106 30.772 25.4365C30.4364 26.0624 29.9783 26.5405 29.3977 26.8707C28.8197 27.1983 28.1699 27.3621 27.4481 27.3621C26.721 27.3621 26.0685 27.197 25.4905 26.8668C24.9126 26.5365 24.4558 26.0584 24.1202 25.4325C23.7846 24.8066 23.6169 24.0489 23.6169 23.1594C23.6169 22.2671 23.7846 21.5081 24.1202 20.8822C24.4558 20.2563 24.9126 19.7796 25.4905 19.452C26.0685 19.1217 26.721 18.9566 27.4481 18.9566C28.1699 18.9566 28.8197 19.1217 29.3977 19.452C29.9783 19.7796 30.4364 20.2563 30.772 20.8822C31.1102 21.5081 31.2793 22.2671 31.2793 23.1594ZM29.5255 23.1594C29.5255 22.5814 29.4389 22.094 29.2658 21.6972C29.0954 21.3003 28.8543 20.9994 28.5427 20.7943C28.2311 20.5892 27.8662 20.4867 27.4481 20.4867C27.0299 20.4867 26.6651 20.5892 26.3534 20.7943C26.0418 20.9994 25.7995 21.3003 25.6264 21.6972C25.4559 22.094 25.3707 22.5814 25.3707 23.1594C25.3707 23.7373 25.4559 24.2247 25.6264 24.6215C25.7995 25.0184 26.0418 25.3193 26.3534 25.5244C26.6651 25.7295 27.0299 25.832 27.4481 25.832C27.8662 25.832 28.2311 25.7295 28.5427 25.5244C28.8543 25.3193 29.0954 25.0184 29.2658 24.6215C29.4389 24.2247 29.5255 23.7373 29.5255 23.1594ZM39.4042 19.0685V27.2503H37.9101L34.3505 22.1007H34.2906V27.2503H32.5607V19.0685H34.0788L37.6104 24.2141H37.6824V19.0685H39.4042Z" fill="#492D98"/>
</g>
<defs>
<clipPath id="clip0">
<rect width="48" height="48" fill="white"/>
</clipPath>
</defs>
</svg>
