<svg width="23" height="24" viewBox="0 0 23 24" fill="none" xmlns="http://www.w3.org/2000/svg">
<path d="M12.3159 11.0156H12.2681V8.3756H12.3159C12.8203 8.3756 13.3003 8.68779 13.5159 9.1434C13.7315 9.6234 14.3081 9.83902 14.8115 9.6234C15.2915 9.40778 15.5071 8.83121 15.2915 8.32779C14.7637 7.1756 13.5871 6.43217 12.3393 6.43217H12.2915V4.99217C12.2915 4.55998 11.9558 4.22437 11.5236 4.22437C11.0915 4.22437 10.7558 4.55998 10.7558 4.99217V6.43217H10.708C9.84364 6.43217 9.02802 6.76779 8.40364 7.39217C7.77925 8.01656 7.44364 8.83217 7.44364 9.69656C7.4202 11.4956 8.88457 12.9601 10.6846 12.9601H10.7324V15.6001H10.6846C10.1568 15.6001 9.70021 15.3123 9.4846 14.8323C9.26897 14.3523 8.66898 14.1367 8.18898 14.3523C7.70898 14.5679 7.49337 15.1679 7.70898 15.6479C8.23679 16.8001 9.41337 17.5435 10.6845 17.5435H10.7323V18.9835C10.7323 19.4157 11.0679 19.7513 11.5001 19.7513C11.9323 19.7513 12.2679 19.4157 12.2679 18.9835V17.5435H12.3157C14.1157 17.5435 15.5802 16.0791 15.5802 14.279C15.5802 13.4146 15.2446 12.599 14.6446 11.9746C14.0202 11.3756 13.1802 11.0156 12.3159 11.0156L12.3159 11.0156ZM10.6846 11.0156C9.96463 11.0156 9.36463 10.4156 9.36463 9.6956C9.36463 9.3356 9.50901 8.99998 9.74902 8.75998C10.0134 8.4956 10.3246 8.3756 10.6846 8.3756H10.7324V11.0156H10.6846ZM12.3159 15.6243H12.2681V12.9598H12.3159C12.6759 12.9598 13.0115 13.1042 13.2515 13.3442C13.4915 13.5842 13.6359 13.9198 13.6359 14.2798C13.6359 15.0242 13.0359 15.6242 12.3159 15.6242V15.6243Z" fill="#30DFC4"/>
<path d="M11.5001 0.600098C5.21234 0.600098 0.100098 5.71234 0.100098 12.0001C0.100098 18.2879 5.21234 23.4001 11.5001 23.4001C17.7879 23.4001 22.9001 18.2879 22.9001 12.0001C22.9001 5.71234 17.7879 0.600098 11.5001 0.600098ZM2.04458 12.0001C2.04458 9.74448 2.83677 7.6801 4.15677 6.04786L5.47677 7.36786C5.66896 7.56004 5.90896 7.65567 6.17239 7.65567C6.43677 7.65567 6.67677 7.56004 6.868 7.36786C7.25239 6.98347 7.25239 6.36005 6.868 6.00005L5.548 4.68005C7.18019 3.36005 9.24352 2.56786 11.5002 2.56786C16.708 2.56786 20.9558 6.81562 20.9558 12.0234C20.9558 14.279 20.1636 16.3434 18.8436 17.9756L17.5001 16.6322C17.1157 16.2478 16.5157 16.2478 16.1323 16.6322C15.7479 17.0166 15.7479 17.64 16.1323 18L17.4523 19.32C15.8201 20.6644 13.7558 21.4556 11.5001 21.4556C6.29231 21.4556 2.04455 17.2078 2.04455 12.0001L2.04458 12.0001Z" fill="#30DFC4"/>
</svg>
