<svg width="193" height="42" viewBox="0 0 193 42" fill="none" xmlns="http://www.w3.org/2000/svg">
<g filter="url(#filter0_d)">
<rect x="1" width="191" height="40" rx="20" fill="#DCF7C5"/>
</g>
<path d="M22.7727 18.2727C22.7045 17.697 22.428 17.25 21.9432 16.9318C21.4583 16.6136 20.8636 16.4545 20.1591 16.4545C19.6439 16.4545 19.1932 16.5379 18.8068 16.7045C18.4242 16.8712 18.125 17.1004 17.9091 17.392C17.697 17.6837 17.5909 18.0152 17.5909 18.3864C17.5909 18.697 17.6648 18.964 17.8125 19.1875C17.964 19.4072 18.1572 19.5909 18.392 19.7386C18.6269 19.8826 18.8731 20.0019 19.1307 20.0966C19.3883 20.1875 19.625 20.2614 19.8409 20.3182L21.0227 20.6364C21.3258 20.7159 21.6629 20.8258 22.0341 20.9659C22.4091 21.1061 22.767 21.2973 23.108 21.5398C23.4527 21.7784 23.7367 22.0852 23.9602 22.4602C24.1837 22.8352 24.2955 23.2955 24.2955 23.8409C24.2955 24.4697 24.1307 25.0379 23.8011 25.5455C23.4754 26.053 22.9981 26.4564 22.3693 26.7557C21.7443 27.0549 20.9848 27.2045 20.0909 27.2045C19.2576 27.2045 18.536 27.0701 17.9261 26.8011C17.3201 26.5322 16.8428 26.1572 16.4943 25.6761C16.1496 25.1951 15.9545 24.6364 15.9091 24H17.3636C17.4015 24.4394 17.5492 24.803 17.8068 25.0909C18.0682 25.375 18.3977 25.5871 18.7955 25.7273C19.197 25.8636 19.6288 25.9318 20.0909 25.9318C20.6288 25.9318 21.1117 25.8447 21.5398 25.6705C21.9678 25.4924 22.3068 25.2462 22.5568 24.9318C22.8068 24.6136 22.9318 24.2424 22.9318 23.8182C22.9318 23.4318 22.8239 23.1174 22.608 22.875C22.392 22.6326 22.108 22.4356 21.7557 22.2841C21.4034 22.1326 21.0227 22 20.6136 21.8864L19.1818 21.4773C18.2727 21.2159 17.553 20.8428 17.0227 20.358C16.4924 19.8731 16.2273 19.2386 16.2273 18.4545C16.2273 17.803 16.4034 17.2348 16.7557 16.75C17.1117 16.2614 17.589 15.8826 18.1875 15.6136C18.7898 15.3409 19.4621 15.2045 20.2045 15.2045C20.9545 15.2045 21.6212 15.339 22.2045 15.608C22.7879 15.8731 23.25 16.2367 23.5909 16.6989C23.9356 17.161 24.1174 17.6856 24.1364 18.2727H22.7727ZM29.7895 27.1818C28.9486 27.1818 28.2232 26.9962 27.6134 26.625C27.0073 26.25 26.5395 25.7273 26.2099 25.0568C25.8842 24.3826 25.7213 23.5985 25.7213 22.7045C25.7213 21.8106 25.8842 21.0227 26.2099 20.3409C26.5395 19.6553 26.9978 19.1212 27.5849 18.7386C28.1759 18.3523 28.8652 18.1591 29.6531 18.1591C30.1077 18.1591 30.5565 18.2348 30.9997 18.3864C31.4429 18.5379 31.8463 18.7841 32.2099 19.125C32.5736 19.4621 32.8634 19.9091 33.0793 20.4659C33.2952 21.0227 33.4031 21.7083 33.4031 22.5227V23.0909H26.6759V21.9318H32.0395C32.0395 21.4394 31.941 21 31.744 20.6136C31.5509 20.2273 31.2743 19.9223 30.9145 19.6989C30.5584 19.4754 30.138 19.3636 29.6531 19.3636C29.119 19.3636 28.6569 19.4962 28.2668 19.7614C27.8804 20.0227 27.583 20.3636 27.3747 20.7841C27.1664 21.2045 27.0622 21.6553 27.0622 22.1364V22.9091C27.0622 23.5682 27.1759 24.1269 27.4031 24.5852C27.6342 25.0398 27.9543 25.3864 28.3634 25.625C28.7724 25.8598 29.2478 25.9773 29.7895 25.9773C30.1418 25.9773 30.4599 25.928 30.744 25.8295C31.0319 25.7273 31.28 25.5758 31.4884 25.375C31.6967 25.1705 31.8577 24.9167 31.9713 24.6136L33.2668 24.9773C33.1304 25.4167 32.9012 25.803 32.5793 26.1364C32.2573 26.4659 31.8596 26.7235 31.3861 26.9091C30.9126 27.0909 30.3804 27.1818 29.7895 27.1818ZM36.4838 21.75V27H35.1429V18.2727H36.4384V19.6364H36.552C36.7565 19.1932 37.0671 18.8371 37.4838 18.5682C37.9005 18.2955 38.4384 18.1591 39.0974 18.1591C39.6884 18.1591 40.2054 18.2803 40.6486 18.5227C41.0918 18.7614 41.4365 19.125 41.6827 19.6136C41.9289 20.0985 42.052 20.7121 42.052 21.4545V27H40.7111V21.5455C40.7111 20.8598 40.533 20.3258 40.177 19.9432C39.8209 19.5568 39.3323 19.3636 38.7111 19.3636C38.283 19.3636 37.9005 19.4564 37.5634 19.642C37.23 19.8277 36.9668 20.0985 36.7736 20.4545C36.5804 20.8106 36.4838 21.2424 36.4838 21.75ZM47.4977 27.1818C46.7705 27.1818 46.1284 26.9981 45.5716 26.6307C45.0148 26.2595 44.5792 25.7367 44.2648 25.0625C43.9504 24.3845 43.7932 23.5833 43.7932 22.6591C43.7932 21.7424 43.9504 20.947 44.2648 20.2727C44.5792 19.5985 45.0167 19.0777 45.5773 18.7102C46.1379 18.3428 46.7856 18.1591 47.5205 18.1591C48.0886 18.1591 48.5375 18.2538 48.867 18.4432C49.2004 18.6288 49.4542 18.8409 49.6284 19.0795C49.8064 19.3144 49.9447 19.5076 50.0432 19.6591H50.1568V15.3636H51.4977V27H50.2023V25.6591H50.0432C49.9447 25.8182 49.8045 26.0189 49.6227 26.2614C49.4409 26.5 49.1814 26.714 48.8443 26.9034C48.5072 27.089 48.0583 27.1818 47.4977 27.1818ZM47.6795 25.9773C48.2174 25.9773 48.672 25.8371 49.0432 25.5568C49.4144 25.2727 49.6966 24.8807 49.8898 24.3807C50.083 23.8769 50.1795 23.2955 50.1795 22.6364C50.1795 21.9848 50.0848 21.4148 49.8955 20.9261C49.7061 20.4337 49.4258 20.0511 49.0545 19.7784C48.6833 19.5019 48.225 19.3636 47.6795 19.3636C47.1114 19.3636 46.6379 19.5095 46.2591 19.8011C45.8841 20.089 45.6019 20.4811 45.4125 20.9773C45.2269 21.4697 45.1341 22.0227 45.1341 22.6364C45.1341 23.2576 45.2288 23.822 45.4182 24.3295C45.6114 24.8333 45.8955 25.2348 46.2705 25.5341C46.6492 25.8295 47.1189 25.9773 47.6795 25.9773ZM62.108 15.3636V27H60.6989V16.8409H60.6307L57.7898 18.7273V17.2955L60.6989 15.3636H62.108ZM69.5591 27V15.3636H76.5818V16.6136H70.9682V20.5455H76.2182V21.7955H70.9682V25.75H76.6727V27H69.5591ZM78.1852 16.6136V15.3636H86.9125V16.6136H83.2534V27H81.8443V16.6136H78.1852ZM88.7872 27V15.3636H90.1963V20.5455H96.4009V15.3636H97.8099V27H96.4009V21.7955H90.1963V27H88.7872ZM108.145 18.2727V19.4091H103.622V18.2727H108.145ZM104.94 16.1818H106.281V24.5C106.281 24.8788 106.336 25.1629 106.446 25.3523C106.559 25.5379 106.703 25.6629 106.878 25.7273C107.056 25.7879 107.243 25.8182 107.44 25.8182C107.588 25.8182 107.709 25.8106 107.804 25.7955C107.898 25.7765 107.974 25.7614 108.031 25.75L108.304 26.9545C108.213 26.9886 108.086 27.0227 107.923 27.0568C107.76 27.0947 107.554 27.1136 107.304 27.1136C106.925 27.1136 106.554 27.0322 106.19 26.8693C105.83 26.7064 105.531 26.4583 105.292 26.125C105.057 25.7917 104.94 25.3712 104.94 24.8636V16.1818ZM113.313 27.1818C112.525 27.1818 111.834 26.9943 111.239 26.6193C110.649 26.2443 110.186 25.7197 109.853 25.0455C109.524 24.3712 109.359 23.5833 109.359 22.6818C109.359 21.7727 109.524 20.9792 109.853 20.3011C110.186 19.6231 110.649 19.0966 111.239 18.7216C111.834 18.3466 112.525 18.1591 113.313 18.1591C114.101 18.1591 114.791 18.3466 115.382 18.7216C115.976 19.0966 116.438 19.6231 116.768 20.3011C117.101 20.9792 117.268 21.7727 117.268 22.6818C117.268 23.5833 117.101 24.3712 116.768 25.0455C116.438 25.7197 115.976 26.2443 115.382 26.6193C114.791 26.9943 114.101 27.1818 113.313 27.1818ZM113.313 25.9773C113.912 25.9773 114.404 25.8239 114.791 25.517C115.177 25.2102 115.463 24.8068 115.649 24.3068C115.834 23.8068 115.927 23.2652 115.927 22.6818C115.927 22.0985 115.834 21.5549 115.649 21.0511C115.463 20.5473 115.177 20.1402 114.791 19.8295C114.404 19.5189 113.912 19.3636 113.313 19.3636C112.715 19.3636 112.222 19.5189 111.836 19.8295C111.45 20.1402 111.164 20.5473 110.978 21.0511C110.793 21.5549 110.7 22.0985 110.7 22.6818C110.7 23.2652 110.793 23.8068 110.978 24.3068C111.164 24.8068 111.45 25.2102 111.836 25.517C112.222 25.8239 112.715 25.9773 113.313 25.9773ZM123.397 27V15.3636H124.806V21.1364H124.942L130.169 15.3636H132.01L127.124 20.6136L132.01 27H130.306L126.26 21.5909L124.806 23.2273V27H123.397ZM136.371 27.1818C135.53 27.1818 134.804 26.9962 134.195 26.625C133.589 26.25 133.121 25.7273 132.791 25.0568C132.465 24.3826 132.303 23.5985 132.303 22.7045C132.303 21.8106 132.465 21.0227 132.791 20.3409C133.121 19.6553 133.579 19.1212 134.166 18.7386C134.757 18.3523 135.446 18.1591 136.234 18.1591C136.689 18.1591 137.138 18.2348 137.581 18.3864C138.024 18.5379 138.428 18.7841 138.791 19.125C139.155 19.4621 139.445 19.9091 139.661 20.4659C139.876 21.0227 139.984 21.7083 139.984 22.5227V23.0909H133.257V21.9318H138.621C138.621 21.4394 138.522 21 138.325 20.6136C138.132 20.2273 137.856 19.9223 137.496 19.6989C137.14 19.4754 136.719 19.3636 136.234 19.3636C135.7 19.3636 135.238 19.4962 134.848 19.7614C134.462 20.0227 134.164 20.3636 133.956 20.7841C133.748 21.2045 133.643 21.6553 133.643 22.1364V22.9091C133.643 23.5682 133.757 24.1269 133.984 24.5852C134.215 25.0398 134.536 25.3864 134.945 25.625C135.354 25.8598 135.829 25.9773 136.371 25.9773C136.723 25.9773 137.041 25.928 137.325 25.8295C137.613 25.7273 137.861 25.5758 138.07 25.375C138.278 25.1705 138.439 24.9167 138.553 24.6136L139.848 24.9773C139.712 25.4167 139.482 25.803 139.161 26.1364C138.839 26.4659 138.441 26.7235 137.967 26.9091C137.494 27.0909 136.962 27.1818 136.371 27.1818ZM143.065 21.75V27H141.724V18.2727H143.02V19.6364H143.133C143.338 19.1932 143.648 18.8371 144.065 18.5682C144.482 18.2955 145.02 18.1591 145.679 18.1591C146.27 18.1591 146.787 18.2803 147.23 18.5227C147.673 18.7614 148.018 19.125 148.264 19.6136C148.51 20.0985 148.633 20.7121 148.633 21.4545V27H147.292V21.5455C147.292 20.8598 147.114 20.3258 146.758 19.9432C146.402 19.5568 145.914 19.3636 145.292 19.3636C144.864 19.3636 144.482 19.4564 144.145 19.642C143.811 19.8277 143.548 20.0985 143.355 20.4545C143.162 20.8106 143.065 21.2424 143.065 21.75ZM152.124 21.75V27H150.784V18.2727H152.079V19.6364H152.193C152.397 19.1932 152.708 18.8371 153.124 18.5682C153.541 18.2955 154.079 18.1591 154.738 18.1591C155.329 18.1591 155.846 18.2803 156.289 18.5227C156.732 18.7614 157.077 19.125 157.323 19.6136C157.57 20.0985 157.693 20.7121 157.693 21.4545V27H156.352V21.5455C156.352 20.8598 156.174 20.3258 155.818 19.9432C155.462 19.5568 154.973 19.3636 154.352 19.3636C153.924 19.3636 153.541 19.4564 153.204 19.642C152.871 19.8277 152.607 20.0985 152.414 20.4545C152.221 20.8106 152.124 21.2424 152.124 21.75ZM160.394 30.25C160.167 30.25 159.964 30.2311 159.786 30.1932C159.608 30.1591 159.485 30.125 159.417 30.0909L159.758 28.9091C160.246 29.0341 160.654 29.0303 160.979 28.8977C161.305 28.7689 161.587 28.3788 161.826 27.7273L162.076 27.0455L158.849 18.2727H160.303L162.712 25.2273H162.803L165.212 18.2727L166.678 18.2955L162.962 28.2727C162.796 28.7159 162.589 29.0833 162.343 29.375C162.097 29.6705 161.811 29.8902 161.485 30.0341C161.163 30.178 160.799 30.25 160.394 30.25ZM176.289 19C176.164 18.6174 175.999 18.2746 175.794 17.9716C175.594 17.6648 175.353 17.4034 175.073 17.1875C174.796 16.9716 174.482 16.8068 174.13 16.6932C173.777 16.5795 173.391 16.5227 172.97 16.5227C172.281 16.5227 171.654 16.7008 171.09 17.0568C170.525 17.4129 170.077 17.9375 169.743 18.6307C169.41 19.3239 169.243 20.1742 169.243 21.1818C169.243 22.1894 169.412 23.0398 169.749 23.733C170.086 24.4261 170.542 24.9508 171.118 25.3068C171.694 25.6629 172.342 25.8409 173.061 25.8409C173.728 25.8409 174.315 25.6989 174.823 25.4148C175.334 25.1269 175.732 24.7216 176.016 24.1989C176.304 23.6723 176.448 23.053 176.448 22.3409L176.88 22.4318H173.38V21.1818H177.811V22.4318C177.811 23.3902 177.607 24.2235 177.198 24.9318C176.792 25.6402 176.232 26.1894 175.516 26.5795C174.804 26.9659 173.986 27.1591 173.061 27.1591C172.031 27.1591 171.126 26.9167 170.345 26.4318C169.569 25.947 168.963 25.2576 168.527 24.3636C168.095 23.4697 167.88 22.4091 167.88 21.1818C167.88 20.2614 168.003 19.4337 168.249 18.6989C168.499 17.9602 168.851 17.3314 169.306 16.8125C169.76 16.2936 170.298 15.8958 170.919 15.6193C171.541 15.3428 172.224 15.2045 172.97 15.2045C173.584 15.2045 174.156 15.2973 174.686 15.483C175.22 15.6648 175.696 15.9242 176.113 16.2614C176.533 16.5947 176.883 16.9943 177.164 17.4602C177.444 17.9223 177.637 18.4356 177.743 19H176.289Z" fill="#41505B"/>
<defs>
<filter id="filter0_d" x="0" y="0" width="193" height="42" filterUnits="userSpaceOnUse" color-interpolation-filters="sRGB">
<feFlood flood-opacity="0" result="BackgroundImageFix"/>
<feColorMatrix in="SourceAlpha" type="matrix" values="0 0 0 0 0 0 0 0 0 0 0 0 0 0 0 0 0 0 127 0"/>
<feOffset dy="1"/>
<feGaussianBlur stdDeviation="0.5"/>
<feColorMatrix type="matrix" values="0 0 0 0 0.14902 0 0 0 0 0.207843 0 0 0 0 0.25098 0 0 0 0.3 0"/>
<feBlend mode="multiply" in2="BackgroundImageFix" result="effect1_dropShadow"/>
<feBlend mode="normal" in="SourceGraphic" in2="effect1_dropShadow" result="shape"/>
</filter>
</defs>
</svg>
