<svg width="376" height="440" viewBox="0 0 376 440" fill="none" xmlns="http://www.w3.org/2000/svg">
<g filter="url(#filter0_dd)">
<rect x="36" y="4" width="304" height="615" rx="25" fill="#F6F6F6"/>
</g>
<g filter="url(#filter1_d)">
<rect x="1" y="304" width="250" height="59" rx="20" fill="white"/>
</g>
<path d="M13.7727 320.614V319.364H22.5V320.614H18.8409V331H17.4318V320.614H13.7727ZM23.2866 331V322.273H24.5821V323.591H24.673C24.8321 323.159 25.12 322.809 25.5366 322.54C25.9533 322.271 26.423 322.136 26.9457 322.136C27.0442 322.136 27.1673 322.138 27.3151 322.142C27.4628 322.146 27.5745 322.152 27.6503 322.159V323.523C27.6048 323.511 27.5007 323.494 27.3378 323.472C27.1787 323.445 27.0101 323.432 26.8321 323.432C26.4079 323.432 26.0291 323.521 25.6957 323.699C25.3662 323.873 25.1048 324.116 24.9116 324.426C24.7223 324.733 24.6276 325.083 24.6276 325.477V331H23.2866ZM31.508 331.205C30.9549 331.205 30.453 331.1 30.0023 330.892C29.5515 330.68 29.1936 330.375 28.9284 329.977C28.6633 329.576 28.5307 329.091 28.5307 328.523C28.5307 328.023 28.6292 327.617 28.8261 327.307C29.0231 326.992 29.2864 326.746 29.6159 326.568C29.9455 326.39 30.3091 326.258 30.7068 326.17C31.1083 326.08 31.5117 326.008 31.917 325.955C32.4473 325.886 32.8773 325.835 33.2068 325.801C33.5402 325.763 33.7826 325.701 33.9341 325.614C34.0894 325.527 34.167 325.375 34.167 325.159V325.114C34.167 324.553 34.0136 324.117 33.7068 323.807C33.4038 323.496 32.9436 323.341 32.3261 323.341C31.686 323.341 31.1841 323.481 30.8205 323.761C30.4568 324.042 30.2011 324.341 30.0534 324.659L28.7807 324.205C29.008 323.674 29.311 323.261 29.6898 322.966C30.0723 322.667 30.489 322.458 30.9398 322.341C31.3943 322.22 31.8413 322.159 32.2807 322.159C32.561 322.159 32.883 322.193 33.2466 322.261C33.614 322.326 33.9682 322.46 34.3091 322.665C34.6538 322.869 34.9398 323.178 35.167 323.591C35.3943 324.004 35.508 324.557 35.508 325.25V331H34.167V329.818H34.0989C34.008 330.008 33.8564 330.21 33.6443 330.426C33.4322 330.642 33.15 330.826 32.7977 330.977C32.4455 331.129 32.0155 331.205 31.508 331.205ZM31.7125 330C32.2428 330 32.6898 329.896 33.0534 329.688C33.4208 329.479 33.6973 329.21 33.883 328.881C34.0723 328.551 34.167 328.205 34.167 327.841V326.614C34.1102 326.682 33.9852 326.744 33.792 326.801C33.6027 326.854 33.383 326.902 33.133 326.943C32.8867 326.981 32.6462 327.015 32.4114 327.045C32.1803 327.072 31.9928 327.095 31.8489 327.114C31.5004 327.159 31.1746 327.233 30.8716 327.335C30.5723 327.434 30.3299 327.583 30.1443 327.784C29.9625 327.981 29.8716 328.25 29.8716 328.591C29.8716 329.057 30.0439 329.409 30.3886 329.648C30.7371 329.883 31.1784 330 31.7125 330ZM38.9963 325.75V331H37.6554V322.273H38.9509V323.636H39.0645C39.269 323.193 39.5796 322.837 39.9963 322.568C40.413 322.295 40.9509 322.159 41.6099 322.159C42.2009 322.159 42.7179 322.28 43.1611 322.523C43.6043 322.761 43.949 323.125 44.1952 323.614C44.4414 324.098 44.5645 324.712 44.5645 325.455V331H43.2236V325.545C43.2236 324.86 43.0456 324.326 42.6895 323.943C42.3334 323.557 41.8448 323.364 41.2236 323.364C40.7955 323.364 40.413 323.456 40.0759 323.642C39.7425 323.828 39.4793 324.098 39.2861 324.455C39.0929 324.811 38.9963 325.242 38.9963 325.75ZM52.8966 324.227L51.692 324.568C51.6163 324.367 51.5045 324.172 51.3568 323.983C51.2129 323.79 51.0159 323.631 50.7659 323.506C50.5159 323.381 50.1958 323.318 49.8057 323.318C49.2716 323.318 48.8265 323.441 48.4705 323.688C48.1182 323.93 47.942 324.239 47.942 324.614C47.942 324.947 48.0633 325.21 48.3057 325.403C48.5481 325.597 48.9269 325.758 49.442 325.886L50.7375 326.205C51.5178 326.394 52.0992 326.684 52.4818 327.074C52.8644 327.46 53.0557 327.958 53.0557 328.568C53.0557 329.068 52.9117 329.515 52.6239 329.909C52.3398 330.303 51.942 330.614 51.4307 330.841C50.9193 331.068 50.3246 331.182 49.6466 331.182C48.7564 331.182 48.0197 330.989 47.4364 330.602C46.853 330.216 46.4837 329.652 46.3284 328.909L47.6011 328.591C47.7223 329.061 47.9515 329.413 48.2886 329.648C48.6295 329.883 49.0746 330 49.6239 330C50.2489 330 50.7451 329.867 51.1125 329.602C51.4837 329.333 51.6693 329.011 51.6693 328.636C51.6693 328.333 51.5633 328.08 51.3511 327.875C51.139 327.667 50.8133 327.511 50.3739 327.409L48.9193 327.068C48.1201 326.879 47.533 326.585 47.158 326.188C46.7867 325.786 46.6011 325.284 46.6011 324.682C46.6011 324.189 46.7394 323.754 47.0159 323.375C47.2962 322.996 47.6769 322.699 48.158 322.483C48.6428 322.267 49.192 322.159 49.8057 322.159C50.6693 322.159 51.3473 322.348 51.8398 322.727C52.336 323.106 52.6883 323.606 52.8966 324.227ZM57.3423 331.205C56.7893 331.205 56.2874 331.1 55.8366 330.892C55.3859 330.68 55.0279 330.375 54.7628 329.977C54.4976 329.576 54.3651 329.091 54.3651 328.523C54.3651 328.023 54.4635 327.617 54.6605 327.307C54.8575 326.992 55.1207 326.746 55.4503 326.568C55.7798 326.39 56.1435 326.258 56.5412 326.17C56.9427 326.08 57.3461 326.008 57.7514 325.955C58.2817 325.886 58.7116 325.835 59.0412 325.801C59.3745 325.763 59.617 325.701 59.7685 325.614C59.9238 325.527 60.0014 325.375 60.0014 325.159V325.114C60.0014 324.553 59.848 324.117 59.5412 323.807C59.2382 323.496 58.7779 323.341 58.1605 323.341C57.5204 323.341 57.0185 323.481 56.6548 323.761C56.2912 324.042 56.0355 324.341 55.8878 324.659L54.6151 324.205C54.8423 323.674 55.1454 323.261 55.5241 322.966C55.9067 322.667 56.3234 322.458 56.7741 322.341C57.2287 322.22 57.6757 322.159 58.1151 322.159C58.3954 322.159 58.7173 322.193 59.081 322.261C59.4484 322.326 59.8026 322.46 60.1435 322.665C60.4882 322.869 60.7741 323.178 61.0014 323.591C61.2287 324.004 61.3423 324.557 61.3423 325.25V331H60.0014V329.818H59.9332C59.8423 330.008 59.6908 330.21 59.4787 330.426C59.2666 330.642 58.9844 330.826 58.6321 330.977C58.2798 331.129 57.8499 331.205 57.3423 331.205ZM57.5469 330C58.0772 330 58.5241 329.896 58.8878 329.688C59.2552 329.479 59.5317 329.21 59.7173 328.881C59.9067 328.551 60.0014 328.205 60.0014 327.841V326.614C59.9446 326.682 59.8196 326.744 59.6264 326.801C59.437 326.854 59.2173 326.902 58.9673 326.943C58.7211 326.981 58.4806 327.015 58.2457 327.045C58.0147 327.072 57.8272 327.095 57.6832 327.114C57.3348 327.159 57.009 327.233 56.706 327.335C56.4067 327.434 56.1643 327.583 55.9787 327.784C55.7969 327.981 55.706 328.25 55.706 328.591C55.706 329.057 55.8783 329.409 56.223 329.648C56.5715 329.883 57.0128 330 57.5469 330ZM67.0352 331.182C66.217 331.182 65.5125 330.989 64.9216 330.602C64.3307 330.216 63.8761 329.684 63.558 329.006C63.2398 328.328 63.0807 327.553 63.0807 326.682C63.0807 325.795 63.2436 325.013 63.5693 324.335C63.8989 323.653 64.3572 323.121 64.9443 322.739C65.5352 322.352 66.2246 322.159 67.0125 322.159C67.6261 322.159 68.1792 322.273 68.6716 322.5C69.164 322.727 69.5674 323.045 69.8818 323.455C70.1962 323.864 70.3913 324.341 70.467 324.886H69.1261C69.0239 324.489 68.7966 324.136 68.4443 323.83C68.0958 323.519 67.6261 323.364 67.0352 323.364C66.5125 323.364 66.0542 323.5 65.6602 323.773C65.2701 324.042 64.9652 324.422 64.7455 324.915C64.5295 325.403 64.4216 325.977 64.4216 326.636C64.4216 327.311 64.5277 327.898 64.7398 328.398C64.9557 328.898 65.2587 329.286 65.6489 329.562C66.0428 329.839 66.5049 329.977 67.0352 329.977C67.3837 329.977 67.7 329.917 67.9841 329.795C68.2682 329.674 68.5087 329.5 68.7057 329.273C68.9027 329.045 69.0428 328.773 69.1261 328.455H70.467C70.3913 328.97 70.2038 329.434 69.9045 329.847C69.6091 330.256 69.217 330.581 68.7284 330.824C68.2436 331.062 67.6792 331.182 67.0352 331.182ZM75.9227 322.273V323.409H71.4V322.273H75.9227ZM72.7182 320.182H74.0591V328.5C74.0591 328.879 74.114 329.163 74.2239 329.352C74.3375 329.538 74.4814 329.663 74.6557 329.727C74.8337 329.788 75.0212 329.818 75.2182 329.818C75.3659 329.818 75.4871 329.811 75.5818 329.795C75.6765 329.777 75.7523 329.761 75.8091 329.75L76.0818 330.955C75.9909 330.989 75.864 331.023 75.7011 331.057C75.5383 331.095 75.3318 331.114 75.0818 331.114C74.703 331.114 74.3318 331.032 73.9682 330.869C73.6083 330.706 73.3091 330.458 73.0705 330.125C72.8356 329.792 72.7182 329.371 72.7182 328.864V320.182ZM77.6398 331V322.273H78.9807V331H77.6398ZM78.3216 320.818C78.0602 320.818 77.8348 320.729 77.6455 320.551C77.4598 320.373 77.367 320.159 77.367 319.909C77.367 319.659 77.4598 319.445 77.6455 319.267C77.8348 319.089 78.0602 319 78.3216 319C78.583 319 78.8064 319.089 78.992 319.267C79.1814 319.445 79.2761 319.659 79.2761 319.909C79.2761 320.159 79.1814 320.373 78.992 320.551C78.8064 320.729 78.583 320.818 78.3216 320.818ZM84.6821 331.182C83.8942 331.182 83.2029 330.994 82.6082 330.619C82.0173 330.244 81.5552 329.72 81.2219 329.045C80.8923 328.371 80.7276 327.583 80.7276 326.682C80.7276 325.773 80.8923 324.979 81.2219 324.301C81.5552 323.623 82.0173 323.097 82.6082 322.722C83.2029 322.347 83.8942 322.159 84.6821 322.159C85.47 322.159 86.1594 322.347 86.7503 322.722C87.345 323.097 87.8071 323.623 88.1367 324.301C88.47 324.979 88.6367 325.773 88.6367 326.682C88.6367 327.583 88.47 328.371 88.1367 329.045C87.8071 329.72 87.345 330.244 86.7503 330.619C86.1594 330.994 85.47 331.182 84.6821 331.182ZM84.6821 329.977C85.2806 329.977 85.773 329.824 86.1594 329.517C86.5457 329.21 86.8317 328.807 87.0173 328.307C87.2029 327.807 87.2957 327.265 87.2957 326.682C87.2957 326.098 87.2029 325.555 87.0173 325.051C86.8317 324.547 86.5457 324.14 86.1594 323.83C85.773 323.519 85.2806 323.364 84.6821 323.364C84.0836 323.364 83.5912 323.519 83.2048 323.83C82.8185 324.14 82.5325 324.547 82.3469 325.051C82.1613 325.555 82.0685 326.098 82.0685 326.682C82.0685 327.265 82.1613 327.807 82.3469 328.307C82.5325 328.807 82.8185 329.21 83.2048 329.517C83.5912 329.824 84.0836 329.977 84.6821 329.977ZM91.7244 325.75V331H90.3835V322.273H91.679V323.636H91.7926C91.9972 323.193 92.3078 322.837 92.7244 322.568C93.1411 322.295 93.679 322.159 94.3381 322.159C94.929 322.159 95.446 322.28 95.8892 322.523C96.3324 322.761 96.6771 323.125 96.9233 323.614C97.1695 324.098 97.2926 324.712 97.2926 325.455V331H95.9517V325.545C95.9517 324.86 95.7737 324.326 95.4176 323.943C95.0616 323.557 94.5729 323.364 93.9517 323.364C93.5237 323.364 93.1411 323.456 92.804 323.642C92.4706 323.828 92.2074 324.098 92.0142 324.455C91.821 324.811 91.7244 325.242 91.7244 325.75ZM107.188 331.182C106.37 331.182 105.666 330.989 105.075 330.602C104.484 330.216 104.029 329.684 103.711 329.006C103.393 328.328 103.234 327.553 103.234 326.682C103.234 325.795 103.397 325.013 103.722 324.335C104.052 323.653 104.51 323.121 105.097 322.739C105.688 322.352 106.378 322.159 107.166 322.159C107.779 322.159 108.332 322.273 108.825 322.5C109.317 322.727 109.721 323.045 110.035 323.455C110.349 323.864 110.544 324.341 110.62 324.886H109.279C109.177 324.489 108.95 324.136 108.597 323.83C108.249 323.519 107.779 323.364 107.188 323.364C106.666 323.364 106.207 323.5 105.813 323.773C105.423 324.042 105.118 324.422 104.899 324.915C104.683 325.403 104.575 325.977 104.575 326.636C104.575 327.311 104.681 327.898 104.893 328.398C105.109 328.898 105.412 329.286 105.802 329.562C106.196 329.839 106.658 329.977 107.188 329.977C107.537 329.977 107.853 329.917 108.137 329.795C108.421 329.674 108.662 329.5 108.859 329.273C109.056 329.045 109.196 328.773 109.279 328.455H110.62C110.544 328.97 110.357 329.434 110.058 329.847C109.762 330.256 109.37 330.581 108.882 330.824C108.397 331.062 107.832 331.182 107.188 331.182ZM115.826 331.182C115.038 331.182 114.347 330.994 113.752 330.619C113.161 330.244 112.699 329.72 112.366 329.045C112.036 328.371 111.871 327.583 111.871 326.682C111.871 325.773 112.036 324.979 112.366 324.301C112.699 323.623 113.161 323.097 113.752 322.722C114.347 322.347 115.038 322.159 115.826 322.159C116.614 322.159 117.303 322.347 117.894 322.722C118.489 323.097 118.951 323.623 119.28 324.301C119.614 324.979 119.78 325.773 119.78 326.682C119.78 327.583 119.614 328.371 119.28 329.045C118.951 329.72 118.489 330.244 117.894 330.619C117.303 330.994 116.614 331.182 115.826 331.182ZM115.826 329.977C116.424 329.977 116.917 329.824 117.303 329.517C117.689 329.21 117.975 328.807 118.161 328.307C118.347 327.807 118.439 327.265 118.439 326.682C118.439 326.098 118.347 325.555 118.161 325.051C117.975 324.547 117.689 324.14 117.303 323.83C116.917 323.519 116.424 323.364 115.826 323.364C115.227 323.364 114.735 323.519 114.349 323.83C113.962 324.14 113.676 324.547 113.491 325.051C113.305 325.555 113.212 326.098 113.212 326.682C113.212 327.265 113.305 327.807 113.491 328.307C113.676 328.807 113.962 329.21 114.349 329.517C114.735 329.824 115.227 329.977 115.826 329.977ZM121.527 331V322.273H122.823V323.636H122.936C123.118 323.17 123.412 322.809 123.817 322.551C124.222 322.29 124.709 322.159 125.277 322.159C125.853 322.159 126.332 322.29 126.715 322.551C127.101 322.809 127.402 323.17 127.618 323.636H127.709C127.933 323.186 128.268 322.828 128.715 322.562C129.162 322.294 129.698 322.159 130.323 322.159C131.103 322.159 131.741 322.403 132.238 322.892C132.734 323.377 132.982 324.133 132.982 325.159V331H131.641V325.159C131.641 324.515 131.465 324.055 131.113 323.778C130.76 323.502 130.345 323.364 129.868 323.364C129.255 323.364 128.779 323.549 128.442 323.92C128.105 324.288 127.936 324.754 127.936 325.318V331H126.573V325.023C126.573 324.527 126.412 324.127 126.09 323.824C125.768 323.517 125.353 323.364 124.845 323.364C124.497 323.364 124.171 323.456 123.868 323.642C123.569 323.828 123.327 324.085 123.141 324.415C122.959 324.741 122.868 325.117 122.868 325.545V331H121.527ZM135.134 334.273V322.273H136.429V323.659H136.588C136.687 323.508 136.823 323.314 136.997 323.08C137.175 322.841 137.429 322.629 137.759 322.443C138.092 322.254 138.543 322.159 139.111 322.159C139.846 322.159 140.493 322.343 141.054 322.71C141.615 323.078 142.052 323.598 142.366 324.273C142.681 324.947 142.838 325.742 142.838 326.659C142.838 327.583 142.681 328.384 142.366 329.062C142.052 329.737 141.616 330.259 141.06 330.631C140.503 330.998 139.861 331.182 139.134 331.182C138.573 331.182 138.124 331.089 137.787 330.903C137.45 330.714 137.19 330.5 137.009 330.261C136.827 330.019 136.687 329.818 136.588 329.659H136.474V334.273H135.134ZM136.452 326.636C136.452 327.295 136.548 327.877 136.741 328.381C136.935 328.881 137.217 329.273 137.588 329.557C137.959 329.837 138.414 329.977 138.952 329.977C139.512 329.977 139.98 329.83 140.355 329.534C140.734 329.235 141.018 328.833 141.207 328.33C141.401 327.822 141.497 327.258 141.497 326.636C141.497 326.023 141.402 325.47 141.213 324.977C141.027 324.481 140.745 324.089 140.366 323.801C139.991 323.509 139.52 323.364 138.952 323.364C138.406 323.364 137.948 323.502 137.577 323.778C137.205 324.051 136.925 324.434 136.736 324.926C136.546 325.415 136.452 325.985 136.452 326.636ZM145.924 319.364V331H144.584V319.364H145.924ZM151.739 331.182C150.899 331.182 150.173 330.996 149.563 330.625C148.957 330.25 148.489 329.727 148.16 329.057C147.834 328.383 147.671 327.598 147.671 326.705C147.671 325.811 147.834 325.023 148.16 324.341C148.489 323.655 148.948 323.121 149.535 322.739C150.126 322.352 150.815 322.159 151.603 322.159C152.058 322.159 152.507 322.235 152.95 322.386C153.393 322.538 153.796 322.784 154.16 323.125C154.524 323.462 154.813 323.909 155.029 324.466C155.245 325.023 155.353 325.708 155.353 326.523V327.091H148.626V325.932H153.989C153.989 325.439 153.891 325 153.694 324.614C153.501 324.227 153.224 323.922 152.864 323.699C152.508 323.475 152.088 323.364 151.603 323.364C151.069 323.364 150.607 323.496 150.217 323.761C149.83 324.023 149.533 324.364 149.325 324.784C149.116 325.205 149.012 325.655 149.012 326.136V326.909C149.012 327.568 149.126 328.127 149.353 328.585C149.584 329.04 149.904 329.386 150.313 329.625C150.722 329.86 151.198 329.977 151.739 329.977C152.092 329.977 152.41 329.928 152.694 329.83C152.982 329.727 153.23 329.576 153.438 329.375C153.647 329.17 153.808 328.917 153.921 328.614L155.217 328.977C155.08 329.417 154.851 329.803 154.529 330.136C154.207 330.466 153.81 330.723 153.336 330.909C152.863 331.091 152.33 331.182 151.739 331.182ZM160.888 322.273V323.409H156.366V322.273H160.888ZM157.684 320.182H159.025V328.5C159.025 328.879 159.08 329.163 159.189 329.352C159.303 329.538 159.447 329.663 159.621 329.727C159.799 329.788 159.987 329.818 160.184 329.818C160.332 329.818 160.453 329.811 160.547 329.795C160.642 329.777 160.718 329.761 160.775 329.75L161.047 330.955C160.957 330.989 160.83 331.023 160.667 331.057C160.504 331.095 160.297 331.114 160.047 331.114C159.669 331.114 159.297 331.032 158.934 330.869C158.574 330.706 158.275 330.458 158.036 330.125C157.801 329.792 157.684 329.371 157.684 328.864V320.182ZM166.171 331.182C165.33 331.182 164.604 330.996 163.995 330.625C163.389 330.25 162.921 329.727 162.591 329.057C162.265 328.383 162.103 327.598 162.103 326.705C162.103 325.811 162.265 325.023 162.591 324.341C162.921 323.655 163.379 323.121 163.966 322.739C164.557 322.352 165.246 322.159 166.034 322.159C166.489 322.159 166.938 322.235 167.381 322.386C167.824 322.538 168.228 322.784 168.591 323.125C168.955 323.462 169.245 323.909 169.461 324.466C169.676 325.023 169.784 325.708 169.784 326.523V327.091H163.057V325.932H168.421C168.421 325.439 168.322 325 168.125 324.614C167.932 324.227 167.656 323.922 167.296 323.699C166.94 323.475 166.519 323.364 166.034 323.364C165.5 323.364 165.038 323.496 164.648 323.761C164.262 324.023 163.964 324.364 163.756 324.784C163.548 325.205 163.443 325.655 163.443 326.136V326.909C163.443 327.568 163.557 328.127 163.784 328.585C164.015 329.04 164.336 329.386 164.745 329.625C165.154 329.86 165.629 329.977 166.171 329.977C166.523 329.977 166.841 329.928 167.125 329.83C167.413 329.727 167.661 329.576 167.87 329.375C168.078 329.17 168.239 328.917 168.353 328.614L169.648 328.977C169.512 329.417 169.282 329.803 168.961 330.136C168.639 330.466 168.241 330.723 167.767 330.909C167.294 331.091 166.762 331.182 166.171 331.182ZM174.82 331.182C174.092 331.182 173.45 330.998 172.893 330.631C172.337 330.259 171.901 329.737 171.587 329.062C171.272 328.384 171.115 327.583 171.115 326.659C171.115 325.742 171.272 324.947 171.587 324.273C171.901 323.598 172.339 323.078 172.899 322.71C173.46 322.343 174.107 322.159 174.842 322.159C175.411 322.159 175.859 322.254 176.189 322.443C176.522 322.629 176.776 322.841 176.95 323.08C177.128 323.314 177.267 323.508 177.365 323.659H177.479V319.364H178.82V331H177.524V329.659H177.365C177.267 329.818 177.126 330.019 176.945 330.261C176.763 330.5 176.503 330.714 176.166 330.903C175.829 331.089 175.38 331.182 174.82 331.182ZM175.001 329.977C175.539 329.977 175.994 329.837 176.365 329.557C176.736 329.273 177.018 328.881 177.212 328.381C177.405 327.877 177.501 327.295 177.501 326.636C177.501 325.985 177.407 325.415 177.217 324.926C177.028 324.434 176.748 324.051 176.376 323.778C176.005 323.502 175.547 323.364 175.001 323.364C174.433 323.364 173.96 323.509 173.581 323.801C173.206 324.089 172.924 324.481 172.734 324.977C172.549 325.47 172.456 326.023 172.456 326.636C172.456 327.258 172.551 327.822 172.74 328.33C172.933 328.833 173.217 329.235 173.592 329.534C173.971 329.83 174.441 329.977 175.001 329.977ZM182.139 331.091C181.859 331.091 181.618 330.991 181.417 330.79C181.217 330.589 181.116 330.348 181.116 330.068C181.116 329.788 181.217 329.547 181.417 329.347C181.618 329.146 181.859 329.045 182.139 329.045C182.419 329.045 182.66 329.146 182.861 329.347C183.061 329.547 183.162 329.788 183.162 330.068C183.162 330.254 183.114 330.424 183.02 330.58C182.929 330.735 182.806 330.86 182.65 330.955C182.499 331.045 182.328 331.091 182.139 331.091ZM188.65 319.364H190.263L193.491 324.795H193.627L196.854 319.364H198.468L194.263 326.205V331H192.854V326.205L188.65 319.364ZM202.12 331.182C201.332 331.182 200.64 330.994 200.046 330.619C199.455 330.244 198.993 329.72 198.659 329.045C198.33 328.371 198.165 327.583 198.165 326.682C198.165 325.773 198.33 324.979 198.659 324.301C198.993 323.623 199.455 323.097 200.046 322.722C200.64 322.347 201.332 322.159 202.12 322.159C202.907 322.159 203.597 322.347 204.188 322.722C204.782 323.097 205.245 323.623 205.574 324.301C205.907 324.979 206.074 325.773 206.074 326.682C206.074 327.583 205.907 328.371 205.574 329.045C205.245 329.72 204.782 330.244 204.188 330.619C203.597 330.994 202.907 331.182 202.12 331.182ZM202.12 329.977C202.718 329.977 203.211 329.824 203.597 329.517C203.983 329.21 204.269 328.807 204.455 328.307C204.64 327.807 204.733 327.265 204.733 326.682C204.733 326.098 204.64 325.555 204.455 325.051C204.269 324.547 203.983 324.14 203.597 323.83C203.211 323.519 202.718 323.364 202.12 323.364C201.521 323.364 201.029 323.519 200.642 323.83C200.256 324.14 199.97 324.547 199.784 325.051C199.599 325.555 199.506 326.098 199.506 326.682C199.506 327.265 199.599 327.807 199.784 328.307C199.97 328.807 200.256 329.21 200.642 329.517C201.029 329.824 201.521 329.977 202.12 329.977ZM213.321 327.432V322.273H214.662V331H213.321V329.523H213.23C213.026 329.966 212.707 330.343 212.276 330.653C211.844 330.96 211.298 331.114 210.639 331.114C210.094 331.114 209.609 330.994 209.185 330.756C208.76 330.513 208.427 330.15 208.185 329.665C207.942 329.176 207.821 328.561 207.821 327.818V322.273H209.162V327.727C209.162 328.364 209.34 328.871 209.696 329.25C210.056 329.629 210.514 329.818 211.071 329.818C211.404 329.818 211.743 329.733 212.088 329.562C212.437 329.392 212.728 329.131 212.963 328.778C213.202 328.426 213.321 327.977 213.321 327.432ZM15.5682 344.75V350H14.2273V338.364H15.5682V342.636H15.6818C15.8864 342.186 16.1932 341.828 16.6023 341.562C17.0152 341.294 17.5644 341.159 18.25 341.159C18.8447 341.159 19.3655 341.278 19.8125 341.517C20.2595 341.752 20.6061 342.114 20.8523 342.602C21.1023 343.087 21.2273 343.705 21.2273 344.455V350H19.8864V344.545C19.8864 343.852 19.7064 343.316 19.3466 342.938C18.9905 342.555 18.4962 342.364 17.8636 342.364C17.4242 342.364 17.0303 342.456 16.6818 342.642C16.3371 342.828 16.0644 343.098 15.8636 343.455C15.6667 343.811 15.5682 344.242 15.5682 344.75ZM25.9486 350.205C25.3955 350.205 24.8937 350.1 24.4429 349.892C23.9921 349.68 23.6342 349.375 23.369 348.977C23.1039 348.576 22.9713 348.091 22.9713 347.523C22.9713 347.023 23.0698 346.617 23.2668 346.307C23.4637 345.992 23.727 345.746 24.0565 345.568C24.3861 345.39 24.7497 345.258 25.1474 345.17C25.549 345.08 25.9524 345.008 26.3577 344.955C26.888 344.886 27.3179 344.835 27.6474 344.801C27.9808 344.763 28.2232 344.701 28.3747 344.614C28.53 344.527 28.6077 344.375 28.6077 344.159V344.114C28.6077 343.553 28.4543 343.117 28.1474 342.807C27.8444 342.496 27.3842 342.341 26.7668 342.341C26.1266 342.341 25.6247 342.481 25.2611 342.761C24.8974 343.042 24.6418 343.341 24.494 343.659L23.2213 343.205C23.4486 342.674 23.7516 342.261 24.1304 341.966C24.513 341.667 24.9296 341.458 25.3804 341.341C25.8349 341.22 26.2819 341.159 26.7213 341.159C27.0016 341.159 27.3236 341.193 27.6872 341.261C28.0546 341.326 28.4088 341.46 28.7497 341.665C29.0944 341.869 29.3804 342.178 29.6077 342.591C29.8349 343.004 29.9486 343.557 29.9486 344.25V350H28.6077V348.818H28.5395C28.4486 349.008 28.2971 349.21 28.0849 349.426C27.8728 349.642 27.5906 349.826 27.2384 349.977C26.8861 350.129 26.4562 350.205 25.9486 350.205ZM26.1531 349C26.6834 349 27.1304 348.896 27.494 348.688C27.8615 348.479 28.138 348.21 28.3236 347.881C28.513 347.551 28.6077 347.205 28.6077 346.841V345.614C28.5509 345.682 28.4259 345.744 28.2327 345.801C28.0433 345.854 27.8236 345.902 27.5736 345.943C27.3274 345.981 27.0868 346.015 26.852 346.045C26.6209 346.072 26.4334 346.095 26.2895 346.114C25.941 346.159 25.6152 346.233 25.3122 346.335C25.013 346.434 24.7705 346.583 24.5849 346.784C24.4031 346.981 24.3122 347.25 24.3122 347.591C24.3122 348.057 24.4846 348.409 24.8293 348.648C25.1777 348.883 25.619 349 26.1531 349ZM38.9199 341.273L35.6926 350H34.329L31.1017 341.273H32.5562L34.9653 348.227H35.0562L37.4653 341.273H38.9199ZM43.7364 350.182C42.8955 350.182 42.1701 349.996 41.5602 349.625C40.9542 349.25 40.4864 348.727 40.1568 348.057C39.8311 347.383 39.6682 346.598 39.6682 345.705C39.6682 344.811 39.8311 344.023 40.1568 343.341C40.4864 342.655 40.9447 342.121 41.5318 341.739C42.1227 341.352 42.8121 341.159 43.6 341.159C44.0545 341.159 44.5034 341.235 44.9466 341.386C45.3898 341.538 45.7932 341.784 46.1568 342.125C46.5205 342.462 46.8102 342.909 47.0261 343.466C47.242 344.023 47.35 344.708 47.35 345.523V346.091H40.6227V344.932H45.9864C45.9864 344.439 45.8879 344 45.6909 343.614C45.4977 343.227 45.2212 342.922 44.8614 342.699C44.5053 342.475 44.0848 342.364 43.6 342.364C43.0659 342.364 42.6038 342.496 42.2136 342.761C41.8273 343.023 41.5299 343.364 41.3216 343.784C41.1133 344.205 41.0091 344.655 41.0091 345.136V345.909C41.0091 346.568 41.1227 347.127 41.35 347.585C41.5811 348.04 41.9011 348.386 42.3102 348.625C42.7193 348.86 43.1947 348.977 43.7364 348.977C44.0886 348.977 44.4068 348.928 44.6909 348.83C44.9788 348.727 45.2269 348.576 45.4352 348.375C45.6436 348.17 45.8045 347.917 45.9182 347.614L47.2136 347.977C47.0773 348.417 46.8481 348.803 46.5261 349.136C46.2042 349.466 45.8064 349.723 45.333 349.909C44.8595 350.091 44.3273 350.182 43.7364 350.182ZM59.4716 343.227L58.267 343.568C58.1913 343.367 58.0795 343.172 57.9318 342.983C57.7879 342.79 57.5909 342.631 57.3409 342.506C57.0909 342.381 56.7708 342.318 56.3807 342.318C55.8466 342.318 55.4015 342.441 55.0455 342.688C54.6932 342.93 54.517 343.239 54.517 343.614C54.517 343.947 54.6383 344.21 54.8807 344.403C55.1231 344.597 55.5019 344.758 56.017 344.886L57.3125 345.205C58.0928 345.394 58.6742 345.684 59.0568 346.074C59.4394 346.46 59.6307 346.958 59.6307 347.568C59.6307 348.068 59.4867 348.515 59.1989 348.909C58.9148 349.303 58.517 349.614 58.0057 349.841C57.4943 350.068 56.8996 350.182 56.2216 350.182C55.3314 350.182 54.5947 349.989 54.0114 349.602C53.428 349.216 53.0587 348.652 52.9034 347.909L54.1761 347.591C54.2973 348.061 54.5265 348.413 54.8636 348.648C55.2045 348.883 55.6496 349 56.1989 349C56.8239 349 57.3201 348.867 57.6875 348.602C58.0587 348.333 58.2443 348.011 58.2443 347.636C58.2443 347.333 58.1383 347.08 57.9261 346.875C57.714 346.667 57.3883 346.511 56.9489 346.409L55.4943 346.068C54.6951 345.879 54.108 345.585 53.733 345.188C53.3617 344.786 53.1761 344.284 53.1761 343.682C53.1761 343.189 53.3144 342.754 53.5909 342.375C53.8712 341.996 54.2519 341.699 54.733 341.483C55.2178 341.267 55.767 341.159 56.3807 341.159C57.2443 341.159 57.9223 341.348 58.4148 341.727C58.911 342.106 59.2633 342.606 59.4716 343.227ZM65.0082 350.182C64.1673 350.182 63.442 349.996 62.8321 349.625C62.226 349.25 61.7582 348.727 61.4287 348.057C61.1029 347.383 60.9401 346.598 60.9401 345.705C60.9401 344.811 61.1029 344.023 61.4287 343.341C61.7582 342.655 62.2166 342.121 62.8037 341.739C63.3946 341.352 64.084 341.159 64.8719 341.159C65.3264 341.159 65.7753 341.235 66.2185 341.386C66.6616 341.538 67.0651 341.784 67.4287 342.125C67.7923 342.462 68.0821 342.909 68.298 343.466C68.5139 344.023 68.6219 344.708 68.6219 345.523V346.091H61.8946V344.932H67.2582C67.2582 344.439 67.1598 344 66.9628 343.614C66.7696 343.227 66.4931 342.922 66.1332 342.699C65.7772 342.475 65.3567 342.364 64.8719 342.364C64.3378 342.364 63.8757 342.496 63.4855 342.761C63.0991 343.023 62.8018 343.364 62.5935 343.784C62.3851 344.205 62.281 344.655 62.281 345.136V345.909C62.281 346.568 62.3946 347.127 62.6219 347.585C62.8529 348.04 63.173 348.386 63.5821 348.625C63.9912 348.86 64.4666 348.977 65.0082 348.977C65.3605 348.977 65.6787 348.928 65.9628 348.83C66.2507 348.727 66.4988 348.576 66.7071 348.375C66.9154 348.17 67.0764 347.917 67.1901 347.614L68.4855 347.977C68.3491 348.417 68.12 348.803 67.798 349.136C67.476 349.466 67.0783 349.723 66.6048 349.909C66.1313 350.091 65.5991 350.182 65.0082 350.182ZM71.7026 344.75V350H70.3616V341.273H71.6571V342.636H71.7707C71.9753 342.193 72.2859 341.837 72.7026 341.568C73.1192 341.295 73.6571 341.159 74.3162 341.159C74.9071 341.159 75.4241 341.28 75.8673 341.523C76.3105 341.761 76.6552 342.125 76.9014 342.614C77.1476 343.098 77.2707 343.712 77.2707 344.455V350H75.9298V344.545C75.9298 343.86 75.7518 343.326 75.3957 342.943C75.0397 342.557 74.551 342.364 73.9298 342.364C73.5018 342.364 73.1192 342.456 72.7821 342.642C72.4488 342.828 72.1855 343.098 71.9923 343.455C71.7991 343.811 71.7026 344.242 71.7026 344.75ZM83.2165 341.273V342.409H78.6937V341.273H83.2165ZM80.0119 339.182H81.3528V347.5C81.3528 347.879 81.4078 348.163 81.5176 348.352C81.6312 348.538 81.7752 348.663 81.9494 348.727C82.1275 348.788 82.315 348.818 82.5119 348.818C82.6597 348.818 82.7809 348.811 82.8756 348.795C82.9703 348.777 83.046 348.761 83.1028 348.75L83.3756 349.955C83.2847 349.989 83.1578 350.023 82.9949 350.057C82.832 350.095 82.6256 350.114 82.3756 350.114C81.9968 350.114 81.6256 350.032 81.2619 349.869C80.9021 349.706 80.6028 349.458 80.3642 349.125C80.1294 348.792 80.0119 348.371 80.0119 347.864V339.182ZM93.2017 338.364V350H91.7926V339.841H91.7244L88.8835 341.727V340.295L91.7926 338.364H93.2017ZM100.653 350V338.364H107.676V339.614H102.062V343.545H107.312V344.795H102.062V348.75H107.766V350H100.653ZM109.279 339.614V338.364H118.006V339.614H114.347V350H112.938V339.614H109.279ZM119.881 350V338.364H121.29V343.545H127.495V338.364H128.904V350H127.495V344.795H121.29V350H119.881ZM139.238 341.273V342.409H134.716V341.273H139.238ZM136.034 339.182H137.375V347.5C137.375 347.879 137.43 348.163 137.539 348.352C137.653 348.538 137.797 348.663 137.971 348.727C138.149 348.788 138.337 348.818 138.534 348.818C138.682 348.818 138.803 348.811 138.897 348.795C138.992 348.777 139.068 348.761 139.125 348.75L139.397 349.955C139.307 349.989 139.18 350.023 139.017 350.057C138.854 350.095 138.647 350.114 138.397 350.114C138.019 350.114 137.647 350.032 137.284 349.869C136.924 349.706 136.625 349.458 136.386 349.125C136.151 348.792 136.034 348.371 136.034 347.864V339.182ZM144.407 350.182C143.619 350.182 142.928 349.994 142.333 349.619C141.742 349.244 141.28 348.72 140.947 348.045C140.617 347.371 140.453 346.583 140.453 345.682C140.453 344.773 140.617 343.979 140.947 343.301C141.28 342.623 141.742 342.097 142.333 341.722C142.928 341.347 143.619 341.159 144.407 341.159C145.195 341.159 145.884 341.347 146.475 341.722C147.07 342.097 147.532 342.623 147.862 343.301C148.195 343.979 148.362 344.773 148.362 345.682C148.362 346.583 148.195 347.371 147.862 348.045C147.532 348.72 147.07 349.244 146.475 349.619C145.884 349.994 145.195 350.182 144.407 350.182ZM144.407 348.977C145.006 348.977 145.498 348.824 145.884 348.517C146.271 348.21 146.557 347.807 146.742 347.307C146.928 346.807 147.021 346.265 147.021 345.682C147.021 345.098 146.928 344.555 146.742 344.051C146.557 343.547 146.271 343.14 145.884 342.83C145.498 342.519 145.006 342.364 144.407 342.364C143.809 342.364 143.316 342.519 142.93 342.83C142.543 343.14 142.257 343.547 142.072 344.051C141.886 344.555 141.793 345.098 141.793 345.682C141.793 346.265 141.886 346.807 142.072 347.307C142.257 347.807 142.543 348.21 142.93 348.517C143.316 348.824 143.809 348.977 144.407 348.977ZM154.49 350V338.364H155.899V344.136H156.036L161.263 338.364H163.104L158.218 343.614L163.104 350H161.399L157.354 344.591L155.899 346.227V350H154.49ZM167.464 350.182C166.624 350.182 165.898 349.996 165.288 349.625C164.682 349.25 164.214 348.727 163.885 348.057C163.559 347.383 163.396 346.598 163.396 345.705C163.396 344.811 163.559 344.023 163.885 343.341C164.214 342.655 164.673 342.121 165.26 341.739C165.851 341.352 166.54 341.159 167.328 341.159C167.783 341.159 168.232 341.235 168.675 341.386C169.118 341.538 169.521 341.784 169.885 342.125C170.249 342.462 170.538 342.909 170.754 343.466C170.97 344.023 171.078 344.708 171.078 345.523V346.091H164.351V344.932H169.714C169.714 344.439 169.616 344 169.419 343.614C169.226 343.227 168.949 342.922 168.589 342.699C168.233 342.475 167.813 342.364 167.328 342.364C166.794 342.364 166.332 342.496 165.942 342.761C165.555 343.023 165.258 343.364 165.05 343.784C164.841 344.205 164.737 344.655 164.737 345.136V345.909C164.737 346.568 164.851 347.127 165.078 347.585C165.309 348.04 165.629 348.386 166.038 348.625C166.447 348.86 166.923 348.977 167.464 348.977C167.817 348.977 168.135 348.928 168.419 348.83C168.707 348.727 168.955 348.576 169.163 348.375C169.372 348.17 169.533 347.917 169.646 347.614L170.942 347.977C170.805 348.417 170.576 348.803 170.254 349.136C169.932 349.466 169.535 349.723 169.061 349.909C168.588 350.091 168.055 350.182 167.464 350.182ZM174.159 344.75V350H172.818V341.273H174.113V342.636H174.227C174.432 342.193 174.742 341.837 175.159 341.568C175.575 341.295 176.113 341.159 176.772 341.159C177.363 341.159 177.88 341.28 178.324 341.523C178.767 341.761 179.111 342.125 179.358 342.614C179.604 343.098 179.727 343.712 179.727 344.455V350H178.386V344.545C178.386 343.86 178.208 343.326 177.852 342.943C177.496 342.557 177.007 342.364 176.386 342.364C175.958 342.364 175.575 342.456 175.238 342.642C174.905 342.828 174.642 343.098 174.449 343.455C174.255 343.811 174.159 344.242 174.159 344.75ZM183.218 344.75V350H181.877V341.273H183.173V342.636H183.286C183.491 342.193 183.802 341.837 184.218 341.568C184.635 341.295 185.173 341.159 185.832 341.159C186.423 341.159 186.94 341.28 187.383 341.523C187.826 341.761 188.171 342.125 188.417 342.614C188.663 343.098 188.786 343.712 188.786 344.455V350H187.445V344.545C187.445 343.86 187.267 343.326 186.911 342.943C186.555 342.557 186.067 342.364 185.445 342.364C185.017 342.364 184.635 342.456 184.298 342.642C183.964 342.828 183.701 343.098 183.508 343.455C183.315 343.811 183.218 344.242 183.218 344.75ZM191.488 353.25C191.261 353.25 191.058 353.231 190.88 353.193C190.702 353.159 190.579 353.125 190.511 353.091L190.851 351.909C191.34 352.034 191.747 352.03 192.073 351.898C192.399 351.769 192.681 351.379 192.92 350.727L193.17 350.045L189.942 341.273H191.397L193.806 348.227H193.897L196.306 341.273L197.772 341.295L194.056 351.273C193.889 351.716 193.683 352.083 193.437 352.375C193.19 352.67 192.904 352.89 192.579 353.034C192.257 353.178 191.893 353.25 191.488 353.25ZM207.382 342C207.257 341.617 207.093 341.275 206.888 340.972C206.687 340.665 206.447 340.403 206.166 340.188C205.89 339.972 205.576 339.807 205.223 339.693C204.871 339.58 204.485 339.523 204.064 339.523C203.375 339.523 202.748 339.701 202.184 340.057C201.619 340.413 201.17 340.938 200.837 341.631C200.504 342.324 200.337 343.174 200.337 344.182C200.337 345.189 200.505 346.04 200.843 346.733C201.18 347.426 201.636 347.951 202.212 348.307C202.788 348.663 203.435 348.841 204.155 348.841C204.822 348.841 205.409 348.699 205.916 348.415C206.428 348.127 206.826 347.722 207.11 347.199C207.398 346.672 207.541 346.053 207.541 345.341L207.973 345.432H204.473V344.182H208.905V345.432C208.905 346.39 208.701 347.223 208.291 347.932C207.886 348.64 207.326 349.189 206.61 349.58C205.898 349.966 205.079 350.159 204.155 350.159C203.125 350.159 202.22 349.917 201.439 349.432C200.663 348.947 200.057 348.258 199.621 347.364C199.189 346.47 198.973 345.409 198.973 344.182C198.973 343.261 199.096 342.434 199.343 341.699C199.593 340.96 199.945 340.331 200.399 339.812C200.854 339.294 201.392 338.896 202.013 338.619C202.634 338.343 203.318 338.205 204.064 338.205C204.678 338.205 205.25 338.297 205.78 338.483C206.314 338.665 206.79 338.924 207.206 339.261C207.627 339.595 207.977 339.994 208.257 340.46C208.538 340.922 208.731 341.436 208.837 342H207.382ZM211.814 350.091C211.534 350.091 211.293 349.991 211.092 349.79C210.892 349.589 210.791 349.348 210.791 349.068C210.791 348.788 210.892 348.547 211.092 348.347C211.293 348.146 211.534 348.045 211.814 348.045C212.094 348.045 212.335 348.146 212.536 348.347C212.736 348.547 212.837 348.788 212.837 349.068C212.837 349.254 212.789 349.424 212.695 349.58C212.604 349.735 212.481 349.86 212.325 349.955C212.174 350.045 212.003 350.091 211.814 350.091Z" fill="black"/>
<g filter="url(#filter2_d)">
<rect x="276" y="254" width="99" height="40" rx="20" fill="#DCF7C5"/>
</g>
<path d="M291.455 275.909L291.545 273.409L289.432 274.75L288.886 273.795L291.114 272.636L288.886 271.477L289.432 270.523L291.545 271.864L291.455 269.364H292.545L292.455 271.864L294.568 270.523L295.114 271.477L292.886 272.636L295.114 273.795L294.568 274.75L292.455 273.409L292.545 275.909H291.455ZM299.155 275.909L299.245 273.409L297.132 274.75L296.586 273.795L298.814 272.636L296.586 271.477L297.132 270.523L299.245 271.864L299.155 269.364H300.245L300.155 271.864L302.268 270.523L302.814 271.477L300.586 272.636L302.814 273.795L302.268 274.75L300.155 273.409L300.245 275.909H299.155ZM306.855 275.909L306.945 273.409L304.832 274.75L304.286 273.795L306.514 272.636L304.286 271.477L304.832 270.523L306.945 271.864L306.855 269.364H307.945L307.855 271.864L309.968 270.523L310.514 271.477L308.286 272.636L310.514 273.795L309.968 274.75L307.855 273.409L307.945 275.909H306.855ZM314.555 275.909L314.645 273.409L312.532 274.75L311.986 273.795L314.214 272.636L311.986 271.477L312.532 270.523L314.645 271.864L314.555 269.364H315.645L315.555 271.864L317.668 270.523L318.214 271.477L315.986 272.636L318.214 273.795L317.668 274.75L315.555 273.409L315.645 275.909H314.555ZM322.255 275.909L322.345 273.409L320.232 274.75L319.686 273.795L321.914 272.636L319.686 271.477L320.232 270.523L322.345 271.864L322.255 269.364H323.345L323.255 271.864L325.368 270.523L325.914 271.477L323.686 272.636L325.914 273.795L325.368 274.75L323.255 273.409L323.345 275.909H322.255ZM329.955 275.909L330.045 273.409L327.932 274.75L327.386 273.795L329.614 272.636L327.386 271.477L327.932 270.523L330.045 271.864L329.955 269.364H331.045L330.955 271.864L333.068 270.523L333.614 271.477L331.386 272.636L333.614 273.795L333.068 274.75L330.955 273.409L331.045 275.909H329.955ZM337.655 275.909L337.745 273.409L335.632 274.75L335.086 273.795L337.314 272.636L335.086 271.477L335.632 270.523L337.745 271.864L337.655 269.364H338.745L338.655 271.864L340.768 270.523L341.314 271.477L339.086 272.636L341.314 273.795L340.768 274.75L338.655 273.409L338.745 275.909H337.655ZM345.355 275.909L345.445 273.409L343.332 274.75L342.786 273.795L345.014 272.636L342.786 271.477L343.332 270.523L345.445 271.864L345.355 269.364H346.445L346.355 271.864L348.468 270.523L349.014 271.477L346.786 272.636L349.014 273.795L348.468 274.75L346.355 273.409L346.445 275.909H345.355ZM353.055 275.909L353.145 273.409L351.032 274.75L350.486 273.795L352.714 272.636L350.486 271.477L351.032 270.523L353.145 271.864L353.055 269.364H354.145L354.055 271.864L356.168 270.523L356.714 271.477L354.486 272.636L356.714 273.795L356.168 274.75L354.055 273.409L354.145 275.909H353.055Z" fill="#41505B"/>
<g filter="url(#filter3_d)">
<rect x="1" y="184" width="250" height="60" rx="20" fill="white"/>
</g>
<path d="M22.3636 203C22.2386 202.617 22.0739 202.275 21.8693 201.972C21.6686 201.665 21.428 201.403 21.1477 201.188C20.8712 200.972 20.5568 200.807 20.2045 200.693C19.8523 200.58 19.4659 200.523 19.0455 200.523C18.3561 200.523 17.7292 200.701 17.1648 201.057C16.6004 201.413 16.1515 201.938 15.8182 202.631C15.4848 203.324 15.3182 204.174 15.3182 205.182C15.3182 206.189 15.4867 207.04 15.8239 207.733C16.161 208.426 16.6174 208.951 17.1932 209.307C17.7689 209.663 18.4167 209.841 19.1364 209.841C19.803 209.841 20.3902 209.699 20.8977 209.415C21.4091 209.127 21.8068 208.722 22.0909 208.199C22.3788 207.672 22.5227 207.053 22.5227 206.341L22.9545 206.432H19.4545V205.182H23.8864V206.432C23.8864 207.39 23.6818 208.223 23.2727 208.932C22.8674 209.64 22.3068 210.189 21.5909 210.58C20.8788 210.966 20.0606 211.159 19.1364 211.159C18.1061 211.159 17.2008 210.917 16.4205 210.432C15.6439 209.947 15.0379 209.258 14.6023 208.364C14.1705 207.47 13.9545 206.409 13.9545 205.182C13.9545 204.261 14.0777 203.434 14.3239 202.699C14.5739 201.96 14.9261 201.331 15.3807 200.812C15.8352 200.294 16.3731 199.896 16.9943 199.619C17.6155 199.343 18.2992 199.205 19.0455 199.205C19.6591 199.205 20.2311 199.297 20.7614 199.483C21.2955 199.665 21.7708 199.924 22.1875 200.261C22.608 200.595 22.9583 200.994 23.2386 201.46C23.5189 201.922 23.7121 202.436 23.8182 203H22.3636ZM29.3634 211.182C28.5755 211.182 27.8842 210.994 27.2895 210.619C26.6986 210.244 26.2365 209.72 25.9031 209.045C25.5736 208.371 25.4088 207.583 25.4088 206.682C25.4088 205.773 25.5736 204.979 25.9031 204.301C26.2365 203.623 26.6986 203.097 27.2895 202.722C27.8842 202.347 28.5755 202.159 29.3634 202.159C30.1512 202.159 30.8406 202.347 31.4315 202.722C32.0262 203.097 32.4884 203.623 32.8179 204.301C33.1512 204.979 33.3179 205.773 33.3179 206.682C33.3179 207.583 33.1512 208.371 32.8179 209.045C32.4884 209.72 32.0262 210.244 31.4315 210.619C30.8406 210.994 30.1512 211.182 29.3634 211.182ZM29.3634 209.977C29.9618 209.977 30.4543 209.824 30.8406 209.517C31.227 209.21 31.513 208.807 31.6986 208.307C31.8842 207.807 31.977 207.265 31.977 206.682C31.977 206.098 31.8842 205.555 31.6986 205.051C31.513 204.547 31.227 204.14 30.8406 203.83C30.4543 203.519 29.9618 203.364 29.3634 203.364C28.7649 203.364 28.2724 203.519 27.8861 203.83C27.4997 204.14 27.2137 204.547 27.0281 205.051C26.8425 205.555 26.7497 206.098 26.7497 206.682C26.7497 207.265 26.8425 207.807 27.0281 208.307C27.2137 208.807 27.4997 209.21 27.8861 209.517C28.2724 209.824 28.7649 209.977 29.3634 209.977ZM38.8602 202.273V203.409H34.3375V202.273H38.8602ZM35.6557 200.182H36.9966V208.5C36.9966 208.879 37.0515 209.163 37.1614 209.352C37.275 209.538 37.4189 209.663 37.5932 209.727C37.7712 209.788 37.9587 209.818 38.1557 209.818C38.3034 209.818 38.4246 209.811 38.5193 209.795C38.614 209.777 38.6898 209.761 38.7466 209.75L39.0193 210.955C38.9284 210.989 38.8015 211.023 38.6386 211.057C38.4758 211.095 38.2693 211.114 38.0193 211.114C37.6405 211.114 37.2693 211.032 36.9057 210.869C36.5458 210.706 36.2466 210.458 36.008 210.125C35.7731 209.792 35.6557 209.371 35.6557 208.864V200.182ZM44.7773 211V202.273H46.1182V211H44.7773ZM45.4591 200.818C45.1977 200.818 44.9723 200.729 44.783 200.551C44.5973 200.373 44.5045 200.159 44.5045 199.909C44.5045 199.659 44.5973 199.445 44.783 199.267C44.9723 199.089 45.1977 199 45.4591 199C45.7205 199 45.9439 199.089 46.1295 199.267C46.3189 199.445 46.4136 199.659 46.4136 199.909C46.4136 200.159 46.3189 200.373 46.1295 200.551C45.9439 200.729 45.7205 200.818 45.4591 200.818ZM52.0696 202.273V203.409H47.5469V202.273H52.0696ZM48.8651 200.182H50.206V208.5C50.206 208.879 50.2609 209.163 50.3707 209.352C50.4844 209.538 50.6283 209.663 50.8026 209.727C50.9806 209.788 51.1681 209.818 51.3651 209.818C51.5128 209.818 51.634 209.811 51.7287 209.795C51.8234 209.777 51.8991 209.761 51.956 209.75L52.2287 210.955C52.1378 210.989 52.0109 211.023 51.848 211.057C51.6851 211.095 51.4787 211.114 51.2287 211.114C50.8499 211.114 50.4787 211.032 50.1151 210.869C49.7552 210.706 49.456 210.458 49.2173 210.125C48.9825 209.792 48.8651 209.371 48.8651 208.864V200.182ZM54.7639 211.091C54.4836 211.091 54.2431 210.991 54.0423 210.79C53.8416 210.589 53.7412 210.348 53.7412 210.068C53.7412 209.788 53.8416 209.547 54.0423 209.347C54.2431 209.146 54.4836 209.045 54.7639 209.045C55.0442 209.045 55.2848 209.146 55.4855 209.347C55.6863 209.547 55.7866 209.788 55.7866 210.068C55.7866 210.254 55.7393 210.424 55.6446 210.58C55.5537 210.735 55.4306 210.86 55.2753 210.955C55.1238 211.045 54.9533 211.091 54.7639 211.091ZM62.2747 211V199.364H66.2065C67.1194 199.364 67.8656 199.528 68.4452 199.858C69.0285 200.184 69.4603 200.625 69.7406 201.182C70.0209 201.739 70.1611 202.36 70.1611 203.045C70.1611 203.731 70.0209 204.354 69.7406 204.915C69.4641 205.475 69.0361 205.922 68.4565 206.256C67.877 206.585 67.1346 206.75 66.2293 206.75H63.4111V205.5H66.1838C66.8088 205.5 67.3107 205.392 67.6895 205.176C68.0683 204.96 68.3429 204.669 68.5134 204.301C68.6876 203.93 68.7747 203.511 68.7747 203.045C68.7747 202.58 68.6876 202.163 68.5134 201.795C68.3429 201.428 68.0664 201.14 67.6838 200.932C67.3012 200.72 66.7937 200.614 66.1611 200.614H63.6838V211H62.2747ZM73.2901 199.364V211H71.9491V199.364H73.2901ZM79.1051 211.182C78.2642 211.182 77.5388 210.996 76.929 210.625C76.3229 210.25 75.8551 209.727 75.5256 209.057C75.1998 208.383 75.0369 207.598 75.0369 206.705C75.0369 205.811 75.1998 205.023 75.5256 204.341C75.8551 203.655 76.3134 203.121 76.9006 202.739C77.4915 202.352 78.1809 202.159 78.9688 202.159C79.4233 202.159 79.8722 202.235 80.3153 202.386C80.7585 202.538 81.1619 202.784 81.5256 203.125C81.8892 203.462 82.179 203.909 82.3949 204.466C82.6108 205.023 82.7188 205.708 82.7188 206.523V207.091H75.9915V205.932H81.3551C81.3551 205.439 81.2566 205 81.0597 204.614C80.8665 204.227 80.59 203.922 80.2301 203.699C79.8741 203.475 79.4536 203.364 78.9688 203.364C78.4347 203.364 77.9725 203.496 77.5824 203.761C77.196 204.023 76.8987 204.364 76.6903 204.784C76.482 205.205 76.3778 205.655 76.3778 206.136V206.909C76.3778 207.568 76.4915 208.127 76.7188 208.585C76.9498 209.04 77.2699 209.386 77.679 209.625C78.0881 209.86 78.5634 209.977 79.1051 209.977C79.4574 209.977 79.7756 209.928 80.0597 209.83C80.3475 209.727 80.5956 209.576 80.804 209.375C81.0123 209.17 81.1733 208.917 81.2869 208.614L82.5824 208.977C82.446 209.417 82.2169 209.803 81.8949 210.136C81.5729 210.466 81.1752 210.723 80.7017 210.909C80.2282 211.091 79.696 211.182 79.1051 211.182ZM87.0267 211.205C86.4737 211.205 85.9718 211.1 85.521 210.892C85.0703 210.68 84.7123 210.375 84.4472 209.977C84.182 209.576 84.0494 209.091 84.0494 208.523C84.0494 208.023 84.1479 207.617 84.3449 207.307C84.5419 206.992 84.8051 206.746 85.1347 206.568C85.4642 206.39 85.8278 206.258 86.2256 206.17C86.6271 206.08 87.0305 206.008 87.4358 205.955C87.9661 205.886 88.396 205.835 88.7256 205.801C89.0589 205.763 89.3013 205.701 89.4528 205.614C89.6081 205.527 89.6858 205.375 89.6858 205.159V205.114C89.6858 204.553 89.5324 204.117 89.2256 203.807C88.9225 203.496 88.4623 203.341 87.8449 203.341C87.2047 203.341 86.7028 203.481 86.3392 203.761C85.9756 204.042 85.7199 204.341 85.5722 204.659L84.2994 204.205C84.5267 203.674 84.8297 203.261 85.2085 202.966C85.5911 202.667 86.0078 202.458 86.4585 202.341C86.9131 202.22 87.36 202.159 87.7994 202.159C88.0797 202.159 88.4017 202.193 88.7653 202.261C89.1328 202.326 89.4869 202.46 89.8278 202.665C90.1725 202.869 90.4585 203.178 90.6858 203.591C90.9131 204.004 91.0267 204.557 91.0267 205.25V211H89.6858V209.818H89.6176C89.5267 210.008 89.3752 210.21 89.1631 210.426C88.9509 210.642 88.6687 210.826 88.3165 210.977C87.9642 211.129 87.5343 211.205 87.0267 211.205ZM87.2312 210C87.7615 210 88.2085 209.896 88.5722 209.688C88.9396 209.479 89.2161 209.21 89.4017 208.881C89.5911 208.551 89.6858 208.205 89.6858 207.841V206.614C89.629 206.682 89.504 206.744 89.3108 206.801C89.1214 206.854 88.9017 206.902 88.6517 206.943C88.4055 206.981 88.165 207.015 87.9301 207.045C87.6991 207.072 87.5116 207.095 87.3676 207.114C87.0191 207.159 86.6934 207.233 86.3903 207.335C86.0911 207.434 85.8487 207.583 85.6631 207.784C85.4812 207.981 85.3903 208.25 85.3903 208.591C85.3903 209.057 85.5627 209.409 85.9074 209.648C86.2559 209.883 86.6972 210 87.2312 210ZM99.356 204.227L98.1514 204.568C98.0757 204.367 97.9639 204.172 97.8162 203.983C97.6723 203.79 97.4753 203.631 97.2253 203.506C96.9753 203.381 96.6552 203.318 96.2651 203.318C95.731 203.318 95.2859 203.441 94.9298 203.688C94.5776 203.93 94.4014 204.239 94.4014 204.614C94.4014 204.947 94.5226 205.21 94.7651 205.403C95.0075 205.597 95.3863 205.758 95.9014 205.886L97.1969 206.205C97.9772 206.394 98.5586 206.684 98.9412 207.074C99.3238 207.46 99.5151 207.958 99.5151 208.568C99.5151 209.068 99.3711 209.515 99.0832 209.909C98.7991 210.303 98.4014 210.614 97.8901 210.841C97.3787 211.068 96.784 211.182 96.106 211.182C95.2158 211.182 94.4791 210.989 93.8957 210.602C93.3124 210.216 92.9431 209.652 92.7878 208.909L94.0605 208.591C94.1817 209.061 94.4109 209.413 94.748 209.648C95.0889 209.883 95.534 210 96.0832 210C96.7082 210 97.2045 209.867 97.5719 209.602C97.9431 209.333 98.1287 209.011 98.1287 208.636C98.1287 208.333 98.0226 208.08 97.8105 207.875C97.5984 207.667 97.2726 207.511 96.8332 207.409L95.3787 207.068C94.5795 206.879 93.9923 206.585 93.6173 206.188C93.2461 205.786 93.0605 205.284 93.0605 204.682C93.0605 204.189 93.1988 203.754 93.4753 203.375C93.7556 202.996 94.1363 202.699 94.6173 202.483C95.1022 202.267 95.6514 202.159 96.2651 202.159C97.1287 202.159 97.8067 202.348 98.2991 202.727C98.7954 203.106 99.1476 203.606 99.356 204.227ZM104.893 211.182C104.052 211.182 103.326 210.996 102.716 210.625C102.11 210.25 101.643 209.727 101.313 209.057C100.987 208.383 100.824 207.598 100.824 206.705C100.824 205.811 100.987 205.023 101.313 204.341C101.643 203.655 102.101 203.121 102.688 202.739C103.279 202.352 103.968 202.159 104.756 202.159C105.211 202.159 105.66 202.235 106.103 202.386C106.546 202.538 106.949 202.784 107.313 203.125C107.677 203.462 107.966 203.909 108.182 204.466C108.398 205.023 108.506 205.708 108.506 206.523V207.091H101.779V205.932H107.143C107.143 205.439 107.044 205 106.847 204.614C106.654 204.227 106.377 203.922 106.018 203.699C105.662 203.475 105.241 203.364 104.756 203.364C104.222 203.364 103.76 203.496 103.37 203.761C102.984 204.023 102.686 204.364 102.478 204.784C102.27 205.205 102.165 205.655 102.165 206.136V206.909C102.165 207.568 102.279 208.127 102.506 208.585C102.737 209.04 103.057 209.386 103.466 209.625C103.876 209.86 104.351 209.977 104.893 209.977C105.245 209.977 105.563 209.928 105.847 209.83C106.135 209.727 106.383 209.576 106.591 209.375C106.8 209.17 106.961 208.917 107.074 208.614L108.37 208.977C108.234 209.417 108.004 209.803 107.682 210.136C107.36 210.466 106.963 210.723 106.489 210.909C106.016 211.091 105.484 211.182 104.893 211.182ZM118.105 211.182C117.264 211.182 116.539 210.996 115.929 210.625C115.323 210.25 114.855 209.727 114.526 209.057C114.2 208.383 114.037 207.598 114.037 206.705C114.037 205.811 114.2 205.023 114.526 204.341C114.855 203.655 115.313 203.121 115.901 202.739C116.491 202.352 117.181 202.159 117.969 202.159C118.423 202.159 118.872 202.235 119.315 202.386C119.759 202.538 120.162 202.784 120.526 203.125C120.889 203.462 121.179 203.909 121.395 204.466C121.611 205.023 121.719 205.708 121.719 206.523V207.091H114.991V205.932H120.355C120.355 205.439 120.257 205 120.06 204.614C119.866 204.227 119.59 203.922 119.23 203.699C118.874 203.475 118.454 203.364 117.969 203.364C117.435 203.364 116.973 203.496 116.582 203.761C116.196 204.023 115.899 204.364 115.69 204.784C115.482 205.205 115.378 205.655 115.378 206.136V206.909C115.378 207.568 115.491 208.127 115.719 208.585C115.95 209.04 116.27 209.386 116.679 209.625C117.088 209.86 117.563 209.977 118.105 209.977C118.457 209.977 118.776 209.928 119.06 209.83C119.348 209.727 119.596 209.576 119.804 209.375C120.012 209.17 120.173 208.917 120.287 208.614L121.582 208.977C121.446 209.417 121.217 209.803 120.895 210.136C120.573 210.466 120.175 210.723 119.702 210.909C119.228 211.091 118.696 211.182 118.105 211.182ZM124.799 205.75V211H123.459V202.273H124.754V203.636H124.868C125.072 203.193 125.383 202.837 125.799 202.568C126.216 202.295 126.754 202.159 127.413 202.159C128.004 202.159 128.521 202.28 128.964 202.523C129.407 202.761 129.752 203.125 129.998 203.614C130.245 204.098 130.368 204.712 130.368 205.455V211H129.027V205.545C129.027 204.86 128.849 204.326 128.493 203.943C128.137 203.557 127.648 203.364 127.027 203.364C126.599 203.364 126.216 203.456 125.879 203.642C125.546 203.828 125.282 204.098 125.089 204.455C124.896 204.811 124.799 205.242 124.799 205.75ZM136.313 202.273V203.409H131.791V202.273H136.313ZM133.109 200.182H134.45V208.5C134.45 208.879 134.505 209.163 134.614 209.352C134.728 209.538 134.872 209.663 135.046 209.727C135.224 209.788 135.412 209.818 135.609 209.818C135.757 209.818 135.878 209.811 135.972 209.795C136.067 209.777 136.143 209.761 136.2 209.75L136.472 210.955C136.382 210.989 136.255 211.023 136.092 211.057C135.929 211.095 135.722 211.114 135.472 211.114C135.094 211.114 134.722 211.032 134.359 210.869C133.999 210.706 133.7 210.458 133.461 210.125C133.226 209.792 133.109 209.371 133.109 208.864V200.182ZM141.596 211.182C140.755 211.182 140.029 210.996 139.42 210.625C138.814 210.25 138.346 209.727 138.016 209.057C137.69 208.383 137.528 207.598 137.528 206.705C137.528 205.811 137.69 205.023 138.016 204.341C138.346 203.655 138.804 203.121 139.391 202.739C139.982 202.352 140.671 202.159 141.459 202.159C141.914 202.159 142.363 202.235 142.806 202.386C143.249 202.538 143.653 202.784 144.016 203.125C144.38 203.462 144.67 203.909 144.886 204.466C145.101 205.023 145.209 205.708 145.209 206.523V207.091H138.482V205.932H143.846C143.846 205.439 143.747 205 143.55 204.614C143.357 204.227 143.081 203.922 142.721 203.699C142.365 203.475 141.944 203.364 141.459 203.364C140.925 203.364 140.463 203.496 140.073 203.761C139.687 204.023 139.389 204.364 139.181 204.784C138.973 205.205 138.868 205.655 138.868 206.136V206.909C138.868 207.568 138.982 208.127 139.209 208.585C139.44 209.04 139.761 209.386 140.17 209.625C140.579 209.86 141.054 209.977 141.596 209.977C141.948 209.977 142.266 209.928 142.55 209.83C142.838 209.727 143.086 209.576 143.295 209.375C143.503 209.17 143.664 208.917 143.778 208.614L145.073 208.977C144.937 209.417 144.707 209.803 144.386 210.136C144.064 210.466 143.666 210.723 143.192 210.909C142.719 211.091 142.187 211.182 141.596 211.182ZM146.949 211V202.273H148.245V203.591H148.336C148.495 203.159 148.782 202.809 149.199 202.54C149.616 202.271 150.086 202.136 150.608 202.136C150.707 202.136 150.83 202.138 150.978 202.142C151.125 202.146 151.237 202.152 151.313 202.159V203.523C151.267 203.511 151.163 203.494 151 203.472C150.841 203.445 150.673 203.432 150.495 203.432C150.07 203.432 149.692 203.521 149.358 203.699C149.029 203.873 148.767 204.116 148.574 204.426C148.385 204.733 148.29 205.083 148.29 205.477V211H146.949ZM157.666 214.25C157.439 214.25 157.236 214.231 157.058 214.193C156.88 214.159 156.757 214.125 156.689 214.091L157.03 212.909C157.518 213.034 157.925 213.03 158.251 212.898C158.577 212.769 158.859 212.379 159.098 211.727L159.348 211.045L156.12 202.273H157.575L159.984 209.227H160.075L162.484 202.273L163.95 202.295L160.234 212.273C160.067 212.716 159.861 213.083 159.615 213.375C159.369 213.67 159.083 213.89 158.757 214.034C158.435 214.178 158.071 214.25 157.666 214.25ZM168.657 211.182C167.869 211.182 167.178 210.994 166.583 210.619C165.992 210.244 165.53 209.72 165.197 209.045C164.867 208.371 164.703 207.583 164.703 206.682C164.703 205.773 164.867 204.979 165.197 204.301C165.53 203.623 165.992 203.097 166.583 202.722C167.178 202.347 167.869 202.159 168.657 202.159C169.445 202.159 170.134 202.347 170.725 202.722C171.32 203.097 171.782 203.623 172.112 204.301C172.445 204.979 172.612 205.773 172.612 206.682C172.612 207.583 172.445 208.371 172.112 209.045C171.782 209.72 171.32 210.244 170.725 210.619C170.134 210.994 169.445 211.182 168.657 211.182ZM168.657 209.977C169.256 209.977 169.748 209.824 170.134 209.517C170.521 209.21 170.807 208.807 170.992 208.307C171.178 207.807 171.271 207.265 171.271 206.682C171.271 206.098 171.178 205.555 170.992 205.051C170.807 204.547 170.521 204.14 170.134 203.83C169.748 203.519 169.256 203.364 168.657 203.364C168.059 203.364 167.566 203.519 167.18 203.83C166.793 204.14 166.507 204.547 166.322 205.051C166.136 205.555 166.043 206.098 166.043 206.682C166.043 207.265 166.136 207.807 166.322 208.307C166.507 208.807 166.793 209.21 167.18 209.517C167.566 209.824 168.059 209.977 168.657 209.977ZM179.859 207.432V202.273H181.199V211H179.859V209.523H179.768C179.563 209.966 179.245 210.343 178.813 210.653C178.381 210.96 177.836 211.114 177.177 211.114C176.631 211.114 176.146 210.994 175.722 210.756C175.298 210.513 174.965 210.15 174.722 209.665C174.48 209.176 174.359 208.561 174.359 207.818V202.273H175.699V207.727C175.699 208.364 175.877 208.871 176.234 209.25C176.593 209.629 177.052 209.818 177.609 209.818C177.942 209.818 178.281 209.733 178.626 209.562C178.974 209.392 179.266 209.131 179.501 208.778C179.739 208.426 179.859 207.977 179.859 207.432ZM183.355 211V202.273H184.651V203.591H184.742C184.901 203.159 185.189 202.809 185.605 202.54C186.022 202.271 186.492 202.136 187.014 202.136C187.113 202.136 187.236 202.138 187.384 202.142C187.532 202.146 187.643 202.152 187.719 202.159V203.523C187.674 203.511 187.569 203.494 187.407 203.472C187.247 203.445 187.079 203.432 186.901 203.432C186.477 203.432 186.098 203.521 185.764 203.699C185.435 203.873 185.174 204.116 184.98 204.426C184.791 204.733 184.696 205.083 184.696 205.477V211H183.355ZM14.2273 233.273V221.273H15.5227V222.659H15.6818C15.7803 222.508 15.9167 222.314 16.0909 222.08C16.2689 221.841 16.5227 221.629 16.8523 221.443C17.1856 221.254 17.6364 221.159 18.2045 221.159C18.9394 221.159 19.5871 221.343 20.1477 221.71C20.7083 222.078 21.1458 222.598 21.4602 223.273C21.7746 223.947 21.9318 224.742 21.9318 225.659C21.9318 226.583 21.7746 227.384 21.4602 228.062C21.1458 228.737 20.7102 229.259 20.1534 229.631C19.5966 229.998 18.9545 230.182 18.2273 230.182C17.6667 230.182 17.2178 230.089 16.8807 229.903C16.5436 229.714 16.2841 229.5 16.1023 229.261C15.9205 229.019 15.7803 228.818 15.6818 228.659H15.5682V233.273H14.2273ZM15.5455 225.636C15.5455 226.295 15.642 226.877 15.8352 227.381C16.0284 227.881 16.3106 228.273 16.6818 228.557C17.053 228.837 17.5076 228.977 18.0455 228.977C18.6061 228.977 19.0739 228.83 19.4489 228.534C19.8277 228.235 20.1117 227.833 20.3011 227.33C20.4943 226.822 20.5909 226.258 20.5909 225.636C20.5909 225.023 20.4962 224.47 20.3068 223.977C20.1212 223.481 19.839 223.089 19.4602 222.801C19.0852 222.509 18.6136 222.364 18.0455 222.364C17.5 222.364 17.0417 222.502 16.6705 222.778C16.2992 223.051 16.0189 223.434 15.8295 223.926C15.6402 224.415 15.5455 224.985 15.5455 225.636ZM26.2455 230.205C25.6924 230.205 25.1905 230.1 24.7398 229.892C24.289 229.68 23.9311 229.375 23.6659 228.977C23.4008 228.576 23.2682 228.091 23.2682 227.523C23.2682 227.023 23.3667 226.617 23.5636 226.307C23.7606 225.992 24.0239 225.746 24.3534 225.568C24.683 225.39 25.0466 225.258 25.4443 225.17C25.8458 225.08 26.2492 225.008 26.6545 224.955C27.1848 224.886 27.6148 224.835 27.9443 224.801C28.2777 224.763 28.5201 224.701 28.6716 224.614C28.8269 224.527 28.9045 224.375 28.9045 224.159V224.114C28.9045 223.553 28.7511 223.117 28.4443 222.807C28.1413 222.496 27.6811 222.341 27.0636 222.341C26.4235 222.341 25.9216 222.481 25.558 222.761C25.1943 223.042 24.9386 223.341 24.7909 223.659L23.5182 223.205C23.7455 222.674 24.0485 222.261 24.4273 221.966C24.8098 221.667 25.2265 221.458 25.6773 221.341C26.1318 221.22 26.5788 221.159 27.0182 221.159C27.2985 221.159 27.6205 221.193 27.9841 221.261C28.3515 221.326 28.7057 221.46 29.0466 221.665C29.3913 221.869 29.6773 222.178 29.9045 222.591C30.1318 223.004 30.2455 223.557 30.2455 224.25V230H28.9045V228.818H28.8364C28.7455 229.008 28.5939 229.21 28.3818 229.426C28.1697 229.642 27.8875 229.826 27.5352 229.977C27.183 230.129 26.753 230.205 26.2455 230.205ZM26.45 229C26.9803 229 27.4273 228.896 27.7909 228.688C28.1583 228.479 28.4348 228.21 28.6205 227.881C28.8098 227.551 28.9045 227.205 28.9045 226.841V225.614C28.8477 225.682 28.7227 225.744 28.5295 225.801C28.3402 225.854 28.1205 225.902 27.8705 225.943C27.6242 225.981 27.3837 226.015 27.1489 226.045C26.9178 226.072 26.7303 226.095 26.5864 226.114C26.2379 226.159 25.9121 226.233 25.6091 226.335C25.3098 226.434 25.0674 226.583 24.8818 226.784C24.7 226.981 24.6091 227.25 24.6091 227.591C24.6091 228.057 24.7814 228.409 25.1261 228.648C25.4746 228.883 25.9159 229 26.45 229ZM38.5747 223.227L37.3702 223.568C37.2944 223.367 37.1827 223.172 37.0349 222.983C36.891 222.79 36.694 222.631 36.444 222.506C36.194 222.381 35.874 222.318 35.4838 222.318C34.9497 222.318 34.5046 222.441 34.1486 222.688C33.7963 222.93 33.6202 223.239 33.6202 223.614C33.6202 223.947 33.7414 224.21 33.9838 224.403C34.2262 224.597 34.605 224.758 35.1202 224.886L36.4156 225.205C37.1959 225.394 37.7774 225.684 38.1599 226.074C38.5425 226.46 38.7338 226.958 38.7338 227.568C38.7338 228.068 38.5899 228.515 38.302 228.909C38.0179 229.303 37.6202 229.614 37.1088 229.841C36.5974 230.068 36.0027 230.182 35.3247 230.182C34.4346 230.182 33.6978 229.989 33.1145 229.602C32.5312 229.216 32.1618 228.652 32.0065 227.909L33.2793 227.591C33.4005 228.061 33.6296 228.413 33.9668 228.648C34.3077 228.883 34.7527 229 35.302 229C35.927 229 36.4232 228.867 36.7906 228.602C37.1618 228.333 37.3474 228.011 37.3474 227.636C37.3474 227.333 37.2414 227.08 37.0293 226.875C36.8171 226.667 36.4914 226.511 36.052 226.409L34.5974 226.068C33.7982 225.879 33.2111 225.585 32.8361 225.188C32.4649 224.786 32.2793 224.284 32.2793 223.682C32.2793 223.189 32.4175 222.754 32.694 222.375C32.9743 221.996 33.355 221.699 33.8361 221.483C34.3209 221.267 34.8702 221.159 35.4838 221.159C36.3474 221.159 37.0255 221.348 37.5179 221.727C38.0141 222.106 38.3664 222.606 38.5747 223.227ZM46.6341 223.227L45.4295 223.568C45.3538 223.367 45.242 223.172 45.0943 222.983C44.9504 222.79 44.7534 222.631 44.5034 222.506C44.2534 222.381 43.9333 222.318 43.5432 222.318C43.0091 222.318 42.564 222.441 42.208 222.688C41.8557 222.93 41.6795 223.239 41.6795 223.614C41.6795 223.947 41.8008 224.21 42.0432 224.403C42.2856 224.597 42.6644 224.758 43.1795 224.886L44.475 225.205C45.2553 225.394 45.8367 225.684 46.2193 226.074C46.6019 226.46 46.7932 226.958 46.7932 227.568C46.7932 228.068 46.6492 228.515 46.3614 228.909C46.0773 229.303 45.6795 229.614 45.1682 229.841C44.6568 230.068 44.0621 230.182 43.3841 230.182C42.4939 230.182 41.7572 229.989 41.1739 229.602C40.5905 229.216 40.2212 228.652 40.0659 227.909L41.3386 227.591C41.4598 228.061 41.689 228.413 42.0261 228.648C42.367 228.883 42.8121 229 43.3614 229C43.9864 229 44.4826 228.867 44.85 228.602C45.2212 228.333 45.4068 228.011 45.4068 227.636C45.4068 227.333 45.3008 227.08 45.0886 226.875C44.8765 226.667 44.5508 226.511 44.1114 226.409L42.6568 226.068C41.8576 225.879 41.2705 225.585 40.8955 225.188C40.5242 224.786 40.3386 224.284 40.3386 223.682C40.3386 223.189 40.4769 222.754 40.7534 222.375C41.0337 221.996 41.4144 221.699 41.8955 221.483C42.3803 221.267 42.9295 221.159 43.5432 221.159C44.4068 221.159 45.0848 221.348 45.5773 221.727C46.0735 222.106 46.4258 222.606 46.6341 223.227ZM52.0571 230.182C51.2389 230.182 50.5344 229.989 49.9435 229.602C49.3526 229.216 48.898 228.684 48.5798 228.006C48.2616 227.328 48.1026 226.553 48.1026 225.682C48.1026 224.795 48.2654 224.013 48.5912 223.335C48.9207 222.653 49.3791 222.121 49.9662 221.739C50.5571 221.352 51.2465 221.159 52.0344 221.159C52.648 221.159 53.201 221.273 53.6935 221.5C54.1859 221.727 54.5893 222.045 54.9037 222.455C55.2181 222.864 55.4132 223.341 55.4889 223.886H54.148C54.0457 223.489 53.8185 223.136 53.4662 222.83C53.1177 222.519 52.648 222.364 52.0571 222.364C51.5344 222.364 51.076 222.5 50.6821 222.773C50.292 223.042 49.987 223.422 49.7673 223.915C49.5514 224.403 49.4435 224.977 49.4435 225.636C49.4435 226.311 49.5495 226.898 49.7616 227.398C49.9776 227.898 50.2806 228.286 50.6707 228.562C51.0647 228.839 51.5268 228.977 52.0571 228.977C52.4056 228.977 52.7219 228.917 53.006 228.795C53.2901 228.674 53.5306 228.5 53.7276 228.273C53.9245 228.045 54.0647 227.773 54.148 227.455H55.4889C55.4132 227.97 55.2257 228.434 54.9264 228.847C54.631 229.256 54.2389 229.581 53.7503 229.824C53.2654 230.062 52.701 230.182 52.0571 230.182ZM60.6946 230.182C59.9067 230.182 59.2154 229.994 58.6207 229.619C58.0298 229.244 57.5677 228.72 57.2344 228.045C56.9048 227.371 56.7401 226.583 56.7401 225.682C56.7401 224.773 56.9048 223.979 57.2344 223.301C57.5677 222.623 58.0298 222.097 58.6207 221.722C59.2154 221.347 59.9067 221.159 60.6946 221.159C61.4825 221.159 62.1719 221.347 62.7628 221.722C63.3575 222.097 63.8196 222.623 64.1491 223.301C64.4825 223.979 64.6491 224.773 64.6491 225.682C64.6491 226.583 64.4825 227.371 64.1491 228.045C63.8196 228.72 63.3575 229.244 62.7628 229.619C62.1719 229.994 61.4825 230.182 60.6946 230.182ZM60.6946 228.977C61.2931 228.977 61.7855 228.824 62.1719 228.517C62.5582 228.21 62.8442 227.807 63.0298 227.307C63.2154 226.807 63.3082 226.265 63.3082 225.682C63.3082 225.098 63.2154 224.555 63.0298 224.051C62.8442 223.547 62.5582 223.14 62.1719 222.83C61.7855 222.519 61.2931 222.364 60.6946 222.364C60.0961 222.364 59.6037 222.519 59.2173 222.83C58.831 223.14 58.545 223.547 58.3594 224.051C58.1738 224.555 58.081 225.098 58.081 225.682C58.081 226.265 58.1738 226.807 58.3594 227.307C58.545 227.807 58.831 228.21 59.2173 228.517C59.6037 228.824 60.0961 228.977 60.6946 228.977ZM69.6915 230.182C68.9642 230.182 68.3222 229.998 67.7653 229.631C67.2085 229.259 66.7729 228.737 66.4585 228.062C66.1441 227.384 65.9869 226.583 65.9869 225.659C65.9869 224.742 66.1441 223.947 66.4585 223.273C66.7729 222.598 67.2104 222.078 67.771 221.71C68.3316 221.343 68.9794 221.159 69.7142 221.159C70.2824 221.159 70.7313 221.254 71.0608 221.443C71.3941 221.629 71.6479 221.841 71.8222 222.08C72.0002 222.314 72.1384 222.508 72.2369 222.659H72.3506V218.364H73.6915V230H72.396V228.659H72.2369C72.1384 228.818 71.9983 229.019 71.8165 229.261C71.6347 229.5 71.3752 229.714 71.0381 229.903C70.7009 230.089 70.2521 230.182 69.6915 230.182ZM69.8733 228.977C70.4112 228.977 70.8657 228.837 71.2369 228.557C71.6081 228.273 71.8903 227.881 72.0835 227.381C72.2767 226.877 72.3733 226.295 72.3733 225.636C72.3733 224.985 72.2786 224.415 72.0892 223.926C71.8998 223.434 71.6195 223.051 71.2483 222.778C70.8771 222.502 70.4188 222.364 69.8733 222.364C69.3051 222.364 68.8316 222.509 68.4528 222.801C68.0778 223.089 67.7956 223.481 67.6063 223.977C67.4206 224.47 67.3278 225.023 67.3278 225.636C67.3278 226.258 67.4225 226.822 67.6119 227.33C67.8051 227.833 68.0892 228.235 68.4642 228.534C68.843 228.83 69.3127 228.977 69.8733 228.977ZM79.6926 230.182C78.8517 230.182 78.1263 229.996 77.5165 229.625C76.9104 229.25 76.4426 228.727 76.1131 228.057C75.7873 227.383 75.6244 226.598 75.6244 225.705C75.6244 224.811 75.7873 224.023 76.1131 223.341C76.4426 222.655 76.9009 222.121 77.4881 221.739C78.079 221.352 78.7684 221.159 79.5563 221.159C80.0108 221.159 80.4597 221.235 80.9028 221.386C81.346 221.538 81.7494 221.784 82.1131 222.125C82.4767 222.462 82.7665 222.909 82.9824 223.466C83.1983 224.023 83.3063 224.708 83.3063 225.523V226.091H76.579V224.932H81.9426C81.9426 224.439 81.8441 224 81.6472 223.614C81.454 223.227 81.1775 222.922 80.8176 222.699C80.4616 222.475 80.0411 222.364 79.5563 222.364C79.0222 222.364 78.56 222.496 78.1699 222.761C77.7835 223.023 77.4862 223.364 77.2778 223.784C77.0695 224.205 76.9653 224.655 76.9653 225.136V225.909C76.9653 226.568 77.079 227.127 77.3063 227.585C77.5373 228.04 77.8574 228.386 78.2665 228.625C78.6756 228.86 79.1509 228.977 79.6926 228.977C80.0449 228.977 80.3631 228.928 80.6472 228.83C80.935 228.727 81.1831 228.576 81.3915 228.375C81.5998 228.17 81.7608 227.917 81.8744 227.614L83.1699 227.977C83.0335 228.417 82.8044 228.803 82.4824 229.136C82.1604 229.466 81.7627 229.723 81.2892 229.909C80.8157 230.091 80.2835 230.182 79.6926 230.182ZM93.0415 221.273V222.409H88.5188V221.273H93.0415ZM89.8369 219.182H91.1778V227.5C91.1778 227.879 91.2328 228.163 91.3426 228.352C91.4563 228.538 91.6002 228.663 91.7744 228.727C91.9525 228.788 92.14 228.818 92.3369 228.818C92.4847 228.818 92.6059 228.811 92.7006 228.795C92.7953 228.777 92.871 228.761 92.9278 228.75L93.2006 229.955C93.1097 229.989 92.9828 230.023 92.8199 230.057C92.657 230.095 92.4506 230.114 92.2006 230.114C91.8218 230.114 91.4506 230.032 91.0869 229.869C90.7271 229.706 90.4278 229.458 90.1892 229.125C89.9544 228.792 89.8369 228.371 89.8369 227.864V219.182ZM98.2102 230.182C97.4223 230.182 96.7311 229.994 96.1364 229.619C95.5455 229.244 95.0833 228.72 94.75 228.045C94.4205 227.371 94.2557 226.583 94.2557 225.682C94.2557 224.773 94.4205 223.979 94.75 223.301C95.0833 222.623 95.5455 222.097 96.1364 221.722C96.7311 221.347 97.4223 221.159 98.2102 221.159C98.9981 221.159 99.6875 221.347 100.278 221.722C100.873 222.097 101.335 222.623 101.665 223.301C101.998 223.979 102.165 224.773 102.165 225.682C102.165 226.583 101.998 227.371 101.665 228.045C101.335 228.72 100.873 229.244 100.278 229.619C99.6875 229.994 98.9981 230.182 98.2102 230.182ZM98.2102 228.977C98.8087 228.977 99.3011 228.824 99.6875 228.517C100.074 228.21 100.36 227.807 100.545 227.307C100.731 226.807 100.824 226.265 100.824 225.682C100.824 225.098 100.731 224.555 100.545 224.051C100.36 223.547 100.074 223.14 99.6875 222.83C99.3011 222.519 98.8087 222.364 98.2102 222.364C97.6117 222.364 97.1193 222.519 96.733 222.83C96.3466 223.14 96.0606 223.547 95.875 224.051C95.6894 224.555 95.5966 225.098 95.5966 225.682C95.5966 226.265 95.6894 226.807 95.875 227.307C96.0606 227.807 96.3466 228.21 96.733 228.517C97.1193 228.824 97.6117 228.977 98.2102 228.977ZM108.112 233.273V221.273H109.407V222.659H109.566C109.665 222.508 109.801 222.314 109.975 222.08C110.153 221.841 110.407 221.629 110.737 221.443C111.07 221.254 111.521 221.159 112.089 221.159C112.824 221.159 113.471 221.343 114.032 221.71C114.593 222.078 115.03 222.598 115.345 223.273C115.659 223.947 115.816 224.742 115.816 225.659C115.816 226.583 115.659 227.384 115.345 228.062C115.03 228.737 114.595 229.259 114.038 229.631C113.481 229.998 112.839 230.182 112.112 230.182C111.551 230.182 111.102 230.089 110.765 229.903C110.428 229.714 110.168 229.5 109.987 229.261C109.805 229.019 109.665 228.818 109.566 228.659H109.453V233.273H108.112ZM109.43 225.636C109.43 226.295 109.526 226.877 109.72 227.381C109.913 227.881 110.195 228.273 110.566 228.557C110.937 228.837 111.392 228.977 111.93 228.977C112.49 228.977 112.958 228.83 113.333 228.534C113.712 228.235 113.996 227.833 114.186 227.33C114.379 226.822 114.475 226.258 114.475 225.636C114.475 225.023 114.381 224.47 114.191 223.977C114.006 223.481 113.723 223.089 113.345 222.801C112.97 222.509 112.498 222.364 111.93 222.364C111.384 222.364 110.926 222.502 110.555 222.778C110.184 223.051 109.903 223.434 109.714 223.926C109.525 224.415 109.43 224.985 109.43 225.636ZM117.562 230V221.273H118.857V222.591H118.948C119.107 222.159 119.395 221.809 119.812 221.54C120.228 221.271 120.698 221.136 121.221 221.136C121.319 221.136 121.442 221.138 121.59 221.142C121.738 221.146 121.85 221.152 121.925 221.159V222.523C121.88 222.511 121.776 222.494 121.613 222.472C121.454 222.445 121.285 222.432 121.107 222.432C120.683 222.432 120.304 222.521 119.971 222.699C119.641 222.873 119.38 223.116 119.187 223.426C118.997 223.733 118.903 224.083 118.903 224.477V230H117.562ZM126.495 230.182C125.707 230.182 125.015 229.994 124.421 229.619C123.83 229.244 123.368 228.72 123.034 228.045C122.705 227.371 122.54 226.583 122.54 225.682C122.54 224.773 122.705 223.979 123.034 223.301C123.368 222.623 123.83 222.097 124.421 221.722C125.015 221.347 125.707 221.159 126.495 221.159C127.282 221.159 127.972 221.347 128.563 221.722C129.157 222.097 129.62 222.623 129.949 223.301C130.282 223.979 130.449 224.773 130.449 225.682C130.449 226.583 130.282 227.371 129.949 228.045C129.62 228.72 129.157 229.244 128.563 229.619C127.972 229.994 127.282 230.182 126.495 230.182ZM126.495 228.977C127.093 228.977 127.586 228.824 127.972 228.517C128.358 228.21 128.644 227.807 128.83 227.307C129.015 226.807 129.108 226.265 129.108 225.682C129.108 225.098 129.015 224.555 128.83 224.051C128.644 223.547 128.358 223.14 127.972 222.83C127.586 222.519 127.093 222.364 126.495 222.364C125.896 222.364 125.404 222.519 125.017 222.83C124.631 223.14 124.345 223.547 124.159 224.051C123.974 224.555 123.881 225.098 123.881 225.682C123.881 226.265 123.974 226.807 124.159 227.307C124.345 227.807 124.631 228.21 125.017 228.517C125.404 228.824 125.896 228.977 126.495 228.977ZM135.741 230.182C134.923 230.182 134.219 229.989 133.628 229.602C133.037 229.216 132.582 228.684 132.264 228.006C131.946 227.328 131.787 226.553 131.787 225.682C131.787 224.795 131.95 224.013 132.276 223.335C132.605 222.653 133.063 222.121 133.651 221.739C134.241 221.352 134.931 221.159 135.719 221.159C136.332 221.159 136.885 221.273 137.378 221.5C137.87 221.727 138.274 222.045 138.588 222.455C138.902 222.864 139.098 223.341 139.173 223.886H137.832C137.73 223.489 137.503 223.136 137.151 222.83C136.802 222.519 136.332 222.364 135.741 222.364C135.219 222.364 134.76 222.5 134.366 222.773C133.976 223.042 133.671 223.422 133.452 223.915C133.236 224.403 133.128 224.977 133.128 225.636C133.128 226.311 133.234 226.898 133.446 227.398C133.662 227.898 133.965 228.286 134.355 228.562C134.749 228.839 135.211 228.977 135.741 228.977C136.09 228.977 136.406 228.917 136.69 228.795C136.974 228.674 137.215 228.5 137.412 228.273C137.609 228.045 137.749 227.773 137.832 227.455H139.173C139.098 227.97 138.91 228.434 138.611 228.847C138.315 229.256 137.923 229.581 137.435 229.824C136.95 230.062 136.385 230.182 135.741 230.182ZM144.493 230.182C143.652 230.182 142.926 229.996 142.316 229.625C141.71 229.25 141.243 228.727 140.913 228.057C140.587 227.383 140.424 226.598 140.424 225.705C140.424 224.811 140.587 224.023 140.913 223.341C141.243 222.655 141.701 222.121 142.288 221.739C142.879 221.352 143.568 221.159 144.356 221.159C144.811 221.159 145.26 221.235 145.703 221.386C146.146 221.538 146.549 221.784 146.913 222.125C147.277 222.462 147.566 222.909 147.782 223.466C147.998 224.023 148.106 224.708 148.106 225.523V226.091H141.379V224.932H146.743C146.743 224.439 146.644 224 146.447 223.614C146.254 223.227 145.977 222.922 145.618 222.699C145.262 222.475 144.841 222.364 144.356 222.364C143.822 222.364 143.36 222.496 142.97 222.761C142.584 223.023 142.286 223.364 142.078 223.784C141.87 224.205 141.765 224.655 141.765 225.136V225.909C141.765 226.568 141.879 227.127 142.106 227.585C142.337 228.04 142.657 228.386 143.066 228.625C143.476 228.86 143.951 228.977 144.493 228.977C144.845 228.977 145.163 228.928 145.447 228.83C145.735 228.727 145.983 228.576 146.191 228.375C146.4 228.17 146.561 227.917 146.674 227.614L147.97 227.977C147.834 228.417 147.604 228.803 147.282 229.136C146.96 229.466 146.563 229.723 146.089 229.909C145.616 230.091 145.084 230.182 144.493 230.182ZM153.505 230.182C152.664 230.182 151.939 229.996 151.329 229.625C150.723 229.25 150.255 228.727 149.926 228.057C149.6 227.383 149.437 226.598 149.437 225.705C149.437 224.811 149.6 224.023 149.926 223.341C150.255 222.655 150.713 222.121 151.301 221.739C151.891 221.352 152.581 221.159 153.369 221.159C153.823 221.159 154.272 221.235 154.715 221.386C155.159 221.538 155.562 221.784 155.926 222.125C156.289 222.462 156.579 222.909 156.795 223.466C157.011 224.023 157.119 224.708 157.119 225.523V226.091H150.391V224.932H155.755C155.755 224.439 155.657 224 155.46 223.614C155.266 223.227 154.99 222.922 154.63 222.699C154.274 222.475 153.854 222.364 153.369 222.364C152.835 222.364 152.373 222.496 151.982 222.761C151.596 223.023 151.299 223.364 151.09 223.784C150.882 224.205 150.778 224.655 150.778 225.136V225.909C150.778 226.568 150.891 227.127 151.119 227.585C151.35 228.04 151.67 228.386 152.079 228.625C152.488 228.86 152.963 228.977 153.505 228.977C153.857 228.977 154.176 228.928 154.46 228.83C154.748 228.727 154.996 228.576 155.204 228.375C155.412 228.17 155.573 227.917 155.687 227.614L156.982 227.977C156.846 228.417 156.617 228.803 156.295 229.136C155.973 229.466 155.575 229.723 155.102 229.909C154.628 230.091 154.096 230.182 153.505 230.182ZM162.154 230.182C161.427 230.182 160.785 229.998 160.228 229.631C159.671 229.259 159.235 228.737 158.921 228.062C158.607 227.384 158.449 226.583 158.449 225.659C158.449 224.742 158.607 223.947 158.921 223.273C159.235 222.598 159.673 222.078 160.234 221.71C160.794 221.343 161.442 221.159 162.177 221.159C162.745 221.159 163.194 221.254 163.523 221.443C163.857 221.629 164.11 221.841 164.285 222.08C164.463 222.314 164.601 222.508 164.699 222.659H164.813V218.364H166.154V230H164.859V228.659H164.699C164.601 228.818 164.461 229.019 164.279 229.261C164.097 229.5 163.838 229.714 163.501 229.903C163.163 230.089 162.715 230.182 162.154 230.182ZM162.336 228.977C162.874 228.977 163.328 228.837 163.699 228.557C164.071 228.273 164.353 227.881 164.546 227.381C164.739 226.877 164.836 226.295 164.836 225.636C164.836 224.985 164.741 224.415 164.552 223.926C164.362 223.434 164.082 223.051 163.711 222.778C163.34 222.502 162.881 222.364 162.336 222.364C161.768 222.364 161.294 222.509 160.915 222.801C160.54 223.089 160.258 223.481 160.069 223.977C159.883 224.47 159.79 225.023 159.79 225.636C159.79 226.258 159.885 226.822 160.074 227.33C160.268 227.833 160.552 228.235 160.927 228.534C161.305 228.83 161.775 228.977 162.336 228.977ZM169.473 230.091C169.193 230.091 168.952 229.991 168.752 229.79C168.551 229.589 168.451 229.348 168.451 229.068C168.451 228.788 168.551 228.547 168.752 228.347C168.952 228.146 169.193 228.045 169.473 228.045C169.754 228.045 169.994 228.146 170.195 228.347C170.396 228.547 170.496 228.788 170.496 229.068C170.496 229.254 170.449 229.424 170.354 229.58C170.263 229.735 170.14 229.86 169.985 229.955C169.833 230.045 169.663 230.091 169.473 230.091Z" fill="black"/>
<g filter="url(#filter4_d)">
<rect x="185" y="134" width="190" height="40" rx="20" fill="#DCF7C5"/>
</g>
<path d="M206.773 152.273C206.705 151.697 206.428 151.25 205.943 150.932C205.458 150.614 204.864 150.455 204.159 150.455C203.644 150.455 203.193 150.538 202.807 150.705C202.424 150.871 202.125 151.1 201.909 151.392C201.697 151.684 201.591 152.015 201.591 152.386C201.591 152.697 201.665 152.964 201.812 153.188C201.964 153.407 202.157 153.591 202.392 153.739C202.627 153.883 202.873 154.002 203.131 154.097C203.388 154.187 203.625 154.261 203.841 154.318L205.023 154.636C205.326 154.716 205.663 154.826 206.034 154.966C206.409 155.106 206.767 155.297 207.108 155.54C207.453 155.778 207.737 156.085 207.96 156.46C208.184 156.835 208.295 157.295 208.295 157.841C208.295 158.47 208.131 159.038 207.801 159.545C207.475 160.053 206.998 160.456 206.369 160.756C205.744 161.055 204.985 161.205 204.091 161.205C203.258 161.205 202.536 161.07 201.926 160.801C201.32 160.532 200.843 160.157 200.494 159.676C200.15 159.195 199.955 158.636 199.909 158H201.364C201.402 158.439 201.549 158.803 201.807 159.091C202.068 159.375 202.398 159.587 202.795 159.727C203.197 159.864 203.629 159.932 204.091 159.932C204.629 159.932 205.112 159.845 205.54 159.67C205.968 159.492 206.307 159.246 206.557 158.932C206.807 158.614 206.932 158.242 206.932 157.818C206.932 157.432 206.824 157.117 206.608 156.875C206.392 156.633 206.108 156.436 205.756 156.284C205.403 156.133 205.023 156 204.614 155.886L203.182 155.477C202.273 155.216 201.553 154.843 201.023 154.358C200.492 153.873 200.227 153.239 200.227 152.455C200.227 151.803 200.403 151.235 200.756 150.75C201.112 150.261 201.589 149.883 202.188 149.614C202.79 149.341 203.462 149.205 204.205 149.205C204.955 149.205 205.621 149.339 206.205 149.608C206.788 149.873 207.25 150.237 207.591 150.699C207.936 151.161 208.117 151.686 208.136 152.273H206.773ZM213.789 161.182C212.949 161.182 212.223 160.996 211.613 160.625C211.007 160.25 210.539 159.727 210.21 159.057C209.884 158.383 209.721 157.598 209.721 156.705C209.721 155.811 209.884 155.023 210.21 154.341C210.539 153.655 210.998 153.121 211.585 152.739C212.176 152.352 212.865 152.159 213.653 152.159C214.108 152.159 214.557 152.235 215 152.386C215.443 152.538 215.846 152.784 216.21 153.125C216.574 153.462 216.863 153.909 217.079 154.466C217.295 155.023 217.403 155.708 217.403 156.523V157.091H210.676V155.932H216.039C216.039 155.439 215.941 155 215.744 154.614C215.551 154.227 215.274 153.922 214.914 153.699C214.558 153.475 214.138 153.364 213.653 153.364C213.119 153.364 212.657 153.496 212.267 153.761C211.88 154.023 211.583 154.364 211.375 154.784C211.166 155.205 211.062 155.655 211.062 156.136V156.909C211.062 157.568 211.176 158.127 211.403 158.585C211.634 159.04 211.954 159.386 212.363 159.625C212.772 159.86 213.248 159.977 213.789 159.977C214.142 159.977 214.46 159.928 214.744 159.83C215.032 159.727 215.28 159.576 215.488 159.375C215.697 159.17 215.858 158.917 215.971 158.614L217.267 158.977C217.13 159.417 216.901 159.803 216.579 160.136C216.257 160.466 215.86 160.723 215.386 160.909C214.913 161.091 214.38 161.182 213.789 161.182ZM220.484 155.75V161H219.143V152.273H220.438V153.636H220.552C220.757 153.193 221.067 152.837 221.484 152.568C221.9 152.295 222.438 152.159 223.097 152.159C223.688 152.159 224.205 152.28 224.649 152.523C225.092 152.761 225.436 153.125 225.683 153.614C225.929 154.098 226.052 154.712 226.052 155.455V161H224.711V155.545C224.711 154.86 224.533 154.326 224.177 153.943C223.821 153.557 223.332 153.364 222.711 153.364C222.283 153.364 221.9 153.456 221.563 153.642C221.23 153.828 220.967 154.098 220.774 154.455C220.58 154.811 220.484 155.242 220.484 155.75ZM231.498 161.182C230.77 161.182 230.128 160.998 229.572 160.631C229.015 160.259 228.579 159.737 228.265 159.062C227.95 158.384 227.793 157.583 227.793 156.659C227.793 155.742 227.95 154.947 228.265 154.273C228.579 153.598 229.017 153.078 229.577 152.71C230.138 152.343 230.786 152.159 231.52 152.159C232.089 152.159 232.538 152.254 232.867 152.443C233.2 152.629 233.454 152.841 233.628 153.08C233.806 153.314 233.945 153.508 234.043 153.659H234.157V149.364H235.498V161H234.202V159.659H234.043C233.945 159.818 233.805 160.019 233.623 160.261C233.441 160.5 233.181 160.714 232.844 160.903C232.507 161.089 232.058 161.182 231.498 161.182ZM231.68 159.977C232.217 159.977 232.672 159.837 233.043 159.557C233.414 159.273 233.697 158.881 233.89 158.381C234.083 157.877 234.18 157.295 234.18 156.636C234.18 155.985 234.085 155.415 233.895 154.926C233.706 154.434 233.426 154.051 233.055 153.778C232.683 153.502 232.225 153.364 231.68 153.364C231.111 153.364 230.638 153.509 230.259 153.801C229.884 154.089 229.602 154.481 229.413 154.977C229.227 155.47 229.134 156.023 229.134 156.636C229.134 157.258 229.229 157.822 229.418 158.33C229.611 158.833 229.895 159.235 230.27 159.534C230.649 159.83 231.119 159.977 231.68 159.977ZM246.108 149.364V161H244.699V150.841H244.631L241.79 152.727V151.295L244.699 149.364H246.108ZM253.559 161V149.364H260.582V150.614H254.968V154.545H260.218V155.795H254.968V159.75H260.673V161H253.559ZM262.185 150.614V149.364H270.912V150.614H267.253V161H265.844V150.614H262.185ZM272.787 161V149.364H274.196V154.545H280.401V149.364H281.81V161H280.401V155.795H274.196V161H272.787ZM292.145 152.273V153.409H287.622V152.273H292.145ZM288.94 150.182H290.281V158.5C290.281 158.879 290.336 159.163 290.446 159.352C290.559 159.538 290.703 159.663 290.878 159.727C291.056 159.788 291.243 159.818 291.44 159.818C291.588 159.818 291.709 159.811 291.804 159.795C291.898 159.777 291.974 159.761 292.031 159.75L292.304 160.955C292.213 160.989 292.086 161.023 291.923 161.057C291.76 161.095 291.554 161.114 291.304 161.114C290.925 161.114 290.554 161.032 290.19 160.869C289.83 160.706 289.531 160.458 289.292 160.125C289.057 159.792 288.94 159.371 288.94 158.864V150.182ZM297.313 161.182C296.525 161.182 295.834 160.994 295.239 160.619C294.649 160.244 294.186 159.72 293.853 159.045C293.524 158.371 293.359 157.583 293.359 156.682C293.359 155.773 293.524 154.979 293.853 154.301C294.186 153.623 294.649 153.097 295.239 152.722C295.834 152.347 296.525 152.159 297.313 152.159C298.101 152.159 298.791 152.347 299.382 152.722C299.976 153.097 300.438 153.623 300.768 154.301C301.101 154.979 301.268 155.773 301.268 156.682C301.268 157.583 301.101 158.371 300.768 159.045C300.438 159.72 299.976 160.244 299.382 160.619C298.791 160.994 298.101 161.182 297.313 161.182ZM297.313 159.977C297.912 159.977 298.404 159.824 298.791 159.517C299.177 159.21 299.463 158.807 299.649 158.307C299.834 157.807 299.927 157.265 299.927 156.682C299.927 156.098 299.834 155.555 299.649 155.051C299.463 154.547 299.177 154.14 298.791 153.83C298.404 153.519 297.912 153.364 297.313 153.364C296.715 153.364 296.222 153.519 295.836 153.83C295.45 154.14 295.164 154.547 294.978 155.051C294.793 155.555 294.7 156.098 294.7 156.682C294.7 157.265 294.793 157.807 294.978 158.307C295.164 158.807 295.45 159.21 295.836 159.517C296.222 159.824 296.715 159.977 297.313 159.977ZM307.397 161V149.364H308.806V155.136H308.942L314.169 149.364H316.01L311.124 154.614L316.01 161H314.306L310.26 155.591L308.806 157.227V161H307.397ZM320.371 161.182C319.53 161.182 318.804 160.996 318.195 160.625C317.589 160.25 317.121 159.727 316.791 159.057C316.465 158.383 316.303 157.598 316.303 156.705C316.303 155.811 316.465 155.023 316.791 154.341C317.121 153.655 317.579 153.121 318.166 152.739C318.757 152.352 319.446 152.159 320.234 152.159C320.689 152.159 321.138 152.235 321.581 152.386C322.024 152.538 322.428 152.784 322.791 153.125C323.155 153.462 323.445 153.909 323.661 154.466C323.876 155.023 323.984 155.708 323.984 156.523V157.091H317.257V155.932H322.621C322.621 155.439 322.522 155 322.325 154.614C322.132 154.227 321.856 153.922 321.496 153.699C321.14 153.475 320.719 153.364 320.234 153.364C319.7 153.364 319.238 153.496 318.848 153.761C318.462 154.023 318.164 154.364 317.956 154.784C317.748 155.205 317.643 155.655 317.643 156.136V156.909C317.643 157.568 317.757 158.127 317.984 158.585C318.215 159.04 318.536 159.386 318.945 159.625C319.354 159.86 319.829 159.977 320.371 159.977C320.723 159.977 321.041 159.928 321.325 159.83C321.613 159.727 321.861 159.576 322.07 159.375C322.278 159.17 322.439 158.917 322.553 158.614L323.848 158.977C323.712 159.417 323.482 159.803 323.161 160.136C322.839 160.466 322.441 160.723 321.967 160.909C321.494 161.091 320.962 161.182 320.371 161.182ZM327.065 155.75V161H325.724V152.273H327.02V153.636H327.133C327.338 153.193 327.648 152.837 328.065 152.568C328.482 152.295 329.02 152.159 329.679 152.159C330.27 152.159 330.787 152.28 331.23 152.523C331.673 152.761 332.018 153.125 332.264 153.614C332.51 154.098 332.633 154.712 332.633 155.455V161H331.292V155.545C331.292 154.86 331.114 154.326 330.758 153.943C330.402 153.557 329.914 153.364 329.292 153.364C328.864 153.364 328.482 153.456 328.145 153.642C327.811 153.828 327.548 154.098 327.355 154.455C327.162 154.811 327.065 155.242 327.065 155.75ZM336.124 155.75V161H334.784V152.273H336.079V153.636H336.193C336.397 153.193 336.708 152.837 337.124 152.568C337.541 152.295 338.079 152.159 338.738 152.159C339.329 152.159 339.846 152.28 340.289 152.523C340.732 152.761 341.077 153.125 341.323 153.614C341.57 154.098 341.693 154.712 341.693 155.455V161H340.352V155.545C340.352 154.86 340.174 154.326 339.818 153.943C339.462 153.557 338.973 153.364 338.352 153.364C337.924 153.364 337.541 153.456 337.204 153.642C336.871 153.828 336.607 154.098 336.414 154.455C336.221 154.811 336.124 155.242 336.124 155.75ZM344.394 164.25C344.167 164.25 343.964 164.231 343.786 164.193C343.608 164.159 343.485 164.125 343.417 164.091L343.758 162.909C344.246 163.034 344.654 163.03 344.979 162.898C345.305 162.769 345.587 162.379 345.826 161.727L346.076 161.045L342.849 152.273H344.303L346.712 159.227H346.803L349.212 152.273L350.678 152.295L346.962 162.273C346.796 162.716 346.589 163.083 346.343 163.375C346.097 163.67 345.811 163.89 345.485 164.034C345.163 164.178 344.799 164.25 344.394 164.25ZM360.289 153C360.164 152.617 359.999 152.275 359.794 151.972C359.594 151.665 359.353 151.403 359.073 151.188C358.796 150.972 358.482 150.807 358.13 150.693C357.777 150.58 357.391 150.523 356.97 150.523C356.281 150.523 355.654 150.701 355.09 151.057C354.525 151.413 354.077 151.938 353.743 152.631C353.41 153.324 353.243 154.174 353.243 155.182C353.243 156.189 353.412 157.04 353.749 157.733C354.086 158.426 354.542 158.951 355.118 159.307C355.694 159.663 356.342 159.841 357.061 159.841C357.728 159.841 358.315 159.699 358.823 159.415C359.334 159.127 359.732 158.722 360.016 158.199C360.304 157.672 360.448 157.053 360.448 156.341L360.88 156.432H357.38V155.182H361.811V156.432C361.811 157.39 361.607 158.223 361.198 158.932C360.792 159.64 360.232 160.189 359.516 160.58C358.804 160.966 357.986 161.159 357.061 161.159C356.031 161.159 355.126 160.917 354.345 160.432C353.569 159.947 352.963 159.258 352.527 158.364C352.095 157.47 351.88 156.409 351.88 155.182C351.88 154.261 352.003 153.434 352.249 152.699C352.499 151.96 352.851 151.331 353.306 150.812C353.76 150.294 354.298 149.896 354.919 149.619C355.541 149.343 356.224 149.205 356.97 149.205C357.584 149.205 358.156 149.297 358.686 149.483C359.22 149.665 359.696 149.924 360.113 150.261C360.533 150.595 360.883 150.994 361.164 151.46C361.444 151.922 361.637 152.436 361.743 153H360.289Z" fill="#41505B"/>
<path fill-rule="evenodd" clip-rule="evenodd" d="M306.68 37.4567L304.873 34.4041C304.069 33.0447 302.315 32.5947 300.956 33.399C300.712 33.5429 300.492 33.7219 300.301 33.9303C298.945 35.4137 298.337 36.8261 298.537 38.1653C298.946 40.9098 300.876 44.0447 304.304 47.6037L304.602 47.8978L304.896 48.1959L304.902 48.1916C308.455 51.624 311.59 53.5536 314.335 53.9628C315.674 54.1625 317.086 53.5552 318.57 52.1986C318.778 52.008 318.957 51.7876 319.101 51.5445C319.905 50.185 319.455 48.4309 318.096 47.6266L315.043 45.8205L314.892 45.7378C314.173 45.3796 313.318 45.4036 312.617 45.8109L311.666 46.3635L311.555 46.4209C311.068 46.6443 310.488 46.5448 310.103 46.1601L306.34 42.3968L306.256 42.3046C305.916 41.8915 305.863 41.3049 306.136 40.8345L306.689 39.8833C307.125 39.1324 307.122 38.2042 306.68 37.4567ZM317.76 51.3131C316.505 52.4609 315.429 52.9127 314.512 52.7759C312.155 52.4245 309.34 50.7373 306.086 47.6632L305.526 47.1257L305.147 46.75C301.883 43.3601 300.088 40.4279 299.724 37.9883C299.587 37.0712 300.039 35.9952 301.187 34.7402C301.298 34.6192 301.425 34.5153 301.567 34.4318C302.312 33.9909 303.261 34.1994 303.758 34.8886L303.841 35.0152L305.647 38.0678C305.868 38.4413 305.87 38.9052 305.652 39.2805L305.099 40.2316C304.574 41.1343 304.669 42.2661 305.33 43.068L305.452 43.2037L309.255 47.0086C309.993 47.7468 311.111 47.9451 312.056 47.5114L312.218 47.4288L313.22 46.8484C313.569 46.6456 313.996 46.6323 314.356 46.8118L314.47 46.8745L317.485 48.6593C318.274 49.1262 318.535 50.1443 318.068 50.9334C317.985 51.0745 317.881 51.2025 317.76 51.3131Z" fill="#007AFF"/>
<path fill-rule="evenodd" clip-rule="evenodd" d="M266 41C266 38.7909 264.209 37 262 37H253C250.791 37 249 38.7909 249 41V48.5C249 50.7091 250.791 52.5 253 52.5H262C264.209 52.5 266 50.7091 266 48.5V41ZM253 38.2H262C263.546 38.2 264.8 39.4536 264.8 41V48.5C264.8 50.0464 263.546 51.3 262 51.3H253C251.454 51.3 250.2 50.0464 250.2 48.5V41C250.2 39.4536 251.454 38.2 253 38.2ZM273.293 38.9212C273.427 39.096 273.5 39.3103 273.5 39.5309V49.7104C273.5 50.2627 273.052 50.7104 272.5 50.7104C272.315 50.7104 272.134 50.6591 271.976 50.5621L267.952 48.0857C267.36 47.7217 267 47.0769 267 46.3824V43.4848C267 42.8639 267.288 42.2781 267.781 41.8996L271.89 38.7382C272.328 38.4015 272.956 38.4834 273.293 38.9212ZM268.512 42.8507L272.3 39.937V49.3525L268.581 47.0637C268.344 46.9181 268.2 46.6602 268.2 46.3824V43.4848C268.2 43.2364 268.315 43.0021 268.512 42.8507Z" fill="#007AFF"/>
<path d="M59.6021 44.5L67.4062 36.5509C67.9866 35.9597 67.9778 35.01 67.3867 34.4296C66.7955 33.8493 65.8458 33.858 65.2655 34.4491L56.4296 43.4491C55.8568 44.0326 55.8568 44.9674 56.4296 45.5509L65.2655 54.5509C65.8458 55.142 66.7955 55.1507 67.3867 54.5704C67.9778 53.99 67.9866 53.0403 67.4062 52.4491L59.6021 44.5Z" fill="#007AFF"/>
<path d="M117 44.5004C117 54.1691 109.165 62 99.5 62C96.3347 62.0018 93.2283 61.1446 90.5118 59.5199C87.7952 57.8952 85.5705 55.5637 84.0747 52.7741C83.7994 52.2603 83.5504 51.7329 83.3285 51.1939C82.4496 49.0719 81.9981 46.7972 82 44.5004C82 34.8346 89.8352 27 99.5 27C107.25 27 113.827 32.0403 116.125 39.0232C116.311 39.5865 116.468 40.159 116.595 40.7384C116.865 41.9741 117.001 43.2354 117 44.5004Z" fill="#002855"/>
<path d="M107.445 41.1304C107.984 41.4618 108.331 40.5075 108.438 40.0078C108.546 39.5081 108.604 38.4992 107.902 38.7021C107.237 38.8955 106.627 39.2874 106.733 40.0307C106.838 40.7739 106.989 41.1422 107.445 41.1304Z" fill="#30DFC4"/>
<path d="M116.127 39.0234C116.123 39.03 116.12 39.0374 116.115 39.044C114.968 40.9696 113.57 42.7341 111.958 44.291C109.992 46.1649 108.225 47.1318 107.422 47.1207C106.979 47.1207 106.636 46.3753 107.403 44.0208C107.613 43.3787 107.062 42.8303 106.471 42.7329C106.028 42.6591 105.611 42.8473 105.181 43.4119C103.641 45.4372 102.07 47.4447 100.356 49.0368C100.16 49.2183 99.85 49.5091 99.7474 49.5091C99.619 49.5091 99.5828 49.315 99.5828 49.0773C99.5828 48.5969 99.7444 46.8129 99.7769 46.114C99.8072 45.4807 99.5238 45.0379 99.0573 44.8165C98.4027 44.508 97.7687 44.5648 97.0491 44.9567C95.3663 45.8756 92.4835 49.4538 91.5698 50.5055C91.5026 50.586 91.3808 50.7476 91.2974 50.7151C91.214 50.6826 91.248 50.5107 91.2642 50.4258C91.4022 49.7003 91.5129 49.1881 91.6473 48.4854C91.6628 48.405 91.6915 48.264 91.7078 48.2204C91.7314 48.1748 91.7638 48.1341 91.803 48.1009C92.7005 47.2639 95.2932 44.8748 97.4749 42.1439C99.0101 40.2249 100.342 38.1347 100.735 36.3028C100.908 35.4998 100.77 33.8797 99.2455 33.6701C97.3428 33.4089 95.0903 35.7367 93.2164 39.0448C91.4768 42.1225 90.5985 45.4741 90.1483 47.0093C90.1042 47.1576 90.0149 47.2884 89.8929 47.3835C89.1755 47.9001 86.2964 50.1217 83.3242 51.1941C83.5477 51.734 83.7985 52.2621 84.0756 52.7766C86.3547 52.0614 88.1917 50.7579 88.8685 50.3129C89.0161 50.214 89.2375 50.0575 89.2906 50.059C89.3438 50.0605 89.2597 50.4575 89.1762 50.9218C89.1231 51.217 88.881 52.488 88.9467 53.4726C88.9777 53.9449 89.1342 54.4165 89.6058 54.5642C90.1291 54.7295 90.6162 54.4416 90.8671 54.1213C91.679 53.0688 95.8121 48.2669 97.1598 47.1768C97.2461 47.1067 97.3074 47.0757 97.3487 47.0919C97.3901 47.1082 97.407 47.1716 97.4026 47.2927C97.3849 47.8093 97.2801 48.4972 97.2698 49.0094C97.2513 50.4664 98.2492 51.4894 99.6935 51.4835C101.31 51.4768 103.779 48.2669 104.438 47.4765C104.713 47.1458 104.874 47.0144 104.995 47.0144C105.444 47.0144 105.845 48.8087 107.658 48.8087C109.293 48.8087 111.535 47.3325 113.422 45.3767C114.785 43.961 115.963 42.293 116.596 40.7423C116.469 40.1617 116.313 39.5879 116.127 39.0234ZM92.8842 44.1426C93.5433 42.2841 95.2327 38.3894 96.8564 36.6261C97.796 35.6068 98.4204 35.2976 98.6964 35.3256C99.1237 35.3655 98.5488 36.601 98.3532 37.0542C97.1723 39.8087 94.2105 43.3278 93.1868 44.322C92.8252 44.6725 92.7005 44.8187 92.6665 44.8083C92.6355 44.7973 92.7861 44.4275 92.8842 44.1426Z" fill="white"/>
<path d="M130.474 51V38.3174H132.003V43.3184H132.038C132.296 42.8027 132.671 42.4043 133.163 42.123C133.661 41.8418 134.253 41.7012 134.939 41.7012C135.935 41.7012 136.72 42.0088 137.294 42.624C137.868 43.2393 138.155 44.0625 138.155 45.0938V51H136.626V45.375C136.626 44.6367 136.442 44.0654 136.072 43.6611C135.709 43.2568 135.173 43.0547 134.464 43.0547C133.708 43.0547 133.108 43.292 132.662 43.7666C132.223 44.2412 132.003 44.877 132.003 45.6738V51H130.474ZM139.997 51V41.8594H141.526V51H139.997ZM140.762 40.3213C140.504 40.3213 140.281 40.2275 140.094 40.04C139.906 39.8525 139.812 39.6299 139.812 39.3721C139.812 39.1084 139.906 38.8857 140.094 38.7041C140.281 38.5166 140.504 38.4229 140.762 38.4229C141.025 38.4229 141.251 38.5166 141.438 38.7041C141.626 38.8857 141.72 39.1084 141.72 39.3721C141.72 39.6299 141.626 39.8525 141.438 40.04C141.251 40.2275 141.025 40.3213 140.762 40.3213Z" fill="black"/>
<defs>
<filter id="filter0_dd" x="12" y="0" width="352" height="667" filterUnits="userSpaceOnUse" color-interpolation-filters="sRGB">
<feFlood flood-opacity="0" result="BackgroundImageFix"/>
<feColorMatrix in="SourceAlpha" type="matrix" values="0 0 0 0 0 0 0 0 0 0 0 0 0 0 0 0 0 0 127 0"/>
<feOffset dy="24"/>
<feGaussianBlur stdDeviation="12"/>
<feColorMatrix type="matrix" values="0 0 0 0 0.320764 0 0 0 0 0.410198 0 0 0 0 0.516667 0 0 0 0.3 0"/>
<feBlend mode="multiply" in2="BackgroundImageFix" result="effect1_dropShadow"/>
<feColorMatrix in="SourceAlpha" type="matrix" values="0 0 0 0 0 0 0 0 0 0 0 0 0 0 0 0 0 0 127 0"/>
<feOffset dy="4"/>
<feGaussianBlur stdDeviation="4"/>
<feColorMatrix type="matrix" values="0 0 0 0 0.733333 0 0 0 0 0.819608 0 0 0 0 0.909804 0 0 0 0.5 0"/>
<feBlend mode="normal" in2="effect1_dropShadow" result="effect2_dropShadow"/>
<feBlend mode="normal" in="SourceGraphic" in2="effect2_dropShadow" result="shape"/>
</filter>
<filter id="filter1_d" x="0" y="304" width="252" height="61" filterUnits="userSpaceOnUse" color-interpolation-filters="sRGB">
<feFlood flood-opacity="0" result="BackgroundImageFix"/>
<feColorMatrix in="SourceAlpha" type="matrix" values="0 0 0 0 0 0 0 0 0 0 0 0 0 0 0 0 0 0 127 0"/>
<feOffset dy="1"/>
<feGaussianBlur stdDeviation="0.5"/>
<feColorMatrix type="matrix" values="0 0 0 0 0.14902 0 0 0 0 0.207843 0 0 0 0 0.25098 0 0 0 0.3 0"/>
<feBlend mode="multiply" in2="BackgroundImageFix" result="effect1_dropShadow"/>
<feBlend mode="normal" in="SourceGraphic" in2="effect1_dropShadow" result="shape"/>
</filter>
<filter id="filter2_d" x="275" y="254" width="101" height="42" filterUnits="userSpaceOnUse" color-interpolation-filters="sRGB">
<feFlood flood-opacity="0" result="BackgroundImageFix"/>
<feColorMatrix in="SourceAlpha" type="matrix" values="0 0 0 0 0 0 0 0 0 0 0 0 0 0 0 0 0 0 127 0"/>
<feOffset dy="1"/>
<feGaussianBlur stdDeviation="0.5"/>
<feColorMatrix type="matrix" values="0 0 0 0 0.14902 0 0 0 0 0.207843 0 0 0 0 0.25098 0 0 0 0.3 0"/>
<feBlend mode="multiply" in2="BackgroundImageFix" result="effect1_dropShadow"/>
<feBlend mode="normal" in="SourceGraphic" in2="effect1_dropShadow" result="shape"/>
</filter>
<filter id="filter3_d" x="0" y="184" width="252" height="62" filterUnits="userSpaceOnUse" color-interpolation-filters="sRGB">
<feFlood flood-opacity="0" result="BackgroundImageFix"/>
<feColorMatrix in="SourceAlpha" type="matrix" values="0 0 0 0 0 0 0 0 0 0 0 0 0 0 0 0 0 0 127 0"/>
<feOffset dy="1"/>
<feGaussianBlur stdDeviation="0.5"/>
<feColorMatrix type="matrix" values="0 0 0 0 0.14902 0 0 0 0 0.207843 0 0 0 0 0.25098 0 0 0 0.3 0"/>
<feBlend mode="multiply" in2="BackgroundImageFix" result="effect1_dropShadow"/>
<feBlend mode="normal" in="SourceGraphic" in2="effect1_dropShadow" result="shape"/>
</filter>
<filter id="filter4_d" x="184" y="134" width="192" height="42" filterUnits="userSpaceOnUse" color-interpolation-filters="sRGB">
<feFlood flood-opacity="0" result="BackgroundImageFix"/>
<feColorMatrix in="SourceAlpha" type="matrix" values="0 0 0 0 0 0 0 0 0 0 0 0 0 0 0 0 0 0 127 0"/>
<feOffset dy="1"/>
<feGaussianBlur stdDeviation="0.5"/>
<feColorMatrix type="matrix" values="0 0 0 0 0.14902 0 0 0 0 0.207843 0 0 0 0 0.25098 0 0 0 0.3 0"/>
<feBlend mode="multiply" in2="BackgroundImageFix" result="effect1_dropShadow"/>
<feBlend mode="normal" in="SourceGraphic" in2="effect1_dropShadow" result="shape"/>
</filter>
</defs>
</svg>
