<svg width="204" height="316" viewBox="0 0 204 316" fill="none" xmlns="http://www.w3.org/2000/svg">
<g filter="url(#filter0_d)">
<path d="M0.6409 11.7834C0.6409 5.27563 5.91651 0 12.4243 0H153.13C159.638 0 164.914 5.27561 164.914 11.7834V278H0.6409V11.7834Z" fill="url(#paint0_linear)"/>
<path d="M0.6409 11.7834C0.6409 5.2756 5.91651 0 12.4243 0H153.38C159.888 0 165.163 5.27561 165.163 11.7834V45.8931H0.6409V11.7834Z" fill="url(#paint1_linear)"/>
<circle cx="32.4358" cy="29.1329" r="7.80318" fill="#002855"/>
<path d="M35.4402 28.1311C35.61 28.2286 35.7193 27.949 35.7542 27.8016C35.7891 27.6542 35.8053 27.3595 35.5844 27.418C35.3751 27.4743 35.1821 27.5892 35.217 27.8081C35.2518 28.027 35.2984 28.1332 35.4402 28.1311Z" fill="#5ADFEC"/>
<path d="M30.4374 30.8836C30.7258 30.5759 31.6327 29.5247 32.163 29.2538C32.3909 29.1389 32.5886 29.1215 32.7955 29.2126C32.942 29.2776 33.0327 29.4076 33.0234 29.594C33.0141 29.7999 32.963 30.3223 32.963 30.4632C32.963 30.5325 32.9746 30.591 33.0141 30.591C33.0467 30.591 33.1444 30.5065 33.2048 30.4523C33.7444 29.9842 34.2397 29.3946 34.7258 28.8008C34.8607 28.6361 34.9909 28.5797 35.1327 28.6014C35.3188 28.6295 35.4932 28.7921 35.4258 28.9785C35.1839 29.6699 35.2909 29.8888 35.4304 29.8888C35.6839 29.891 36.2397 29.6092 36.8606 29.0587C37.3676 28.6014 37.8095 28.0834 38.17 27.5177C38.2258 27.431 38.2793 27.3313 38.3723 27.3356C38.449 27.34 38.4886 27.4071 38.456 27.5849C38.3583 28.1441 37.8909 28.8246 37.3211 29.3773C36.7258 29.9517 36.0188 30.3851 35.5048 30.3851C34.9327 30.3851 34.8072 29.8585 34.6653 29.8585C34.6281 29.8585 34.5769 29.8975 34.4909 29.995C34.2839 30.2269 33.5048 31.1697 32.9955 31.1719C32.5397 31.1741 32.2258 30.8728 32.2327 30.4458C32.2351 30.2963 32.27 30.0925 32.2746 29.9408C32.2769 29.9061 32.27 29.8866 32.2583 29.8823C32.2467 29.878 32.2258 29.8866 32.1979 29.9061C31.7723 30.2269 30.4723 31.6357 30.2141 31.9457C30.1351 32.041 29.9816 32.1255 29.8165 32.0757C29.6676 32.0324 29.6188 31.8936 29.6095 31.7549C29.5886 31.4667 29.6653 31.0939 29.6816 31.005C29.7072 30.8685 29.7351 30.7514 29.7188 30.7514C29.7025 30.7514 29.6327 30.7969 29.5862 30.8251C29.2816 31.0115 28.2304 31.7137 27.0932 31.6899C26.6002 31.6877 26.2467 31.5729 26.0165 31.3886C25.9514 31.3366 25.9397 31.2846 25.9607 31.2478C25.9816 31.2109 26.0328 31.1914 26.0955 31.2087C26.2886 31.2586 26.7141 31.3626 27.4793 31.1871C28.5304 30.9465 29.656 30.1359 29.9095 29.9647C29.949 29.9365 29.9769 29.8975 29.9909 29.8541C30.1327 29.4033 30.4095 28.4193 30.9583 27.5155C31.549 26.5445 32.2583 25.8596 32.8583 25.9376C33.3397 25.9983 33.3816 26.4752 33.3281 26.7114C33.2048 27.2489 32.7839 27.8623 32.3002 28.4258C31.6118 29.2277 30.7955 29.93 30.5118 30.1749C30.5002 30.1857 30.4886 30.1966 30.4816 30.2096C30.4769 30.2226 30.4676 30.2638 30.463 30.2876C30.4211 30.4935 30.3862 30.6452 30.3421 30.8576C30.3374 30.8815 30.3258 30.9335 30.3514 30.9422C30.3769 30.9508 30.4165 30.9075 30.4374 30.8836ZM30.7839 29.2104C30.7955 29.2126 30.8327 29.1714 30.9467 29.0674C31.27 28.7748 32.2025 27.7431 32.5746 26.9325C32.6351 26.8003 32.8165 26.4361 32.6816 26.4253C32.5955 26.4188 32.3979 26.5077 32.1025 26.8068C31.5909 27.3248 31.0583 28.4692 30.8514 29.0132C30.8211 29.0977 30.7746 29.2061 30.7839 29.2104Z" fill="white"/>
<path d="M46.1796 29.994C46.1796 29.3437 46.5839 28.9688 47.1521 28.9688C47.7086 28.9688 48.0367 29.3232 48.0367 29.9296V32.6302H49.097V29.7655C49.097 28.6788 48.4819 28.0725 47.5475 28.0725C46.8563 28.0725 46.4169 28.3859 46.2089 28.8956H46.1562V26.6314H45.1193V32.6302H46.1796V29.994ZM50.1779 32.6302H51.2382V28.1311H50.1779V32.6302ZM50.711 27.4925C51.0478 27.4925 51.3232 27.2348 51.3232 26.9184C51.3232 26.5991 51.0478 26.3414 50.711 26.3414C50.3712 26.3414 50.0959 26.5991 50.0959 26.9184C50.0959 27.2348 50.3712 27.4925 50.711 27.4925Z" fill="black"/>
<rect x="10.7608" y="22.1967" width="13.8723" height="13.8723" fill="white"/>
<path d="M12.16 29.1329L15.1925 26.044C15.418 25.8143 15.4146 25.4452 15.1849 25.2197C14.9552 24.9942 14.5862 24.9976 14.3607 25.2273L10.9272 28.7245C10.7046 28.9513 10.7046 29.3145 10.9272 29.5412L14.3607 33.0384C14.5862 33.2682 14.9552 33.2715 15.1849 33.046C15.4146 32.8205 15.418 32.4515 15.1925 32.2218L12.16 29.1329Z" fill="#5ADFEC"/>
<rect x="117.762" y="21.7632" width="14.7393" height="14.7393" fill="white"/>
<path fill-rule="evenodd" clip-rule="evenodd" d="M123.56 25.4065L124.343 26.7298C124.535 27.0538 124.536 27.4562 124.347 27.7818L124.107 28.1941C123.989 28.398 124.012 28.6523 124.159 28.8314L124.196 28.8714L125.827 30.5028C125.994 30.6696 126.245 30.7127 126.456 30.6158L126.504 30.591L126.917 30.3514C127.221 30.1749 127.591 30.1645 127.903 30.3197L127.969 30.3556L129.292 31.1385C129.881 31.4872 130.076 32.2476 129.728 32.837C129.665 32.9424 129.588 33.0379 129.497 33.1206C128.854 33.7087 128.242 33.9719 127.661 33.8854C126.472 33.708 125.113 32.8715 123.572 31.3835L123.57 31.3853L123.442 31.2561L123.313 31.1286C121.827 29.5857 120.99 28.2268 120.813 27.037C120.726 26.4564 120.99 25.8441 121.578 25.2011C121.66 25.1107 121.756 25.0331 121.861 24.9707C122.451 24.6221 123.211 24.8171 123.56 25.4065Z" fill="#5ADFEC"/>
<rect x="140.305" y="21.7632" width="14.7393" height="14.7393" fill="white"/>
<path fill-rule="evenodd" clip-rule="evenodd" d="M149.842 27.6156L149.842 27.5915V27.3989C149.842 26.9373 149.602 26.5318 149.239 26.301C148.935 26.0396 148.54 25.8816 148.108 25.8816H144.207C143.249 25.8816 142.473 26.6579 142.473 27.6156V30.8669C142.473 31.8246 143.249 32.601 144.207 32.601H148.108C149.066 32.601 149.842 31.8246 149.842 30.8669V27.6156ZM153.004 26.7144C153.062 26.7902 153.094 26.8831 153.094 26.9787V31.3917C153.094 31.6311 152.9 31.8252 152.66 31.8252C152.58 31.8252 152.501 31.8029 152.433 31.7609L150.689 30.6873C150.432 30.5295 150.276 30.25 150.276 29.9489V28.6928C150.276 28.4236 150.401 28.1697 150.614 28.0056L152.396 26.6351C152.586 26.4891 152.858 26.5246 153.004 26.7144Z" fill="#5ADFEC"/>
<rect x="53.2224" y="63.8136" width="102.675" height="21.7834" rx="10.8917" fill="#5ADFEC"/>
<path d="M64.6134 77.8061C66.0311 77.8061 66.8849 77.1173 66.8849 76.0339V76.0299C66.8849 75.1237 66.3573 74.6324 65.149 74.3826L64.5207 74.2538C63.8199 74.1088 63.5018 73.8671 63.5018 73.4563V73.4523C63.5018 72.9891 63.9247 72.6709 64.6053 72.6669C65.2578 72.6669 65.7048 72.969 65.7733 73.4765L65.7813 73.5248H66.7761L66.7721 73.4563C66.7117 72.4615 65.882 71.7929 64.6134 71.7929C63.3608 71.7929 62.4627 72.4857 62.4586 73.5087V73.5127C62.4586 74.3786 63.0225 74.9103 64.1663 75.1479L64.7906 75.2768C65.5397 75.4338 65.8418 75.6674 65.8418 76.1024V76.1064C65.8418 76.6058 65.3826 76.9321 64.6496 76.9321C63.9206 76.9321 63.4091 76.622 63.3326 76.1225L63.3246 76.0742H62.3298L62.3338 76.1346C62.4022 77.1778 63.2802 77.8061 64.6134 77.8061ZM69.6033 77.7899C70.7189 77.7899 71.3472 77.1294 71.4801 76.4729L71.4922 76.4286H70.5538L70.5458 76.4568C70.4491 76.7428 70.1229 77.0086 69.6235 77.0086C68.971 77.0086 68.5602 76.5656 68.5441 75.8165H71.5325V75.4942C71.5325 74.2054 70.7753 73.3476 69.555 73.3476C68.3346 73.3476 67.5493 74.2336 67.5493 75.5788V75.5829C67.5493 76.9401 68.3226 77.7899 69.6033 77.7899ZM69.5671 74.1329C70.0987 74.1329 70.4853 74.4713 70.5578 75.1479H68.5562C68.6367 74.4914 69.0354 74.1329 69.5671 74.1329ZM72.3459 77.7054H73.3488V75.2284C73.3488 74.6122 73.7153 74.1934 74.2912 74.1934C74.8631 74.1934 75.145 74.5357 75.145 75.1439V77.7054H76.1479V74.9425C76.1479 73.9517 75.6122 73.3476 74.6738 73.3476C74.0254 73.3476 73.5904 73.6456 73.3689 74.1048H73.3488V73.4362H72.3459V77.7054ZM78.7052 77.7899C79.3214 77.7899 79.7926 77.4838 80.0343 76.9804H80.0585V77.7054H81.0613V71.8936H80.0585V74.1692H80.0343C79.7926 73.6577 79.3053 73.3476 78.7012 73.3476C77.6299 73.3476 76.9412 74.1893 76.9412 75.5667V75.5708C76.9412 76.9442 77.6258 77.7899 78.7052 77.7899ZM79.0073 76.9442C78.3629 76.9442 77.9641 76.4206 77.9641 75.5708V75.5667C77.9641 74.7169 78.3669 74.1934 79.0073 74.1934C79.6235 74.1934 80.0585 74.733 80.0585 75.5667V75.5708C80.0585 76.4085 79.6275 76.9442 79.0073 76.9442ZM85.3705 77.7054H86.3894V71.8936H85.3624L83.844 72.9609V73.9155L85.3463 72.8844H85.3705V77.7054ZM89.8165 77.7054H93.5782V76.8314H90.8556V75.1761H93.4292V74.3343H90.8556V72.7676H93.5782V71.8936H89.8165V77.7054ZM96.0671 77.7054H97.1022V72.7676H98.838V71.8936H94.3272V72.7676H96.0671V77.7054ZM99.7159 77.7054H100.755V75.1841H103.582V77.7054H104.617V71.8936H103.582V74.3102H100.755V71.8936H99.7159V77.7054ZM109.112 77.7899C109.313 77.7899 109.49 77.7698 109.607 77.7537V77.0005C109.539 77.0046 109.462 77.0167 109.366 77.0167C108.999 77.0167 108.814 76.8837 108.814 76.4649V74.2095H109.607V73.4362H108.814V72.3528H107.795V73.4362H107.191V74.2095H107.795V76.5495C107.795 77.4275 108.218 77.7899 109.112 77.7899ZM112.269 77.7899C113.522 77.7899 114.335 76.9562 114.335 75.5708V75.5627C114.335 74.1853 113.51 73.3476 112.265 73.3476C111.025 73.3476 110.203 74.1934 110.203 75.5627V75.5708C110.203 76.9522 111.013 77.7899 112.269 77.7899ZM112.273 76.9804C111.633 76.9804 111.226 76.4689 111.226 75.5708V75.5627C111.226 74.6767 111.641 74.1611 112.265 74.1611C112.902 74.1611 113.312 74.6726 113.312 75.5627V75.5708C113.312 76.4649 112.906 76.9804 112.273 76.9804ZM117.062 77.7054H118.101V75.8326L118.673 75.1519L120.481 77.7054H121.746L119.422 74.4592L121.568 71.8936H120.38L118.129 74.6203H118.101V71.8936H117.062V77.7054ZM123.965 77.7899C125.08 77.7899 125.709 77.1294 125.842 76.4729L125.854 76.4286H124.915L124.907 76.4568C124.81 76.7428 124.484 77.0086 123.985 77.0086C123.332 77.0086 122.922 76.5656 122.905 75.8165H125.894V75.4942C125.894 74.2054 125.137 73.3476 123.916 73.3476C122.696 73.3476 121.911 74.2336 121.911 75.5788V75.5829C121.911 76.9401 122.684 77.7899 123.965 77.7899ZM123.928 74.1329C124.46 74.1329 124.847 74.4713 124.919 75.1479H122.918C122.998 74.4914 123.397 74.1329 123.928 74.1329ZM126.707 77.7054H127.71V75.2284C127.71 74.6122 128.077 74.1934 128.653 74.1934C129.224 74.1934 129.506 74.5357 129.506 75.1439V77.7054H130.509V74.9425C130.509 73.9517 129.974 73.3476 129.035 73.3476C128.387 73.3476 127.952 73.6456 127.73 74.1048H127.71V73.4362H126.707V77.7054ZM131.48 77.7054H132.483V75.2284C132.483 74.6122 132.849 74.1934 133.425 74.1934C133.997 74.1934 134.279 74.5357 134.279 75.1439V77.7054H135.282V74.9425C135.282 73.9517 134.746 73.3476 133.808 73.3476C133.159 73.3476 132.724 73.6456 132.503 74.1048H132.483V73.4362H131.48V77.7054ZM136.808 79.1231C137.698 79.1231 138.198 78.7888 138.524 77.8504L140.058 73.4362H139.003L138 76.8515H137.972L136.973 73.4362H135.878L137.412 77.7094L137.352 77.8826C137.223 78.241 137.009 78.3498 136.627 78.3498C136.486 78.3498 136.369 78.3296 136.292 78.3135V79.0788C136.413 79.0989 136.615 79.1231 136.808 79.1231ZM143.341 77.8061C144.931 77.8061 145.874 76.8596 145.874 75.2808V74.6525H143.417V75.462H144.859L144.855 75.5506C144.835 76.3642 144.231 76.9039 143.353 76.9039C142.305 76.9039 141.649 76.1024 141.649 74.7693V74.7653C141.649 73.4603 142.277 72.6951 143.324 72.6951C144.037 72.6951 144.541 73.0576 144.762 73.6819L144.774 73.7262H145.83L145.813 73.6617C145.592 72.5904 144.698 71.7929 143.32 71.7929C141.645 71.7929 140.59 72.9287 140.59 74.7733V74.7773C140.59 76.6542 141.645 77.8061 143.341 77.8061Z" fill="white"/>
<path d="M10.1182 103.288C10.1182 99.1006 13.5127 95.7061 17.7 95.7061H124.153C131.132 95.7061 136.79 101.364 136.79 108.343V117.242C136.79 124.221 131.132 129.878 124.153 129.878H17.7C13.5127 129.878 10.1182 126.484 10.1182 122.296V103.288Z" fill="#F5F5F5"/>
<path d="M21.9925 109.695C23.5673 109.695 24.4977 108.756 24.4977 107.181V106.585H22.0811V107.322H23.6076V107.419C23.5955 108.301 22.943 108.897 22.0006 108.897C20.893 108.897 20.2003 108.051 20.2003 106.662V106.658C20.2003 105.296 20.8729 104.487 21.9845 104.487C22.7417 104.487 23.2693 104.878 23.5149 105.55L23.527 105.594H24.4534L24.4373 105.522C24.1956 104.475 23.3418 103.689 21.9805 103.689C20.3292 103.689 19.282 104.829 19.282 106.662V106.666C19.282 108.535 20.3292 109.695 21.9925 109.695ZM27.2604 109.682C28.4727 109.682 29.2701 108.845 29.2701 107.479V107.471C29.2701 106.114 28.4646 105.28 27.2564 105.28C26.0521 105.28 25.2507 106.118 25.2507 107.471V107.479C25.2507 108.841 26.0441 109.682 27.2604 109.682ZM27.2644 108.953C26.5838 108.953 26.1407 108.418 26.1407 107.479V107.471C26.1407 106.545 26.5878 106.009 27.2564 106.009C27.937 106.009 28.38 106.545 28.38 107.471V107.479C28.38 108.414 27.9451 108.953 27.2644 108.953ZM31.5939 109.682C31.7711 109.682 31.9362 109.662 32.0369 109.646V108.974C31.9724 108.982 31.8959 108.99 31.8033 108.99C31.4368 108.99 31.2435 108.861 31.2435 108.43V106.054H32.0369V105.361H31.2435V104.257H30.3534V105.361H29.7452V106.054H30.3534V108.482C30.3534 109.328 30.7561 109.682 31.5939 109.682ZM35.2344 104.708C35.5204 104.708 35.7419 104.483 35.7419 104.209C35.7419 103.931 35.5204 103.706 35.2344 103.706C34.9525 103.706 34.727 103.931 34.727 104.209C34.727 104.483 34.9525 104.708 35.2344 104.708ZM34.7994 109.598H35.6694V105.361H34.7994V109.598ZM38.2187 109.682C38.3959 109.682 38.561 109.662 38.6617 109.646V108.974C38.5973 108.982 38.5207 108.99 38.4281 108.99C38.0616 108.99 37.8683 108.861 37.8683 108.43V106.054H38.6617V105.361H37.8683V104.257H36.9782V105.361H36.37V106.054H36.9782V108.482C36.9782 109.328 37.3809 109.682 38.2187 109.682ZM40.043 109.658C40.337 109.658 40.5706 109.425 40.5706 109.131C40.5706 108.833 40.337 108.603 40.043 108.603C39.7449 108.603 39.5113 108.833 39.5113 109.131C39.5113 109.425 39.7449 109.658 40.043 109.658ZM43.0754 109.598H43.9775V107.612H45.2382C46.378 107.612 47.1674 106.835 47.1674 105.699V105.691C47.1674 104.551 46.378 103.786 45.2382 103.786H43.0754V109.598ZM45.0126 104.547C45.798 104.547 46.2491 104.97 46.2491 105.695V105.703C46.2491 106.432 45.798 106.855 45.0126 106.855H43.9775V104.547H45.0126ZM48.0492 109.598H48.9192V103.786H48.0492V109.598ZM51.7866 109.682C52.8136 109.682 53.4661 109.07 53.603 108.398L53.6111 108.353H52.7854L52.7734 108.386C52.6646 108.704 52.3223 108.97 51.8068 108.97C51.114 108.97 50.675 108.502 50.6589 107.701H53.6594V107.407C53.6594 106.134 52.9304 105.28 51.7423 105.28C50.5542 105.28 49.789 106.166 49.789 107.491V107.495C49.789 108.833 50.5421 109.682 51.7866 109.682ZM51.7463 105.993C52.3142 105.993 52.725 106.352 52.7975 107.085H50.671C50.7475 106.376 51.1825 105.993 51.7463 105.993ZM55.7455 109.674C56.3053 109.674 56.7967 109.384 57.0424 108.929H57.0585V109.598H57.9325V106.678C57.9325 105.828 57.276 105.28 56.2409 105.28C55.1978 105.28 54.5655 105.84 54.505 106.569L54.501 106.613H55.3226L55.3307 106.577C55.4032 106.239 55.7133 106.001 56.2167 106.001C56.7564 106.001 57.0585 106.283 57.0585 106.75V107.069L55.9066 107.137C54.9038 107.197 54.3319 107.649 54.3319 108.386V108.394C54.3319 109.155 54.8997 109.674 55.7455 109.674ZM55.2099 108.373V108.365C55.2099 108.007 55.4998 107.777 56.0234 107.745L57.0585 107.681V108.011C57.0585 108.563 56.5953 108.978 55.9831 108.978C55.5159 108.978 55.2099 108.744 55.2099 108.373ZM60.5301 109.682C61.5289 109.682 62.2538 109.151 62.2538 108.378V108.373C62.2538 107.765 61.9236 107.423 61.0577 107.222L60.369 107.065C59.9139 106.956 59.7407 106.779 59.7407 106.517V106.513C59.7407 106.174 60.0347 105.953 60.5019 105.953C60.9932 105.953 61.2832 106.211 61.3356 106.581L61.3396 106.609H62.1572L62.1532 106.561C62.1089 105.84 61.5047 105.28 60.5019 105.28C59.5272 105.28 58.8667 105.8 58.8667 106.557V106.561C58.8667 107.177 59.2654 107.564 60.0709 107.749L60.7637 107.906C61.2188 108.015 61.3718 108.172 61.3718 108.446V108.45C61.3718 108.792 61.0577 109.01 60.5341 109.01C59.9984 109.01 59.7084 108.78 59.6279 108.39L59.6198 108.349H58.758L58.762 108.386C58.8506 109.159 59.4708 109.682 60.5301 109.682ZM64.9038 109.682C65.9308 109.682 66.5833 109.07 66.7202 108.398L66.7283 108.353H65.9026L65.8905 108.386C65.7818 108.704 65.4395 108.97 64.9239 108.97C64.2312 108.97 63.7922 108.502 63.7761 107.701H66.7766V107.407C66.7766 106.134 66.0476 105.28 64.8595 105.28C63.6714 105.28 62.9061 106.166 62.9061 107.491V107.495C62.9061 108.833 63.6593 109.682 64.9038 109.682ZM64.8635 105.993C65.4314 105.993 65.8422 106.352 65.9147 107.085H63.7882C63.8647 106.376 64.2997 105.993 64.8635 105.993ZM71.267 109.682C72.294 109.682 72.9465 109.07 73.0834 108.398L73.0915 108.353H72.2658L72.2537 108.386C72.145 108.704 71.8026 108.97 71.2871 108.97C70.5944 108.97 70.1554 108.502 70.1393 107.701H73.1398V107.407C73.1398 106.134 72.4108 105.28 71.2227 105.28C70.0346 105.28 69.2693 106.166 69.2693 107.491V107.495C69.2693 108.833 70.0225 109.682 71.267 109.682ZM71.2267 105.993C71.7946 105.993 72.2054 106.352 72.2779 107.085H70.1514C70.2279 106.376 70.6628 105.993 71.2267 105.993ZM73.9814 109.598H74.8513V107.129C74.8513 106.468 75.246 106.025 75.8582 106.025C76.4623 106.025 76.7604 106.384 76.7604 107.02V109.598H77.6343V106.855C77.6343 105.88 77.0987 105.28 76.1683 105.28C75.5279 105.28 75.093 105.57 74.8715 106.001H74.8513V105.361H73.9814V109.598ZM80.1272 109.682C80.3044 109.682 80.4696 109.662 80.5703 109.646V108.974C80.5058 108.982 80.4293 108.99 80.3367 108.99C79.9702 108.99 79.7768 108.861 79.7768 108.43V106.054H80.5703V105.361H79.7768V104.257H78.8868V105.361H78.2786V106.054H78.8868V108.482C78.8868 109.328 79.2895 109.682 80.1272 109.682ZM83.1598 109.682C84.1868 109.682 84.8393 109.07 84.9762 108.398L84.9843 108.353H84.1586L84.1465 108.386C84.0378 108.704 83.6955 108.97 83.1799 108.97C82.4872 108.97 82.0482 108.502 82.0321 107.701H85.0326V107.407C85.0326 106.134 84.3036 105.28 83.1155 105.28C81.9274 105.28 81.1621 106.166 81.1621 107.491V107.495C81.1621 108.833 81.9153 109.682 83.1598 109.682ZM83.1195 105.993C83.6874 105.993 84.0982 106.352 84.1707 107.085H82.0442C82.1207 106.376 82.5557 105.993 83.1195 105.993ZM85.8742 109.598H86.7441V107.073C86.7441 106.44 87.0905 106.074 87.6503 106.074C87.8195 106.074 87.9725 106.094 88.041 106.122V105.313C87.9725 105.3 87.8638 105.28 87.7389 105.28C87.2556 105.28 86.9012 105.59 86.7643 106.086H86.7441V105.361H85.8742V109.598ZM91.0855 111.012C91.9152 111.012 92.3582 110.673 92.6724 109.795L94.2511 105.361H93.3329L92.2656 108.808H92.2374L91.1701 105.361H90.2276L91.7702 109.602L91.6977 109.803C91.5527 110.214 91.3272 110.323 90.9163 110.323C90.7995 110.323 90.6989 110.307 90.6304 110.291V110.971C90.7351 110.991 90.9163 111.012 91.0855 111.012ZM96.5829 109.682C97.7952 109.682 98.5927 108.845 98.5927 107.479V107.471C98.5927 106.114 97.7872 105.28 96.5789 105.28C95.3747 105.28 94.5732 106.118 94.5732 107.471V107.479C94.5732 108.841 95.3666 109.682 96.5829 109.682ZM96.587 108.953C95.9063 108.953 95.4633 108.418 95.4633 107.479V107.471C95.4633 106.545 95.9103 106.009 96.5789 106.009C97.2596 106.009 97.7026 106.545 97.7026 107.471V107.479C97.7026 108.414 97.2676 108.953 96.587 108.953ZM100.872 109.682C101.516 109.682 101.947 109.388 102.169 108.962H102.189V109.598H103.063V105.361H102.189V107.834C102.189 108.494 101.794 108.933 101.182 108.933C100.578 108.933 100.28 108.579 100.28 107.939V105.361H99.4101V108.108C99.4101 109.082 99.9417 109.682 100.872 109.682ZM104.09 109.598H104.96V107.073C104.96 106.44 105.306 106.074 105.866 106.074C106.035 106.074 106.188 106.094 106.257 106.122V105.313C106.188 105.3 106.08 105.28 105.955 105.28C105.471 105.28 105.117 105.59 104.98 106.086H104.96V105.361H104.09V109.598ZM19.3867 122.007H20.2567V119.885H20.2768C20.5265 120.376 21.0138 120.682 21.614 120.682C22.6772 120.682 23.374 119.833 23.374 118.483V118.479C23.374 117.126 22.6812 116.28 21.6019 116.28C20.9977 116.28 20.5305 116.586 20.2768 117.09H20.2567V116.361H19.3867V122.007ZM21.3763 119.933C20.7198 119.933 20.2526 119.361 20.2526 118.483V118.479C20.2526 117.597 20.7158 117.025 21.3763 117.025C22.057 117.025 22.4879 117.577 22.4879 118.479V118.483C22.4879 119.378 22.061 119.933 21.3763 119.933ZM25.4601 120.674C26.0199 120.674 26.5113 120.384 26.7569 119.929H26.7731V120.598H27.647V117.678C27.647 116.828 26.9905 116.28 25.9555 116.28C24.9123 116.28 24.28 116.84 24.2196 117.569L24.2156 117.613H25.0372L25.0452 117.577C25.1177 117.239 25.4279 117.001 25.9313 117.001C26.471 117.001 26.7731 117.283 26.7731 117.75V118.069L25.6212 118.137C24.6183 118.197 24.0464 118.649 24.0464 119.386V119.394C24.0464 120.155 24.6143 120.674 25.4601 120.674ZM24.9244 119.373V119.365C24.9244 119.007 25.2144 118.777 25.738 118.745L26.7731 118.681V119.011C26.7731 119.563 26.3099 119.978 25.6977 119.978C25.2305 119.978 24.9244 119.744 24.9244 119.373ZM30.2446 120.682C31.2435 120.682 31.9684 120.151 31.9684 119.378V119.373C31.9684 118.765 31.6382 118.423 30.7722 118.222L30.0835 118.065C29.6284 117.956 29.4552 117.779 29.4552 117.517V117.513C29.4552 117.174 29.7492 116.953 30.2164 116.953C30.7078 116.953 30.9978 117.211 31.0501 117.581L31.0542 117.609H31.8718L31.8677 117.561C31.8234 116.84 31.2193 116.28 30.2164 116.28C29.2418 116.28 28.5813 116.8 28.5813 117.557V117.561C28.5813 118.177 28.98 118.564 29.7855 118.749L30.4782 118.906C30.9333 119.015 31.0864 119.172 31.0864 119.446V119.45C31.0864 119.792 30.7722 120.01 30.2487 120.01C29.713 120.01 29.423 119.78 29.3425 119.39L29.3344 119.349H28.4725L28.4765 119.386C28.5651 120.159 29.1854 120.682 30.2446 120.682ZM34.3969 120.682C35.3957 120.682 36.1206 120.151 36.1206 119.378V119.373C36.1206 118.765 35.7904 118.423 34.9245 118.222L34.2358 118.065C33.7806 117.956 33.6075 117.779 33.6075 117.517V117.513C33.6075 117.174 33.9015 116.953 34.3687 116.953C34.86 116.953 35.15 117.211 35.2024 117.581L35.2064 117.609H36.024L36.02 117.561C35.9756 116.84 35.3715 116.28 34.3687 116.28C33.394 116.28 32.7335 116.8 32.7335 117.557V117.561C32.7335 118.177 33.1322 118.564 33.9377 118.749L34.6305 118.906C35.0856 119.015 35.2386 119.172 35.2386 119.446V119.45C35.2386 119.792 34.9245 120.01 34.4009 120.01C33.8652 120.01 33.5752 119.78 33.4947 119.39L33.4866 119.349H32.6247L32.6288 119.386C32.7174 120.159 33.3376 120.682 34.3969 120.682ZM38.7827 120.682C39.8016 120.682 40.5105 120.03 40.6031 119.18L40.6071 119.152H39.7694L39.7654 119.184C39.6607 119.643 39.3183 119.953 38.7827 119.953C38.1101 119.953 37.663 119.41 37.663 118.483V118.479C37.663 117.573 38.102 117.009 38.7786 117.009C39.3465 117.009 39.6687 117.36 39.7614 117.775L39.7694 117.807H40.5991L40.5951 117.779C40.5226 116.981 39.8621 116.28 38.7706 116.28C37.5623 116.28 36.7729 117.13 36.7729 118.471V118.475C36.7729 119.833 37.5462 120.682 38.7827 120.682ZM43.2088 120.682C44.4211 120.682 45.2185 119.845 45.2185 118.479V118.471C45.2185 117.114 44.413 116.28 43.2047 116.28C42.0005 116.28 41.199 117.118 41.199 118.471V118.479C41.199 119.841 41.9925 120.682 43.2088 120.682ZM43.2128 119.953C42.5321 119.953 42.0891 119.418 42.0891 118.479V118.471C42.0891 117.545 42.5362 117.009 43.2047 117.009C43.8854 117.009 44.3284 117.545 44.3284 118.471V118.479C44.3284 119.414 43.8935 119.953 43.2128 119.953ZM47.6389 120.682C48.2471 120.682 48.7143 120.376 48.968 119.881H48.9841V120.598H49.8581V114.786H48.9841V117.082H48.968C48.7143 116.582 48.2309 116.28 47.6308 116.28C46.5676 116.28 45.8668 117.126 45.8668 118.475V118.479C45.8668 119.829 46.5595 120.682 47.6389 120.682ZM47.8685 119.933C47.1798 119.933 46.7569 119.382 46.7569 118.479V118.475C46.7569 117.581 47.1838 117.025 47.8685 117.025C48.5209 117.025 48.9881 117.597 48.9881 118.475V118.479C48.9881 119.361 48.525 119.933 47.8685 119.933ZM52.7255 120.682C53.7525 120.682 54.405 120.07 54.5419 119.398L54.55 119.353H53.7243L53.7123 119.386C53.6035 119.704 53.2612 119.97 52.7456 119.97C52.0529 119.97 51.6139 119.502 51.5978 118.701H54.5983V118.407C54.5983 117.134 53.8693 116.28 52.6812 116.28C51.4931 116.28 50.7279 117.166 50.7279 118.491V118.495C50.7279 119.833 51.481 120.682 52.7255 120.682ZM52.6852 116.993C53.2531 116.993 53.6639 117.352 53.7364 118.085H51.6099C51.6864 117.376 52.1214 116.993 52.6852 116.993ZM58.7665 120.682C58.9437 120.682 59.1088 120.662 59.2095 120.646V119.974C59.1451 119.982 59.0686 119.99 58.9759 119.99C58.6094 119.99 58.4161 119.861 58.4161 119.43V117.054H59.2095V116.361H58.4161V115.257H57.526V116.361H56.9179V117.054H57.526V119.482C57.526 120.328 57.9288 120.682 58.7665 120.682ZM61.8111 120.682C63.0234 120.682 63.8209 119.845 63.8209 118.479V118.471C63.8209 117.114 63.0154 116.28 61.8071 116.28C60.6029 116.28 59.8014 117.118 59.8014 118.471V118.479C59.8014 119.841 60.5948 120.682 61.8111 120.682ZM61.8152 119.953C61.1345 119.953 60.6915 119.418 60.6915 118.479V118.471C60.6915 117.545 61.1385 117.009 61.8071 117.009C62.4878 117.009 62.9308 117.545 62.9308 118.471V118.479C62.9308 119.414 62.4958 119.953 61.8152 119.953ZM66.4989 122.007H67.3688V119.885H67.389C67.6387 120.376 68.126 120.682 68.7261 120.682C69.7894 120.682 70.4861 119.833 70.4861 118.483V118.479C70.4861 117.126 69.7934 116.28 68.714 116.28C68.1099 116.28 67.6427 116.586 67.389 117.09H67.3688V116.361H66.4989V122.007ZM68.4885 119.933C67.832 119.933 67.3648 119.361 67.3648 118.483V118.479C67.3648 117.597 67.828 117.025 68.4885 117.025C69.1691 117.025 69.6001 117.577 69.6001 118.479V118.483C69.6001 119.378 69.1731 119.933 68.4885 119.933ZM71.3277 120.598H72.1977V118.073C72.1977 117.44 72.544 117.074 73.1039 117.074C73.273 117.074 73.4261 117.094 73.4945 117.122V116.313C73.4261 116.3 73.3173 116.28 73.1925 116.28C72.7092 116.28 72.3547 116.59 72.2178 117.086H72.1977V116.361H71.3277V120.598ZM75.8344 120.682C77.0467 120.682 77.8441 119.845 77.8441 118.479V118.471C77.8441 117.114 77.0386 116.28 75.8303 116.28C74.6261 116.28 73.8246 117.118 73.8246 118.471V118.479C73.8246 119.841 74.618 120.682 75.8344 120.682ZM75.8384 119.953C75.1577 119.953 74.7147 119.418 74.7147 118.479V118.471C74.7147 117.545 75.1618 117.009 75.8303 117.009C76.511 117.009 76.954 117.545 76.954 118.471V118.479C76.954 119.414 76.519 119.953 75.8384 119.953ZM80.5021 120.682C81.5211 120.682 82.2299 120.03 82.3226 119.18L82.3266 119.152H81.4889L81.4848 119.184C81.3801 119.643 81.0378 119.953 80.5021 119.953C79.8295 119.953 79.3825 119.41 79.3825 118.483V118.479C79.3825 117.573 79.8215 117.009 80.4981 117.009C81.066 117.009 81.3882 117.36 81.4808 117.775L81.4889 117.807H82.3185L82.3145 117.779C82.242 116.981 81.5815 116.28 80.49 116.28C79.2818 116.28 78.4924 117.13 78.4924 118.471V118.475C78.4924 119.833 79.2657 120.682 80.5021 120.682ZM84.9161 120.682C85.9431 120.682 86.5956 120.07 86.7325 119.398L86.7406 119.353H85.915L85.9029 119.386C85.7941 119.704 85.4518 119.97 84.9363 119.97C84.2435 119.97 83.8045 119.502 83.7884 118.701H86.7889V118.407C86.7889 117.134 86.0599 116.28 84.8718 116.28C83.6837 116.28 82.9185 117.166 82.9185 118.491V118.495C82.9185 119.833 83.6716 120.682 84.9161 120.682ZM84.8759 116.993C85.4437 116.993 85.8545 117.352 85.927 118.085H83.8005C83.877 117.376 84.312 116.993 84.8759 116.993ZM89.4389 120.682C90.4659 120.682 91.1184 120.07 91.2553 119.398L91.2634 119.353H90.4377L90.4256 119.386C90.3169 119.704 89.9745 119.97 89.459 119.97C88.7663 119.97 88.3273 119.502 88.3112 118.701H91.3117V118.407C91.3117 117.134 90.5827 116.28 89.3946 116.28C88.2065 116.28 87.4412 117.166 87.4412 118.491V118.495C87.4412 119.833 88.1944 120.682 89.4389 120.682ZM89.3986 116.993C89.9665 116.993 90.3773 117.352 90.4498 118.085H88.3233C88.3998 117.376 88.8348 116.993 89.3986 116.993ZM93.7361 120.682C94.3443 120.682 94.8115 120.376 95.0652 119.881H95.0813V120.598H95.9553V114.786H95.0813V117.082H95.0652C94.8115 116.582 94.3281 116.28 93.728 116.28C92.6648 116.28 91.964 117.126 91.964 118.475V118.479C91.964 119.829 92.6567 120.682 93.7361 120.682ZM93.9657 119.933C93.277 119.933 92.8541 119.382 92.8541 118.479V118.475C92.8541 117.581 93.281 117.025 93.9657 117.025C94.6181 117.025 95.0853 117.597 95.0853 118.475V118.479C95.0853 119.361 94.6222 119.933 93.9657 119.933ZM97.5097 120.658C97.8037 120.658 98.0373 120.425 98.0373 120.131C98.0373 119.833 97.8037 119.603 97.5097 119.603C97.2117 119.603 96.9781 119.833 96.9781 120.131C96.9781 120.425 97.2117 120.658 97.5097 120.658Z" fill="black"/>
<rect x="107.222" y="139.987" width="48.6751" height="21.7834" rx="10.8917" fill="#5ADFEC"/>
<path d="M117.506 150.898H118.17L118.126 149.992L118.851 150.468L119.193 149.944L118.368 149.505L119.193 149.07L118.855 148.546L118.126 149.022L118.17 148.119H117.506L117.55 149.022L116.825 148.546L116.483 149.07L117.312 149.509L116.483 149.948L116.825 150.472L117.55 149.996L117.506 150.898ZM121.312 150.898H121.976L121.932 149.992L122.657 150.468L122.999 149.944L122.174 149.505L122.999 149.07L122.661 148.546L121.932 149.022L121.976 148.119H121.312L121.356 149.022L120.631 148.546L120.289 149.07L121.118 149.509L120.289 149.948L120.631 150.472L121.356 149.996L121.312 150.898ZM125.118 150.898H125.782L125.738 149.992L126.463 150.468L126.805 149.944L125.979 149.505L126.805 149.07L126.467 148.546L125.738 149.022L125.782 148.119H125.118L125.162 149.022L124.437 148.546L124.095 149.07L124.924 149.509L124.095 149.948L124.437 150.472L125.162 149.996L125.118 150.898ZM128.923 150.898H129.588L129.544 149.992L130.269 150.468L130.611 149.944L129.785 149.505L130.611 149.07L130.273 148.546L129.544 149.022L129.588 148.119H128.923L128.968 149.022L128.243 148.546L127.9 149.07L128.73 149.509L127.9 149.948L128.243 150.472L128.968 149.996L128.923 150.898ZM132.729 150.898H133.394L133.349 149.992L134.074 150.468L134.417 149.944L133.591 149.505L134.417 149.07L134.078 148.546L133.349 149.022L133.394 148.119H132.729L132.774 149.022L132.049 148.546L131.706 149.07L132.536 149.509L131.706 149.948L132.049 150.472L132.774 149.996L132.729 150.898ZM136.535 150.898H137.2L137.155 149.992L137.88 150.468L138.223 149.944L137.397 149.505L138.223 149.07L137.884 148.546L137.155 149.022L137.2 148.119H136.535L136.579 149.022L135.854 148.546L135.512 149.07L136.342 149.509L135.512 149.948L135.854 150.472L136.579 149.996L136.535 150.898ZM140.341 150.898H141.005L140.961 149.992L141.686 150.468L142.028 149.944L141.203 149.505L142.028 149.07L141.69 148.546L140.961 149.022L141.005 148.119H140.341L140.385 149.022L139.66 148.546L139.318 149.07L140.148 149.509L139.318 149.948L139.66 150.472L140.385 149.996L140.341 150.898ZM144.147 150.898H144.811L144.767 149.992L145.492 150.468L145.834 149.944L145.009 149.505L145.834 149.07L145.496 148.546L144.767 149.022L144.811 148.119H144.147L144.191 149.022L143.466 148.546L143.124 149.07L143.953 149.509L143.124 149.948L143.466 150.472L144.191 149.996L144.147 150.898Z" fill="white"/>
<path d="M10.1182 179.461C10.1182 175.274 13.5127 171.88 17.7 171.88H115C121.979 171.88 127.636 177.537 127.636 184.516V194.205C127.636 201.184 121.979 206.841 115 206.841H17.7C13.5127 206.841 10.1182 203.447 10.1182 199.26V179.461Z" fill="#F5F5F5"/>
<path d="M21.1064 185.771H22.0086V183.391L24.0586 179.96H23.0557L21.5736 182.525H21.5454L20.0633 179.96H19.0604L21.1064 183.391V185.771ZM25.7701 185.856C26.9824 185.856 27.7799 185.018 27.7799 183.653V183.645C27.7799 182.288 26.9744 181.454 25.7661 181.454C24.5619 181.454 23.7604 182.292 23.7604 183.645V183.653C23.7604 185.014 24.5538 185.856 25.7701 185.856ZM25.7742 185.127C25.0935 185.127 24.6505 184.591 24.6505 183.653V183.645C24.6505 182.718 25.0975 182.183 25.7661 182.183C26.4468 182.183 26.8898 182.718 26.8898 183.645V183.653C26.8898 184.587 26.4548 185.127 25.7742 185.127ZM30.0593 185.856C30.7037 185.856 31.1347 185.562 31.3562 185.135H31.3763V185.771H32.2503V181.534H31.3763V184.007C31.3763 184.668 30.9816 185.107 30.3694 185.107C29.7653 185.107 29.4673 184.752 29.4673 184.112V181.534H28.5973V184.281C28.5973 185.256 29.1289 185.856 30.0593 185.856ZM35.1498 185.771H36.0197V183.319C36.0197 182.658 36.4185 182.199 37.0186 182.199C37.6307 182.199 37.9852 182.618 37.9852 183.319V185.771H38.8551V183.153C38.8551 182.13 38.259 181.454 37.3528 181.454C36.7205 181.454 36.2654 181.74 36.0399 182.231H36.0197V179.96H35.1498V185.771ZM41.1104 185.848C41.6702 185.848 42.1616 185.558 42.4072 185.103H42.4233V185.771H43.2973V182.851C43.2973 182.002 42.6408 181.454 41.6058 181.454C40.5626 181.454 39.9303 182.014 39.8699 182.743L39.8659 182.787H40.6875L40.6955 182.751C40.768 182.412 41.0781 182.175 41.5816 182.175C42.1213 182.175 42.4233 182.457 42.4233 182.924V183.242L41.2715 183.31C40.2686 183.371 39.6967 183.822 39.6967 184.559V184.567C39.6967 185.328 40.2646 185.848 41.1104 185.848ZM40.5747 184.547V184.539C40.5747 184.18 40.8647 183.951 41.3883 183.919L42.4233 183.854V184.184C42.4233 184.736 41.9602 185.151 41.348 185.151C40.8808 185.151 40.5747 184.917 40.5747 184.547ZM45.464 185.771H46.3984L47.9167 181.534H47.0105L45.9473 184.922H45.9271L44.8639 181.534H43.9375L45.464 185.771ZM50.2284 185.856C51.2554 185.856 51.9079 185.244 52.0448 184.571L52.0529 184.527H51.2272L51.2151 184.559C51.1064 184.877 50.764 185.143 50.2485 185.143C49.5558 185.143 49.1168 184.676 49.1007 183.874H52.1012V183.58C52.1012 182.308 51.3722 181.454 50.1841 181.454C48.996 181.454 48.2307 182.34 48.2307 183.665V183.669C48.2307 185.006 48.9839 185.856 50.2284 185.856ZM50.1881 182.167C50.756 182.167 51.1668 182.525 51.2393 183.258H49.1128C49.1893 182.549 49.6243 182.167 50.1881 182.167ZM56.37 185.856C57.3689 185.856 58.0938 185.324 58.0938 184.551V184.547C58.0938 183.939 57.7636 183.596 56.8977 183.395L56.2089 183.238C55.7538 183.129 55.5807 182.952 55.5807 182.69V182.686C55.5807 182.348 55.8747 182.126 56.3419 182.126C56.8332 182.126 57.1232 182.384 57.1756 182.755L57.1796 182.783H57.9972L57.9931 182.735C57.9488 182.014 57.3447 181.454 56.3419 181.454C55.3672 181.454 54.7067 181.973 54.7067 182.731V182.735C54.7067 183.351 55.1054 183.737 55.9109 183.923L56.6036 184.08C57.0588 184.188 57.2118 184.346 57.2118 184.619V184.623C57.2118 184.966 56.8977 185.183 56.3741 185.183C55.8384 185.183 55.5484 184.954 55.4679 184.563L55.4598 184.523H54.5979L54.602 184.559C54.6906 185.332 55.3108 185.856 56.37 185.856ZM60.7438 185.856C61.7708 185.856 62.4233 185.244 62.5602 184.571L62.5683 184.527H61.7426L61.7305 184.559C61.6218 184.877 61.2794 185.143 60.7639 185.143C60.0712 185.143 59.6322 184.676 59.6161 183.874H62.6166V183.58C62.6166 182.308 61.8876 181.454 60.6995 181.454C59.5114 181.454 58.7461 182.34 58.7461 183.665V183.669C58.7461 185.006 59.4993 185.856 60.7438 185.856ZM60.7035 182.167C61.2714 182.167 61.6822 182.525 61.7547 183.258H59.6282C59.7047 182.549 60.1397 182.167 60.7035 182.167ZM63.4582 185.771H64.3281V183.302C64.3281 182.642 64.7228 182.199 65.335 182.199C65.9391 182.199 66.2372 182.557 66.2372 183.194V185.771H67.1112V183.029C67.1112 182.054 66.5755 181.454 65.6451 181.454C65.0048 181.454 64.5698 181.744 64.3483 182.175H64.3281V181.534H63.4582V185.771ZM69.604 185.856C69.7812 185.856 69.9464 185.836 70.0471 185.82V185.147C69.9826 185.155 69.9061 185.163 69.8135 185.163C69.447 185.163 69.2536 185.034 69.2536 184.603V182.227H70.0471V181.534H69.2536V180.431H68.3636V181.534H67.7554V182.227H68.3636V184.656C68.3636 185.501 68.7663 185.856 69.604 185.856ZM74.2636 185.771H75.1456V179.96H74.2555L72.725 181.047V181.901L74.2434 180.854H74.2636V185.771ZM78.6533 185.771H82.3425V184.994H79.5554V183.19H82.1935V182.432H79.5554V180.737H82.3425V179.96H78.6533V185.771ZM84.8756 185.771H85.7778V180.737H87.5539V179.96H83.0955V180.737H84.8756V185.771ZM88.4559 185.771H89.3581V183.198H92.3425V185.771H93.2447V179.96H92.3425V182.416H89.3581V179.96H88.4559V185.771ZM97.6988 185.856C97.876 185.856 98.0412 185.836 98.1418 185.82V185.147C98.0774 185.155 98.0009 185.163 97.9082 185.163C97.5417 185.163 97.3484 185.034 97.3484 184.603V182.227H98.1418V181.534H97.3484V180.431H96.4583V181.534H95.8502V182.227H96.4583V184.656C96.4583 185.501 96.8611 185.856 97.6988 185.856ZM100.743 185.856C101.956 185.856 102.753 185.018 102.753 183.653V183.645C102.753 182.288 101.948 181.454 100.739 181.454C99.5352 181.454 98.7337 182.292 98.7337 183.645V183.653C98.7337 185.014 99.5271 185.856 100.743 185.856ZM100.747 185.127C100.067 185.127 99.6238 184.591 99.6238 183.653V183.645C99.6238 182.718 100.071 182.183 100.739 182.183C101.42 182.183 101.863 182.718 101.863 183.645V183.653C101.863 184.587 101.428 185.127 100.747 185.127ZM19.4914 196.771H20.3935V194.83L20.9856 194.145L22.9067 196.771H24.0224L21.63 193.529L23.8331 190.96H22.7617L20.4177 193.743H20.3935V190.96H19.4914V196.771ZM26.2172 196.856C27.2442 196.856 27.8967 196.244 28.0336 195.571L28.0417 195.527H27.216L27.2039 195.559C27.0952 195.877 26.7529 196.143 26.2373 196.143C25.5446 196.143 25.1056 195.676 25.0895 194.874H28.09V194.58C28.09 193.308 27.361 192.454 26.1729 192.454C24.9848 192.454 24.2195 193.34 24.2195 194.665V194.669C24.2195 196.006 24.9727 196.856 26.2172 196.856ZM26.1769 193.167C26.7448 193.167 27.1556 193.525 27.2281 194.258H25.1016C25.1781 193.549 25.6131 193.167 26.1769 193.167ZM28.9316 196.771H29.8015V194.302C29.8015 193.642 30.1962 193.199 30.8084 193.199C31.4126 193.199 31.7106 193.557 31.7106 194.194V196.771H32.5846V194.029C32.5846 193.054 32.0489 192.454 31.1185 192.454C30.4782 192.454 30.0432 192.744 29.8217 193.175H29.8015V192.534H28.9316V196.771ZM33.5913 196.771H34.4612V194.302C34.4612 193.642 34.8559 193.199 35.4681 193.199C36.0722 193.199 36.3703 193.557 36.3703 194.194V196.771H37.2443V194.029C37.2443 193.054 36.7086 192.454 35.7782 192.454C35.1379 192.454 34.7029 192.744 34.4814 193.175H34.4612V192.534H33.5913V196.771ZM38.7423 198.185C39.572 198.185 40.015 197.847 40.3292 196.969L41.908 192.534H40.9897L39.9224 195.982H39.8942L38.8269 192.534H37.8845L39.427 196.775L39.3545 196.977C39.2095 197.388 38.984 197.496 38.5732 197.496C38.4564 197.496 38.3557 197.48 38.2872 197.464V198.145C38.3919 198.165 38.5732 198.185 38.7423 198.185ZM45.1862 196.868C46.761 196.868 47.6914 195.93 47.6914 194.355V193.759H45.2748V194.496H46.8013V194.592C46.7892 195.474 46.1367 196.071 45.1943 196.071C44.0867 196.071 43.394 195.225 43.394 193.835V193.831C43.394 192.47 44.0666 191.66 45.1782 191.66C45.9354 191.66 46.463 192.051 46.7086 192.724L46.7207 192.768H47.6471L47.6309 192.695C47.3893 191.648 46.5355 190.863 45.1742 190.863C43.5229 190.863 42.4757 192.003 42.4757 193.835V193.839C42.4757 195.708 43.5229 196.868 45.1862 196.868ZM49.129 196.832C49.423 196.832 49.6566 196.598 49.6566 196.304C49.6566 196.006 49.423 195.777 49.129 195.777C48.831 195.777 48.5974 196.006 48.5974 196.304C48.5974 196.598 48.831 196.832 49.129 196.832Z" fill="black"/>
</g>
<defs>
<filter id="filter0_d" x="0.6409" y="0" width="202.643" height="315.909" filterUnits="userSpaceOnUse" color-interpolation-filters="sRGB">
<feFlood flood-opacity="0" result="BackgroundImageFix"/>
<feColorMatrix in="SourceAlpha" type="matrix" values="0 0 0 0 0 0 0 0 0 0 0 0 0 0 0 0 0 0 127 0"/>
<feOffset dx="18.9545" dy="18.9545"/>
<feGaussianBlur stdDeviation="9.47727"/>
<feColorMatrix type="matrix" values="0 0 0 0 0.352941 0 0 0 0 0.87451 0 0 0 0 0.92549 0 0 0 0.08 0"/>
<feBlend mode="normal" in2="BackgroundImageFix" result="effect1_dropShadow"/>
<feBlend mode="normal" in="SourceGraphic" in2="effect1_dropShadow" result="shape"/>
</filter>
<linearGradient id="paint0_linear" x1="82.7773" y1="0" x2="82.7773" y2="278" gradientUnits="userSpaceOnUse">
<stop stop-color="white"/>
<stop offset="1" stop-color="white" stop-opacity="0.7"/>
</linearGradient>
<linearGradient id="paint1_linear" x1="82.9022" y1="0" x2="82.9022" y2="45.8931" gradientUnits="userSpaceOnUse">
<stop stop-color="white"/>
<stop offset="1" stop-color="white" stop-opacity="0.7"/>
</linearGradient>
</defs>
</svg>
