<svg width="42" height="37" viewBox="0 0 42 37" fill="none" xmlns="http://www.w3.org/2000/svg">
<path d="M15.874 28.7764C25.3057 28.7764 30.4658 21.081 30.4658 14.4096C30.4658 14.1933 30.4609 13.9721 30.4512 13.7558C31.455 13.041 32.3212 12.1557 33.0093 11.1414C32.0744 11.551 31.0818 11.8184 30.0654 11.9347C31.1356 11.3031 31.9369 10.3109 32.3208 9.14199C31.314 9.72945 30.213 10.1438 29.0649 10.3674C28.2914 9.55818 27.2686 9.02236 26.1548 8.84281C25.0409 8.66326 23.898 8.84999 22.9028 9.37412C21.9075 9.89825 21.1153 10.7306 20.6487 11.7425C20.1821 12.7543 20.067 13.8894 20.3213 14.9721C18.2827 14.8713 16.2884 14.3499 14.4676 13.4417C12.6468 12.5334 11.0402 11.2585 9.75195 9.69967C9.09719 10.8111 8.89684 12.1264 9.1916 13.3781C9.48637 14.6298 10.2541 15.724 11.3389 16.4384C10.5245 16.4129 9.728 16.197 9.01514 15.8086V15.8711C9.01441 17.0375 9.42396 18.1681 10.1742 19.0709C10.9244 19.9736 11.969 20.5926 13.1304 20.8228C12.376 21.026 11.5843 21.0556 10.8164 20.9093C11.1441 21.9125 11.7817 22.7898 12.6403 23.419C13.4988 24.0481 14.5354 24.3977 15.6055 24.4188C13.7889 25.8238 11.5449 26.5858 9.23486 26.5822C8.8252 26.5816 8.41594 26.5569 8.00928 26.5082C10.356 27.9905 13.0859 28.7778 15.874 28.7764Z" fill="#9DBBDD"/>
</svg>
