<svg width="40" height="41" viewBox="0 0 40 41" fill="none" xmlns="http://www.w3.org/2000/svg">
<path d="M20.0116 10.9377C23.2185 10.9377 23.5983 10.9518 24.8594 11.0081C26.0315 11.0596 26.6645 11.2565 27.0864 11.4206C27.6444 11.6363 28.0476 11.8989 28.4648 12.3161C28.8868 12.7381 29.1447 13.1366 29.3603 13.6945C29.5244 14.1165 29.7213 14.7541 29.7729 15.9215C29.8292 17.1874 29.8432 17.5671 29.8432 20.7693C29.8432 23.9762 29.8292 24.356 29.7729 25.6172C29.7213 26.7893 29.5244 27.4222 29.3603 27.8442C29.1447 28.4021 28.8821 28.8053 28.4648 29.2225C28.0429 29.6445 27.6444 29.9024 27.0864 30.118C26.6645 30.2821 26.0269 30.479 24.8594 30.5306C23.5936 30.5869 23.2138 30.6009 20.0116 30.6009C16.8047 30.6009 16.425 30.5869 15.1638 30.5306C13.9917 30.479 13.3588 30.2821 12.9368 30.118C12.3789 29.9024 11.9757 29.6398 11.5584 29.2225C11.1365 28.8006 10.8786 28.4021 10.6629 27.8442C10.4988 27.4222 10.3019 26.7846 10.2503 25.6172C10.1941 24.3513 10.18 23.9715 10.18 20.7693C10.18 17.5625 10.1941 17.1827 10.2503 15.9215C10.3019 14.7494 10.4988 14.1165 10.6629 13.6945C10.8786 13.1366 11.1411 12.7334 11.5584 12.3161C11.9804 11.8942 12.3789 11.6363 12.9368 11.4206C13.3588 11.2565 13.9964 11.0596 15.1638 11.0081C16.425 10.9518 16.8047 10.9377 20.0116 10.9377ZM20.0116 8.77637C16.7532 8.77637 16.3453 8.79043 15.0653 8.84669C13.7901 8.90295 12.9134 9.10924 12.1538 9.40461C11.3615 9.71405 10.6911 10.1219 10.0253 10.7924C9.35485 11.4581 8.94696 12.1286 8.63753 12.9162C8.34215 13.6805 8.13586 14.5525 8.0796 15.8277C8.02334 17.1124 8.00928 17.5203 8.00928 20.7787C8.00928 24.0372 8.02334 24.4451 8.0796 25.725C8.13586 27.0002 8.34215 27.877 8.63753 28.6365C8.94696 29.4288 9.35485 30.0993 10.0253 30.765C10.6911 31.4308 11.3615 31.8434 12.1491 32.1481C12.9134 32.4435 13.7854 32.6498 15.0607 32.706C16.3406 32.7623 16.7485 32.7764 20.0069 32.7764C23.2654 32.7764 23.6733 32.7623 24.9532 32.706C26.2285 32.6498 27.1052 32.4435 27.8647 32.1481C28.6524 31.8434 29.3228 31.4308 29.9886 30.765C30.6543 30.0993 31.0669 29.4288 31.3717 28.6412C31.667 27.877 31.8733 27.0049 31.9296 25.7297C31.9858 24.4497 31.9999 24.0419 31.9999 20.7834C31.9999 17.525 31.9858 17.1171 31.9296 15.8371C31.8733 14.5619 31.667 13.6851 31.3717 12.9256C31.0763 12.1286 30.6684 11.4581 29.9979 10.7924C29.3322 10.1266 28.6618 9.71405 27.8741 9.4093C27.1099 9.11393 26.2378 8.90764 24.9626 8.85138C23.678 8.79043 23.2701 8.77637 20.0116 8.77637Z" fill="#9DBBDD"/>
<path d="M20.0119 14.6133C16.6082 14.6133 13.8467 17.3748 13.8467 20.7785C13.8467 24.1823 16.6082 26.9438 20.0119 26.9438C23.4157 26.9438 26.1772 24.1823 26.1772 20.7785C26.1772 17.3748 23.4157 14.6133 20.0119 14.6133ZM20.0119 24.7778C17.8037 24.7778 16.0127 22.9868 16.0127 20.7785C16.0127 18.5703 17.8037 16.7793 20.0119 16.7793C22.2202 16.7793 24.0112 18.5703 24.0112 20.7785C24.0112 22.9868 22.2202 24.7778 20.0119 24.7778Z" fill="#9DBBDD"/>
<path d="M27.8596 14.3695C27.8596 15.1666 27.2126 15.8089 26.4203 15.8089C25.6233 15.8089 24.981 15.1619 24.981 14.3695C24.981 13.5725 25.628 12.9302 26.4203 12.9302C27.2126 12.9302 27.8596 13.5772 27.8596 14.3695Z" fill="#9DBBDD"/>
</svg>
