<svg width="50" height="51" viewBox="0 0 50 51" fill="none" xmlns="http://www.w3.org/2000/svg">
<path d="M25 48C37.4264 48 47.5 37.9264 47.5 25.5C47.5 13.0736 37.4264 3 25 3C12.5736 3 2.5 13.0736 2.5 25.5C2.5 37.9264 12.5736 48 25 48Z" fill="url(#paint0_linear)"/>
<path d="M11.0026 25.68C13.5602 24.2824 16.4151 23.1159 19.0826 21.9434C23.6718 20.023 28.2792 18.1358 32.9331 16.3789C33.8385 16.0796 35.4655 15.7869 35.625 17.1181C35.5376 19.0025 35.1783 20.8759 34.9318 22.7493C34.3062 26.8691 33.5831 30.9747 32.878 35.0809C32.635 36.4487 30.908 37.1567 29.803 36.2814C27.1473 34.5018 24.4712 32.7394 21.8495 30.9185C20.9907 30.0527 21.7871 28.8094 22.5541 28.1911C24.7413 26.0526 27.061 24.2356 29.134 21.9865C29.6931 20.6469 28.0409 21.7759 27.496 22.1218C24.5015 24.1691 21.5804 26.3413 18.4234 28.1405C16.8108 29.0212 14.9312 28.2686 13.3194 27.7772C11.8741 27.1835 9.75629 26.5854 11.0024 25.6802L11.0026 25.68Z" fill="white"/>
<defs>
<linearGradient id="paint0_linear" x1="32.515" y1="10.515" x2="21.265" y2="36.75" gradientUnits="userSpaceOnUse">
<stop stop-color="#37AEE2"/>
<stop offset="1" stop-color="#1E96C8"/>
</linearGradient>
</defs>
</svg>
