<svg width="269" height="104" viewBox="0 0 269 104" fill="none" xmlns="http://www.w3.org/2000/svg">
<rect y="5" width="28" height="20" rx="2" fill="white"/>
<mask id="mask0" mask-type="alpha" maskUnits="userSpaceOnUse" x="0" y="5" width="28" height="20">
<rect y="5" width="28" height="20" rx="2" fill="white"/>
</mask>
<g mask="url(#mask0)">
<path fill-rule="evenodd" clip-rule="evenodd" d="M28 5H0V6.33333H28V5ZM28 7.66667H0V9H28V7.66667ZM0 10.3333H28V11.6667H0V10.3333ZM28 13H0V14.3333H28V13ZM0 15.6667H28V17H0V15.6667ZM28 18.3333H0V19.6667H28V18.3333ZM0 21H28V22.3333H0V21ZM28 23.6667H0V25H28V23.6667Z" fill="#D02F44"/>
<rect y="5" width="12" height="9.33333" fill="#46467F"/>
<g filter="url(#filter0_d)">
<path fill-rule="evenodd" clip-rule="evenodd" d="M2.66683 7.00004C2.66683 7.36823 2.36835 7.66671 2.00016 7.66671C1.63197 7.66671 1.3335 7.36823 1.3335 7.00004C1.3335 6.63185 1.63197 6.33337 2.00016 6.33337C2.36835 6.33337 2.66683 6.63185 2.66683 7.00004ZM5.3335 7.00004C5.3335 7.36823 5.03502 7.66671 4.66683 7.66671C4.29864 7.66671 4.00016 7.36823 4.00016 7.00004C4.00016 6.63185 4.29864 6.33337 4.66683 6.33337C5.03502 6.33337 5.3335 6.63185 5.3335 7.00004ZM7.3335 7.66671C7.70169 7.66671 8.00016 7.36823 8.00016 7.00004C8.00016 6.63185 7.70169 6.33337 7.3335 6.33337C6.96531 6.33337 6.66683 6.63185 6.66683 7.00004C6.66683 7.36823 6.96531 7.66671 7.3335 7.66671ZM10.6668 7.00004C10.6668 7.36823 10.3684 7.66671 10.0002 7.66671C9.63197 7.66671 9.3335 7.36823 9.3335 7.00004C9.3335 6.63185 9.63197 6.33337 10.0002 6.33337C10.3684 6.33337 10.6668 6.63185 10.6668 7.00004ZM3.3335 9.00004C3.70169 9.00004 4.00016 8.70156 4.00016 8.33337C4.00016 7.96518 3.70169 7.66671 3.3335 7.66671C2.96531 7.66671 2.66683 7.96518 2.66683 8.33337C2.66683 8.70156 2.96531 9.00004 3.3335 9.00004ZM6.66683 8.33337C6.66683 8.70156 6.36835 9.00004 6.00016 9.00004C5.63197 9.00004 5.3335 8.70156 5.3335 8.33337C5.3335 7.96518 5.63197 7.66671 6.00016 7.66671C6.36835 7.66671 6.66683 7.96518 6.66683 8.33337ZM8.66683 9.00004C9.03502 9.00004 9.3335 8.70156 9.3335 8.33337C9.3335 7.96518 9.03502 7.66671 8.66683 7.66671C8.29864 7.66671 8.00016 7.96518 8.00016 8.33337C8.00016 8.70156 8.29864 9.00004 8.66683 9.00004ZM10.6668 9.66671C10.6668 10.0349 10.3684 10.3334 10.0002 10.3334C9.63197 10.3334 9.3335 10.0349 9.3335 9.66671C9.3335 9.29852 9.63197 9.00004 10.0002 9.00004C10.3684 9.00004 10.6668 9.29852 10.6668 9.66671ZM7.3335 10.3334C7.70169 10.3334 8.00016 10.0349 8.00016 9.66671C8.00016 9.29852 7.70169 9.00004 7.3335 9.00004C6.96531 9.00004 6.66683 9.29852 6.66683 9.66671C6.66683 10.0349 6.96531 10.3334 7.3335 10.3334ZM5.3335 9.66671C5.3335 10.0349 5.03502 10.3334 4.66683 10.3334C4.29864 10.3334 4.00016 10.0349 4.00016 9.66671C4.00016 9.29852 4.29864 9.00004 4.66683 9.00004C5.03502 9.00004 5.3335 9.29852 5.3335 9.66671ZM2.00016 10.3334C2.36835 10.3334 2.66683 10.0349 2.66683 9.66671C2.66683 9.29852 2.36835 9.00004 2.00016 9.00004C1.63197 9.00004 1.3335 9.29852 1.3335 9.66671C1.3335 10.0349 1.63197 10.3334 2.00016 10.3334ZM4.00016 11C4.00016 11.3682 3.70169 11.6667 3.3335 11.6667C2.96531 11.6667 2.66683 11.3682 2.66683 11C2.66683 10.6319 2.96531 10.3334 3.3335 10.3334C3.70169 10.3334 4.00016 10.6319 4.00016 11ZM6.00016 11.6667C6.36835 11.6667 6.66683 11.3682 6.66683 11C6.66683 10.6319 6.36835 10.3334 6.00016 10.3334C5.63197 10.3334 5.3335 10.6319 5.3335 11C5.3335 11.3682 5.63197 11.6667 6.00016 11.6667ZM9.3335 11C9.3335 11.3682 9.03502 11.6667 8.66683 11.6667C8.29864 11.6667 8.00016 11.3682 8.00016 11C8.00016 10.6319 8.29864 10.3334 8.66683 10.3334C9.03502 10.3334 9.3335 10.6319 9.3335 11ZM10.0002 13C10.3684 13 10.6668 12.7016 10.6668 12.3334C10.6668 11.9652 10.3684 11.6667 10.0002 11.6667C9.63197 11.6667 9.3335 11.9652 9.3335 12.3334C9.3335 12.7016 9.63197 13 10.0002 13ZM8.00016 12.3334C8.00016 12.7016 7.70169 13 7.3335 13C6.96531 13 6.66683 12.7016 6.66683 12.3334C6.66683 11.9652 6.96531 11.6667 7.3335 11.6667C7.70169 11.6667 8.00016 11.9652 8.00016 12.3334ZM4.66683 13C5.03502 13 5.3335 12.7016 5.3335 12.3334C5.3335 11.9652 5.03502 11.6667 4.66683 11.6667C4.29864 11.6667 4.00016 11.9652 4.00016 12.3334C4.00016 12.7016 4.29864 13 4.66683 13ZM2.66683 12.3334C2.66683 12.7016 2.36835 13 2.00016 13C1.63197 13 1.3335 12.7016 1.3335 12.3334C1.3335 11.9652 1.63197 11.6667 2.00016 11.6667C2.36835 11.6667 2.66683 11.9652 2.66683 12.3334Z" fill="url(#paint0_linear)"/>
</g>
</g>
<path d="M44.4801 10.5909V17.7074C44.4801 19.3054 43.3828 20.456 41.5611 20.456C39.7393 20.456 38.642 19.3054 38.642 17.7074V10.5909H37.321V17.8139C37.321 20.0511 38.9936 21.6918 41.5611 21.6918C44.1286 21.6918 45.8011 20.0511 45.8011 17.8139V10.5909H44.4801ZM54.2551 13.3182H55.5335C55.4749 11.6722 53.9568 10.4418 51.8474 10.4418C49.7594 10.4418 48.1187 11.6562 48.1187 13.4886C48.1187 14.9588 49.1841 15.8324 50.8886 16.3224L52.2309 16.706C53.3815 17.0256 54.4042 17.4304 54.4042 18.517C54.4042 19.7102 53.2537 20.4986 51.7409 20.4986C50.4412 20.4986 49.2906 19.9233 49.1841 18.6875H47.8204C47.9483 20.4773 49.3971 21.6918 51.7409 21.6918C54.2551 21.6918 55.6827 20.3068 55.6827 18.5384C55.6827 16.4929 53.7437 15.8324 52.6145 15.5341L51.5065 15.2358C50.6969 15.0227 49.3971 14.5966 49.3971 13.4247C49.3971 12.3807 50.3559 11.6136 51.8048 11.6136C53.1258 11.6136 54.1273 12.2422 54.2551 13.3182ZM61.0711 21.5C64.395 21.5 66.27 19.4332 66.27 16.0241C66.27 12.6364 64.395 10.5909 61.2202 10.5909H57.7046V21.5H61.0711ZM59.0256 20.3281V11.7628H61.135C63.6918 11.7628 64.9915 13.3821 64.9915 16.0241C64.9915 18.6875 63.6918 20.3281 60.9859 20.3281H59.0256Z" fill="#98A5AF"/>
<rect x="0.25" y="42.25" width="27.5" height="19.5" rx="1.75" fill="white" stroke="#D2D2D2" stroke-width="0.5"/>
<mask id="mask1" mask-type="alpha" maskUnits="userSpaceOnUse" x="0" y="42" width="28" height="20">
<rect x="0.25" y="42.25" width="27.5" height="19.5" rx="1.75" fill="white" stroke="white" stroke-width="0.5"/>
</mask>
<g mask="url(#mask1)">
<path fill-rule="evenodd" clip-rule="evenodd" d="M14 58C17.3137 58 20 55.3137 20 52C20 48.6863 17.3137 46 14 46C10.6863 46 8 48.6863 8 52C8 55.3137 10.6863 58 14 58Z" fill="url(#paint1_linear)"/>
</g>
<path d="M41.4972 47.5909V55.3892C41.4972 56.7475 40.8473 57.4773 39.7074 57.4773C38.6687 57.4773 37.9176 56.87 37.9176 55.9432H36.6179C36.6179 57.6211 37.9176 58.6491 39.7074 58.6491C41.6037 58.6491 42.8182 57.4826 42.8182 55.3892V47.5909H41.4972ZM45.3156 58.5H46.6366V54.5156H49.0229C51.5638 54.5156 52.709 52.9709 52.709 51.0426C52.709 49.1143 51.5638 47.5909 49.0016 47.5909H45.3156V58.5ZM46.6366 53.3438V48.7628H48.959C50.7328 48.7628 51.4093 49.7322 51.4093 51.0426C51.4093 52.353 50.7328 53.3438 48.9803 53.3438H46.6366ZM53.7495 47.5909L57.6913 54.0043V58.5H59.0123V54.0043L62.9541 47.5909H61.4413L58.4157 52.6832H58.2879L55.2623 47.5909H53.7495Z" fill="#98A5AF"/>
<rect y="79" width="28" height="20" rx="2" fill="white"/>
<mask id="mask2" mask-type="alpha" maskUnits="userSpaceOnUse" x="0" y="79" width="28" height="20">
<rect y="79" width="28" height="20" rx="2" fill="white"/>
</mask>
<g mask="url(#mask2)">
<rect y="79" width="28" height="20" fill="#0A17A7"/>
<path fill-rule="evenodd" clip-rule="evenodd" d="M-1.28226 77.0835L10.6669 85.1433V77.6666H17.3335V85.1433L29.2827 77.0835L30.7739 79.2943L21.3265 85.6666H28.0002V92.3333H21.3265L30.7739 98.7056L29.2827 100.916L17.3335 92.8566V100.333H10.6669V92.8566L-1.28226 100.916L-2.77344 98.7056L6.67395 92.3333H0.000212669V85.6666H6.67395L-2.77344 79.2943L-1.28226 77.0835Z" fill="white"/>
<path d="M18.668 85.3322L31.3333 77" stroke="#DB1F35" stroke-width="0.666667" stroke-linecap="round"/>
<path d="M20.0127 92.6975L31.3665 100.35" stroke="#DB1F35" stroke-width="0.666667" stroke-linecap="round"/>
<path d="M8.00562 85.3104L-3.8374 77.329" stroke="#DB1F35" stroke-width="0.666667" stroke-linecap="round"/>
<path d="M9.29012 92.6049L-3.8374 101.31" stroke="#DB1F35" stroke-width="0.666667" stroke-linecap="round"/>
<path fill-rule="evenodd" clip-rule="evenodd" d="M0 91H12V99H16V91H28V87H16V79H12V87H0V91Z" fill="#E6273E"/>
</g>
<path d="M44.7784 88H46.142C45.7372 85.8906 43.9688 84.4418 41.6676 84.4418C38.8711 84.4418 36.8949 86.5938 36.8949 90.0455C36.8949 93.4972 38.8551 95.6491 41.7528 95.6491C44.3523 95.6491 46.206 93.918 46.206 91.2173V90.0455H42.0511V91.2173H44.9276C44.8903 93.1776 43.6012 94.4134 41.7528 94.4134C39.7287 94.4134 38.1733 92.8793 38.1733 90.0455C38.1733 87.2116 39.7287 85.6776 41.6676 85.6776C43.2443 85.6776 44.315 86.5671 44.7784 88ZM48.3185 95.5H52.2602C54.8384 95.5 55.9037 94.2429 55.9037 92.6023C55.9037 90.8764 54.7105 89.9389 53.7091 89.875V89.7685C54.6466 89.5128 55.4776 88.8949 55.4776 87.4886C55.4776 85.8906 54.4122 84.5909 52.1324 84.5909H48.3185V95.5ZM49.6395 94.3281V90.5355H52.3242C53.7517 90.5355 54.6466 91.4943 54.6466 92.6023C54.6466 93.5611 53.9861 94.3281 52.2602 94.3281H49.6395ZM49.6395 89.3849V85.7628H52.1324C53.5813 85.7628 54.2205 86.5298 54.2205 87.4886C54.2205 88.6392 53.283 89.3849 52.0898 89.3849H49.6395ZM57.9243 95.5H59.2454V91.5156H61.6317C64.1726 91.5156 65.3178 89.9709 65.3178 88.0426C65.3178 86.1143 64.1726 84.5909 61.6104 84.5909H57.9243V95.5ZM59.2454 90.3438V85.7628H61.5678C63.3416 85.7628 64.0181 86.7322 64.0181 88.0426C64.0181 89.353 63.3416 90.3438 61.5891 90.3438H59.2454Z" fill="#98A5AF"/>
<rect x="100" y="5" width="28" height="20" rx="2" fill="white"/>
<mask id="mask3" mask-type="alpha" maskUnits="userSpaceOnUse" x="100" y="5" width="28" height="20">
<rect x="100" y="5" width="28" height="20" rx="2" fill="white"/>
</mask>
<g mask="url(#mask3)">
<rect x="100" y="5" width="28" height="20" fill="#0A17A7"/>
<path d="M100 4.66667H99.0989L99.7831 5.25309L104.333 9.15331V10.1618L99.8063 13.3954L99.6667 13.4951V13.6667V14.3333V14.9347L100.177 14.616L105.429 11.3333H106.56L111.082 14.5635C111.176 14.6306 111.289 14.6667 111.404 14.6667C111.918 14.6667 112.155 14.027 111.764 13.6924L107.667 10.18V9.17154L112.054 6.03762C112.229 5.91248 112.333 5.71043 112.333 5.49513V5V4.39858L111.823 4.71733L106.571 8H105.44L100.86 4.72876L100.773 4.66667H100.667H100Z" fill="#FF2E3B" stroke="white" stroke-width="0.666667"/>
<path fill-rule="evenodd" clip-rule="evenodd" d="M100 8.33333V11H104.667V14.3333C104.667 14.7015 104.965 15 105.333 15H106.667C107.035 15 107.333 14.7015 107.333 14.3333V11H112C112.368 11 112.667 10.7015 112.667 10.3333V9C112.667 8.63181 112.368 8.33333 112 8.33333H107.333V5H104.667V8.33333H100Z" fill="url(#paint2_linear)"/>
<path fill-rule="evenodd" clip-rule="evenodd" d="M100 9H105.333V8.33333V5H106.667V8.33333V9H112V10.3333H106.667V11V14.3333H105.333V11V10.3333H100V9Z" fill="url(#paint3_linear)"/>
<path fill-rule="evenodd" clip-rule="evenodd" d="M106 21.3334L104.824 21.9514L105.049 20.6424L104.098 19.7153L105.412 19.5244L106 18.3334L106.588 19.5244L107.902 19.7153L106.951 20.6424L107.176 21.9514L106 21.3334Z" fill="white"/>
<path fill-rule="evenodd" clip-rule="evenodd" d="M120 22.3334L119.057 22.6095L119.333 21.6667L119.057 20.7239L120 21L120.943 20.7239L120.667 21.6667L120.943 22.6095L120 22.3334Z" fill="white"/>
<path fill-rule="evenodd" clip-rule="evenodd" d="M120 9.66663L119.057 9.94277L119.333 8.99996L119.057 8.05715L120 8.33329L120.943 8.05715L120.667 8.99996L120.943 9.94277L120 9.66663Z" fill="white"/>
<path fill-rule="evenodd" clip-rule="evenodd" d="M124 13.6666L123.057 13.9428L123.333 13L123.057 12.0572L124 12.3333L124.943 12.0572L124.667 13L124.943 13.9428L124 13.6666Z" fill="white"/>
<path fill-rule="evenodd" clip-rule="evenodd" d="M116 15L115.057 15.2761L115.333 14.3333L115.057 13.3905L116 13.6667L116.943 13.3905L116.667 14.3333L116.943 15.2761L116 15Z" fill="white"/>
<path fill-rule="evenodd" clip-rule="evenodd" d="M122 16.6666L121.529 16.8047L121.667 16.3333L121.529 15.8619L122 16L122.472 15.8619L122.333 16.3333L122.472 16.8047L122 16.6666Z" fill="white"/>
</g>
<path d="M137.768 21.5L138.866 18.4105H143.276L144.374 21.5H145.759L141.753 10.5909H140.389L136.384 21.5H137.768ZM139.281 17.2386L141.028 12.3168H141.114L142.861 17.2386H139.281ZM154.467 10.5909V17.7074C154.467 19.3054 153.37 20.456 151.548 20.456C149.726 20.456 148.629 19.3054 148.629 17.7074V10.5909H147.308V17.8139C147.308 20.0511 148.98 21.6918 151.548 21.6918C154.115 21.6918 155.788 20.0511 155.788 17.8139V10.5909H154.467ZM161.642 21.5C164.966 21.5 166.841 19.4332 166.841 16.0241C166.841 12.6364 164.966 10.5909 161.792 10.5909H158.276V21.5H161.642ZM159.597 20.3281V11.7628H161.706C164.263 11.7628 165.563 13.3821 165.563 16.0241C165.563 18.6875 164.263 20.3281 161.557 20.3281H159.597Z" fill="#98A5AF"/>
<rect x="100" y="42" width="28" height="20" rx="2" fill="white"/>
<mask id="mask4" mask-type="alpha" maskUnits="userSpaceOnUse" x="100" y="42" width="28" height="20">
<rect x="100" y="42" width="28" height="20" rx="2" fill="white"/>
</mask>
<g mask="url(#mask4)">
<rect x="100" y="42" width="28" height="20" fill="#FF0000"/>
<path fill-rule="evenodd" clip-rule="evenodd" d="M112 54H108.333C108.149 54 108 53.8508 108 53.6667V50.3333C108 50.1492 108.149 50 108.333 50H112V46.3333C112 46.1492 112.149 46 112.333 46H115.667C115.851 46 116 46.1492 116 46.3333V50H119.667C119.851 50 120 50.1492 120 50.3333V53.6667C120 53.8508 119.851 54 119.667 54H116V57.6667C116 57.8508 115.851 58 115.667 58H112.333C112.149 58 112 57.8508 112 57.6667V54Z" fill="white"/>
</g>
<path d="M146.099 51C145.695 48.7628 143.905 47.4418 141.71 47.4418C138.919 47.4418 136.895 49.5938 136.895 53.0455C136.895 56.4972 138.919 58.6491 141.71 58.6491C143.905 58.6491 145.695 57.3281 146.099 55.0909H144.778C144.459 56.6037 143.159 57.4134 141.71 57.4134C139.729 57.4134 138.173 55.8793 138.173 53.0455C138.173 50.2116 139.729 48.6776 141.71 48.6776C143.159 48.6776 144.459 49.4872 144.778 51H146.099ZM148.084 58.5H149.405V53.6207H155.222V58.5H156.543V47.5909H155.222V52.4489H149.405V47.5909H148.084V58.5ZM159.038 58.5H160.359V53.6207H165.089V52.4489H160.359V48.7628H165.579V47.5909H159.038V58.5Z" fill="#98A5AF"/>
<rect x="100" y="79" width="28" height="20" rx="2" fill="white"/>
<mask id="mask5" mask-type="alpha" maskUnits="userSpaceOnUse" x="100" y="79" width="28" height="20">
<rect x="100" y="79" width="28" height="20" rx="2" fill="white"/>
</mask>
<g mask="url(#mask5)">
<rect x="100" y="79" width="28" height="20" fill="#F1361D"/>
<path fill-rule="evenodd" clip-rule="evenodd" d="M110.073 82.1008L111.041 82.2659L111.768 82.9274L111.933 81.9589L112.594 81.2326L111.626 81.0675L110.899 80.406L110.734 81.3744L110.073 82.1008ZM112.667 85.4881L113.506 84.9773L114.488 85L113.977 84.1608L114 83.1787L113.161 83.6894L112.179 83.6667L112.689 84.5059L112.667 85.4881ZM111.528 90.9709L110.707 91.5106L110.696 90.5283L110.156 89.7074L111.139 89.6958L111.959 89.1561L111.971 90.1384L112.511 90.9593L111.528 90.9709ZM112.241 88.4315L113.218 88.3232L114.098 88.7589L113.99 87.7825L114.426 86.9019L113.449 87.0102L112.569 86.5745L112.677 87.5509L112.241 88.4315Z" fill="#FFDC42"/>
<path fill-rule="evenodd" clip-rule="evenodd" d="M106.667 87.2266L104.315 88.9027L105.183 86.1487L102.862 84.4306L105.75 84.4046L106.667 81.6666L107.583 84.4046L110.471 84.4306L108.15 86.1487L109.018 88.9027L106.667 87.2266Z" fill="#FFDC42"/>
</g>
<path d="M137.321 95.5H138.642V91.2386H141.028C141.124 91.2386 141.215 91.2386 141.305 91.2333L143.607 95.5H145.141L142.674 90.9936C144.065 90.5195 144.714 89.3849 144.714 87.9361C144.714 86.0078 143.564 84.5909 141.007 84.5909H137.321V95.5ZM138.642 90.0455V85.7628H140.964C142.733 85.7628 143.415 86.6257 143.415 87.9361C143.415 89.2464 142.733 90.0455 140.986 90.0455H138.642ZM146.766 84.5909V95.5H148.002V87.2116H148.108L151.517 95.5H152.71L156.119 87.2116H156.226V95.5H157.462V84.5909H155.885L152.178 93.6463H152.05L148.342 84.5909H146.766ZM159.96 95.5H163.902C166.48 95.5 167.546 94.2429 167.546 92.6023C167.546 90.8764 166.353 89.9389 165.351 89.875V89.7685C166.289 89.5128 167.12 88.8949 167.12 87.4886C167.12 85.8906 166.054 84.5909 163.774 84.5909H159.96V95.5ZM161.281 94.3281V90.5355H163.966C165.394 90.5355 166.289 91.4943 166.289 92.6023C166.289 93.5611 165.628 94.3281 163.902 94.3281H161.281ZM161.281 89.3849V85.7628H163.774C165.223 85.7628 165.862 86.5298 165.862 87.4886C165.862 88.6392 164.925 89.3849 163.732 89.3849H161.281Z" fill="#98A5AF"/>
<rect x="201" y="5" width="28" height="20" rx="2" fill="white"/>
<mask id="mask6" mask-type="alpha" maskUnits="userSpaceOnUse" x="201" y="5" width="28" height="20">
<rect x="201" y="5" width="28" height="20" rx="2" fill="white"/>
</mask>
<g mask="url(#mask6)">
<path fill-rule="evenodd" clip-rule="evenodd" d="M201 25H229V5H201V25Z" fill="#F0371D"/>
<path fill-rule="evenodd" clip-rule="evenodd" d="M214.984 13.1458C215.947 12.3399 216.005 12.1597 216.236 11.4497C216.313 11.2127 216.259 11.018 216.195 10.7882C216.102 10.4567 215.989 10.052 216.22 9.34155C215.17 9.00022 213.949 9.85899 213.494 11.2597C213.039 12.6603 213.521 14.0725 214.572 14.4138C214.76 14.475 214.739 14.4308 214.682 14.3111C214.582 14.1012 214.371 13.6591 214.984 13.1458ZM212.99 14.6177C212.521 13.4529 212.368 13.3416 211.764 12.9028C211.562 12.7563 211.36 12.7478 211.122 12.7378C210.778 12.7233 210.358 12.7056 209.754 12.2665C209.105 13.1601 209.544 14.5863 210.736 15.452C211.927 16.3177 213.42 16.295 214.069 15.4014C214.185 15.2414 214.137 15.2478 214.005 15.2651C213.775 15.2955 213.289 15.3596 212.99 14.6177ZM219 15.2539C218.253 15.2539 218.064 15.2539 217 14.5872C216.322 14.1626 215.967 14.4999 215.798 14.66C215.702 14.7513 215.667 14.785 215.667 14.5872C215.667 13.4827 216.861 12.5872 218.333 12.5872C219.806 12.5872 221 13.4827 221 14.5872C220.253 14.5872 219.903 14.8197 219.616 15.0101C219.418 15.1421 219.249 15.2539 219 15.2539ZM219 14.0001C219 14.1842 218.851 14.3334 218.667 14.3334C218.483 14.3334 218.333 14.1842 218.333 14.0001C218.333 13.816 218.483 13.6667 218.667 13.6667C218.851 13.6667 219 13.816 219 14.0001ZM216.252 16.95C215.947 18.1679 216.005 18.3481 216.236 19.0581C216.313 19.2951 216.471 19.4207 216.658 19.5689C216.928 19.7827 217.257 20.0437 217.488 20.7542C218.539 20.4129 219.021 19.0007 218.566 17.6C218.111 16.1994 216.891 15.3406 215.84 15.6819C215.652 15.743 215.695 15.7664 215.812 15.8296C216.016 15.9405 216.447 16.1742 216.252 16.95ZM217.429 18.6707C217.253 18.7276 217.065 18.6317 217.009 18.4567C216.952 18.2816 217.047 18.0935 217.223 18.0366C217.398 17.9797 217.586 18.0756 217.643 18.2506C217.699 18.4257 217.604 18.6138 217.429 18.6707ZM213.774 16.9688C212.521 17.0549 212.368 17.1662 211.764 17.605C211.562 17.7515 211.492 17.9409 211.409 18.1646C211.289 18.4871 211.142 18.8808 210.538 19.32C211.187 20.2136 212.679 20.2362 213.871 19.3706C215.062 18.5049 215.502 17.0787 214.853 16.1851C214.736 16.0251 214.727 16.0733 214.703 16.2036C214.661 16.4323 214.572 16.914 213.774 16.9688ZM212.501 18.6194C212.393 18.4705 212.426 18.262 212.575 18.1538C212.724 18.0456 212.932 18.0786 213.04 18.2276C213.148 18.3765 213.115 18.585 212.967 18.6932C212.818 18.8014 212.609 18.7684 212.501 18.6194ZM211.027 13.9171C211.135 13.7682 211.344 13.7352 211.493 13.8434C211.642 13.9516 211.675 14.1601 211.566 14.309C211.458 14.4579 211.25 14.4909 211.101 14.3827C210.952 14.2745 210.919 14.0661 211.027 13.9171ZM215.044 11.0622C215.219 11.1191 215.315 11.3072 215.258 11.4822C215.201 11.6573 215.013 11.7531 214.838 11.6963C214.663 11.6394 214.567 11.4513 214.624 11.2762C214.68 11.1011 214.869 11.0053 215.044 11.0622Z" fill="white"/>
</g>
<path d="M238.321 21.5H239.642V16.6207H245.459V21.5H246.78V10.5909H245.459V15.4489H239.642V10.5909H238.321V21.5ZM249.275 21.5H250.596V17.9631L251.959 16.429L255.752 21.5H257.35L252.769 15.5128L257.35 10.5909H255.624L250.723 16.0028H250.596V10.5909H249.275V21.5ZM262.276 21.5C265.6 21.5 267.475 19.4332 267.475 16.0241C267.475 12.6364 265.6 10.5909 262.425 10.5909H258.91V21.5H262.276ZM260.231 20.3281V11.7628H262.34C264.897 11.7628 266.197 13.3821 266.197 16.0241C266.197 18.6875 264.897 20.3281 262.191 20.3281H260.231Z" fill="#98A5AF"/>
<rect x="201" y="42" width="28" height="20" rx="2" fill="white"/>
<mask id="mask7" mask-type="alpha" maskUnits="userSpaceOnUse" x="201" y="42" width="28" height="20">
<rect x="201" y="42" width="28" height="20" rx="2" fill="white"/>
</mask>
<g mask="url(#mask7)">
<rect x="201" y="42" width="28" height="20" fill="#0A17A7"/>
<path d="M201 41.6667H200.099L200.783 42.2531L205.333 46.1533V47.1618L200.806 50.3954L200.667 50.4951V50.6667V51.3333V51.9347L201.177 51.616L206.429 48.3333H207.56L212.082 51.5635C212.176 51.6306 212.289 51.6667 212.404 51.6667C212.918 51.6667 213.155 51.027 212.764 50.6924L208.667 47.18V46.1715L213.054 43.0376C213.229 42.9125 213.333 42.7104 213.333 42.4951V42V41.3986L212.823 41.7173L207.571 45H206.44L201.86 41.7288L201.773 41.6667H201.667H201Z" fill="#FF2E3B" stroke="white" stroke-width="0.666667"/>
<path fill-rule="evenodd" clip-rule="evenodd" d="M201 45.3333V48H205.667V51.3333C205.667 51.7015 205.965 52 206.333 52H207.667C208.035 52 208.333 51.7015 208.333 51.3333V48H213C213.368 48 213.667 47.7015 213.667 47.3333V46C213.667 45.6318 213.368 45.3333 213 45.3333H208.333V42H205.667V45.3333H201Z" fill="white"/>
<path fill-rule="evenodd" clip-rule="evenodd" d="M201 46H206.333V45.3333V42H207.667V45.3333V46H213V47.3333H207.667V48V51.3333H206.333V48V47.3333H201V46Z" fill="#FF2E3B"/>
<path fill-rule="evenodd" clip-rule="evenodd" d="M221 59.3334L220.057 59.6095L220.333 58.6667L220.057 57.7239L221 58L221.943 57.7239L221.667 58.6667L221.943 59.6095L221 59.3334Z" fill="#CA1931"/>
<path fill-rule="evenodd" clip-rule="evenodd" d="M221 46.6666L220.057 46.9428L220.333 46L220.057 45.0572L221 45.3333L221.943 45.0572L221.667 46L221.943 46.9428L221 46.6666Z" fill="#CA1931"/>
<path fill-rule="evenodd" clip-rule="evenodd" d="M225 50.6666L224.057 50.9428L224.333 50L224.057 49.0572L225 49.3333L225.943 49.0572L225.667 50L225.943 50.9428L225 50.6666Z" fill="#CA1931"/>
<path fill-rule="evenodd" clip-rule="evenodd" d="M217 52L216.057 52.2761L216.333 51.3333L216.057 50.3905L217 50.6667L217.943 50.3905L217.667 51.3333L217.943 52.2761L217 52Z" fill="#CA1931"/>
</g>
<path d="M246.972 47.5909H245.672V56.1776H245.565L239.599 47.5909H238.321V58.5H239.642V49.9347H239.749L245.693 58.5H246.972V47.5909ZM249.103 58.5H256.624V57.3281H250.679L256.56 48.5497V47.5909H249.039V48.7628H254.983L249.103 57.5412V58.5ZM262.056 58.5C265.38 58.5 267.255 56.4332 267.255 53.0241C267.255 49.6364 265.38 47.5909 262.206 47.5909H258.69V58.5H262.056ZM260.011 57.3281V48.7628H262.12C264.677 48.7628 265.977 50.3821 265.977 53.0241C265.977 55.6875 264.677 57.3281 261.971 57.3281H260.011Z" fill="#98A5AF"/>
<rect x="201" y="79" width="28" height="20" rx="2" fill="white"/>
<mask id="mask8" mask-type="alpha" maskUnits="userSpaceOnUse" x="201" y="79" width="28" height="20">
<rect x="201" y="79" width="28" height="20" rx="2" fill="white"/>
</mask>
<g mask="url(#mask8)">
<rect x="201" y="79" width="28" height="20" fill="#157CBB"/>
<path fill-rule="evenodd" clip-rule="evenodd" d="M201 91H209V99H213V91H229V87H213V79H209V87H201V91Z" fill="#FFD34D"/>
</g>
<path d="M244.287 87.3182H245.565C245.507 85.6722 243.989 84.4418 241.879 84.4418C239.791 84.4418 238.151 85.6562 238.151 87.4886C238.151 88.9588 239.216 89.8324 240.92 90.3224L242.263 90.706C243.413 91.0256 244.436 91.4304 244.436 92.517C244.436 93.7102 243.286 94.4986 241.773 94.4986C240.473 94.4986 239.322 93.9233 239.216 92.6875H237.852C237.98 94.4773 239.429 95.6918 241.773 95.6918C244.287 95.6918 245.714 94.3068 245.714 92.5384C245.714 90.4929 243.776 89.8324 242.646 89.5341L241.538 89.2358C240.729 89.0227 239.429 88.5966 239.429 87.4247C239.429 86.3807 240.388 85.6136 241.837 85.6136C243.158 85.6136 244.159 86.2422 244.287 87.3182ZM247.736 95.5H254.405V94.3281H249.057V90.6207H253.979V89.4489H249.057V85.7628H254.32V84.5909H247.736V95.5ZM256.551 95.5H257.872V91.9631L259.236 90.429L263.029 95.5H264.627L260.046 89.5128L264.627 84.5909H262.901L258 90.0028H257.872V84.5909H256.551V95.5Z" fill="#98A5AF"/>
<defs>
<filter id="filter0_d" x="1.3335" y="6.33337" width="9.33333" height="7.66667" filterUnits="userSpaceOnUse" color-interpolation-filters="sRGB">
<feFlood flood-opacity="0" result="BackgroundImageFix"/>
<feColorMatrix in="SourceAlpha" type="matrix" values="0 0 0 0 0 0 0 0 0 0 0 0 0 0 0 0 0 0 127 0"/>
<feOffset dy="1"/>
<feColorMatrix type="matrix" values="0 0 0 0 0 0 0 0 0 0 0 0 0 0 0 0 0 0 0.06 0"/>
<feBlend mode="normal" in2="BackgroundImageFix" result="effect1_dropShadow"/>
<feBlend mode="normal" in="SourceGraphic" in2="effect1_dropShadow" result="shape"/>
</filter>
<linearGradient id="paint0_linear" x1="1.3335" y1="6.33337" x2="1.3335" y2="13" gradientUnits="userSpaceOnUse">
<stop stop-color="white"/>
<stop offset="1" stop-color="#F0F0F0"/>
</linearGradient>
<linearGradient id="paint1_linear" x1="8" y1="46" x2="8" y2="58" gradientUnits="userSpaceOnUse">
<stop stop-color="#D81441"/>
<stop offset="1" stop-color="#BB0831"/>
</linearGradient>
<linearGradient id="paint2_linear" x1="100" y1="5" x2="100" y2="15" gradientUnits="userSpaceOnUse">
<stop stop-color="white"/>
<stop offset="1" stop-color="#F0F0F0"/>
</linearGradient>
<linearGradient id="paint3_linear" x1="100" y1="5" x2="100" y2="14.3333" gradientUnits="userSpaceOnUse">
<stop stop-color="#FF2E3B"/>
<stop offset="1" stop-color="#FC0D1B"/>
</linearGradient>
</defs>
</svg>
