<svg width="264" height="35" viewBox="0 0 264 35" fill="none" xmlns="http://www.w3.org/2000/svg">
<path fill-rule="evenodd" clip-rule="evenodd" d="M250.68 10.4567L248.873 7.40414C248.069 6.04468 246.315 5.59468 244.956 6.39903C244.712 6.54286 244.492 6.7219 244.301 6.93033C242.945 8.4137 242.337 9.82605 242.537 11.1653C242.946 13.9098 244.876 17.0447 248.304 20.6037L248.602 20.8978L248.896 21.1959L248.902 21.1916C252.455 24.624 255.59 26.5536 258.335 26.9628C259.674 27.1625 261.086 26.5552 262.57 25.1986C262.778 25.008 262.957 24.7876 263.101 24.5445C263.905 23.185 263.455 21.4309 262.096 20.6266L259.043 18.8205L258.892 18.7378C258.173 18.3796 257.318 18.4036 256.617 18.8109L255.666 19.3635L255.555 19.4209C255.068 19.6443 254.488 19.5448 254.103 19.1601L250.34 15.3968L250.256 15.3046C249.916 14.8915 249.863 14.3049 250.136 13.8345L250.689 12.8833C251.125 12.1324 251.122 11.2042 250.68 10.4567ZM261.76 24.3131C260.505 25.4609 259.429 25.9127 258.512 25.7759C256.155 25.4245 253.34 23.7373 250.086 20.6632L249.526 20.1257L249.147 19.75C245.883 16.3601 244.088 13.4279 243.724 10.9883C243.587 10.0712 244.039 8.99517 245.187 7.74018C245.298 7.6192 245.425 7.51528 245.567 7.4318C246.312 6.99087 247.261 7.19935 247.758 7.8886L247.841 8.0152L249.647 11.0678C249.868 11.4413 249.87 11.9052 249.652 12.2805L249.099 13.2316C248.574 14.1343 248.669 15.2661 249.33 16.068L249.452 16.2037L253.255 20.0086C253.993 20.7468 255.111 20.9451 256.056 20.5114L256.218 20.4288L257.22 19.8484C257.569 19.6456 257.996 19.6323 258.356 19.8118L258.47 19.8745L261.485 21.6593C262.274 22.1262 262.535 23.1443 262.068 23.9334C261.985 24.0745 261.881 24.2025 261.76 24.3131Z" fill="#007AFF"/>
<path fill-rule="evenodd" clip-rule="evenodd" d="M210 14C210 11.7909 208.209 10 206 10H197C194.791 10 193 11.7909 193 14V21.5C193 23.7091 194.791 25.5 197 25.5H206C208.209 25.5 210 23.7091 210 21.5V14ZM197 11.2H206C207.546 11.2 208.8 12.4536 208.8 14V21.5C208.8 23.0464 207.546 24.3 206 24.3H197C195.454 24.3 194.2 23.0464 194.2 21.5V14C194.2 12.4536 195.454 11.2 197 11.2ZM217.293 11.9212C217.427 12.096 217.5 12.3103 217.5 12.5309V22.7104C217.5 23.2627 217.052 23.7104 216.5 23.7104C216.315 23.7104 216.134 23.6591 215.976 23.5621L211.952 21.0857C211.36 20.7217 211 20.0769 211 19.3824V16.4848C211 15.8639 211.288 15.2781 211.781 14.8996L215.89 11.7382C216.328 11.4015 216.956 11.4834 217.293 11.9212ZM212.512 15.8507L216.3 12.937V22.3525L212.581 20.0637C212.344 19.9181 212.2 19.6602 212.2 19.3824V16.4848C212.2 16.2364 212.315 16.0021 212.512 15.8507Z" fill="#007AFF"/>
<path d="M3.60206 17.5L11.4062 9.55085C11.9866 8.9597 11.9778 8.00999 11.3867 7.42962C10.7955 6.84925 9.84583 6.85799 9.26546 7.44915L0.429623 16.4491C-0.143208 17.0326 -0.143208 17.9674 0.429623 18.5509L9.26546 27.5509C9.84583 28.142 10.7955 28.1507 11.3867 27.5704C11.9778 26.99 11.9866 26.0403 11.4062 25.4491L3.60206 17.5Z" fill="#007AFF"/>
<path d="M61 17.5004C61 27.1691 53.1648 35 43.5 35C40.3347 35.0018 37.2283 34.1446 34.5118 32.5199C31.7952 30.8952 29.5705 28.5637 28.0747 25.7741C27.7994 25.2603 27.5504 24.7329 27.3285 24.1939C26.4496 22.0719 25.9981 19.7972 26 17.5004C26 7.83461 33.8352 0 43.5 0C51.2496 0 57.8271 5.04028 60.1254 12.0232C60.3112 12.5865 60.4679 13.159 60.5948 13.7384C60.8651 14.9741 61.0009 16.2354 61 17.5004Z" fill="#002855"/>
<path d="M51.4449 14.1304C51.9844 14.4618 52.3305 13.5075 52.4383 13.0078C52.5461 12.5081 52.6044 11.4992 51.9017 11.7021C51.2375 11.8955 50.6271 12.2874 50.7327 13.0307C50.8382 13.7739 50.9888 14.1422 51.4449 14.1304Z" fill="#30DFC4"/>
<path d="M60.127 12.0234C60.1233 12.03 60.1197 12.0374 60.1152 12.044C58.9682 13.9696 57.5701 15.7341 55.9578 17.291C53.9916 19.1649 52.2247 20.1318 51.4217 20.1207C50.9789 20.1207 50.6357 19.3753 51.4032 17.0208C51.6128 16.3787 51.0615 15.8303 50.4711 15.7329C50.0282 15.6591 49.6105 15.8473 49.181 16.4119C47.6414 18.4372 46.0701 20.4447 44.3563 22.0368C44.16 22.2183 43.85 22.5091 43.7474 22.5091C43.619 22.5091 43.5828 22.315 43.5828 22.0773C43.5828 21.5969 43.7444 19.8129 43.7769 19.114C43.8072 18.4807 43.5238 18.0379 43.0573 17.8165C42.4027 17.508 41.7687 17.5648 41.0491 17.9567C39.3663 18.8756 36.4835 22.4538 35.5698 23.5055C35.5026 23.586 35.3808 23.7476 35.2974 23.7151C35.214 23.6826 35.248 23.5107 35.2642 23.4258C35.4022 22.7003 35.5129 22.1881 35.6473 21.4854C35.6628 21.405 35.6915 21.264 35.7078 21.2204C35.7314 21.1748 35.7638 21.1341 35.803 21.1009C36.7005 20.2639 39.2932 17.8748 41.4749 15.1439C43.0101 13.2249 44.3415 11.1347 44.7349 9.30283C44.9076 8.49981 44.7703 6.87974 43.2455 6.67013C41.3428 6.40886 39.0903 8.73673 37.2164 12.0448C35.4768 15.1225 34.5985 18.4741 34.1483 20.0093C34.1042 20.1576 34.0149 20.2884 33.8929 20.3835C33.1755 20.9001 30.2964 23.1217 27.3242 24.1941C27.5477 24.734 27.7985 25.2621 28.0756 25.7766C30.3547 25.0614 32.1917 23.7579 32.8685 23.3129C33.0161 23.214 33.2375 23.0575 33.2906 23.059C33.3438 23.0605 33.2597 23.4575 33.1762 23.9218C33.1231 24.217 32.881 25.488 32.9467 26.4726C32.9777 26.9449 33.1342 27.4165 33.6058 27.5642C34.1291 27.7295 34.6162 27.4416 34.8671 27.1213C35.679 26.0688 39.8121 21.2669 41.1598 20.1768C41.2461 20.1067 41.3074 20.0757 41.3487 20.0919C41.3901 20.1082 41.407 20.1716 41.4026 20.2927C41.3849 20.8093 41.2801 21.4972 41.2698 22.0094C41.2513 23.4664 42.2492 24.4894 43.6935 24.4835C45.3099 24.4768 47.7794 21.2669 48.4377 20.4765C48.713 20.1458 48.8739 20.0144 48.995 20.0144C49.4437 20.0144 49.8452 21.8087 51.6579 21.8087C53.2927 21.8087 55.5349 20.3325 57.4221 18.3767C58.7853 16.961 59.9632 15.293 60.5957 13.7423C60.4691 13.1617 60.3127 12.5879 60.127 12.0234ZM36.8842 17.1426C37.5433 15.2841 39.2327 11.3894 40.8564 9.6261C41.796 8.60683 42.4204 8.29758 42.6964 8.32562C43.1237 8.36548 42.5488 9.60101 42.3532 10.0542C41.1723 12.8087 38.2105 16.3278 37.1868 17.322C36.8252 17.6725 36.7005 17.8187 36.6665 17.8083C36.6355 17.7973 36.7861 17.4275 36.8842 17.1426Z" fill="white"/>
<path d="M74.4738 24V11.3174H76.0031V16.3184H76.0382C76.2961 15.8027 76.6711 15.4043 77.1632 15.123C77.6613 14.8418 78.2531 14.7012 78.9386 14.7012C79.9347 14.7012 80.7199 15.0088 81.2941 15.624C81.8683 16.2393 82.1554 17.0625 82.1554 18.0938V24H80.6261V18.375C80.6261 17.6367 80.4416 17.0654 80.0724 16.6611C79.7091 16.2568 79.173 16.0547 78.464 16.0547C77.7082 16.0547 77.1076 16.292 76.6623 16.7666C76.2228 17.2412 76.0031 17.877 76.0031 18.6738V24H74.4738ZM83.9969 24V14.8594H85.5262V24H83.9969ZM84.7616 13.3213C84.5037 13.3213 84.2811 13.2275 84.0936 13.04C83.9061 12.8525 83.8123 12.6299 83.8123 12.3721C83.8123 12.1084 83.9061 11.8857 84.0936 11.7041C84.2811 11.5166 84.5037 11.4229 84.7616 11.4229C85.0252 11.4229 85.2508 11.5166 85.4383 11.7041C85.6258 11.8857 85.7196 12.1084 85.7196 12.3721C85.7196 12.6299 85.6258 12.8525 85.4383 13.04C85.2508 13.2275 85.0252 13.3213 84.7616 13.3213Z" fill="black"/>
</svg>
