<svg width="101" height="42" viewBox="0 0 101 42" fill="none" xmlns="http://www.w3.org/2000/svg">
<g filter="url(#filter0_d)">
<rect x="1" width="99" height="40" rx="20" fill="#DCF7C5"/>
</g>
<path d="M16.4545 21.9091L16.5455 19.4091L14.4318 20.75L13.8864 19.7955L16.1136 18.6364L13.8864 17.4773L14.4318 16.5227L16.5455 17.8636L16.4545 15.3636H17.5455L17.4545 17.8636L19.5682 16.5227L20.1136 17.4773L17.8864 18.6364L20.1136 19.7955L19.5682 20.75L17.4545 19.4091L17.5455 21.9091H16.4545ZM24.1545 21.9091L24.2455 19.4091L22.1318 20.75L21.5864 19.7955L23.8136 18.6364L21.5864 17.4773L22.1318 16.5227L24.2455 17.8636L24.1545 15.3636H25.2455L25.1545 17.8636L27.2682 16.5227L27.8136 17.4773L25.5864 18.6364L27.8136 19.7955L27.2682 20.75L25.1545 19.4091L25.2455 21.9091H24.1545ZM31.8545 21.9091L31.9455 19.4091L29.8318 20.75L29.2864 19.7955L31.5136 18.6364L29.2864 17.4773L29.8318 16.5227L31.9455 17.8636L31.8545 15.3636H32.9455L32.8545 17.8636L34.9682 16.5227L35.5136 17.4773L33.2864 18.6364L35.5136 19.7955L34.9682 20.75L32.8545 19.4091L32.9455 21.9091H31.8545ZM39.5545 21.9091L39.6455 19.4091L37.5318 20.75L36.9864 19.7955L39.2136 18.6364L36.9864 17.4773L37.5318 16.5227L39.6455 17.8636L39.5545 15.3636H40.6455L40.5545 17.8636L42.6682 16.5227L43.2136 17.4773L40.9864 18.6364L43.2136 19.7955L42.6682 20.75L40.5545 19.4091L40.6455 21.9091H39.5545ZM47.2545 21.9091L47.3455 19.4091L45.2318 20.75L44.6864 19.7955L46.9136 18.6364L44.6864 17.4773L45.2318 16.5227L47.3455 17.8636L47.2545 15.3636H48.3455L48.2545 17.8636L50.3682 16.5227L50.9136 17.4773L48.6864 18.6364L50.9136 19.7955L50.3682 20.75L48.2545 19.4091L48.3455 21.9091H47.2545ZM54.9545 21.9091L55.0455 19.4091L52.9318 20.75L52.3864 19.7955L54.6136 18.6364L52.3864 17.4773L52.9318 16.5227L55.0455 17.8636L54.9545 15.3636H56.0455L55.9545 17.8636L58.0682 16.5227L58.6136 17.4773L56.3864 18.6364L58.6136 19.7955L58.0682 20.75L55.9545 19.4091L56.0455 21.9091H54.9545ZM62.6545 21.9091L62.7455 19.4091L60.6318 20.75L60.0864 19.7955L62.3136 18.6364L60.0864 17.4773L60.6318 16.5227L62.7455 17.8636L62.6545 15.3636H63.7455L63.6545 17.8636L65.7682 16.5227L66.3136 17.4773L64.0864 18.6364L66.3136 19.7955L65.7682 20.75L63.6545 19.4091L63.7455 21.9091H62.6545ZM70.3545 21.9091L70.4455 19.4091L68.3318 20.75L67.7864 19.7955L70.0136 18.6364L67.7864 17.4773L68.3318 16.5227L70.4455 17.8636L70.3545 15.3636H71.4455L71.3545 17.8636L73.4682 16.5227L74.0136 17.4773L71.7864 18.6364L74.0136 19.7955L73.4682 20.75L71.3545 19.4091L71.4455 21.9091H70.3545ZM78.0545 21.9091L78.1455 19.4091L76.0318 20.75L75.4864 19.7955L77.7136 18.6364L75.4864 17.4773L76.0318 16.5227L78.1455 17.8636L78.0545 15.3636H79.1455L79.0545 17.8636L81.1682 16.5227L81.7136 17.4773L79.4864 18.6364L81.7136 19.7955L81.1682 20.75L79.0545 19.4091L79.1455 21.9091H78.0545Z" fill="#41505B"/>
<defs>
<filter id="filter0_d" x="0" y="0" width="101" height="42" filterUnits="userSpaceOnUse" color-interpolation-filters="sRGB">
<feFlood flood-opacity="0" result="BackgroundImageFix"/>
<feColorMatrix in="SourceAlpha" type="matrix" values="0 0 0 0 0 0 0 0 0 0 0 0 0 0 0 0 0 0 127 0"/>
<feOffset dy="1"/>
<feGaussianBlur stdDeviation="0.5"/>
<feColorMatrix type="matrix" values="0 0 0 0 0.14902 0 0 0 0 0.207843 0 0 0 0 0.25098 0 0 0 0.3 0"/>
<feBlend mode="multiply" in2="BackgroundImageFix" result="effect1_dropShadow"/>
<feBlend mode="normal" in="SourceGraphic" in2="effect1_dropShadow" result="shape"/>
</filter>
</defs>
</svg>
