<svg width="252" height="61" viewBox="0 0 252 61" fill="none" xmlns="http://www.w3.org/2000/svg">
<g filter="url(#filter0_d)">
<rect x="1" width="250" height="59" rx="20" fill="white"/>
</g>
<path d="M13.7727 16.6136V15.3636H22.5V16.6136H18.8409V27H17.4318V16.6136H13.7727ZM23.2866 27V18.2727H24.5821V19.5909H24.673C24.8321 19.1591 25.12 18.8087 25.5366 18.5398C25.9533 18.2708 26.423 18.1364 26.9457 18.1364C27.0442 18.1364 27.1673 18.1383 27.3151 18.142C27.4628 18.1458 27.5745 18.1515 27.6503 18.1591V19.5227C27.6048 19.5114 27.5007 19.4943 27.3378 19.4716C27.1787 19.4451 27.0101 19.4318 26.8321 19.4318C26.4079 19.4318 26.0291 19.5208 25.6957 19.6989C25.3662 19.8731 25.1048 20.1155 24.9116 20.4261C24.7223 20.733 24.6276 21.0833 24.6276 21.4773V27H23.2866ZM31.508 27.2045C30.9549 27.2045 30.453 27.1004 30.0023 26.892C29.5515 26.6799 29.1936 26.375 28.9284 25.9773C28.6633 25.5758 28.5307 25.0909 28.5307 24.5227C28.5307 24.0227 28.6292 23.6174 28.8261 23.3068C29.0231 22.9924 29.2864 22.7462 29.6159 22.5682C29.9455 22.3902 30.3091 22.2576 30.7068 22.1705C31.1083 22.0795 31.5117 22.0076 31.917 21.9545C32.4473 21.8864 32.8773 21.8352 33.2068 21.8011C33.5402 21.7633 33.7826 21.7008 33.9341 21.6136C34.0894 21.5265 34.167 21.375 34.167 21.1591V21.1136C34.167 20.553 34.0136 20.1174 33.7068 19.8068C33.4038 19.4962 32.9436 19.3409 32.3261 19.3409C31.686 19.3409 31.1841 19.4811 30.8205 19.7614C30.4568 20.0417 30.2011 20.3409 30.0534 20.6591L28.7807 20.2045C29.008 19.6742 29.311 19.2614 29.6898 18.9659C30.0723 18.6667 30.489 18.4583 30.9398 18.3409C31.3943 18.2197 31.8413 18.1591 32.2807 18.1591C32.561 18.1591 32.883 18.1932 33.2466 18.2614C33.614 18.3258 33.9682 18.4602 34.3091 18.6648C34.6538 18.8693 34.9398 19.178 35.167 19.5909C35.3943 20.0038 35.508 20.5568 35.508 21.25V27H34.167V25.8182H34.0989C34.008 26.0076 33.8564 26.2102 33.6443 26.4261C33.4322 26.642 33.15 26.8258 32.7977 26.9773C32.4455 27.1288 32.0155 27.2045 31.508 27.2045ZM31.7125 26C32.2428 26 32.6898 25.8958 33.0534 25.6875C33.4208 25.4792 33.6973 25.2102 33.883 24.8807C34.0723 24.5511 34.167 24.2045 34.167 23.8409V22.6136C34.1102 22.6818 33.9852 22.7443 33.792 22.8011C33.6027 22.8542 33.383 22.9015 33.133 22.9432C32.8867 22.9811 32.6462 23.0152 32.4114 23.0455C32.1803 23.072 31.9928 23.0947 31.8489 23.1136C31.5004 23.1591 31.1746 23.233 30.8716 23.3352C30.5723 23.4337 30.3299 23.5833 30.1443 23.7841C29.9625 23.9811 29.8716 24.25 29.8716 24.5909C29.8716 25.0568 30.0439 25.4091 30.3886 25.6477C30.7371 25.8826 31.1784 26 31.7125 26ZM38.9963 21.75V27H37.6554V18.2727H38.9509V19.6364H39.0645C39.269 19.1932 39.5796 18.8371 39.9963 18.5682C40.413 18.2955 40.9509 18.1591 41.6099 18.1591C42.2009 18.1591 42.7179 18.2803 43.1611 18.5227C43.6043 18.7614 43.949 19.125 44.1952 19.6136C44.4414 20.0985 44.5645 20.7121 44.5645 21.4545V27H43.2236V21.5455C43.2236 20.8598 43.0456 20.3258 42.6895 19.9432C42.3334 19.5568 41.8448 19.3636 41.2236 19.3636C40.7955 19.3636 40.413 19.4564 40.0759 19.642C39.7425 19.8277 39.4793 20.0985 39.2861 20.4545C39.0929 20.8106 38.9963 21.2424 38.9963 21.75ZM52.8966 20.2273L51.692 20.5682C51.6163 20.3674 51.5045 20.1723 51.3568 19.983C51.2129 19.7898 51.0159 19.6307 50.7659 19.5057C50.5159 19.3807 50.1958 19.3182 49.8057 19.3182C49.2716 19.3182 48.8265 19.4413 48.4705 19.6875C48.1182 19.9299 47.942 20.2386 47.942 20.6136C47.942 20.947 48.0633 21.2102 48.3057 21.4034C48.5481 21.5966 48.9269 21.7576 49.442 21.8864L50.7375 22.2045C51.5178 22.3939 52.0992 22.6837 52.4818 23.0739C52.8644 23.4602 53.0557 23.9583 53.0557 24.5682C53.0557 25.0682 52.9117 25.5152 52.6239 25.9091C52.3398 26.303 51.942 26.6136 51.4307 26.8409C50.9193 27.0682 50.3246 27.1818 49.6466 27.1818C48.7564 27.1818 48.0197 26.9886 47.4364 26.6023C46.853 26.2159 46.4837 25.6515 46.3284 24.9091L47.6011 24.5909C47.7223 25.0606 47.9515 25.4129 48.2886 25.6477C48.6295 25.8826 49.0746 26 49.6239 26C50.2489 26 50.7451 25.8674 51.1125 25.6023C51.4837 25.3333 51.6693 25.0114 51.6693 24.6364C51.6693 24.3333 51.5633 24.0795 51.3511 23.875C51.139 23.6667 50.8133 23.5114 50.3739 23.4091L48.9193 23.0682C48.1201 22.8788 47.533 22.5852 47.158 22.1875C46.7867 21.786 46.6011 21.2841 46.6011 20.6818C46.6011 20.1894 46.7394 19.7538 47.0159 19.375C47.2962 18.9962 47.6769 18.6989 48.158 18.483C48.6428 18.267 49.192 18.1591 49.8057 18.1591C50.6693 18.1591 51.3473 18.3485 51.8398 18.7273C52.336 19.1061 52.6883 19.6061 52.8966 20.2273ZM57.3423 27.2045C56.7893 27.2045 56.2874 27.1004 55.8366 26.892C55.3859 26.6799 55.0279 26.375 54.7628 25.9773C54.4976 25.5758 54.3651 25.0909 54.3651 24.5227C54.3651 24.0227 54.4635 23.6174 54.6605 23.3068C54.8575 22.9924 55.1207 22.7462 55.4503 22.5682C55.7798 22.3902 56.1435 22.2576 56.5412 22.1705C56.9427 22.0795 57.3461 22.0076 57.7514 21.9545C58.2817 21.8864 58.7116 21.8352 59.0412 21.8011C59.3745 21.7633 59.617 21.7008 59.7685 21.6136C59.9238 21.5265 60.0014 21.375 60.0014 21.1591V21.1136C60.0014 20.553 59.848 20.1174 59.5412 19.8068C59.2382 19.4962 58.7779 19.3409 58.1605 19.3409C57.5204 19.3409 57.0185 19.4811 56.6548 19.7614C56.2912 20.0417 56.0355 20.3409 55.8878 20.6591L54.6151 20.2045C54.8423 19.6742 55.1454 19.2614 55.5241 18.9659C55.9067 18.6667 56.3234 18.4583 56.7741 18.3409C57.2287 18.2197 57.6757 18.1591 58.1151 18.1591C58.3954 18.1591 58.7173 18.1932 59.081 18.2614C59.4484 18.3258 59.8026 18.4602 60.1435 18.6648C60.4882 18.8693 60.7741 19.178 61.0014 19.5909C61.2287 20.0038 61.3423 20.5568 61.3423 21.25V27H60.0014V25.8182H59.9332C59.8423 26.0076 59.6908 26.2102 59.4787 26.4261C59.2666 26.642 58.9844 26.8258 58.6321 26.9773C58.2798 27.1288 57.8499 27.2045 57.3423 27.2045ZM57.5469 26C58.0772 26 58.5241 25.8958 58.8878 25.6875C59.2552 25.4792 59.5317 25.2102 59.7173 24.8807C59.9067 24.5511 60.0014 24.2045 60.0014 23.8409V22.6136C59.9446 22.6818 59.8196 22.7443 59.6264 22.8011C59.437 22.8542 59.2173 22.9015 58.9673 22.9432C58.7211 22.9811 58.4806 23.0152 58.2457 23.0455C58.0147 23.072 57.8272 23.0947 57.6832 23.1136C57.3348 23.1591 57.009 23.233 56.706 23.3352C56.4067 23.4337 56.1643 23.5833 55.9787 23.7841C55.7969 23.9811 55.706 24.25 55.706 24.5909C55.706 25.0568 55.8783 25.4091 56.223 25.6477C56.5715 25.8826 57.0128 26 57.5469 26ZM67.0352 27.1818C66.217 27.1818 65.5125 26.9886 64.9216 26.6023C64.3307 26.2159 63.8761 25.6837 63.558 25.0057C63.2398 24.3277 63.0807 23.553 63.0807 22.6818C63.0807 21.7955 63.2436 21.0133 63.5693 20.3352C63.8989 19.6534 64.3572 19.1212 64.9443 18.7386C65.5352 18.3523 66.2246 18.1591 67.0125 18.1591C67.6261 18.1591 68.1792 18.2727 68.6716 18.5C69.164 18.7273 69.5674 19.0455 69.8818 19.4545C70.1962 19.8636 70.3913 20.3409 70.467 20.8864H69.1261C69.0239 20.4886 68.7966 20.1364 68.4443 19.8295C68.0958 19.5189 67.6261 19.3636 67.0352 19.3636C66.5125 19.3636 66.0542 19.5 65.6602 19.7727C65.2701 20.0417 64.9652 20.4223 64.7455 20.9148C64.5295 21.4034 64.4216 21.9773 64.4216 22.6364C64.4216 23.3106 64.5277 23.8977 64.7398 24.3977C64.9557 24.8977 65.2587 25.286 65.6489 25.5625C66.0428 25.839 66.5049 25.9773 67.0352 25.9773C67.3837 25.9773 67.7 25.9167 67.9841 25.7955C68.2682 25.6742 68.5087 25.5 68.7057 25.2727C68.9027 25.0455 69.0428 24.7727 69.1261 24.4545H70.467C70.3913 24.9697 70.2038 25.4337 69.9045 25.8466C69.6091 26.2557 69.217 26.5814 68.7284 26.8239C68.2436 27.0625 67.6792 27.1818 67.0352 27.1818ZM75.9227 18.2727V19.4091H71.4V18.2727H75.9227ZM72.7182 16.1818H74.0591V24.5C74.0591 24.8788 74.114 25.1629 74.2239 25.3523C74.3375 25.5379 74.4814 25.6629 74.6557 25.7273C74.8337 25.7879 75.0212 25.8182 75.2182 25.8182C75.3659 25.8182 75.4871 25.8106 75.5818 25.7955C75.6765 25.7765 75.7523 25.7614 75.8091 25.75L76.0818 26.9545C75.9909 26.9886 75.864 27.0227 75.7011 27.0568C75.5383 27.0947 75.3318 27.1136 75.0818 27.1136C74.703 27.1136 74.3318 27.0322 73.9682 26.8693C73.6083 26.7064 73.3091 26.4583 73.0705 26.125C72.8356 25.7917 72.7182 25.3712 72.7182 24.8636V16.1818ZM77.6398 27V18.2727H78.9807V27H77.6398ZM78.3216 16.8182C78.0602 16.8182 77.8348 16.7292 77.6455 16.5511C77.4598 16.3731 77.367 16.1591 77.367 15.9091C77.367 15.6591 77.4598 15.4451 77.6455 15.267C77.8348 15.089 78.0602 15 78.3216 15C78.583 15 78.8064 15.089 78.992 15.267C79.1814 15.4451 79.2761 15.6591 79.2761 15.9091C79.2761 16.1591 79.1814 16.3731 78.992 16.5511C78.8064 16.7292 78.583 16.8182 78.3216 16.8182ZM84.6821 27.1818C83.8942 27.1818 83.2029 26.9943 82.6082 26.6193C82.0173 26.2443 81.5552 25.7197 81.2219 25.0455C80.8923 24.3712 80.7276 23.5833 80.7276 22.6818C80.7276 21.7727 80.8923 20.9792 81.2219 20.3011C81.5552 19.6231 82.0173 19.0966 82.6082 18.7216C83.2029 18.3466 83.8942 18.1591 84.6821 18.1591C85.47 18.1591 86.1594 18.3466 86.7503 18.7216C87.345 19.0966 87.8071 19.6231 88.1367 20.3011C88.47 20.9792 88.6367 21.7727 88.6367 22.6818C88.6367 23.5833 88.47 24.3712 88.1367 25.0455C87.8071 25.7197 87.345 26.2443 86.7503 26.6193C86.1594 26.9943 85.47 27.1818 84.6821 27.1818ZM84.6821 25.9773C85.2806 25.9773 85.773 25.8239 86.1594 25.517C86.5457 25.2102 86.8317 24.8068 87.0173 24.3068C87.2029 23.8068 87.2957 23.2652 87.2957 22.6818C87.2957 22.0985 87.2029 21.5549 87.0173 21.0511C86.8317 20.5473 86.5457 20.1402 86.1594 19.8295C85.773 19.5189 85.2806 19.3636 84.6821 19.3636C84.0836 19.3636 83.5912 19.5189 83.2048 19.8295C82.8185 20.1402 82.5325 20.5473 82.3469 21.0511C82.1613 21.5549 82.0685 22.0985 82.0685 22.6818C82.0685 23.2652 82.1613 23.8068 82.3469 24.3068C82.5325 24.8068 82.8185 25.2102 83.2048 25.517C83.5912 25.8239 84.0836 25.9773 84.6821 25.9773ZM91.7244 21.75V27H90.3835V18.2727H91.679V19.6364H91.7926C91.9972 19.1932 92.3078 18.8371 92.7244 18.5682C93.1411 18.2955 93.679 18.1591 94.3381 18.1591C94.929 18.1591 95.446 18.2803 95.8892 18.5227C96.3324 18.7614 96.6771 19.125 96.9233 19.6136C97.1695 20.0985 97.2926 20.7121 97.2926 21.4545V27H95.9517V21.5455C95.9517 20.8598 95.7737 20.3258 95.4176 19.9432C95.0616 19.5568 94.5729 19.3636 93.9517 19.3636C93.5237 19.3636 93.1411 19.4564 92.804 19.642C92.4706 19.8277 92.2074 20.0985 92.0142 20.4545C91.821 20.8106 91.7244 21.2424 91.7244 21.75ZM107.188 27.1818C106.37 27.1818 105.666 26.9886 105.075 26.6023C104.484 26.2159 104.029 25.6837 103.711 25.0057C103.393 24.3277 103.234 23.553 103.234 22.6818C103.234 21.7955 103.397 21.0133 103.722 20.3352C104.052 19.6534 104.51 19.1212 105.097 18.7386C105.688 18.3523 106.378 18.1591 107.166 18.1591C107.779 18.1591 108.332 18.2727 108.825 18.5C109.317 18.7273 109.721 19.0455 110.035 19.4545C110.349 19.8636 110.544 20.3409 110.62 20.8864H109.279C109.177 20.4886 108.95 20.1364 108.597 19.8295C108.249 19.5189 107.779 19.3636 107.188 19.3636C106.666 19.3636 106.207 19.5 105.813 19.7727C105.423 20.0417 105.118 20.4223 104.899 20.9148C104.683 21.4034 104.575 21.9773 104.575 22.6364C104.575 23.3106 104.681 23.8977 104.893 24.3977C105.109 24.8977 105.412 25.286 105.802 25.5625C106.196 25.839 106.658 25.9773 107.188 25.9773C107.537 25.9773 107.853 25.9167 108.137 25.7955C108.421 25.6742 108.662 25.5 108.859 25.2727C109.056 25.0455 109.196 24.7727 109.279 24.4545H110.62C110.544 24.9697 110.357 25.4337 110.058 25.8466C109.762 26.2557 109.37 26.5814 108.882 26.8239C108.397 27.0625 107.832 27.1818 107.188 27.1818ZM115.826 27.1818C115.038 27.1818 114.347 26.9943 113.752 26.6193C113.161 26.2443 112.699 25.7197 112.366 25.0455C112.036 24.3712 111.871 23.5833 111.871 22.6818C111.871 21.7727 112.036 20.9792 112.366 20.3011C112.699 19.6231 113.161 19.0966 113.752 18.7216C114.347 18.3466 115.038 18.1591 115.826 18.1591C116.614 18.1591 117.303 18.3466 117.894 18.7216C118.489 19.0966 118.951 19.6231 119.28 20.3011C119.614 20.9792 119.78 21.7727 119.78 22.6818C119.78 23.5833 119.614 24.3712 119.28 25.0455C118.951 25.7197 118.489 26.2443 117.894 26.6193C117.303 26.9943 116.614 27.1818 115.826 27.1818ZM115.826 25.9773C116.424 25.9773 116.917 25.8239 117.303 25.517C117.689 25.2102 117.975 24.8068 118.161 24.3068C118.347 23.8068 118.439 23.2652 118.439 22.6818C118.439 22.0985 118.347 21.5549 118.161 21.0511C117.975 20.5473 117.689 20.1402 117.303 19.8295C116.917 19.5189 116.424 19.3636 115.826 19.3636C115.227 19.3636 114.735 19.5189 114.349 19.8295C113.962 20.1402 113.676 20.5473 113.491 21.0511C113.305 21.5549 113.212 22.0985 113.212 22.6818C113.212 23.2652 113.305 23.8068 113.491 24.3068C113.676 24.8068 113.962 25.2102 114.349 25.517C114.735 25.8239 115.227 25.9773 115.826 25.9773ZM121.527 27V18.2727H122.823V19.6364H122.936C123.118 19.1705 123.412 18.8087 123.817 18.5511C124.222 18.2898 124.709 18.1591 125.277 18.1591C125.853 18.1591 126.332 18.2898 126.715 18.5511C127.101 18.8087 127.402 19.1705 127.618 19.6364H127.709C127.933 19.1856 128.268 18.8277 128.715 18.5625C129.162 18.2936 129.698 18.1591 130.323 18.1591C131.103 18.1591 131.741 18.4034 132.238 18.892C132.734 19.3769 132.982 20.1326 132.982 21.1591V27H131.641V21.1591C131.641 20.5152 131.465 20.0549 131.113 19.7784C130.76 19.5019 130.345 19.3636 129.868 19.3636C129.255 19.3636 128.779 19.5492 128.442 19.9205C128.105 20.2879 127.936 20.7538 127.936 21.3182V27H126.573V21.0227C126.573 20.5265 126.412 20.1269 126.09 19.8239C125.768 19.517 125.353 19.3636 124.845 19.3636C124.497 19.3636 124.171 19.4564 123.868 19.642C123.569 19.8277 123.327 20.0852 123.141 20.4148C122.959 20.7405 122.868 21.1174 122.868 21.5455V27H121.527ZM135.134 30.2727V18.2727H136.429V19.6591H136.588C136.687 19.5076 136.823 19.3144 136.997 19.0795C137.175 18.8409 137.429 18.6288 137.759 18.4432C138.092 18.2538 138.543 18.1591 139.111 18.1591C139.846 18.1591 140.493 18.3428 141.054 18.7102C141.615 19.0777 142.052 19.5985 142.366 20.2727C142.681 20.947 142.838 21.7424 142.838 22.6591C142.838 23.5833 142.681 24.3845 142.366 25.0625C142.052 25.7367 141.616 26.2595 141.06 26.6307C140.503 26.9981 139.861 27.1818 139.134 27.1818C138.573 27.1818 138.124 27.089 137.787 26.9034C137.45 26.714 137.19 26.5 137.009 26.2614C136.827 26.0189 136.687 25.8182 136.588 25.6591H136.474V30.2727H135.134ZM136.452 22.6364C136.452 23.2955 136.548 23.8769 136.741 24.3807C136.935 24.8807 137.217 25.2727 137.588 25.5568C137.959 25.8371 138.414 25.9773 138.952 25.9773C139.512 25.9773 139.98 25.8295 140.355 25.5341C140.734 25.2348 141.018 24.8333 141.207 24.3295C141.401 23.822 141.497 23.2576 141.497 22.6364C141.497 22.0227 141.402 21.4697 141.213 20.9773C141.027 20.4811 140.745 20.089 140.366 19.8011C139.991 19.5095 139.52 19.3636 138.952 19.3636C138.406 19.3636 137.948 19.5019 137.577 19.7784C137.205 20.0511 136.925 20.4337 136.736 20.9261C136.546 21.4148 136.452 21.9848 136.452 22.6364ZM145.924 15.3636V27H144.584V15.3636H145.924ZM151.739 27.1818C150.899 27.1818 150.173 26.9962 149.563 26.625C148.957 26.25 148.489 25.7273 148.16 25.0568C147.834 24.3826 147.671 23.5985 147.671 22.7045C147.671 21.8106 147.834 21.0227 148.16 20.3409C148.489 19.6553 148.948 19.1212 149.535 18.7386C150.126 18.3523 150.815 18.1591 151.603 18.1591C152.058 18.1591 152.507 18.2348 152.95 18.3864C153.393 18.5379 153.796 18.7841 154.16 19.125C154.524 19.4621 154.813 19.9091 155.029 20.4659C155.245 21.0227 155.353 21.7083 155.353 22.5227V23.0909H148.626V21.9318H153.989C153.989 21.4394 153.891 21 153.694 20.6136C153.501 20.2273 153.224 19.9223 152.864 19.6989C152.508 19.4754 152.088 19.3636 151.603 19.3636C151.069 19.3636 150.607 19.4962 150.217 19.7614C149.83 20.0227 149.533 20.3636 149.325 20.7841C149.116 21.2045 149.012 21.6553 149.012 22.1364V22.9091C149.012 23.5682 149.126 24.1269 149.353 24.5852C149.584 25.0398 149.904 25.3864 150.313 25.625C150.722 25.8598 151.198 25.9773 151.739 25.9773C152.092 25.9773 152.41 25.928 152.694 25.8295C152.982 25.7273 153.23 25.5758 153.438 25.375C153.647 25.1705 153.808 24.9167 153.921 24.6136L155.217 24.9773C155.08 25.4167 154.851 25.803 154.529 26.1364C154.207 26.4659 153.81 26.7235 153.336 26.9091C152.863 27.0909 152.33 27.1818 151.739 27.1818ZM160.888 18.2727V19.4091H156.366V18.2727H160.888ZM157.684 16.1818H159.025V24.5C159.025 24.8788 159.08 25.1629 159.189 25.3523C159.303 25.5379 159.447 25.6629 159.621 25.7273C159.799 25.7879 159.987 25.8182 160.184 25.8182C160.332 25.8182 160.453 25.8106 160.547 25.7955C160.642 25.7765 160.718 25.7614 160.775 25.75L161.047 26.9545C160.957 26.9886 160.83 27.0227 160.667 27.0568C160.504 27.0947 160.297 27.1136 160.047 27.1136C159.669 27.1136 159.297 27.0322 158.934 26.8693C158.574 26.7064 158.275 26.4583 158.036 26.125C157.801 25.7917 157.684 25.3712 157.684 24.8636V16.1818ZM166.171 27.1818C165.33 27.1818 164.604 26.9962 163.995 26.625C163.389 26.25 162.921 25.7273 162.591 25.0568C162.265 24.3826 162.103 23.5985 162.103 22.7045C162.103 21.8106 162.265 21.0227 162.591 20.3409C162.921 19.6553 163.379 19.1212 163.966 18.7386C164.557 18.3523 165.246 18.1591 166.034 18.1591C166.489 18.1591 166.938 18.2348 167.381 18.3864C167.824 18.5379 168.228 18.7841 168.591 19.125C168.955 19.4621 169.245 19.9091 169.461 20.4659C169.676 21.0227 169.784 21.7083 169.784 22.5227V23.0909H163.057V21.9318H168.421C168.421 21.4394 168.322 21 168.125 20.6136C167.932 20.2273 167.656 19.9223 167.296 19.6989C166.94 19.4754 166.519 19.3636 166.034 19.3636C165.5 19.3636 165.038 19.4962 164.648 19.7614C164.262 20.0227 163.964 20.3636 163.756 20.7841C163.548 21.2045 163.443 21.6553 163.443 22.1364V22.9091C163.443 23.5682 163.557 24.1269 163.784 24.5852C164.015 25.0398 164.336 25.3864 164.745 25.625C165.154 25.8598 165.629 25.9773 166.171 25.9773C166.523 25.9773 166.841 25.928 167.125 25.8295C167.413 25.7273 167.661 25.5758 167.87 25.375C168.078 25.1705 168.239 24.9167 168.353 24.6136L169.648 24.9773C169.512 25.4167 169.282 25.803 168.961 26.1364C168.639 26.4659 168.241 26.7235 167.767 26.9091C167.294 27.0909 166.762 27.1818 166.171 27.1818ZM174.82 27.1818C174.092 27.1818 173.45 26.9981 172.893 26.6307C172.337 26.2595 171.901 25.7367 171.587 25.0625C171.272 24.3845 171.115 23.5833 171.115 22.6591C171.115 21.7424 171.272 20.947 171.587 20.2727C171.901 19.5985 172.339 19.0777 172.899 18.7102C173.46 18.3428 174.107 18.1591 174.842 18.1591C175.411 18.1591 175.859 18.2538 176.189 18.4432C176.522 18.6288 176.776 18.8409 176.95 19.0795C177.128 19.3144 177.267 19.5076 177.365 19.6591H177.479V15.3636H178.82V27H177.524V25.6591H177.365C177.267 25.8182 177.126 26.0189 176.945 26.2614C176.763 26.5 176.503 26.714 176.166 26.9034C175.829 27.089 175.38 27.1818 174.82 27.1818ZM175.001 25.9773C175.539 25.9773 175.994 25.8371 176.365 25.5568C176.736 25.2727 177.018 24.8807 177.212 24.3807C177.405 23.8769 177.501 23.2955 177.501 22.6364C177.501 21.9848 177.407 21.4148 177.217 20.9261C177.028 20.4337 176.748 20.0511 176.376 19.7784C176.005 19.5019 175.547 19.3636 175.001 19.3636C174.433 19.3636 173.96 19.5095 173.581 19.8011C173.206 20.089 172.924 20.4811 172.734 20.9773C172.549 21.4697 172.456 22.0227 172.456 22.6364C172.456 23.2576 172.551 23.822 172.74 24.3295C172.933 24.8333 173.217 25.2348 173.592 25.5341C173.971 25.8295 174.441 25.9773 175.001 25.9773ZM182.139 27.0909C181.859 27.0909 181.618 26.9905 181.417 26.7898C181.217 26.589 181.116 26.3485 181.116 26.0682C181.116 25.7879 181.217 25.5473 181.417 25.3466C181.618 25.1458 181.859 25.0455 182.139 25.0455C182.419 25.0455 182.66 25.1458 182.861 25.3466C183.061 25.5473 183.162 25.7879 183.162 26.0682C183.162 26.2538 183.114 26.4242 183.02 26.5795C182.929 26.7348 182.806 26.8598 182.65 26.9545C182.499 27.0455 182.328 27.0909 182.139 27.0909ZM188.65 15.3636H190.263L193.491 20.7955H193.627L196.854 15.3636H198.468L194.263 22.2045V27H192.854V22.2045L188.65 15.3636ZM202.12 27.1818C201.332 27.1818 200.64 26.9943 200.046 26.6193C199.455 26.2443 198.993 25.7197 198.659 25.0455C198.33 24.3712 198.165 23.5833 198.165 22.6818C198.165 21.7727 198.33 20.9792 198.659 20.3011C198.993 19.6231 199.455 19.0966 200.046 18.7216C200.64 18.3466 201.332 18.1591 202.12 18.1591C202.907 18.1591 203.597 18.3466 204.188 18.7216C204.782 19.0966 205.245 19.6231 205.574 20.3011C205.907 20.9792 206.074 21.7727 206.074 22.6818C206.074 23.5833 205.907 24.3712 205.574 25.0455C205.245 25.7197 204.782 26.2443 204.188 26.6193C203.597 26.9943 202.907 27.1818 202.12 27.1818ZM202.12 25.9773C202.718 25.9773 203.211 25.8239 203.597 25.517C203.983 25.2102 204.269 24.8068 204.455 24.3068C204.64 23.8068 204.733 23.2652 204.733 22.6818C204.733 22.0985 204.64 21.5549 204.455 21.0511C204.269 20.5473 203.983 20.1402 203.597 19.8295C203.211 19.5189 202.718 19.3636 202.12 19.3636C201.521 19.3636 201.029 19.5189 200.642 19.8295C200.256 20.1402 199.97 20.5473 199.784 21.0511C199.599 21.5549 199.506 22.0985 199.506 22.6818C199.506 23.2652 199.599 23.8068 199.784 24.3068C199.97 24.8068 200.256 25.2102 200.642 25.517C201.029 25.8239 201.521 25.9773 202.12 25.9773ZM213.321 23.4318V18.2727H214.662V27H213.321V25.5227H213.23C213.026 25.9659 212.707 26.3428 212.276 26.6534C211.844 26.9602 211.298 27.1136 210.639 27.1136C210.094 27.1136 209.609 26.9943 209.185 26.7557C208.76 26.5133 208.427 26.1496 208.185 25.6648C207.942 25.1761 207.821 24.5606 207.821 23.8182V18.2727H209.162V23.7273C209.162 24.3636 209.34 24.8712 209.696 25.25C210.056 25.6288 210.514 25.8182 211.071 25.8182C211.404 25.8182 211.743 25.733 212.088 25.5625C212.437 25.392 212.728 25.1307 212.963 24.7784C213.202 24.4261 213.321 23.9773 213.321 23.4318ZM15.5682 40.75V46H14.2273V34.3636H15.5682V38.6364H15.6818C15.8864 38.1856 16.1932 37.8277 16.6023 37.5625C17.0152 37.2936 17.5644 37.1591 18.25 37.1591C18.8447 37.1591 19.3655 37.2784 19.8125 37.517C20.2595 37.7519 20.6061 38.1136 20.8523 38.6023C21.1023 39.0871 21.2273 39.7045 21.2273 40.4545V46H19.8864V40.5455C19.8864 39.8523 19.7064 39.3163 19.3466 38.9375C18.9905 38.5549 18.4962 38.3636 17.8636 38.3636C17.4242 38.3636 17.0303 38.4564 16.6818 38.642C16.3371 38.8277 16.0644 39.0985 15.8636 39.4545C15.6667 39.8106 15.5682 40.2424 15.5682 40.75ZM25.9486 46.2045C25.3955 46.2045 24.8937 46.1004 24.4429 45.892C23.9921 45.6799 23.6342 45.375 23.369 44.9773C23.1039 44.5758 22.9713 44.0909 22.9713 43.5227C22.9713 43.0227 23.0698 42.6174 23.2668 42.3068C23.4637 41.9924 23.727 41.7462 24.0565 41.5682C24.3861 41.3902 24.7497 41.2576 25.1474 41.1705C25.549 41.0795 25.9524 41.0076 26.3577 40.9545C26.888 40.8864 27.3179 40.8352 27.6474 40.8011C27.9808 40.7633 28.2232 40.7008 28.3747 40.6136C28.53 40.5265 28.6077 40.375 28.6077 40.1591V40.1136C28.6077 39.553 28.4543 39.1174 28.1474 38.8068C27.8444 38.4962 27.3842 38.3409 26.7668 38.3409C26.1266 38.3409 25.6247 38.4811 25.2611 38.7614C24.8974 39.0417 24.6418 39.3409 24.494 39.6591L23.2213 39.2045C23.4486 38.6742 23.7516 38.2614 24.1304 37.9659C24.513 37.6667 24.9296 37.4583 25.3804 37.3409C25.8349 37.2197 26.2819 37.1591 26.7213 37.1591C27.0016 37.1591 27.3236 37.1932 27.6872 37.2614C28.0546 37.3258 28.4088 37.4602 28.7497 37.6648C29.0944 37.8693 29.3804 38.178 29.6077 38.5909C29.8349 39.0038 29.9486 39.5568 29.9486 40.25V46H28.6077V44.8182H28.5395C28.4486 45.0076 28.2971 45.2102 28.0849 45.4261C27.8728 45.642 27.5906 45.8258 27.2384 45.9773C26.8861 46.1288 26.4562 46.2045 25.9486 46.2045ZM26.1531 45C26.6834 45 27.1304 44.8958 27.494 44.6875C27.8615 44.4792 28.138 44.2102 28.3236 43.8807C28.513 43.5511 28.6077 43.2045 28.6077 42.8409V41.6136C28.5509 41.6818 28.4259 41.7443 28.2327 41.8011C28.0433 41.8542 27.8236 41.9015 27.5736 41.9432C27.3274 41.9811 27.0868 42.0152 26.852 42.0455C26.6209 42.072 26.4334 42.0947 26.2895 42.1136C25.941 42.1591 25.6152 42.233 25.3122 42.3352C25.013 42.4337 24.7705 42.5833 24.5849 42.7841C24.4031 42.9811 24.3122 43.25 24.3122 43.5909C24.3122 44.0568 24.4846 44.4091 24.8293 44.6477C25.1777 44.8826 25.619 45 26.1531 45ZM38.9199 37.2727L35.6926 46H34.329L31.1017 37.2727H32.5562L34.9653 44.2273H35.0562L37.4653 37.2727H38.9199ZM43.7364 46.1818C42.8955 46.1818 42.1701 45.9962 41.5602 45.625C40.9542 45.25 40.4864 44.7273 40.1568 44.0568C39.8311 43.3826 39.6682 42.5985 39.6682 41.7045C39.6682 40.8106 39.8311 40.0227 40.1568 39.3409C40.4864 38.6553 40.9447 38.1212 41.5318 37.7386C42.1227 37.3523 42.8121 37.1591 43.6 37.1591C44.0545 37.1591 44.5034 37.2348 44.9466 37.3864C45.3898 37.5379 45.7932 37.7841 46.1568 38.125C46.5205 38.4621 46.8102 38.9091 47.0261 39.4659C47.242 40.0227 47.35 40.7083 47.35 41.5227V42.0909H40.6227V40.9318H45.9864C45.9864 40.4394 45.8879 40 45.6909 39.6136C45.4977 39.2273 45.2212 38.9223 44.8614 38.6989C44.5053 38.4754 44.0848 38.3636 43.6 38.3636C43.0659 38.3636 42.6038 38.4962 42.2136 38.7614C41.8273 39.0227 41.5299 39.3636 41.3216 39.7841C41.1133 40.2045 41.0091 40.6553 41.0091 41.1364V41.9091C41.0091 42.5682 41.1227 43.1269 41.35 43.5852C41.5811 44.0398 41.9011 44.3864 42.3102 44.625C42.7193 44.8598 43.1947 44.9773 43.7364 44.9773C44.0886 44.9773 44.4068 44.928 44.6909 44.8295C44.9788 44.7273 45.2269 44.5758 45.4352 44.375C45.6436 44.1705 45.8045 43.9167 45.9182 43.6136L47.2136 43.9773C47.0773 44.4167 46.8481 44.803 46.5261 45.1364C46.2042 45.4659 45.8064 45.7235 45.333 45.9091C44.8595 46.0909 44.3273 46.1818 43.7364 46.1818ZM59.4716 39.2273L58.267 39.5682C58.1913 39.3674 58.0795 39.1723 57.9318 38.983C57.7879 38.7898 57.5909 38.6307 57.3409 38.5057C57.0909 38.3807 56.7708 38.3182 56.3807 38.3182C55.8466 38.3182 55.4015 38.4413 55.0455 38.6875C54.6932 38.9299 54.517 39.2386 54.517 39.6136C54.517 39.947 54.6383 40.2102 54.8807 40.4034C55.1231 40.5966 55.5019 40.7576 56.017 40.8864L57.3125 41.2045C58.0928 41.3939 58.6742 41.6837 59.0568 42.0739C59.4394 42.4602 59.6307 42.9583 59.6307 43.5682C59.6307 44.0682 59.4867 44.5152 59.1989 44.9091C58.9148 45.303 58.517 45.6136 58.0057 45.8409C57.4943 46.0682 56.8996 46.1818 56.2216 46.1818C55.3314 46.1818 54.5947 45.9886 54.0114 45.6023C53.428 45.2159 53.0587 44.6515 52.9034 43.9091L54.1761 43.5909C54.2973 44.0606 54.5265 44.4129 54.8636 44.6477C55.2045 44.8826 55.6496 45 56.1989 45C56.8239 45 57.3201 44.8674 57.6875 44.6023C58.0587 44.3333 58.2443 44.0114 58.2443 43.6364C58.2443 43.3333 58.1383 43.0795 57.9261 42.875C57.714 42.6667 57.3883 42.5114 56.9489 42.4091L55.4943 42.0682C54.6951 41.8788 54.108 41.5852 53.733 41.1875C53.3617 40.786 53.1761 40.2841 53.1761 39.6818C53.1761 39.1894 53.3144 38.7538 53.5909 38.375C53.8712 37.9962 54.2519 37.6989 54.733 37.483C55.2178 37.267 55.767 37.1591 56.3807 37.1591C57.2443 37.1591 57.9223 37.3485 58.4148 37.7273C58.911 38.1061 59.2633 38.6061 59.4716 39.2273ZM65.0082 46.1818C64.1673 46.1818 63.442 45.9962 62.8321 45.625C62.226 45.25 61.7582 44.7273 61.4287 44.0568C61.1029 43.3826 60.9401 42.5985 60.9401 41.7045C60.9401 40.8106 61.1029 40.0227 61.4287 39.3409C61.7582 38.6553 62.2166 38.1212 62.8037 37.7386C63.3946 37.3523 64.084 37.1591 64.8719 37.1591C65.3264 37.1591 65.7753 37.2348 66.2185 37.3864C66.6616 37.5379 67.0651 37.7841 67.4287 38.125C67.7923 38.4621 68.0821 38.9091 68.298 39.4659C68.5139 40.0227 68.6219 40.7083 68.6219 41.5227V42.0909H61.8946V40.9318H67.2582C67.2582 40.4394 67.1598 40 66.9628 39.6136C66.7696 39.2273 66.4931 38.9223 66.1332 38.6989C65.7772 38.4754 65.3567 38.3636 64.8719 38.3636C64.3378 38.3636 63.8757 38.4962 63.4855 38.7614C63.0991 39.0227 62.8018 39.3636 62.5935 39.7841C62.3851 40.2045 62.281 40.6553 62.281 41.1364V41.9091C62.281 42.5682 62.3946 43.1269 62.6219 43.5852C62.8529 44.0398 63.173 44.3864 63.5821 44.625C63.9912 44.8598 64.4666 44.9773 65.0082 44.9773C65.3605 44.9773 65.6787 44.928 65.9628 44.8295C66.2507 44.7273 66.4988 44.5758 66.7071 44.375C66.9154 44.1705 67.0764 43.9167 67.1901 43.6136L68.4855 43.9773C68.3491 44.4167 68.12 44.803 67.798 45.1364C67.476 45.4659 67.0783 45.7235 66.6048 45.9091C66.1313 46.0909 65.5991 46.1818 65.0082 46.1818ZM71.7026 40.75V46H70.3616V37.2727H71.6571V38.6364H71.7707C71.9753 38.1932 72.2859 37.8371 72.7026 37.5682C73.1192 37.2955 73.6571 37.1591 74.3162 37.1591C74.9071 37.1591 75.4241 37.2803 75.8673 37.5227C76.3105 37.7614 76.6552 38.125 76.9014 38.6136C77.1476 39.0985 77.2707 39.7121 77.2707 40.4545V46H75.9298V40.5455C75.9298 39.8598 75.7518 39.3258 75.3957 38.9432C75.0397 38.5568 74.551 38.3636 73.9298 38.3636C73.5018 38.3636 73.1192 38.4564 72.7821 38.642C72.4488 38.8277 72.1855 39.0985 71.9923 39.4545C71.7991 39.8106 71.7026 40.2424 71.7026 40.75ZM83.2165 37.2727V38.4091H78.6937V37.2727H83.2165ZM80.0119 35.1818H81.3528V43.5C81.3528 43.8788 81.4078 44.1629 81.5176 44.3523C81.6312 44.5379 81.7752 44.6629 81.9494 44.7273C82.1275 44.7879 82.315 44.8182 82.5119 44.8182C82.6597 44.8182 82.7809 44.8106 82.8756 44.7955C82.9703 44.7765 83.046 44.7614 83.1028 44.75L83.3756 45.9545C83.2847 45.9886 83.1578 46.0227 82.9949 46.0568C82.832 46.0947 82.6256 46.1136 82.3756 46.1136C81.9968 46.1136 81.6256 46.0322 81.2619 45.8693C80.9021 45.7064 80.6028 45.4583 80.3642 45.125C80.1294 44.7917 80.0119 44.3712 80.0119 43.8636V35.1818ZM93.2017 34.3636V46H91.7926V35.8409H91.7244L88.8835 37.7273V36.2955L91.7926 34.3636H93.2017ZM100.653 46V34.3636H107.676V35.6136H102.062V39.5455H107.312V40.7955H102.062V44.75H107.766V46H100.653ZM109.279 35.6136V34.3636H118.006V35.6136H114.347V46H112.938V35.6136H109.279ZM119.881 46V34.3636H121.29V39.5455H127.495V34.3636H128.904V46H127.495V40.7955H121.29V46H119.881ZM139.238 37.2727V38.4091H134.716V37.2727H139.238ZM136.034 35.1818H137.375V43.5C137.375 43.8788 137.43 44.1629 137.539 44.3523C137.653 44.5379 137.797 44.6629 137.971 44.7273C138.149 44.7879 138.337 44.8182 138.534 44.8182C138.682 44.8182 138.803 44.8106 138.897 44.7955C138.992 44.7765 139.068 44.7614 139.125 44.75L139.397 45.9545C139.307 45.9886 139.18 46.0227 139.017 46.0568C138.854 46.0947 138.647 46.1136 138.397 46.1136C138.019 46.1136 137.647 46.0322 137.284 45.8693C136.924 45.7064 136.625 45.4583 136.386 45.125C136.151 44.7917 136.034 44.3712 136.034 43.8636V35.1818ZM144.407 46.1818C143.619 46.1818 142.928 45.9943 142.333 45.6193C141.742 45.2443 141.28 44.7197 140.947 44.0455C140.617 43.3712 140.453 42.5833 140.453 41.6818C140.453 40.7727 140.617 39.9792 140.947 39.3011C141.28 38.6231 141.742 38.0966 142.333 37.7216C142.928 37.3466 143.619 37.1591 144.407 37.1591C145.195 37.1591 145.884 37.3466 146.475 37.7216C147.07 38.0966 147.532 38.6231 147.862 39.3011C148.195 39.9792 148.362 40.7727 148.362 41.6818C148.362 42.5833 148.195 43.3712 147.862 44.0455C147.532 44.7197 147.07 45.2443 146.475 45.6193C145.884 45.9943 145.195 46.1818 144.407 46.1818ZM144.407 44.9773C145.006 44.9773 145.498 44.8239 145.884 44.517C146.271 44.2102 146.557 43.8068 146.742 43.3068C146.928 42.8068 147.021 42.2652 147.021 41.6818C147.021 41.0985 146.928 40.5549 146.742 40.0511C146.557 39.5473 146.271 39.1402 145.884 38.8295C145.498 38.5189 145.006 38.3636 144.407 38.3636C143.809 38.3636 143.316 38.5189 142.93 38.8295C142.543 39.1402 142.257 39.5473 142.072 40.0511C141.886 40.5549 141.793 41.0985 141.793 41.6818C141.793 42.2652 141.886 42.8068 142.072 43.3068C142.257 43.8068 142.543 44.2102 142.93 44.517C143.316 44.8239 143.809 44.9773 144.407 44.9773ZM154.49 46V34.3636H155.899V40.1364H156.036L161.263 34.3636H163.104L158.218 39.6136L163.104 46H161.399L157.354 40.5909L155.899 42.2273V46H154.49ZM167.464 46.1818C166.624 46.1818 165.898 45.9962 165.288 45.625C164.682 45.25 164.214 44.7273 163.885 44.0568C163.559 43.3826 163.396 42.5985 163.396 41.7045C163.396 40.8106 163.559 40.0227 163.885 39.3409C164.214 38.6553 164.673 38.1212 165.26 37.7386C165.851 37.3523 166.54 37.1591 167.328 37.1591C167.783 37.1591 168.232 37.2348 168.675 37.3864C169.118 37.5379 169.521 37.7841 169.885 38.125C170.249 38.4621 170.538 38.9091 170.754 39.4659C170.97 40.0227 171.078 40.7083 171.078 41.5227V42.0909H164.351V40.9318H169.714C169.714 40.4394 169.616 40 169.419 39.6136C169.226 39.2273 168.949 38.9223 168.589 38.6989C168.233 38.4754 167.813 38.3636 167.328 38.3636C166.794 38.3636 166.332 38.4962 165.942 38.7614C165.555 39.0227 165.258 39.3636 165.05 39.7841C164.841 40.2045 164.737 40.6553 164.737 41.1364V41.9091C164.737 42.5682 164.851 43.1269 165.078 43.5852C165.309 44.0398 165.629 44.3864 166.038 44.625C166.447 44.8598 166.923 44.9773 167.464 44.9773C167.817 44.9773 168.135 44.928 168.419 44.8295C168.707 44.7273 168.955 44.5758 169.163 44.375C169.372 44.1705 169.533 43.9167 169.646 43.6136L170.942 43.9773C170.805 44.4167 170.576 44.803 170.254 45.1364C169.932 45.4659 169.535 45.7235 169.061 45.9091C168.588 46.0909 168.055 46.1818 167.464 46.1818ZM174.159 40.75V46H172.818V37.2727H174.113V38.6364H174.227C174.432 38.1932 174.742 37.8371 175.159 37.5682C175.575 37.2955 176.113 37.1591 176.772 37.1591C177.363 37.1591 177.88 37.2803 178.324 37.5227C178.767 37.7614 179.111 38.125 179.358 38.6136C179.604 39.0985 179.727 39.7121 179.727 40.4545V46H178.386V40.5455C178.386 39.8598 178.208 39.3258 177.852 38.9432C177.496 38.5568 177.007 38.3636 176.386 38.3636C175.958 38.3636 175.575 38.4564 175.238 38.642C174.905 38.8277 174.642 39.0985 174.449 39.4545C174.255 39.8106 174.159 40.2424 174.159 40.75ZM183.218 40.75V46H181.877V37.2727H183.173V38.6364H183.286C183.491 38.1932 183.802 37.8371 184.218 37.5682C184.635 37.2955 185.173 37.1591 185.832 37.1591C186.423 37.1591 186.94 37.2803 187.383 37.5227C187.826 37.7614 188.171 38.125 188.417 38.6136C188.663 39.0985 188.786 39.7121 188.786 40.4545V46H187.445V40.5455C187.445 39.8598 187.267 39.3258 186.911 38.9432C186.555 38.5568 186.067 38.3636 185.445 38.3636C185.017 38.3636 184.635 38.4564 184.298 38.642C183.964 38.8277 183.701 39.0985 183.508 39.4545C183.315 39.8106 183.218 40.2424 183.218 40.75ZM191.488 49.25C191.261 49.25 191.058 49.2311 190.88 49.1932C190.702 49.1591 190.579 49.125 190.511 49.0909L190.851 47.9091C191.34 48.0341 191.747 48.0303 192.073 47.8977C192.399 47.7689 192.681 47.3788 192.92 46.7273L193.17 46.0455L189.942 37.2727H191.397L193.806 44.2273H193.897L196.306 37.2727L197.772 37.2955L194.056 47.2727C193.889 47.7159 193.683 48.0833 193.437 48.375C193.19 48.6705 192.904 48.8902 192.579 49.0341C192.257 49.178 191.893 49.25 191.488 49.25ZM207.382 38C207.257 37.6174 207.093 37.2746 206.888 36.9716C206.687 36.6648 206.447 36.4034 206.166 36.1875C205.89 35.9716 205.576 35.8068 205.223 35.6932C204.871 35.5795 204.485 35.5227 204.064 35.5227C203.375 35.5227 202.748 35.7008 202.184 36.0568C201.619 36.4129 201.17 36.9375 200.837 37.6307C200.504 38.3239 200.337 39.1742 200.337 40.1818C200.337 41.1894 200.505 42.0398 200.843 42.733C201.18 43.4261 201.636 43.9508 202.212 44.3068C202.788 44.6629 203.435 44.8409 204.155 44.8409C204.822 44.8409 205.409 44.6989 205.916 44.4148C206.428 44.1269 206.826 43.7216 207.11 43.1989C207.398 42.6723 207.541 42.053 207.541 41.3409L207.973 41.4318H204.473V40.1818H208.905V41.4318C208.905 42.3902 208.701 43.2235 208.291 43.9318C207.886 44.6402 207.326 45.1894 206.61 45.5795C205.898 45.9659 205.079 46.1591 204.155 46.1591C203.125 46.1591 202.22 45.9167 201.439 45.4318C200.663 44.947 200.057 44.2576 199.621 43.3636C199.189 42.4697 198.973 41.4091 198.973 40.1818C198.973 39.2614 199.096 38.4337 199.343 37.6989C199.593 36.9602 199.945 36.3314 200.399 35.8125C200.854 35.2936 201.392 34.8958 202.013 34.6193C202.634 34.3428 203.318 34.2045 204.064 34.2045C204.678 34.2045 205.25 34.2973 205.78 34.483C206.314 34.6648 206.79 34.9242 207.206 35.2614C207.627 35.5947 207.977 35.9943 208.257 36.4602C208.538 36.9223 208.731 37.4356 208.837 38H207.382ZM211.814 46.0909C211.534 46.0909 211.293 45.9905 211.092 45.7898C210.892 45.589 210.791 45.3485 210.791 45.0682C210.791 44.7879 210.892 44.5473 211.092 44.3466C211.293 44.1458 211.534 44.0455 211.814 44.0455C212.094 44.0455 212.335 44.1458 212.536 44.3466C212.736 44.5473 212.837 44.7879 212.837 45.0682C212.837 45.2538 212.789 45.4242 212.695 45.5795C212.604 45.7348 212.481 45.8598 212.325 45.9545C212.174 46.0455 212.003 46.0909 211.814 46.0909Z" fill="black"/>
<defs>
<filter id="filter0_d" x="0" y="0" width="252" height="61" filterUnits="userSpaceOnUse" color-interpolation-filters="sRGB">
<feFlood flood-opacity="0" result="BackgroundImageFix"/>
<feColorMatrix in="SourceAlpha" type="matrix" values="0 0 0 0 0 0 0 0 0 0 0 0 0 0 0 0 0 0 127 0"/>
<feOffset dy="1"/>
<feGaussianBlur stdDeviation="0.5"/>
<feColorMatrix type="matrix" values="0 0 0 0 0.14902 0 0 0 0 0.207843 0 0 0 0 0.25098 0 0 0 0.3 0"/>
<feBlend mode="multiply" in2="BackgroundImageFix" result="effect1_dropShadow"/>
<feBlend mode="normal" in="SourceGraphic" in2="effect1_dropShadow" result="shape"/>
</filter>
</defs>
</svg>
