<svg width="252" height="62" viewBox="0 0 252 62" fill="none" xmlns="http://www.w3.org/2000/svg">
<g filter="url(#filter0_d)">
<rect x="1" width="250" height="60" rx="20" fill="white"/>
</g>
<path d="M22.3636 19C22.2386 18.6174 22.0739 18.2746 21.8693 17.9716C21.6686 17.6648 21.428 17.4034 21.1477 17.1875C20.8712 16.9716 20.5568 16.8068 20.2045 16.6932C19.8523 16.5795 19.4659 16.5227 19.0455 16.5227C18.3561 16.5227 17.7292 16.7008 17.1648 17.0568C16.6004 17.4129 16.1515 17.9375 15.8182 18.6307C15.4848 19.3239 15.3182 20.1742 15.3182 21.1818C15.3182 22.1894 15.4867 23.0398 15.8239 23.733C16.161 24.4261 16.6174 24.9508 17.1932 25.3068C17.7689 25.6629 18.4167 25.8409 19.1364 25.8409C19.803 25.8409 20.3902 25.6989 20.8977 25.4148C21.4091 25.1269 21.8068 24.7216 22.0909 24.1989C22.3788 23.6723 22.5227 23.053 22.5227 22.3409L22.9545 22.4318H19.4545V21.1818H23.8864V22.4318C23.8864 23.3902 23.6818 24.2235 23.2727 24.9318C22.8674 25.6402 22.3068 26.1894 21.5909 26.5795C20.8788 26.9659 20.0606 27.1591 19.1364 27.1591C18.1061 27.1591 17.2008 26.9167 16.4205 26.4318C15.6439 25.947 15.0379 25.2576 14.6023 24.3636C14.1705 23.4697 13.9545 22.4091 13.9545 21.1818C13.9545 20.2614 14.0777 19.4337 14.3239 18.6989C14.5739 17.9602 14.9261 17.3314 15.3807 16.8125C15.8352 16.2936 16.3731 15.8958 16.9943 15.6193C17.6155 15.3428 18.2992 15.2045 19.0455 15.2045C19.6591 15.2045 20.2311 15.2973 20.7614 15.483C21.2955 15.6648 21.7708 15.9242 22.1875 16.2614C22.608 16.5947 22.9583 16.9943 23.2386 17.4602C23.5189 17.9223 23.7121 18.4356 23.8182 19H22.3636ZM29.3634 27.1818C28.5755 27.1818 27.8842 26.9943 27.2895 26.6193C26.6986 26.2443 26.2365 25.7197 25.9031 25.0455C25.5736 24.3712 25.4088 23.5833 25.4088 22.6818C25.4088 21.7727 25.5736 20.9792 25.9031 20.3011C26.2365 19.6231 26.6986 19.0966 27.2895 18.7216C27.8842 18.3466 28.5755 18.1591 29.3634 18.1591C30.1512 18.1591 30.8406 18.3466 31.4315 18.7216C32.0262 19.0966 32.4884 19.6231 32.8179 20.3011C33.1512 20.9792 33.3179 21.7727 33.3179 22.6818C33.3179 23.5833 33.1512 24.3712 32.8179 25.0455C32.4884 25.7197 32.0262 26.2443 31.4315 26.6193C30.8406 26.9943 30.1512 27.1818 29.3634 27.1818ZM29.3634 25.9773C29.9618 25.9773 30.4543 25.8239 30.8406 25.517C31.227 25.2102 31.513 24.8068 31.6986 24.3068C31.8842 23.8068 31.977 23.2652 31.977 22.6818C31.977 22.0985 31.8842 21.5549 31.6986 21.0511C31.513 20.5473 31.227 20.1402 30.8406 19.8295C30.4543 19.5189 29.9618 19.3636 29.3634 19.3636C28.7649 19.3636 28.2724 19.5189 27.8861 19.8295C27.4997 20.1402 27.2137 20.5473 27.0281 21.0511C26.8425 21.5549 26.7497 22.0985 26.7497 22.6818C26.7497 23.2652 26.8425 23.8068 27.0281 24.3068C27.2137 24.8068 27.4997 25.2102 27.8861 25.517C28.2724 25.8239 28.7649 25.9773 29.3634 25.9773ZM38.8602 18.2727V19.4091H34.3375V18.2727H38.8602ZM35.6557 16.1818H36.9966V24.5C36.9966 24.8788 37.0515 25.1629 37.1614 25.3523C37.275 25.5379 37.4189 25.6629 37.5932 25.7273C37.7712 25.7879 37.9587 25.8182 38.1557 25.8182C38.3034 25.8182 38.4246 25.8106 38.5193 25.7955C38.614 25.7765 38.6898 25.7614 38.7466 25.75L39.0193 26.9545C38.9284 26.9886 38.8015 27.0227 38.6386 27.0568C38.4758 27.0947 38.2693 27.1136 38.0193 27.1136C37.6405 27.1136 37.2693 27.0322 36.9057 26.8693C36.5458 26.7064 36.2466 26.4583 36.008 26.125C35.7731 25.7917 35.6557 25.3712 35.6557 24.8636V16.1818ZM44.7773 27V18.2727H46.1182V27H44.7773ZM45.4591 16.8182C45.1977 16.8182 44.9723 16.7292 44.783 16.5511C44.5973 16.3731 44.5045 16.1591 44.5045 15.9091C44.5045 15.6591 44.5973 15.4451 44.783 15.267C44.9723 15.089 45.1977 15 45.4591 15C45.7205 15 45.9439 15.089 46.1295 15.267C46.3189 15.4451 46.4136 15.6591 46.4136 15.9091C46.4136 16.1591 46.3189 16.3731 46.1295 16.5511C45.9439 16.7292 45.7205 16.8182 45.4591 16.8182ZM52.0696 18.2727V19.4091H47.5469V18.2727H52.0696ZM48.8651 16.1818H50.206V24.5C50.206 24.8788 50.2609 25.1629 50.3707 25.3523C50.4844 25.5379 50.6283 25.6629 50.8026 25.7273C50.9806 25.7879 51.1681 25.8182 51.3651 25.8182C51.5128 25.8182 51.634 25.8106 51.7287 25.7955C51.8234 25.7765 51.8991 25.7614 51.956 25.75L52.2287 26.9545C52.1378 26.9886 52.0109 27.0227 51.848 27.0568C51.6851 27.0947 51.4787 27.1136 51.2287 27.1136C50.8499 27.1136 50.4787 27.0322 50.1151 26.8693C49.7552 26.7064 49.456 26.4583 49.2173 26.125C48.9825 25.7917 48.8651 25.3712 48.8651 24.8636V16.1818ZM54.7639 27.0909C54.4836 27.0909 54.2431 26.9905 54.0423 26.7898C53.8416 26.589 53.7412 26.3485 53.7412 26.0682C53.7412 25.7879 53.8416 25.5473 54.0423 25.3466C54.2431 25.1458 54.4836 25.0455 54.7639 25.0455C55.0442 25.0455 55.2848 25.1458 55.4855 25.3466C55.6863 25.5473 55.7866 25.7879 55.7866 26.0682C55.7866 26.2538 55.7393 26.4242 55.6446 26.5795C55.5537 26.7348 55.4306 26.8598 55.2753 26.9545C55.1238 27.0455 54.9533 27.0909 54.7639 27.0909ZM62.2747 27V15.3636H66.2065C67.1194 15.3636 67.8656 15.5284 68.4452 15.858C69.0285 16.1837 69.4603 16.625 69.7406 17.1818C70.0209 17.7386 70.1611 18.3598 70.1611 19.0455C70.1611 19.7311 70.0209 20.3542 69.7406 20.9148C69.4641 21.4754 69.0361 21.9223 68.4565 22.2557C67.877 22.5852 67.1346 22.75 66.2293 22.75H63.4111V21.5H66.1838C66.8088 21.5 67.3107 21.392 67.6895 21.1761C68.0683 20.9602 68.3429 20.6686 68.5134 20.3011C68.6876 19.9299 68.7747 19.5114 68.7747 19.0455C68.7747 18.5795 68.6876 18.1629 68.5134 17.7955C68.3429 17.428 68.0664 17.1402 67.6838 16.9318C67.3012 16.7197 66.7937 16.6136 66.1611 16.6136H63.6838V27H62.2747ZM73.2901 15.3636V27H71.9491V15.3636H73.2901ZM79.1051 27.1818C78.2642 27.1818 77.5388 26.9962 76.929 26.625C76.3229 26.25 75.8551 25.7273 75.5256 25.0568C75.1998 24.3826 75.0369 23.5985 75.0369 22.7045C75.0369 21.8106 75.1998 21.0227 75.5256 20.3409C75.8551 19.6553 76.3134 19.1212 76.9006 18.7386C77.4915 18.3523 78.1809 18.1591 78.9688 18.1591C79.4233 18.1591 79.8722 18.2348 80.3153 18.3864C80.7585 18.5379 81.1619 18.7841 81.5256 19.125C81.8892 19.4621 82.179 19.9091 82.3949 20.4659C82.6108 21.0227 82.7188 21.7083 82.7188 22.5227V23.0909H75.9915V21.9318H81.3551C81.3551 21.4394 81.2566 21 81.0597 20.6136C80.8665 20.2273 80.59 19.9223 80.2301 19.6989C79.8741 19.4754 79.4536 19.3636 78.9688 19.3636C78.4347 19.3636 77.9725 19.4962 77.5824 19.7614C77.196 20.0227 76.8987 20.3636 76.6903 20.7841C76.482 21.2045 76.3778 21.6553 76.3778 22.1364V22.9091C76.3778 23.5682 76.4915 24.1269 76.7188 24.5852C76.9498 25.0398 77.2699 25.3864 77.679 25.625C78.0881 25.8598 78.5634 25.9773 79.1051 25.9773C79.4574 25.9773 79.7756 25.928 80.0597 25.8295C80.3475 25.7273 80.5956 25.5758 80.804 25.375C81.0123 25.1705 81.1733 24.9167 81.2869 24.6136L82.5824 24.9773C82.446 25.4167 82.2169 25.803 81.8949 26.1364C81.5729 26.4659 81.1752 26.7235 80.7017 26.9091C80.2282 27.0909 79.696 27.1818 79.1051 27.1818ZM87.0267 27.2045C86.4737 27.2045 85.9718 27.1004 85.521 26.892C85.0703 26.6799 84.7123 26.375 84.4472 25.9773C84.182 25.5758 84.0494 25.0909 84.0494 24.5227C84.0494 24.0227 84.1479 23.6174 84.3449 23.3068C84.5419 22.9924 84.8051 22.7462 85.1347 22.5682C85.4642 22.3902 85.8278 22.2576 86.2256 22.1705C86.6271 22.0795 87.0305 22.0076 87.4358 21.9545C87.9661 21.8864 88.396 21.8352 88.7256 21.8011C89.0589 21.7633 89.3013 21.7008 89.4528 21.6136C89.6081 21.5265 89.6858 21.375 89.6858 21.1591V21.1136C89.6858 20.553 89.5324 20.1174 89.2256 19.8068C88.9225 19.4962 88.4623 19.3409 87.8449 19.3409C87.2047 19.3409 86.7028 19.4811 86.3392 19.7614C85.9756 20.0417 85.7199 20.3409 85.5722 20.6591L84.2994 20.2045C84.5267 19.6742 84.8297 19.2614 85.2085 18.9659C85.5911 18.6667 86.0078 18.4583 86.4585 18.3409C86.9131 18.2197 87.36 18.1591 87.7994 18.1591C88.0797 18.1591 88.4017 18.1932 88.7653 18.2614C89.1328 18.3258 89.4869 18.4602 89.8278 18.6648C90.1725 18.8693 90.4585 19.178 90.6858 19.5909C90.9131 20.0038 91.0267 20.5568 91.0267 21.25V27H89.6858V25.8182H89.6176C89.5267 26.0076 89.3752 26.2102 89.1631 26.4261C88.9509 26.642 88.6687 26.8258 88.3165 26.9773C87.9642 27.1288 87.5343 27.2045 87.0267 27.2045ZM87.2312 26C87.7615 26 88.2085 25.8958 88.5722 25.6875C88.9396 25.4792 89.2161 25.2102 89.4017 24.8807C89.5911 24.5511 89.6858 24.2045 89.6858 23.8409V22.6136C89.629 22.6818 89.504 22.7443 89.3108 22.8011C89.1214 22.8542 88.9017 22.9015 88.6517 22.9432C88.4055 22.9811 88.165 23.0152 87.9301 23.0455C87.6991 23.072 87.5116 23.0947 87.3676 23.1136C87.0191 23.1591 86.6934 23.233 86.3903 23.3352C86.0911 23.4337 85.8487 23.5833 85.6631 23.7841C85.4812 23.9811 85.3903 24.25 85.3903 24.5909C85.3903 25.0568 85.5627 25.4091 85.9074 25.6477C86.2559 25.8826 86.6972 26 87.2312 26ZM99.356 20.2273L98.1514 20.5682C98.0757 20.3674 97.9639 20.1723 97.8162 19.983C97.6723 19.7898 97.4753 19.6307 97.2253 19.5057C96.9753 19.3807 96.6552 19.3182 96.2651 19.3182C95.731 19.3182 95.2859 19.4413 94.9298 19.6875C94.5776 19.9299 94.4014 20.2386 94.4014 20.6136C94.4014 20.947 94.5226 21.2102 94.7651 21.4034C95.0075 21.5966 95.3863 21.7576 95.9014 21.8864L97.1969 22.2045C97.9772 22.3939 98.5586 22.6837 98.9412 23.0739C99.3238 23.4602 99.5151 23.9583 99.5151 24.5682C99.5151 25.0682 99.3711 25.5152 99.0832 25.9091C98.7991 26.303 98.4014 26.6136 97.8901 26.8409C97.3787 27.0682 96.784 27.1818 96.106 27.1818C95.2158 27.1818 94.4791 26.9886 93.8957 26.6023C93.3124 26.2159 92.9431 25.6515 92.7878 24.9091L94.0605 24.5909C94.1817 25.0606 94.4109 25.4129 94.748 25.6477C95.0889 25.8826 95.534 26 96.0832 26C96.7082 26 97.2045 25.8674 97.5719 25.6023C97.9431 25.3333 98.1287 25.0114 98.1287 24.6364C98.1287 24.3333 98.0226 24.0795 97.8105 23.875C97.5984 23.6667 97.2726 23.5114 96.8332 23.4091L95.3787 23.0682C94.5795 22.8788 93.9923 22.5852 93.6173 22.1875C93.2461 21.786 93.0605 21.2841 93.0605 20.6818C93.0605 20.1894 93.1988 19.7538 93.4753 19.375C93.7556 18.9962 94.1363 18.6989 94.6173 18.483C95.1022 18.267 95.6514 18.1591 96.2651 18.1591C97.1287 18.1591 97.8067 18.3485 98.2991 18.7273C98.7954 19.1061 99.1476 19.6061 99.356 20.2273ZM104.893 27.1818C104.052 27.1818 103.326 26.9962 102.716 26.625C102.11 26.25 101.643 25.7273 101.313 25.0568C100.987 24.3826 100.824 23.5985 100.824 22.7045C100.824 21.8106 100.987 21.0227 101.313 20.3409C101.643 19.6553 102.101 19.1212 102.688 18.7386C103.279 18.3523 103.968 18.1591 104.756 18.1591C105.211 18.1591 105.66 18.2348 106.103 18.3864C106.546 18.5379 106.949 18.7841 107.313 19.125C107.677 19.4621 107.966 19.9091 108.182 20.4659C108.398 21.0227 108.506 21.7083 108.506 22.5227V23.0909H101.779V21.9318H107.143C107.143 21.4394 107.044 21 106.847 20.6136C106.654 20.2273 106.377 19.9223 106.018 19.6989C105.662 19.4754 105.241 19.3636 104.756 19.3636C104.222 19.3636 103.76 19.4962 103.37 19.7614C102.984 20.0227 102.686 20.3636 102.478 20.7841C102.27 21.2045 102.165 21.6553 102.165 22.1364V22.9091C102.165 23.5682 102.279 24.1269 102.506 24.5852C102.737 25.0398 103.057 25.3864 103.466 25.625C103.876 25.8598 104.351 25.9773 104.893 25.9773C105.245 25.9773 105.563 25.928 105.847 25.8295C106.135 25.7273 106.383 25.5758 106.591 25.375C106.8 25.1705 106.961 24.9167 107.074 24.6136L108.37 24.9773C108.234 25.4167 108.004 25.803 107.682 26.1364C107.36 26.4659 106.963 26.7235 106.489 26.9091C106.016 27.0909 105.484 27.1818 104.893 27.1818ZM118.105 27.1818C117.264 27.1818 116.539 26.9962 115.929 26.625C115.323 26.25 114.855 25.7273 114.526 25.0568C114.2 24.3826 114.037 23.5985 114.037 22.7045C114.037 21.8106 114.2 21.0227 114.526 20.3409C114.855 19.6553 115.313 19.1212 115.901 18.7386C116.491 18.3523 117.181 18.1591 117.969 18.1591C118.423 18.1591 118.872 18.2348 119.315 18.3864C119.759 18.5379 120.162 18.7841 120.526 19.125C120.889 19.4621 121.179 19.9091 121.395 20.4659C121.611 21.0227 121.719 21.7083 121.719 22.5227V23.0909H114.991V21.9318H120.355C120.355 21.4394 120.257 21 120.06 20.6136C119.866 20.2273 119.59 19.9223 119.23 19.6989C118.874 19.4754 118.454 19.3636 117.969 19.3636C117.435 19.3636 116.973 19.4962 116.582 19.7614C116.196 20.0227 115.899 20.3636 115.69 20.7841C115.482 21.2045 115.378 21.6553 115.378 22.1364V22.9091C115.378 23.5682 115.491 24.1269 115.719 24.5852C115.95 25.0398 116.27 25.3864 116.679 25.625C117.088 25.8598 117.563 25.9773 118.105 25.9773C118.457 25.9773 118.776 25.928 119.06 25.8295C119.348 25.7273 119.596 25.5758 119.804 25.375C120.012 25.1705 120.173 24.9167 120.287 24.6136L121.582 24.9773C121.446 25.4167 121.217 25.803 120.895 26.1364C120.573 26.4659 120.175 26.7235 119.702 26.9091C119.228 27.0909 118.696 27.1818 118.105 27.1818ZM124.799 21.75V27H123.459V18.2727H124.754V19.6364H124.868C125.072 19.1932 125.383 18.8371 125.799 18.5682C126.216 18.2955 126.754 18.1591 127.413 18.1591C128.004 18.1591 128.521 18.2803 128.964 18.5227C129.407 18.7614 129.752 19.125 129.998 19.6136C130.245 20.0985 130.368 20.7121 130.368 21.4545V27H129.027V21.5455C129.027 20.8598 128.849 20.3258 128.493 19.9432C128.137 19.5568 127.648 19.3636 127.027 19.3636C126.599 19.3636 126.216 19.4564 125.879 19.642C125.546 19.8277 125.282 20.0985 125.089 20.4545C124.896 20.8106 124.799 21.2424 124.799 21.75ZM136.313 18.2727V19.4091H131.791V18.2727H136.313ZM133.109 16.1818H134.45V24.5C134.45 24.8788 134.505 25.1629 134.614 25.3523C134.728 25.5379 134.872 25.6629 135.046 25.7273C135.224 25.7879 135.412 25.8182 135.609 25.8182C135.757 25.8182 135.878 25.8106 135.972 25.7955C136.067 25.7765 136.143 25.7614 136.2 25.75L136.472 26.9545C136.382 26.9886 136.255 27.0227 136.092 27.0568C135.929 27.0947 135.722 27.1136 135.472 27.1136C135.094 27.1136 134.722 27.0322 134.359 26.8693C133.999 26.7064 133.7 26.4583 133.461 26.125C133.226 25.7917 133.109 25.3712 133.109 24.8636V16.1818ZM141.596 27.1818C140.755 27.1818 140.029 26.9962 139.42 26.625C138.814 26.25 138.346 25.7273 138.016 25.0568C137.69 24.3826 137.528 23.5985 137.528 22.7045C137.528 21.8106 137.69 21.0227 138.016 20.3409C138.346 19.6553 138.804 19.1212 139.391 18.7386C139.982 18.3523 140.671 18.1591 141.459 18.1591C141.914 18.1591 142.363 18.2348 142.806 18.3864C143.249 18.5379 143.653 18.7841 144.016 19.125C144.38 19.4621 144.67 19.9091 144.886 20.4659C145.101 21.0227 145.209 21.7083 145.209 22.5227V23.0909H138.482V21.9318H143.846C143.846 21.4394 143.747 21 143.55 20.6136C143.357 20.2273 143.081 19.9223 142.721 19.6989C142.365 19.4754 141.944 19.3636 141.459 19.3636C140.925 19.3636 140.463 19.4962 140.073 19.7614C139.687 20.0227 139.389 20.3636 139.181 20.7841C138.973 21.2045 138.868 21.6553 138.868 22.1364V22.9091C138.868 23.5682 138.982 24.1269 139.209 24.5852C139.44 25.0398 139.761 25.3864 140.17 25.625C140.579 25.8598 141.054 25.9773 141.596 25.9773C141.948 25.9773 142.266 25.928 142.55 25.8295C142.838 25.7273 143.086 25.5758 143.295 25.375C143.503 25.1705 143.664 24.9167 143.778 24.6136L145.073 24.9773C144.937 25.4167 144.707 25.803 144.386 26.1364C144.064 26.4659 143.666 26.7235 143.192 26.9091C142.719 27.0909 142.187 27.1818 141.596 27.1818ZM146.949 27V18.2727H148.245V19.5909H148.336C148.495 19.1591 148.782 18.8087 149.199 18.5398C149.616 18.2708 150.086 18.1364 150.608 18.1364C150.707 18.1364 150.83 18.1383 150.978 18.142C151.125 18.1458 151.237 18.1515 151.313 18.1591V19.5227C151.267 19.5114 151.163 19.4943 151 19.4716C150.841 19.4451 150.673 19.4318 150.495 19.4318C150.07 19.4318 149.692 19.5208 149.358 19.6989C149.029 19.8731 148.767 20.1155 148.574 20.4261C148.385 20.733 148.29 21.0833 148.29 21.4773V27H146.949ZM157.666 30.25C157.439 30.25 157.236 30.2311 157.058 30.1932C156.88 30.1591 156.757 30.125 156.689 30.0909L157.03 28.9091C157.518 29.0341 157.925 29.0303 158.251 28.8977C158.577 28.7689 158.859 28.3788 159.098 27.7273L159.348 27.0455L156.12 18.2727H157.575L159.984 25.2273H160.075L162.484 18.2727L163.95 18.2955L160.234 28.2727C160.067 28.7159 159.861 29.0833 159.615 29.375C159.369 29.6705 159.083 29.8902 158.757 30.0341C158.435 30.178 158.071 30.25 157.666 30.25ZM168.657 27.1818C167.869 27.1818 167.178 26.9943 166.583 26.6193C165.992 26.2443 165.53 25.7197 165.197 25.0455C164.867 24.3712 164.703 23.5833 164.703 22.6818C164.703 21.7727 164.867 20.9792 165.197 20.3011C165.53 19.6231 165.992 19.0966 166.583 18.7216C167.178 18.3466 167.869 18.1591 168.657 18.1591C169.445 18.1591 170.134 18.3466 170.725 18.7216C171.32 19.0966 171.782 19.6231 172.112 20.3011C172.445 20.9792 172.612 21.7727 172.612 22.6818C172.612 23.5833 172.445 24.3712 172.112 25.0455C171.782 25.7197 171.32 26.2443 170.725 26.6193C170.134 26.9943 169.445 27.1818 168.657 27.1818ZM168.657 25.9773C169.256 25.9773 169.748 25.8239 170.134 25.517C170.521 25.2102 170.807 24.8068 170.992 24.3068C171.178 23.8068 171.271 23.2652 171.271 22.6818C171.271 22.0985 171.178 21.5549 170.992 21.0511C170.807 20.5473 170.521 20.1402 170.134 19.8295C169.748 19.5189 169.256 19.3636 168.657 19.3636C168.059 19.3636 167.566 19.5189 167.18 19.8295C166.793 20.1402 166.507 20.5473 166.322 21.0511C166.136 21.5549 166.043 22.0985 166.043 22.6818C166.043 23.2652 166.136 23.8068 166.322 24.3068C166.507 24.8068 166.793 25.2102 167.18 25.517C167.566 25.8239 168.059 25.9773 168.657 25.9773ZM179.859 23.4318V18.2727H181.199V27H179.859V25.5227H179.768C179.563 25.9659 179.245 26.3428 178.813 26.6534C178.381 26.9602 177.836 27.1136 177.177 27.1136C176.631 27.1136 176.146 26.9943 175.722 26.7557C175.298 26.5133 174.965 26.1496 174.722 25.6648C174.48 25.1761 174.359 24.5606 174.359 23.8182V18.2727H175.699V23.7273C175.699 24.3636 175.877 24.8712 176.234 25.25C176.593 25.6288 177.052 25.8182 177.609 25.8182C177.942 25.8182 178.281 25.733 178.626 25.5625C178.974 25.392 179.266 25.1307 179.501 24.7784C179.739 24.4261 179.859 23.9773 179.859 23.4318ZM183.355 27V18.2727H184.651V19.5909H184.742C184.901 19.1591 185.189 18.8087 185.605 18.5398C186.022 18.2708 186.492 18.1364 187.014 18.1364C187.113 18.1364 187.236 18.1383 187.384 18.142C187.532 18.1458 187.643 18.1515 187.719 18.1591V19.5227C187.674 19.5114 187.569 19.4943 187.407 19.4716C187.247 19.4451 187.079 19.4318 186.901 19.4318C186.477 19.4318 186.098 19.5208 185.764 19.6989C185.435 19.8731 185.174 20.1155 184.98 20.4261C184.791 20.733 184.696 21.0833 184.696 21.4773V27H183.355ZM14.2273 49.2727V37.2727H15.5227V38.6591H15.6818C15.7803 38.5076 15.9167 38.3144 16.0909 38.0795C16.2689 37.8409 16.5227 37.6288 16.8523 37.4432C17.1856 37.2538 17.6364 37.1591 18.2045 37.1591C18.9394 37.1591 19.5871 37.3428 20.1477 37.7102C20.7083 38.0777 21.1458 38.5985 21.4602 39.2727C21.7746 39.947 21.9318 40.7424 21.9318 41.6591C21.9318 42.5833 21.7746 43.3845 21.4602 44.0625C21.1458 44.7367 20.7102 45.2595 20.1534 45.6307C19.5966 45.9981 18.9545 46.1818 18.2273 46.1818C17.6667 46.1818 17.2178 46.089 16.8807 45.9034C16.5436 45.714 16.2841 45.5 16.1023 45.2614C15.9205 45.0189 15.7803 44.8182 15.6818 44.6591H15.5682V49.2727H14.2273ZM15.5455 41.6364C15.5455 42.2955 15.642 42.8769 15.8352 43.3807C16.0284 43.8807 16.3106 44.2727 16.6818 44.5568C17.053 44.8371 17.5076 44.9773 18.0455 44.9773C18.6061 44.9773 19.0739 44.8295 19.4489 44.5341C19.8277 44.2348 20.1117 43.8333 20.3011 43.3295C20.4943 42.822 20.5909 42.2576 20.5909 41.6364C20.5909 41.0227 20.4962 40.4697 20.3068 39.9773C20.1212 39.4811 19.839 39.089 19.4602 38.8011C19.0852 38.5095 18.6136 38.3636 18.0455 38.3636C17.5 38.3636 17.0417 38.5019 16.6705 38.7784C16.2992 39.0511 16.0189 39.4337 15.8295 39.9261C15.6402 40.4148 15.5455 40.9848 15.5455 41.6364ZM26.2455 46.2045C25.6924 46.2045 25.1905 46.1004 24.7398 45.892C24.289 45.6799 23.9311 45.375 23.6659 44.9773C23.4008 44.5758 23.2682 44.0909 23.2682 43.5227C23.2682 43.0227 23.3667 42.6174 23.5636 42.3068C23.7606 41.9924 24.0239 41.7462 24.3534 41.5682C24.683 41.3902 25.0466 41.2576 25.4443 41.1705C25.8458 41.0795 26.2492 41.0076 26.6545 40.9545C27.1848 40.8864 27.6148 40.8352 27.9443 40.8011C28.2777 40.7633 28.5201 40.7008 28.6716 40.6136C28.8269 40.5265 28.9045 40.375 28.9045 40.1591V40.1136C28.9045 39.553 28.7511 39.1174 28.4443 38.8068C28.1413 38.4962 27.6811 38.3409 27.0636 38.3409C26.4235 38.3409 25.9216 38.4811 25.558 38.7614C25.1943 39.0417 24.9386 39.3409 24.7909 39.6591L23.5182 39.2045C23.7455 38.6742 24.0485 38.2614 24.4273 37.9659C24.8098 37.6667 25.2265 37.4583 25.6773 37.3409C26.1318 37.2197 26.5788 37.1591 27.0182 37.1591C27.2985 37.1591 27.6205 37.1932 27.9841 37.2614C28.3515 37.3258 28.7057 37.4602 29.0466 37.6648C29.3913 37.8693 29.6773 38.178 29.9045 38.5909C30.1318 39.0038 30.2455 39.5568 30.2455 40.25V46H28.9045V44.8182H28.8364C28.7455 45.0076 28.5939 45.2102 28.3818 45.4261C28.1697 45.642 27.8875 45.8258 27.5352 45.9773C27.183 46.1288 26.753 46.2045 26.2455 46.2045ZM26.45 45C26.9803 45 27.4273 44.8958 27.7909 44.6875C28.1583 44.4792 28.4348 44.2102 28.6205 43.8807C28.8098 43.5511 28.9045 43.2045 28.9045 42.8409V41.6136C28.8477 41.6818 28.7227 41.7443 28.5295 41.8011C28.3402 41.8542 28.1205 41.9015 27.8705 41.9432C27.6242 41.9811 27.3837 42.0152 27.1489 42.0455C26.9178 42.072 26.7303 42.0947 26.5864 42.1136C26.2379 42.1591 25.9121 42.233 25.6091 42.3352C25.3098 42.4337 25.0674 42.5833 24.8818 42.7841C24.7 42.9811 24.6091 43.25 24.6091 43.5909C24.6091 44.0568 24.7814 44.4091 25.1261 44.6477C25.4746 44.8826 25.9159 45 26.45 45ZM38.5747 39.2273L37.3702 39.5682C37.2944 39.3674 37.1827 39.1723 37.0349 38.983C36.891 38.7898 36.694 38.6307 36.444 38.5057C36.194 38.3807 35.874 38.3182 35.4838 38.3182C34.9497 38.3182 34.5046 38.4413 34.1486 38.6875C33.7963 38.9299 33.6202 39.2386 33.6202 39.6136C33.6202 39.947 33.7414 40.2102 33.9838 40.4034C34.2262 40.5966 34.605 40.7576 35.1202 40.8864L36.4156 41.2045C37.1959 41.3939 37.7774 41.6837 38.1599 42.0739C38.5425 42.4602 38.7338 42.9583 38.7338 43.5682C38.7338 44.0682 38.5899 44.5152 38.302 44.9091C38.0179 45.303 37.6202 45.6136 37.1088 45.8409C36.5974 46.0682 36.0027 46.1818 35.3247 46.1818C34.4346 46.1818 33.6978 45.9886 33.1145 45.6023C32.5312 45.2159 32.1618 44.6515 32.0065 43.9091L33.2793 43.5909C33.4005 44.0606 33.6296 44.4129 33.9668 44.6477C34.3077 44.8826 34.7527 45 35.302 45C35.927 45 36.4232 44.8674 36.7906 44.6023C37.1618 44.3333 37.3474 44.0114 37.3474 43.6364C37.3474 43.3333 37.2414 43.0795 37.0293 42.875C36.8171 42.6667 36.4914 42.5114 36.052 42.4091L34.5974 42.0682C33.7982 41.8788 33.2111 41.5852 32.8361 41.1875C32.4649 40.786 32.2793 40.2841 32.2793 39.6818C32.2793 39.1894 32.4175 38.7538 32.694 38.375C32.9743 37.9962 33.355 37.6989 33.8361 37.483C34.3209 37.267 34.8702 37.1591 35.4838 37.1591C36.3474 37.1591 37.0255 37.3485 37.5179 37.7273C38.0141 38.1061 38.3664 38.6061 38.5747 39.2273ZM46.6341 39.2273L45.4295 39.5682C45.3538 39.3674 45.242 39.1723 45.0943 38.983C44.9504 38.7898 44.7534 38.6307 44.5034 38.5057C44.2534 38.3807 43.9333 38.3182 43.5432 38.3182C43.0091 38.3182 42.564 38.4413 42.208 38.6875C41.8557 38.9299 41.6795 39.2386 41.6795 39.6136C41.6795 39.947 41.8008 40.2102 42.0432 40.4034C42.2856 40.5966 42.6644 40.7576 43.1795 40.8864L44.475 41.2045C45.2553 41.3939 45.8367 41.6837 46.2193 42.0739C46.6019 42.4602 46.7932 42.9583 46.7932 43.5682C46.7932 44.0682 46.6492 44.5152 46.3614 44.9091C46.0773 45.303 45.6795 45.6136 45.1682 45.8409C44.6568 46.0682 44.0621 46.1818 43.3841 46.1818C42.4939 46.1818 41.7572 45.9886 41.1739 45.6023C40.5905 45.2159 40.2212 44.6515 40.0659 43.9091L41.3386 43.5909C41.4598 44.0606 41.689 44.4129 42.0261 44.6477C42.367 44.8826 42.8121 45 43.3614 45C43.9864 45 44.4826 44.8674 44.85 44.6023C45.2212 44.3333 45.4068 44.0114 45.4068 43.6364C45.4068 43.3333 45.3008 43.0795 45.0886 42.875C44.8765 42.6667 44.5508 42.5114 44.1114 42.4091L42.6568 42.0682C41.8576 41.8788 41.2705 41.5852 40.8955 41.1875C40.5242 40.786 40.3386 40.2841 40.3386 39.6818C40.3386 39.1894 40.4769 38.7538 40.7534 38.375C41.0337 37.9962 41.4144 37.6989 41.8955 37.483C42.3803 37.267 42.9295 37.1591 43.5432 37.1591C44.4068 37.1591 45.0848 37.3485 45.5773 37.7273C46.0735 38.1061 46.4258 38.6061 46.6341 39.2273ZM52.0571 46.1818C51.2389 46.1818 50.5344 45.9886 49.9435 45.6023C49.3526 45.2159 48.898 44.6837 48.5798 44.0057C48.2616 43.3277 48.1026 42.553 48.1026 41.6818C48.1026 40.7955 48.2654 40.0133 48.5912 39.3352C48.9207 38.6534 49.3791 38.1212 49.9662 37.7386C50.5571 37.3523 51.2465 37.1591 52.0344 37.1591C52.648 37.1591 53.201 37.2727 53.6935 37.5C54.1859 37.7273 54.5893 38.0455 54.9037 38.4545C55.2181 38.8636 55.4132 39.3409 55.4889 39.8864H54.148C54.0457 39.4886 53.8185 39.1364 53.4662 38.8295C53.1177 38.5189 52.648 38.3636 52.0571 38.3636C51.5344 38.3636 51.076 38.5 50.6821 38.7727C50.292 39.0417 49.987 39.4223 49.7673 39.9148C49.5514 40.4034 49.4435 40.9773 49.4435 41.6364C49.4435 42.3106 49.5495 42.8977 49.7616 43.3977C49.9776 43.8977 50.2806 44.286 50.6707 44.5625C51.0647 44.839 51.5268 44.9773 52.0571 44.9773C52.4056 44.9773 52.7219 44.9167 53.006 44.7955C53.2901 44.6742 53.5306 44.5 53.7276 44.2727C53.9245 44.0455 54.0647 43.7727 54.148 43.4545H55.4889C55.4132 43.9697 55.2257 44.4337 54.9264 44.8466C54.631 45.2557 54.2389 45.5814 53.7503 45.8239C53.2654 46.0625 52.701 46.1818 52.0571 46.1818ZM60.6946 46.1818C59.9067 46.1818 59.2154 45.9943 58.6207 45.6193C58.0298 45.2443 57.5677 44.7197 57.2344 44.0455C56.9048 43.3712 56.7401 42.5833 56.7401 41.6818C56.7401 40.7727 56.9048 39.9792 57.2344 39.3011C57.5677 38.6231 58.0298 38.0966 58.6207 37.7216C59.2154 37.3466 59.9067 37.1591 60.6946 37.1591C61.4825 37.1591 62.1719 37.3466 62.7628 37.7216C63.3575 38.0966 63.8196 38.6231 64.1491 39.3011C64.4825 39.9792 64.6491 40.7727 64.6491 41.6818C64.6491 42.5833 64.4825 43.3712 64.1491 44.0455C63.8196 44.7197 63.3575 45.2443 62.7628 45.6193C62.1719 45.9943 61.4825 46.1818 60.6946 46.1818ZM60.6946 44.9773C61.2931 44.9773 61.7855 44.8239 62.1719 44.517C62.5582 44.2102 62.8442 43.8068 63.0298 43.3068C63.2154 42.8068 63.3082 42.2652 63.3082 41.6818C63.3082 41.0985 63.2154 40.5549 63.0298 40.0511C62.8442 39.5473 62.5582 39.1402 62.1719 38.8295C61.7855 38.5189 61.2931 38.3636 60.6946 38.3636C60.0961 38.3636 59.6037 38.5189 59.2173 38.8295C58.831 39.1402 58.545 39.5473 58.3594 40.0511C58.1738 40.5549 58.081 41.0985 58.081 41.6818C58.081 42.2652 58.1738 42.8068 58.3594 43.3068C58.545 43.8068 58.831 44.2102 59.2173 44.517C59.6037 44.8239 60.0961 44.9773 60.6946 44.9773ZM69.6915 46.1818C68.9642 46.1818 68.3222 45.9981 67.7653 45.6307C67.2085 45.2595 66.7729 44.7367 66.4585 44.0625C66.1441 43.3845 65.9869 42.5833 65.9869 41.6591C65.9869 40.7424 66.1441 39.947 66.4585 39.2727C66.7729 38.5985 67.2104 38.0777 67.771 37.7102C68.3316 37.3428 68.9794 37.1591 69.7142 37.1591C70.2824 37.1591 70.7313 37.2538 71.0608 37.4432C71.3941 37.6288 71.6479 37.8409 71.8222 38.0795C72.0002 38.3144 72.1384 38.5076 72.2369 38.6591H72.3506V34.3636H73.6915V46H72.396V44.6591H72.2369C72.1384 44.8182 71.9983 45.0189 71.8165 45.2614C71.6347 45.5 71.3752 45.714 71.0381 45.9034C70.7009 46.089 70.2521 46.1818 69.6915 46.1818ZM69.8733 44.9773C70.4112 44.9773 70.8657 44.8371 71.2369 44.5568C71.6081 44.2727 71.8903 43.8807 72.0835 43.3807C72.2767 42.8769 72.3733 42.2955 72.3733 41.6364C72.3733 40.9848 72.2786 40.4148 72.0892 39.9261C71.8998 39.4337 71.6195 39.0511 71.2483 38.7784C70.8771 38.5019 70.4188 38.3636 69.8733 38.3636C69.3051 38.3636 68.8316 38.5095 68.4528 38.8011C68.0778 39.089 67.7956 39.4811 67.6063 39.9773C67.4206 40.4697 67.3278 41.0227 67.3278 41.6364C67.3278 42.2576 67.4225 42.822 67.6119 43.3295C67.8051 43.8333 68.0892 44.2348 68.4642 44.5341C68.843 44.8295 69.3127 44.9773 69.8733 44.9773ZM79.6926 46.1818C78.8517 46.1818 78.1263 45.9962 77.5165 45.625C76.9104 45.25 76.4426 44.7273 76.1131 44.0568C75.7873 43.3826 75.6244 42.5985 75.6244 41.7045C75.6244 40.8106 75.7873 40.0227 76.1131 39.3409C76.4426 38.6553 76.9009 38.1212 77.4881 37.7386C78.079 37.3523 78.7684 37.1591 79.5563 37.1591C80.0108 37.1591 80.4597 37.2348 80.9028 37.3864C81.346 37.5379 81.7494 37.7841 82.1131 38.125C82.4767 38.4621 82.7665 38.9091 82.9824 39.4659C83.1983 40.0227 83.3063 40.7083 83.3063 41.5227V42.0909H76.579V40.9318H81.9426C81.9426 40.4394 81.8441 40 81.6472 39.6136C81.454 39.2273 81.1775 38.9223 80.8176 38.6989C80.4616 38.4754 80.0411 38.3636 79.5563 38.3636C79.0222 38.3636 78.56 38.4962 78.1699 38.7614C77.7835 39.0227 77.4862 39.3636 77.2778 39.7841C77.0695 40.2045 76.9653 40.6553 76.9653 41.1364V41.9091C76.9653 42.5682 77.079 43.1269 77.3063 43.5852C77.5373 44.0398 77.8574 44.3864 78.2665 44.625C78.6756 44.8598 79.1509 44.9773 79.6926 44.9773C80.0449 44.9773 80.3631 44.928 80.6472 44.8295C80.935 44.7273 81.1831 44.5758 81.3915 44.375C81.5998 44.1705 81.7608 43.9167 81.8744 43.6136L83.1699 43.9773C83.0335 44.4167 82.8044 44.803 82.4824 45.1364C82.1604 45.4659 81.7627 45.7235 81.2892 45.9091C80.8157 46.0909 80.2835 46.1818 79.6926 46.1818ZM93.0415 37.2727V38.4091H88.5188V37.2727H93.0415ZM89.8369 35.1818H91.1778V43.5C91.1778 43.8788 91.2328 44.1629 91.3426 44.3523C91.4563 44.5379 91.6002 44.6629 91.7744 44.7273C91.9525 44.7879 92.14 44.8182 92.3369 44.8182C92.4847 44.8182 92.6059 44.8106 92.7006 44.7955C92.7953 44.7765 92.871 44.7614 92.9278 44.75L93.2006 45.9545C93.1097 45.9886 92.9828 46.0227 92.8199 46.0568C92.657 46.0947 92.4506 46.1136 92.2006 46.1136C91.8218 46.1136 91.4506 46.0322 91.0869 45.8693C90.7271 45.7064 90.4278 45.4583 90.1892 45.125C89.9544 44.7917 89.8369 44.3712 89.8369 43.8636V35.1818ZM98.2102 46.1818C97.4223 46.1818 96.7311 45.9943 96.1364 45.6193C95.5455 45.2443 95.0833 44.7197 94.75 44.0455C94.4205 43.3712 94.2557 42.5833 94.2557 41.6818C94.2557 40.7727 94.4205 39.9792 94.75 39.3011C95.0833 38.6231 95.5455 38.0966 96.1364 37.7216C96.7311 37.3466 97.4223 37.1591 98.2102 37.1591C98.9981 37.1591 99.6875 37.3466 100.278 37.7216C100.873 38.0966 101.335 38.6231 101.665 39.3011C101.998 39.9792 102.165 40.7727 102.165 41.6818C102.165 42.5833 101.998 43.3712 101.665 44.0455C101.335 44.7197 100.873 45.2443 100.278 45.6193C99.6875 45.9943 98.9981 46.1818 98.2102 46.1818ZM98.2102 44.9773C98.8087 44.9773 99.3011 44.8239 99.6875 44.517C100.074 44.2102 100.36 43.8068 100.545 43.3068C100.731 42.8068 100.824 42.2652 100.824 41.6818C100.824 41.0985 100.731 40.5549 100.545 40.0511C100.36 39.5473 100.074 39.1402 99.6875 38.8295C99.3011 38.5189 98.8087 38.3636 98.2102 38.3636C97.6117 38.3636 97.1193 38.5189 96.733 38.8295C96.3466 39.1402 96.0606 39.5473 95.875 40.0511C95.6894 40.5549 95.5966 41.0985 95.5966 41.6818C95.5966 42.2652 95.6894 42.8068 95.875 43.3068C96.0606 43.8068 96.3466 44.2102 96.733 44.517C97.1193 44.8239 97.6117 44.9773 98.2102 44.9773ZM108.112 49.2727V37.2727H109.407V38.6591H109.566C109.665 38.5076 109.801 38.3144 109.975 38.0795C110.153 37.8409 110.407 37.6288 110.737 37.4432C111.07 37.2538 111.521 37.1591 112.089 37.1591C112.824 37.1591 113.471 37.3428 114.032 37.7102C114.593 38.0777 115.03 38.5985 115.345 39.2727C115.659 39.947 115.816 40.7424 115.816 41.6591C115.816 42.5833 115.659 43.3845 115.345 44.0625C115.03 44.7367 114.595 45.2595 114.038 45.6307C113.481 45.9981 112.839 46.1818 112.112 46.1818C111.551 46.1818 111.102 46.089 110.765 45.9034C110.428 45.714 110.168 45.5 109.987 45.2614C109.805 45.0189 109.665 44.8182 109.566 44.6591H109.453V49.2727H108.112ZM109.43 41.6364C109.43 42.2955 109.526 42.8769 109.72 43.3807C109.913 43.8807 110.195 44.2727 110.566 44.5568C110.937 44.8371 111.392 44.9773 111.93 44.9773C112.49 44.9773 112.958 44.8295 113.333 44.5341C113.712 44.2348 113.996 43.8333 114.186 43.3295C114.379 42.822 114.475 42.2576 114.475 41.6364C114.475 41.0227 114.381 40.4697 114.191 39.9773C114.006 39.4811 113.723 39.089 113.345 38.8011C112.97 38.5095 112.498 38.3636 111.93 38.3636C111.384 38.3636 110.926 38.5019 110.555 38.7784C110.184 39.0511 109.903 39.4337 109.714 39.9261C109.525 40.4148 109.43 40.9848 109.43 41.6364ZM117.562 46V37.2727H118.857V38.5909H118.948C119.107 38.1591 119.395 37.8087 119.812 37.5398C120.228 37.2708 120.698 37.1364 121.221 37.1364C121.319 37.1364 121.442 37.1383 121.59 37.142C121.738 37.1458 121.85 37.1515 121.925 37.1591V38.5227C121.88 38.5114 121.776 38.4943 121.613 38.4716C121.454 38.4451 121.285 38.4318 121.107 38.4318C120.683 38.4318 120.304 38.5208 119.971 38.6989C119.641 38.8731 119.38 39.1155 119.187 39.4261C118.997 39.733 118.903 40.0833 118.903 40.4773V46H117.562ZM126.495 46.1818C125.707 46.1818 125.015 45.9943 124.421 45.6193C123.83 45.2443 123.368 44.7197 123.034 44.0455C122.705 43.3712 122.54 42.5833 122.54 41.6818C122.54 40.7727 122.705 39.9792 123.034 39.3011C123.368 38.6231 123.83 38.0966 124.421 37.7216C125.015 37.3466 125.707 37.1591 126.495 37.1591C127.282 37.1591 127.972 37.3466 128.563 37.7216C129.157 38.0966 129.62 38.6231 129.949 39.3011C130.282 39.9792 130.449 40.7727 130.449 41.6818C130.449 42.5833 130.282 43.3712 129.949 44.0455C129.62 44.7197 129.157 45.2443 128.563 45.6193C127.972 45.9943 127.282 46.1818 126.495 46.1818ZM126.495 44.9773C127.093 44.9773 127.586 44.8239 127.972 44.517C128.358 44.2102 128.644 43.8068 128.83 43.3068C129.015 42.8068 129.108 42.2652 129.108 41.6818C129.108 41.0985 129.015 40.5549 128.83 40.0511C128.644 39.5473 128.358 39.1402 127.972 38.8295C127.586 38.5189 127.093 38.3636 126.495 38.3636C125.896 38.3636 125.404 38.5189 125.017 38.8295C124.631 39.1402 124.345 39.5473 124.159 40.0511C123.974 40.5549 123.881 41.0985 123.881 41.6818C123.881 42.2652 123.974 42.8068 124.159 43.3068C124.345 43.8068 124.631 44.2102 125.017 44.517C125.404 44.8239 125.896 44.9773 126.495 44.9773ZM135.741 46.1818C134.923 46.1818 134.219 45.9886 133.628 45.6023C133.037 45.2159 132.582 44.6837 132.264 44.0057C131.946 43.3277 131.787 42.553 131.787 41.6818C131.787 40.7955 131.95 40.0133 132.276 39.3352C132.605 38.6534 133.063 38.1212 133.651 37.7386C134.241 37.3523 134.931 37.1591 135.719 37.1591C136.332 37.1591 136.885 37.2727 137.378 37.5C137.87 37.7273 138.274 38.0455 138.588 38.4545C138.902 38.8636 139.098 39.3409 139.173 39.8864H137.832C137.73 39.4886 137.503 39.1364 137.151 38.8295C136.802 38.5189 136.332 38.3636 135.741 38.3636C135.219 38.3636 134.76 38.5 134.366 38.7727C133.976 39.0417 133.671 39.4223 133.452 39.9148C133.236 40.4034 133.128 40.9773 133.128 41.6364C133.128 42.3106 133.234 42.8977 133.446 43.3977C133.662 43.8977 133.965 44.286 134.355 44.5625C134.749 44.839 135.211 44.9773 135.741 44.9773C136.09 44.9773 136.406 44.9167 136.69 44.7955C136.974 44.6742 137.215 44.5 137.412 44.2727C137.609 44.0455 137.749 43.7727 137.832 43.4545H139.173C139.098 43.9697 138.91 44.4337 138.611 44.8466C138.315 45.2557 137.923 45.5814 137.435 45.8239C136.95 46.0625 136.385 46.1818 135.741 46.1818ZM144.493 46.1818C143.652 46.1818 142.926 45.9962 142.316 45.625C141.71 45.25 141.243 44.7273 140.913 44.0568C140.587 43.3826 140.424 42.5985 140.424 41.7045C140.424 40.8106 140.587 40.0227 140.913 39.3409C141.243 38.6553 141.701 38.1212 142.288 37.7386C142.879 37.3523 143.568 37.1591 144.356 37.1591C144.811 37.1591 145.26 37.2348 145.703 37.3864C146.146 37.5379 146.549 37.7841 146.913 38.125C147.277 38.4621 147.566 38.9091 147.782 39.4659C147.998 40.0227 148.106 40.7083 148.106 41.5227V42.0909H141.379V40.9318H146.743C146.743 40.4394 146.644 40 146.447 39.6136C146.254 39.2273 145.977 38.9223 145.618 38.6989C145.262 38.4754 144.841 38.3636 144.356 38.3636C143.822 38.3636 143.36 38.4962 142.97 38.7614C142.584 39.0227 142.286 39.3636 142.078 39.7841C141.87 40.2045 141.765 40.6553 141.765 41.1364V41.9091C141.765 42.5682 141.879 43.1269 142.106 43.5852C142.337 44.0398 142.657 44.3864 143.066 44.625C143.476 44.8598 143.951 44.9773 144.493 44.9773C144.845 44.9773 145.163 44.928 145.447 44.8295C145.735 44.7273 145.983 44.5758 146.191 44.375C146.4 44.1705 146.561 43.9167 146.674 43.6136L147.97 43.9773C147.834 44.4167 147.604 44.803 147.282 45.1364C146.96 45.4659 146.563 45.7235 146.089 45.9091C145.616 46.0909 145.084 46.1818 144.493 46.1818ZM153.505 46.1818C152.664 46.1818 151.939 45.9962 151.329 45.625C150.723 45.25 150.255 44.7273 149.926 44.0568C149.6 43.3826 149.437 42.5985 149.437 41.7045C149.437 40.8106 149.6 40.0227 149.926 39.3409C150.255 38.6553 150.713 38.1212 151.301 37.7386C151.891 37.3523 152.581 37.1591 153.369 37.1591C153.823 37.1591 154.272 37.2348 154.715 37.3864C155.159 37.5379 155.562 37.7841 155.926 38.125C156.289 38.4621 156.579 38.9091 156.795 39.4659C157.011 40.0227 157.119 40.7083 157.119 41.5227V42.0909H150.391V40.9318H155.755C155.755 40.4394 155.657 40 155.46 39.6136C155.266 39.2273 154.99 38.9223 154.63 38.6989C154.274 38.4754 153.854 38.3636 153.369 38.3636C152.835 38.3636 152.373 38.4962 151.982 38.7614C151.596 39.0227 151.299 39.3636 151.09 39.7841C150.882 40.2045 150.778 40.6553 150.778 41.1364V41.9091C150.778 42.5682 150.891 43.1269 151.119 43.5852C151.35 44.0398 151.67 44.3864 152.079 44.625C152.488 44.8598 152.963 44.9773 153.505 44.9773C153.857 44.9773 154.176 44.928 154.46 44.8295C154.748 44.7273 154.996 44.5758 155.204 44.375C155.412 44.1705 155.573 43.9167 155.687 43.6136L156.982 43.9773C156.846 44.4167 156.617 44.803 156.295 45.1364C155.973 45.4659 155.575 45.7235 155.102 45.9091C154.628 46.0909 154.096 46.1818 153.505 46.1818ZM162.154 46.1818C161.427 46.1818 160.785 45.9981 160.228 45.6307C159.671 45.2595 159.235 44.7367 158.921 44.0625C158.607 43.3845 158.449 42.5833 158.449 41.6591C158.449 40.7424 158.607 39.947 158.921 39.2727C159.235 38.5985 159.673 38.0777 160.234 37.7102C160.794 37.3428 161.442 37.1591 162.177 37.1591C162.745 37.1591 163.194 37.2538 163.523 37.4432C163.857 37.6288 164.11 37.8409 164.285 38.0795C164.463 38.3144 164.601 38.5076 164.699 38.6591H164.813V34.3636H166.154V46H164.859V44.6591H164.699C164.601 44.8182 164.461 45.0189 164.279 45.2614C164.097 45.5 163.838 45.714 163.501 45.9034C163.163 46.089 162.715 46.1818 162.154 46.1818ZM162.336 44.9773C162.874 44.9773 163.328 44.8371 163.699 44.5568C164.071 44.2727 164.353 43.8807 164.546 43.3807C164.739 42.8769 164.836 42.2955 164.836 41.6364C164.836 40.9848 164.741 40.4148 164.552 39.9261C164.362 39.4337 164.082 39.0511 163.711 38.7784C163.34 38.5019 162.881 38.3636 162.336 38.3636C161.768 38.3636 161.294 38.5095 160.915 38.8011C160.54 39.089 160.258 39.4811 160.069 39.9773C159.883 40.4697 159.79 41.0227 159.79 41.6364C159.79 42.2576 159.885 42.822 160.074 43.3295C160.268 43.8333 160.552 44.2348 160.927 44.5341C161.305 44.8295 161.775 44.9773 162.336 44.9773ZM169.473 46.0909C169.193 46.0909 168.952 45.9905 168.752 45.7898C168.551 45.589 168.451 45.3485 168.451 45.0682C168.451 44.7879 168.551 44.5473 168.752 44.3466C168.952 44.1458 169.193 44.0455 169.473 44.0455C169.754 44.0455 169.994 44.1458 170.195 44.3466C170.396 44.5473 170.496 44.7879 170.496 45.0682C170.496 45.2538 170.449 45.4242 170.354 45.5795C170.263 45.7348 170.14 45.8598 169.985 45.9545C169.833 46.0455 169.663 46.0909 169.473 46.0909Z" fill="black"/>
<defs>
<filter id="filter0_d" x="0" y="0" width="252" height="62" filterUnits="userSpaceOnUse" color-interpolation-filters="sRGB">
<feFlood flood-opacity="0" result="BackgroundImageFix"/>
<feColorMatrix in="SourceAlpha" type="matrix" values="0 0 0 0 0 0 0 0 0 0 0 0 0 0 0 0 0 0 127 0"/>
<feOffset dy="1"/>
<feGaussianBlur stdDeviation="0.5"/>
<feColorMatrix type="matrix" values="0 0 0 0 0.14902 0 0 0 0 0.207843 0 0 0 0 0.25098 0 0 0 0.3 0"/>
<feBlend mode="multiply" in2="BackgroundImageFix" result="effect1_dropShadow"/>
<feBlend mode="normal" in="SourceGraphic" in2="effect1_dropShadow" result="shape"/>
</filter>
</defs>
</svg>
