<svg width="48" height="49" viewBox="0 0 48 49" fill="none" xmlns="http://www.w3.org/2000/svg">
<circle cx="24.0004" cy="24.5" r="21.6" fill="url(#paint0_linear)"/>
<path d="M35.8716 34.0064C37.7849 32.6412 39.0006 30.6183 39.0006 28.3562C39.0006 24.2606 35.0146 20.9323 30.1019 20.9323C25.1891 20.9323 21.2031 24.2606 21.2031 28.3562C21.2031 32.4518 25.1891 35.7801 30.1019 35.7801C31.1681 35.7801 32.1845 35.6207 33.1312 35.3417C33.3006 35.2918 33.48 35.3118 33.6295 35.4015L35.5627 36.5175C35.9912 36.7667 36.2403 36.5773 36.1107 36.099L35.6922 34.5046C35.6424 34.3053 35.7121 34.116 35.8716 34.0064ZM27.1323 27.1804C26.4646 27.1804 25.9265 26.6422 25.9265 25.9746C25.9265 25.3069 26.4646 24.7688 27.1323 24.7688C27.7999 24.7688 28.3381 25.3069 28.3381 25.9746C28.3381 26.6422 27.7999 27.1804 27.1323 27.1804ZM33.0316 27.1804C32.3639 27.1804 31.8258 26.6422 31.8258 25.9746C31.8258 25.3069 32.3639 24.7688 33.0316 24.7688C33.6992 24.7688 34.2373 25.3069 34.2373 25.9746C34.2373 26.6422 33.6992 27.1804 33.0316 27.1804Z" fill="white"/>
<path d="M20.2061 12.7213C14.2969 12.7213 9.51367 16.7072 9.51367 21.62C9.51367 24.3205 10.9586 26.742 13.2406 28.3762C13.4598 28.5257 13.5495 28.7948 13.4897 29.0539L12.9914 30.9273C12.842 31.4953 13.131 31.7145 13.6392 31.4156L15.9311 30.0802C16.1404 29.9607 16.3795 29.9308 16.6087 30.0005C17.7348 30.3393 18.9505 30.5187 20.2161 30.5187C20.4054 30.5187 20.6047 30.5187 20.794 30.5087C20.5549 29.8112 20.4353 29.0738 20.4353 28.3164C20.4353 23.8422 24.8199 20.2149 30.2209 20.2149C30.4102 20.2149 30.5996 20.2149 30.7789 20.2249C29.9718 15.9798 25.5473 12.7213 20.2061 12.7213ZM16.6187 20.185C15.8315 20.185 15.1937 19.5473 15.1937 18.76C15.1937 17.9728 15.8315 17.335 16.6187 17.335C17.4059 17.335 18.0437 17.9728 18.0437 18.76C18.0437 19.5473 17.4059 20.185 16.6187 20.185ZM23.7636 20.185C22.9764 20.185 22.3386 19.5473 22.3386 18.76C22.3386 17.9728 22.9764 17.335 23.7636 17.335C24.5508 17.335 25.1886 17.9728 25.1886 18.76C25.1786 19.5473 24.5409 20.185 23.7636 20.185Z" fill="white"/>
<defs>
<linearGradient id="paint0_linear" x1="24.0004" y1="2.90002" x2="24.0004" y2="46.1" gradientUnits="userSpaceOnUse">
<stop stop-color="#3AD41A"/>
<stop offset="1" stop-color="#31B716"/>
</linearGradient>
</defs>
</svg>
