<svg width="75" height="75" viewBox="0 0 75 75" fill="none" xmlns="http://www.w3.org/2000/svg">
<ellipse cx="37.5" cy="37.5" rx="33.75" ry="33.75" fill="#25D366"/>
<path fill-rule="evenodd" clip-rule="evenodd" d="M47.4174 41.0946C46.9168 40.8441 44.4558 39.6335 43.9968 39.4666C43.538 39.2996 43.2044 39.2161 42.8707 39.717C42.537 40.218 41.5777 41.3451 41.2856 41.6791C40.9937 42.013 40.7017 42.0549 40.2012 41.8043C39.7006 41.5539 38.0877 41.0254 36.1758 39.3206C34.6877 37.9938 33.6831 36.3549 33.391 35.854C33.0991 35.353 33.36 35.0822 33.6106 34.8327C33.8357 34.6086 34.1111 34.2483 34.3614 33.9561C34.6117 33.6638 34.6951 33.4551 34.862 33.1212C35.0288 32.7872 34.9454 32.495 34.8202 32.2445C34.6951 31.994 33.6941 29.531 33.2769 28.529C32.8706 27.5533 32.4579 27.6853 32.1507 27.67C31.859 27.6555 31.525 27.6524 31.1913 27.6524C30.8576 27.6524 30.3153 27.7777 29.8564 28.2786C29.3976 28.7795 28.1045 29.9903 28.1045 32.4532C28.1045 34.9162 29.8982 37.2958 30.1485 37.6298C30.3987 37.9638 33.6782 43.0182 38.6995 45.1857C39.8938 45.7013 40.8262 46.0092 41.5532 46.2399C42.7523 46.6207 43.8436 46.567 44.706 46.4381C45.6677 46.2945 47.6676 45.2275 48.0848 44.0586C48.5018 42.8898 48.5018 41.8878 48.3767 41.6791C48.2516 41.4704 47.9179 41.3451 47.4174 41.0946ZM38.2841 53.5613H38.2774C35.2895 53.5602 32.359 52.7578 29.8025 51.2412L29.1945 50.8803L22.8924 52.5331L24.5746 46.3906L24.1786 45.7608C22.5119 43.1105 21.6316 40.0473 21.6328 36.9021C21.6365 27.7243 29.1061 20.2576 38.2908 20.2576C42.7382 20.2593 46.9189 21.993 50.0627 25.1393C53.2064 28.2856 54.9368 32.4679 54.935 36.9156C54.9313 46.0941 47.4617 53.5613 38.2841 53.5613ZM52.455 22.7485C48.6727 18.963 43.6427 16.8773 38.2836 16.8752C27.2414 16.8752 18.2545 25.8587 18.25 36.9009C18.2486 40.4306 19.171 43.8761 20.9241 46.9131L18.082 57.291L28.7021 54.5062C31.6282 56.1016 34.9226 56.9424 38.2756 56.9438H38.2838H38.2838C49.3249 56.9438 58.3126 47.9592 58.3172 36.9169C58.3192 31.5656 56.2374 26.5339 52.455 22.7485Z" fill="white"/>
</svg>
