<svg width="48" height="49" viewBox="0 0 48 49" fill="none" xmlns="http://www.w3.org/2000/svg">
<circle cx="24.0004" cy="24.5" r="21.6" fill="#25D366"/>
<path fill-rule="evenodd" clip-rule="evenodd" d="M30.3474 26.8004C30.027 26.6401 28.452 25.8653 28.1583 25.7585C27.8647 25.6516 27.6511 25.5981 27.4376 25.9188C27.224 26.2394 26.61 26.9607 26.4231 27.1745C26.2363 27.3882 26.0494 27.415 25.729 27.2546C25.4087 27.0944 24.3764 26.7561 23.1528 25.665C22.2004 24.8159 21.5575 23.767 21.3706 23.4464C21.1837 23.1258 21.3507 22.9525 21.5111 22.7928C21.6552 22.6494 21.8314 22.4188 21.9916 22.2317C22.1518 22.0447 22.2052 21.9111 22.312 21.6974C22.4188 21.4837 22.3654 21.2966 22.2852 21.1363C22.2052 20.976 21.5645 19.3997 21.2975 18.7584C21.0375 18.134 20.7734 18.2185 20.5767 18.2087C20.3901 18.1994 20.1763 18.1974 19.9627 18.1974C19.7491 18.1974 19.4021 18.2776 19.1084 18.5981C18.8148 18.9188 17.9872 19.6936 17.9872 21.2699C17.9872 22.8463 19.1351 24.3691 19.2953 24.5829C19.4555 24.7967 21.5543 28.0315 24.768 29.4187C25.5323 29.7487 26.1291 29.9457 26.5943 30.0934C27.3618 30.3371 28.0602 30.3027 28.6122 30.2203C29.2277 30.1283 30.5076 29.4455 30.7746 28.6974C31.0415 27.9493 31.0415 27.3081 30.9614 27.1745C30.8814 27.0409 30.6678 26.9607 30.3474 26.8004ZM24.5022 34.7791H24.4979C22.5856 34.7784 20.7101 34.2649 19.074 33.2942L18.6848 33.0633L14.6515 34.121L15.7281 30.1898L15.4746 29.7868C14.4079 28.0906 13.8445 26.1302 13.8453 24.1172C13.8477 18.2435 18.6283 13.4647 24.5064 13.4647C27.3528 13.4658 30.0284 14.5754 32.0404 16.589C34.0524 18.6027 35.1599 21.2793 35.1588 24.1259C35.1564 30.0001 30.3758 34.7791 24.5022 34.7791ZM33.5719 15.0589C31.1513 12.6362 27.932 11.3013 24.5022 11.3C17.4353 11.3 11.6836 17.0494 11.6808 24.1165C11.6798 26.3755 12.2702 28.5806 13.3922 30.5243L11.5732 37.1661L18.3701 35.3838C20.2428 36.4049 22.3512 36.943 24.4971 36.9439H24.5023H24.5024C31.5687 36.9439 37.3208 31.1937 37.3237 24.1267C37.325 20.7019 35.9927 17.4816 33.5719 15.0589Z" fill="white"/>
</svg>
